<?xml version="1.0" standalone="no"?>
<!DOCTYPE svg PUBLIC "-//W3C//DTD SVG 20010904//EN"
 "http://www.w3.org/TR/2001/REC-SVG-20010904/DTD/svg10.dtd">
<svg version="1.0" xmlns="http://www.w3.org/2000/svg"
 width="704.000000pt" height="704.000000pt" viewBox="0 0 704.000000 704.000000"
 preserveAspectRatio="xMidYMid meet">
<metadata>
Created by potrace 1.14, written by Peter Selinger 2001-2017
</metadata>
<g transform="translate(0.000000,704.000000) scale(0.100000,-0.100000)"
fill="#000000" stroke="none">
<path d="M3300 7033 c-198 -15 -485 -72 -688 -138 -921 -297 -1661 -1060
-1927 -1985 -81 -280 -115 -527 -116 -825 -1 -447 79 -828 260 -1232 143 -322
342 -607 610 -874 170 -169 263 -245 456 -374 268 -179 608 -332 880 -396 28
-7 55 -16 62 -21 6 -5 163 -272 349 -594 185 -321 341 -583 345 -582 5 2 161
266 346 587 186 321 345 588 353 592 8 4 67 22 130 39 266 74 556 209 800 372
182 121 283 202 434 348 245 238 435 497 586 798 214 429 311 842 311 1327 0
228 -16 392 -56 590 -116 576 -385 1076 -805 1496 -182 183 -273 259 -462 385
-406 271 -882 438 -1378 483 -106 10 -383 12 -490 4z m550 -758 c872 -131
1586 -760 1819 -1601 70 -250 98 -566 72 -815 -87 -837 -625 -1548 -1405
-1854 -258 -101 -518 -148 -811 -148 -601 1 -1134 223 -1561 648 -196 195
-315 362 -434 607 -161 334 -229 659 -217 1043 18 585 254 1111 683 1526 367
354 836 563 1374 613 87 8 376 -4 480 -19z"/>
<path d="M3482 5728 c-50 -36 -1392 -1447 -1403 -1474 -14 -39 -11 -76 11
-112 30 -50 71 -62 204 -62 107 0 116 -1 130 -22 14 -20 16 -91 16 -573 0
-619 -1 -602 76 -661 l37 -29 981 -3 c540 -1 991 0 1003 3 26 6 88 59 106 89
9 15 13 172 17 594 5 553 6 574 24 588 14 10 50 14 128 14 121 0 162 12 196
55 16 20 22 42 22 76 0 57 84 -36 -791 880 -335 349 -620 641 -634 647 -40 18
-89 14 -123 -10z"/>
</g>
</svg>
