<svg width="311" height="219" viewBox="0 0 311 219" fill="none" xmlns="http://www.w3.org/2000/svg">
<path d="M195.288 50.1821C195.27 50.1032 195.248 50.0285 195.23 49.9485C186.763 11.2484 122.873 19.2466 122.873 19.2466C106.469 20.8059 94.2856 24.6374 85.2531 29.3046C70.9884 36.6752 61.5889 50.1723 59.7581 65.3377C58.6865 74.2135 54.2929 87.5085 40.1495 92.3114C12.6009 101.667 22.2714 123.037 24.9719 130.521C27.324 137.04 40.6124 144.753 21.2586 161.62C1.90481 178.487 23.284 207.372 23.284 207.372L195.288 207.628V50.1821Z" fill="#ECF4FA"/>
<path d="M278.198 100.26V207.751L287.623 207.765C294.396 207.778 303.194 133.18 278.198 100.26Z" fill="#ECF4FA"/>
<g opacity="0.5">
<path d="M195.287 208.91H278.198V22.9363H195.287L195.287 208.91Z" fill="#9BC1F9"/>
<path d="M275.268 25.6436V207.868L198.811 208.253L198.249 25.6436H275.268Z" fill="#C5DDF9"/>
<path d="M242.441 207.63H233.295L202.876 25.6436H212.022L242.441 207.63Z" fill="white"/>
<path d="M230.198 25.6436H249.05L275.268 181.084V205.994H260.617L230.198 25.6436Z" fill="white"/>
</g>
<path d="M193.138 24.7629C193.049 24.8858 192.916 25.0568 192.721 25.2925C192.719 25.2959 192.716 25.2993 192.714 25.3027C192.721 25.3306 195.183 34.2499 193.244 34.9272C191.466 35.5483 191.317 29.0089 192.038 26.2679C191.644 26.877 191.291 27.5167 190.999 28.1851C190.499 29.3278 190.157 30.802 189.932 32.4457C190.293 33.0379 192.501 36.7594 191.395 37.5252C190.498 38.1465 189.911 35.6999 189.748 34.0834C189.619 35.5444 189.563 37.0888 189.556 38.6221C190.751 38.915 194.359 39.9514 194.427 41.8034C194.502 43.8729 191.401 43.2625 189.557 39.4241C189.568 40.9488 189.623 42.4448 189.701 43.8182C190.56 44.5932 194.091 47.9257 193.522 49.8513C192.945 51.8016 190.73 49.5677 189.796 45.3078C189.969 47.7471 190.19 49.5991 190.287 50.184C190.319 50.3767 190.355 50.6246 190.393 50.9166C190.407 51.0234 190.422 51.1367 190.437 51.2548C190.437 51.2548 195.926 58.6548 194.354 60.3585C193.24 61.5664 191.571 56.6228 190.695 53.6429C190.998 56.8066 191.265 60.9329 191.01 62.2056L190.99 62.2015C191.184 65.0544 191.317 70.2412 189.746 70.5032C187.573 70.8655 189.746 65.0685 189.746 65.0685C189.746 65.0685 187.095 66.1273 186.849 65.0685C186.438 63.2959 190.152 60.7999 190.751 60.4105C190.745 58.835 190.601 56.6019 190.422 54.5741C190.223 58.9222 189.137 60.2152 188.714 60.3584C188.19 60.5356 187.111 59.4718 187.481 56.1109C187.768 53.4996 189.367 51.8111 190.066 51.1875C190.018 50.8164 189.972 50.4966 189.93 50.2434C189.836 49.6824 189.631 47.9624 189.461 45.6751C189.037 49.2505 188.032 52.1757 187.125 50.364C186.242 48.5979 188.549 45.2188 189.358 44.1214C189.265 42.5268 189.199 40.754 189.198 38.9537C188.524 40.7213 185.569 44.0444 185.2 42.1427C184.837 40.2726 188.506 38.3268 189.205 37.9747C189.226 36.4337 189.3 34.8939 189.451 33.4486C188.631 34.9056 186.128 37.8904 185.831 36.2792C185.492 34.4396 189.688 31.6157 189.688 31.6157C189.688 31.6157 189.69 31.6185 189.694 31.6227C189.92 30.2544 190.235 29.0266 190.667 28.0403C190.946 27.4022 191.278 26.7898 191.648 26.205C190.097 27.2574 187.724 28.1935 187.82 27.0952C187.924 25.9034 191.573 24.9395 192.737 24.6618C192.777 24.6045 192.804 24.5806 192.821 24.5812C193.238 24.0679 193.677 23.5834 194.124 23.1279H194.633C194.119 23.6342 193.614 24.1799 193.138 24.7629Z" fill="#327F6B"/>
<path d="M196.295 27.8662C195.138 28.5191 195.561 25.26 195.946 23.1279H197.078C197.287 24.91 197.337 27.2791 196.295 27.8662Z" fill="#327F6B"/>
<path d="M194.781 27.6831C193.243 27.4676 194.626 25.1441 196.793 23.1279H199.064C197.919 25.2259 196.178 27.8788 194.781 27.6831Z" fill="#327F6B"/>
<path d="M200.931 23.1279H203.259C204.452 24.6171 205.354 26.4508 204.543 28.0955C203.397 30.4176 201.853 26.249 200.931 23.1279Z" fill="#327F6B"/>
<path d="M199.508 23.1279H199.893C199.794 23.8171 199.687 24.5816 199.575 25.4093C200.507 27.2482 205.265 36.952 202.997 39.0339C200.49 41.3361 199.597 29.5502 199.597 29.5502L199.465 26.2306C199.085 29.0938 198.666 32.5847 198.336 36.1885C199.198 36.8992 202.764 40.0314 201.28 42.0922C199.899 44.0092 198.679 38.7087 198.286 36.7429C198.074 39.1271 197.903 41.5488 197.812 43.8602C198.723 44.2838 202.566 46.1956 201.512 47.865C200.491 49.4818 198.37 45.8938 197.778 44.8226C197.736 46.2394 197.725 47.6053 197.756 48.8851C198.751 49.353 203.205 51.533 202.104 52.5725C200.868 53.7408 198.326 50.613 198.326 50.613C198.326 50.613 200.318 58.6202 198.153 57.7612C195.987 56.9023 197.433 50.1329 197.365 49.9612L197.402 49.7432C197.36 48.6911 197.348 47.5719 197.363 46.4067C196.961 47.4374 196.184 49.1541 195.716 48.4149C195.166 47.5453 196.846 45.7708 197.385 45.2371C197.427 43.6491 197.51 41.9926 197.623 40.3183C196.84 42.2945 195.206 45.1493 194.377 43.8106C193.446 42.309 196.944 38.4253 197.84 37.4703C198.048 35.0102 198.305 32.5738 198.569 30.3214C197.469 33.2006 193.886 39.2922 192.728 37.2132C191.522 35.0483 197.734 28.2664 198.988 26.9318C199.173 25.5107 199.35 24.2249 199.508 23.1279Z" fill="#3C8F7C"/>
<path d="M212.06 25.251C211.121 27.7577 209.264 31.9847 207.443 31.9356C204.985 31.8692 208.493 26.3854 212.111 23.829C212.118 23.6515 212.124 23.4863 212.131 23.3311C212.72 23.4449 213.307 23.5668 213.873 23.7558C215.935 25.1924 219.428 28.1972 218.356 31.1709C217.091 34.6756 213.752 26.3357 212.752 23.6813C212.704 24.9234 212.641 26.7519 212.592 28.9583C214.066 31.2192 220.214 40.9972 218.006 43.5355C215.504 46.4114 213.035 33.4093 213.035 33.4093L212.564 30.3367C212.508 33.4693 212.487 37.1969 212.567 41.023C213.772 41.822 217.829 44.7505 216.478 47.1537C215.246 49.3444 213.36 44.2688 212.588 41.9226C212.653 44.5025 212.766 47.109 212.947 49.5916C214.177 50.0132 218.393 51.619 217.458 53.5478C216.567 55.3886 213.963 52.0697 213.041 50.7949C213.17 52.332 213.327 53.8099 213.517 55.191C214.867 55.6556 219.77 57.4537 218.707 58.7114C217.478 60.1663 214.258 57.0045 214.258 57.0045C214.258 57.0045 217.478 65.6643 214.96 64.98C212.742 64.3769 213.07 58.316 213.112 56.7601C212.905 55.5042 212.73 54.1477 212.583 52.7229C212.245 53.9243 211.646 55.5932 211.078 54.8859C210.395 54.0345 211.837 52.0298 212.444 51.2588C212.295 49.5501 212.181 47.7648 212.096 45.9545C211.432 48.2299 210.053 51.2537 209.011 49.9306C207.83 48.4304 210.963 43.9427 211.971 42.5766C211.896 39.9069 211.873 37.2539 211.882 34.782C210.888 38.2594 207.842 44.8844 206.351 42.7965C204.781 40.5982 210.487 32.6474 211.923 30.7143C211.958 28.5872 212.01 26.7171 212.06 25.251Z" fill="#3C8F7C"/>
<path d="M209.524 29.3891C208.205 30.9335 206.843 25.8681 206.24 23.217C206.22 25.0352 206.198 27.4694 206.184 30.2885C206.998 31.1239 209.519 33.9049 209.167 35.965C208.826 37.9645 206.881 33.7988 206.176 32.1948C206.171 33.6675 206.169 35.2215 206.171 36.8295C207.19 37.7155 209.652 40.118 208.477 41.7492C207.526 43.0698 206.662 40.4535 206.174 38.4576C206.179 40.2882 206.19 42.1738 206.207 44.0757C207.439 45.0622 210.864 48.1131 209.614 50.6473C208.504 52.8964 206.965 48.1463 206.221 45.447C206.244 47.4744 206.275 49.5091 206.317 51.5048C206.993 52.6358 209.456 56.9691 208.108 57.9028C207.379 58.4077 206.808 57.3455 206.432 55.9679C206.49 57.8291 206.56 59.6189 206.644 61.2945C207.543 61.8898 211.254 64.4771 210.822 66.338C210.553 67.5001 207.643 66.338 207.643 66.338C207.643 66.338 210.027 72.7003 207.643 72.3027C205.952 72.0208 206.059 66.5426 206.265 63.3777C206.23 62.7957 206.196 62.196 206.165 61.58C205.812 62.9053 205.214 63.8645 204.537 63.0541C203.347 61.6287 205.551 58.2457 205.994 57.5971C205.932 55.8551 205.88 54.0369 205.839 52.1799C204.924 53.9622 201.443 58.2181 201.044 56.0528C200.661 53.9714 204.768 50.9152 205.798 50.1853C205.764 48.3371 205.738 46.4649 205.719 44.6047C205.059 46.0133 202.804 50.5243 201.121 50.2887C199.17 50.0153 202.621 45.8422 205.716 44.285C205.699 42.4608 205.688 40.6503 205.682 38.8877C205.675 38.934 205.669 38.9795 205.662 39.0288C205.476 40.2246 203.397 44.7386 202.471 43.244C201.544 41.7493 205.662 37.5413 205.662 37.5413C205.662 37.5413 205.669 37.5526 205.679 37.5788C205.675 35.876 205.677 34.2277 205.681 32.6658C205.026 34.3215 202.736 37.9956 202.003 36.7633C201.307 35.5932 204.567 32.118 205.687 30.9791C205.697 28.7189 205.712 26.6834 205.728 24.9855C204.951 26.6877 202.596 31.3744 201.876 29.6762C201.108 27.8664 204.87 24.3864 205.742 23.613C205.744 23.4461 205.746 23.2844 205.748 23.127H207.617C209.003 25.1741 210.617 28.1094 209.524 29.3891Z" fill="#327F6B"/>
<path d="M280.237 24.7629C280.326 24.8858 280.459 25.0568 280.654 25.2925C280.656 25.2959 280.659 25.2993 280.661 25.3027C280.653 25.3306 278.192 34.2499 280.131 34.9272C281.908 35.5483 282.058 29.0089 281.337 26.2679C281.731 26.877 282.084 27.5167 282.376 28.1851C282.876 29.3278 283.218 30.802 283.443 32.4457C283.082 33.0379 280.874 36.7594 281.98 37.5252C282.877 38.1465 283.464 35.6999 283.626 34.0834C283.756 35.5444 283.812 37.0888 283.819 38.6221C282.624 38.915 279.016 39.9514 278.948 41.8034C278.872 43.8729 281.974 43.2625 283.818 39.4241C283.807 40.9488 283.751 42.4448 283.674 43.8182C282.815 44.5932 279.284 47.9257 279.853 49.8513C280.43 51.8016 282.645 49.5677 283.579 45.3078C283.406 47.7471 283.185 49.5991 283.088 50.184C283.056 50.3767 283.02 50.6246 282.981 50.9166C282.967 51.0234 282.953 51.1367 282.938 51.2548C282.938 51.2548 277.449 58.6548 279.021 60.3585C280.135 61.5664 281.803 56.6228 282.68 53.6429C282.377 56.8066 282.11 60.9329 282.365 62.2056L282.385 62.2015C282.19 65.0544 282.057 70.2412 283.629 70.5032C285.802 70.8655 283.629 65.0685 283.629 65.0685C283.629 65.0685 286.28 66.1273 286.526 65.0685C286.937 63.2959 283.222 60.7999 282.623 60.4105C282.63 58.835 282.774 56.6019 282.952 54.5741C283.152 58.9222 284.238 60.2152 284.661 60.3584C285.185 60.5356 286.264 59.4718 285.894 56.1109C285.607 53.4996 284.008 51.8111 283.309 51.1875C283.357 50.8164 283.403 50.4966 283.445 50.2434C283.539 49.6824 283.744 47.9624 283.914 45.6751C284.338 49.2505 285.343 52.1757 286.249 50.364C287.133 48.5979 284.826 45.2188 284.017 44.1214C284.11 42.5268 284.176 40.754 284.177 38.9537C284.851 40.7213 287.806 44.0444 288.175 42.1427C288.538 40.2726 284.869 38.3268 284.17 37.9747C284.149 36.4337 284.075 34.8939 283.924 33.4486C284.744 34.9056 287.247 37.8904 287.544 36.2792C287.883 34.4396 283.687 31.6157 283.687 31.6157C283.687 31.6157 283.685 31.6185 283.681 31.6227C283.455 30.2544 283.139 29.0266 282.708 28.0403C282.429 27.4022 282.097 26.7898 281.727 26.205C283.278 27.2574 285.65 28.1935 285.555 27.0952C285.451 25.9034 281.801 24.9395 280.638 24.6618C280.598 24.6045 280.571 24.5806 280.554 24.5812C280.137 24.0679 279.698 23.5834 279.251 23.1279H278.742C279.256 23.6342 279.761 24.1799 280.237 24.7629Z" fill="#327F6B"/>
<path d="M277.08 27.8662C278.237 28.5191 277.814 25.26 277.429 23.1279H276.297C276.088 24.91 276.038 27.2791 277.08 27.8662Z" fill="#327F6B"/>
<path d="M278.594 27.6831C280.132 27.4676 278.749 25.1441 276.581 23.1279H274.311C275.456 25.2259 277.196 27.8788 278.594 27.6831Z" fill="#327F6B"/>
<path d="M272.444 23.1279H270.116C268.922 24.6171 268.021 26.4508 268.832 28.0955C269.978 30.4176 271.522 26.249 272.444 23.1279Z" fill="#327F6B"/>
<path d="M273.868 23.1279H273.482C273.581 23.8171 273.688 24.5816 273.8 25.4093C272.868 27.2482 268.111 36.952 270.378 39.0339C272.885 41.3361 273.778 29.5502 273.778 29.5502L273.91 26.2306C274.29 29.0938 274.709 32.5847 275.04 36.1885C274.177 36.8992 270.611 40.0314 272.095 42.0922C273.476 44.0092 274.696 38.7087 275.09 36.7429C275.302 39.1271 275.472 41.5488 275.563 43.8602C274.652 44.2838 270.809 46.1956 271.863 47.865C272.884 49.4818 275.005 45.8938 275.597 44.8226C275.64 46.2394 275.65 47.6053 275.619 48.8851C274.624 49.353 270.17 51.533 271.271 52.5725C272.507 53.7408 275.049 50.613 275.049 50.613C275.049 50.613 273.057 58.6202 275.223 57.7612C277.389 56.9022 275.942 50.1329 276.011 49.9612L275.974 49.7432C276.016 48.6911 276.027 47.5719 276.012 46.4067C276.414 47.4374 277.191 49.1541 277.659 48.4149C278.21 47.5453 276.529 45.7708 275.99 45.2371C275.949 43.6491 275.866 41.9926 275.753 40.3183C276.535 42.2945 278.169 45.1493 278.999 43.8106C279.929 42.309 276.432 38.4253 275.535 37.4703C275.327 35.0102 275.071 32.5738 274.806 30.3214C275.906 33.2006 279.489 39.2922 280.647 37.2132C281.853 35.0483 275.641 28.2664 274.387 26.9318C274.203 25.5107 274.025 24.2249 273.868 23.1279Z" fill="#3C8F7C"/>
<path d="M261.315 25.251C262.254 27.7577 264.111 31.9847 265.933 31.9356C268.39 31.8692 264.882 26.3854 261.264 23.829C261.257 23.6515 261.251 23.4863 261.244 23.3311C260.655 23.4449 260.069 23.5668 259.502 23.7558C257.44 25.1924 253.947 28.1972 255.019 31.1709C256.284 34.6756 259.623 26.3357 260.623 23.6813C260.671 24.9234 260.734 26.7519 260.783 28.9583C259.309 31.2192 253.162 40.9972 255.369 43.5355C257.871 46.4114 260.34 33.4093 260.34 33.4093L260.811 30.3367C260.867 33.4693 260.888 37.1969 260.808 41.023C259.603 41.822 255.546 44.7505 256.897 47.1537C258.129 49.3444 260.015 44.2688 260.787 41.9226C260.722 44.5025 260.609 47.109 260.428 49.5916C259.198 50.0132 254.982 51.619 255.917 53.5478C256.808 55.3886 259.412 52.0697 260.334 50.7949C260.205 52.332 260.048 53.8099 259.858 55.191C258.508 55.6556 253.605 57.4537 254.668 58.7114C255.897 60.1663 259.117 57.0045 259.117 57.0045C259.117 57.0045 255.897 65.6643 258.415 64.98C260.634 64.3769 260.305 58.316 260.263 56.7601C260.47 55.5042 260.645 54.1477 260.792 52.7229C261.13 53.9243 261.729 55.5932 262.297 54.8859C262.98 54.0345 261.538 52.0298 260.931 51.2588C261.08 49.5501 261.194 47.7648 261.279 45.9545C261.943 48.2299 263.322 51.2537 264.364 49.9306C265.545 48.4304 262.412 43.9427 261.404 42.5766C261.479 39.9069 261.502 37.2539 261.493 34.782C262.487 38.2594 265.533 44.8844 267.024 42.7965C268.594 40.5982 262.888 32.6474 261.452 30.7143C261.417 28.5872 261.364 26.7171 261.315 25.251Z" fill="#3C8F7C"/>
<path d="M263.851 29.3891C265.17 30.9335 266.532 25.8681 267.135 23.217C267.155 25.0352 267.178 27.4694 267.192 30.2885C266.378 31.1239 263.857 33.9049 264.208 35.965C264.55 37.9645 266.494 33.7988 267.199 32.1948C267.204 33.6675 267.206 35.2215 267.204 36.8295C266.185 37.7155 263.723 40.118 264.898 41.7492C265.849 43.0698 266.713 40.4535 267.201 38.4576C267.196 40.2882 267.186 42.1738 267.168 44.0757C265.936 45.0622 262.511 48.1131 263.761 50.6473C264.871 52.8964 266.41 48.1463 267.154 45.447C267.131 47.4744 267.1 49.5091 267.058 51.5048C266.382 52.6358 263.919 56.9691 265.268 57.9028C265.996 58.4077 266.567 57.3455 266.943 55.9679C266.885 57.8291 266.815 59.6189 266.731 61.2945C265.833 61.8898 262.121 64.4771 262.553 66.338C262.822 67.5001 265.733 66.338 265.733 66.338C265.733 66.338 263.348 72.7003 265.733 72.3027C267.423 72.0208 267.316 66.5426 267.11 63.3777C267.146 62.7957 267.179 62.196 267.21 61.58C267.563 62.9053 268.161 63.8645 268.838 63.0541C270.028 61.6287 267.824 58.2457 267.381 57.5971C267.444 55.8551 267.495 54.0369 267.536 52.1799C268.451 53.9622 271.932 58.2181 272.331 56.0528C272.715 53.9714 268.608 50.9152 267.577 50.1853C267.612 48.3371 267.637 46.4649 267.656 44.6047C268.317 46.0133 270.571 50.5243 272.254 50.2887C274.205 50.0153 270.754 45.8422 267.659 44.285C267.677 42.4608 267.688 40.6503 267.693 38.8877C267.7 38.934 267.706 38.9795 267.714 39.0288C267.899 40.2246 269.978 44.7386 270.905 43.244C271.831 41.7493 267.714 37.5413 267.714 37.5413C267.714 37.5413 267.707 37.5526 267.697 37.5788C267.7 35.876 267.699 34.2277 267.694 32.6658C268.349 34.3215 270.639 37.9956 271.372 36.7633C272.068 35.5932 268.808 32.118 267.688 30.9791C267.679 28.7189 267.663 26.6834 267.647 24.9855C268.424 26.6877 270.78 31.3744 271.5 29.6762C272.267 27.8664 268.505 24.3864 267.633 23.613C267.631 23.4461 267.629 23.2844 267.628 23.127H265.758C264.372 25.1741 262.758 28.1094 263.851 29.3891Z" fill="#327F6B"/>
<path d="M219.375 22.5059H217.942H186.994V24.1354H217.942H219.375H286.866V22.5059H219.375Z" fill="#13375B"/>
<path d="M223.09 49.4951H223.353V24.6476C225.993 26.494 228.942 27.6465 232.121 28.0744C234.73 28.4253 237.497 28.292 240.348 27.6781C244.536 26.776 247.686 25.082 248.49 24.6227V34.7801H248.753V24.1586L248.553 24.2818C248.518 24.3027 245.092 26.389 240.284 27.423C235.857 28.3753 229.315 28.6043 223.298 24.2868L223.09 24.1377L223.09 49.4951Z" fill="#184655"/>
<path d="M248.622 32.9805C249.948 32.9805 251.024 34.0564 251.024 35.3838V40.5104H246.219V35.3838C246.219 34.0564 247.295 32.9805 248.622 32.9805Z" fill="#F47458"/>
<path d="M223.222 48.5557C224.548 48.5557 225.624 49.6316 225.624 50.959V56.0856H220.819V50.959C220.819 49.6316 221.895 48.5557 223.222 48.5557Z" fill="#F47458"/>
<path d="M221.024 91.6533C223.449 90.6136 226.164 89.5594 228.65 90.4427C230.217 90.9991 231.422 92.245 232.566 93.4505C233.821 94.772 235.154 96.2759 235.186 98.0985C235.198 98.8395 234.988 99.565 234.756 100.269C234.306 101.64 233.756 103.003 232.868 104.141C231.428 105.984 229.216 107.077 226.964 107.707C224.971 108.263 224.476 108.067 222.409 107.978C221.013 107.917 218.801 105.698 217.895 104.634C216.455 102.944 216.58 95.6182 218.099 93.7713C218.501 93.2832 219.077 92.8071 219.715 92.3677C220.129 92.083 220.558 91.8255 220.999 91.592C221.008 91.6141 221.016 91.635 221.024 91.6533Z" fill="#13375B"/>
<path d="M193.924 125.829C193.747 125.317 196.238 124.912 196.372 124.395C196.506 123.877 193.232 123.825 193.116 123.37C192.903 122.531 196.706 123.206 196.632 122.814C196.559 122.422 192.671 121.532 193.094 120.861C193.517 120.19 197.029 122.204 197.137 121.748C197.245 121.292 193.703 120.169 193.77 119.169C193.806 118.634 199.581 121.856 200.253 121.568C200.925 121.279 199.541 118.761 200.077 118.39C200.612 118.019 202.127 123.506 202.495 123.69C202.862 123.874 210.665 128.365 213.444 129.085C213.785 128.154 216.23 123.22 216.531 122.34C218.088 123.456 219.897 123.705 221.504 124.724C220.327 127.646 216.293 134.836 215.478 135.2C212.999 136.31 203.452 128.333 201.545 126.966C199.637 125.599 198.541 126.036 197.249 125.602C195.958 125.167 194.101 126.342 193.924 125.829Z" fill="#F48C7F"/>
<path d="M237.819 164.493L236.941 163.756C240.157 159.991 241.925 152.815 242.054 143.004C242.153 135.527 241.257 129.11 241.248 129.047L242.387 128.888C242.396 128.952 243.303 135.442 243.205 143.004C243.147 147.457 242.757 151.411 242.046 154.756C241.147 158.986 239.725 162.262 237.819 164.493Z" fill="#13375B"/>
<path d="M233.862 115.912C234.399 115.912 255.068 114.705 255.426 117.392C255.784 120.08 256.5 141.04 252.919 141.756C249.337 142.473 231.968 139.248 231.968 139.248L233.862 115.912Z" fill="#F47458"/>
<path d="M220.013 128.145C220.013 128.145 225.291 124.321 226.887 121.582C228.482 118.844 225.8 120.627 223.06 119.906C222.023 119.633 222.285 113.605 220.324 115.565C217.107 118.779 214.478 125.163 214.478 125.163L220.013 128.145Z" fill="#466EB6"/>
<path d="M227.906 112.8C227.906 112.8 233.471 111.711 236.011 113.815C238.55 115.918 235.466 134.619 235.469 137.719C235.472 140.819 237.213 149.578 237.213 149.578C237.213 149.578 220.347 152.505 217.668 147.851C217.668 147.851 216.905 130.12 217.019 127.891C217.132 125.661 219.633 116.542 220.324 115.566C221.015 114.589 227.906 112.8 227.906 112.8Z" fill="#86B1F2"/>
<path d="M227.941 104.266C227.941 104.266 227.971 104.43 228.023 104.711C228.275 106.058 229.247 110.525 229.904 111.753C230.697 113.237 227.188 117.97 223.809 117.392C222.804 117.22 224.659 113.043 224.57 112.601C224.399 111.754 224.168 110.598 223.931 109.414C223.797 108.745 223.662 108.068 223.535 107.431C223.174 105.621 222.879 104.141 222.879 104.141L227.941 104.266Z" fill="#F7A491"/>
<path d="M228.023 104.711C227.971 104.43 227.941 104.266 227.941 104.266L222.879 104.141C222.879 104.141 223.174 105.621 223.535 107.431C223.661 108.064 223.796 108.738 223.929 109.403C224.71 109.289 225.527 108.913 226.346 108.204C227.238 107.43 227.824 106.501 228.177 105.509C228.114 105.193 228.062 104.92 228.023 104.711Z" fill="#F47458"/>
<path d="M224.534 92.8806C224.534 92.8806 226.92 92.6078 228.415 94.5218C229.911 96.4357 231.523 102.355 227.808 105.573C224.092 108.791 220.421 105.148 219.877 101.286C219.333 97.4237 219.121 92.7412 224.534 92.8806Z" fill="#F7A491"/>
<path d="M225.334 99.4457C225.358 99.7706 225.206 100.047 224.994 100.063C224.781 100.08 224.589 99.8292 224.565 99.5043C224.54 99.1794 224.692 98.9029 224.904 98.8869C225.117 98.8704 225.309 99.1207 225.334 99.4457Z" fill="#263238"/>
<path d="M223.948 102.384C223.938 102.352 223.577 102.431 223 102.584C222.855 102.626 222.713 102.652 222.651 102.567C222.577 102.48 222.574 102.307 222.576 102.118C222.57 101.729 222.564 101.321 222.557 100.894C222.515 99.1566 222.425 97.751 222.355 97.7533C222.285 97.7556 222.262 99.1656 222.303 100.903C222.317 101.33 222.33 101.737 222.343 102.126C222.354 102.305 222.337 102.521 222.492 102.7C222.572 102.789 222.704 102.822 222.803 102.81C222.903 102.801 222.982 102.771 223.053 102.747C223.616 102.552 223.959 102.415 223.948 102.384Z" fill="#263238"/>
<path d="M221.661 99.725C221.686 100.05 221.533 100.326 221.321 100.342C221.109 100.359 220.917 100.108 220.892 99.7835C220.867 99.4586 221.019 99.182 221.232 99.1661C221.444 99.1502 221.636 99.4001 221.661 99.725Z" fill="#263238"/>
<path d="M226.376 98.1738C226.407 98.1672 226.437 98.1526 226.463 98.13C226.542 98.0601 226.549 97.9393 226.479 97.8599C225.778 97.0666 224.903 97.185 224.866 97.1907C224.761 97.206 224.689 97.3034 224.704 97.4081C224.719 97.5123 224.816 97.5845 224.921 97.5697C224.949 97.5657 225.633 97.4803 226.193 98.1138C226.24 98.1671 226.311 98.1878 226.376 98.1738Z" fill="#263238"/>
<path d="M219.983 98.5831C220.043 98.57 220.096 98.5283 220.121 98.4661C220.431 97.6803 221.103 97.5276 221.131 97.5216C221.234 97.4993 221.301 97.398 221.279 97.2951C221.257 97.1921 221.157 97.1255 221.054 97.147C221.017 97.1556 220.154 97.3409 219.764 98.3255C219.725 98.424 219.774 98.535 219.872 98.5741C219.909 98.5885 219.947 98.5905 219.983 98.5831Z" fill="#263238"/>
<path d="M224.267 92.2482C224.267 92.2482 227.455 97.8767 229.735 98.1368C232.016 98.3968 232.315 101.388 232.315 101.388C232.315 101.388 231.5 94.4961 229.242 93.167C226.985 91.8381 224.267 92.2482 224.267 92.2482Z" fill="#13375B"/>
<path d="M203.23 134.028L218.82 130.272C218.82 130.272 224.333 122.94 229.643 116.619C231.277 118.157 232.217 120.552 233.862 122.075L222.178 135.432C221.757 135.914 221.15 136.197 220.507 136.212L203.909 136.607L203.23 134.028Z" fill="#F7A491"/>
<path d="M227.878 129.769C227.878 129.769 235.29 123.72 236.886 120.982C238.482 118.243 237.298 113.655 234.558 112.935C231.819 112.214 222.879 124.612 222.879 124.612L227.878 129.769Z" fill="#466EB6"/>
<path d="M222.036 103.686L224.542 103.41C224.542 103.41 224.589 104.36 223.49 104.513C222.15 104.699 222.036 103.686 222.036 103.686Z" fill="white"/>
<path d="M192.627 135.588C192.463 135.338 192.873 134.914 193.181 134.597C193.521 134.244 195.584 133.36 195.935 133.254C196.286 133.148 199.293 133.568 200.444 133.942C201.595 134.316 202.353 134.162 202.353 134.162C202.655 134.101 203.109 134.019 203.461 133.947L204.183 136.608C201.481 136.574 198.655 136.774 198.399 136.767C197.588 136.747 196.1 135.905 195.755 135.781C195.41 135.657 194.711 135.755 194.242 135.973C193.772 136.192 192.404 136.71 192.175 136.59C191.946 136.469 192.627 135.588 192.627 135.588Z" fill="#F7A491"/>
<path d="M228.966 99.5666C228.754 100.561 229.154 101.489 229.859 101.639C230.564 101.789 231.307 101.105 231.519 100.11C231.73 99.1153 231.33 98.1873 230.625 98.0372C229.92 97.8872 229.177 98.572 228.966 99.5666Z" fill="#F7A491"/>
<path d="M227.298 89.1208C227.456 88.5533 227.685 87.9773 228.128 87.5889C228.821 86.9811 229.99 87.0255 230.635 87.6841C230.889 87.9439 231.07 88.2824 231.376 88.4787C232.067 88.9219 233.131 88.4859 233.718 89.0595C233.903 89.2398 233.999 89.4889 234.12 89.7168C234.544 90.5143 235.307 91.0955 235.704 91.907C236.019 92.5513 236.076 93.3177 235.858 94.0012C235.612 94.7743 235.036 95.4141 234.352 95.8495C233.667 96.2851 232.879 96.5321 232.085 96.6965C231.697 96.7768 231.291 96.8379 230.91 96.7305C230.49 96.6122 230.154 96.3052 229.835 96.0079C229.336 95.5434 228.816 95.0451 228.629 94.3894C228.559 94.1438 228.527 93.8631 228.334 93.6962C227.997 93.4054 227.476 93.6024 227.161 93.2375C226.93 92.9693 226.986 92.6571 226.976 92.3214C226.944 91.2303 227.002 90.1788 227.298 89.1208Z" fill="#13375B"/>
<path d="M207.683 192.251C207.683 192.251 212.803 198.336 212.837 198.866C212.87 199.396 212.633 205.175 212.024 205.704C211.415 206.234 209.627 206.61 210.202 207.205C210.636 207.655 213.98 207.559 216.196 207.438C216.843 207.403 217.654 202.286 217.91 201.534C218.282 200.442 219.187 197.982 218.849 197.221C218.684 196.85 217.895 196.087 216.784 195.376C215.615 194.628 211.145 188.461 211.145 188.461L207.683 192.251Z" fill="#F48C7F"/>
<path d="M216.712 195.34C216.712 195.34 213.274 204.936 211.928 205.399C211.571 205.522 209.856 205.834 209.533 206.586C209.436 206.812 209.533 207.569 209.533 207.569H216.698C216.698 207.569 217.605 203.341 217.963 201.483C217.963 201.483 219.86 196.944 219.649 196.531C219.438 196.119 216.712 195.34 216.712 195.34Z" fill="#466EB6"/>
<path d="M177.018 195.174C177.018 195.174 172.837 201.009 173.205 202.855C173.402 203.844 174.279 205.137 173.776 206.068C173.272 206.998 172.697 207.23 172.697 207.23L159.656 207.438C158.946 207.45 159.415 206.997 159.988 206.581C160.925 205.899 161.682 205.448 164.677 204.014C164.872 203.921 165.583 203.474 165.84 203.319C166.49 202.926 167.143 202.307 167.705 201.688C168.642 200.656 172.759 192.251 172.759 192.251L177.018 195.174Z" fill="#F7A491"/>
<path d="M165.842 203.317C169.291 204.193 171.84 203.597 173.266 203.028C173.634 204.06 174.122 205.353 173.863 206.1C173.546 207.013 173.096 207.22 172.697 207.23C169.547 207.312 161.158 207.423 158.755 207.454C158.42 207.459 158.235 207.071 158.451 206.816C159.046 206.112 165.585 203.472 165.842 203.317Z" fill="#466EB6"/>
<path d="M192.14 159.174C192.14 159.174 197.317 165.032 198.637 165.96C199.958 166.888 212.629 190.021 212.629 190.021L208.115 193.288C208.115 193.288 196.79 179.289 191.472 171.801C186.975 165.47 188.631 165.871 185.987 162.017C184.531 159.895 184.861 157.026 186.781 155.305C187.02 155.091 187.279 154.868 187.561 154.634C191.476 151.4 218.307 147.76 218.307 147.76L235.469 149.426C235.469 149.426 221.448 159.174 220.924 159.434C220.401 159.693 201.561 162.417 201.168 162.417C200.775 162.417 192.14 159.174 192.14 159.174Z" fill="#EAB054"/>
<path d="M237.213 149.577C237.213 149.577 240.156 158.332 235.741 162.418C231.325 166.504 205.093 166.05 196.458 166.05C196.458 166.05 192.925 175.648 192.533 177.205C192.14 178.761 175.001 198.867 175.001 198.867L170.291 195.883C170.291 195.883 188.739 160.343 190.178 158.786C191.617 157.229 212.158 151.003 217.261 149.577C222.363 148.15 237.213 149.577 237.213 149.577Z" fill="#F7CC7F"/>
<path d="M156.971 116.146H182.806C183.489 116.146 184.105 116.556 184.365 117.183L192.319 136.418H206.563C206.961 136.418 207.284 136.738 207.284 137.132C207.284 137.527 206.961 137.847 206.563 137.847H166.025C164.911 137.847 163.9 137.198 163.444 136.19L155.434 118.5C154.933 117.396 155.749 116.146 156.971 116.146Z" fill="#184655"/>
<path d="M170.88 127.348C171.055 128.212 171.815 128.789 172.578 128.638C173.341 128.487 173.818 127.664 173.644 126.8C173.469 125.936 172.709 125.358 171.946 125.509C171.183 125.661 170.706 126.484 170.88 127.348Z" fill="white"/>
<path d="M95.1807 207.869H93.2119L97.4085 171.379H99.3773L95.1807 207.869Z" fill="#355389"/>
<path d="M117.407 207.869H119.376L115.179 171.379H113.21L117.407 207.869Z" fill="#355389"/>
<path d="M61.8281 207.869H59.8594L64.0559 171.379H66.0246L61.8281 207.869Z" fill="#355389"/>
<path d="M84.0545 207.869H86.0233L81.8268 171.379H79.8579L84.0545 207.869Z" fill="#355389"/>
<path d="M93.6912 175.343H66.8368C63.6893 175.343 60.8767 172.791 60.5545 169.642L56.1167 126.276C55.7945 123.127 58.0847 120.574 61.2321 120.574H88.0864C91.2338 120.574 94.0466 123.127 94.3688 126.276L98.8066 169.642C99.1289 172.791 96.8387 175.343 93.6912 175.343Z" fill="#EAB054"/>
<path d="M101.148 175.343H74.2939C71.1464 175.343 68.3337 172.791 68.0115 169.642L63.5737 126.276C63.2515 123.127 65.5417 120.574 68.6892 120.574H95.5435C98.691 120.574 101.504 123.127 101.826 126.276L106.264 169.642C106.586 172.791 104.296 175.343 101.148 175.343Z" fill="#F7CC7F"/>
<path d="M104.747 177.344H66.6833C63.7338 177.344 61.0979 174.952 60.7959 172.001C60.494 169.05 62.6402 166.658 65.5897 166.658H103.653C106.603 166.658 109.239 169.05 109.541 172.001C109.843 174.952 107.696 177.344 104.747 177.344Z" fill="#EAB054"/>
<path d="M114.249 177.344H76.1856C73.2361 177.344 70.6003 174.952 70.2983 172.001C69.9964 169.05 72.1427 166.658 75.0922 166.658H113.156C116.105 166.658 118.741 169.05 119.043 172.001C119.345 174.952 117.199 177.344 114.249 177.344Z" fill="#F7CC7F"/>
<path d="M121.528 133.49C121.705 132.977 119.214 132.572 119.08 132.055C118.946 131.537 122.22 131.486 122.336 131.03C122.549 130.191 118.746 130.866 118.82 130.474C118.893 130.082 122.781 129.193 122.358 128.521C121.935 127.85 118.423 129.864 118.315 129.408C118.207 128.952 121.749 127.83 121.682 126.829C121.646 126.295 115.871 129.516 115.199 129.228C114.526 128.94 115.911 126.421 115.375 126.05C114.839 125.679 113.325 131.166 112.957 131.35C112.59 131.534 104.787 136.025 102.008 136.745C101.667 135.814 99.222 130.88 98.921 130C97.3641 131.117 95.5547 131.365 93.9473 132.384C95.1244 135.306 99.1592 142.496 99.9735 142.86C102.453 143.971 112 135.993 113.906 134.626C115.814 133.259 116.911 133.696 118.202 133.262C119.495 132.827 121.351 134.002 121.528 133.49Z" fill="#F48C7F"/>
<path d="M97.297 110.22C97.4126 107.434 97.0025 104.683 95.7565 102.089C94.6845 99.8573 92.0321 98.591 89.6135 98.5879C81.9328 98.5779 80.9563 108.73 76.067 112.647C74.5731 113.843 72.9034 114.818 71.4897 116.108C66.2699 120.873 68.6212 129.694 73.4141 133.871C76.7402 136.77 81.9675 138.417 86.067 136.151C88.2068 134.968 89.8313 133.002 90.9885 130.847C92.631 127.789 93.6898 124.261 94.858 121.003C96.1015 117.534 97.1434 113.923 97.297 110.22Z" fill="#13375B"/>
<path d="M94.4242 135.862C94.4242 135.862 88.6881 129.978 87.2121 127.422C85.736 124.865 88.2172 126.53 90.7517 125.857C91.7115 125.602 91.4687 119.975 93.2829 121.804C96.2595 124.805 100.002 130.052 100.002 130.052L94.4242 135.862Z" fill="#96D9C9"/>
<path d="M86.2687 119.223C86.2687 119.223 81.1208 118.206 78.7717 120.17C76.4226 122.133 79.275 139.59 79.2726 142.485C79.2701 145.379 77.6597 153.555 77.6597 153.555C77.6597 153.555 93.2621 156.287 95.7404 151.943C95.7404 151.943 96.4455 135.391 96.3405 133.31C96.2356 131.228 93.9223 122.716 93.2828 121.804C92.6433 120.893 86.2687 119.223 86.2687 119.223Z" fill="#50BFA5"/>
<path d="M86.2366 111.257C86.2366 111.257 86.2094 111.411 86.1608 111.673C85.9274 112.93 85.0282 117.1 84.4209 118.247C83.6869 119.632 86.9338 124.05 90.059 123.511C90.9892 123.351 89.2726 119.451 89.3551 119.038C89.5131 118.248 89.7272 117.169 89.9463 116.063C90.07 115.439 90.1952 114.807 90.3128 114.212C90.647 112.522 90.9196 111.141 90.9196 111.141L86.2366 111.257Z" fill="#F7A491"/>
<path d="M86.1606 111.673C86.2093 111.411 86.2363 111.257 86.2363 111.257L90.9194 111.141C90.9194 111.141 90.6467 112.522 90.3126 114.212C90.1957 114.803 90.0711 115.432 89.9482 116.053C89.2252 115.946 88.4697 115.596 87.7123 114.933C86.8865 114.212 86.3452 113.344 86.0186 112.418C86.0762 112.123 86.1244 111.868 86.1606 111.673Z" fill="#F47458"/>
<path d="M89.3886 100.629C89.3886 100.629 87.1814 100.374 85.7978 102.161C84.4141 103.948 82.923 109.473 86.36 112.477C89.797 115.481 93.193 112.08 93.6965 108.475C94.2001 104.87 94.3958 100.499 89.3886 100.629Z" fill="#F7A491"/>
<path d="M87.9382 106.105C87.9 106.425 88.0383 106.704 88.2474 106.729C88.4563 106.754 88.6561 106.515 88.6944 106.196C88.7326 105.876 88.5943 105.597 88.3852 105.572C88.1762 105.547 87.976 105.786 87.9382 106.105Z" fill="#263238"/>
<path d="M89.1809 109.062C89.1921 109.031 89.5458 109.124 90.108 109.3C90.2489 109.347 90.3886 109.379 90.4535 109.298C90.5298 109.215 90.5398 109.044 90.546 108.858C90.5685 108.474 90.5919 108.072 90.6164 107.651C90.7308 105.939 90.8788 104.556 90.9477 104.561C91.0169 104.566 90.9801 105.958 90.866 107.67C90.8345 108.091 90.805 108.492 90.776 108.875C90.7569 109.052 90.7652 109.265 90.6042 109.436C90.5218 109.52 90.3898 109.547 90.2926 109.531C90.1944 109.518 90.1178 109.485 90.0494 109.458C89.502 109.242 89.1691 109.093 89.1809 109.062Z" fill="#263238"/>
<path d="M91.5494 106.536C91.5112 106.856 91.6499 107.135 91.8586 107.159C92.0675 107.185 92.2673 106.946 92.3056 106.626C92.3438 106.307 92.205 106.027 91.9964 106.003C91.7878 105.978 91.5876 106.217 91.5494 106.536Z" fill="#263238"/>
<path d="M86.9638 104.807C86.9333 104.799 86.9043 104.783 86.88 104.76C86.8046 104.688 86.8026 104.568 86.8749 104.493C87.5999 103.74 88.4585 103.893 88.495 103.901C88.5976 103.92 88.6646 104.019 88.6451 104.122C88.6257 104.224 88.527 104.291 88.4247 104.272C88.3966 104.267 87.7257 104.154 87.1469 104.755C87.0982 104.806 87.0274 104.823 86.9638 104.807Z" fill="#263238"/>
<path d="M93.2533 105.48C93.1943 105.464 93.1434 105.421 93.122 105.358C92.8486 104.57 92.1924 104.391 92.1647 104.384C92.0642 104.358 92.003 104.255 92.0288 104.154C92.0542 104.054 92.156 103.992 92.2572 104.018C92.2935 104.028 93.137 104.247 93.4795 105.235C93.5138 105.333 93.4613 105.441 93.363 105.475C93.3258 105.488 93.288 105.488 93.2533 105.48Z" fill="#263238"/>
<path d="M94.7131 108.422C94.3028 109.218 93.6142 109.659 93.175 109.407C92.7358 109.154 92.7123 108.304 93.1225 107.508C93.5328 106.712 94.2214 106.271 94.6606 106.523C95.0998 106.776 95.1233 107.626 94.7131 108.422Z" fill="#F7A491"/>
<path d="M89.6355 100.038C89.6355 100.038 86.6866 105.292 84.5771 105.535C82.4675 105.778 82.1904 108.57 82.1904 108.57C82.1904 108.57 82.9447 102.137 85.0331 100.896C87.1215 99.6554 89.6355 100.038 89.6355 100.038Z" fill="#13375B"/>
<path d="M85.1301 106.855C85.3017 107.789 84.9566 108.644 84.3594 108.767C83.7622 108.889 83.139 108.232 82.9674 107.299C82.7958 106.366 83.1409 105.51 83.7381 105.388C84.3353 105.265 84.9585 105.922 85.1301 106.855Z" fill="#F7A491"/>
<path d="M104.976 193.393C104.976 193.393 100.24 199.074 100.209 199.569C100.178 200.063 100.397 205.458 100.961 205.952C101.524 206.447 103.178 206.797 102.646 207.353C102.244 207.774 99.1513 207.684 97.1016 207.571C96.5031 207.538 95.7528 202.761 95.5157 202.06C95.1714 201.04 94.3344 198.743 94.6474 198.033C94.7999 197.687 95.5293 196.975 96.5572 196.311C97.6384 195.612 101.774 189.855 101.774 189.855L104.976 193.393Z" fill="#F48C7F"/>
<path d="M96.6243 196.277C96.6243 196.277 99.8043 205.235 101.049 205.668C101.38 205.783 102.966 206.074 103.265 206.776C103.355 206.987 103.265 207.693 103.265 207.693H96.6365C96.6365 207.693 95.7982 203.746 95.4668 202.012C95.4668 202.012 93.7122 197.775 93.9072 197.39C94.1021 197.005 96.6243 196.277 96.6243 196.277Z" fill="#F7CC7F"/>
<path d="M133.344 196.121C133.344 196.121 137.212 201.568 136.871 203.292C136.689 204.215 135.878 205.422 136.344 206.291C136.809 207.159 137.341 207.376 137.341 207.376L149.405 207.57C150.062 207.581 149.628 207.158 149.098 206.769C148.231 206.133 147.531 205.712 144.761 204.374C144.58 204.286 143.922 203.869 143.685 203.724C143.083 203.357 142.479 202.78 141.959 202.202C141.093 201.239 137.284 193.393 137.284 193.393L133.344 196.121Z" fill="#F7A491"/>
<path d="M143.683 203.723C140.492 204.541 138.134 203.985 136.814 203.454C136.474 204.417 136.023 205.625 136.262 206.321C136.555 207.174 136.972 207.367 137.341 207.376C140.255 207.453 148.016 207.557 150.238 207.586C150.549 207.59 150.72 207.228 150.52 206.99C149.969 206.333 143.921 203.869 143.683 203.723Z" fill="#F7CC7F"/>
<path d="M119.355 162.517C119.355 162.517 114.566 167.985 113.345 168.851C112.123 169.717 100.402 191.312 100.402 191.312L104.578 194.362C104.578 194.362 115.054 181.294 119.974 174.304C124.134 168.393 122.601 168.768 125.048 165.171C126.394 163.19 126.089 160.512 124.313 158.905C124.092 158.705 123.852 158.496 123.591 158.279C119.97 155.259 95.1489 151.861 95.1489 151.861L79.2729 153.417C79.2729 153.417 92.2441 162.517 92.7283 162.759C93.2124 163.001 110.641 165.544 111.004 165.544C111.367 165.544 119.355 162.517 119.355 162.517Z" fill="#13375B"/>
<path d="M77.6597 153.557C77.6597 153.557 74.9365 161.73 79.0213 165.544C83.1061 169.358 107.373 168.935 115.361 168.935C115.361 168.935 118.629 177.895 118.992 179.348C119.355 180.801 135.21 199.569 135.21 199.569L139.567 196.784C139.567 196.784 122.502 163.607 121.17 162.154C119.839 160.701 100.837 154.889 96.1169 153.557C91.3967 152.225 77.6597 153.557 77.6597 153.557Z" fill="#355389"/>
<path d="M91.1859 110.575L88.2446 110.355C88.2446 110.355 88.2291 111.478 89.5198 111.612C91.0936 111.775 91.1859 110.575 91.1859 110.575Z" fill="white"/>
<path d="M109.039 135.977C109.216 135.464 106.725 135.059 106.591 134.542C106.457 134.025 109.731 133.973 109.847 133.518C110.06 132.679 106.257 133.354 106.331 132.961C106.404 132.569 110.292 131.68 109.869 131.009C109.446 130.338 105.934 132.352 105.826 131.896C105.718 131.44 109.26 130.317 109.193 129.316C109.157 128.782 103.382 132.004 102.71 131.715C102.038 131.427 103.422 128.908 102.886 128.538C102.351 128.166 100.836 133.653 100.468 133.837C100.101 134.021 92.298 138.512 89.5188 139.232C89.1777 138.301 86.7331 133.368 86.4321 132.487C84.8752 133.604 83.0658 133.853 81.4585 134.871C82.6357 137.793 86.6703 144.983 87.4848 145.348C89.9643 146.458 99.5111 138.48 101.417 137.114C103.326 135.746 104.422 136.184 105.714 135.749C107.005 135.315 108.862 136.489 109.039 135.977Z" fill="#F7A491"/>
<path d="M80.712 135.656C80.712 135.656 77.3338 128.164 76.821 125.257C76.308 122.349 78.8012 118.699 81.4128 118.935C84.0243 119.17 87.9397 132.105 87.9397 132.105L80.712 135.656Z" fill="#96D9C9"/>
<path d="M133.493 207.635H212.316V138.839H133.493V207.635Z" fill="#76ADF8"/>
<path d="M257.642 139.889H212.25V207.707H257.642V139.889Z" fill="#E6EEFE"/>
<path opacity="0.5" d="M133.369 152.346L257.642 152.346V139.89L133.369 139.89V152.346Z" fill="#A9C8FB"/>
<path opacity="0.5" d="M207.885 207.707H212.25V139.889H207.885V207.707Z" fill="#A9C8FB"/>
<path d="M127.945 139.889L262.774 139.889V137.789L127.945 137.789V139.889Z" fill="#465F9D"/>
<path d="M236.412 197.941H236.774C236.893 196.723 237.127 195.377 237.545 193.969C239.121 188.644 238.432 187.955 241.093 184.626C243.754 181.297 243.951 174.394 243.951 174.394C243.951 174.394 245.233 166.555 243.951 163.103C242.67 159.652 242.571 156.2 239.467 152.552C239.467 152.552 238.875 157.433 238.136 159.652C237.397 161.871 236.695 163.991 237.243 169.316C237.791 174.641 238.131 175.085 238.257 176.465C238.382 177.846 238.185 183.665 238.481 184.626C238.777 185.587 236.756 192.243 236.608 195.103C236.564 195.962 236.484 196.942 236.412 197.941Z" fill="#215E4B"/>
<path d="M237.545 197.94C238.059 196.755 238.963 195.577 240.545 194.87C244.685 193.021 247.478 193.063 249.4 188.625C251.322 184.188 251.322 178.123 251.987 176.866C251.987 176.866 250.213 176.57 248.439 179.75C246.665 182.93 245.461 185.297 244.437 187.146C243.412 188.995 241.933 188.477 240.677 189.882C239.624 191.06 238.651 193.8 238.281 195.19C238.161 195.642 237.987 196.077 237.757 196.483C237.547 196.853 237.301 197.303 237.153 197.624C237.12 197.695 237.087 197.804 237.055 197.94H237.545V197.94Z" fill="#3C8F7C"/>
<path d="M225.864 176.908C225.568 180.705 227.983 180.409 228.082 182.825C228.18 185.241 231.334 189.333 232.796 192.243C233.556 193.756 233.836 196.069 233.931 197.941H235.105C234.651 193.203 232.729 189.905 231.581 187.263C230.102 183.861 229.881 182.307 231.137 179.645C232.394 176.983 230.546 170.104 232.335 167.038C234.124 163.971 233.207 159.158 232.796 157.309C232.384 155.46 232.838 154.203 233.207 152.254C233.577 150.304 232.796 147.473 232.796 147.473C232.729 149.889 230.891 153.192 229.56 155.312C228.23 157.432 225.716 163.201 226.012 165.815C226.307 168.428 226.16 168.625 226.16 168.625C225.223 172.126 226.16 173.112 225.864 176.908Z" fill="#215E4B"/>
<path d="M232.908 194.856C233.059 195.309 233.543 196.466 233.986 197.941H234.706C234.379 196.064 233.813 193.886 232.859 192.637C230.937 190.123 227.093 189.038 226.649 187.214C226.206 185.389 226.699 179.916 223.889 176.859C223.889 176.859 224.284 180.263 223.889 181.174C223.495 182.086 220.144 186.326 222.115 189.876C224.087 193.426 228.522 192.982 229.902 193.771C231.282 194.56 232.662 194.116 232.908 194.856Z" fill="#3C8F7C"/>
<path d="M231.134 178.483C231.085 182.132 233.943 183.512 233.894 185.534C233.845 187.556 234.486 189.725 235.028 191.352C235.371 192.382 235.181 195.25 235.12 197.941H235.913C236.113 195.963 236.332 193.11 236.26 191.845C236.161 190.12 236.95 188.739 237.048 185.731C237.147 182.724 237.788 180.012 236.457 176.215C235.126 172.419 235.373 167.882 229.804 163.691C229.804 163.691 228.818 168.129 229.557 170.545C230.296 172.961 231.183 174.835 231.134 178.483Z" fill="#3C8F7C"/>
<path d="M231.134 178.483C231.085 182.132 233.943 183.512 233.894 185.534C233.845 187.556 234.486 189.725 235.028 191.352C235.371 192.382 235.181 195.25 235.12 197.941H235.449C235.494 197.379 235.537 197.026 235.537 197.026L235.701 190.221C235.701 190.221 235.373 184.896 234.781 180.557C234.19 176.218 229.804 163.691 229.804 163.691C229.804 163.691 228.818 168.129 229.557 170.545C230.296 172.961 231.183 174.835 231.134 178.483Z" fill="#327F6B"/>
<path d="M236.776 194.827H236.244H229.143C228.621 194.827 228.236 195.316 228.356 195.825L231.139 207.564C231.225 207.929 231.551 208.187 231.925 208.187H236.244H236.776H241.095C241.469 208.187 241.795 207.929 241.881 207.564L244.664 195.825C244.785 195.316 244.399 194.827 243.878 194.827H236.776Z" fill="#F47458"/>
<path d="M153.989 111.181C155.346 111.181 156.446 110.08 156.446 108.723C156.446 107.365 155.346 106.265 153.989 106.265C152.632 106.265 151.532 107.365 151.532 108.723C151.532 110.08 152.632 111.181 153.989 111.181Z" fill="#F7CC7F"/>
<path d="M147.153 136.49H147.8C147.871 136.49 147.929 136.432 147.929 136.36V133.711C147.929 133.64 147.871 133.582 147.8 133.582H147.153C147.081 133.582 147.023 133.64 147.023 133.711V136.36C147.023 136.432 147.081 136.49 147.153 136.49Z" fill="#B75742"/>
<path d="M142.721 103.003C143.478 102.012 144.327 101.464 145.244 101.375C146.659 101.238 147.786 102.223 147.798 102.233L148.362 101.597C148.305 101.547 146.942 100.357 145.162 100.529C144 100.641 142.952 101.3 142.045 102.488L142.721 103.003Z" fill="#50BFA5"/>
<path d="M149.151 100.798L153.022 104.67C153.2 104.848 153.2 105.137 153.022 105.315L151.409 106.929C151.231 107.107 150.942 107.107 150.764 106.929L146.893 103.056C146.715 102.878 146.715 102.589 146.893 102.411L148.506 100.798C148.684 100.62 148.973 100.62 149.151 100.798Z" fill="#B75742"/>
<path d="M157.804 104.277L149.545 112.54C147.264 110.258 147.264 106.559 149.545 104.277C151.825 101.995 155.524 101.995 157.804 104.277Z" fill="#F47458"/>
<path d="M132.863 118.746L141.146 101.865L143.732 103.135L135.449 120.015L132.863 118.746ZM141.552 103.052L134.05 118.34L135.043 118.828L142.545 103.54L141.552 103.052Z" fill="#B75742"/>
<path d="M132.291 119.82L135.016 118.889L141.09 136.685L138.365 137.616L132.291 119.82ZM134.464 120.015L133.416 120.373L138.917 136.49L139.964 136.132L134.464 120.015Z" fill="#B75742"/>
<path d="M149.103 113.161L149.553 113.611C149.603 113.661 149.683 113.661 149.733 113.611L158.875 104.465C158.925 104.415 158.925 104.335 158.875 104.285L158.425 103.835C158.375 103.785 158.295 103.785 158.245 103.835L149.103 112.981C149.054 113.031 149.054 113.111 149.103 113.161Z" fill="#96D9C9"/>
<path d="M134.01 121.781C135.17 121.781 136.11 120.84 136.11 119.68C136.11 118.52 135.17 117.579 134.01 117.579C132.85 117.579 131.91 118.52 131.91 119.68C131.91 120.84 132.85 121.781 134.01 121.781Z" fill="#F47458"/>
<path d="M152.978 134.969H135.091C134.637 134.969 134.27 135.337 134.27 135.79V137.847H153.799V135.79C153.799 135.337 153.432 134.969 152.978 134.969Z" fill="#50BFA5"/>
<path d="M130.883 75.4511C139.346 75.4511 146.206 68.5933 146.206 60.1337C146.206 51.6742 139.346 44.8164 130.883 44.8164C122.421 44.8164 115.561 51.6742 115.561 60.1337C115.561 68.5933 122.421 75.4511 130.883 75.4511Z" fill="#355389"/>
<path d="M130.883 73.6255C138.337 73.6255 144.38 67.5847 144.38 60.1331C144.38 52.6814 138.337 46.6406 130.883 46.6406C123.429 46.6406 117.386 52.6814 117.386 60.1331C117.386 67.5847 123.429 73.6255 130.883 73.6255Z" fill="white"/>
<path d="M118.738 59.9165V60.2363H122.902V59.9165H118.738Z" fill="#C5DDF9"/>
<path d="M138.893 59.9165V60.2363H143.056V59.9165H138.893Z" fill="#C5DDF9"/>
<path d="M131.027 48.082H130.707V52.2441H131.027V48.082Z" fill="#C5DDF9"/>
<path d="M131.027 68.1484H130.707V72.3105H131.027V68.1484Z" fill="#C5DDF9"/>
<path d="M131.259 60.1328C131.259 60.3404 131.091 60.5088 130.883 60.5088C130.675 60.5088 130.507 60.3404 130.507 60.1328C130.507 59.9252 130.675 59.7568 130.883 59.7568C131.091 59.7568 131.259 59.9251 131.259 60.1328Z" fill="#B0C1EC"/>
<path d="M130.883 60.301C130.84 60.301 130.797 60.2845 130.764 60.2517L124.006 53.496C123.941 53.4304 123.941 53.324 124.006 53.2583C124.072 53.1926 124.178 53.1926 124.244 53.2583L131.002 60.014C131.068 60.0796 131.068 60.186 131.002 60.2516C130.969 60.2846 130.926 60.301 130.883 60.301Z" fill="#B0C1EC"/>
<path d="M133.056 66.9603C133.028 66.9462 133.005 66.9215 132.995 66.8894L130.81 60.2935C130.789 60.2294 130.824 60.1603 130.888 60.139C130.952 60.1178 131.021 60.1526 131.042 60.2167L133.227 66.8126C133.248 66.8767 133.213 66.9458 133.149 66.9671C133.117 66.9778 133.084 66.9743 133.056 66.9603Z" fill="#B0C1EC"/>
<path d="M291.353 207.169H16.7793V209.205H291.353V207.169Z" fill="#13375B"/>
</svg>
