<svg width="16" height="16" viewBox="0 0 16 16" fill="none" xmlns="http://www.w3.org/2000/svg">
  <path fill-rule="evenodd" clip-rule="evenodd"
    d="M8.00008 9.33317V10.6665C5.79094 10.6665 4.00008 12.4574 4.00008 14.6665H2.66675C2.66675 11.721 5.05456 9.33317 8.00008 9.33317ZM8.00008 0.666504C10.2101 0.666504 12.0001 2.4565 12.0001 4.6665C12.0001 6.8765 10.2101 8.6665 8.00008 8.6665C5.79008 8.6665 4.00008 6.8765 4.00008 4.6665C4.00008 2.4565 5.79008 0.666504 8.00008 0.666504ZM8.00008 1.99984C6.52675 1.99984 5.33341 3.19317 5.33341 4.6665C5.33341 6.13984 6.52675 7.33317 8.00008 7.33317C9.47341 7.33317 10.6667 6.13984 10.6667 4.6665C10.6667 3.19317 9.47341 1.99984 8.00008 1.99984Z"
    fill="#000091" />
  <path fill-rule="evenodd" clip-rule="evenodd"
    d="M9.00008 9.3335H15.0001C15.1842 9.3335 15.3334 9.48273 15.3334 9.66683V14.3335C15.3334 14.5176 15.1842 14.6668 15.0001 14.6668H9.00008C8.81599 14.6668 8.66675 14.5176 8.66675 14.3335V9.66683C8.66675 9.48273 8.81599 9.3335 9.00008 9.3335ZM12.0201 12.2278L9.88275 10.4128L9.45108 10.9208L12.0244 13.1058L14.5514 10.9192L14.1154 10.4148L12.0201 12.2278Z" fill="#000091" />
</svg>