<svg width="430" height="332" viewBox="0 0 430 332" fill="none" xmlns="http://www.w3.org/2000/svg">
<g clip-path="url(#clip0_4172_191948)">
<path d="M46.4007 114.41C49.15 71.7093 81.7824 30.9384 125.978 28.4092C176.74 24.5062 223.333 52.4474 273.897 52.7429C299.681 54.9613 323.861 45.0524 348.988 41.8526C405.738 39.7617 414.385 106.701 403.801 149.848C359.165 353.259 43.3106 325.584 46.4007 114.41Z" fill="#FDDBFA"/>
<path d="M195.311 225.889V225.895C195.311 225.895 183.012 239.707 154.764 244.429C141.274 246.689 124.146 246.877 102.986 242.489L104.219 229.115C113.205 233.559 164.388 236.939 191.617 224.004C192.906 223.391 193.897 222.439 194.555 221.319L195.311 225.889Z" fill="#F4E9DC"/>
<path d="M154.765 244.429L141.974 332H94.7207L102.987 242.489C124.147 246.877 141.274 246.689 154.765 244.429Z" fill="#465F9D"/>
<path d="M212.855 332H169.966L154.765 244.429C183.013 239.707 195.312 225.895 195.312 225.895L212.855 332Z" fill="#465F9D"/>
<path d="M293.747 115.827L246.798 155.537C240.292 161.038 230.966 161.594 223.858 156.914L185.119 131.425C188.522 145.342 193.593 213.008 193.593 213.008C193.641 213.064 193.697 213.12 193.745 213.169C195.872 215.505 196.025 218.822 194.555 221.312V221.319C193.897 222.439 192.906 223.391 191.618 224.004C164.388 236.939 113.205 233.559 104.219 229.115C96.6041 225.346 101.136 218.552 101.136 218.552L105.244 172.409L98.5649 154.362L77.9725 188.029C71.1342 199.212 54.3318 196.938 50.6801 184.343L38.0903 140.829C38.8524 139.668 39.7462 138.631 40.7438 137.714C41.3954 137.109 42.088 136.552 42.8084 136.044C47.2705 132.887 52.8618 131.447 56.6729 130.793C57.0123 130.731 57.3378 130.682 57.65 130.633C59.722 130.321 61.0728 130.265 61.0728 130.265L66.207 142.247C66.207 142.247 79.0111 109.93 82.1289 104.359C84.4013 100.305 97.8292 92.4812 97.8292 92.4812C95.5218 87.2303 98.1759 82.5431 104.412 74.1907C105.485 72.7438 107.01 71.4364 108.68 70.289L137.434 65.1696C146.655 69.3262 151.083 72.101 151.389 77.9044C151.389 77.9044 178.827 77.9323 188.194 84.2469C197.569 90.5689 234.935 124.722 234.935 124.722L278.212 98.8164C287.969 100.875 293.747 115.827 293.747 115.827Z" fill="#BFCCFB"/>
<path d="M57.652 130.633C57.3404 130.682 57.0143 130.731 56.6749 130.793C52.8645 131.447 47.2725 132.886 42.8104 136.044C42.09 136.552 41.3967 137.108 40.7458 137.714C39.6165 135.363 38.3417 133.082 36.928 130.884C36.2764 130.404 35.6598 129.876 35.0916 129.313C33.4563 127.685 32.1193 125.793 30.7889 123.902C29.1675 121.6 27.5461 119.298 25.9253 116.997C25.281 116.475 24.6155 115.968 23.9367 115.487C20.6178 113.144 16.8 111.343 14.2088 108.199C13.7934 107.691 13.3911 106.996 13.6888 106.405C13.8965 105.988 14.3954 105.793 14.8598 105.807C15.3242 105.828 15.7608 106.023 16.1762 106.21C19.6685 107.796 23.0913 109.527 26.4446 111.391C22.5296 107.309 18.9964 102.858 15.8924 98.1219C15.4558 97.4612 15.0404 96.5568 15.5319 95.9453C15.8296 95.5768 16.37 95.4865 16.8278 95.5974C17.285 95.7089 17.6872 95.9938 18.0682 96.272C22.5581 99.582 26.5696 103.546 29.9508 107.997C26.8257 103.066 23.6939 98.1425 20.5695 93.2116C20.1263 92.5164 19.6685 91.7654 19.6546 90.9308C19.6407 90.1034 20.2784 89.1991 21.1027 89.2548C21.6359 89.2894 22.0659 89.6931 22.4397 90.0682C27.0129 94.6512 31.2044 99.6026 34.9738 104.874C34.9738 104.874 29.0564 92.9752 26.5763 86.8206C26.313 86.1666 26.0775 85.3326 26.5624 84.818C26.9368 84.4216 27.595 84.4355 28.066 84.6925C28.5443 84.9501 28.8837 85.395 29.2092 85.8332C34.2322 92.5861 39.256 99.3251 44.279 106.078C44.279 103.699 44.2929 101.307 44.6673 98.9638C45.0557 96.5715 45.8383 94.2069 47.2725 92.2667C47.7925 91.5576 48.5751 90.8411 49.4344 91.0357C50.0371 91.1678 50.4671 91.7309 50.6331 92.3225C50.7992 92.9135 50.7509 93.5463 50.7092 94.1585C50.4737 97.7959 50.5914 101.46 51.0486 105.077C51.5685 109.16 52.5244 113.172 53.1622 117.234C53.5432 119.675 53.8065 122.151 53.7926 124.612C55.0813 126.62 56.37 128.63 57.652 130.633Z" fill="#D36D29"/>
<path d="M75.1502 165.234L69.1143 148.222C68.546 146.621 67.9784 145.02 67.4102 143.419C67.2606 142.998 66.615 143.25 66.7645 143.672C68.7762 149.343 70.788 155.014 72.8004 160.685C73.3686 162.285 73.9362 163.886 74.5045 165.487C74.654 165.909 75.2997 165.657 75.1502 165.234Z" fill="#4E6891"/>
<path d="M77.7088 158.771C76.2534 156.407 74.6273 154.152 72.8425 152.027C72.5561 151.687 71.9938 152.093 72.2822 152.436C74.067 154.562 75.6931 156.816 77.1485 159.18C77.3826 159.561 77.9417 159.15 77.7088 158.771Z" fill="#4E6891"/>
<path d="M126.488 111.95C119.27 107.518 112.045 103.079 105.16 98.1345C103.241 96.7567 101.378 95.2953 99.395 94.0091C99.0239 93.7681 98.582 94.3046 98.9558 94.5476C100.729 95.6976 102.401 96.9944 104.112 98.2341C105.845 99.4897 107.6 100.712 109.372 101.91C112.874 104.277 116.44 106.544 120.028 108.776C122.081 110.054 124.141 111.319 126.202 112.584C126.581 112.817 126.863 112.181 126.488 111.95Z" fill="#4E6891"/>
<path d="M150.917 81.2157C146.988 89.2534 142.657 97.094 137.932 104.688C136.603 106.826 135.242 108.943 133.853 111.041C133.608 111.411 134.142 111.855 134.389 111.482C139.345 103.998 143.925 96.2646 148.098 88.3145C149.281 86.0609 150.431 83.7901 151.549 81.5032C151.745 81.1002 151.113 80.814 150.917 81.2157Z" fill="#4E6891"/>
<path d="M233.457 127.22C231.679 131.189 229.902 135.159 228.123 139.127C227.94 139.536 228.571 139.823 228.754 139.415C230.533 135.446 232.31 131.477 234.088 127.508C234.272 127.1 233.64 126.812 233.457 127.22Z" fill="#4E6891"/>
<path d="M231.671 126.977C229.764 129.506 227.858 132.034 225.952 134.562C225.682 134.919 226.218 135.36 226.488 135.003C228.394 132.475 230.301 129.946 232.206 127.418C232.476 127.062 231.94 126.62 231.671 126.977Z" fill="#4E6891"/>
<path d="M162.642 145.075C157.375 147.713 152.11 150.358 146.95 153.204C141.791 156.051 136.737 159.105 131.949 162.549C129.248 164.493 126.637 166.561 124.148 168.771C123.816 169.066 124.221 169.631 124.555 169.334C128.943 165.439 133.706 161.997 138.663 158.873C143.639 155.738 148.802 152.918 154.022 150.217C156.966 148.694 159.93 147.208 162.894 145.723C163.288 145.525 163.041 144.875 162.642 145.075Z" fill="#4E6891"/>
<path d="M147.08 162.6C142.864 164.328 138.648 166.056 134.432 167.785C134.02 167.953 134.269 168.603 134.684 168.433L147.332 163.248C147.743 163.078 147.494 162.43 147.08 162.6Z" fill="#4E6891"/>
<path d="M128.146 186.532C127.002 194.011 124.219 201.226 120.039 207.526C118.85 209.317 117.551 211.03 116.152 212.66C115.86 213 116.397 213.439 116.689 213.101C121.677 207.288 125.357 200.391 127.449 193.013C128.043 190.92 128.502 188.791 128.831 186.64C128.899 186.198 128.215 186.088 128.146 186.532Z" fill="#4E6891"/>
<path d="M177.853 211.46C173.17 205.444 169.802 198.408 168.064 190.972C167.574 188.876 167.215 186.751 166.983 184.612C166.935 184.168 166.246 184.243 166.294 184.69C167.129 192.381 169.648 199.856 173.61 206.491C174.726 208.358 175.958 210.153 177.293 211.869C177.568 212.222 178.129 211.814 177.853 211.46Z" fill="#4E6891"/>
<path d="M169.336 214.823C166.983 216.107 164.403 216.866 161.779 217.356C159.04 217.866 156.253 218.156 153.476 218.36C147.685 218.785 141.86 218.684 136.088 218.058C134.498 217.886 132.913 217.674 131.333 217.422C129.858 217.187 128.258 217.009 127 216.132C126.636 215.878 126.195 216.414 126.561 216.67C127.614 217.406 128.846 217.705 130.093 217.922C131.547 218.176 133.01 218.388 134.475 218.57C137.426 218.937 140.394 219.167 143.367 219.261C149.198 219.443 155.101 219.166 160.863 218.221C163.883 217.726 166.885 216.947 169.588 215.471C169.974 215.259 169.728 214.609 169.336 214.823Z" fill="#4E6891"/>
<path d="M154.515 183.128C149.164 183.504 143.795 183.609 138.433 183.433C137.993 183.418 137.88 184.105 138.325 184.119C143.749 184.297 149.179 184.2 154.593 183.818C155.037 183.788 154.961 183.097 154.515 183.128Z" fill="#4E6891"/>
<path d="M126.217 114.705C124.731 122.179 123.244 129.652 121.757 137.125C121.495 138.443 123.548 138.767 123.81 137.452C125.296 129.979 126.783 122.505 128.27 115.032C128.532 113.714 126.478 113.39 126.217 114.705Z" fill="#F4E9DC"/>
<path d="M142.421 136.716C139.641 129.664 137.158 122.497 134.98 115.234C134.594 113.949 132.659 114.711 133.043 115.993C135.221 123.255 137.703 130.421 140.484 137.474C140.976 138.722 142.915 137.969 142.421 136.716Z" fill="#F4E9DC"/>
<path d="M36.1099 102.912C32.8783 105.375 29.8623 108.112 27.0944 111.089C26.7895 111.417 27.328 111.855 27.6309 111.53C30.3591 108.595 33.3321 105.902 36.5174 103.475C36.8726 103.204 36.4658 102.641 36.1099 102.912Z" fill="#AA3617"/>
<path d="M39.9257 111.209C38.9777 114.404 38.0297 117.598 37.081 120.792C36.954 121.22 37.64 121.324 37.7651 120.901C38.7131 117.707 39.661 114.512 40.6097 111.318C40.7367 110.891 40.0514 110.786 39.9257 111.209Z" fill="#AA3617"/>
<path d="M136.854 56.3457L137.429 59.3569C137.803 61.3323 137.79 63.3004 137.436 65.1709C137.089 67.0068 136.417 68.7591 135.475 70.3381V70.3448C133.257 74.0446 129.565 76.8194 125.047 77.6886C120.523 78.5651 116.061 77.3546 112.644 74.7331C111.065 73.53 109.714 72.028 108.681 70.289C107.78 68.7731 107.129 67.0832 106.776 65.2612L106.201 62.2499C97.658 63.898 95.164 53.1883 98.3367 50.1007C98.4201 50.0171 98.51 49.9407 98.5934 49.871C100.804 47.9866 102.91 49.5304 103.665 50.2256C103.741 50.1977 103.811 50.1558 103.88 50.1074C108.217 47.6944 111.273 43.0902 111.821 38.1388C114.585 39.6268 117.897 40.0584 120.953 39.328C124.001 38.5976 126.766 36.7059 128.56 34.1262C129.205 38.083 131.387 41.7689 134.54 44.231L134.61 44.6207C134.61 44.6207 135.517 42.0059 137.811 41.8114C138.351 41.7629 138.968 41.8459 139.674 42.138C143.762 43.8206 145.404 54.7042 136.854 56.3457Z" fill="#D36D29"/>
<path d="M140.554 84.7403L131.38 111.188L113.241 90.0045L113.026 84.5033L112.645 74.7325C116.061 77.3546 120.523 78.5644 125.048 77.688C129.565 76.8188 133.258 74.0439 135.475 70.3441L140.554 84.7403Z" fill="#D36D29"/>
<path d="M137.81 41.7894V41.81C135.517 42.0046 134.609 44.6194 134.609 44.6194L134.539 44.2296C131.387 41.7675 129.204 38.0817 128.56 34.1249C126.765 36.7052 124 38.5969 120.952 39.3267C117.896 40.0571 114.585 39.6255 111.82 38.1374C111.273 43.0889 108.218 47.6931 103.88 50.106C103.81 50.1545 103.742 50.1963 103.665 50.2242C102.909 49.529 100.803 47.9852 98.5928 49.8697C97.5601 49.5987 96.5903 48.9792 95.8282 48.1658C95.0661 47.3524 94.5051 46.3438 94.2901 45.2934C93.8674 43.1858 94.7334 40.8705 96.4309 39.563C94.1307 38.2556 92.8903 35.3068 93.5624 32.7338C94.2346 30.1674 96.7636 28.2133 99.4104 28.2133C97.7751 26.8713 97.2003 24.4929 97.6991 22.4338C98.2051 20.3821 99.6321 18.6437 101.357 17.4127C105.674 14.339 111.605 14.3457 116.559 16.2168C121.458 18.0733 125.58 21.5089 129.439 25.056L129.675 24.7983C130.963 23.4491 133.263 23.477 134.801 24.5341C136.34 25.5912 137.185 27.4344 137.49 29.277C137.802 31.1203 137.642 33.0047 137.587 34.8752C137.512 37.1786 137.588 39.4947 137.81 41.7894Z" fill="#36344C"/>
<path d="M135.475 70.3447C135.475 70.3447 132.17 86.9241 113.026 84.5039L112.645 74.7331C116.06 77.3552 120.522 78.565 125.047 77.6886C129.565 76.8194 133.258 74.0445 135.475 70.3447Z" fill="#AA3617"/>
<path d="M124.315 60.4073C122.511 61.0447 120.695 61.6456 118.869 62.2167C118.745 57.9717 118.561 53.7281 118.312 49.4885C118.285 49.0416 117.599 49.1352 117.625 49.5801C117.883 53.9605 118.073 58.3449 118.197 62.7313C118.204 62.9789 118.484 63.0646 118.676 63.0055C120.658 62.392 122.629 61.7393 124.586 61.048C125.006 60.8993 124.735 60.2592 124.315 60.4073Z" fill="#AA3617"/>
<path d="M128.865 60.7306C129.195 63.4557 127.926 66.2425 125.673 67.7929C125.306 68.0459 125.732 68.5944 126.099 68.3421C128.548 66.6562 129.91 63.5945 129.551 60.639C129.498 60.1948 128.81 60.2864 128.865 60.7306Z" fill="#36344C"/>
<path d="M111.626 64.3349C113.129 64.3349 114.347 63.1121 114.347 61.6038C114.347 60.0955 113.129 58.8728 111.626 58.8728C110.123 58.8728 108.905 60.0955 108.905 61.6038C108.905 63.1121 110.123 64.3349 111.626 64.3349Z" fill="#AA3617"/>
<path d="M132.586 58.0701C134.089 58.0701 135.307 56.8474 135.307 55.3391C135.307 53.8308 134.089 52.608 132.586 52.608C131.083 52.608 129.865 53.8308 129.865 55.3391C129.865 56.8474 131.083 58.0701 132.586 58.0701Z" fill="#AA3617"/>
<path d="M112.449 56.2661C113.482 55.9576 114.011 54.6707 113.631 53.3917C113.252 52.1127 112.107 51.326 111.075 51.6346C110.043 51.9431 109.514 53.23 109.893 54.509C110.273 55.788 111.417 56.5747 112.449 56.2661Z" fill="#36344C"/>
<path d="M126.767 52.5388C127.799 52.2303 128.329 50.9434 127.949 49.6644C127.57 48.3854 126.425 47.5987 125.393 47.9073C124.361 48.2158 123.832 49.5028 124.211 50.7817C124.59 52.0607 125.735 52.8474 126.767 52.5388Z" fill="#36344C"/>
<path d="M112.171 47.9959C111.943 47.727 111.627 47.5052 111.266 47.472C111.142 47.472 111.018 47.472 110.894 47.4713C110.646 47.5052 110.424 47.5988 110.226 47.7522L107.503 49.4175C107.226 49.5868 107.023 50.0184 106.981 50.3259C106.934 50.6678 107.033 51.1021 107.26 51.3697C107.489 51.6386 107.804 51.8604 108.165 51.8936C108.289 51.8936 108.413 51.8936 108.537 51.8942C108.785 51.8604 109.007 51.7667 109.205 51.6133L111.928 49.948C112.205 49.7787 112.408 49.3471 112.45 49.0397C112.498 48.6977 112.398 48.2635 112.171 47.9959Z" fill="#36344C"/>
<path d="M121.98 45.0636C122.024 44.713 122.168 44.3545 122.452 44.128C122.556 44.0597 122.659 43.9919 122.763 43.9235C122.989 43.816 123.226 43.7721 123.475 43.7914L126.662 43.6905C126.987 43.6805 127.391 43.9295 127.595 44.1639C127.82 44.4249 127.974 44.8425 127.93 45.1911C127.886 45.5417 127.742 45.9003 127.458 46.1267C127.354 46.1951 127.251 46.2628 127.147 46.3312C126.921 46.4388 126.684 46.4826 126.435 46.4633L123.248 46.5643C122.923 46.5749 122.519 46.3252 122.315 46.0908C122.09 45.8299 121.936 45.4122 121.98 45.0636Z" fill="#36344C"/>
<path d="M307.487 138.352L306.274 139.069L304.902 139.882L284.164 152.164L282.355 153.235L277.055 143.47L267.182 164.41L257.793 184.314C258.354 186.922 258.867 189.912 259.345 193.215C260.038 198.007 260.641 203.466 261.181 209.378C252.714 208.647 245.218 207.479 238.594 206.005C208.323 199.273 196.218 186.254 192.29 180.712C196.197 173.201 199.114 168.458 199.114 168.458L199.752 137.803L191.791 143.088L190.405 141.058L175.744 119.575L174.33 117.503C174.33 117.503 193.661 100.958 204.359 99.4001C204.56 99.3723 204.761 99.3517 204.955 99.3304C211.337 98.7255 219.118 98.5655 224.28 98.531H224.405V99.3171C225.797 104.443 229.531 108.879 234.354 111.091C239.322 113.372 245.336 113.219 250.186 110.688C254.87 108.254 258.376 103.643 259.505 98.4832C261.729 98.4832 264.307 98.4898 267.043 98.525C270.514 98.5668 274.824 98.6777 279.071 99.5887C284.794 100.806 290.414 103.469 293.746 109.353C299.553 119.596 307.487 138.352 307.487 138.352Z" fill="#4CB4BD"/>
<path d="M261.944 218.698C259.319 219.358 256.679 219.901 254.039 220.339C250.533 220.923 247.027 221.326 243.549 221.563C212.793 223.726 184.128 213.787 178.752 211.799C182.826 199.893 188.119 188.731 192.29 180.712C196.219 186.255 208.323 199.274 238.595 206.005C245.219 207.479 252.715 208.648 261.182 209.378C261.425 212.035 261.653 214.782 261.861 217.599C261.889 217.961 261.917 218.329 261.944 218.698Z" fill="#B47C53"/>
<path d="M190.405 141.058C189.817 141.357 160.563 156.052 152.18 157.227C143.387 158.458 136.618 151.337 139.556 142.929L159.039 87.0564C157.252 76.9443 151.21 68.1543 147.42 58.6053C147.087 57.7707 146.873 56.6093 147.642 56.1505C148.431 55.6844 149.346 56.4705 149.921 57.187C152.409 60.3025 154.854 63.4532 157.245 66.6384C155.575 61.325 154.432 55.8451 153.822 50.3093C153.739 49.5371 153.774 48.5636 154.474 48.2296C155.326 47.8332 156.158 48.7788 156.615 49.6068C159.573 54.9759 161.915 60.7062 163.564 66.6244C162.816 60.5462 162.49 54.4121 162.587 48.2854C162.608 47.3047 162.857 46.053 163.82 45.9003C164.326 45.824 164.832 46.1367 165.13 46.5471C165.428 46.9641 165.567 47.472 165.698 47.9727C167.299 54.1552 168.581 60.4074 169.544 66.7147C168.969 60.5946 169.183 54.4055 170.168 48.3412C170.307 47.486 170.576 46.4913 171.38 46.1852C172.094 45.9209 172.904 46.3658 173.313 47.0059C173.722 47.646 173.819 48.4315 173.909 49.1825C174.956 58.0635 176.002 66.9372 177.048 75.8182C179.348 73.2312 182.079 71.0194 185.085 69.309C185.896 68.8428 186.977 68.4325 187.704 69.0241C188.238 69.4551 188.314 70.2758 188.071 70.9225C187.836 71.5626 187.351 72.0772 186.893 72.5918C185.092 74.6084 183.54 76.8407 182.279 79.2331C180.851 81.9316 179.792 84.8247 178.198 87.4256C176.674 89.9156 173.223 92.4919 173.223 92.4919L168.107 124.677L175.746 119.576L190.405 141.058Z" fill="#B47C53"/>
<path d="M357.373 140.863C339.331 160.857 323.873 172.951 313.84 179.683C307.542 183.911 298.992 181.658 295.583 174.878L284.164 152.164L304.902 139.883L308.837 150.043L350.25 129.556L357.373 140.863Z" fill="#B47C53"/>
<path d="M200.776 126.979C200.306 130.317 199.978 133.674 199.793 137.04C199.768 137.482 200.452 137.596 200.477 137.149C200.662 133.783 200.99 130.426 201.46 127.088C201.523 126.645 200.839 126.535 200.776 126.979Z" fill="#389688"/>
<path d="M276.796 141.416C275.82 138.854 274.995 136.237 274.326 133.577C274.217 133.144 273.572 133.4 273.68 133.83C274.35 136.49 275.175 139.107 276.15 141.669C276.31 142.087 276.955 141.835 276.796 141.416Z" fill="#389688"/>
<path d="M278.181 134.045C277.933 136.201 277.687 138.358 277.439 140.514C277.388 140.957 278.072 141.068 278.124 140.623C278.371 138.467 278.618 136.31 278.865 134.154C278.916 133.71 278.232 133.599 278.181 134.045Z" fill="#389688"/>
<path d="M227.469 150.826C221.45 153.061 214.595 152.326 209.22 148.79C207.808 147.861 206.507 146.761 205.364 145.514C205.065 145.188 204.501 145.593 204.803 145.923C209.187 150.701 215.576 153.26 222.039 152.74C223.981 152.584 225.894 152.152 227.72 151.474C228.139 151.319 227.888 150.67 227.469 150.826Z" fill="#389688"/>
<path d="M267.427 153.156C261.838 156.322 254.953 156.689 249.088 154.055C247.546 153.363 246.088 152.484 244.762 151.435C244.415 151.161 243.923 151.651 244.273 151.928C249.357 155.947 256.071 157.454 262.369 155.911C264.261 155.448 266.083 154.716 267.777 153.755C268.166 153.536 267.816 152.936 267.427 153.156Z" fill="#389688"/>
<path d="M172.333 65.0116C167.397 65.1065 162.496 65.9339 157.797 67.4518C157.372 67.5885 157.625 68.2366 158.049 68.0998C162.692 66.6005 167.535 65.7971 172.41 65.7034C172.856 65.6941 172.777 65.0029 172.333 65.0116Z" fill="#8C442B"/>
<path d="M169.338 91.2456C167.23 90.2244 165.122 89.2031 163.014 88.1819C162.612 87.9867 162.327 88.6208 162.728 88.8153C164.836 89.8366 166.944 90.8578 169.052 91.879C169.454 92.0736 169.739 91.4401 169.338 91.2456Z" fill="#8C442B"/>
<path d="M257.884 75.2823L257.704 78.182C257.434 82.5079 255.321 86.2981 252.182 88.8226C249.404 91.0689 245.815 92.3278 241.99 92.0842C237.771 91.8199 234.063 89.7754 231.548 86.7363C229.206 83.9196 227.89 80.241 228.139 76.3188L228.319 73.4191C220.074 72.8972 220.317 62.4591 223.961 60.3795C226.691 58.8217 228.389 61.0541 228.874 61.8469C228.977 62.0069 229.026 62.1112 229.026 62.1112L229.046 61.8051C236.903 59.7673 244.31 56.019 250.615 50.8936C251.425 50.2329 252.215 49.5583 252.985 48.8491L253.061 48.9328C253.151 49.6492 253.269 50.3584 253.407 51.0675C254.281 55.5741 256.061 59.9067 258.604 63.7174L258.59 63.9677C258.59 63.9677 260.8 60.6225 263.828 62.8901C264.521 63.412 265.027 64.2672 265.324 65.2891C265.366 65.4352 265.4 65.5879 265.436 65.7413C266.288 69.7047 264.182 75.6787 257.884 75.2823Z" fill="#B47C53"/>
<path d="M259.505 98.4824C258.376 103.642 254.869 108.253 250.186 110.687C245.335 113.219 239.321 113.372 234.354 111.09C229.531 108.879 225.797 104.442 224.404 99.3164V98.5302H224.543C227.646 98.5096 229.732 98.5442 229.906 98.5442L230.141 96.8403L231.548 86.7356C234.063 89.7747 237.769 91.8192 241.989 92.0834C245.814 92.3271 249.403 91.0682 252.182 88.8219L253.526 98.5096C254.821 98.4964 256.921 98.4824 259.505 98.4824Z" fill="#B47C53"/>
<path d="M279.072 99.5887C274.825 98.6777 270.515 98.5661 267.044 98.525C264.307 98.4904 261.73 98.4831 259.506 98.4831C256.921 98.4831 254.822 98.4971 253.526 98.511L252.182 88.8233C255.321 86.2987 257.434 82.5086 257.704 78.1827L257.884 75.283C264.182 75.6794 266.288 69.7054 265.436 65.7413C265.401 65.5886 265.366 65.4352 265.325 65.2891C265.027 64.2665 264.521 63.4113 263.828 62.8901C260.8 60.6232 258.59 63.9677 258.59 63.9677L258.604 63.7174C256.061 59.9061 254.281 55.5735 253.408 51.0675C253.269 50.3584 253.151 49.6486 253.061 48.9328L252.985 48.8491C252.216 49.5583 251.426 50.2329 250.615 50.8936C244.31 56.019 236.904 59.7673 229.046 61.8051C228.991 61.819 228.929 61.833 228.873 61.8469C228.388 61.0541 226.691 58.8217 223.961 60.3795C220.316 62.4591 220.073 72.8972 228.319 73.4191L228.139 76.3188C227.889 80.2411 229.206 83.9203 231.548 86.7363L229.906 98.5449C229.733 98.5449 227.647 98.5103 224.543 98.5309H224.279C219.117 98.5655 211.336 98.7255 204.955 99.3304C204.761 99.351 204.56 99.3722 204.359 99.4001C200.964 98.023 198.782 94.0801 199.474 90.4567C200.362 85.7695 205.052 82.8552 207.221 78.6129C209.798 73.5712 208.482 67.4511 209.563 61.8874C211.163 53.6532 218.653 46.9561 226.988 46.3027C228.443 39.8141 233.945 34.4244 240.444 33.1243C246.825 31.8448 253.83 34.5778 257.704 39.8214C261.431 39.1886 265.367 41.4834 267.362 44.7801C269.531 48.3478 269.801 52.778 269.316 56.9293C269.005 59.6278 268.423 62.4857 269.115 65.0381C269.15 65.1636 269.185 65.2884 269.226 65.4139C269.337 65.7479 269.462 66.068 269.621 66.3874C270.682 68.5294 272.753 69.9477 274.478 71.6031C276.231 73.293 277.7 75.3374 278.434 77.6607C279.162 79.9834 279.113 82.6056 278.012 84.7748C277.471 85.8459 276.667 86.903 276.785 88.0922C276.875 88.9966 277.478 89.7475 277.97 90.5052C279.682 93.1625 280 96.5768 279.072 99.5887Z" fill="#8A3333"/>
<path d="M244.917 75.5871C243.102 75.5625 241.288 75.5007 239.475 75.4098C240.749 71.5871 241.969 67.7466 243.13 63.8874C243.252 63.4804 242.61 63.3389 242.488 63.7433C241.289 67.7306 240.029 71.6987 238.709 75.6468C238.634 75.8693 238.856 76.0386 239.046 76.0485C241.013 76.1535 242.981 76.2192 244.95 76.2464C245.372 76.2517 245.339 75.5924 244.917 75.5871Z" fill="#8C442B"/>
<path d="M233.223 75.0758C234.649 75.0758 235.805 73.9155 235.805 72.4842C235.805 71.0529 234.649 69.8926 233.223 69.8926C231.797 69.8926 230.641 71.0529 230.641 72.4842C230.641 73.9155 231.797 75.0758 233.223 75.0758Z" fill="#8C442B"/>
<path d="M253.939 76.3806C255.365 76.3806 256.521 75.2203 256.521 73.789C256.521 72.3577 255.365 71.1974 253.939 71.1974C252.513 71.1974 251.357 72.3577 251.357 73.789C251.357 75.2203 252.513 76.3806 253.939 76.3806Z" fill="#8C442B"/>
<path d="M237.68 65.8324C237.759 64.5683 236.996 63.4915 235.976 63.4272C234.956 63.363 234.065 64.3357 233.986 65.5998C233.907 66.8639 234.67 67.9407 235.69 68.005C236.71 68.0692 237.601 67.0965 237.68 65.8324Z" fill="#36344C"/>
<path d="M251.652 67.2169C251.731 65.9528 250.968 64.876 249.947 64.8118C248.927 64.7475 248.036 65.7202 247.957 66.9843C247.878 68.2484 248.641 69.3253 249.661 69.3895C250.681 69.4537 251.573 68.4811 251.652 67.2169Z" fill="#36344C"/>
<path d="M238.146 60.5395C238.031 60.2248 237.821 59.924 237.511 59.7752C237.4 59.7347 237.29 59.6936 237.18 59.6524C236.948 59.6013 236.719 59.6112 236.493 59.683L233.524 60.2719C233.222 60.3317 232.901 60.6497 232.763 60.9094C232.609 61.1989 232.556 61.6178 232.672 61.9313C232.787 62.246 232.996 62.5468 233.307 62.6955C233.417 62.7367 233.527 62.7772 233.637 62.8184C233.869 62.8695 234.098 62.8595 234.324 62.7878L237.293 62.1988C237.595 62.1391 237.916 61.821 238.054 61.5614C238.207 61.2719 238.261 60.8529 238.146 60.5395Z" fill="#36344C"/>
<path d="M247.841 61.1504C247.995 60.8529 248.24 60.58 248.567 60.4717C248.681 60.4452 248.796 60.4186 248.91 60.3914C249.146 60.3695 249.372 60.4087 249.588 60.5083L252.461 61.4651C252.753 61.5627 253.032 61.9179 253.137 62.1935C253.252 62.4996 253.253 62.9226 253.1 63.2187C252.947 63.5162 252.701 63.7891 252.375 63.8973C252.26 63.9239 252.146 63.9504 252.031 63.9777C251.795 63.9996 251.569 63.9604 251.353 63.8608L248.481 62.904C248.188 62.8064 247.909 62.4511 247.805 62.1756C247.689 61.8695 247.688 61.4465 247.841 61.1504Z" fill="#36344C"/>
<path d="M252.182 88.8226C252.182 88.8226 245.632 96.7753 230.479 94.4181L231.548 86.7363C234.063 89.7755 237.769 91.8199 241.989 92.0842C245.814 92.3279 249.403 91.0689 252.182 88.8226Z" fill="#8C442B"/>
<path d="M248.584 82.9747C247.194 84.3857 245.113 84.8891 243.234 84.3008C241.568 83.7882 239.252 81.8254 240.455 79.8792C241.393 78.3739 243.492 78.7331 244.842 79.5651C245.167 79.2079 245.517 78.8792 245.936 78.6355C246.745 78.174 247.793 78.0778 248.647 78.4994C249.423 78.8819 249.856 79.6727 249.81 80.5365C249.765 81.4728 249.227 82.3293 248.584 82.9747Z" fill="#F4E9DC"/>
<path d="M265.117 332H228.132L217.926 250.382L197.119 332H156.863C156.863 332 168.809 246.515 176.125 220.228C176.915 217.397 177.802 214.58 178.751 211.799C185.195 214.184 225.083 227.982 261.944 218.698C265.402 265.682 265.117 332 265.117 332Z" fill="#F2B34E"/>
<path d="M265.125 268.172C230.523 262.949 216.575 226.41 216.575 226.41C193.53 252.19 167.271 254.381 167.271 254.381C168.49 233.399 179.043 205.867 182.625 197.041C183.124 195.81 184.779 195.622 185.555 196.701C195.263 210.171 206.729 218.023 217.85 222.474C238.207 230.618 257.413 227.349 262.596 226.222C263.358 226.055 264.114 226.528 264.28 227.293C268.478 246.432 265.125 268.172 265.125 268.172Z" fill="#6A6AF4"/>
<path d="M216.575 224.285L204.057 284.604C204.057 284.604 214.939 290.983 230.252 284.604L223.704 228.152L216.575 224.285Z" fill="#6A6AF4"/>
<path d="M216.575 226.41L216.832 290.983C216.832 290.983 228.037 295.914 240.075 286.343L223.703 228.151L216.575 226.41Z" fill="#6A6AF4"/>
<path d="M229.828 228.725C227.905 231.643 226.437 235.424 223.253 237.153C218.677 238.193 211.514 235.385 210.573 230.331C209.987 226.782 213.582 217 218.533 218.265C222.373 219.747 232.171 223.381 229.828 228.725Z" fill="#6A6AF4"/>
<path d="M229.354 228.24C228.561 230.727 226.885 232.869 224.643 234.201C222.129 235.695 218.976 236.021 216.197 235.143C215.777 235.01 215.486 235.642 215.911 235.776C220.437 237.207 225.462 235.648 228.303 231.81C229.039 230.815 229.609 229.707 229.985 228.527C230.119 228.106 229.49 227.814 229.354 228.24Z" fill="#474167"/>
<path d="M217.957 237.057C217.75 243.481 217.543 249.907 217.336 256.332C217.128 262.786 216.92 269.24 216.712 275.694C216.596 279.312 216.479 282.93 216.362 286.547C216.348 286.989 217.032 287.103 217.047 286.656C217.254 280.231 217.461 273.806 217.668 267.381C217.876 260.927 218.084 254.473 218.292 248.019C218.408 244.401 218.525 240.783 218.641 237.166C218.656 236.724 217.972 236.61 217.957 237.057Z" fill="#474167"/>
<path d="M221.901 221.631C217.644 224.015 214.66 228.449 214.022 233.296C213.963 233.739 214.647 233.85 214.706 233.405C215.323 228.72 218.199 224.495 222.309 222.194C222.697 221.976 222.286 221.415 221.901 221.631Z" fill="#474167"/>
<path d="M210.049 224.382C205.061 220.866 199.971 217.496 194.787 214.279C193.32 213.369 191.845 212.471 190.363 211.585C189.98 211.356 189.697 211.993 190.076 212.219C195.261 215.319 200.356 218.57 205.351 221.97C206.779 222.941 208.198 223.925 209.61 224.921C209.973 225.177 210.415 224.64 210.049 224.382Z" fill="#474167"/>
<path d="M208.654 225.628C203.086 224.468 197.578 223.022 192.162 221.283C190.629 220.791 189.104 220.274 187.586 219.737C187.167 219.589 186.878 220.221 187.299 220.37C192.694 222.279 198.187 223.909 203.751 225.242C205.344 225.624 206.942 225.98 208.545 226.314C208.982 226.406 209.089 225.719 208.654 225.628Z" fill="#474167"/>
<path d="M254.537 238.736C248.678 237.003 242.88 235.059 237.16 232.91C235.54 232.301 233.926 231.675 232.318 231.034C231.904 230.869 231.616 231.502 232.031 231.668C237.763 233.953 243.575 236.035 249.456 237.9C251.108 238.425 252.766 238.932 254.429 239.424C254.856 239.549 254.96 238.861 254.537 238.736Z" fill="#474167"/>
<path d="M244.856 244.244C239.611 240.973 234.697 237.175 230.196 232.934C229.869 232.627 229.433 233.167 229.756 233.472C234.305 237.758 239.271 241.574 244.569 244.878C244.948 245.113 245.23 244.477 244.856 244.244Z" fill="#474167"/>
<path d="M220.623 285.403C220.612 284.956 219.923 285.035 219.934 285.481C219.977 287.242 220.02 289.004 220.064 290.765C220.075 291.212 220.764 291.133 220.753 290.687C220.71 288.926 220.666 287.165 220.623 285.403Z" fill="#474167"/>
<path d="M224.304 282.244C224.29 281.798 223.601 281.877 223.615 282.322C223.701 285.115 223.787 287.907 223.874 290.7C223.888 291.147 224.576 291.068 224.562 290.622C224.476 287.83 224.39 285.037 224.304 282.244Z" fill="#474167"/>
<path d="M227.646 286.047C227.585 285.604 226.896 285.679 226.957 286.124C227.15 287.542 227.344 288.959 227.537 290.377C227.597 290.819 228.287 290.744 228.226 290.299C228.033 288.882 227.839 287.464 227.646 286.047Z" fill="#474167"/>
<path d="M231.957 289.19C231.268 286.655 230.746 284.077 230.388 281.474C230.327 281.031 229.638 281.106 229.699 281.551C230.066 284.215 230.606 286.849 231.311 289.442C231.428 289.874 232.073 289.618 231.957 289.19Z" fill="#474167"/>
<path d="M235.132 287.635L234.233 284.671C234.179 284.491 233.95 284.408 233.785 284.473C233.6 284.545 233.533 284.743 233.588 284.923C233.887 285.911 234.187 286.899 234.487 287.887C234.541 288.067 234.771 288.149 234.935 288.085C235.121 288.013 235.187 287.815 235.132 287.635Z" fill="#474167"/>
<path d="M238.439 286.203C237.538 284.057 236.635 281.91 235.734 279.762C235.561 279.351 234.914 279.601 235.088 280.015L237.794 286.456C237.967 286.868 238.613 286.618 238.439 286.203Z" fill="#474167"/>
<path d="M207.459 277.195C207.119 279.258 206.78 281.321 206.439 283.383C206.367 283.825 207.051 283.934 207.124 283.492C207.464 281.43 207.803 279.367 208.143 277.304C208.216 276.863 207.532 276.753 207.459 277.195Z" fill="#474167"/>
<path d="M209.784 281.525C209.626 282.638 209.468 283.75 209.309 284.863C209.246 285.306 209.93 285.416 209.993 284.972C210.152 283.859 210.31 282.747 210.468 281.634C210.532 281.191 209.848 281.081 209.784 281.525Z" fill="#474167"/>
<path d="M213.77 277.781L213.177 285.319C213.142 285.763 213.826 285.875 213.861 285.428L214.454 277.89C214.489 277.446 213.805 277.334 213.77 277.781Z" fill="#474167"/>
<path d="M351.985 173.377L351.786 176.73C370.084 211.238 374.391 294.079 374.391 294.079C373.313 294.331 372.248 294.577 371.182 294.803C357.601 297.744 344.701 298.528 332.866 297.983C324.021 297.592 315.765 296.443 308.277 294.902C287.504 290.646 272.574 283.349 266.984 280.314C265.396 279.458 264.556 278.946 264.556 278.946C269.908 241.005 292.85 198.058 292.85 198.058L291.269 190.535C291.712 193.676 291.679 200.794 284.164 206.823C279.447 210.601 270.252 214.518 261.863 217.599C261.652 214.784 261.427 212.035 261.182 209.379C260.639 203.47 260.037 198.005 259.343 193.217L269.808 185.024C269.808 185.024 268.664 176.624 267.182 164.413C266.911 162.175 266.64 159.938 266.395 157.78C264.787 143.809 267.877 131.578 275.246 128.345C278.494 126.91 284.607 124.374 289.721 122.296C297.269 131.346 306.365 139.088 316.48 145.091C323.168 135.795 327.872 125.058 330.174 113.816C330.187 113.757 330.2 113.69 330.213 113.63C332.363 113.411 336.055 113.006 338.304 112.701C345.303 111.764 354.293 116.665 357.376 123.172C360.452 129.679 366.942 151.359 366.942 151.359L370.408 140.907L370.852 140.987L385.538 143.71L386.715 143.922C387.423 185.488 381.099 193.284 373.425 193.802C365.758 194.32 362.318 188.39 362.318 188.39L351.985 173.377Z" fill="#FCC63A"/>
<path d="M308.276 294.905L290.151 332H256.048L266.981 280.314C272.573 283.347 287.504 290.649 308.276 294.905Z" fill="#FAB39B"/>
<path d="M373.364 332H339.206L332.866 297.986C344.7 298.528 357.602 297.742 371.182 294.801L373.364 332Z" fill="#FAB39B"/>
<path d="M290.948 188.988C291.004 189.176 291.149 189.712 291.267 190.512L290.948 188.988Z" fill="#F2B34E"/>
<path d="M400.234 105.903C398.675 110.5 395.752 114.506 393.783 118.943C392.474 121.892 391.594 125.021 390.444 128.039C389.335 130.953 387.943 133.811 385.809 136.072C385.719 138.617 385.629 141.155 385.539 143.708L370.85 140.988C371.287 138.568 371.716 136.141 372.139 133.721C370.455 131.28 369.693 128.311 369.076 125.39C368.418 122.295 367.885 119.117 366.423 116.314C365.148 113.859 363.166 111.655 362.792 108.915C362.709 108.275 362.765 107.531 363.277 107.141C363.638 106.87 364.143 106.863 364.566 107.016C364.989 107.168 365.349 107.454 365.689 107.746C368.633 110.243 371.038 113.365 372.708 116.843C373.747 112.705 374.779 108.56 375.819 104.415C376.74 100.75 377.662 97.0715 378.964 93.5317C379.11 93.142 379.297 92.7183 379.685 92.5862C380.218 92.4122 380.731 92.9129 380.973 93.4209C381.438 94.3737 381.466 95.4793 381.472 96.5364C381.493 102.232 381.202 106.965 380.281 112.585C381.577 106.819 382.768 102.016 384.604 96.4042C385.082 94.9368 385.623 93.4415 386.662 92.308C386.96 91.9813 387.376 91.6679 387.799 91.7861C388.263 91.9182 388.436 92.4674 388.519 92.9335C389.157 96.4806 388.706 100.139 387.972 103.664C387.369 106.592 386.572 109.485 386.053 112.42C387.889 107.628 389.773 102.85 392.101 98.2747C392.607 97.2734 393.148 96.2648 393.937 95.4653C394.318 95.0829 394.858 94.7349 395.357 94.9228C395.912 95.1313 396.05 95.8411 396.057 96.4387C396.064 97.7256 395.814 99.0117 395.503 100.263C394.962 102.461 394.214 104.603 393.466 106.738C392.454 109.631 391.443 112.524 390.424 115.417C392.925 111.738 395.724 108.247 398.773 105.006C399.106 104.644 399.605 104.262 400.042 104.498C400.49 104.749 400.4 105.416 400.234 105.903Z" fill="#FAB39B"/>
<path d="M389.775 116.102C386.603 114.182 383.114 112.838 379.48 112.121C379.042 112.035 378.934 112.721 379.372 112.808C382.947 113.514 386.368 114.847 389.488 116.735C389.87 116.966 390.152 116.33 389.775 116.102Z" fill="#D36D29"/>
<path d="M381.413 136.94C379.458 136.285 377.504 135.631 375.549 134.976C375.129 134.835 374.839 135.468 375.262 135.609C377.217 136.264 379.172 136.919 381.127 137.574C381.546 137.714 381.836 137.082 381.413 136.94Z" fill="#D36D29"/>
<path d="M292.592 191.308C290.494 183.131 288.396 174.953 286.297 166.776L284.53 159.886C284.419 159.454 283.774 159.709 283.884 160.139C285.983 168.317 288.08 176.494 290.179 184.672L291.946 191.561C292.057 191.994 292.702 191.738 292.592 191.308Z" fill="#EA8C11"/>
<path d="M315.514 173.934C310.772 178.397 304.077 180.553 297.627 179.87C295.797 179.676 293.999 179.255 292.278 178.603C291.862 178.446 291.574 179.079 291.991 179.237C298.244 181.606 305.449 181.01 311.312 177.822C312.983 176.913 314.534 175.803 315.921 174.497C316.242 174.194 315.839 173.628 315.514 173.934Z" fill="#EA8C11"/>
<path d="M346.785 167.994C342.043 172.457 335.348 174.613 328.898 173.931C327.068 173.737 325.27 173.316 323.549 172.664C323.133 172.507 322.845 173.139 323.262 173.297C329.515 175.667 336.72 175.07 342.583 171.882C344.254 170.973 345.805 169.863 347.192 168.557C347.513 168.254 347.109 167.688 346.785 167.994Z" fill="#EA8C11"/>
<path d="M349.248 152.6C349.015 150.849 348.783 149.098 348.551 147.347C348.492 146.904 347.803 146.979 347.862 147.425C348.674 153.539 349.485 159.654 350.298 165.768C350.53 167.519 350.763 169.27 350.995 171.021C351.054 171.464 351.743 171.389 351.684 170.944C350.872 164.829 350.06 158.715 349.248 152.6Z" fill="#EA8C11"/>
<path d="M348.045 157.536C346.469 154.703 345.129 151.744 344.027 148.694C343.875 148.273 343.229 148.526 343.381 148.947C344.503 152.055 345.879 155.059 347.484 157.945C347.701 158.335 348.26 157.923 348.045 157.536Z" fill="#EA8C11"/>
<path d="M365.766 152.747C364.594 157.389 363.628 162.082 362.872 166.811C362.802 167.252 363.486 167.362 363.556 166.92C364.312 162.191 365.278 157.498 366.45 152.856C366.56 152.422 365.874 152.316 365.766 152.747Z" fill="#EA8C11"/>
<path d="M354.333 183.356C346.901 187.339 339.078 190.575 331.012 193.015C329.012 193.62 326.997 194.175 324.97 194.681C326.476 193.6 327.958 192.484 329.319 191.225C330.16 190.446 330.958 189.62 331.67 188.721C332.389 187.814 333.126 186.794 333.542 185.706C333.896 184.777 333.94 183.664 333.24 182.88C332.465 182.01 331.25 182.22 330.319 182.693C328.345 183.698 326.695 185.378 325.521 187.243C324.247 189.266 323.507 191.57 323.197 193.932C322.313 192.069 321.377 190.221 320.171 188.545C318.845 186.702 316.955 184.561 314.602 184.168C312.56 183.826 310.313 185.373 310.873 187.624C311.166 188.8 312.024 189.741 312.865 190.566C313.728 191.413 314.689 192.154 315.709 192.798C317.61 193.997 319.703 194.842 321.869 195.413C316.751 196.556 311.564 197.384 306.345 197.891C301.635 198.348 296.901 198.539 292.17 198.466C291.726 198.46 291.806 199.151 292.247 199.157C300.697 199.286 309.154 198.567 317.463 197.022C319.257 196.688 321.043 196.309 322.822 195.899C322.656 197.688 322.344 199.466 321.843 201.192C321.612 201.989 321.295 202.838 320.594 203.336C319.931 203.806 318.881 203.766 318.598 202.882C318.462 202.456 317.817 202.709 317.953 203.135C318.223 203.979 319.134 204.459 319.989 204.325C320.938 204.177 321.647 203.428 322.058 202.6C322.57 201.569 322.804 200.353 323.036 199.234C323.256 198.168 323.402 197.09 323.502 196.007C324.724 198.01 326.09 200.023 328.238 201.1C330.215 202.09 332.766 201.974 334.303 200.245C334.601 199.91 334.063 199.472 333.767 199.804C332.318 201.432 329.899 201.284 328.152 200.264C326.328 199.2 325.144 197.386 324.066 195.61C330.073 194.166 335.978 192.295 341.716 190.002C346.112 188.245 350.409 186.241 354.583 184.004C354.973 183.796 354.726 183.145 354.333 183.356ZM317.281 192.911C315.404 191.914 313.498 190.557 312.229 188.82C311.598 187.956 311.123 186.767 311.837 185.806C312.404 185.041 313.436 184.714 314.355 184.834C316.489 185.112 318.229 187.091 319.442 188.723C320.864 190.637 321.906 192.795 322.914 194.949C320.96 194.507 319.055 193.853 317.281 192.911ZM323.811 194.653C324.229 190.525 326.01 186.471 329.468 184.028C330.204 183.508 331.362 182.665 332.312 183.05C333.435 183.504 333.137 184.989 332.731 185.828C331.83 187.692 330.369 189.321 328.86 190.71C327.286 192.159 325.554 193.418 323.811 194.653Z" fill="#AF3737"/>
<path d="M360.467 214.37C355.674 210.254 351.821 205.062 349.266 199.273C348.54 197.629 347.921 195.94 347.408 194.217C347.28 193.789 346.635 194.043 346.762 194.47C348.603 200.641 351.841 206.382 356.161 211.144C357.371 212.478 358.663 213.736 360.029 214.908C360.368 215.2 360.806 214.661 360.467 214.37Z" fill="#EA8C11"/>
<path d="M301.135 203.004C299.452 209.37 296.154 215.279 291.66 220.075C290.38 221.442 289.003 222.712 287.542 223.881C287.194 224.159 287.599 224.723 287.949 224.443C293.211 220.233 297.386 214.696 300.001 208.473C300.733 206.732 301.336 204.939 301.819 203.113C301.933 202.681 301.248 202.575 301.135 203.004Z" fill="#EA8C11"/>
<path d="M343.306 103.372V103.378C341.771 104.421 340.031 105.164 338.218 105.556C338.218 105.556 337.446 101.638 334.872 96.8696C335.423 101.423 335.678 106.001 335.678 106.001C333.264 107.17 323.003 109.301 321.746 109.626L320.754 105.769C323.168 103.345 324.743 100.105 325.067 96.5722C325.173 95.5164 325.153 94.4208 325.014 93.3119L324.644 90.4103C331.279 89.5603 331.974 82.6083 330.009 78.9762C329.83 78.6442 329.632 78.3454 329.413 78.0798C329.056 77.6349 328.633 77.283 328.176 77.0572C324.928 75.4769 323.367 78.7504 323.215 79.0891C323.202 79.0758 323.195 79.0559 323.188 79.0426C321.515 75.1515 320.337 71.0414 319.689 66.8515C319.464 65.3907 319.305 63.9233 319.212 62.4426C319.232 63.9432 319.179 65.4439 319.054 66.9312C318.835 69.5673 318.392 72.1901 317.79 74.7531C315.706 75.955 313.517 76.9576 311.248 77.7544C311.585 74.4875 311.605 71.2007 311.314 67.9272C311.168 66.3602 310.956 64.7931 310.665 63.2394C310.626 64.8396 310.553 66.4465 310.434 68.0401C310.222 71.0679 309.878 74.0891 309.395 77.0838C307.371 78.0665 293.565 82.7145 293.525 82.7411C292.963 82.1103 290.819 80.0519 288.345 82.17C285.143 84.919 286.876 95.2707 295.113 94.215L295.483 97.1034C296.026 101.34 298.308 104.932 301.503 107.276L301.496 110.835C296.403 111.539 291.163 111.154 286.228 109.699C285.534 105.974 285.375 102.163 285.745 98.3982C284.197 101.911 283.099 105.629 282.51 109.427C279.798 109.208 277.145 108.272 274.896 106.738C274.506 102.19 275.703 97.6014 277.364 93.3385C279.13 88.8432 281.419 84.5538 283.073 80.0187C285.209 74.1356 286.321 67.7479 289.834 62.5754C292.268 58.9831 295.768 56.1877 299.684 54.3019C302.78 53.3325 305.988 52.7017 309.21 52.7349H309.243C313.212 52.788 317.228 53.8969 320.35 56.3603C324.624 59.7268 326.681 65.1119 329.162 69.9657C330.392 72.3893 331.768 74.7266 333.171 77.0572C333.369 77.3892 333.574 77.7212 333.773 78.0532C335.374 80.7159 336.981 83.3652 338.417 86.1142C341.215 91.4594 343.385 97.3358 343.306 103.372Z" fill="#FA7A35"/>
<path d="M324.644 90.4103L325.014 93.312C325.153 94.4209 325.173 95.5165 325.067 96.5722C324.743 100.105 323.169 103.345 320.754 105.769C318.505 108.033 315.521 109.6 312.141 110.032C308.231 110.536 304.473 109.447 301.503 107.276C298.308 104.932 296.026 101.34 295.483 97.1034L295.113 94.215C286.877 95.2708 285.143 84.919 288.345 82.1701C290.819 80.0519 292.963 82.1103 293.525 82.7411C293.565 82.7145 307.371 78.0665 309.395 77.0838C309.878 74.0892 310.222 71.068 310.434 68.0401C310.553 66.4465 310.626 64.8397 310.665 63.2394C310.957 64.7932 311.168 66.3602 311.314 67.9273C311.605 71.2008 311.585 74.4876 311.248 77.7545C313.517 76.9577 315.706 75.955 317.79 74.7532C318.392 72.1901 318.835 69.5673 319.054 66.9313C319.179 65.4439 319.232 63.9433 319.213 62.4426C319.305 63.9233 319.464 65.3908 319.689 66.8516C320.337 71.0414 321.515 75.1516 323.188 79.0426L323.202 79.1157C323.202 79.1157 323.202 79.109 323.215 79.0957V79.0891C323.367 78.7505 324.928 75.4769 328.176 77.0573C328.633 77.283 329.056 77.6349 329.413 78.0798C329.632 78.3454 329.83 78.6442 330.009 78.9762C331.974 82.6083 331.279 89.5604 324.644 90.4103Z" fill="#FAB39B"/>
<path d="M330.214 113.63C330.201 113.69 330.187 113.756 330.174 113.816C327.872 125.058 323.169 135.795 316.48 145.091C306.365 139.088 297.269 131.346 289.721 122.296C295.887 119.766 301.483 117.528 301.483 117.528H301.49V115.961L301.497 110.835L301.503 107.276C304.473 109.447 308.231 110.536 312.141 110.031C315.521 109.6 318.505 108.033 320.754 105.769L321.746 109.626L322.964 114.268C324.082 114.188 326.9 113.962 330.214 113.63Z" fill="#FAB39B"/>
<path d="M311.714 94.1412C310.004 94.4473 308.289 94.7182 306.569 94.9619C307.077 91.1393 307.532 87.3093 307.927 83.4727C307.969 83.0684 307.34 83.0518 307.298 83.4541C306.889 87.4176 306.42 91.375 305.891 95.3245C305.861 95.5469 306.1 95.6658 306.28 95.6405C308.147 95.3822 310.008 95.0874 311.863 94.7548C312.262 94.6837 312.112 94.0702 311.714 94.1412Z" fill="#D36D29"/>
<path d="M300.168 95.8279C301.532 95.8279 302.638 94.7175 302.638 93.3478C302.638 91.9782 301.532 90.8678 300.168 90.8678C298.803 90.8678 297.697 91.9782 297.697 93.3478C297.697 94.7175 298.803 95.8279 300.168 95.8279Z" fill="#D36D29"/>
<path d="M319.866 93.2953C321.23 93.2953 322.337 92.1849 322.337 90.8152C322.337 89.4456 321.23 88.3352 319.866 88.3352C318.501 88.3352 317.395 89.4456 317.395 90.8152C317.395 92.1849 318.501 93.2953 319.866 93.2953Z" fill="#D36D29"/>
<path d="M301.69 88.6738C302.66 88.5491 303.322 87.4733 303.169 86.2712C303.015 85.069 302.104 84.1956 301.134 84.3203C300.164 84.4451 299.502 85.5208 299.655 86.723C299.809 87.9252 300.72 88.7986 301.69 88.6738Z" fill="#36344C"/>
<path d="M315.067 87.439C316.037 87.3142 316.699 86.2385 316.545 85.0363C316.392 83.8341 315.481 82.9607 314.511 83.0855C313.541 83.2103 312.879 84.286 313.032 85.4881C313.186 86.6903 314.097 87.5637 315.067 87.439Z" fill="#36344C"/>
<path d="M302.641 81.2317C302.476 80.9568 302.225 80.7118 301.907 80.6288C301.796 80.6102 301.685 80.5923 301.574 80.5737C301.347 80.5677 301.134 80.6189 300.935 80.7271L298.251 81.8194C297.978 81.9303 297.733 82.2875 297.651 82.5564C297.559 82.8559 297.585 83.2596 297.749 83.5332C297.915 83.8081 298.165 84.0531 298.484 84.1361C298.595 84.1547 298.706 84.1726 298.816 84.1912C299.043 84.1972 299.257 84.146 299.456 84.0378L302.139 82.9455C302.412 82.8346 302.657 82.4774 302.74 82.2085C302.831 81.909 302.806 81.5053 302.641 81.2317Z" fill="#36344C"/>
<path d="M311.861 80.0466C311.951 79.7391 312.132 79.4383 312.42 79.2776C312.523 79.2318 312.626 79.186 312.728 79.1402C312.947 79.0771 313.166 79.0725 313.386 79.1269L316.257 79.5047C316.549 79.5433 316.876 79.8268 317.023 80.0665C317.187 80.3334 317.264 80.7305 317.173 81.0366C317.083 81.344 316.901 81.6448 316.614 81.8055C316.511 81.8513 316.408 81.8971 316.305 81.9429C316.087 82.006 315.868 82.0107 315.648 81.9562L312.777 81.5784C312.484 81.5399 312.158 81.257 312.011 81.0167C311.847 80.7497 311.771 80.3527 311.861 80.0466Z" fill="#36344C"/>
<path d="M320.751 105.771C320.751 105.771 319.291 115.496 301.491 115.96L301.498 110.832L301.504 107.276C304.472 109.446 308.233 110.534 312.139 110.029C315.523 109.598 318.504 108.033 320.751 105.771Z" fill="#D36D29"/>
<path d="M323.191 113.788C320.234 119.175 316.978 124.392 313.447 129.42C309.177 125.419 305.11 121.205 301.269 116.787C300.991 116.468 300.454 116.855 300.734 117.177C304.691 121.729 308.882 126.071 313.29 130.184C313.414 130.3 313.657 130.277 313.755 130.137C317.399 124.973 320.751 119.606 323.793 114.063C323.998 113.688 323.394 113.417 323.191 113.788Z" fill="#36344C"/>
<path d="M313.816 134.864C315.305 134.864 316.511 133.653 316.511 132.159C316.511 130.665 315.305 129.453 313.816 129.453C312.328 129.453 311.121 130.665 311.121 132.159C311.121 133.653 312.328 134.864 313.816 134.864Z" fill="#AF3737"/>
<path d="M317.122 100.443C316.176 102.03 314.403 102.933 312.564 102.781C310.917 102.641 308.899 101.366 309.369 99.4406C309.561 98.6305 310.249 98.0329 311.023 97.7939C311.704 97.5814 312.405 97.6345 313.087 97.8005C313.285 97.2627 313.556 96.7514 313.986 96.353C314.668 95.7089 315.687 95.3902 316.553 95.8616C318.214 96.7647 317.956 99.0555 317.122 100.443Z" fill="#F4E9DC"/>
<path d="M361.986 127.754C361.425 129.938 360.149 132.358 358.113 133.492C357.191 134 355.978 133.902 355.639 132.748C355.286 131.552 356.166 130.349 356.533 129.264C357.302 127.025 357.454 124.59 357.018 122.268C356.193 124.486 355.355 126.698 354.364 128.847C353.858 129.945 353.311 131.023 352.708 132.074C352.175 133.012 351.628 134.09 350.768 134.772C350.027 135.363 348.925 135.565 348.143 134.939C347.345 134.292 347.235 133.165 347.429 132.22C347.658 131.086 348.087 129.967 348.468 128.868C348.184 129.487 347.9 130.105 347.616 130.724C347.131 131.775 346.722 133.04 345.849 133.833C345.156 134.473 344.013 134.744 343.237 134.104C342.392 133.409 342.406 132.108 342.496 131.121C342.607 129.765 343.043 128.457 343.459 127.177C343.882 125.89 344.325 124.611 344.782 123.339C345.246 122.038 345.724 120.752 346.21 119.458C345.322 120.988 344.443 122.518 343.556 124.048C342.842 125.286 342.122 126.531 341.408 127.776C340.881 128.673 340.389 129.766 339.399 130.238C338.512 130.669 337.452 130.426 337.009 129.501C336.566 128.576 336.773 127.408 336.925 126.434C337.535 122.547 339.309 118.979 341.533 115.752C340.813 115.544 340.092 115.328 339.378 115.12C339.136 115.509 338.872 115.885 338.568 116.225C337.799 117.074 336.836 117.748 335.769 118.159C334.938 118.485 333.767 118.694 333.081 117.971C332.297 117.144 332.88 115.752 333.15 114.82C333.469 113.743 333.898 112.65 334.682 111.823C335.527 110.926 336.663 110.509 337.834 110.231C339.213 109.904 340.613 109.646 342.013 109.424C344.826 108.965 347.763 108.763 350.542 109.542C353.127 110.265 355.419 111.733 357.581 113.29C358.607 114.035 359.612 114.848 360.38 115.863C361.164 116.9 361.607 118.116 361.891 119.375C362.485 122.065 362.672 125.062 361.986 127.754Z" fill="#B47C53"/>
<path d="M352.507 116.094L348.248 128.653C348.106 129.073 348.736 129.364 348.88 128.94L353.138 116.381C353.281 115.961 352.65 115.67 352.507 116.094Z" fill="#8C442B"/>
<path d="M357.178 118.28C357.037 119.507 356.895 120.734 356.754 121.96C356.703 122.404 357.387 122.515 357.438 122.069C357.579 120.843 357.721 119.616 357.862 118.389C357.913 117.946 357.229 117.835 357.178 118.28Z" fill="#8C442B"/>
<path d="M348.739 114.885C348.608 114.776 348.353 114.774 348.252 114.934C347.361 116.336 346.598 117.812 345.982 119.356C345.816 119.771 346.447 120.059 346.613 119.644C347.206 118.158 347.931 116.725 348.788 115.375C348.889 115.215 348.896 115.013 348.739 114.885Z" fill="#8C442B"/>
<path d="M343.582 113.868C343.526 113.798 343.448 113.739 343.356 113.729C343.27 113.719 343.164 113.731 343.098 113.792C342.713 114.147 342.328 114.502 341.943 114.857C341.873 114.922 341.82 114.985 341.805 115.084C341.792 115.168 341.813 115.274 341.867 115.343C341.923 115.413 342.002 115.472 342.094 115.482C342.179 115.492 342.285 115.48 342.352 115.419C342.737 115.064 343.121 114.709 343.506 114.354C343.576 114.289 343.629 114.226 343.644 114.127C343.657 114.043 343.636 113.936 343.582 113.868Z" fill="#8C442B"/>
</g>
<defs>
<clipPath id="clip0_4172_191948">
<rect width="430" height="332" fill="white"/>
</clipPath>
</defs>
</svg>
