<svg width="287" height="287" viewBox="0 0 287 287" fill="none" xmlns="http://www.w3.org/2000/svg">
<path d="M245.786 245.459C232.743 235.55 210.437 210.962 239.812 172.363C276.137 124.63 232.634 105.047 190.936 107.091C157.389 108.735 119.634 66.5611 81.9725 74.0989C31.984 84.1037 64.442 127.151 30.5484 150.344C1.64234 170.122 14.0528 230.389 51.6728 245.459H245.786Z" fill="#DCEDF9"/>
<path d="M269.326 157.926C269.124 150.848 262.53 148.102 258.13 153.227C255.605 156.166 253.198 160.383 252.748 166.022C251.74 178.642 262.781 174.985 266.906 168.228C268.666 165.346 269.427 161.504 269.326 157.926Z" fill="#DCEDF9"/>
<path d="M147.834 71.5991C140.876 70.2823 136.784 76.1366 140.849 81.5316C143.181 84.6266 146.786 87.8795 152.199 89.5246C164.311 93.2068 163.099 81.6395 157.381 76.1653C154.941 73.8297 151.351 72.2644 147.834 71.5991Z" fill="#DCEDF9"/>
<path d="M32.8404 136.451C35.6243 129.94 30.7884 124.684 24.6449 127.492C21.1205 129.102 17.168 131.922 14.3955 136.854C8.19174 147.889 19.7481 149.196 26.3261 144.791C29.1313 142.912 31.433 139.742 32.8404 136.451Z" fill="#DCEDF9"/>
<path d="M143.711 255.239C209.573 255.239 262.965 251.724 262.965 247.388C262.965 243.053 209.573 239.538 143.711 239.538C77.8485 239.538 24.4565 243.053 24.4565 247.388C24.4565 251.724 77.8485 255.239 143.711 255.239Z" fill="#DCEDF9"/>
<path d="M259.752 182.982C252.45 190.281 260.594 190.899 255.237 196.411C250.353 201.436 243.147 196.545 243.627 208.817C243.732 211.501 241.778 213.493 239.038 214.513C234.528 216.191 230.116 214.639 227.399 211.554C227.178 211.306 226.968 211.045 226.771 210.775C224.709 207.96 223.957 204.146 225.485 200.366C226.725 197.298 228.92 194.281 232.811 193.078C241.94 190.256 236.873 178.166 244.589 177.635C253.895 176.994 254.228 173.581 260.833 168.981C267.834 164.102 269.647 173.09 259.752 182.982Z" fill="#0077EB"/>
<path d="M256.478 178.993C256.274 179.204 239.344 196.659 227.398 211.554C227.177 211.305 226.967 211.044 226.771 210.774C238.748 195.871 255.573 178.522 255.778 178.312C255.966 178.119 256.275 178.115 256.468 178.302C256.662 178.491 256.666 178.8 256.478 178.993Z" fill="#0059D3"/>
<path d="M261.626 207.347C250.187 214.081 260.125 217.474 251.682 222.61C243.985 227.292 236.59 218.884 233.236 234.314C232.502 237.689 229.429 239.539 225.689 239.926C219.535 240.562 214.543 237.21 212.154 232.495C211.958 232.114 211.781 231.722 211.623 231.322C209.963 227.155 210.254 222.165 213.374 217.951C215.905 214.533 219.61 211.483 224.841 211.239C237.113 210.667 234.699 193.984 244.475 195.809C256.264 198.008 257.779 193.868 267.481 190.267C277.766 186.45 277.129 198.222 261.626 207.347Z" fill="#6B93F6"/>
<path d="M258.835 201.329C258.514 201.526 231.818 217.801 212.153 232.495C211.958 232.115 211.78 231.723 211.623 231.323C231.331 216.629 257.86 200.452 258.183 200.256C258.479 200.076 258.866 200.17 259.046 200.467C259.226 200.763 259.132 201.149 258.835 201.329Z" fill="#0077EB"/>
<path d="M38.5305 99.5983C42.4555 109.147 34.7019 106.58 37.5208 113.731C40.0912 120.249 48.6249 118.513 43.4537 129.652C42.3223 132.088 43.3578 134.679 45.4937 136.676C49.0083 139.963 53.6778 140.231 57.3743 138.431C57.674 138.287 57.9684 138.127 58.2543 137.954C61.242 136.151 63.4059 132.922 63.4524 128.844C63.4903 125.536 62.627 121.905 59.4999 119.296C52.163 113.175 61.4985 103.97 54.5824 100.507C46.2422 96.3299 47.2496 93.0518 42.9285 86.2614C38.348 79.0628 33.2107 86.6574 38.5305 99.5983Z" fill="#0077EB"/>
<path d="M43.0881 97.18C43.1954 97.4527 52.0912 120.084 57.3738 138.432C57.6734 138.288 57.9679 138.127 58.2537 137.954C52.9442 119.586 44.1046 97.0945 43.9967 96.8213C43.898 96.5704 43.6138 96.4476 43.363 96.5463C43.1122 96.645 42.9888 96.9286 43.0881 97.18Z" fill="#0059D3"/>
<path d="M27.3533 124.541C35.631 134.918 25.136 134.535 31.1871 142.35C36.7027 149.473 46.6139 144.262 44.2335 159.872C43.7129 163.286 45.9222 166.112 49.2767 167.811C54.7969 170.604 60.6574 169.257 64.5738 165.706C64.8918 165.421 65.1977 165.117 65.4882 164.801C68.5287 161.502 70.0389 156.737 68.6308 151.687C67.4886 147.59 65.1174 143.418 60.3193 141.321C49.062 136.401 57.2777 121.683 47.495 119.894C35.6982 117.735 35.763 113.327 27.9876 106.497C19.7461 99.2555 16.1345 110.478 27.3533 124.541Z" fill="#6B93F6"/>
<path d="M32.1101 119.917C32.3403 120.215 51.4574 144.955 64.5739 165.706C64.8919 165.42 65.1978 165.117 65.4883 164.8C52.331 144.034 33.3345 119.445 33.1026 119.147C32.8902 118.873 32.4959 118.823 32.2215 119.036C31.9477 119.248 31.8978 119.643 32.1101 119.917Z" fill="#0077EB"/>
<path d="M83.1848 115.507C86.5198 113.224 94.8715 118.857 99.2385 125.696L95.364 114.843C93.9617 113.626 91.5073 111.92 87.6706 110.561C81.7051 108.446 75.7251 105.134 79.0664 102.846C82.197 100.702 89.7497 105.536 94.2762 111.795L89.3008 97.8569C88.3755 97.1451 86.9663 96.2801 84.9533 95.5666C81.1936 94.2338 77.4253 92.1467 79.5307 90.7048C81.3578 89.4535 85.575 91.9734 88.4542 95.4851L86.8418 90.9677C86.1042 89.6555 85.0555 87.7797 83.4024 86.0698C79.5721 82.1069 76.6757 77.6486 79.63 77.0029C82.5867 76.3565 87.4255 84.1222 88.1872 91.1382L89.0172 93.4629C88.3732 88.3595 90.2077 82.1809 92.766 81.9622C95.3083 81.7447 93.7137 85.7466 91.6479 89.159C90.0751 91.7564 89.6412 93.8176 89.5247 94.8841L93.4439 105.864C92.4463 97.7794 95.3525 88.03 99.4009 87.6839C103.435 87.3389 100.905 93.689 97.6267 99.103C95.1493 103.194 94.4513 106.449 94.2607 108.152L98.9606 121.318C98.1272 113.33 100.985 103.634 104.97 103.602C108.043 103.578 107.102 107.916 103.432 114.041C100.938 118.203 100.14 121.941 99.8854 123.908L102.099 130.11C101.728 130.372 101.343 130.509 100.959 130.517L100.078 128.049C98.8338 126.846 96.2422 124.8 91.7885 123.222C85.8235 121.107 79.8442 117.795 83.1848 115.507Z" fill="#6B93F6"/>
<path d="M53.8433 207.489C50.4223 209.641 52.2706 219.544 56.8103 226.27L48.3915 218.4C47.833 216.63 47.2429 213.699 47.5201 209.639C47.9512 203.324 47.2894 196.52 43.862 198.676C40.6505 200.697 42.0832 209.549 46.0272 216.19L35.2159 206.084C34.9306 204.951 34.697 203.315 34.8428 201.184C35.1148 197.205 34.697 192.917 32.5376 194.276C30.6629 195.455 31.2989 200.326 33.3768 204.364L29.8725 201.089C28.9616 199.89 27.6574 198.183 26.7453 195.986C24.6313 190.895 21.6924 186.466 19.9251 188.92C18.1566 191.376 23.3587 198.903 29.4937 202.391L31.2966 204.076C26.8699 201.456 20.4715 200.684 19.2535 202.944C18.0435 205.191 22.3491 205.318 26.3016 204.779C29.3106 204.369 31.3741 204.79 32.3987 205.106L40.9157 213.069C33.8939 208.94 23.7927 207.731 21.8658 211.308C19.9457 214.872 26.7781 215.075 33.049 214.219C37.7885 213.572 41.0517 214.226 42.6899 214.728L52.9025 224.274C45.9032 220.333 35.8708 219.102 34.2573 222.746C33.0134 225.556 37.3684 226.417 44.4469 225.485C49.2576 224.85 53.0041 225.604 54.9115 226.153L59.7222 230.649C60.1102 230.413 60.3898 230.114 60.5488 229.765L58.6345 227.976C58.0249 226.356 57.1783 223.164 57.5003 218.451C57.9325 212.136 57.2707 205.333 53.8433 207.489Z" fill="#6B93F6"/>
<path d="M226.493 118.757H43.9067V244.88H226.493V118.757Z" fill="#FFAA01"/>
<path d="M226.487 118.761V126.847L135.2 207.758L43.9072 126.847V118.761L135.194 199.95L226.487 118.761Z" fill="#F88800"/>
<path d="M117.609 184.028L49.195 244.88H43.9067V241.665L113.677 179.609L117.609 184.028Z" fill="#F88800"/>
<path d="M226.493 242.092V244.88H220.726L152.311 184.028L156.244 179.609L226.493 242.092Z" fill="#F88800"/>
<path d="M43.9014 118.755L135.194 199.949L226.487 118.755H43.9014Z" fill="#FDCC50"/>
<path d="M176.119 107.397L178.449 112.382L173.523 112.459L171.624 107.922L176.119 107.397Z" fill="#FCC63A"/>
<path d="M176.898 112.071C176.898 112.071 177.91 110.712 178.713 110.77C179.517 110.828 185.714 115.756 187.837 116.162C189.961 116.569 189.764 118.732 188.875 118.732C186.316 118.732 172.195 118.756 172.195 118.756C172.195 118.756 171.768 113.704 172.308 112.198C172.849 110.691 175.238 112.427 176.898 112.071Z" fill="#6B93F6"/>
<path d="M180.324 115.509C180.249 115.531 180.165 115.525 180.092 115.483C179.949 115.401 179.899 115.22 179.98 115.077C180.007 115.03 180.656 113.904 181.529 113.464C182.69 112.877 183.595 113.534 183.634 113.562C183.766 113.66 183.793 113.846 183.695 113.978C183.598 114.11 183.411 114.138 183.279 114.04C183.254 114.022 182.624 113.579 181.797 113.995C181.086 114.354 180.503 115.363 180.497 115.372C180.457 115.441 180.394 115.488 180.324 115.509Z" fill="white"/>
<path d="M179.437 114.672C179.363 114.694 179.278 114.687 179.205 114.645C179.062 114.564 179.013 114.382 179.094 114.239C179.121 114.192 179.769 113.066 180.642 112.626C181.804 112.039 182.709 112.695 182.747 112.724C182.879 112.822 182.907 113.008 182.808 113.14C182.711 113.272 182.524 113.3 182.392 113.201C182.368 113.183 181.737 112.741 180.91 113.157C180.196 113.517 179.617 114.523 179.611 114.534C179.571 114.603 179.508 114.65 179.437 114.672Z" fill="white"/>
<path d="M181.526 116.189C181.451 116.211 181.367 116.204 181.293 116.162C181.15 116.081 181.101 115.899 181.182 115.756C181.209 115.709 181.858 114.583 182.731 114.142C183.892 113.555 184.797 114.212 184.835 114.24C184.967 114.338 184.994 114.525 184.897 114.657C184.799 114.788 184.613 114.816 184.481 114.718C184.456 114.7 183.825 114.258 182.999 114.674C182.285 115.034 181.705 116.041 181.7 116.051C181.66 116.12 181.596 116.167 181.526 116.189Z" fill="white"/>
<path d="M177.523 109.022L175.341 109.734L174.128 109.806L172.043 109.928C169.289 107.75 161.858 101.194 160.41 97.3286C160.41 97.3286 150.85 119.561 137.631 119.561C136.774 119.561 139.04 108.498 141.195 106.197C141.195 106.197 153.378 83.4906 161.277 85.9008C164.814 86.9799 168.392 92.1293 177.523 109.022Z" fill="#2E3052"/>
<path d="M175.34 109.734L174.128 109.806C166.019 103.667 162.263 98.4673 160.534 95.137C160.474 95.021 160.377 94.9837 160.311 94.9854C160.255 94.9872 160.214 95.0181 160.188 95.0842C156.305 104.224 151.646 109.709 148.42 112.703C144.905 115.965 142.334 117.04 142.228 117.085L142.079 116.722L141.93 116.36C141.955 116.349 144.506 115.277 147.926 112.094C151.084 109.155 155.65 103.765 159.468 94.7765C159.613 94.4304 159.918 94.2163 160.282 94.2019C160.672 94.1864 161.039 94.4114 161.228 94.7748C162.972 98.1338 166.835 103.44 175.34 109.734Z" fill="#001030"/>
<path d="M169.857 108.441C170.204 109.09 170.8 110.006 171.37 110.45C171.37 110.45 176.039 110.234 178.31 109.093L177.291 106.72C177.291 106.72 173.574 108.076 169.857 108.441Z" fill="#524E84"/>
<path d="M175.967 76.5694C169.328 79.2735 164.021 80.6333 159.505 81.1929C159.505 81.1929 159.502 81.1912 159.496 81.1912C159.438 81.1929 158.375 81.279 157.966 81.263C156.75 81.2211 155.103 80.945 153.434 80.1661C152.246 79.611 150.548 78.1766 148.772 76.4666C146.572 74.3445 144.253 71.7989 142.649 69.9793C141.401 68.5661 140.585 67.5914 140.585 67.5914C141.692 65.9441 144.144 64.4453 146.278 63.644C146.278 63.644 150.732 71.0596 157.478 74.701C157.846 74.9008 158.22 75.0862 158.601 75.2578C160.138 75.0087 164.297 74.8193 166.1 74.6907C170.987 74.3428 174.978 73.4956 174.978 73.4956L175.967 76.5694Z" fill="#0077EB"/>
<path d="M174.81 73.2512C174.81 73.2512 175.734 70.9162 176.992 70.2492C178.25 69.5827 181.83 67.2362 182.594 67.9382C183.358 68.6402 183.2 72.0125 179.99 74.8308C177.946 76.6263 175.887 76.55 175.887 76.55L174.81 73.2512Z" fill="#FCC63A"/>
<path d="M182.823 70.0834L177.539 75.0198C177.341 75.2064 176.982 75.2603 176.737 75.1415L173.498 73.5762C173.398 73.5268 173.332 73.4568 173.304 73.377L173.296 73.3512L173.137 72.8099L173.996 72.4845L182.309 69.3269L182.76 69.157L182.929 69.7287L182.942 69.7683C182.944 69.7729 182.945 69.7769 182.943 69.7826C182.963 69.8825 182.923 69.9916 182.823 70.0834Z" fill="#001030"/>
<path d="M182.31 69.3263L173.997 72.4838L178.698 68.0904C178.896 67.9056 179.256 67.8505 179.499 67.9682L182.31 69.3263Z" fill="#1F2232"/>
<path d="M176.576 74.5926L173.336 73.0262C173.092 72.9079 173.054 72.6623 173.252 72.4774L178.537 67.541C178.735 67.3562 179.093 67.3017 179.337 67.4199L182.577 68.9864C182.821 69.1046 182.859 69.3503 182.66 69.5351L177.377 74.4715C177.178 74.6564 176.82 74.7103 176.576 74.5926Z" fill="#2E3052"/>
<path d="M176.969 73.7081L174.459 72.4946C174.214 72.3764 174.177 72.1307 174.375 71.9459L178.484 68.107C178.682 67.9221 179.041 67.8676 179.285 67.9859L181.795 69.1999C182.039 69.3181 182.077 69.5638 181.879 69.7486L177.769 73.5875C177.571 73.7718 177.213 73.8257 176.969 73.7081Z" fill="#2E3052"/>
<path d="M182.947 69.7814L182.944 69.7826C182.946 69.7772 182.945 69.7724 182.942 69.7676L182.947 69.7814Z" fill="#1F2232"/>
<path d="M176.902 69.0679C176.902 69.0679 177.655 69.1856 177.731 69.8325C177.808 70.4799 177.108 70.2222 176.658 70.0799C176.208 69.9375 175.802 70.0804 175.74 70.1533C175.543 70.3852 175.577 68.8762 176.902 69.0679Z" fill="#FCC63A"/>
<path d="M180.267 72.5818C180.267 72.5818 181.448 70.6406 182.353 69.5804C182.956 68.8738 183.264 69.8984 182.851 70.613C182.438 71.3276 181.624 72.7827 180.267 72.5818Z" fill="#FCC63A"/>
<path d="M125.241 107.576L122.624 90.7023L122.469 89.7024L122.487 88.9488L123.07 65.0445L129.702 62.8031L130.057 62.682L131.547 62.1774L132.727 61.7791L139.73 62.7428L140.869 62.8995L141.271 62.9546L146.281 63.644C146.327 79.491 144.806 82.9149 147.734 95.8058C149.208 100.668 143.8 117.888 125.241 107.576Z" fill="#6B93F6"/>
<path d="M128.969 103.259L128.971 103.259C134.214 101.794 138.04 98.1753 140.325 95.3972C142.798 92.3923 144.054 89.6904 144.066 89.6635C144.127 89.532 144.069 89.3765 143.938 89.3162C143.806 89.2559 143.651 89.3133 143.59 89.4442C143.578 89.4706 142.344 92.1213 139.912 95.0751C137.675 97.7913 133.937 101.328 128.829 102.754C128.69 102.793 128.608 102.937 128.647 103.077C128.686 103.216 128.831 103.297 128.969 103.259Z" fill="#0077EB"/>
<path d="M134.931 103.541C139.486 102.29 143.317 98.4474 143.491 98.2712C143.592 98.1679 143.591 98.002 143.488 97.9004C143.385 97.7988 143.219 97.8005 143.117 97.9033C143.073 97.9486 138.565 102.469 133.691 103.28C133.545 103.303 133.451 103.439 133.475 103.581C133.499 103.724 133.634 103.821 133.777 103.797C134.165 103.732 134.551 103.646 134.931 103.541Z" fill="#0077EB"/>
<path d="M131.706 69.8339C136.259 68.5717 140.079 64.719 140.253 64.5422C140.354 64.4389 140.353 64.273 140.249 64.1714C140.146 64.0704 139.98 64.0721 139.879 64.1748C139.834 64.2202 135.338 68.7519 130.466 69.575C130.321 69.598 130.227 69.7346 130.251 69.8769C130.275 70.0199 130.41 70.1157 130.553 70.0916C130.941 70.0262 131.326 69.9389 131.706 69.8339Z" fill="#0077EB"/>
<path d="M171.658 151.249L173.491 155.33L169.731 156.947L167.544 152.731L171.658 151.249Z" fill="#FCC63A"/>
<path d="M172.67 155.243C172.67 155.243 173.055 153.593 173.815 153.326C174.575 153.058 182.224 155.101 184.333 154.625C186.443 154.151 186.689 155.748 186.651 156.636C186.613 157.524 171.003 163.124 171.003 163.124C171.003 163.124 168.619 158.79 168.513 157.192C168.406 155.596 171.29 156.233 172.67 155.243Z" fill="#6B93F6"/>
<path d="M177.183 157.027C177.124 157.077 177.044 157.104 176.96 157.096C176.796 157.078 176.678 156.932 176.696 156.768C176.701 156.714 176.846 155.422 177.47 154.671C178.3 153.669 179.393 153.909 179.439 153.92C179.599 153.956 179.699 154.117 179.661 154.277C179.625 154.437 179.465 154.536 179.304 154.499C179.275 154.493 178.52 154.339 177.928 155.05C177.419 155.663 177.288 156.82 177.287 156.832C177.279 156.911 177.24 156.979 177.183 157.027Z" fill="white"/>
<path d="M176.036 156.613C175.977 156.664 175.897 156.691 175.813 156.681C175.65 156.664 175.531 156.517 175.549 156.354C175.554 156.299 175.699 155.008 176.323 154.256C177.155 153.253 178.246 153.494 178.292 153.505C178.452 153.542 178.552 153.702 178.514 153.862C178.478 154.022 178.318 154.122 178.157 154.084C178.128 154.078 177.373 153.924 176.781 154.636C176.27 155.251 176.141 156.405 176.14 156.417C176.132 156.497 176.093 156.565 176.036 156.613Z" fill="white"/>
<path d="M178.557 157.17C178.497 157.221 178.418 157.248 178.333 157.239C178.17 157.222 178.051 157.075 178.069 156.912C178.075 156.858 178.22 155.566 178.844 154.814C179.675 153.812 180.766 154.053 180.813 154.063C180.973 154.1 181.072 154.26 181.035 154.42C180.998 154.58 180.838 154.68 180.678 154.643C180.648 154.636 179.893 154.482 179.302 155.194C178.791 155.81 178.662 156.964 178.66 156.975C178.652 157.054 178.613 157.123 178.557 157.17Z" fill="white"/>
<path d="M172.604 152.04C172.215 152.482 171.011 153.154 169.7 153.741C169.462 153.849 169.218 153.952 168.977 154.053C168.551 154.228 168.128 154.387 167.731 154.524C167.731 154.524 158.812 138.085 155.389 126.164C155.389 126.164 125.2 122.436 124.155 111.863C124.118 111.509 124.117 111.148 124.15 110.777C124.24 109.769 124.589 108.705 125.241 107.578C125.929 106.392 136.261 107.548 141.844 109.115C141.844 109.115 156.978 115.01 162.573 121.084C165.405 124.157 172.604 152.04 172.604 152.04Z" fill="#2E3052"/>
<path d="M169.7 153.741C169.462 153.849 169.218 153.952 168.976 154.053C164.466 146.587 158.203 129.147 156.807 124.96C156.713 124.677 156.471 124.466 156.173 124.409C141.506 121.652 133.055 117.805 128.548 115.063C126.562 113.855 125.144 112.753 124.155 111.862C124.119 111.509 124.118 111.147 124.151 110.776C125.11 111.714 126.659 113.006 129.044 114.448C133.494 117.138 141.837 120.917 156.32 123.641C156.896 123.749 157.367 124.16 157.552 124.713C158.946 128.902 165.235 146.421 169.7 153.741Z" fill="#001030"/>
<path d="M166.12 152.801L167.544 155.078C167.544 155.078 171.091 154.465 173.491 152.039L172.604 150.005C172.604 150.005 168.29 152.131 166.12 152.801Z" fill="#524E84"/>
<path d="M118.072 113.818C118.072 113.818 120.126 116.603 119.957 118.045C119.788 119.487 117.927 122.203 116.44 122.334C114.953 122.465 118.149 118.843 117.395 118.961C116.482 119.102 110.32 124.158 109.02 124.158C107.719 124.158 110.55 121.808 111.652 121.214C111.652 121.214 108.737 122.518 108.059 123.196C107.38 123.875 106.888 122.419 110.279 120.356C110.279 120.356 107.168 122.122 106.956 122.15C106.264 122.243 108.238 119.928 109.938 119.09C109.938 119.09 107.444 120.305 107.191 120.31C106.84 120.317 107.593 119.501 109.444 118.476C111.109 117.553 113.838 113.315 113.838 113.315L118.072 113.818Z" fill="#FCC63A"/>
<path d="M123.069 65.0447C123.069 65.0447 116.154 78.3265 114.58 92.2184L113.838 113.313C113.838 113.313 114.549 114.817 118.073 113.817L121.481 92.7253L124.093 83.0746C124.093 83.0746 125.279 71.198 123.069 65.0447Z" fill="#0077EB"/>
<path d="M144.308 50.6836C143.573 54.8388 139.609 57.6123 135.454 56.8776C131.299 56.1429 128.525 52.1789 129.26 48.0237C129.995 43.8685 133.959 41.0949 138.114 41.8296C142.269 42.5644 145.042 46.5284 144.308 50.6836Z" fill="#2E3052"/>
<path d="M144.423 49.313C144.423 49.313 146.658 49.1018 146.743 46.9837C146.815 45.1813 144.545 45.9568 144.97 44.6137C145.395 43.2699 146.02 42.0909 144.302 41.4325C142.798 40.8568 142.584 41.9187 140.813 40.0096C138.722 37.7544 136.119 41.6599 133.941 41.4061C130.729 41.0319 130.01 42.7585 129.443 44.1413C128.876 45.524 129.922 46.7489 129.922 46.7489L144.423 49.313Z" fill="#2E3052"/>
<path d="M142.671 52.5658C142.671 52.5658 144.144 51.187 144.798 52.6582C145.452 54.1288 143.513 57.7886 141.511 56.4575L142.671 52.5658Z" fill="#E4794A"/>
<path d="M142.197 55.3417C142.277 55.3561 142.36 55.3159 142.397 55.239C142.945 54.1002 144.272 53.8338 144.285 53.8315C144.386 53.812 144.452 53.715 144.434 53.614C144.415 53.513 144.317 53.4469 144.217 53.4659C144.155 53.4774 142.693 53.7667 142.062 55.0783C142.018 55.1707 142.056 55.282 142.149 55.3268C142.164 55.3337 142.18 55.3388 142.197 55.3417Z" fill="#FD664D"/>
<path d="M143.556 54.9599C143.59 54.9662 143.626 54.9628 143.66 54.9484C143.755 54.9088 143.8 54.7998 143.76 54.7051C143.753 54.689 143.593 54.3153 143.17 54.0283C143.086 53.9703 142.969 53.9927 142.911 54.0783C142.854 54.1632 142.876 54.2792 142.961 54.3371C143.288 54.5587 143.415 54.8463 143.416 54.8491C143.442 54.9088 143.496 54.949 143.556 54.9599Z" fill="#FD664D"/>
<path d="M132.743 58.3025L132.061 62.1621C132.061 62.1621 133.347 64.1435 134.879 64.5528C136.41 64.9632 137.683 63.2831 137.683 63.2831L138.339 59.5716L132.743 58.3025Z" fill="#FCC63A"/>
<path d="M132.743 58.3025L132.44 60.0147C133.28 61.3585 135.084 61.9761 137.9 62.0559L138.339 59.5716L132.743 58.3025Z" fill="#E4794A"/>
<path d="M130.426 47.6708C130.233 49.1833 130.044 51.0844 130.065 52.6347C130.07 53.0216 130.089 53.3878 130.123 53.719C130.432 56.7067 131.602 61.9427 137.649 60.917C140.319 60.4647 141.978 57.8719 143 55.1184C143.694 53.2484 144.092 51.3048 144.314 49.9048C144.538 48.4755 143.99 47.0359 142.875 46.1147C139.854 43.6178 136.186 43.7016 133.696 44.1855C131.966 44.5207 130.649 45.927 130.426 47.6708Z" fill="#FCC63A"/>
<path d="M139.723 52.5641C139.65 52.9762 139.804 53.3476 140.065 53.3941C140.327 53.4406 140.599 53.1438 140.671 52.7323C140.744 52.3201 140.591 51.9488 140.329 51.9023C140.067 51.8558 139.796 52.152 139.723 52.5641Z" fill="#2E3052"/>
<path d="M134.17 51.5826C134.097 51.9947 134.25 52.3661 134.512 52.4126C134.774 52.4591 135.045 52.1624 135.118 51.7502C135.191 51.3381 135.038 50.9667 134.776 50.9202C134.514 50.8743 134.242 51.1705 134.17 51.5826Z" fill="#2E3052"/>
<path d="M142.145 50.6298C142.145 50.6298 140.309 49.5008 138.672 49.8888L138.675 50.6172C138.675 50.6172 140.386 50.5409 141.892 51.4265C142.05 51.1189 142.215 50.9869 142.145 50.6298Z" fill="#2E3052"/>
<path d="M133.111 49.0329C133.111 49.0329 135.223 48.6018 136.627 49.5271L136.376 50.2102C136.376 50.2102 134.794 49.5518 133.076 49.8681C133.033 49.5248 132.924 49.3446 133.111 49.0329Z" fill="#2E3052"/>
<path d="M136.576 55.0352C136.267 54.9807 135.982 54.8062 135.938 54.7781C135.851 54.7229 135.825 54.6081 135.88 54.5215C135.934 54.4342 136.05 54.4084 136.136 54.4629C136.29 54.5594 136.669 54.735 136.859 54.6627C136.896 54.6483 136.948 54.6173 136.98 54.5077C137.16 53.8792 137.363 51.702 137.366 51.6802C137.375 51.578 137.466 51.5028 137.568 51.512C137.671 51.5212 137.746 51.6119 137.737 51.7146C137.728 51.8059 137.527 53.9486 137.338 54.6099C137.267 54.859 137.111 54.9652 136.993 55.0105C136.862 55.0599 136.717 55.0599 136.576 55.0352Z" fill="#E4794A"/>
<path d="M138.685 56.5649C138.402 57.2921 137.659 58.5917 135.981 58.2949C134.299 57.9976 134.051 56.6464 134.043 55.7446L138.685 56.5649Z" fill="white"/>
<path d="M135.834 59.2558C135.36 59.172 135 58.8603 134.985 58.8471C134.907 58.7794 134.9 58.6617 134.968 58.5842C135.035 58.5067 135.153 58.4993 135.231 58.567C135.233 58.5693 135.53 58.8236 135.899 58.889C136.238 58.9487 136.598 58.8115 136.601 58.8104C136.697 58.7725 136.805 58.819 136.843 58.9148C136.881 59.0101 136.834 59.1186 136.738 59.1565C136.72 59.164 136.282 59.335 135.834 59.2558Z" fill="#E4794A"/>
<path d="M142.644 53.8224C142.916 53.0905 143.226 52.1388 143.215 51.6211C143.193 50.7044 142.552 50.054 142.947 49.2436C143.343 48.4296 142.602 47.3528 141.964 47.083C141.327 46.8115 139.717 46.8678 138.317 45.8725C136.98 44.9213 134.357 44.969 133.779 45.8317C133.078 46.877 133.74 47.1043 132.159 48.0887C131.529 48.4813 131.95 49.864 131.896 50.7055C131.87 51.0924 131.844 51.279 131.756 51.6842L131.715 51.8903L130.082 51.6015C130.128 50.29 130.274 48.8607 130.427 47.6702C130.65 45.9264 131.968 44.5213 133.696 44.1855C136.187 43.7016 139.854 43.6166 142.876 46.1147C143.99 47.0365 144.538 48.475 144.313 49.9042C144.139 51.0143 143.851 52.4671 143.393 53.9549L142.644 53.8224Z" fill="#2E3052"/>
<path d="M130.679 52.4349C130.76 52.009 130.805 51.5762 130.805 51.1423C130.805 50.5493 130.73 49.9977 130.184 49.6539C129.744 49.3772 129.24 49.2842 128.785 49.7543C127.666 50.9115 127.931 55.1752 130.268 54.6115L130.679 52.4349Z" fill="#FCC63A"/>
<path d="M130.059 53.3464C129.983 53.3165 129.933 53.2396 129.941 53.1547C130.065 51.897 129.07 50.9792 129.06 50.97C128.984 50.9011 128.978 50.7835 129.047 50.7071C129.116 50.6308 129.233 50.625 129.31 50.6934C129.356 50.7353 130.455 51.7426 130.312 53.1908C130.302 53.293 130.211 53.3676 130.108 53.3579C130.091 53.3561 130.074 53.3521 130.059 53.3464Z" fill="#E4794A"/>
<path d="M129.097 52.3128C129.064 52.3001 129.035 52.2783 129.013 52.2485C128.953 52.1652 128.972 52.0487 129.055 51.9885C129.068 51.9787 129.4 51.7422 129.91 51.7175C130.013 51.7124 130.1 51.7916 130.106 51.8943C130.111 51.9971 130.032 52.0843 129.929 52.0895C129.534 52.109 129.276 52.2881 129.273 52.2898C129.22 52.3288 129.153 52.3351 129.097 52.3128Z" fill="#E4794A"/>
<path d="M216.925 140.663C216.925 140.663 214.41 145.433 211.449 149.212C210.575 150.327 209.664 151.355 208.765 152.149C207.309 153.437 205.889 154.11 204.733 153.539C200.444 151.421 190.883 134.563 190.883 134.563L193.237 131.827C193.237 131.827 197.493 136.641 200.605 139.523C203.475 142.18 205.682 144.166 205.682 144.166C206.079 143.573 206.502 142.924 206.942 142.237C207.41 141.508 207.896 140.736 208.39 139.942C211.973 134.178 216.289 127.873 216.289 127.873L216.925 140.663Z" fill="#FCC63A"/>
<path d="M193.862 133.483C193.862 133.483 194.833 131.889 194.457 130.462C194.082 129.035 193.717 125.809 192.158 125.897C191.589 125.929 192.421 127.276 192.039 128.524C192.039 128.524 190.37 127.72 189.252 126.895C188.269 126.169 186.234 124.989 185.287 124.449C185.028 124.302 184.728 124.586 184.878 124.84C185.121 125.251 185.715 125.866 187.088 126.724C187.088 126.724 183.677 124.815 183.106 125.234C182.535 125.654 186.843 127.964 186.843 127.964C186.843 127.964 183.364 126.558 183.08 127.073C182.907 127.386 186.318 129.39 186.318 129.39C186.318 129.39 182.929 128.344 183.559 129.138C183.742 129.369 190.179 132.282 191.521 135.665C191.519 135.665 193.395 134.637 193.862 133.483Z" fill="#FCC63A"/>
<path d="M211.449 149.212C210.576 150.327 209.664 151.355 208.765 152.149L206.943 142.237C207.411 141.508 207.896 140.735 208.391 139.942L211.449 149.212Z" fill="#E4794A"/>
<path d="M216.419 127.428L207.355 140.501L210.24 152.149L217.352 140.803C217.352 140.803 218.683 133.212 216.419 127.428Z" fill="#6B93F6"/>
<path d="M221.071 239.285V243.412L224.923 243.351L225.175 238.978L221.071 239.285Z" fill="#FCC63A"/>
<path d="M230.852 178.987C230.826 179.477 230.692 181.832 230.49 185.116C229.948 194.138 228.932 210.169 228.336 213.77C227.724 217.465 228.001 229.583 228.198 235.926C228.23 237.004 227.809 237.984 227.107 238.703C226.847 238.969 226.543 239.199 226.213 239.386C225.639 239.704 224.979 239.887 224.277 239.887H221.341C219.128 239.887 217.351 238.094 217.42 235.926C217.585 230.563 217.787 220.781 217.404 213.224C217.037 206.032 217.569 193.305 217.979 185.372H217.984C218.149 182.204 218.293 179.806 218.351 178.826L230.852 178.987Z" fill="#2E3052"/>
<path d="M218.351 178.826L230.852 178.987C230.826 179.477 230.693 181.832 230.491 185.116C226.246 185.627 221.825 185.841 217.984 185.372C218.149 182.203 218.293 179.806 218.351 178.826Z" fill="#001030"/>
<path d="M227.059 224.613C227.168 228.67 227.282 232.863 227.207 236.244C227.186 237.193 227.153 238.005 227.108 238.701C226.848 238.97 226.545 239.201 226.211 239.385C226.282 238.577 226.338 237.544 226.368 236.226C226.441 232.865 226.327 228.682 226.218 224.635C226.084 219.69 225.957 215.018 226.232 213.03C226.832 208.678 228.174 185.088 228.525 178.791L229.366 178.828C229.014 185.121 227.669 208.759 227.065 213.14C226.8 215.062 226.926 219.703 227.059 224.613Z" fill="#001030"/>
<path d="M222.058 243.258C222.058 243.258 221.26 242.159 220.606 242.191C219.953 242.223 214.829 246.037 213.096 246.324C211.363 246.611 211.67 247.863 211.972 248.505C212.274 249.148 225.741 248.562 225.741 248.562C225.741 248.562 226.198 244.649 225.786 243.44C225.374 242.23 223.401 243.571 222.058 243.258Z" fill="#6B93F6"/>
<path d="M219.214 245.935C219.274 245.954 219.343 245.95 219.403 245.918C219.52 245.855 219.564 245.712 219.501 245.597C219.479 245.559 218.972 244.651 218.271 244.286C217.338 243.798 216.59 244.305 216.559 244.327C216.45 244.403 216.425 244.55 216.502 244.657C216.579 244.764 216.73 244.789 216.839 244.713C216.859 244.699 217.38 244.358 218.044 244.704C218.616 245.002 219.071 245.815 219.076 245.823C219.106 245.879 219.156 245.917 219.214 245.935Z" fill="white"/>
<path d="M219.949 245.284C220.009 245.303 220.077 245.299 220.138 245.267C220.255 245.205 220.299 245.061 220.236 244.946C220.214 244.908 219.707 244 219.006 243.634C218.072 243.147 217.325 243.654 217.294 243.675C217.185 243.751 217.159 243.899 217.236 244.005C217.313 244.112 217.464 244.137 217.573 244.062C217.594 244.048 218.114 243.706 218.779 244.052C219.353 244.352 219.805 245.163 219.81 245.172C219.841 245.227 219.891 245.266 219.949 245.284Z" fill="white"/>
<path d="M218.224 246.456C218.285 246.475 218.354 246.471 218.414 246.439C218.531 246.377 218.575 246.233 218.511 246.118C218.49 246.08 217.983 245.172 217.282 244.806C216.348 244.318 215.601 244.826 215.57 244.847C215.461 244.923 215.435 245.071 215.512 245.178C215.589 245.284 215.741 245.31 215.849 245.234C215.87 245.22 216.39 244.879 217.055 245.225C217.629 245.524 218.081 246.335 218.085 246.344C218.117 246.398 218.168 246.437 218.224 246.456Z" fill="white"/>
<path d="M239.834 239.285L240.249 243.405L243.687 243.351L243.939 238.978L239.834 239.285Z" fill="#FCC63A"/>
<path d="M246.912 213.223C246.529 220.779 246.731 230.562 246.896 235.925C246.959 238.093 245.188 239.885 242.975 239.885H240.039C239.389 239.885 238.772 239.729 238.235 239.458C237.911 239.291 237.607 239.082 237.347 238.832C236.559 238.108 236.08 237.071 236.118 235.924C236.315 229.582 236.591 217.464 235.979 213.769C235.373 210.105 234.33 193.584 233.793 184.656C233.617 181.675 233.495 179.544 233.463 179.017L245.985 179.179C246.023 179.815 246.081 180.794 246.15 182.035C246.555 189.176 247.337 204.9 246.912 213.223Z" fill="#2E3052"/>
<path d="M246.151 182.036C243.795 182.667 239.118 183.823 233.794 184.657C233.618 181.676 233.496 179.545 233.464 179.018L245.986 179.18C246.023 179.816 246.082 180.795 246.151 182.036Z" fill="#001030"/>
<path d="M238.076 236.226C238.105 237.584 238.164 238.639 238.237 239.456C237.91 239.291 237.611 239.082 237.346 238.836C237.295 238.111 237.257 237.255 237.235 236.245C237.162 232.864 237.275 228.67 237.385 224.614C237.518 219.703 237.642 215.063 237.378 213.14C236.774 208.759 235.428 185.108 235.078 178.823L235.917 178.785C236.269 185.075 237.611 208.677 238.212 213.03C238.487 215.019 238.359 219.69 238.225 224.635C238.116 228.682 238.003 232.864 238.076 236.226Z" fill="#001030"/>
<path d="M241.589 242.772C241.589 242.772 243.342 242.313 243.827 242.323C244.312 242.332 247.56 245.89 248.652 246.1C250.635 246.479 250.638 249.513 249.431 249.663C245.941 250.099 239.971 248.655 239.971 248.655C239.971 248.655 239.421 244.763 239.66 243.541C239.899 242.32 240.614 243.131 241.589 242.772Z" fill="#6B93F6"/>
<path d="M244.479 246.094C244.416 246.108 244.349 246.097 244.292 246.06C244.181 245.987 244.152 245.84 244.226 245.731C244.251 245.695 244.844 244.838 245.578 244.54C246.554 244.143 247.249 244.717 247.278 244.742C247.379 244.828 247.39 244.977 247.303 245.076C247.215 245.175 247.063 245.186 246.962 245.1C246.943 245.085 246.458 244.696 245.763 244.978C245.164 245.221 244.632 245.988 244.627 245.996C244.592 246.048 244.538 246.082 244.479 246.094Z" fill="white"/>
<path d="M243.811 245.377C243.749 245.391 243.681 245.38 243.624 245.343C243.513 245.27 243.483 245.123 243.558 245.014C243.582 244.978 244.175 244.122 244.909 243.823C245.886 243.425 246.58 243.999 246.61 244.025C246.711 244.11 246.722 244.259 246.634 244.359C246.547 244.458 246.394 244.469 246.293 244.383C246.274 244.367 245.789 243.979 245.094 244.26C244.494 244.504 243.964 245.27 243.959 245.278C243.923 245.33 243.869 245.365 243.811 245.377Z" fill="white"/>
<path d="M245.412 246.705C245.35 246.718 245.283 246.707 245.225 246.67C245.115 246.597 245.085 246.45 245.159 246.341C245.184 246.305 245.777 245.449 246.511 245.15C247.488 244.752 248.182 245.327 248.211 245.352C248.312 245.437 248.323 245.587 248.236 245.686C248.149 245.784 247.996 245.796 247.895 245.71C247.876 245.694 247.391 245.306 246.696 245.588C246.096 245.832 245.566 246.598 245.561 246.606C245.525 246.658 245.472 246.692 245.412 246.705Z" fill="white"/>
<path d="M248.828 180.253C237.518 183.041 226.221 183.049 214.936 180.253C214.877 176.122 214.817 159.604 215.143 146.048C215.149 145.781 215.155 145.516 215.162 145.251C215.165 145.121 215.169 144.99 215.173 144.861V144.839C215.177 144.67 215.181 144.503 215.186 144.336C215.428 135.396 215.849 128.095 216.57 127.119C216.572 127.118 216.572 127.118 216.572 127.118C218.256 124.851 226.719 121.231 229.06 119.614C229.255 119.922 230.407 121.632 231.917 121.758C233.574 121.902 235.047 119.991 235.047 119.991V119.63C237.399 121.245 245.066 124.596 246.748 126.856C248.587 129.334 248.906 173.214 248.828 180.253Z" fill="#6B93F6"/>
<path d="M218.591 139.683C217.62 140.969 216.201 143.883 215.565 145.23C215.479 145.415 215.406 145.57 215.352 145.688C215.28 145.842 215.24 145.932 215.236 145.939C215.216 145.984 215.184 146.021 215.144 146.047C215.15 145.781 215.157 145.516 215.164 145.251C215.166 145.12 215.17 144.989 215.174 144.86V144.839C215.304 144.564 215.459 144.242 215.631 143.888C216.354 142.41 217.387 140.416 218.17 139.378C218.255 139.264 218.42 139.24 218.536 139.324C218.652 139.409 218.675 139.569 218.591 139.683Z" fill="#0077EB"/>
<path d="M240.248 129.705C240.245 129.705 240.242 129.705 240.239 129.705C235.744 129.565 232.277 127.732 230.159 126.22C227.866 124.583 226.649 122.999 226.599 122.932C226.512 122.818 226.536 122.658 226.652 122.573C226.769 122.488 226.932 122.512 227.019 122.626C227.067 122.689 231.916 128.931 240.256 129.191C240.4 129.196 240.514 129.314 240.509 129.456C240.505 129.595 240.388 129.705 240.248 129.705Z" fill="#0077EB"/>
<path d="M225.107 171.634C224.97 171.634 224.855 171.53 224.846 171.394C224.836 171.252 224.946 171.13 225.09 171.121C232.464 170.647 236.862 166.986 239.253 163.998C241.853 160.75 242.716 157.569 242.724 157.537C242.761 157.4 242.903 157.318 243.043 157.354C243.183 157.389 243.268 157.529 243.232 157.667C243.197 157.8 242.34 160.968 239.679 164.299C237.221 167.376 232.701 171.147 225.125 171.633C225.118 171.634 225.113 171.634 225.107 171.634Z" fill="#0077EB"/>
<path d="M229.066 167.047C228.951 167.047 228.845 166.972 228.813 166.857C228.776 166.72 228.858 166.579 228.998 166.542C235.406 164.845 236.642 159.603 236.654 159.55C236.685 159.411 236.825 159.323 236.966 159.353C237.107 159.383 237.197 159.52 237.166 159.658C237.154 159.716 236.843 161.083 235.696 162.684C234.641 164.157 232.645 166.108 229.135 167.038C229.112 167.043 229.088 167.047 229.066 167.047Z" fill="#0077EB"/>
<path d="M257.128 179.799C256.966 182.045 255.59 183.714 255.583 185.192C255.576 186.673 253.832 185.704 254.64 182.782C255.446 179.862 254.25 177.034 253.611 177.06C252.972 177.088 253.814 180.353 253.143 181.438C252.471 182.522 251.964 180.245 251.376 178.836C250.764 177.373 251.106 174.34 251.66 172.203C252.214 170.068 249.496 156.519 249.852 152.701L248.871 147.748L248.298 144.859L248.19 141.843L253.429 139.809C253.627 140.777 253.829 141.781 254.029 142.79C254.118 143.235 254.204 143.682 254.29 144.127C254.991 147.738 255.62 151.294 255.876 153.574C256.584 159.882 255.422 172.75 255.422 172.75C255.422 172.75 257.279 177.692 257.128 179.799Z" fill="#FCC63A"/>
<path d="M254.289 144.127C253.108 145.449 251.22 147.133 248.871 147.748L248.297 144.859L248.19 141.843L253.429 139.809C253.626 140.777 253.828 141.781 254.029 142.79C254.117 143.235 254.204 143.682 254.289 144.127Z" fill="#E4794A"/>
<path d="M255.744 141.267C255.744 141.267 255.12 141.993 254.029 142.791C252.709 143.761 250.704 144.839 248.304 144.859C248.014 136.501 247.587 129.438 246.966 127.364C248.072 128.701 253.38 135.283 255.744 141.267Z" fill="#6B93F6"/>
<path d="M244.708 138.843C245.679 140.129 247.097 143.043 247.734 144.39C247.82 144.575 247.892 144.73 247.947 144.848C248.02 145.002 248.06 145.092 248.063 145.099C248.106 145.195 248.201 145.251 248.302 145.251H248.308C248.305 145.12 248.301 144.99 248.297 144.86C248.375 144.86 248.452 144.86 248.526 144.857C248.491 144.781 248.406 144.596 248.284 144.336C248.131 144.009 247.918 143.56 247.668 143.049C246.946 141.569 245.912 139.576 245.13 138.538C245.043 138.424 244.88 138.399 244.763 138.484C244.647 138.568 244.623 138.73 244.708 138.843Z" fill="#0077EB"/>
<path d="M239.973 106.189C239.973 110.717 237.127 113.837 232.506 113.837C227.885 113.837 224.664 110.483 224.664 105.955C224.664 101.428 227.4 97.9973 232.022 97.9973C237.564 97.9973 239.973 101.662 239.973 106.189Z" fill="#2E3052"/>
<path d="M238.934 108.139C238.934 108.139 240.218 106.462 241.173 107.849C242.127 109.236 240.778 113.332 238.44 112.332L238.934 108.139Z" fill="#E4794A"/>
<path d="M238.951 111.066C239.037 111.066 239.116 111.01 239.141 110.925C239.503 109.66 240.84 109.148 240.854 109.143C240.955 109.105 241.007 108.993 240.968 108.893C240.929 108.793 240.815 108.743 240.714 108.78C240.651 108.803 239.178 109.364 238.76 110.82C238.731 110.923 238.792 111.03 238.897 111.059C238.915 111.064 238.933 111.066 238.951 111.066Z" fill="#FD664D"/>
<path d="M240.3 110.429C240.337 110.429 240.373 110.419 240.407 110.398C240.499 110.34 240.525 110.221 240.466 110.13C240.456 110.116 240.22 109.762 239.724 109.545C239.625 109.501 239.508 109.545 239.464 109.643C239.419 109.74 239.464 109.854 239.563 109.898C239.946 110.066 240.132 110.337 240.134 110.34C240.172 110.398 240.235 110.429 240.3 110.429Z" fill="#FD664D"/>
<path d="M225.702 108.139C225.702 108.139 224.418 106.462 223.464 107.849C222.509 109.236 223.859 113.332 226.196 112.332L225.702 108.139Z" fill="#E4794A"/>
<path d="M225.686 111.066C225.6 111.066 225.52 111.01 225.496 110.925C225.134 109.66 223.796 109.148 223.783 109.143C223.681 109.105 223.63 108.993 223.669 108.893C223.707 108.793 223.821 108.743 223.923 108.78C223.986 108.803 225.459 109.364 225.876 110.82C225.906 110.923 225.845 111.03 225.74 111.059C225.721 111.064 225.704 111.066 225.686 111.066Z" fill="#FD664D"/>
<path d="M224.336 110.429C224.299 110.429 224.262 110.419 224.229 110.398C224.137 110.34 224.111 110.221 224.17 110.13C224.179 110.116 224.416 109.762 224.911 109.545C225.011 109.501 225.128 109.545 225.173 109.643C225.217 109.74 225.172 109.854 225.073 109.898C224.69 110.066 224.504 110.337 224.502 110.34C224.464 110.398 224.4 110.429 224.336 110.429Z" fill="#FD664D"/>
<path d="M229.158 115.807V119.881C229.158 119.881 230.398 121.955 232.075 122.096C233.75 122.239 235.239 120.31 235.239 120.31V116.093L229.158 115.807Z" fill="#FCC63A"/>
<path d="M229.158 115.807V117.614C230.283 118.838 232.281 119.144 235.239 118.715V116.093L229.158 115.807Z" fill="#E4794A"/>
<path d="M239.621 108.01C239.558 108.873 239.454 109.784 239.283 110.691C238.726 113.694 237.47 116.647 234.764 117.595C228.638 119.738 226.448 114.59 225.573 111.589C225.477 111.257 225.39 110.885 225.314 110.489C225.174 109.774 225.066 108.976 224.982 108.173C224.882 107.198 224.815 106.212 224.774 105.344C224.684 103.518 225.8 101.842 227.545 101.184C230.057 100.238 233.873 99.4903 237.49 101.499C238.826 102.239 239.664 103.614 239.694 105.117C239.709 105.935 239.698 106.933 239.621 108.01Z" fill="#FCC63A"/>
<path d="M238.861 108.173C238.655 108.542 237.507 112.012 237.187 112.499C236.463 110.938 232.969 112.072 232.969 112.072C232.749 112.142 232.521 112.178 232.292 112.178C232.07 112.178 231.848 112.144 231.635 112.078L231.617 112.072C231.617 112.072 228.081 110.986 227.384 112.622C227.06 112.138 226.063 108.733 225.877 108.174H224.982C225.066 108.977 225.174 109.775 225.314 110.49C225.39 110.886 225.477 111.257 225.573 111.59C226.448 114.591 228.638 119.74 234.764 117.596C237.47 116.648 238.726 113.695 239.283 110.692C239.454 109.785 239.558 108.873 239.621 108.011L238.861 108.173ZM235.567 114.519V114.521C235.565 114.521 235.565 114.521 235.565 114.521C235.294 114.775 235.018 114.988 234.743 115.132C233.191 115.955 233.023 115.83 232.41 115.857C231.786 115.886 230.927 115.705 230.053 115.229C229.782 115.079 229.376 114.79 228.933 114.392C228.933 114.392 228.303 112.284 232.302 112.812C236.31 112.137 235.634 114.108 235.567 114.519Z" fill="#2E3052"/>
<path d="M234.945 108.671C234.945 109.106 235.174 109.458 235.456 109.458C235.739 109.458 235.967 109.106 235.967 108.671C235.967 108.236 235.739 107.883 235.456 107.883C235.174 107.883 234.945 108.236 234.945 108.671Z" fill="#2E3052"/>
<path d="M228.923 108.655C228.923 109.09 229.152 109.442 229.434 109.442C229.717 109.442 229.945 109.09 229.945 108.655C229.945 108.22 229.717 107.867 229.434 107.867C229.152 107.867 228.923 108.22 228.923 108.655Z" fill="#2E3052"/>
<path d="M237.483 106.447C237.483 106.447 235.526 105.689 234.019 106.327L234.17 107.149C234.17 107.149 236.382 106.965 237.496 107.408C237.596 107.092 237.61 106.772 237.483 106.447Z" fill="#2E3052"/>
<path d="M227.748 106.447C227.748 106.447 229.705 105.689 231.212 106.327L231.061 107.149C231.061 107.149 228.849 106.965 227.734 107.408C227.635 107.092 227.621 106.772 227.748 106.447Z" fill="#2E3052"/>
<path d="M232.25 111.718C231.916 111.718 231.586 111.591 231.534 111.571C231.433 111.53 231.385 111.417 231.426 111.318C231.467 111.219 231.583 111.172 231.684 111.212C231.862 111.283 232.29 111.394 232.476 111.285C232.511 111.264 232.56 111.223 232.573 111.105C232.644 110.43 232.455 108.164 232.453 108.142C232.444 108.035 232.525 107.942 232.634 107.933C232.743 107.923 232.838 108.003 232.847 108.109C232.855 108.204 233.041 110.434 232.966 111.145C232.938 111.412 232.794 111.549 232.679 111.617C232.553 111.692 232.401 111.718 232.25 111.718Z" fill="#E4794A"/>
<path d="M234.945 113.136C234.784 113.932 234.247 115.396 232.44 115.396C230.628 115.396 230.12 114.058 229.945 113.136H234.945Z" fill="white"/>
<path d="M224.982 108.174H225.878C225.779 107.293 225.637 105.742 226.375 105.52C228.708 104.818 225.686 103.203 226.738 102.398C227.791 101.591 230.412 101.937 232.234 101.879C234.068 101.821 237.015 101.846 237.73 102.009C238.447 102.17 238.054 103.336 237.792 104.239C237.527 105.141 238.671 106.14 238.862 107.075C238.917 107.343 238.906 107.742 238.862 108.174H239.608C239.696 107.036 239.709 105.977 239.693 105.118C239.664 103.614 238.826 102.24 237.491 101.499C233.874 99.4902 230.058 100.239 227.545 101.186C225.801 101.842 224.685 103.52 224.774 105.344C224.816 106.212 224.881 107.198 224.982 108.174Z" fill="#2E3052"/>
<path d="M93.7229 207.308H48.2822C49.033 202.749 52.6492 199.437 56.8635 199.45L71.0023 199.492L85.1411 199.45C89.3559 199.438 92.9716 202.749 93.7229 207.308Z" fill="white"/>
<path d="M54.3327 206.655H51.8564V249.022H54.3327V206.655Z" fill="white"/>
<path d="M90.1491 206.655H87.6729V249.022H90.1491V206.655Z" fill="white"/>
<path d="M87.6722 218.527H54.332V220.914H87.6722V218.527Z" fill="#DCEDF9"/>
<path d="M59.8778 150.276C59.8778 150.276 52.2889 160.396 51.2787 169.223C50.5658 175.457 59.8778 184.772 59.8778 184.772L63.0853 183.176L59.8881 175.966C58.7504 172.455 57.3493 171.067 58.3842 167.524L60.6997 162.531L59.8778 150.276Z" fill="#0077EB"/>
<path d="M83.7921 150.123C83.7921 150.123 91.2828 160.915 91.9027 169.777C92.4377 177.418 83.2681 184.773 83.2681 184.773L80.6196 183.454L84.2869 176.17C85.4246 172.659 85.9653 170.541 84.4143 166.721L82.4455 162.531L83.7921 150.123Z" fill="#0077EB"/>
<path d="M61.4236 173.325L56.3931 189.328C56.3931 189.328 78.1723 192.105 84.8325 190.308L81.4493 172.879L83.7918 150.123C80.5321 148.75 77.0766 147.872 73.5488 147.617C68.3983 147.245 65.1448 148.095 59.8778 150.276L61.4236 173.325Z" fill="#6B93F6"/>
<path d="M66.8679 155.101C71.6728 154.537 76.1432 151.238 76.3464 151.086C76.4652 150.998 76.4893 150.83 76.4009 150.711C76.3125 150.592 76.1443 150.568 76.0255 150.656C75.9727 150.695 70.7125 154.576 65.6533 154.645C65.5029 154.646 65.387 154.769 65.3887 154.917C65.3904 155.065 65.5121 155.184 65.6602 155.182C66.0637 155.175 66.4672 155.148 66.8679 155.101Z" fill="#0077EB"/>
<path d="M70.7393 240.836L71.1319 244.37L74.8899 244.455L75.205 241.523L70.7393 240.836Z" fill="#FCC63A"/>
<path d="M70.1498 184.816C70.1498 184.816 60.4188 184.281 57.1223 186.978C53.8264 189.675 54.4888 197.413 57.8467 199.526C61.2046 201.639 66.9285 205.791 66.9285 205.791L70.5694 241.987L75.3807 242.151C75.3807 242.151 79.8137 205.791 77.5659 198.749C75.3187 191.708 70.1498 184.816 70.1498 184.816Z" fill="#001030"/>
<path d="M75.8243 240.356C76.0861 241.201 75.9615 242.021 75.7003 242.835L70.1647 242.712C69.9695 241.906 69.9402 241.096 70.0573 240.284L75.8243 240.356Z" fill="#2E3052"/>
<path d="M83.9206 184.542H58.3833L56.0236 170.742C55.8193 169.547 56.74 168.455 57.9523 168.455H84.3517C85.5645 168.455 86.4846 169.546 86.2809 170.742L83.9206 184.542Z" fill="white"/>
<path d="M81.8674 187.543H60.4618C59.3138 187.543 58.3833 186.613 58.3833 185.465V184.542H83.9458V185.465C83.9464 186.613 83.0154 187.543 81.8674 187.543Z" fill="#DCEDF9"/>
<path d="M73.4271 177.068C73.4271 178.293 72.4341 179.286 71.2091 179.286C69.9842 179.286 68.9912 178.293 68.9912 177.068C68.9912 175.843 69.9842 174.85 71.2091 174.85C72.4341 174.85 73.4271 175.843 73.4271 177.068Z" fill="#DCEDF9"/>
<path d="M54.7777 230.898L53.9448 234.395L57.3171 235.062L58.6907 231.939L54.7777 230.898Z" fill="#FCC63A"/>
<path d="M75.0937 184.216C75.0937 184.216 68.5765 181.969 64.7559 186.689C60.9354 191.408 54.5376 231.248 54.5376 231.248L58.9235 233.057L73.0221 197.675C73.0221 197.675 84.5033 204.227 85.8941 194.913C86.9944 187.543 75.0937 184.216 75.0937 184.216Z" fill="#2E3052"/>
<path d="M59.9172 231.232C59.9011 232.145 59.5142 232.909 58.9959 233.623L53.6055 231.718C53.6743 230.864 53.9062 230.06 54.2834 229.301L59.9172 231.232Z" fill="#524E84"/>
<path d="M56.518 233.82C56.518 233.82 54.474 232.783 53.8725 232.665C53.2709 232.547 48.3018 236.071 46.8944 236.037C44.3412 235.974 43.5238 239.723 44.9749 240.234C49.172 241.709 56.9394 241.526 56.9394 241.526C56.9394 241.526 58.6642 236.863 58.697 235.289C58.7291 233.715 57.627 234.526 56.518 233.82Z" fill="#6B93F6"/>
<path d="M52.0541 237.151C52.1276 237.184 52.2137 237.19 52.2946 237.159C52.4513 237.098 52.5271 236.924 52.4645 236.77C52.4433 236.718 51.9405 235.501 51.1133 234.936C50.0135 234.182 49.0004 234.705 48.958 234.728C48.8104 234.806 48.7565 234.988 48.8374 235.134C48.9184 235.28 49.1043 235.334 49.2524 235.256C49.28 235.242 49.9831 234.892 50.7672 235.427C51.4411 235.888 51.8934 236.978 51.8974 236.989C51.9278 237.063 51.9852 237.12 52.0541 237.151Z" fill="white"/>
<path d="M53.0727 236.444C53.1461 236.477 53.2322 236.482 53.3132 236.451C53.4699 236.391 53.5457 236.217 53.4831 236.063C53.4618 236.011 52.959 234.794 52.1319 234.228C51.031 233.474 50.019 233.998 49.9765 234.02C49.829 234.099 49.775 234.281 49.856 234.426C49.9369 234.572 50.1229 234.626 50.271 234.548C50.2985 234.534 51.0023 234.184 51.7852 234.719C52.4619 235.181 52.9108 236.27 52.9154 236.281C52.9464 236.357 53.0038 236.413 53.0727 236.444Z" fill="white"/>
<path d="M50.7367 237.655C50.8102 237.688 50.8963 237.694 50.9772 237.663C51.1339 237.602 51.2097 237.428 51.1471 237.274C51.1259 237.222 50.6231 236.005 49.796 235.439C48.695 234.685 47.6831 235.209 47.6406 235.231C47.4931 235.31 47.4391 235.492 47.52 235.638C47.601 235.783 47.787 235.838 47.935 235.759C47.9626 235.746 48.6663 235.395 49.4498 235.93C50.1266 236.393 50.576 237.482 50.58 237.493C50.6099 237.567 50.6679 237.624 50.7367 237.655Z" fill="white"/>
<path d="M72.5816 244.222C72.5816 244.222 74.6732 243.587 75.2582 243.575C75.8431 243.564 79.9248 247.7 81.2524 247.901C83.6609 248.266 83.8062 251.923 82.3585 252.161C78.1718 252.85 70.9067 251.389 70.9067 251.389C70.9067 251.389 70.0606 246.723 70.2913 245.239C70.5227 243.756 71.4233 244.701 72.5816 244.222Z" fill="#6B93F6"/>
<path d="M76.2222 248.091C76.1476 248.11 76.0655 248.101 75.9949 248.058C75.8577 247.976 75.8153 247.8 75.9002 247.665C75.9283 247.62 76.6034 246.56 77.4736 246.167C78.6313 245.641 79.4963 246.301 79.5325 246.329C79.6582 246.427 79.6789 246.607 79.5784 246.73C79.478 246.854 79.2943 246.874 79.1686 246.776C79.145 246.758 78.5429 246.312 77.7175 246.685C77.008 247.006 76.4025 247.955 76.3962 247.965C76.3554 248.03 76.2917 248.073 76.2222 248.091Z" fill="white"/>
<path d="M75.3823 247.258C75.3077 247.277 75.2262 247.268 75.1556 247.225C75.0184 247.143 74.9759 246.967 75.0609 246.832C75.089 246.788 75.764 245.727 76.6342 245.333C77.7931 244.807 78.657 245.467 78.6931 245.496C78.8188 245.594 78.8395 245.774 78.7385 245.897C78.638 246.021 78.4544 246.041 78.3286 245.943C78.3051 245.925 77.7024 245.479 76.8776 245.852C76.1652 246.175 75.5625 247.122 75.5568 247.132C75.5155 247.197 75.4523 247.24 75.3823 247.258Z" fill="white"/>
<path d="M77.376 248.783C77.3013 248.802 77.2198 248.793 77.1492 248.751C77.012 248.668 76.9696 248.492 77.0545 248.357C77.0826 248.313 77.7577 247.253 78.6278 246.858C79.7868 246.332 80.6506 246.992 80.6868 247.021C80.8125 247.119 80.8332 247.3 80.7321 247.422C80.6317 247.546 80.448 247.566 80.3223 247.468C80.2988 247.45 79.6961 247.005 78.8712 247.377C78.1589 247.7 77.5562 248.647 77.5505 248.657C77.5091 248.722 77.446 248.765 77.376 248.783Z" fill="white"/>
<path d="M78.2628 127.451C78.2628 127.451 81.3601 132.248 81.0203 137.244C80.6811 142.241 81.4767 148.009 77.0058 147.755C72.5349 147.502 64.5597 149.548 62.0249 145.656C59.4902 141.765 78.2628 127.451 78.2628 127.451Z" fill="#2E3052"/>
<path d="M79.4107 136.271C79.4107 136.271 80.2143 143.514 76.7778 145.508C73.3412 147.502 70.8535 145.275 70.8535 145.275C70.8535 145.275 78.098 135.181 79.4107 136.271Z" fill="#000B29"/>
<path d="M65.1346 136.237C65.1346 136.237 63.9005 134.592 62.9827 135.953C62.0649 137.313 63.3621 141.332 65.6087 140.351L65.1346 136.237Z" fill="#E4794A"/>
<path d="M65.1186 139.109C65.0359 139.109 64.9596 139.054 64.9361 138.97C64.5877 137.73 63.3025 137.227 63.2898 137.222C63.1923 137.185 63.1429 137.075 63.1796 136.977C63.2169 136.879 63.3266 136.83 63.4242 136.867C63.4844 136.89 64.9005 137.439 65.3017 138.868C65.3298 138.969 65.2713 139.074 65.1703 139.102C65.153 139.107 65.1358 139.109 65.1186 139.109Z" fill="#FD664D"/>
<path d="M63.8213 138.484C63.7862 138.484 63.7501 138.474 63.7185 138.454C63.6301 138.397 63.6049 138.279 63.6617 138.191C63.6714 138.176 63.8988 137.83 64.374 137.617C64.4693 137.574 64.5818 137.617 64.6249 137.713C64.6679 137.809 64.6249 137.92 64.529 137.964C64.1611 138.128 63.9826 138.395 63.9808 138.397C63.9447 138.454 63.8838 138.484 63.8213 138.484Z" fill="#FD664D"/>
<path d="M77.8521 136.237C77.8521 136.237 79.0862 134.592 80.004 135.953C80.9218 137.313 79.6246 141.332 77.3779 140.351L77.8521 136.237Z" fill="#E4794A"/>
<path d="M77.868 139.109C77.9512 139.109 78.027 139.054 78.0505 138.97C78.3989 137.73 79.6841 137.227 79.6967 137.222C79.7943 137.185 79.8437 137.075 79.8064 136.977C79.7691 136.879 79.66 136.83 79.5618 136.867C79.5016 136.89 78.0855 137.439 77.6843 138.868C77.6562 138.969 77.7147 139.074 77.8157 139.102C77.8335 139.107 77.8507 139.109 77.868 139.109Z" fill="#FD664D"/>
<path d="M79.1656 138.484C79.2006 138.484 79.2362 138.474 79.2684 138.454C79.3568 138.397 79.382 138.279 79.3252 138.191C79.3154 138.176 79.0881 137.83 78.6123 137.617C78.517 137.574 78.4045 137.617 78.3614 137.713C78.3184 137.809 78.3614 137.92 78.4573 137.964C78.8252 138.128 79.0037 138.395 79.0055 138.397C79.0422 138.454 79.1036 138.484 79.1656 138.484Z" fill="#FD664D"/>
<path d="M74.531 143.76V147.756C74.531 147.756 73.3394 149.791 71.7276 149.93C70.1175 150.07 68.6865 148.177 68.6865 148.177V144.04L74.531 143.76Z" fill="#FCC63A"/>
<path d="M74.531 143.76V145.533C73.4496 146.733 71.5295 147.158 68.6871 146.739L68.6865 144.041L74.531 143.76Z" fill="#E4794A"/>
<path d="M78.7448 133.496C78.6708 135.049 78.5227 136.991 78.2265 138.544C78.1525 138.932 78.0687 139.296 77.9757 139.623C77.1348 142.567 75.0311 147.618 69.1418 145.514C66.541 144.586 65.3351 141.688 64.7978 138.742C64.4333 136.741 64.3782 134.719 64.4046 133.274C64.4327 131.799 65.238 130.451 66.5215 129.724C69.9977 127.753 73.6655 128.488 76.0803 129.416C77.7576 130.06 78.8304 131.706 78.7448 133.496Z" fill="#FCC63A"/>
<path d="M68.9001 136.854C68.9001 137.281 68.6802 137.627 68.4087 137.627C68.1378 137.627 67.918 137.281 67.918 136.854C67.918 136.428 68.1378 136.082 68.4087 136.082C68.6802 136.082 68.9001 136.428 68.9001 136.854Z" fill="#2E3052"/>
<path d="M74.9645 136.854C74.9645 137.281 74.7447 137.627 74.4738 137.627C74.2028 137.627 73.9824 137.281 73.9824 136.854C73.9824 136.428 74.2023 136.082 74.4738 136.082C74.7447 136.082 74.9645 136.428 74.9645 136.854Z" fill="#2E3052"/>
<path d="M67.4366 134.285C67.8447 134.169 68.6684 133.973 69.5374 133.97C69.7664 133.97 69.9415 134.173 69.9007 134.398L69.8996 134.404C69.8675 134.583 69.7067 134.711 69.5242 134.702C68.933 134.675 67.3809 134.758 66.6479 135.054C66.633 134.927 66.7082 134.788 66.8149 134.664C66.9762 134.476 67.1978 134.352 67.4366 134.285Z" fill="#2E3052"/>
<path d="M75.3708 134.3C74.9627 134.185 74.139 133.988 73.27 133.986C73.0415 133.985 72.8665 134.188 72.9066 134.413L72.9078 134.419C72.9399 134.599 73.1007 134.726 73.2832 134.717C73.8744 134.69 75.4265 134.773 76.1595 135.07C76.1744 134.942 76.0992 134.803 75.9925 134.679C75.8312 134.491 75.609 134.367 75.3708 134.3Z" fill="#2E3052"/>
<path d="M71.5595 139.996C71.4143 139.996 71.2685 139.971 71.1468 139.898C71.036 139.831 70.8977 139.697 70.8707 139.434C70.7984 138.736 70.9769 136.549 70.985 136.456C70.9936 136.352 71.0848 136.274 71.1899 136.282C71.2943 136.291 71.3724 136.383 71.3638 136.487C71.3621 136.509 71.1807 138.732 71.249 139.394C71.261 139.51 71.3081 139.55 71.342 139.571C71.5199 139.678 71.932 139.569 72.1037 139.499C72.2007 139.459 72.3115 139.506 72.3511 139.603C72.3907 139.7 72.3442 139.811 72.2472 139.851C72.1978 139.872 71.8798 139.996 71.5595 139.996Z" fill="#E4794A"/>
<path d="M69.1484 141.195C69.2919 141.917 69.7689 143.246 71.3761 143.246C72.9873 143.246 73.4391 142.032 73.5941 141.195H69.1484Z" fill="white"/>
<path d="M71.3531 144.354C70.8893 144.354 70.4801 144.104 70.4629 144.093C70.3739 144.038 70.3463 143.921 70.4014 143.832C70.4565 143.743 70.5731 143.715 70.6626 143.77C70.6661 143.772 71.0001 143.974 71.3537 143.974C71.7366 143.974 72.0792 143.771 72.0827 143.769C72.1728 143.715 72.2893 143.744 72.3433 143.834C72.3972 143.923 72.3685 144.04 72.279 144.094C72.2606 144.105 71.8445 144.354 71.3531 144.354Z" fill="#E4794A"/>
<path d="M79.5088 133.187C79.448 133.36 79.2786 133.47 79.0519 133.537C79.0686 133.956 79.0244 134.459 78.983 134.942C78.7488 137.686 78.0566 138.168 77.8999 137.489C77.7966 137.039 77.8029 134.455 77.8528 133.612C77.3104 133.576 76.8472 133.486 76.8472 133.486L76.2106 130.822L75.9879 133.453C75.0333 133.786 72.8056 133.254 72.8056 133.254L72.0583 130.628L71.5962 133.154C70.1641 133.852 68.3749 133.387 68.3749 133.387L67.964 130.662L67.0146 133.387C67.0146 133.387 63.9597 134.483 63.9264 133.387C63.9058 132.75 64.373 130.954 64.7679 129.562C65.1984 128.045 66.1949 126.764 67.5426 126.04C71.3316 124.006 75.3387 125.088 76.7134 125.909C79.6288 127.649 79.5088 133.187 79.5088 133.187Z" fill="#2E3052"/>
<path d="M65.6094 127.654C65.6094 127.654 63.0947 130.645 62.267 135.987C61.4399 141.329 60.2942 145.276 63.5132 147.04C66.9973 148.949 66.6954 145.034 66.6455 143.97C66.5956 142.906 63.632 139.997 65.6094 131.804C66.2483 129.159 65.6094 127.654 65.6094 127.654Z" fill="#2E3052"/>
<path d="M65.0215 138.693C65.0215 138.693 65.0215 138.696 65.0215 138.699C65.0226 138.739 65.0255 138.951 65.0404 139.284C65.0479 139.49 65.0605 139.74 65.08 140.026C65.1983 141.826 65.5484 144.934 66.577 146.012C66.9828 146.438 67.7658 146.652 68.6876 146.739V145.324C67.7164 144.863 66.9593 144.106 66.3721 143.175C66.0093 142.389 65.3843 141.16 65.0915 139.226L65.0215 138.693Z" fill="#000B29"/>
<path d="M78.7901 140.441C78.7901 140.687 78.5909 140.886 78.3452 140.886C78.0996 140.886 77.9004 140.687 77.9004 140.441C77.9004 140.196 78.0996 139.997 78.3452 139.997C78.5909 139.997 78.7901 140.196 78.7901 140.441Z" fill="white"/>
<path d="M212.81 102.136H201.899C201.062 102.136 200.383 101.457 200.383 100.62V89.7091C200.383 88.8717 201.062 88.1926 201.899 88.1926H212.81C213.647 88.1926 214.326 88.8717 214.326 89.7091V100.62C214.326 101.458 213.647 102.136 212.81 102.136Z" fill="#FFAA01"/>
<path d="M212.103 95.165C212.103 96.3135 211.694 97.3668 211.015 98.1882C210.145 99.2415 208.828 99.9131 207.355 99.9131C205.882 99.9131 204.565 99.2421 203.695 98.1888C203.016 97.3674 202.607 96.3141 202.607 95.1655C202.607 92.5435 204.733 90.418 207.355 90.418C209.976 90.4168 212.103 92.5423 212.103 95.165Z" fill="#FDCC50"/>
<path d="M211.015 98.1876C210.144 99.2409 208.828 99.9124 207.355 99.9124C205.881 99.9124 204.565 99.2414 203.694 98.1882L203.758 98.0619C203.861 97.8587 204.003 97.6807 204.174 97.5372C204.345 97.3932 204.544 97.2835 204.761 97.2175C205.535 96.9816 206.252 96.7428 206.654 96.0523C206.165 95.8221 205.838 95.3618 205.702 95.0363C205.164 95.1511 204.778 94.1569 205.066 93.8935C205.175 93.7936 205.285 93.7661 205.382 93.7712C205.471 92.7598 206.32 91.8569 207.354 91.8569C208.389 91.8569 209.237 92.7604 209.326 93.7712C209.423 93.7655 209.534 93.7936 209.643 93.8935C209.93 94.1569 209.544 95.1505 209.007 95.0363C208.89 95.3991 208.487 95.8365 208.123 95.9892C208.526 96.6797 209.173 96.981 209.946 97.2169C210.164 97.283 210.364 97.3926 210.535 97.5367C210.706 97.6802 210.848 97.8581 210.95 98.0613L211.015 98.1876Z" fill="white"/>
<path d="M31.6419 176.28H20.7314C19.8939 176.28 19.2148 175.601 19.2148 174.764V163.853C19.2148 163.016 19.8939 162.337 20.7314 162.337H31.6419C32.4794 162.337 33.1585 163.016 33.1585 163.853V174.764C33.1585 175.601 32.4794 176.28 31.6419 176.28Z" fill="#FFAA01"/>
<path d="M26.3957 164.685C24.6152 164.567 23.1343 165.977 23.1343 167.731C23.1343 168.298 23.2898 168.831 23.5613 169.287C23.9654 169.967 24.3816 170.641 24.7656 171.333L26.2115 173.939L28.4168 169.96C28.5459 169.727 28.686 169.501 28.8209 169.272C29.0999 168.8 29.2531 168.246 29.2382 167.656C29.2015 166.092 27.9553 164.788 26.3957 164.685ZM26.1862 168.654C25.475 168.654 24.8976 168.077 24.8976 167.365C24.8976 166.653 25.475 166.076 26.1862 166.076C26.8986 166.076 27.4749 166.653 27.4749 167.365C27.4749 168.077 26.8986 168.654 26.1862 168.654Z" fill="white"/>
<path d="M260.749 106.729C262.465 106.729 263.861 108.125 263.861 109.842C263.861 111.558 262.465 112.954 260.749 112.954C259.032 112.954 257.636 111.558 257.636 109.842C257.636 108.125 259.032 106.729 260.749 106.729ZM260.749 111.977C261.926 111.977 262.884 111.019 262.884 109.842C262.884 108.664 261.926 107.706 260.749 107.706C259.571 107.706 258.613 108.664 258.613 109.842C258.612 111.019 259.571 111.977 260.749 111.977Z" fill="#6B93F6"/>
<path d="M249.543 95.8088C251.26 95.8088 252.656 97.2054 252.656 98.9216C252.656 100.638 251.26 102.034 249.543 102.034C247.827 102.034 246.431 100.638 246.431 98.9216C246.431 97.2054 247.827 95.8088 249.543 95.8088ZM249.543 101.057C250.721 101.057 251.679 100.099 251.679 98.9216C251.679 97.7438 250.721 96.7858 249.543 96.7858C248.366 96.7858 247.408 97.7438 247.408 98.9216C247.407 100.099 248.366 101.057 249.543 101.057Z" fill="#FFAA01"/>
<path d="M245.697 85.6946C245.967 85.6946 246.186 85.9133 246.186 86.1831V88.3361C246.186 88.6059 245.967 88.8246 245.697 88.8246C245.428 88.8246 245.209 88.6059 245.209 88.3361V86.1831C245.209 85.9133 245.428 85.6946 245.697 85.6946Z" fill="#6B93F6"/>
<path d="M245.697 81.9268C245.967 81.9268 246.186 82.1455 246.186 82.4152V84.5683C246.186 84.8381 245.967 85.0568 245.697 85.0568C245.428 85.0568 245.209 84.8381 245.209 84.5683V82.4152C245.209 82.1455 245.428 81.9268 245.697 81.9268Z" fill="#6B93F6"/>
<path d="M242.675 84.8875H244.61C244.88 84.8875 245.098 85.1062 245.098 85.3759C245.098 85.6457 244.88 85.8644 244.61 85.8644H242.675C242.406 85.8644 242.187 85.6457 242.187 85.3759C242.187 85.1056 242.406 84.8875 242.675 84.8875Z" fill="#6B93F6"/>
<path d="M246.786 84.8875H248.72C248.99 84.8875 249.209 85.1062 249.209 85.3759C249.209 85.6457 248.99 85.8644 248.72 85.8644H246.786C246.516 85.8644 246.297 85.6457 246.297 85.3759C246.297 85.1056 246.516 84.8875 246.786 84.8875Z" fill="#6B93F6"/>
<path d="M262.884 97.7595C263.154 97.7595 263.372 97.9782 263.372 98.248V100.401C263.372 100.671 263.153 100.89 262.884 100.89C262.614 100.89 262.396 100.671 262.396 100.401V98.248C262.396 97.9782 262.614 97.7595 262.884 97.7595Z" fill="#FFAA01"/>
<path d="M262.884 93.9917C263.154 93.9917 263.372 94.2104 263.372 94.4802V96.6332C263.372 96.903 263.153 97.1217 262.884 97.1217C262.614 97.1217 262.396 96.903 262.396 96.6332V94.4802C262.396 94.2098 262.614 93.9917 262.884 93.9917Z" fill="#FFAA01"/>
<path d="M259.862 96.9519H261.796C262.066 96.9519 262.285 97.1706 262.285 97.4404C262.285 97.7102 262.066 97.9288 261.796 97.9288H259.862C259.592 97.9288 259.374 97.7102 259.374 97.4404C259.374 97.1706 259.592 96.9519 259.862 96.9519Z" fill="#FFAA01"/>
<path d="M263.972 96.9519H265.907C266.177 96.9519 266.395 97.1706 266.395 97.4404C266.395 97.7102 266.177 97.9288 265.907 97.9288H263.972C263.703 97.9288 263.484 97.7102 263.484 97.4404C263.484 97.1706 263.703 96.9519 263.972 96.9519Z" fill="#FFAA01"/>
<path d="M67.9927 66.9844C69.7089 66.9844 71.1055 68.3809 71.1055 70.0972C71.1055 71.8134 69.7089 73.21 67.9927 73.21C66.2764 73.21 64.8799 71.8134 64.8799 70.0972C64.8805 68.3803 66.2764 66.9844 67.9927 66.9844ZM67.9927 67.9608C66.8148 67.9608 65.8568 68.9193 65.8568 70.0966C65.8568 71.2745 66.8148 72.2325 67.9927 72.2325C69.1705 72.2325 70.1291 71.2745 70.1291 70.0966C70.1291 68.9188 69.1705 67.9608 67.9927 67.9608Z" fill="#6B93F6"/>
<path d="M56.6567 56.7029C58.373 56.7029 59.7695 58.0994 59.7695 59.8157C59.7695 61.5319 58.373 62.9285 56.6567 62.9285C54.9405 62.9285 53.5439 61.5319 53.5439 59.8157C53.5445 58.0988 54.9405 56.7029 56.6567 56.7029ZM56.6567 57.6793C55.4789 57.6793 54.5209 58.6373 54.5209 59.8151C54.5209 60.993 55.4789 61.951 56.6567 61.951C57.8346 61.951 58.7926 60.9924 58.7926 59.8151C58.7932 58.6373 57.8352 57.6793 56.6567 57.6793Z" fill="#FFAA01"/>
<path d="M52.5508 74.4948C52.5508 74.7646 52.7695 74.9833 53.0393 74.9833H55.1923C55.4621 74.9833 55.6808 74.7646 55.6808 74.4948C55.6808 74.225 55.4621 74.0063 55.1923 74.0063H53.0393C52.7695 74.0063 52.5508 74.225 52.5508 74.4948Z" fill="#6B93F6"/>
<path d="M48.7832 74.4948C48.7832 74.7646 49.0019 74.9833 49.2717 74.9833H51.4247C51.6945 74.9833 51.9132 74.7646 51.9132 74.4948C51.9132 74.225 51.6945 74.0063 51.4247 74.0063H49.2717C49.0013 74.0063 48.7832 74.225 48.7832 74.4948Z" fill="#6B93F6"/>
<path d="M51.7432 71.472V73.4064C51.7432 73.6762 51.9619 73.8949 52.2316 73.8949C52.5014 73.8949 52.7201 73.6762 52.7201 73.4064V71.472C52.7201 71.2022 52.5014 70.9841 52.2316 70.9841C51.9619 70.9841 51.7432 71.2028 51.7432 71.472Z" fill="#6B93F6"/>
<path d="M51.7432 75.5824V77.5168C51.7432 77.7865 51.9619 78.0052 52.2316 78.0052C52.5014 78.0052 52.7201 77.7865 52.7201 77.5168V75.5824C52.7201 75.3126 52.5014 75.0945 52.2316 75.0945C51.9619 75.0945 51.7432 75.3126 51.7432 75.5824Z" fill="#6B93F6"/>
<path d="M75.3506 57.6794C75.3506 57.9492 75.5693 58.1679 75.8391 58.1679H77.9921C78.2619 58.1679 78.4806 57.9492 78.4806 57.6794C78.4806 57.4096 78.2619 57.1909 77.9921 57.1909H75.8391C75.5693 57.1909 75.3506 57.4096 75.3506 57.6794Z" fill="#FFAA01"/>
<path d="M71.583 57.6794C71.583 57.9492 71.8017 58.1679 72.0715 58.1679H74.2246C74.4943 58.1679 74.713 57.9492 74.713 57.6794C74.713 57.4096 74.4943 57.1909 74.2246 57.1909H72.0715C71.8017 57.1909 71.583 57.4096 71.583 57.6794Z" fill="#FFAA01"/>
<path d="M74.5435 54.6572V56.5916C74.5435 56.8613 74.7621 57.08 75.0314 57.08C75.3006 57.08 75.5198 56.8613 75.5198 56.5916V54.6572C75.5198 54.3874 75.3011 54.1687 75.0314 54.1687C74.7616 54.1687 74.5435 54.3874 74.5435 54.6572Z" fill="#FFAA01"/>
<path d="M74.5435 58.7675V60.7019C74.5435 60.9717 74.7621 61.1904 75.0314 61.1904C75.3006 61.1904 75.5198 60.9717 75.5198 60.7019V58.7675C75.5198 58.4977 75.3011 58.2791 75.0314 58.2791C74.7616 58.2791 74.5435 58.4977 74.5435 58.7675Z" fill="#FFAA01"/>
<path d="M205.138 72.7053C205.203 72.7208 205.273 72.7214 205.343 72.7047C206.082 72.5228 206.51 72.4493 206.515 72.4487C206.739 72.4108 206.887 72.2094 206.846 71.9993C206.806 71.7892 206.592 71.6497 206.368 71.6876C206.349 71.691 205.908 71.7662 205.134 71.9568C204.914 72.0108 204.782 72.222 204.84 72.4286C204.88 72.5698 204.997 72.672 205.138 72.7053Z" fill="#DCEDF9"/>
<path d="M181.215 90.4235C180.831 91.0801 180.462 91.7609 180.116 92.4474C180.031 92.6173 179.83 92.7017 179.643 92.6575C179.618 92.6512 179.593 92.6431 179.568 92.6322C179.363 92.541 179.274 92.3108 179.372 92.1173C179.724 91.4171 180.101 90.7219 180.493 90.0515C180.602 89.8644 180.852 89.7955 181.052 89.8983C181.251 90.001 181.324 90.2358 181.215 90.4235Z" fill="#DCEDF9"/>
<path d="M179.149 94.5294C178.852 95.2234 178.569 95.9403 178.31 96.6618C178.24 96.8541 178.025 96.962 177.819 96.9126C177.809 96.9103 177.798 96.9075 177.787 96.904C177.572 96.8357 177.456 96.6159 177.529 96.4138C177.794 95.6791 178.082 94.9478 178.384 94.2412C178.469 94.0432 178.709 93.9474 178.921 94.0266C179.131 94.1064 179.233 94.3314 179.149 94.5294Z" fill="#DCEDF9"/>
<path d="M175.657 105.854C175.457 105.807 175.323 105.626 175.35 105.43C175.455 104.661 175.579 103.891 175.719 103.143C175.758 102.933 175.971 102.792 176.196 102.829C176.422 102.867 176.569 103.066 176.53 103.276C176.393 104.013 176.271 104.771 176.167 105.529C176.138 105.741 175.932 105.891 175.706 105.863C175.689 105.861 175.673 105.858 175.657 105.854Z" fill="#DCEDF9"/>
<path d="M177.31 98.3579C177.529 98.4153 177.657 98.6288 177.596 98.8343C177.495 99.1736 177.398 99.5174 177.307 99.8555C177.201 100.246 177.099 100.645 177.005 101.041C176.955 101.25 176.734 101.381 176.512 101.334C176.508 101.333 176.505 101.332 176.501 101.331C176.286 101.28 176.152 101.076 176.201 100.871C176.298 100.468 176.401 100.062 176.508 99.6655C176.601 99.3211 176.7 98.9715 176.803 98.626C176.863 98.4234 177.085 98.304 177.3 98.3551C177.304 98.3568 177.307 98.3573 177.31 98.3579Z" fill="#DCEDF9"/>
<path d="M182.443 88.4666C182.346 88.6119 182.162 88.675 181.994 88.6348C181.953 88.6251 181.913 88.609 181.875 88.5866C181.683 88.4724 181.625 88.2336 181.747 88.0534C182.186 87.4013 182.652 86.755 183.133 86.1328C183.266 85.96 183.524 85.9215 183.708 86.0467C183.891 86.1718 183.933 86.4134 183.8 86.5868C183.329 87.1958 182.873 87.8284 182.443 88.4666Z" fill="#DCEDF9"/>
<path d="M203.032 73.3631C202.281 73.6041 201.518 73.8745 200.766 74.1661C200.681 74.1988 200.591 74.2034 200.508 74.1839C200.386 74.1546 200.28 74.0742 200.228 73.9566C200.141 73.7591 200.241 73.533 200.451 73.452C201.219 73.1541 201.998 72.8786 202.766 72.6324C202.981 72.5635 203.215 72.6714 203.289 72.8734C203.362 73.0738 203.247 73.2936 203.032 73.3631Z" fill="#DCEDF9"/>
<path d="M196.404 76.1451C196.309 76.1951 196.201 76.2054 196.103 76.1825C195.996 76.1572 195.902 76.0929 195.844 75.9959C195.733 75.8094 195.805 75.574 196.003 75.4695C196.72 75.0942 197.457 74.7343 198.195 74.399C198.4 74.3061 198.646 74.3864 198.745 74.5787C198.845 74.771 198.758 75.0023 198.554 75.0953C197.83 75.4236 197.107 75.7772 196.404 76.1451Z" fill="#DCEDF9"/>
<path d="M188.594 81.4846C188.488 81.5781 188.343 81.6086 188.211 81.577C188.138 81.5592 188.068 81.5225 188.012 81.4662C187.857 81.3107 187.865 81.0656 188.031 80.9198C188.629 80.3946 189.253 79.8791 189.887 79.3878C190.062 79.2517 190.322 79.2747 190.467 79.4394C190.611 79.6042 190.587 79.8481 190.411 79.9836C189.79 80.4657 189.179 80.9703 188.594 81.4846Z" fill="#DCEDF9"/>
<path d="M192.324 78.5928C192.222 78.6634 192.095 78.6823 191.981 78.6547C191.89 78.6335 191.808 78.5836 191.749 78.5072C191.615 78.3345 191.656 78.0928 191.839 77.9671C192.5 77.5159 193.187 77.0762 193.882 76.6601C194.073 76.5447 194.328 76.5981 194.45 76.7778C194.573 76.9574 194.517 77.1968 194.325 77.3116C193.645 77.7197 192.972 78.1502 192.324 78.5928Z" fill="#DCEDF9"/>
<path d="M185.28 84.792C185.175 84.9108 185.011 84.9562 184.862 84.9206C184.804 84.9068 184.749 84.8815 184.7 84.8437C184.525 84.7076 184.501 84.4637 184.646 84.2995C185.169 83.706 185.719 83.1205 186.281 82.5597C186.436 82.4042 186.697 82.3967 186.863 82.5431C187.029 82.6894 187.037 82.934 186.881 83.0895C186.331 83.6383 185.792 84.2111 185.28 84.792Z" fill="#DCEDF9"/>
<path d="M205.548 70.0885L204.715 63.6448L226.547 66.7754L205.548 70.0885Z" fill="#6B93F6"/>
<path d="M226.547 66.7749L206.379 71.7291L206.326 71.7429L205.312 72.9041L205.548 70.0886L226.547 66.7749Z" fill="#0077EB"/>
<path d="M205.312 72.9039L207.125 72.8815L206.326 71.7427L205.312 72.9039Z" fill="#0059D3"/>
<path d="M208.863 71.1188L206.325 71.7428L210.453 77.6205L226.547 66.7754L208.863 71.1188Z" fill="#6B93F6"/>
</svg>
