<svg width="432" height="216" viewBox="0 0 432 216" fill="none" xmlns="http://www.w3.org/2000/svg">
<g clip-path="url(#clip0_5445_60669)">
<rect width="432" height="216" fill="#F4F6FE"/>
<path d="M156.964 153.239C156.964 153.239 158.58 147.717 162.081 148.122C165.582 148.525 166.121 150.142 169.083 148.929C172.046 147.718 173.123 143.812 177.971 144.755C182.819 145.698 183.358 151.084 188.879 150.68C194.401 150.276 196.286 150.142 198.305 153.239H156.964V153.239Z" fill="#D8EAF2"/>
<path d="M171.675 38.11C171.675 38.11 173.89 33.2124 179.938 34.6726C185.917 36.1159 188.493 27.5524 193.817 28.1032C199.141 28.654 197.232 33.571 204.026 34.6726C210.819 35.7742 212.785 33.0941 215.646 38.11H171.675Z" fill="#D8EAF2"/>
<path d="M234.952 59.5999C234.952 59.5999 237.167 54.7024 243.215 56.1621C249.194 57.6054 251.769 49.0419 257.094 49.5927C262.418 50.1435 260.509 55.0605 267.302 56.1621C274.096 57.2637 276.062 54.5836 278.923 59.5999H234.952Z" fill="#D8EAF2"/>
<path d="M137.128 121.039C132.486 114.951 130.618 107.148 132.224 99.6624C133.57 93.3906 137.133 87.9504 146.004 91.2768C167.234 99.2377 176.621 92.2164 179.717 81.1028C182.812 69.9887 186.976 43.8773 206.093 47.4336C225.211 50.9898 226.37 86.606 243.747 82.4679C261.124 78.3298 277.912 75.6661 289.121 87.6865C300.329 99.7069 308.185 125.131 297.629 138.57C287.073 152.008 264.195 140.41 255.245 157.677C246.296 174.945 208.754 175.744 206.093 157.337C203.432 138.929 183.694 125.935 166.455 135.032C155.087 141.032 143.62 129.553 137.128 121.039Z" fill="#D8EAF2"/>
<path d="M162.42 194.028C181.104 194.028 196.25 192.439 196.25 190.479C196.25 188.519 181.104 186.931 162.42 186.931C143.735 186.931 128.589 188.519 128.589 190.479C128.589 192.439 143.735 194.028 162.42 194.028Z" fill="#D8EAF2"/>
<path d="M178.628 68.9257C178.619 68.9862 178.615 69.1244 178.554 69.2886L174.182 84.3265C173.668 86.0934 172.078 87.3289 170.242 87.3937C170.191 87.3937 170.139 87.398 170.087 87.398C168.311 87.398 166.713 86.2921 166.091 84.6159L165.361 82.6503L164.773 81.0649L158.833 65.042C158.017 62.8345 159.14 60.3807 161.347 59.5642C163.555 58.7434 166.009 59.871 166.825 62.0785L169.236 68.5801L169.59 69.5348L169.599 69.5564L170.355 66.9601C170.605 66.0918 171.409 65.487 172.312 65.5172C173.37 65.5561 174.588 65.9406 175.616 66.3812C176.55 66.7786 178.813 67.405 178.628 68.9257Z" fill="#00C2C4"/>
<path d="M165.361 82.6503L164.773 81.0648C164.76 77.2114 165.201 72.9735 165.227 72.71C165.244 72.5544 165.382 72.4464 165.534 72.4637C165.685 72.4767 165.797 72.6149 165.78 72.7661C165.771 72.8396 165.188 78.4685 165.361 82.6503Z" fill="#009496"/>
<path d="M170.535 65.1094C170.535 65.1094 169.729 66.1933 169.857 67.2102C169.857 67.2102 177.126 69.5465 178.692 69.8856C178.692 69.8856 179.391 68.7174 179.203 67.7187C179.203 67.7187 174.944 65.2321 170.535 65.1094Z" fill="#009496"/>
<path d="M167.444 76.8886C167.468 76.8943 167.491 76.8977 167.515 76.8977C167.644 76.8977 167.761 76.81 167.795 76.6787L169.591 69.5325L169.236 68.5774L168.448 71.7133L168.055 73.2776L167.236 76.5392C167.196 76.6929 167.29 76.8498 167.444 76.8886Z" fill="#009496"/>
<path d="M166.771 74.8938C166.862 74.8938 166.951 74.851 167.007 74.7711L168.949 72.0029C169.041 71.8728 169.009 71.6931 168.879 71.6015C168.749 71.5104 168.569 71.5415 168.478 71.672L166.535 74.4402C166.444 74.5702 166.475 74.75 166.606 74.8415C166.656 74.877 166.714 74.8938 166.771 74.8938Z" fill="#009496"/>
<path d="M177.186 67.3986L178.061 62.2085C178.061 62.2085 176.696 61.7705 174.325 61.5342C174.325 61.5342 173.409 63.6104 172.596 66.1756C174.108 66.8387 176.243 67.4975 177.186 67.3986Z" fill="#FDBB92"/>
<path d="M180.062 58.5041C180.062 58.5041 178.577 58.3486 177.139 58.705C177.538 58.4981 177.877 58.3041 178.116 58.0639C180.035 56.1419 181.945 55.7471 182.107 56.2625C182.27 56.7765 180.062 58.5041 180.062 58.5041Z" fill="#FD9676"/>
<path d="M180.523 59.3949C180.523 59.3949 182.405 58.4302 183.129 57.1593C183.853 55.8883 186.611 54.1621 185.858 53.429C185.223 52.8103 181.73 56.7631 180.148 57.5174C178.481 58.3123 180.523 59.3949 180.523 59.3949Z" fill="#FD9676"/>
<path d="M179.23 58.4519C179.23 58.4519 182.33 57.6492 183.335 56.5049C184.341 55.3605 186.895 54.1539 186.882 53.5919C186.868 53.0298 184.897 53.7089 183.415 54.9371C181.933 56.1657 179.23 58.4519 179.23 58.4519Z" fill="#FDBB92"/>
<path d="M176.694 62.9804C176.304 62.9683 175.965 62.9151 175.669 62.8335C175.322 62.7363 175.03 62.5652 174.799 62.3444C174.14 61.712 173.98 60.6804 174.427 59.8643C174.429 59.8622 174.429 59.8592 174.431 59.857C174.644 59.5403 174.954 59.2284 175.366 58.936C175.385 58.9226 175.404 58.9088 175.424 58.8949C175.502 58.8427 175.58 58.7921 175.658 58.7429C177.301 57.7316 179.726 57.7536 179.726 57.7536C179.726 57.7536 182.949 55.9206 184.325 55.1192C185.701 54.3188 187.839 53.5373 187.649 54.2414C187.459 54.946 184.307 56.9583 183.043 58.8453C181.78 60.7322 176.694 62.9804 176.694 62.9804Z" fill="#FDBB92"/>
<path d="M183.325 185.076C182.378 183.548 173.887 175.405 173.887 175.405C173.887 175.405 172.152 176.765 172.235 178.263C172.315 179.69 172.255 187.198 172.276 187.989H173.307L173.887 184.563C173.887 184.563 176.235 188.319 177.997 189.605C179.759 190.891 185.714 190.66 187.143 190.469C188.571 190.279 184.272 186.603 183.325 185.076Z" fill="#181818"/>
<path d="M172.871 171.688L173.998 175.038C173.998 175.038 173.522 176.133 173.998 177.753C174.474 179.372 176.951 181.896 177.999 183.849C179.047 185.802 182.666 187.135 183.619 186.707C184.571 186.278 181.809 182.992 180.999 181.277C180.19 179.563 179.546 177.765 178.951 176.419C178.422 175.223 177.099 171.468 177.099 171.468L172.871 171.688Z" fill="#FDBB92"/>
<path d="M149.87 174.664C149.87 174.664 151.799 175.45 151.87 178.165C151.942 180.879 151.87 187.88 151.87 187.88H150.886L150.352 185.411C150.352 185.411 150.012 188.095 148.655 189.81C147.298 191.524 144.369 191.595 142.44 191.31C140.511 191.024 141.94 187.452 142.725 185.452C143.511 183.452 145.155 178.665 145.155 178.665L149.87 174.664Z" fill="#181818"/>
<path d="M149.36 170.782C149.36 170.782 149.299 174.093 149.87 174.664C150.442 175.236 151.227 177.093 150.656 179.379C150.084 181.665 149.703 184.999 148.37 186.428C147.036 187.857 143.559 187.905 143.274 186.761C142.988 185.618 145.036 181.38 145.132 179.189C145.227 176.998 145.608 171.092 145.608 171.092L149.36 170.782Z" fill="#FDBB92"/>
<path d="M138.301 109.673C138.301 109.673 137.508 105.357 138.301 102.561L165.394 102.095C165.394 102.095 165.996 110.624 166.6 113.863C166.6 113.863 145.572 114.82 138.301 109.673Z" fill="#2A83EC"/>
<path d="M150.369 117.305C149.958 127.089 149.4 142.245 149.833 143.713C150.456 145.828 150.677 154.754 150.668 160.081C150.664 162.197 150.347 169.721 150.376 173.191L144.816 173.552C143.7 165.106 141.031 150.522 140.664 146.842C140.567 145.87 140.447 144.377 140.313 142.532C140.294 142.293 140.276 142.044 140.258 141.795C139.763 134.806 139.095 123.517 138.656 115.912C138.518 113.524 138.404 111.499 138.324 110.086C138.247 108.717 138.203 107.921 138.203 107.921L150.737 109.036C150.737 109.036 150.724 109.306 150.7 109.8C150.641 111.08 150.515 113.86 150.369 117.305Z" fill="#2A83EC"/>
<path d="M150.7 109.8C150.641 111.08 150.514 113.86 150.368 117.305C146.747 117.323 142.787 116.946 138.655 115.911C138.518 113.523 138.403 111.499 138.323 110.086L150.7 109.8Z" fill="#0063CB"/>
<path d="M144.81 142.413C144.843 142.601 144.718 142.781 144.529 142.814C144.031 142.897 143.543 142.933 143.077 142.933C141.999 142.933 141.031 142.744 140.313 142.532C140.294 142.293 140.276 142.044 140.257 141.795C141.211 142.09 142.759 142.417 144.414 142.131C144.603 142.099 144.778 142.224 144.81 142.413Z" fill="#0063CB"/>
<path d="M149.063 171.468H149.639C149.369 150.08 148.105 144.21 147.988 143.686L148.915 113.086C148.92 112.927 148.795 112.794 148.636 112.789C148.477 112.782 148.344 112.909 148.339 113.068L147.411 143.705C147.41 143.73 147.413 143.755 147.418 143.78C147.433 143.84 148.791 149.741 149.063 171.468Z" fill="#0063CB"/>
<path d="M178.28 173.552C176.089 173.933 174.66 173.626 172.452 173.884C170.546 168.148 165.989 156.534 164.943 153.831C162.907 148.569 162.639 141.159 162.639 141.159L154.501 117.113L152.015 109.769L151.728 108.92L165.395 107.39L165.778 109.45L166.724 114.526L171.308 139.118L171.432 139.799L178.28 173.552Z" fill="#2A83EC"/>
<path d="M166.725 114.527C164.15 115.424 159.846 116.647 154.501 117.113L152.015 109.769L165.778 109.451L166.725 114.527Z" fill="#0063CB"/>
<path d="M171.592 172.043L172 174.597L178.85 174.205L178.647 171.484L171.592 172.043Z" fill="#0063CB"/>
<path d="M171.432 139.8C170.906 139.874 170.422 139.897 170.003 139.897C169.109 139.897 168.505 139.786 168.45 139.777C168.261 139.74 168.141 139.56 168.178 139.371C168.211 139.182 168.395 139.058 168.579 139.095C168.598 139.1 169.782 139.316 171.307 139.118L171.432 139.8Z" fill="#0063CB"/>
<path d="M173.469 172.569L172.903 172.682C167.849 158.039 166.877 154.768 165.992 152.042C164.527 147.532 164.376 140.668 164.367 140.02L154.729 113.175C154.678 113.024 154.755 112.86 154.902 112.804C155.053 112.752 155.218 112.83 155.274 112.981L164.925 139.869C164.938 139.899 164.942 139.933 164.942 139.964C164.942 140.037 165.037 147.234 166.54 151.861C167.435 154.613 168.415 157.918 173.469 172.569Z" fill="#0063CB"/>
<path d="M143.782 171.33L144.19 173.884L151.039 173.493V170.755L143.782 171.33Z" fill="#0063CB"/>
<path d="M164.763 114.204C164.746 114.207 164.729 114.209 164.712 114.211C161.427 114.69 158.095 115.129 154.754 115.387C154.563 115.402 154.37 115.417 154.178 115.429C150.643 115.68 147.098 115.717 143.589 115.373C142.438 115.259 141.291 115.103 140.155 114.896C137.617 114.432 135.905 112.032 136.317 109.485C136.703 107.094 136.956 104.829 137.123 102.699C137.147 102.382 137.171 102.069 137.192 101.759C137.36 99.2732 137.414 96.984 137.432 94.9039C137.434 94.7276 137.435 94.5523 137.436 94.3795C137.436 94.3013 137.437 94.2235 137.437 94.1466C137.439 94.0278 137.439 93.9103 137.439 93.7941C137.44 93.715 137.44 93.6368 137.44 93.56C137.44 93.3984 137.441 93.2398 137.44 93.0817C137.442 92.5957 137.441 92.1231 137.442 91.6639V91.5429C137.443 89.9558 137.45 88.5345 137.513 87.289C137.515 87.2324 137.518 87.1771 137.522 87.1219C137.537 86.8631 137.55 86.6065 137.562 86.3533C137.573 86.1079 137.586 85.8647 137.595 85.6254C137.621 84.9506 137.639 84.3005 137.649 83.6797C137.656 83.1574 137.656 82.6576 137.648 82.1828C137.638 81.6562 137.62 81.162 137.589 80.7053C137.578 80.5537 137.568 80.3978 137.556 80.2375C137.537 79.9943 137.517 79.7424 137.496 79.4837C137.483 79.3264 137.47 79.1683 137.454 79.0067C137.447 78.9367 137.441 78.8655 137.434 78.7929C137.433 78.7747 137.431 78.7579 137.43 78.741C137.421 78.6417 137.412 78.5419 137.403 78.4412C137.392 78.3427 137.384 78.2447 137.373 78.1449C137.357 77.9721 137.34 77.7954 137.321 77.6183C137.24 76.7875 137.145 75.9158 137.048 75.0228C137.016 74.7424 136.986 74.4586 136.954 74.1739C136.905 73.7329 136.854 73.2875 136.805 72.8447C136.771 72.5574 136.74 72.2714 136.707 71.9854C136.217 67.6771 135.756 63.5532 135.92 62.2438C136.204 59.9771 147.181 53.9948 147.181 53.9948L153.769 53.7878C153.769 53.7878 163.108 57.5488 164.75 59.7952C166.052 61.5768 165.729 65.6942 165.332 70.8989C165.309 71.2031 165.286 71.5094 165.262 71.8204C165.208 72.5496 165.153 73.2978 165.103 74.0612C165.092 74.2396 165.079 74.4193 165.068 74.6003C165.06 74.7144 165.053 74.8297 165.048 74.9451C165.04 75.0626 165.033 75.1801 165.026 75.2989C165.02 75.4073 165.014 75.5149 165.008 75.6233C165.001 75.7408 164.995 75.8583 164.99 75.9771C164.979 76.194 164.967 76.4113 164.958 76.6303C164.949 76.8113 164.941 76.9932 164.934 77.175C164.932 77.2079 164.931 77.2416 164.931 77.2744C164.925 77.3919 164.921 77.5094 164.918 77.6269L164.914 77.7172C164.91 77.871 164.904 78.0282 164.899 78.1829C164.894 78.3695 164.89 78.5548 164.885 78.7402C164.883 78.8261 164.881 78.9143 164.88 79.0011C164.878 79.078 164.877 79.1571 164.876 79.2352C164.876 79.2746 164.874 79.313 164.874 79.3541C164.872 79.4616 164.871 79.5688 164.87 79.6785C164.869 79.8616 164.868 80.047 164.868 80.2371V80.4315C164.868 80.9887 164.874 81.5732 164.885 82.1824C164.893 82.6684 164.905 83.1682 164.919 83.6792C164.935 84.2322 164.953 84.7973 164.976 85.3727C164.978 85.4565 164.981 85.5399 164.985 85.6245C164.992 85.8462 165.001 86.0691 165.011 86.2937C165.023 86.5672 165.036 86.8445 165.047 87.1214C165.076 87.7953 165.141 88.5604 165.231 89.4041C165.242 89.5138 165.255 89.6244 165.268 89.7363C165.289 89.916 165.309 90.0992 165.334 90.2858C165.347 90.4025 165.361 90.5187 165.377 90.6375C165.423 90.99 165.471 91.3555 165.524 91.7296C165.528 91.7624 165.533 91.7952 165.538 91.8281C165.559 91.9775 165.582 92.1279 165.603 92.2804C165.658 92.6536 165.716 93.0355 165.777 93.4256C165.858 93.9375 165.944 94.4633 166.034 95.0002C166.05 95.094 166.067 95.1903 166.083 95.2862C166.787 99.4304 167.755 104.174 168.696 108.515C169.275 111.192 167.473 113.809 164.763 114.204Z" fill="#00C2C4"/>
<path d="M159.678 93.2904C159.666 93.2904 159.654 93.2896 159.642 93.2883C154.633 92.6394 149.968 89.5908 146.937 87.1478C143.661 84.5083 141.53 81.9841 141.509 81.9586C141.411 81.8411 141.426 81.6662 141.543 81.5677C141.661 81.4692 141.836 81.4843 141.934 81.6018C142.017 81.7007 150.362 91.5261 159.713 92.7379C159.865 92.7578 159.973 92.8969 159.953 93.0485C159.935 93.1885 159.815 93.2904 159.678 93.2904Z" fill="#009496"/>
<path d="M154.754 115.385C154.563 115.4 154.371 115.414 154.178 115.427C155.524 105.231 152.694 70.0862 152.02 62.08C152.13 62.2351 152.237 62.3932 152.343 62.5547C152.343 62.5547 152.433 62.2787 152.567 61.8337C153.224 69.5311 156.102 104.776 154.754 115.385Z" fill="#009496"/>
<path d="M154.347 68.228C154.628 68.228 154.856 68.0002 154.856 67.7191C154.856 67.438 154.628 67.2102 154.347 67.2102C154.066 67.2102 153.838 67.438 153.838 67.7191C153.838 68.0002 154.066 68.228 154.347 68.228Z" fill="#009496"/>
<path d="M154.955 74.7192C155.236 74.7192 155.464 74.4914 155.464 74.2103C155.464 73.9293 155.236 73.7014 154.955 73.7014C154.674 73.7014 154.446 73.9293 154.446 74.2103C154.446 74.4914 154.674 74.7192 154.955 74.7192Z" fill="#009496"/>
<path d="M155.454 81.2251C155.735 81.2251 155.963 80.9972 155.963 80.7162C155.963 80.4351 155.735 80.2073 155.454 80.2073C155.173 80.2073 154.945 80.4351 154.945 80.7162C154.945 80.9972 155.173 81.2251 155.454 81.2251Z" fill="#009496"/>
<path d="M155.844 87.7453C156.125 87.7453 156.353 87.5175 156.353 87.2364C156.353 86.9554 156.125 86.7275 155.844 86.7275C155.563 86.7275 155.335 86.9554 155.335 87.2364C155.335 87.5175 155.563 87.7453 155.844 87.7453Z" fill="#009496"/>
<path d="M156.125 94.2793C156.406 94.2793 156.634 94.0514 156.634 93.7704C156.634 93.4893 156.406 93.2615 156.125 93.2615C155.844 93.2615 155.616 93.4893 155.616 93.7704C155.616 94.0514 155.844 94.2793 156.125 94.2793Z" fill="#009496"/>
<path d="M156.296 100.828C156.577 100.828 156.804 100.6 156.804 100.319C156.804 100.038 156.577 99.8103 156.296 99.8103C156.014 99.8103 155.787 100.038 155.787 100.319C155.787 100.6 156.014 100.828 156.296 100.828Z" fill="#009496"/>
<path d="M156.357 107.391C156.638 107.391 156.865 107.163 156.865 106.882C156.865 106.601 156.638 106.373 156.357 106.373C156.075 106.373 155.848 106.601 155.848 106.882C155.848 107.163 156.075 107.391 156.357 107.391Z" fill="#009496"/>
<path d="M149.955 65.9289C149.954 65.9289 149.952 65.9289 149.95 65.9289C149.85 65.9267 149.758 65.8718 149.709 65.7846C148.782 64.13 143.764 58.0306 143.713 57.9693C143.614 57.8487 143.631 57.6707 143.751 57.5714C143.872 57.472 144.05 57.4893 144.149 57.6098C144.344 57.8457 148.629 63.0548 149.966 65.1223C150.6 64.2557 151.338 63.822 152.167 63.838C152.323 63.8406 152.447 63.9693 152.445 64.1253C152.442 64.2812 152.316 64.4104 152.157 64.403C151.423 64.3888 150.779 64.8458 150.196 65.7945C150.145 65.8779 150.053 65.9289 149.955 65.9289Z" fill="#009496"/>
<path d="M154.822 65.1093C154.75 65.1093 154.68 65.0821 154.627 65.0315C153.601 64.0548 152.566 64.3615 152.556 64.3645C152.406 64.4107 152.248 64.3274 152.202 64.1783C152.155 64.0293 152.239 63.8707 152.388 63.8245C152.438 63.809 153.536 63.4837 154.689 64.3442L157.635 55.7755C157.686 55.6277 157.847 55.5495 157.994 55.6001C158.142 55.6511 158.22 55.8118 158.17 55.9591L155.089 64.9183C155.058 65.0095 154.983 65.0782 154.889 65.1011C154.867 65.1067 154.844 65.1093 154.822 65.1093Z" fill="#009496"/>
<path d="M146.073 56.5409C146.073 56.5409 149.594 58.3747 152.344 62.5565C152.344 62.5565 154.186 56.8545 153.785 55.5127C153.785 55.5127 147.8 54.2746 146.073 56.5409Z" fill="#FDBB92"/>
<path d="M156.812 109.337C151.456 109.337 144.86 106.764 144.546 106.64C144.399 106.582 144.326 106.415 144.384 106.267C144.442 106.119 144.609 106.046 144.758 106.104C144.843 106.138 153.369 109.464 158.758 108.622C158.916 108.598 159.063 108.705 159.087 108.862C159.112 109.02 159.004 109.167 158.847 109.191C158.201 109.293 157.517 109.337 156.812 109.337Z" fill="#009496"/>
<path d="M138.714 72.7371L137.046 75.0216C137.015 74.7403 136.984 74.4569 136.953 74.1727L138.248 72.3984C138.342 72.2693 138.523 72.2416 138.65 72.3349C138.779 72.4283 138.807 72.6093 138.714 72.7371Z" fill="#009496"/>
<path d="M135.295 98.5608C135.295 98.5608 135.491 100.053 134.926 101.377C134.362 102.7 135.639 103.115 135.914 101.538C136.147 100.208 135.295 98.5608 135.295 98.5608Z" fill="#FD9676"/>
<path d="M136.806 90.7071C136.806 90.7071 137.488 89.8332 138.678 90.6125C139.868 91.3918 140.558 93.3976 140.024 93.8719C139.491 94.3458 138.725 92.3288 138.011 92.5323C137.296 92.7358 138.093 96.8661 138.226 98.0299C138.359 99.1938 138.017 103.715 137.016 103.204C136.015 102.692 136.371 101.652 135.679 99.6867C134.971 97.6774 134.198 95.8691 133.818 94.7243C133.157 92.7289 136.806 90.7071 136.806 90.7071Z" fill="#FDBB92"/>
<path d="M134.02 94.2792C134.02 94.2792 127.463 90.4759 125.504 88.6321L129.725 85.1506L136.806 90.707C136.806 90.707 137.261 95.0452 134.02 94.2792Z" fill="#FDBB92"/>
<path d="M135.087 97.5459C135.087 97.5459 135.785 100.389 135.511 101.67C135.213 103.059 136.106 103.978 136.722 101.748C137.338 99.5175 135.087 97.5459 135.087 97.5459Z" fill="#FDBB92"/>
<path d="M140.623 61.7954C140.096 61.3781 138.963 60.0298 137.095 60.7417C136.451 60.9871 135.897 61.4243 135.475 61.9699L121.13 80.5278C119.833 82.2441 120.018 84.6577 121.562 86.1555L126.726 91.9719C128.872 89.8262 131.018 87.6804 133.163 85.5347L130.54 82.9889L130.236 82.6938L130.203 82.6614L130.389 82.4148L130.547 82.2052L141.449 68.1985C142.868 66.3193 142.468 63.2568 140.623 61.7954Z" fill="#00C2C4"/>
<path d="M132.362 83.979L125.504 91.139L126.974 92.6462L133.945 85.8634L132.362 83.979Z" fill="#009496"/>
<path d="M130.54 82.988L126.185 83.0446H126.182C126.024 83.0446 125.896 82.918 125.894 82.7599C125.891 82.6009 126.019 82.4709 126.178 82.4683L129.692 82.4234L130.389 82.4143L130.202 82.661L130.236 82.6934L130.54 82.988Z" fill="#009496"/>
<path d="M130.389 82.4142L130.203 82.6609L130.236 82.6933L129.692 82.4237L127.404 81.2845C127.261 81.2141 127.204 81.0413 127.274 80.8988C127.345 80.7558 127.518 80.6983 127.661 80.7696L130.547 82.2051L130.389 82.4142Z" fill="#009496"/>
<path d="M152.638 37.4642C152.638 37.4642 155.268 44.0081 153.68 48.7359C152.091 53.4637 150.015 54.9965 153.442 55.8795C156.869 56.7625 159.482 57.4234 162.145 58.4075C165.359 59.5955 160.648 42.592 158.297 37.0183C155.892 31.3159 148.576 31.7298 148.576 31.7298L152.638 37.4642Z" fill="#181818"/>
<path d="M158.084 41.7018C158.084 41.7018 159.984 34.6568 154.105 32.3529C148.226 30.0486 143.108 33.2169 142.186 37.0185C141.265 40.8201 143.848 42.8445 143.848 42.8445L158.084 41.7018Z" fill="#181818"/>
<path d="M150.89 57.052C152.517 57.2524 153.039 56.4662 153.441 55.8795L153.346 53.0292L153.291 51.3668L153.294 51.1202L152.564 51.1478L147.034 50.4104L146.82 53.8837L146.718 55.5309C147.495 56.0726 148.524 56.7604 150.89 57.052Z" fill="#FDBB92"/>
<path d="M153.346 53.0292C151.814 54.0155 148.524 54.1628 146.82 53.8842C146.814 53.8842 146.809 53.8829 146.804 53.882L147.034 50.4109L152.564 51.1483L153.294 51.1207L153.291 51.3673L153.346 53.0292Z" fill="#181818"/>
<path d="M156.129 42.0353C156.129 42.0353 159.14 40.6503 158.938 43.524C158.716 46.6875 156.079 46.1929 155.618 46.0585L156.129 42.0353Z" fill="#FD9676"/>
<path d="M154.628 47.4596C154.628 48.6506 155.597 49.6196 156.788 49.6196C157.979 49.6196 158.948 48.6506 158.948 47.4596C158.948 46.4435 158.242 45.5908 157.296 45.3618C157.295 45.364 157.294 45.3666 157.293 45.37C157.149 45.4318 157.134 45.5523 157.139 45.6798C157.972 45.8435 158.602 46.5796 158.602 47.4596C158.602 48.4597 157.789 49.274 156.788 49.274C155.788 49.274 154.974 48.4597 154.974 47.4596C154.974 47.0082 155.139 46.5943 155.414 46.2777C155.485 46.196 155.564 46.12 155.647 46.0517C155.554 45.9895 155.463 45.9148 155.379 45.8258C155.302 45.8915 155.228 45.964 155.161 46.0414C154.829 46.4207 154.628 46.917 154.628 47.4596Z" fill="white"/>
<path d="M156.923 44.9345C156.917 44.9345 156.911 44.9341 156.904 44.9336C156.81 44.9237 156.741 44.8386 156.751 44.7436C156.9 43.3413 157.824 42.7253 157.863 42.6998C157.943 42.6479 158.05 42.6704 158.102 42.7503C158.154 42.8302 158.132 42.9369 158.052 42.9892C158.017 43.0121 157.225 43.5491 157.095 44.7803C157.085 44.8684 157.01 44.9345 156.923 44.9345Z" fill="#FD7764"/>
<path d="M157.964 44.1983C157.915 44.1983 157.866 44.1771 157.831 44.1365C157.825 44.1296 157.565 43.8272 157.263 43.8686C157.169 43.882 157.081 43.8155 157.069 43.7213C157.056 43.6267 157.122 43.5395 157.216 43.5265C157.708 43.4582 158.081 43.8963 158.097 43.9149C158.158 43.9879 158.148 44.0972 158.075 44.1581C158.042 44.1849 158.003 44.1983 157.964 44.1983Z" fill="#FD7764"/>
<path d="M152.875 52.2103C150.398 52.8833 147.351 52.0785 145.456 49.0001C145.147 48.4977 144.81 47.8834 144.581 47.1364C144.55 47.0323 144.519 46.9256 144.489 46.8168C143.567 43.4623 143.706 38.4623 143.706 38.4623C145.312 35.0676 149.877 35.2266 152.519 35.2655C155.161 35.3044 157.941 36.2004 157.799 41.3965C157.656 46.6656 155.152 51.5917 152.875 52.2103Z" fill="#FDBB92"/>
<path d="M153.786 43.3746C153.782 43.8688 154.002 44.271 154.278 44.2731C154.554 44.2753 154.781 43.8757 154.784 43.3815C154.786 43.1867 154.752 43.0069 154.695 42.8596C155.189 42.8838 155.353 42.5775 155.353 42.5775C155.034 42.6203 154.608 42.5486 154.406 42.5084C154.335 42.4933 154.291 42.4829 154.291 42.4829C154.016 42.4803 153.789 42.8791 153.786 43.3746Z" fill="#181818"/>
<path d="M154.292 42.4829C154.292 42.4829 154.335 42.4933 154.407 42.5084C154.37 42.492 154.332 42.4829 154.292 42.4829Z" fill="#181818"/>
<path d="M157.156 45.4757C157.158 45.7781 156.544 46.0278 155.785 46.0334C155.026 46.0391 154.409 45.7984 154.407 45.496C154.405 45.1936 155.018 44.9439 155.777 44.9383C156.536 44.9327 157.153 45.1733 157.156 45.4757Z" fill="#FD9676"/>
<path d="M148.822 45.5365C148.824 45.8389 148.211 46.0886 147.451 46.0942C146.692 46.0999 146.075 45.8592 146.073 45.5568C146.071 45.2544 146.684 45.0047 147.443 44.9991C148.203 44.9935 148.82 45.2341 148.822 45.5365Z" fill="#FD9676"/>
<path d="M144.57 43.2224C144.567 42.8055 144.333 42.4262 143.963 42.2336C143.048 41.7562 141.891 41.5812 141.505 42.7554C140.791 44.9353 143.045 47.3765 144.592 46.7795L144.57 43.2224Z" fill="#FDBB92"/>
<path d="M145.406 46.5216C145.38 46.5548 145.353 46.5872 145.326 46.617C145.245 46.7069 145.161 46.7851 145.073 46.8533C144.913 46.9791 144.745 47.0698 144.581 47.1367C144.549 47.0318 144.518 46.9259 144.489 46.8166C144.607 46.7695 144.726 46.7082 144.84 46.6278C144.933 46.5656 145.024 46.4909 145.108 46.4019C145.141 46.366 145.175 46.328 145.206 46.2892C145.256 46.2222 145.344 46.2222 145.399 46.2879C145.455 46.3522 145.46 46.4585 145.406 46.5216Z" fill="#FD9676"/>
<path d="M143.666 45.4766C143.58 45.4766 143.506 45.4127 143.495 45.325C143.324 43.9512 142.346 43.3499 142.336 43.3443C142.255 43.295 142.228 43.1892 142.277 43.1075C142.326 43.0259 142.431 42.9987 142.513 43.0475C142.559 43.0747 143.645 43.7348 143.838 45.2826C143.85 45.3772 143.783 45.4636 143.688 45.4753C143.68 45.4762 143.673 45.4766 143.666 45.4766Z" fill="#FD9676"/>
<path d="M142.433 44.6803C142.393 44.6803 142.353 44.6665 142.32 44.6384C142.248 44.5762 142.24 44.4678 142.302 44.3952C142.319 44.3749 142.738 43.8937 143.299 43.9563C143.393 43.9671 143.462 44.0526 143.451 44.1472C143.44 44.2419 143.354 44.3101 143.26 44.2997C142.884 44.2578 142.567 44.6168 142.564 44.6203C142.53 44.66 142.481 44.6803 142.433 44.6803Z" fill="#FD9676"/>
<path d="M145.859 48.0353C145.859 49.2263 144.89 50.1953 143.699 50.1953C142.508 50.1953 141.539 49.2263 141.539 48.0353C141.539 47.0192 142.245 46.1665 143.191 45.9375C143.192 45.9397 143.193 45.9423 143.194 45.9457C143.339 46.0075 143.353 46.128 143.348 46.2555C142.515 46.4192 141.885 47.1553 141.885 48.0353C141.885 49.0354 142.698 49.8497 143.699 49.8497C144.699 49.8497 145.513 49.0354 145.513 48.0353C145.513 47.5839 145.348 47.17 145.073 46.8533C145.002 46.7717 144.923 46.6957 144.84 46.6274C144.933 46.5652 145.024 46.4905 145.108 46.4015C145.185 46.4671 145.259 46.5397 145.326 46.617C145.657 46.9963 145.859 47.4927 145.859 48.0353Z" fill="white"/>
<path d="M152.081 46.3798C152.025 46.3798 151.971 46.3531 151.937 46.3034C151.884 46.2243 151.905 46.1167 151.984 46.0636C152.376 45.8005 152.746 45.4821 152.801 45.3625C152.671 44.9897 152.071 43.2522 152.071 43.2522L152.398 43.1394C152.398 43.1394 153.03 44.9685 153.136 45.2756C153.166 45.362 153.258 45.6256 152.177 46.3505C152.147 46.3703 152.114 46.3798 152.081 46.3798Z" fill="#FD9676"/>
<path d="M149.413 43.3746C149.417 43.8688 149.197 44.271 148.921 44.2731C148.645 44.2753 148.418 43.8757 148.415 43.3815C148.413 43.1867 148.447 43.0069 148.505 42.8596C148.01 42.8838 147.846 42.5775 147.846 42.5775C148.165 42.6203 148.591 42.5486 148.793 42.5084C148.864 42.4933 148.908 42.4829 148.908 42.4829C149.183 42.4803 149.41 42.8791 149.413 43.3746Z" fill="#181818"/>
<path d="M148.907 42.4829C148.907 42.4829 148.864 42.4933 148.792 42.5084C148.829 42.492 148.867 42.4829 148.907 42.4829Z" fill="#181818"/>
<path d="M154.515 47.7415C154.286 48.3177 153.902 48.9204 153.253 49.282C153.191 49.3165 153.127 49.3489 153.06 49.3792C152.681 49.5498 152.224 49.6423 151.67 49.6146C151.214 49.5926 150.825 49.4245 150.497 49.1761C150.433 49.1277 150.37 49.0763 150.31 49.0223C149.919 48.6685 149.624 48.2054 149.414 47.779L154.515 47.7415Z" fill="white"/>
<path d="M151.914 50.5482C151.354 50.5482 150.994 50.3486 150.978 50.34C150.895 50.2929 150.866 50.1875 150.912 50.1046C150.959 50.0216 151.064 49.9922 151.147 50.0385C151.154 50.0419 151.476 50.2147 151.968 50.2018C152.469 50.1884 152.782 50.0251 152.785 50.0233C152.87 49.9788 152.974 50.0104 153.019 50.0942C153.064 50.178 153.033 50.2825 152.949 50.3275C152.934 50.3357 152.566 50.5314 151.977 50.5469C151.956 50.5478 151.934 50.5482 151.914 50.5482Z" fill="#FD9676"/>
<path d="M156.201 41.5804C155.981 41.5251 155.742 41.4936 155.511 41.4836C155.278 41.4741 155.048 41.4875 154.826 41.5238C154.603 41.5571 154.389 41.621 154.191 41.7053C153.989 41.783 153.812 41.9048 153.644 42.0254L153.627 42.0379C153.445 42.1688 153.191 42.1269 153.06 41.945C152.929 41.7627 152.971 41.5091 153.153 41.3787C153.174 41.3635 153.198 41.3502 153.22 41.3394C153.474 41.2227 153.733 41.1195 154.001 41.0724C154.268 41.0188 154.535 40.9968 154.798 41.0102C155.06 41.021 155.316 41.0581 155.564 41.119C155.813 41.1817 156.049 41.2612 156.284 41.3739C156.339 41.4007 156.363 41.4672 156.336 41.523C156.313 41.5718 156.259 41.596 156.208 41.583L156.201 41.5804Z" fill="#181818"/>
<path d="M146.8 41.4982C147.061 41.3613 147.325 41.2615 147.605 41.1807C147.883 41.1017 148.171 41.049 148.467 41.0265C148.762 41.0006 149.065 41.0144 149.366 41.0641C149.67 41.106 149.965 41.211 150.254 41.331C150.461 41.4166 150.559 41.6538 150.473 41.8607C150.388 42.0676 150.151 42.1657 149.944 42.0801C149.923 42.0715 149.904 42.0616 149.886 42.0503L149.863 42.0365C149.66 41.9086 149.446 41.7812 149.208 41.7056C148.973 41.6226 148.722 41.5643 148.464 41.5419C148.206 41.5164 147.941 41.5164 147.676 41.5436C147.413 41.5712 147.142 41.6231 146.893 41.7021L146.885 41.7047C146.827 41.7233 146.764 41.6909 146.745 41.6322C146.728 41.5786 146.753 41.5229 146.8 41.4982Z" fill="#181818"/>
<path d="M145.859 37.7481C145.859 37.7481 149.674 41.6002 157.048 40.2826C161.015 39.5737 156.625 33.8696 150.635 34.407C144.644 34.9448 145.859 37.7481 145.859 37.7481Z" fill="#181818"/>
<path d="M143.93 36.4936C143.93 36.4936 141.995 40.2191 138.922 36.929C135.85 33.6393 141.18 27.6488 144.966 27.9559C148.753 28.2631 147.845 34.3716 147.845 34.3716L143.93 36.4936Z" fill="#181818"/>
<path d="M141.03 38.8678C140.105 38.8678 139.016 38.5378 138.179 37.3018C136.202 34.3837 139.411 31.1925 139.444 31.1605C139.51 31.0961 139.615 31.0974 139.679 31.1631C139.743 31.2288 139.742 31.3342 139.676 31.3985C139.646 31.4284 136.634 34.4282 138.454 37.1152C140.079 39.5124 142.67 38.1961 142.779 38.139C142.861 38.0967 142.961 38.1282 143.004 38.2095C143.046 38.2911 143.014 38.3913 142.933 38.4341C142.918 38.4419 142.08 38.8678 141.03 38.8678Z" fill="#181818"/>
<path d="M149.016 45.9426C147.721 45.9728 146.642 44.9438 146.612 43.6487C146.582 42.3535 147.611 41.2753 148.906 41.245C150.202 41.2148 151.279 42.2438 151.31 43.539C151.339 44.8341 150.31 45.9124 149.016 45.9426ZM148.915 41.6114C147.822 41.6369 146.953 42.5471 146.978 43.64C147.004 44.7334 147.914 45.6018 149.007 45.5763C150.1 45.5508 150.969 44.6406 150.943 43.5476C150.918 42.4542 150.008 41.5855 148.915 41.6114Z" fill="white"/>
<path d="M146.724 42.9977C146.715 42.9912 145.703 42.3332 144.301 42.4071L144.05 42.0667C145.627 42.0071 146.882 42.6862 146.923 42.7147L146.724 42.9977Z" fill="white"/>
<path d="M155.435 45.7928C154.14 45.823 153.062 44.794 153.031 43.4988C153.001 42.2037 154.03 41.1254 155.325 41.0956C156.62 41.0654 157.698 42.0944 157.729 43.3895C157.759 44.6842 156.73 45.7625 155.435 45.7928ZM155.334 41.4615C154.241 41.487 153.372 42.3972 153.398 43.4902C153.423 44.5832 154.333 45.4519 155.427 45.4264C156.52 45.4009 157.389 44.4907 157.363 43.3978C157.337 42.3048 156.427 41.436 155.334 41.4615Z" fill="white"/>
<path d="M153.149 42.9684C153.144 42.9628 152.696 42.3848 152.124 42.3982C151.558 42.4111 151.178 43.0077 151.174 43.0138L150.863 42.8207C150.883 42.7891 151.349 42.05 152.115 42.0318C152.876 42.0141 153.418 42.7174 153.441 42.7472L153.149 42.9684Z" fill="white"/>
<path d="M147.845 37.4642C147.845 37.4642 145.215 44.0082 146.803 48.736C148.392 53.4638 150.23 57.1414 146.803 58.0244C143.376 58.9074 141.428 58.3147 138.485 60.0704C135.542 61.826 139.835 42.5921 142.186 37.0188C144.591 31.3164 151.907 31.7303 151.907 31.7303L147.845 37.4642Z" fill="#181818"/>
<path d="M138.006 59.9943C137.96 59.9943 137.913 59.9749 137.881 59.9368C137.824 59.8725 136.509 58.3117 136.787 54.5783C137.062 50.8903 141.206 39.5248 141.383 39.0427C141.414 38.9563 141.51 38.9122 141.596 38.9438C141.683 38.9753 141.727 39.0708 141.696 39.1572C141.652 39.2747 137.391 50.9612 137.119 54.6029C136.851 58.1993 138.119 59.7036 138.132 59.7182C138.192 59.7878 138.185 59.8928 138.116 59.9533C138.084 59.9809 138.045 59.9943 138.006 59.9943Z" fill="#181818"/>
<path d="M289.415 194.028C306.531 194.028 320.406 192.439 320.406 190.479C320.406 188.519 306.531 186.931 289.415 186.931C272.299 186.931 258.424 188.519 258.424 190.479C258.424 192.439 272.299 194.028 289.415 194.028Z" fill="#D8EAF2"/>
<path d="M290.567 97.7537C290.567 97.7537 290.212 99.216 290.631 100.593C291.05 101.97 289.736 102.245 289.631 100.647C289.543 99.2998 290.567 97.7537 290.567 97.7537Z" fill="#FD9676"/>
<path d="M289.91 89.783C289.91 89.783 289.326 88.8408 288.059 89.4875C286.792 90.1342 285.891 92.0544 286.37 92.5832C286.849 93.112 287.827 91.1887 288.516 91.4682C289.204 91.7477 287.967 95.7679 287.71 96.9105C287.452 98.0532 287.306 102.585 288.356 102.184C289.406 101.783 289.164 100.711 290.064 98.8316C290.984 96.9101 291.947 95.1955 292.447 94.0982C293.32 92.1858 289.91 89.783 289.91 89.783Z" fill="#FDBB92"/>
<path d="M292.295 93.6337C292.295 93.6337 299.223 90.5579 301.37 88.9357L297.548 85.0205L289.91 89.7829C289.91 89.7829 288.991 94.0471 292.295 93.6337Z" fill="#FDBB92"/>
<path d="M290.883 96.7671C290.883 96.7671 289.883 99.5185 290.018 100.822C290.165 102.235 289.177 103.052 288.805 100.769C288.433 98.4852 290.883 96.7671 290.883 96.7671Z" fill="#FDBB92"/>
<path d="M289.226 60.6285C289.795 60.2704 289.965 58.0097 291.746 58.9182C292.36 59.2314 293.964 60.7681 294.325 61.3556L306.591 81.3494C307.696 83.1954 307.251 85.5753 305.555 86.898L299.796 92.1252C297.893 89.7609 295.991 87.397 294.088 85.0327L296.97 82.7837L297.304 82.5232L297.341 82.4947L297.182 82.2294L297.048 82.0039L287.716 66.9055C286.507 64.8842 287.235 61.8831 289.226 60.6285Z" fill="#181818"/>
<path d="M295.052 83.572L301.1 91.428L299.477 92.7684L293.276 85.275L295.052 83.572Z" fill="#464648"/>
<path d="M296.97 82.7832L301.294 83.3077L301.297 83.3081C301.454 83.3249 301.595 83.213 301.614 83.0562C301.634 82.8985 301.52 82.7551 301.363 82.7357L297.874 82.3128L297.182 82.2285L297.341 82.4938L297.305 82.5223L296.97 82.7832Z" fill="#464648"/>
<path d="M297.182 82.229L297.341 82.4943L297.304 82.5228L297.874 82.3132L300.271 81.4268C300.421 81.3724 300.497 81.2065 300.443 81.057C300.387 80.9071 300.221 80.8315 300.071 80.8872L297.048 82.0039L297.182 82.229Z" fill="#464648"/>
<path d="M290.821 71.74C290.744 71.9806 290.668 72.2204 290.593 72.458C289.711 75.2768 288.972 77.9271 289.057 79.6772C289.295 84.529 290.308 95.2594 290.308 95.2594C282.855 99.8671 268.816 94.3051 268.816 94.3051C270.154 89.1116 270.531 85.1463 269.758 79.351C269.579 78.0127 269.179 76.4367 268.714 74.7666C268.653 74.548 268.591 74.3281 268.528 74.1065C266.997 68.694 265.032 62.5181 267.872 60.3041C270.6 58.1778 272.899 56.785 274.713 55.9603C275.453 55.6221 275.908 55.4368 275.908 55.4368L282.189 55.7184C282.189 55.7184 282.684 55.7651 283.459 55.8839C285.937 56.2623 291.531 57.999 292.848 59.9602C294.111 61.842 292.342 66.9427 290.821 71.74Z" fill="#181818"/>
<path d="M271.771 70.8767L270.553 72.4271L270.067 73.0453L268.714 74.7664C268.653 74.5478 268.59 74.3279 268.527 74.1063L269.692 72.6258C269.698 72.6159 269.706 72.6068 269.713 72.599L271.336 70.535C271.43 70.414 271.605 70.3928 271.725 70.487C271.846 70.5825 271.867 70.7566 271.771 70.8767Z" fill="#464648"/>
<path d="M269.92 73.0609C269.782 73.0609 269.662 72.9577 269.645 72.8168C269.627 72.6648 269.735 72.5265 269.887 72.508L272.223 72.2246C272.375 72.2069 272.514 72.3144 272.532 72.4665C272.551 72.6185 272.442 72.7568 272.29 72.7754L269.954 73.0588C269.943 73.0601 269.932 73.0609 269.92 73.0609Z" fill="#464648"/>
<path d="M290.821 71.7399C290.744 71.9806 290.668 72.2203 290.593 72.4579L290.186 71.7533L289.707 70.923L288.832 69.4037C288.755 69.2706 288.802 69.1008 288.934 69.0239C289.067 68.9475 289.237 68.9928 289.313 69.1259L290.821 71.7399Z" fill="#464648"/>
<path d="M290.383 71.8156C290.344 71.8156 290.305 71.8074 290.267 71.7901L288.455 70.9576C288.316 70.8937 288.254 70.7291 288.318 70.5896C288.382 70.4505 288.547 70.3891 288.686 70.4531L290.499 71.2855C290.638 71.3495 290.699 71.5141 290.635 71.6536C290.588 71.7555 290.488 71.8156 290.383 71.8156Z" fill="#464648"/>
<path d="M280.321 70.2827C280.602 70.2827 280.83 70.0548 280.83 69.7738C280.83 69.4927 280.602 69.2649 280.321 69.2649C280.04 69.2649 279.812 69.4927 279.812 69.7738C279.812 70.0548 280.04 70.2827 280.321 70.2827Z" fill="#464648"/>
<path d="M280.251 74.2868C280.532 74.2868 280.76 74.059 280.76 73.7779C280.76 73.4969 280.532 73.269 280.251 73.269C279.97 73.269 279.742 73.4969 279.742 73.7779C279.742 74.059 279.97 74.2868 280.251 74.2868Z" fill="#464648"/>
<path d="M280.181 78.2907C280.462 78.2907 280.69 78.0629 280.69 77.7818C280.69 77.5008 280.462 77.2729 280.181 77.2729C279.9 77.2729 279.672 77.5008 279.672 77.7818C279.672 78.0629 279.9 78.2907 280.181 78.2907Z" fill="#464648"/>
<path d="M280.111 82.2949C280.392 82.2949 280.62 82.0671 280.62 81.786C280.62 81.5049 280.392 81.2771 280.111 81.2771C279.83 81.2771 279.602 81.5049 279.602 81.786C279.602 82.0671 279.83 82.2949 280.111 82.2949Z" fill="#464648"/>
<path d="M280.04 86.299C280.321 86.299 280.549 86.0712 280.549 85.7902C280.549 85.5091 280.321 85.2812 280.04 85.2812C279.759 85.2812 279.531 85.5091 279.531 85.7902C279.531 86.0712 279.759 86.299 280.04 86.299Z" fill="#464648"/>
<path d="M279.97 90.303C280.251 90.303 280.479 90.0751 280.479 89.794C280.479 89.513 280.251 89.2852 279.97 89.2852C279.689 89.2852 279.461 89.513 279.461 89.794C279.461 90.0751 279.689 90.303 279.97 90.303Z" fill="#464648"/>
<path d="M274.712 55.9597C273.469 56.266 272.355 56.8967 271.407 57.5957L274.571 61.161H276.557L275.605 63.1279L280.321 67.7641L280.277 63.0147L274.712 55.9597Z" fill="#464648"/>
<path d="M283.459 55.883C284.996 55.8752 286.182 56.1888 287.708 56.855L286.061 61.1611H284.074L285.027 63.128L280.31 67.7643L280.277 63.0148C281.833 60.1662 283.04 57.6485 283.459 55.883Z" fill="#464648"/>
<path d="M283.457 55.8834C283.423 56.2895 283.297 56.7777 283.12 57.3047C282.295 59.7412 280.278 63.0158 280.278 63.0158L275.914 57.4862V57.4818C275.91 57.4775 275.91 57.4775 275.91 57.4775L274.713 55.9612C275.452 55.6199 275.91 55.4385 275.91 55.4385L282.187 55.7193C282.187 55.7193 282.684 55.7625 283.457 55.8834Z" fill="#FDBB92"/>
<path d="M283.12 57.3047C282.295 59.7412 280.277 63.0157 280.277 63.0157L275.914 57.4861V57.4818C276.087 57.5596 280.346 59.5036 283.12 57.3047Z" fill="white"/>
<path d="M274.983 49.2034C274.983 50.3845 274.022 51.3448 272.841 51.3448C271.66 51.3448 270.7 50.384 270.7 49.2034C270.7 48.1959 271.4 47.351 272.337 47.1233C272.339 47.1255 272.34 47.128 272.341 47.1315C272.484 47.1928 272.498 47.3121 272.493 47.4386C271.667 47.6006 271.042 48.3307 271.042 49.2034C271.042 50.1948 271.849 51.0022 272.841 51.0022C273.833 51.0022 274.64 50.1948 274.64 49.2034C274.64 48.7558 274.475 48.3454 274.204 48.0314C274.133 47.9501 274.055 47.875 273.972 47.8076C274.064 47.7458 274.154 47.6715 274.238 47.5838C274.314 47.649 274.387 47.7207 274.454 47.7972C274.783 48.1731 274.983 48.6655 274.983 49.2034Z" fill="white"/>
<path d="M277.335 33.4453C277.335 33.4453 275.831 37.6145 271.547 38.4046C271.062 38.494 270.631 38.4759 270.253 38.3696C267.292 37.5445 267.669 31.3863 272.174 30.0199C275.544 28.9969 276.714 30.8373 277.12 32.1929C277.325 32.8811 277.335 33.4453 277.335 33.4453Z" fill="#181818"/>
<path d="M277.334 33.4452C277.334 33.4452 275.831 37.6144 271.547 38.4045C271.062 38.494 270.63 38.4758 270.253 38.3696C270.895 36.4523 272.682 32.8266 277.12 32.1924C277.325 32.881 277.334 33.4452 277.334 33.4452Z" fill="#00C2C4"/>
<path d="M287.103 42.9243C287.103 42.9243 288.986 35.9397 283.158 33.6553C277.329 31.3708 272.255 34.5119 271.342 38.2811C270.428 42.0503 272.989 44.057 272.989 44.057L287.103 42.9243Z" fill="#181818"/>
<path d="M282.5 56.9801C280.519 57.9223 277.948 58.1029 275.813 56.9719L275.935 55.0016L276.148 51.5581L281.63 52.2891L282.354 52.2618L282.351 52.5063L282.406 54.1544L282.5 56.9801Z" fill="#FDBB92"/>
<path d="M282.405 54.1545C280.887 55.1321 277.624 55.2785 275.935 55.0021C275.929 55.0021 275.925 55.0008 275.919 54.9999L276.147 51.5586L281.63 52.2895L282.354 52.2623L282.351 52.5068L282.405 54.1545Z" fill="#181818"/>
<path d="M286.034 43.2548C286.034 43.2548 289.019 41.8819 288.819 44.7305C288.598 47.8668 285.984 47.3765 285.527 47.2435L286.034 43.2548Z" fill="#FD9676"/>
<path d="M287.756 46.5794C287.756 46.7241 287.638 46.8416 287.494 46.8416C287.349 46.8416 287.231 46.7241 287.231 46.5794C287.231 46.4346 287.349 46.3171 287.494 46.3171C287.638 46.3171 287.756 46.4346 287.756 46.5794Z" fill="white"/>
<path d="M286.821 46.129C286.815 46.129 286.809 46.1286 286.803 46.1281C286.709 46.1182 286.641 46.034 286.651 45.9398C286.798 44.5496 287.714 43.9388 287.753 43.9137C287.832 43.8623 287.938 43.8843 287.99 43.9638C288.042 44.0429 288.019 44.1487 287.94 44.2006C287.906 44.2234 287.121 44.7557 286.992 45.9761C286.982 46.0638 286.908 46.129 286.821 46.129Z" fill="#FD7764"/>
<path d="M287.853 45.3989C287.804 45.3989 287.756 45.3781 287.722 45.3375C287.716 45.3306 287.458 45.0308 287.159 45.0718C287.066 45.0852 286.979 45.0191 286.966 44.9254C286.953 44.8316 287.019 44.7452 287.112 44.7323C287.6 44.6645 287.97 45.0986 287.985 45.1176C288.046 45.1902 288.036 45.2982 287.963 45.3591C287.931 45.3859 287.892 45.3989 287.853 45.3989Z" fill="#FD7764"/>
<path d="M284.545 39.5088C284.545 39.5088 287.098 40.5089 286.623 43.3381C286.146 46.1677 284.361 51.5897 286.442 53.8232C286.442 53.8232 286.125 50.9603 287.135 47.0187C287.536 45.4579 287.629 44.1675 287.703 41.7898C287.79 38.9952 286.66 36.284 284.086 36.4118C281.512 36.5388 284.545 39.5088 284.545 39.5088Z" fill="#181818"/>
<path d="M281.939 53.3418C279.483 54.0088 276.462 53.2114 274.583 50.1593C274.277 49.6612 273.942 49.0525 273.716 48.3116C273.684 48.2084 273.654 48.1025 273.624 47.9945C272.71 44.669 272.848 39.7118 272.848 39.7118C274.44 36.3465 278.966 36.5037 281.585 36.5422C284.205 36.5811 286.961 37.4693 286.821 42.6204C286.678 47.8446 284.196 52.7292 281.939 53.3418Z" fill="#FDBB92"/>
<path d="M282.841 44.5823C282.837 45.0722 283.056 45.4709 283.329 45.4731C283.603 45.4753 283.828 45.0791 283.831 44.5892C283.832 44.3961 283.799 44.2181 283.742 44.0717C284.232 44.0959 284.395 43.7918 284.395 43.7918C284.079 43.8341 283.656 43.7632 283.456 43.7231C283.386 43.7084 283.342 43.698 283.342 43.698C283.069 43.6958 282.844 44.0911 282.841 44.5823Z" fill="#181818"/>
<path d="M283.342 43.698C283.342 43.698 283.385 43.7084 283.456 43.7231C283.42 43.7075 283.382 43.698 283.342 43.698Z" fill="#181818"/>
<path d="M286.182 46.6653C286.184 46.9651 285.576 47.2127 284.823 47.2183C284.071 47.2239 283.459 46.9854 283.457 46.6856C283.454 46.3858 284.063 46.1383 284.815 46.1327C285.568 46.127 286.18 46.3655 286.182 46.6653Z" fill="#FD9676"/>
<path d="M277.92 46.7259C277.922 47.0257 277.314 47.2732 276.561 47.2788C275.809 47.2845 275.197 47.046 275.194 46.7462C275.192 46.4464 275.8 46.1988 276.553 46.1932C277.306 46.1872 277.918 46.4261 277.92 46.7259Z" fill="#FD9676"/>
<path d="M273.705 44.432C273.702 44.0185 273.47 43.6427 273.103 43.4513C272.196 42.9779 271.048 42.8042 270.666 43.9689C269.958 46.1302 272.193 48.5507 273.726 47.9584L273.705 44.432Z" fill="#FDBB92"/>
<path d="M272.617 47.5623C272.762 47.5623 272.879 47.4449 272.879 47.3001C272.879 47.1552 272.762 47.0378 272.617 47.0378C272.472 47.0378 272.355 47.1552 272.355 47.3001C272.355 47.4449 272.472 47.5623 272.617 47.5623Z" fill="white"/>
<path d="M274.533 47.7027C274.507 47.736 274.481 47.768 274.454 47.7973C274.374 47.8863 274.29 47.9641 274.203 48.0315C274.045 48.1559 273.878 48.2462 273.716 48.3123C273.684 48.2082 273.653 48.1032 273.625 47.9948C273.741 47.9481 273.859 47.8872 273.972 47.8073C274.064 47.7455 274.155 47.6712 274.238 47.5835C274.271 47.5481 274.304 47.5105 274.335 47.4716C274.385 47.4055 274.472 47.4055 274.527 47.4703C274.581 47.5347 274.586 47.6397 274.533 47.7027Z" fill="#FD9676"/>
<path d="M272.809 46.6664C272.723 46.6664 272.65 46.6029 272.639 46.5161C272.469 45.154 271.5 44.5582 271.49 44.5522C271.409 44.5034 271.383 44.3984 271.431 44.3176C271.479 44.2364 271.584 44.2096 271.665 44.258C271.711 44.2852 272.787 44.9393 272.979 46.4741C272.99 46.5679 272.924 46.6539 272.83 46.6655C272.823 46.666 272.816 46.6664 272.809 46.6664Z" fill="#FD9676"/>
<path d="M271.586 45.877C271.546 45.877 271.507 45.8631 271.474 45.8355C271.403 45.7737 271.394 45.6661 271.456 45.5944C271.473 45.5741 271.889 45.0972 272.444 45.1594C272.538 45.1698 272.606 45.2549 272.595 45.3486C272.585 45.4424 272.499 45.5098 272.406 45.4998C272.032 45.4583 271.719 45.8143 271.716 45.8178C271.682 45.8571 271.634 45.877 271.586 45.877Z" fill="#FD9676"/>
<path d="M281.151 47.5617C281.095 47.5617 281.041 47.5349 281.008 47.4856C280.955 47.407 280.976 47.3007 281.055 47.248C281.443 46.9871 281.81 46.6713 281.864 46.5529C281.736 46.1831 281.142 44.4608 281.142 44.4608L281.466 44.3489C281.466 44.3489 282.092 46.1624 282.197 46.467C282.227 46.5529 282.317 46.8139 281.246 47.5323C281.217 47.5526 281.183 47.5617 281.151 47.5617Z" fill="#FD9676"/>
<path d="M278.506 44.5823C278.509 45.0722 278.291 45.4709 278.018 45.4731C277.744 45.4753 277.519 45.0791 277.516 44.5892C277.515 44.3961 277.548 44.2181 277.605 44.0717C277.115 44.0959 276.952 43.7918 276.952 43.7918C277.268 43.8341 277.691 43.7632 277.89 43.7231C277.961 43.7084 278.004 43.698 278.004 43.698C278.277 43.6958 278.503 44.0911 278.506 44.5823Z" fill="#181818"/>
<path d="M278.005 43.698C278.005 43.698 277.961 43.7084 277.891 43.7231C277.927 43.7075 277.965 43.698 278.005 43.698Z" fill="#181818"/>
<path d="M283.564 48.9116C283.338 49.4827 282.957 50.0806 282.313 50.4392C282.252 50.4733 282.188 50.5053 282.122 50.5355C281.746 50.7049 281.293 50.7964 280.743 50.7688C280.291 50.7468 279.906 50.5804 279.581 50.3342C279.517 50.2862 279.455 50.2353 279.396 50.1817C279.008 49.8309 278.716 49.3717 278.507 48.9492L283.564 48.9116Z" fill="white"/>
<path d="M280.985 51.6947C280.43 51.6947 280.073 51.4968 280.057 51.4882C279.975 51.4419 279.946 51.3374 279.992 51.2549C280.038 51.1728 280.143 51.1434 280.225 51.1897C280.231 51.1931 280.55 51.3642 281.039 51.3517C281.535 51.3383 281.846 51.1767 281.849 51.175C281.932 51.1305 282.036 51.162 282.08 51.2454C282.125 51.3283 282.094 51.432 282.011 51.4765C281.996 51.4847 281.632 51.6787 281.048 51.6938C281.026 51.6942 281.006 51.6947 280.985 51.6947Z" fill="#FD9676"/>
<path d="M285.224 42.9092C285.01 42.8396 284.775 42.7925 284.548 42.767C284.319 42.742 284.09 42.7403 283.867 42.7606C283.645 42.7783 283.429 42.8275 283.227 42.8975C283.022 42.961 282.839 43.0694 282.665 43.1774L282.647 43.1887C282.459 43.3057 282.21 43.2474 282.093 43.0586C281.976 42.8699 282.034 42.6215 282.223 42.5044C282.245 42.491 282.269 42.4789 282.292 42.4703C282.551 42.3718 282.814 42.2871 283.083 42.2586C283.35 42.2232 283.616 42.2197 283.875 42.2504C284.133 42.2784 284.384 42.3324 284.625 42.4098C284.868 42.4884 285.096 42.583 285.321 42.71C285.374 42.7403 285.393 42.8076 285.362 42.8608C285.336 42.9074 285.281 42.9277 285.232 42.9118L285.224 42.9092Z" fill="#181818"/>
<path d="M275.915 42.7025C276.175 42.5695 276.439 42.4736 276.716 42.3963C276.993 42.3207 277.28 42.2718 277.573 42.2524C277.865 42.2299 278.166 42.2468 278.464 42.2991C278.765 42.3435 279.055 42.4511 279.341 42.5729C279.545 42.6602 279.64 42.8961 279.553 43.1004C279.466 43.3047 279.23 43.3994 279.026 43.3125C279.005 43.3039 278.986 43.2939 278.968 43.2823L278.946 43.268C278.746 43.1393 278.535 43.0106 278.3 42.9328C278.067 42.8481 277.82 42.7876 277.564 42.7626C277.309 42.7345 277.046 42.7319 276.783 42.7561C276.522 42.7807 276.253 42.8291 276.005 42.9047L275.997 42.9069C275.939 42.9246 275.877 42.8918 275.859 42.8334C275.844 42.7816 275.868 42.7267 275.915 42.7025Z" fill="#181818"/>
<path d="M274.982 39.0043C274.982 39.0043 278.765 42.8236 286.075 41.5172C290.008 40.8144 285.656 35.159 279.717 35.6921C273.778 36.2248 274.982 39.0043 274.982 39.0043Z" fill="#181818"/>
<path d="M277.335 37.9768C277.335 37.9768 274.041 40.3796 274.49 43.2135C274.939 46.0475 276.672 51.4864 274.57 53.6999C274.57 53.6999 275.499 50.7736 274.299 46.8851C273.734 45.0508 272.88 43.9786 272.424 41.6437C271.969 39.3087 273.79 36.3771 276.363 36.5296C278.936 36.6817 277.335 37.9768 277.335 37.9768Z" fill="#181818"/>
<path d="M279.064 174.527C279.064 174.527 280.993 175.313 281.064 178.027C281.136 180.742 281.064 187.743 281.064 187.743H280.08L279.546 185.275C279.546 185.275 279.207 187.958 277.849 189.672C276.492 191.387 273.563 191.458 271.634 191.173C269.705 190.887 271.134 187.315 271.92 185.315C272.706 183.315 274.349 178.528 274.349 178.528L279.064 174.527Z" fill="#00C2C4"/>
<path d="M278.554 170.645C278.554 170.645 278.493 173.955 279.064 174.527C279.636 175.098 280.422 176.956 279.85 179.242C279.279 181.527 278.898 184.861 277.564 186.291C276.23 187.719 272.754 187.767 272.468 186.624C272.182 185.481 274.23 181.242 274.325 179.052C274.42 176.861 274.801 170.955 274.801 170.955L278.554 170.645Z" fill="#FDBB92"/>
<path d="M279.027 143.575C279.65 145.69 279.87 154.616 279.862 159.943C279.857 162.059 278.697 170.105 278.724 173.575L274.626 173.747C273.726 166.932 271.413 155.901 270.36 149.963C270.313 149.702 270.27 149.451 270.229 149.21C270.046 148.141 269.915 147.283 269.857 146.703C269.759 145.731 269.639 144.238 269.506 142.395C269.489 142.155 269.471 141.907 269.451 141.658C269.303 139.577 269.14 137.112 268.973 134.479C268.895 133.258 268.817 132.002 268.738 130.729C268.065 119.829 267.396 107.783 267.396 107.783L279.931 108.899C279.931 108.899 279.323 121.657 279.028 131.721C278.999 132.715 278.972 133.682 278.951 134.609C278.838 139.273 278.826 142.893 279.027 143.575Z" fill="#FDBB92"/>
<path d="M274.524 150.228C274.026 150.311 273.538 150.347 273.072 150.347C271.995 150.347 271.079 150.174 270.36 149.962C270.313 149.701 270.27 149.451 270.229 149.21C271.182 149.504 272.755 149.831 274.409 149.546C274.598 149.514 274.774 149.638 274.806 149.827C274.838 150.015 274.713 150.196 274.524 150.228Z" fill="#FD9676"/>
<path d="M279.028 131.721C278.998 132.715 278.972 133.682 278.951 134.609C276.478 134.841 272.392 135.065 268.973 134.479C268.895 133.259 268.817 132.001 268.738 130.729L279.028 131.721Z" fill="#FD9676"/>
<path d="M307.763 184.938C306.816 183.41 298.325 175.267 298.325 175.267C298.325 175.267 296.59 176.627 296.673 178.125C296.753 179.552 296.694 187.06 296.714 187.851H297.745L298.325 184.426C298.325 184.426 300.673 188.181 302.435 189.467C304.197 190.753 310.152 190.522 311.581 190.332C313.009 190.141 308.71 186.466 307.763 184.938Z" fill="#00C2C4"/>
<path d="M297.309 171.55L298.436 174.9C298.436 174.9 297.96 175.996 298.436 177.615C298.912 179.234 301.388 181.759 302.436 183.711C303.484 185.664 307.104 186.997 308.056 186.569C309.009 186.14 306.247 182.854 305.437 181.14C304.627 179.425 303.983 177.627 303.389 176.282C302.86 175.086 301.537 171.331 301.537 171.331L297.309 171.55Z" fill="#FDBB92"/>
<path d="M302.344 173.575C300.155 173.955 300.254 173.489 298.048 173.747C296.143 168.009 290.426 156.398 289.382 153.694C287.344 148.432 287.078 141.022 287.078 141.022L285.16 135.355L283.965 131.826L276.166 108.783L289.832 107.253L293.992 129.575L294.605 132.866L295.745 138.98L295.869 139.662L297.188 146.568L297.319 147.252L302.344 173.575Z" fill="#FDBB92"/>
<path d="M297.319 147.252C296.914 147.297 296.537 147.311 296.202 147.311C295.308 147.311 294.704 147.2 294.65 147.191C294.46 147.155 294.34 146.975 294.378 146.786C294.411 146.597 294.595 146.472 294.779 146.509C294.795 146.514 295.82 146.701 297.188 146.568L297.319 147.252Z" fill="#FD9676"/>
<path d="M294.606 132.866C292.255 133.641 288.089 134.927 285.16 135.355L283.965 131.826L293.992 129.574L294.606 132.866Z" fill="#FD9676"/>
<path d="M299.331 131.555C299.331 131.555 295.877 132.215 291.087 132.843C290.832 132.877 290.573 132.91 290.311 132.943C281.546 134.052 268.909 134.942 264.341 131.708C264.341 131.708 260.894 110.323 267.871 94.1793C267.961 93.9689 268.054 93.7598 268.148 93.552C268.599 92.5549 269.092 91.5804 269.629 90.6343C277.163 92.9122 283.965 94.0674 290.065 92.5061C290.065 92.5061 290.427 94.0065 291.011 96.4209C291.062 96.6348 291.115 96.8551 291.17 97.0823C293.525 106.847 298.862 129.037 299.331 131.555Z" fill="#2A83EC"/>
<path d="M291.087 132.844C290.832 132.878 290.574 132.91 290.311 132.943C287.361 128.824 285.008 122.045 283.301 112.727C281.939 105.298 281.461 98.6169 281.365 97.1278C281.353 96.9343 281.347 96.8293 281.347 96.8203C281.339 96.6483 281.46 96.5001 281.623 96.4699C281.625 96.4699 281.625 96.4699 281.626 96.4699C281.639 96.4664 281.654 96.4656 281.668 96.4643C281.721 96.4608 281.772 96.4712 281.818 96.4902H281.819C281.933 96.5399 282.017 96.6518 282.025 96.784C282.026 96.7939 282.034 96.9378 282.051 97.2C282.159 98.8753 282.645 105.388 283.969 112.611C285.677 121.932 288.117 128.844 291.087 132.844Z" fill="#0063CB"/>
<path d="M291.171 97.0829C289.637 97.3261 288.037 97.4276 286.43 97.4276C284.959 97.4276 283.484 97.3416 282.051 97.2004C281.821 97.1779 281.591 97.1541 281.364 97.1282C279.238 96.8906 277.221 96.5394 275.469 96.1731C272.317 95.5138 269.6 94.7259 267.871 94.1802C267.961 93.9699 268.054 93.7608 268.148 93.553C270.897 94.4144 276.094 95.8637 281.623 96.4707C281.624 96.4707 281.624 96.4707 281.625 96.4707L281.817 96.491H281.819C284.91 96.8189 288.096 96.879 291.011 96.4219C291.062 96.6353 291.115 96.8556 291.171 97.0829Z" fill="#0063CB"/>
<path d="M284.254 100.728C284.535 100.728 284.763 100.5 284.763 100.219C284.763 99.9378 284.535 99.71 284.254 99.71C283.973 99.71 283.745 99.9378 283.745 100.219C283.745 100.5 283.973 100.728 284.254 100.728Z" fill="#0063CB"/>
<path d="M284.812 105.271C285.093 105.271 285.321 105.043 285.321 104.762C285.321 104.481 285.093 104.253 284.812 104.253C284.531 104.253 284.303 104.481 284.303 104.762C284.303 105.043 284.531 105.271 284.812 105.271Z" fill="#0063CB"/>
<path d="M285.538 109.673C285.819 109.673 286.047 109.445 286.047 109.164C286.047 108.883 285.819 108.655 285.538 108.655C285.257 108.655 285.029 108.883 285.029 109.164C285.029 109.445 285.257 109.673 285.538 109.673Z" fill="#0063CB"/>
<path d="M286.95 113.456C286.95 113.736 286.722 113.965 286.442 113.965C286.161 113.965 285.933 113.737 285.933 113.456C285.933 113.175 286.16 112.947 286.442 112.947C286.722 112.947 286.95 113.174 286.95 113.456Z" fill="#0063CB"/>
<path d="M287.532 118.174C287.813 118.174 288.041 117.946 288.041 117.665C288.041 117.384 287.813 117.156 287.532 117.156C287.251 117.156 287.023 117.384 287.023 117.665C287.023 117.946 287.251 118.174 287.532 118.174Z" fill="#0063CB"/>
<path d="M289.325 121.821C289.325 122.102 289.098 122.33 288.817 122.33C288.536 122.33 288.308 122.103 288.308 121.821C288.308 121.541 288.535 121.313 288.817 121.313C289.097 121.312 289.325 121.54 289.325 121.821Z" fill="#0063CB"/>
<path d="M290.305 126.463C290.586 126.463 290.814 126.235 290.814 125.954C290.814 125.673 290.586 125.445 290.305 125.445C290.024 125.445 289.796 125.673 289.796 125.954C289.796 126.235 290.024 126.463 290.305 126.463Z" fill="#0063CB"/>
<path d="M292.006 130.6C292.287 130.6 292.515 130.372 292.515 130.091C292.515 129.81 292.287 129.582 292.006 129.582C291.725 129.582 291.497 129.81 291.497 130.091C291.497 130.372 291.725 130.6 292.006 130.6Z" fill="#0063CB"/>
<path d="M265.648 98.1438C265.648 98.1438 265.58 99.6472 264.792 100.852C264.005 102.056 265.189 102.688 265.737 101.183C266.198 99.9146 265.648 98.1438 265.648 98.1438Z" fill="#FD9676"/>
<path d="M268.511 90.6759C268.511 90.6759 269.335 89.935 270.371 90.9105C271.406 91.8859 271.734 93.982 271.126 94.3553C270.518 94.7285 270.117 92.6082 269.378 92.6838C268.639 92.7594 268.7 96.965 268.627 98.134C268.554 99.303 267.426 103.695 266.53 103.016C265.634 102.336 266.167 101.375 265.83 99.3189C265.484 97.2168 265.04 95.3013 264.867 94.1077C264.565 92.0276 268.511 90.6759 268.511 90.6759Z" fill="#FDBB92"/>
<path d="M266.865 94.2147C266.865 94.2147 260.123 90.7497 258.073 89.0074L262.111 85.3164L269.465 90.506C269.465 90.506 270.14 94.8152 266.865 94.2147Z" fill="#FDBB92"/>
<path d="M265.622 97.1084C265.622 97.1084 265.811 100.03 265.317 101.244C264.78 102.559 265.499 103.62 266.496 101.532C267.493 99.4438 265.622 97.1084 265.622 97.1084Z" fill="#FDBB92"/>
<path d="M271.808 61.4375C271.261 61.0474 270.061 59.7587 268.232 60.5644C267.6 60.8422 267.463 60.7407 267.07 61.307L253.292 81.1358C252.084 82.9161 252.391 85.3172 254.009 86.7346L259.462 92.281C261.496 90.029 263.53 87.777 265.564 85.525L262.815 83.1157L262.496 82.8366L262.461 82.8059L262.635 82.5502L262.781 82.3329L272.958 67.7905C274.281 65.8413 273.725 62.8035 271.808 61.4375Z" fill="#181818"/>
<path d="M264.686 84.0122L258.2 91.5113L259.744 92.9421L266.362 85.8136L264.686 84.0122Z" fill="#464648"/>
<path d="M262.815 83.1153L258.469 83.3931H258.465C258.308 83.4013 258.174 83.2812 258.163 83.1236C258.153 82.965 258.274 82.8285 258.432 82.8181L261.939 82.5948L262.635 82.5503L262.461 82.806L262.496 82.8367L262.815 83.1153Z" fill="#464648"/>
<path d="M262.635 82.5498L262.462 82.8056L262.497 82.8363L261.94 82.5948L259.597 81.5731C259.451 81.51 259.385 81.3407 259.448 81.1942C259.512 81.0478 259.681 80.9817 259.828 81.0456L262.783 82.3325L262.635 82.5498Z" fill="#464648"/>
<path d="M221.831 193.719C235.079 193.719 245.819 192.131 245.819 190.171C245.819 188.211 235.079 186.622 221.831 186.622C208.583 186.622 197.843 188.211 197.843 190.171C197.843 192.131 208.583 193.719 221.831 193.719Z" fill="#D8EAF2"/>
<path d="M206.101 144.697C206.123 144.931 206.154 145.148 206.184 145.348C206.223 145.591 206.262 145.803 206.31 145.99C207.729 151.668 214.202 172.371 214.202 172.371C214.202 172.371 215.817 172.006 217.406 171.65C217.584 171.611 217.766 171.572 217.944 171.533C218.326 171.446 218.699 171.359 219.029 171.285C219.029 171.285 217.874 160.619 217.97 157.372C218.113 152.515 217.358 144.371 216.537 142.747L219.771 117.665C220.205 117.634 220.691 117.591 221.178 117.534L224.742 143.706C224.742 143.706 223.869 152.714 224.699 157.88C225.688 164.023 226.461 178.969 226.461 178.969L227.39 178.943L227.937 178.93L231.367 178.835L234.01 150.053L234.045 146.094L234.049 145.438L234.379 106.03C234.379 106.03 210.829 103.886 207.595 105.809C207.595 105.809 205.202 136.362 206.101 144.697Z" fill="#181818"/>
<path d="M206.102 144.697C206.123 144.931 206.154 145.148 206.184 145.348C206.575 145.343 206.931 145.313 207.248 145.274C208.081 145.174 208.637 145 208.684 144.987C208.858 144.931 208.949 144.748 208.893 144.575C208.84 144.401 208.654 144.306 208.484 144.362C208.472 144.367 207.469 144.679 206.102 144.697Z" fill="#464648"/>
<path d="M231.514 145.734C231.566 145.747 232.118 145.921 232.955 146.025C233.281 146.064 233.646 146.09 234.045 146.095L234.049 145.439C232.708 145.422 231.731 145.118 231.714 145.109C231.544 145.057 231.358 145.152 231.306 145.322C231.249 145.495 231.345 145.678 231.514 145.734Z" fill="#464648"/>
<path d="M215.192 142.76C215.184 142.811 215.188 142.862 215.199 142.912C215.419 143.854 216.873 151.184 216.873 155.948C216.873 158.487 217.71 168.738 217.943 171.532C217.765 171.571 217.584 171.612 217.404 171.652C217.178 168.945 216.325 158.566 216.325 155.948C216.325 151.235 214.883 143.97 214.665 143.036C214.639 142.922 214.633 142.805 214.649 142.688L218.014 117.279C218.033 117.129 218.171 117.024 218.322 117.043C218.472 117.063 218.577 117.201 218.557 117.351L215.192 142.76Z" fill="#464648"/>
<path d="M227.936 178.929L227.389 178.944C227.333 177.608 226.663 162.289 225.918 157.857C225.003 152.424 225.997 143.898 226.075 143.256L222.208 117.355C222.186 117.205 222.289 117.066 222.439 117.044C222.588 117.021 222.728 117.125 222.75 117.274L226.622 143.212C226.626 143.237 226.626 143.262 226.623 143.287C226.613 143.376 225.525 152.226 226.457 157.765C227.211 162.24 227.881 177.647 227.936 178.929Z" fill="#464648"/>
<path d="M219.803 177.024C217.911 179.182 217.112 179.696 215.827 178.066L215.403 175.492L215.11 173.711L218.816 172.745L219.155 174.214L219.803 177.024Z" fill="#FDBB92"/>
<path d="M219.155 174.214L215.403 175.492L215.11 173.711L218.816 172.745L219.155 174.214Z" fill="#181818"/>
<path d="M219.812 170.594C220.313 171.803 220.339 172.331 220.196 173.329C220.196 173.329 217.492 174.369 213.915 174.655L213.462 171.844C213.462 171.844 215.777 171.308 219.812 170.594Z" fill="#464648"/>
<path d="M220.912 179.665C220.939 179.794 220.998 179.924 220.991 180.06C220.962 180.677 216.959 186.213 214.816 189.214C213.621 190.887 210.955 190.702 209.756 189.539C209.204 189.006 208.914 188.227 209.11 187.237C209.268 186.438 210.052 185.643 210.389 184.854C210.908 183.643 213.071 179.522 213.071 179.522C213.071 179.522 212.744 177.167 214.87 176.462C216.997 175.757 217.897 177.209 217.897 177.209C218.988 177.183 219.211 175.686 219.339 175.01C219.339 175.01 220.308 176.786 220.912 179.665Z" fill="#2A83EC"/>
<path d="M220.911 179.665C220.939 179.794 221.02 179.927 220.991 180.06C220.8 180.937 216.728 186.519 214.816 189.214C213.626 190.891 210.955 190.702 209.756 189.539C210.654 190.076 212.306 190.397 213.933 189.024C215.648 187.576 219.579 181.395 220.911 179.665Z" fill="#0063CB"/>
<path d="M215.482 182.294C215.567 182.279 215.646 182.232 215.698 182.155C215.799 182.005 215.759 181.803 215.61 181.702C215.56 181.668 214.374 180.877 213.302 180.87C211.875 180.86 211.305 181.946 211.281 181.992C211.199 182.153 211.263 182.349 211.423 182.431C211.584 182.513 211.78 182.449 211.862 182.289C211.878 182.259 212.282 181.517 213.297 181.523C214.171 181.529 215.235 182.237 215.246 182.244C215.318 182.292 215.403 182.307 215.482 182.294Z" fill="white"/>
<path d="M215.945 181.039C216.03 181.024 216.109 180.977 216.161 180.9C216.262 180.75 216.222 180.548 216.072 180.447C216.022 180.413 214.836 179.622 213.764 179.615C212.336 179.604 211.767 180.69 211.743 180.736C211.661 180.897 211.725 181.093 211.886 181.175C212.046 181.257 212.243 181.194 212.325 181.033C212.341 181.003 212.745 180.261 213.76 180.267C214.637 180.273 215.697 180.981 215.708 180.988C215.781 181.037 215.865 181.052 215.945 181.039Z" fill="white"/>
<path d="M214.632 183.547C214.717 183.533 214.796 183.485 214.848 183.408C214.948 183.259 214.909 183.056 214.76 182.955C214.71 182.922 213.524 182.131 212.451 182.124C211.023 182.112 210.453 183.199 210.43 183.246C210.348 183.406 210.412 183.602 210.573 183.684C210.733 183.767 210.93 183.703 211.012 183.542C211.027 183.512 211.432 182.77 212.447 182.776C213.324 182.782 214.384 183.49 214.395 183.497C214.467 183.545 214.552 183.561 214.632 183.547Z" fill="white"/>
<path d="M231.368 180.72L231.366 181.251L231.348 184.79H227.073L226.935 182.378L226.857 181.008L231.368 180.72Z" fill="#FDBB92"/>
<path d="M231.368 180.72L231.366 181.251L226.935 182.378L226.857 181.008L231.368 180.72Z" fill="#181818"/>
<path d="M225.432 190.747C225.162 190.571 225.045 190.163 225.032 189.648C225.009 188.78 225.286 187.605 225.65 186.715V186.712C225.805 185.665 226.294 183.615 226.968 182.961L227.042 184.58C227.592 184.069 228.47 183.573 229.79 183.609C230.358 183.626 230.855 183.89 231.368 184.177L231.359 182.561C231.359 182.561 232.2 183.847 232.512 184.915C233.676 186.03 234.54 187.662 234.871 189.041C234.917 189.228 234.951 189.413 234.976 189.589C235.31 191.942 226.397 191.383 225.432 190.747Z" fill="#2A83EC"/>
<path d="M225.432 190.747C225.162 190.571 225.045 190.163 225.032 189.648C226.043 190.023 227.938 190.58 230.008 190.486C233.55 190.327 234.444 189.625 234.871 189.041C234.917 189.229 234.952 189.413 234.977 189.589C235.31 191.942 226.397 191.383 225.432 190.747Z" fill="#0063CB"/>
<path d="M231.869 186.072C231.965 186.056 232.055 186.001 232.114 185.914C232.229 185.745 232.184 185.515 232.015 185.4C231.958 185.361 230.613 184.461 229.396 184.451C227.775 184.435 227.127 185.667 227.1 185.72C227.007 185.902 227.078 186.125 227.261 186.218C227.443 186.312 227.666 186.24 227.759 186.057C227.777 186.024 228.237 185.182 229.39 185.191C230.386 185.2 231.588 186.005 231.6 186.014C231.682 186.069 231.779 186.087 231.869 186.072Z" fill="white"/>
<path d="M231.678 184.775C231.774 184.759 231.864 184.705 231.923 184.618C232.037 184.448 231.993 184.218 231.823 184.103C231.767 184.065 230.422 183.165 229.205 183.154C227.584 183.139 226.935 184.371 226.909 184.423C226.815 184.605 226.887 184.829 227.069 184.922C227.251 185.016 227.474 184.944 227.568 184.761C227.586 184.728 228.046 183.886 229.199 183.895C230.195 183.903 231.396 184.709 231.408 184.717C231.49 184.772 231.587 184.791 231.678 184.775Z" fill="white"/>
<path d="M225.723 178.494L225.825 181.131L232.496 180.845L232.654 178.194L225.723 178.494Z" fill="#464648"/>
<path d="M205.613 107.003C205.531 106.698 205.483 106.379 205.479 106.049C205.462 104.847 205.508 103.445 205.699 102.053C205.759 101.616 205.82 101.162 205.881 100.695C205.956 100.121 206.034 99.5279 206.109 98.9192C206.165 98.4738 206.221 98.0189 206.275 97.5584C206.346 96.967 206.415 96.3665 206.483 95.7591C206.533 95.3077 206.582 94.8519 206.629 94.3948C206.888 91.9 207.1 89.3577 207.204 87.0396C207.226 86.5402 207.247 86.046 207.265 85.5583C207.29 84.9029 207.312 84.2601 207.33 83.6346C207.344 83.1287 207.355 82.6341 207.363 82.1532C207.365 82.0029 207.369 81.8547 207.371 81.7066C207.378 81.1951 207.382 80.7026 207.38 80.2295C207.38 79.8878 207.377 79.5561 207.373 79.2381C207.373 79.2118 207.371 79.1845 207.371 79.1582V79.1569C207.369 79.0191 207.367 78.8847 207.363 78.7478C207.172 70.1268 205.609 62.5879 207.497 60.0067C209.12 57.7845 218.358 54.0637 218.358 54.0637L224.876 54.2689C224.876 54.2689 235.735 60.1869 236.015 62.4285C236.265 64.4261 235.044 73.0462 234.522 78.7478C234.483 79.1729 234.447 79.582 234.418 79.9708C234.41 80.0585 234.404 80.144 234.398 80.2295C234.385 80.3881 234.375 80.5419 234.365 80.6922C234.357 80.8071 234.35 80.9238 234.344 81.0434C234.325 81.3947 234.313 81.7649 234.306 82.1532C234.299 82.6228 234.299 83.1175 234.305 83.6346C234.314 84.2476 234.332 84.8917 234.359 85.5583C234.378 86.0404 234.401 86.5359 234.43 87.0396C234.567 89.3452 234.868 91.9592 235.225 94.5599C235.288 95.0156 235.352 95.4727 235.418 95.9263C235.505 96.5358 235.595 97.1424 235.686 97.7394C235.757 98.1999 235.828 98.6557 235.897 99.1036C235.994 99.7158 236.09 100.315 236.182 100.897C236.259 101.363 236.333 101.819 236.404 102.26C236.615 103.558 236.697 104.816 236.711 105.909C236.717 106.288 236.666 106.655 236.568 107.002C225.845 107.876 215.493 107.951 205.613 107.003Z" fill="white"/>
<path d="M211.315 107.779H227.957V105.496H211.315V107.779Z" fill="#464648"/>
<path d="M215.541 105.388H215.136V107.874H215.541V105.388Z" fill="#E0E0E0"/>
<path d="M225.476 105.388H225.07V107.874H225.476V105.388Z" fill="#E0E0E0"/>
<path d="M222.408 108.762H218.063C217.476 108.762 216.999 108.284 216.999 107.697V105.736C216.999 105.149 217.476 104.671 218.063 104.671H222.408C222.995 104.671 223.473 105.149 223.473 105.736V107.697C223.473 108.284 222.995 108.762 222.408 108.762ZM218.063 105.559C217.966 105.559 217.886 105.639 217.886 105.736V107.697C217.886 107.794 217.966 107.874 218.063 107.874H222.408C222.505 107.874 222.585 107.795 222.585 107.697V105.736C222.585 105.639 222.506 105.559 222.408 105.559H218.063Z" fill="#E0E0E0"/>
<path d="M220.235 107.16H217.442C217.197 107.16 216.998 106.962 216.998 106.716C216.998 106.471 217.197 106.272 217.442 106.272H220.235C220.481 106.272 220.68 106.471 220.68 106.716C220.68 106.962 220.481 107.16 220.235 107.16Z" fill="#E0E0E0"/>
<path d="M220.975 96.2685C221.256 96.2685 221.484 96.0407 221.484 95.7596C221.484 95.4786 221.256 95.2507 220.975 95.2507C220.694 95.2507 220.466 95.4786 220.466 95.7596C220.466 96.0407 220.694 96.2685 220.975 96.2685Z" fill="#E0E0E0"/>
<path d="M220.975 100.978C221.256 100.978 221.484 100.751 221.484 100.47C221.484 100.189 221.256 99.9607 220.975 99.9607C220.694 99.9607 220.466 100.189 220.466 100.47C220.466 100.751 220.694 100.978 220.975 100.978Z" fill="#E0E0E0"/>
<path d="M217.69 87.8534L220.645 93.2331L224.079 87.8534L221.831 62.778L221.746 61.8306L220.253 61.8081L220.146 62.8946L217.69 87.8534Z" fill="#2A83EC"/>
<path d="M220.146 62.8946L220.885 64.5155L221.831 62.778L221.747 61.8306L220.253 61.8081L220.146 62.8946Z" fill="#0063CB"/>
<path d="M220.992 57.7893L222.688 60.0124L220.97 63.3284L219.334 59.8616L220.992 57.7893Z" fill="#2A83EC"/>
<path d="M224.71 62.8804L220.988 58.0558L217.445 62.3296L215.237 58.858C215.188 58.7803 215.211 58.6774 215.288 58.6282C215.366 58.5789 215.468 58.6018 215.518 58.6792L217.48 61.765L220.997 57.5227L224.688 62.3071L226.138 60.1C226.189 60.0231 226.292 60.002 226.369 60.0525C226.446 60.103 226.467 60.2063 226.417 60.2832L224.71 62.8804Z" fill="#E0E0E0"/>
<path d="M217.898 55.8976C220.001 56.9607 222.729 57.1642 224.995 55.8885L224.865 53.6654L224.64 49.78L218.822 50.6047L218.053 50.5736L218.056 50.8492L217.998 52.709L217.898 55.8976Z" fill="#FDBB92"/>
<path d="M224.865 53.665L221.094 56.7715L217.898 53.5466C217.898 53.5466 215.434 55.4539 218.957 56.7715C221.052 57.5543 225.703 56.5024 225.703 56.5024C225.703 56.5024 226.176 53.8369 224.865 53.665Z" fill="white"/>
<path d="M217.999 52.7095C219.611 53.8124 223.072 53.9774 224.865 53.6659C224.871 53.6659 224.876 53.6646 224.882 53.6633L224.64 49.7805L218.822 50.6052L218.053 50.5741L218.056 50.8497L217.999 52.7095Z" fill="#181818"/>
<path d="M215.365 42.3277C215.365 42.3277 212.44 40.7072 212.636 44.0691C212.853 47.77 215.413 47.1911 215.861 47.0343L215.365 42.3277Z" fill="#FD9676"/>
<path d="M214.664 45.6929C214.671 45.6929 214.678 45.6924 214.684 45.692C214.787 45.6812 214.862 45.5887 214.851 45.4855C214.69 43.964 213.687 43.2957 213.645 43.268C213.558 43.2119 213.442 43.2361 213.385 43.3229C213.329 43.4097 213.353 43.5255 213.44 43.5821C213.477 43.6072 214.337 44.1895 214.478 45.5252C214.488 45.6216 214.57 45.6929 214.664 45.6929Z" fill="#FD7764"/>
<path d="M213.535 44.8941C213.588 44.8941 213.641 44.8712 213.679 44.8271C213.685 44.8198 213.968 44.4914 214.295 44.5364C214.397 44.5511 214.492 44.4789 214.507 44.3761C214.521 44.2733 214.449 44.1787 214.346 44.1649C213.813 44.0906 213.408 44.5662 213.391 44.5865C213.325 44.666 213.336 44.7843 213.415 44.8504C213.45 44.8798 213.492 44.8941 213.535 44.8941Z" fill="#FD7764"/>
<path d="M219.477 53.4118C221.949 53.9976 224.932 52.6692 226.806 49.6249C227.085 49.1726 227.385 48.6313 227.607 47.9812C227.629 47.9155 227.652 47.849 227.673 47.7812C227.704 47.6783 227.735 47.5734 227.764 47.4645C228.676 44.1463 228.537 39.2008 228.537 39.2008C226.95 35.8433 222.434 35.9992 219.82 36.039C217.206 36.0774 214.899 37.0144 214.342 42.1254C214.311 42.4045 214.292 42.684 214.284 42.9644C214.131 47.8317 217.142 52.858 219.477 53.4118Z" fill="#FDBB92"/>
<path d="M227.097 44.2232C227.097 44.2232 227.097 43.2059 227.883 42.5129C228.715 41.7798 230.078 41.7777 230.485 43.0991C231.241 45.5516 228.852 48.3 227.216 47.6291L227.097 44.2232Z" fill="#FDBB92"/>
<path d="M228.067 46.0099C228.156 46.0099 228.233 45.9438 228.244 45.8531C228.421 44.4327 229.432 43.811 229.442 43.805C229.526 43.7544 229.554 43.6447 229.504 43.56C229.453 43.4753 229.345 43.4473 229.259 43.4978C229.212 43.5259 228.089 44.2085 227.89 45.809C227.877 45.9071 227.947 45.9961 228.045 46.0086C228.052 46.0095 228.06 46.0099 228.067 46.0099Z" fill="#FD9676"/>
<path d="M229.342 45.187C229.384 45.187 229.425 45.1728 229.459 45.1438C229.534 45.0795 229.542 44.9671 229.478 44.8924C229.46 44.8712 229.027 44.374 228.447 44.4384C228.349 44.4496 228.279 44.5377 228.29 44.6358C228.3 44.7339 228.389 44.8038 228.487 44.7935C228.877 44.7503 229.204 45.1214 229.207 45.1252C229.242 45.1659 229.292 45.187 229.342 45.187Z" fill="#FD9676"/>
<path d="M219.477 53.412C221.949 53.9978 224.932 52.6694 226.806 49.6251C227.084 49.1728 227.385 48.6315 227.607 47.9813C227.649 47.8141 227.662 47.7282 227.662 47.7282C227.662 47.7282 226.871 47.389 227.026 46.3341C227.122 45.6762 227.436 44.1106 227.436 44.1106L226.819 44.2078C226.819 44.2078 226.35 46.4598 225.122 48.4289C223.826 46.6179 220.369 47.1229 220.369 47.1229C217.87 46.5825 216.189 47.5502 215.562 48.0102C214.775 46.4386 214.495 44.562 214.463 42.9908L214.284 42.9636C214.131 47.8318 217.142 52.8582 219.477 53.412Z" fill="#181818"/>
<path d="M220.755 33.5006C226.917 32.7822 229.617 37.0534 229.96 39.2786C230.303 41.5038 229.584 42.0754 229.584 42.0754C227.549 42.3013 227.436 44.1101 227.436 44.1101L226.819 44.2073C226.819 44.2073 227.021 41.979 226.201 41.2351C225.72 40.7988 226.093 39.6631 226.482 38.7991C226.67 38.3839 226.31 37.9321 225.864 38.0254C225.036 38.1982 223.757 38.3986 221.976 38.4975C219.353 38.6436 217.498 38.0759 216.732 37.7817C216.538 37.707 216.323 37.8349 216.297 38.0413C216.067 39.8843 215.265 40.8532 214.462 42.9912L214.284 42.9636C214.284 42.9636 213.804 40.2558 214.596 38.1761C215.388 36.0969 217.059 33.9317 220.755 33.5006Z" fill="#181818"/>
<path d="M229.584 42.0753C230.158 42.0594 231.368 36.5241 230.629 36.0252C230.051 35.6342 229.529 36.0252 229.529 36.0252C229.529 36.0252 230.606 34.5136 229.855 34.3438C229.104 34.1745 228.545 34.6143 228.545 34.6143C228.545 34.6143 225.71 31.8197 222.42 31.7916C218.102 31.7544 216.032 28.679 214.103 30.6576C212.175 32.6361 212.58 36.5937 214.987 37.2996C214.987 37.2996 225.983 36.0839 229.584 42.0753Z" fill="#181818"/>
<path d="M215.188 38.2867L215.276 37.8517C215.263 37.8491 213.94 37.5644 213.338 36.3759C212.828 35.3672 212.961 34.0034 213.734 32.322L213.331 32.1367C212.497 33.9503 212.367 35.4458 212.945 36.582C213.647 37.9618 215.125 38.2737 215.188 38.2867Z" fill="#181818"/>
<path d="M214.986 46.1984C214.984 46.4978 215.591 46.7444 216.342 46.75C217.093 46.7557 217.704 46.5176 217.706 46.2183C217.708 45.9193 217.101 45.6722 216.35 45.6666C215.599 45.6614 214.988 45.899 214.986 46.1984Z" fill="#FD9676"/>
<path d="M223.478 46.1984C223.475 46.4978 224.082 46.7444 224.833 46.75C225.584 46.7557 226.195 46.5176 226.197 46.2183C226.199 45.9193 225.592 45.6722 224.841 45.6666C224.09 45.6614 223.48 45.899 223.478 46.1984Z" fill="#FD9676"/>
<path d="M220.254 47.0325C220.324 47.0325 220.389 46.9902 220.415 46.9211C220.448 46.8325 220.403 46.734 220.314 46.7012C220.044 46.6001 219.472 46.2925 219.537 46.0389C219.66 45.5628 220.434 43.4456 220.441 43.4244C220.474 43.3359 220.428 43.2374 220.34 43.205C220.251 43.1726 220.153 43.2184 220.12 43.3069C220.089 43.3946 219.333 45.4613 219.207 45.9534C219.047 46.5746 220.078 46.9776 220.196 47.0213C220.214 47.0291 220.235 47.0325 220.254 47.0325Z" fill="#FD9676"/>
<path d="M222.893 44.0592C222.889 44.5486 223.107 44.9469 223.38 44.9486C223.653 44.9508 223.877 44.5555 223.881 44.0665C223.885 43.577 223.666 43.1787 223.394 43.177C223.12 43.1749 222.896 43.5701 222.893 44.0592Z" fill="#181818"/>
<path d="M217.404 44.0592C217.4 44.5486 217.619 44.9469 217.891 44.9486C218.164 44.9508 218.388 44.5555 218.392 44.0665C218.395 43.577 218.177 43.1787 217.905 43.177C217.632 43.1749 217.407 43.5701 217.404 44.0592Z" fill="#181818"/>
<path d="M217.462 48.0205C217.71 48.6456 218.127 49.2997 218.831 49.6919C218.898 49.7291 218.968 49.7645 219.04 49.7969C219.451 49.9822 219.947 50.0824 220.549 50.0522C221.043 50.0284 221.465 49.8457 221.82 49.5766C221.89 49.5243 221.958 49.4681 222.023 49.4098C222.448 49.0258 222.767 48.5238 222.995 48.0611L217.462 48.0205Z" fill="white"/>
<path d="M225.184 42.4097C225.301 42.3716 225.399 42.2805 225.44 42.1548C225.509 41.9457 225.396 41.721 225.187 41.6519C225.123 41.6308 223.6 41.1396 222.071 41.8256C221.87 41.9159 221.78 42.1517 221.87 42.3526C221.96 42.5535 222.195 42.6438 222.397 42.5535C223.638 41.9971 224.925 42.4053 224.938 42.4092C225.021 42.4364 225.107 42.4347 225.184 42.4097Z" fill="#181818"/>
<path d="M216.004 42.3665C216.077 42.3976 216.161 42.4066 216.245 42.3876C216.268 42.3825 217.584 42.109 218.759 42.7799C218.951 42.8896 219.194 42.8227 219.303 42.6313C219.412 42.4399 219.346 42.1963 219.155 42.087C217.698 41.2549 216.136 41.5945 216.07 41.6092C215.855 41.6576 215.72 41.871 215.768 42.0861C215.798 42.217 215.889 42.3181 216.004 42.3665Z" fill="#181818"/>
<path d="M220.86 44.5585C220.889 43.2776 221.956 42.2594 223.237 42.2892C224.518 42.319 225.536 43.3856 225.507 44.6665C225.477 45.9474 224.41 46.9656 223.129 46.9358C221.848 46.906 220.83 45.8398 220.86 44.5585ZM221.222 44.5672C221.197 45.6484 222.056 46.5487 223.137 46.5742C224.219 46.5993 225.119 45.74 225.145 44.6587C225.17 43.5774 224.31 42.6772 223.229 42.6517C222.147 42.6262 221.247 43.4854 221.222 44.5672Z" fill="white"/>
<path d="M225.395 44.0232C225.404 44.0168 226.406 43.3662 227.792 43.4387L228.04 43.1018C226.479 43.043 225.238 43.7144 225.198 43.7429L225.395 44.0232Z" fill="white"/>
<path d="M214.509 44.4103C214.539 43.1294 215.605 42.1112 216.887 42.141C218.168 42.1708 219.186 43.2374 219.156 44.5187C219.126 45.7996 218.06 46.8179 216.778 46.788C215.497 46.7582 214.479 45.6916 214.509 44.4103ZM214.871 44.419C214.846 45.5003 215.705 46.4005 216.787 46.426C217.868 46.4511 218.768 45.5918 218.794 44.5105C218.819 43.4292 217.96 42.529 216.878 42.5035C215.797 42.478 214.896 43.3372 214.871 44.419Z" fill="white"/>
<path d="M219.04 43.9939C219.044 43.9883 219.488 43.4163 220.054 43.4297C220.614 43.4427 220.99 44.0328 220.993 44.0389L221.301 43.8479C221.282 43.8168 220.821 43.0854 220.063 43.0677C219.31 43.05 218.774 43.746 218.751 43.7753L219.04 43.9939Z" fill="white"/>
<path d="M213.455 64.8664L207.963 86.6807C207.815 87.2699 207.542 87.8203 207.162 88.2951L204.532 91.5826L203.672 92.6591L195.212 103.233C194.374 104.28 193.141 104.826 191.897 104.826C190.967 104.826 190.032 104.522 189.25 103.896C187.42 102.432 187.122 99.7625 188.587 97.9326L199.817 83.8956L199.849 83.8541L199.96 83.7154L200.028 83.4437L200.066 83.2934L205.226 62.7941C205.799 60.5226 208.104 59.1446 210.377 59.7165C212.649 60.2889 214.027 62.5937 213.455 64.8664Z" fill="#181818"/>
<path d="M202.765 85.831C202.708 85.9023 202.625 85.9385 202.541 85.9385C202.478 85.9385 202.414 85.9178 202.361 85.8742L200.632 84.4831L199.849 83.8537L199.96 83.715L200.028 83.4433L200.066 83.293L202.72 85.4279C202.844 85.5273 202.864 85.7083 202.765 85.831Z" fill="#464648"/>
<path d="M201.276 87.1737C201.244 87.184 201.211 87.1896 201.181 87.1896C201.063 87.1896 200.951 87.1162 200.91 86.9983L199.817 83.8956L199.849 83.8542L199.96 83.7155L200.029 83.4438C200.159 83.4278 200.286 83.5034 200.332 83.6317L200.632 84.4836L201.451 86.8078C201.503 86.9568 201.425 87.121 201.276 87.1737Z" fill="#464648"/>
<path d="M184.743 102.069C185.998 102.383 186.569 102.206 186.032 103.232C185.953 103.383 185.796 103.582 185.595 103.809C187.291 105.068 189.051 106.243 190.693 107.566C191.705 106.173 192.638 104.551 193.033 103.032C192.99 102.205 191.249 99.7937 188.574 100.267C186.097 100.705 185.437 100.348 183.679 100.909C182.158 101.396 183.488 101.755 184.743 102.069Z" fill="#FDBB92"/>
<path d="M189.367 107.686C189.36 107.686 189.353 107.685 189.346 107.685C189.229 107.67 186.447 107.309 185.627 104.889C185.597 104.8 185.645 104.702 185.735 104.671C185.825 104.641 185.922 104.689 185.953 104.779C186.704 106.995 189.361 107.339 189.388 107.343C189.482 107.354 189.549 107.44 189.538 107.534C189.527 107.622 189.453 107.686 189.367 107.686Z" fill="#FD9676"/>
<path d="M188.453 105.57C188.413 105.57 188.371 105.556 188.339 105.527C188.268 105.464 188.262 105.355 188.325 105.284C188.342 105.265 190.01 103.362 188.991 101.888C188.937 101.81 188.957 101.703 189.035 101.649C189.113 101.595 189.22 101.614 189.274 101.692C190.447 103.39 188.658 105.427 188.581 105.513C188.547 105.551 188.5 105.57 188.453 105.57Z" fill="#FD9676"/>
<path d="M203.461 103.397L194.995 113.875C194.664 114.285 194.065 114.349 193.656 114.018L178.063 101.419C177.654 101.089 177.59 100.489 177.921 100.08L186.387 89.6018C186.717 89.1927 187.317 89.1292 187.726 89.4597L203.319 102.058C203.727 102.389 203.791 102.988 203.461 103.397Z" fill="#2A83EC"/>
<path d="M192.727 101.739C192.727 102.863 191.815 103.775 190.69 103.775C189.565 103.775 188.654 102.864 188.654 101.739C188.654 100.614 189.565 99.7024 190.69 99.7024C191.815 99.7024 192.727 100.614 192.727 101.739Z" fill="#0063CB"/>
<path d="M188.11 91.561C188.11 91.8863 187.846 92.1498 187.521 92.1498C187.196 92.1498 186.932 91.8863 186.932 91.561C186.932 91.2357 187.196 90.9722 187.521 90.9722C187.846 90.9717 188.11 91.2357 188.11 91.561Z" fill="#0063CB"/>
<path d="M180.193 100.55C180.193 100.875 179.929 101.139 179.604 101.139C179.279 101.139 179.015 100.875 179.015 100.55C179.015 100.225 179.279 99.9612 179.604 99.9612C179.929 99.9612 180.193 100.225 180.193 100.55Z" fill="#0063CB"/>
<path d="M182.525 106.796C182.173 106.375 182.207 105.754 182.544 105.321C183.319 104.323 184.957 102.39 185.883 102.562C187.127 102.792 183.59 107.067 183.59 107.067C183.59 107.067 183 107.365 182.525 106.796Z" fill="#FDBB92"/>
<path d="M186.605 109.514C186.319 109.171 186.347 108.665 186.621 108.313C187.252 107.501 188.585 105.929 189.339 106.068C190.351 106.255 187.473 109.734 187.473 109.734C187.473 109.734 186.992 109.977 186.605 109.514Z" fill="#FDBB92"/>
<path d="M184.944 108.56C184.772 108.213 184.827 107.796 185.061 107.488C185.825 106.49 187.7 104.203 188.737 104.395C189.799 104.591 187.59 107.555 186.672 108.723C186.221 109.296 185.307 109.252 184.968 108.608C184.96 108.592 184.953 108.576 184.944 108.56Z" fill="#FDBB92"/>
<path d="M184.028 107.596C183.561 107.157 183.558 106.414 183.952 105.908C184.78 104.844 186.517 102.797 187.501 102.979C188.825 103.224 185.06 107.774 185.06 107.774C185.06 107.774 184.513 108.052 184.028 107.596Z" fill="#FDBB92"/>
<path d="M225.627 79.8338C225.507 87.7446 226.361 102.826 226.306 110.836C229.751 110.6 235.55 110.019 237.626 108.586C240.952 106.293 236.366 87.488 235.742 83.8195C235.118 80.1501 237.512 64.5557 236.375 61.4604C235.237 58.3639 224.865 53.6646 224.865 53.6646C224.879 54.0343 224.203 56.4682 224.079 56.7711C224.432 61.644 225.739 72.5145 225.627 79.8338Z" fill="#181818"/>
<path d="M227.9 95.649C227.771 95.5781 227.703 95.4252 227.745 95.2775C227.793 95.1051 227.972 95.0049 228.144 95.0532C233.638 96.5959 235.421 91.548 235.494 91.3324C235.551 91.1627 235.735 91.0724 235.905 91.1294C236.072 91.1868 236.165 91.3709 236.107 91.5402C236.088 91.599 234.047 97.3839 227.969 95.6771C227.944 95.6701 227.922 95.6611 227.9 95.649Z" fill="#464648"/>
<path d="M224.858 53.5471C226.321 54.0379 227.735 54.7628 229.087 55.7857L228.905 63.1617L226.8 63.9505L228.863 67.1646L228.288 84.277L225.72 88.0886C225.72 88.0886 224.825 74.0416 224.44 68.4723C224.236 65.5299 224.078 56.7716 224.078 56.7716L224.858 53.5471Z" fill="#464648"/>
<path d="M219.918 56.4981C219.918 56.4981 219.917 56.4981 219.917 56.4968C219.917 56.499 219.918 56.5003 219.918 56.5024C219.918 56.4994 219.918 56.4981 219.918 56.4981Z" fill="#181818"/>
<path d="M204.159 108.587C206.211 109.999 211.139 110.588 214.621 110.828C214.901 105.792 215.625 92.7147 215.861 87.7204C216.123 82.1458 217.318 60.6383 218.102 55.9973C217.944 55.5484 217.904 53.6248 217.999 53.0981C217.999 53.0981 206.549 58.3651 205.412 61.4617C204.274 64.5569 206.668 80.1509 206.044 83.8207C205.421 87.4884 200.834 106.293 204.159 108.587Z" fill="#181818"/>
<path d="M213.889 96.3976C213.868 96.4101 213.846 96.4205 213.822 96.4287C207.823 98.3977 205.534 92.7061 205.511 92.6487C205.447 92.4823 205.526 92.2962 205.696 92.2296C205.862 92.1648 206.05 92.2473 206.115 92.4137C206.198 92.6258 208.21 97.5886 213.62 95.8131C213.789 95.7573 213.972 95.8498 214.028 96.02C214.077 96.1656 214.015 96.3211 213.889 96.3976Z" fill="#464648"/>
<path d="M217.993 52.8679C216.333 53.4645 214.766 54.154 213.51 55.1519L212.883 62.648L214.871 63.7919L212.706 67.1645L213.281 84.2769L215.849 88.0885C215.849 88.0885 216.744 74.0416 217.129 68.4722C217.332 65.5299 218.102 55.9969 218.102 55.9969L217.993 52.8679Z" fill="#464648"/>
<path d="M206.419 82.891C206.119 85.0031 205.187 88.9347 204.532 91.5824L203.672 92.659C204.296 90.1858 205.503 85.2541 205.852 82.8107C206.322 79.505 205.31 70.8309 205.299 70.7436C205.28 70.5863 205.392 70.4442 205.55 70.4248C205.706 70.4066 205.85 70.519 205.868 70.6758C205.91 71.0361 206.9 79.5128 206.419 82.891Z" fill="#464648"/>
<path d="M206.035 75.7406C205.944 75.7406 205.854 75.697 205.798 75.6162L204.403 73.5862C204.314 73.4558 204.347 73.2773 204.477 73.1875C204.607 73.0976 204.786 73.1309 204.876 73.2614L206.271 75.2913C206.36 75.4218 206.327 75.6002 206.197 75.6901C206.147 75.7242 206.091 75.7406 206.035 75.7406Z" fill="#464648"/>
<path d="M247.146 82.9032L246.274 103.336C246.177 105.614 244.299 107.397 242.038 107.397C241.978 107.397 241.917 107.396 241.855 107.394C239.513 107.294 237.697 105.315 237.797 102.974L238.582 84.5245L238.587 84.4191L238.611 83.864L238.618 83.6942L238.545 83.5569L229.402 66.3425C228.302 64.2741 229.088 61.7054 231.158 60.606C233.227 59.5065 235.795 60.2928 236.895 62.3625L246.654 80.7324C247.008 81.4003 247.178 82.149 247.146 82.9032Z" fill="#181818"/>
<path d="M242.645 82.4229L238.583 84.5246L238.587 84.4192L238.611 83.8641L239.273 83.5223L242.382 81.9136C242.522 81.8414 242.695 81.8963 242.768 82.0376C242.84 82.1775 242.785 82.3508 242.645 82.4229Z" fill="#464648"/>
<path d="M240.75 81.4497L239.273 83.5228L238.701 84.3255C238.671 84.3678 238.631 84.4002 238.587 84.4197L238.611 83.8645L238.618 83.6948L238.545 83.5574L240.283 81.1174C240.375 80.9878 240.554 80.958 240.682 81.0496C240.812 81.1412 240.841 81.3201 240.75 81.4497Z" fill="#464648"/>
<path d="M243.618 102.508C242.758 102.003 241.357 101.554 239.494 102.209C239.494 102.209 236.977 104.445 236.633 105.591C236.29 106.738 236.711 108.364 237.045 108.641C237.379 108.917 237.923 108.86 237.837 107.827C237.751 106.795 238.21 105.907 238.698 105.735C239.185 105.563 239.04 106.928 238.783 108.782C238.526 110.637 238.192 110.751 237.585 112.328C236.978 113.905 238.038 113.274 238.869 112.328C239.701 111.382 240.131 108.888 240.131 108.888C240.131 108.888 240.173 110.204 239.959 110.923C239.685 111.845 238.224 113.61 238.683 113.955C239.142 114.298 240.38 112.973 240.896 111.654C241.412 110.336 241.45 109.92 241.45 109.92C241.45 109.92 241.498 110.909 241.269 111.511C241.039 112.113 239.807 114.077 240.208 114.254C240.584 114.42 241.842 113.288 242.215 112.429C242.588 111.569 242.654 110.465 242.654 110.465C242.654 110.465 242.969 111.469 242.682 112.243C242.395 113.017 241.937 113.848 242.424 113.762C242.912 113.676 243.8 112.472 243.829 110.982C243.857 109.491 244.116 108.402 244.202 107.714C244.26 107.25 244.422 105.408 244.521 104.255C244.582 103.546 244.23 102.868 243.618 102.508Z" fill="#FDBB92"/>
</g>
<defs>
<clipPath id="clip0_5445_60669">
<rect width="432" height="216" fill="white"/>
</clipPath>
</defs>
</svg>
