<svg width="432" height="216" viewBox="0 0 432 216" fill="none" xmlns="http://www.w3.org/2000/svg">
<g clip-path="url(#clip0_5445_54395)">
<rect width="432" height="216" fill="#F4F6FE"/>
<g clip-path="url(#clip1_5445_54395)">
<path d="M40.4644 166.644H385.546" stroke="#A2AAAA" stroke-miterlimit="10" stroke-linecap="round" stroke-linejoin="round"/>
<path d="M40.4644 158.083H385.546" stroke="#A2AAAA" stroke-miterlimit="10" stroke-linecap="round" stroke-linejoin="round"/>
<path d="M327.317 99.9456H98.6934V162.007H104.376V175.207H113.693V162.007H312.317V175.207H321.634V162.007H327.317V99.9456Z" fill="#F1F2F2"/>
<path d="M327.317 99.9456H98.6934V162.007H104.376V175.207H113.693V162.007H312.317V175.207H321.634V162.007H327.317V99.9456Z" stroke="#A2AAAA" stroke-width="1.1432" stroke-miterlimit="10" stroke-linecap="round" stroke-linejoin="round"/>
<path d="M323.204 103.507H102.805V126.707H323.204V103.507Z" stroke="#A2AAAA" stroke-width="1.1432" stroke-miterlimit="10" stroke-linecap="round" stroke-linejoin="round"/>
<path d="M103.226 157.472H322.784" stroke="#A2AAAA" stroke-width="1.1432" stroke-miterlimit="10" stroke-linecap="round" stroke-linejoin="round"/>
<path d="M153.562 74.593H113.016V98.1768H153.562V74.593Z" stroke="#A2AAAA" stroke-miterlimit="10" stroke-linecap="round" stroke-linejoin="round"/>
<path d="M127.065 85.6479L120.643 96.4043V99.9359H131.399V96.4043L137.179 85.6479H127.065Z" fill="#F1F2F2"/>
<path d="M127.065 85.6479L120.643 96.4043V99.9359H131.399V96.4043L137.179 85.6479H127.065Z" stroke="#A2AAAA" stroke-miterlimit="10" stroke-linecap="round" stroke-linejoin="round"/>
<path d="M121.718 96.5369C121.907 96.5369 129.852 96.5369 129.852 96.5369" stroke="#A2AAAA" stroke-miterlimit="10" stroke-linecap="round" stroke-linejoin="round"/>
<path d="M151.986 74.7825V98.0506" stroke="#A2AAAA" stroke-miterlimit="10" stroke-linecap="round" stroke-linejoin="round"/>
<path d="M233.278 74.593H192.732V98.1768H233.278V74.593Z" stroke="#A2AAAA" stroke-miterlimit="10" stroke-linecap="round" stroke-linejoin="round"/>
<path d="M206.781 85.6479L200.359 96.4043V99.9359H211.116V96.4043L216.895 85.6479H206.781Z" fill="#F1F2F2"/>
<path d="M206.781 85.6479L200.359 96.4043V99.9359H211.116V96.4043L216.895 85.6479H206.781Z" stroke="#A2AAAA" stroke-miterlimit="10" stroke-linecap="round" stroke-linejoin="round"/>
<path d="M201.434 96.5369C201.623 96.5369 209.568 96.5369 209.568 96.5369" stroke="#A2AAAA" stroke-miterlimit="10" stroke-linecap="round" stroke-linejoin="round"/>
<path d="M231.702 74.7822V98.0503" stroke="#A2AAAA" stroke-miterlimit="10" stroke-linecap="round" stroke-linejoin="round"/>
<path d="M272.449 98.1768H312.995V74.593H272.449V98.1768Z" stroke="#A2AAAA" stroke-miterlimit="10" stroke-linecap="round" stroke-linejoin="round"/>
<path d="M298.945 85.6479L305.367 96.4043V99.9359H294.611V96.4043L288.831 85.6479H298.945Z" fill="#F1F2F2"/>
<path d="M298.945 85.6479L305.367 96.4043V99.9359H294.611V96.4043L288.831 85.6479H298.945Z" stroke="#A2AAAA" stroke-miterlimit="10" stroke-linecap="round" stroke-linejoin="round"/>
<path d="M304.293 96.5371C304.104 96.5371 296.159 96.5371 296.159 96.5371" stroke="#A2AAAA" stroke-miterlimit="10" stroke-linecap="round" stroke-linejoin="round"/>
<path d="M274.025 74.7825V98.0506" stroke="#A2AAAA" stroke-miterlimit="10" stroke-linecap="round" stroke-linejoin="round"/>
<path d="M289.003 200.229C301.671 200.229 311.941 196.759 311.941 192.478C311.941 188.197 301.671 184.727 289.003 184.727C276.335 184.727 266.066 188.197 266.066 192.478C266.066 196.759 276.335 200.229 289.003 200.229Z" fill="#E6E7E8"/>
<path d="M282.002 48.6364C282.431 48.5561 282.929 48.3876 283.044 47.9665C283.136 47.6305 282.917 47.2683 282.613 47.0971C282.31 46.9259 281.945 46.9077 281.597 46.9275C280.643 46.9805 279.686 47.3004 278.975 47.9382C278.693 48.1912 278.442 48.5203 278.427 48.8991C278.416 49.1767 278.563 49.6358 278.886 49.601C279.146 49.5732 279.565 49.1944 279.841 49.0959C280.538 48.8488 281.28 48.7712 282.002 48.6364Z" fill="#D7785B"/>
<path d="M273.246 45.7631C273.625 45.2553 274.027 44.753 274.54 44.3817C275.193 43.9082 275.987 43.6749 276.774 43.4984C277.976 43.2287 279.202 43.0709 280.433 43.0286C280.599 43.0227 280.773 43.0211 280.921 43.0966C281.092 43.1843 281.198 43.3598 281.294 43.5267C281.759 44.3458 282.202 45.3094 281.887 46.1969C281.752 46.5779 281.489 46.8978 281.232 47.2092C279.749 49.0031 278.104 50.9008 275.84 51.4411C275.225 51.5882 274.577 51.6289 273.998 51.8841C273.162 52.2527 272.58 53.0135 271.92 53.6448C271.833 53.7283 271.738 53.8128 271.62 53.8369C271.457 53.8701 271.296 53.7796 271.158 53.6876C269.459 52.5513 269.66 51.8119 270.507 50.1555C271.294 48.6184 272.211 47.1466 273.246 45.7631Z" fill="#D7785B"/>
<path d="M277.491 50.371C277.398 50.1195 274.526 45.6324 274.526 45.6324L283.019 40.6028L286.117 45.5227L277.491 50.371Z" fill="#191D2F"/>
<path d="M277.858 49.7369C277.777 49.5181 275.278 45.613 275.278 45.613L282.668 41.2356L285.365 45.5173L277.858 49.7369Z" fill="#AAB6BA"/>
<path d="M275.298 46.1979C275.7 45.862 275.991 45.4008 276.15 44.9011C276.173 44.8289 276.194 44.7545 276.238 44.6924C276.278 44.6336 276.337 44.5892 276.394 44.5464C276.814 44.2334 277.26 43.9541 277.724 43.7107C276.894 43.8594 276.047 44.0135 275.308 44.4201C274.801 44.6994 274.351 45.1124 274.074 45.625C273.939 45.8727 273.839 46.1503 273.811 46.4323C273.772 46.8282 274.051 46.7544 274.352 46.6805C274.698 46.5955 275.024 46.4269 275.298 46.1979Z" fill="#D7785B"/>
<path d="M276.471 189.49C275.221 190.762 273.949 192.052 272.394 192.925C271.299 193.54 270.093 193.93 268.896 194.31C268.583 194.409 268.243 194.528 268.071 194.807C267.842 195.178 268.023 195.693 268.359 195.969C268.696 196.246 269.144 196.339 269.574 196.408C271.979 196.789 274.554 196.623 276.67 195.418C277.565 194.908 278.356 194.239 279.217 193.677C280.108 193.096 280.919 192.812 281.982 192.739C282.895 192.676 283.807 192.613 284.719 192.55C284.782 192.545 284.85 192.538 284.895 192.495C284.935 192.457 284.948 192.398 284.959 192.344C285.157 191.336 285.223 190.39 285.239 189.361C285.243 189.076 285.18 186.008 285.029 186.013C283.941 185.926 282.853 185.838 281.765 185.751C280.989 185.688 279.481 185.261 278.762 185.593C278.197 185.855 278.235 186.619 278.081 187.139C277.797 188.094 277.155 188.794 276.471 189.49Z" fill="#9D3F2D"/>
<path d="M299.003 195.396C299.485 196.316 300.128 197.242 301.105 197.594C301.432 197.711 301.794 197.757 302.127 197.66C302.801 197.463 303.18 196.76 303.426 196.103C304.575 193.032 304.376 189.482 302.891 186.558C302.594 185.974 302.24 185.382 302.233 184.728C302.225 184.045 302.573 183.261 302.133 182.739C301.848 182.403 301.356 182.351 300.916 182.348C299.912 182.341 298.835 182.496 298.118 183.272C297.611 183.82 297.657 184.381 297.591 185.083C297.376 187.355 297.152 189.439 297.658 191.704C297.944 192.986 298.394 194.232 299.003 195.396Z" fill="#9D3F2D"/>
<path d="M278.062 101.947C278.062 101.947 275.883 123.921 276.788 144.616C277.693 165.31 277.649 186.819 277.649 186.819C277.649 186.819 282.76 187.622 285.871 187.124C285.871 187.124 288.873 160.625 288.363 151.452C287.853 142.28 291.86 117.418 291.86 117.418C291.86 117.418 296.893 160.741 296.891 172.081C296.889 183.422 296.781 185.968 296.781 185.968C296.781 185.968 301.851 185.598 304.182 185.127C304.182 185.127 312.166 127.173 306.562 100.578L278.062 101.947Z" fill="black"/>
<path d="M296.165 120.778C296.109 120.778 296.052 120.755 296.013 120.708C293.025 117.195 288.333 116.31 288.285 116.302C288.177 116.282 288.105 116.178 288.124 116.069C288.144 115.961 288.245 115.9 288.357 115.908C288.405 115.918 293.235 116.824 296.318 120.449C296.39 120.533 296.379 120.66 296.295 120.731C296.257 120.763 296.211 120.778 296.165 120.778Z" fill="white"/>
<path d="M293.193 118.284C293.147 118.284 293.1 118.268 293.063 118.236C292.446 117.702 290.664 117.012 290.646 117.005C290.593 116.986 290.551 116.943 290.531 116.891C289.98 115.452 289.765 103.008 289.756 102.479C289.754 102.368 289.826 102.292 289.955 102.277C290.064 102.277 290.153 102.363 290.155 102.473C290.229 106.834 290.473 115.28 290.877 116.668C291.193 116.794 292.264 117.23 292.957 117.668C292.765 115.436 291.964 105.563 292.514 102.66C292.535 102.552 292.643 102.49 292.748 102.501C292.856 102.522 292.927 102.626 292.907 102.735C292.309 105.891 293.381 117.946 293.392 118.067C293.4 118.148 293.357 118.225 293.284 118.262C293.256 118.277 293.224 118.284 293.193 118.284Z" fill="white"/>
<path d="M280.06 189.081C280.047 189.081 280.035 189.079 280.021 189.078C278.662 188.817 277.279 188.81 275.912 189.056C275.801 189.071 275.699 189.004 275.679 188.895C275.66 188.786 275.732 188.682 275.84 188.662C277.258 188.408 278.689 188.415 280.097 188.684C280.206 188.706 280.276 188.811 280.256 188.918C280.237 189.014 280.154 189.081 280.06 189.081Z" fill="black"/>
<path d="M275.155 190.011C275.061 190.011 274.977 189.944 274.959 189.849C274.938 189.741 275.009 189.636 275.117 189.616C276.507 189.348 277.921 189.327 279.323 189.559C279.431 189.578 279.505 189.68 279.487 189.79C279.47 189.898 279.371 189.979 279.258 189.953C277.904 189.73 276.535 189.747 275.193 190.008C275.18 190.009 275.167 190.011 275.155 190.011Z" fill="black"/>
<path d="M298.73 187.351C298.632 187.351 298.547 187.279 298.533 187.18C298.516 187.072 298.592 186.97 298.701 186.953C300.135 186.74 301.589 186.586 303.02 186.497C303.112 186.487 303.224 186.574 303.232 186.684C303.239 186.794 303.155 186.889 303.044 186.896C301.624 186.983 300.184 187.136 298.759 187.349C298.749 187.351 298.74 187.351 298.73 187.351Z" fill="black"/>
<path d="M299.554 188.191C299.462 188.191 299.38 188.128 299.359 188.035C299.335 187.927 299.403 187.821 299.51 187.797C300.77 187.519 302.043 187.395 303.346 187.394C303.456 187.395 303.545 187.485 303.543 187.594C303.543 187.705 303.453 187.792 303.344 187.792C303.3 187.805 303.247 187.792 303.2 187.792C301.992 187.792 300.78 187.925 299.597 188.187C299.582 188.19 299.567 188.191 299.554 188.191Z" fill="black"/>
<path d="M283.925 63.2658C283.954 64.1127 267.136 84.7598 259.406 81.9157C251.676 79.0711 259.839 61.5479 269.051 49.9248C269.051 49.9248 275.302 50.8413 274.327 55.3974C274.327 55.3974 279.264 50.9879 283.645 55.078C288.025 59.1676 283.925 63.2658 283.925 63.2658Z" fill="black"/>
<path d="M276.676 108.625C276.676 108.625 282.26 109.114 288.618 108.935C294.417 108.77 296.847 107.898 300.011 107.934C303.175 107.969 309.488 105.488 309.488 105.488L307.436 91.7577C307.436 91.7577 311.585 91.1841 312.581 86.6938C313.577 82.2029 315.303 65.4683 315.234 63.4583C315.165 61.4483 315.988 56.1009 307.992 53.5002C299.996 50.8995 295.982 47.0116 287.183 50.3324C278.384 53.6532 272.784 53.8453 274.565 63.8467C276.345 73.8487 278.105 87.4449 277.183 94.0892C276.262 100.733 273.899 107.283 276.676 108.625Z" fill="black"/>
<path d="M287.369 108.75C287.277 108.75 287.194 108.687 287.174 108.593C286.256 104.393 286.075 90.8904 286.068 90.318C286.067 90.2077 286.155 90.1173 286.265 90.1157C286.267 90.1157 286.268 90.1157 286.268 90.1157C286.377 90.1157 286.466 90.204 286.468 90.3126C286.47 90.4528 286.655 104.348 287.565 108.508C287.588 108.616 287.52 108.723 287.412 108.746C287.397 108.748 287.383 108.75 287.369 108.75Z" fill="white"/>
<path d="M295.651 97.6052C295.603 97.6052 295.559 97.5886 295.523 97.5597C295.481 97.5239 295.455 97.4747 295.452 97.4206L295.32 95.6599C295.312 95.554 295.389 95.4587 295.495 95.4464L306.331 94.1244C306.452 94.1105 306.538 94.1876 306.552 94.2951L306.817 96.1896C306.824 96.2431 306.81 96.2971 306.777 96.3394C306.743 96.3822 306.694 96.4094 306.64 96.4148L295.672 97.6036C295.665 97.6052 295.657 97.6052 295.651 97.6052ZM295.731 95.8193L295.834 97.1852L306.392 96.0408L306.183 94.5439L295.731 95.8193Z" fill="white"/>
<path d="M280.982 97.6947C280.979 97.6947 280.975 97.6947 280.971 97.6947L277.051 97.4732C276.996 97.4706 276.947 97.446 276.911 97.4042C276.875 97.363 276.858 97.3095 276.863 97.2555L276.995 95.8029C277.005 95.6997 277.091 95.6216 277.194 95.6216C277.196 95.6216 277.197 95.6216 277.199 95.6216L281.075 95.7093C281.129 95.7109 281.181 95.7339 281.217 95.7725C281.253 95.8126 281.273 95.8661 281.27 95.9196L281.182 97.5059C281.18 97.5583 281.155 97.6091 281.115 97.6434C281.078 97.6771 281.031 97.6947 280.982 97.6947ZM277.279 97.087L280.794 97.2849L280.86 96.1047L277.376 96.025L277.279 97.087Z" fill="white"/>
<path d="M299.322 50.1565C295.747 48.9046 292.262 48.4156 287.184 50.332C285.998 50.7792 284.876 51.1682 283.817 51.5336L286.268 82.0249C286.268 82.0249 297.321 57.2785 299.322 50.1565Z" fill="#DADEE9"/>
<path d="M295.68 43.2559L295.804 53.7062C295.804 53.7062 296.418 57.9141 289.964 58.135C289.964 58.135 285.842 57.8065 285.701 53.7003L285.379 44.3141L295.68 43.2559Z" fill="#D7785B"/>
<path d="M295.692 44.3195L295.68 43.2554L285.429 44.3083C285.413 44.3334 285.398 44.3586 285.382 44.3837L285.558 49.5171C287.903 50.5486 292.793 51.5881 295.692 44.3195Z" fill="#B24F38"/>
<path d="M286.001 83.5999C286.001 83.5999 283.846 83.5801 282.192 83.0081C280.538 82.4362 278.406 80.7499 277.073 80.3556C275.74 79.9613 273.06 80.6188 272.257 81.0238C271.454 81.4283 271.286 85.7078 272.769 86.788C272.769 86.788 274.351 87.1106 275.106 87.1475C275.862 87.1844 275.71 88.2582 278.331 87.7285C280.953 87.1989 283.762 87.9506 286.418 88.4251L286.001 83.5999Z" fill="#D7785B"/>
<path d="M271.65 82.3992C271.561 82.3992 271.48 82.3398 271.457 82.2499C271.43 82.1435 271.493 82.0349 271.599 82.0065C272.696 81.7197 273.824 81.5491 274.954 81.4988C275.077 81.5004 275.158 81.579 275.163 81.6892C275.168 81.7995 275.083 81.8931 274.973 81.8979C273.87 81.9466 272.77 82.113 271.702 82.3933C271.684 82.3971 271.667 82.3992 271.65 82.3992Z" fill="#843725"/>
<path d="M271.77 84.1017C271.674 84.1017 271.589 84.0322 271.573 83.9337C271.556 83.8251 271.63 83.7224 271.739 83.7047C272.675 83.5544 273.617 83.4271 274.538 83.3281C274.653 83.3211 274.746 83.396 274.758 83.5057C274.769 83.6148 274.69 83.7133 274.58 83.7256C273.667 83.824 272.732 83.9498 271.802 84.0996C271.792 84.1012 271.78 84.1017 271.77 84.1017Z" fill="#843725"/>
<path d="M272.038 85.7315C271.962 85.7315 271.889 85.6876 271.856 85.6132C271.811 85.5126 271.856 85.3944 271.956 85.3505C272.85 84.9487 273.865 84.9118 274.76 84.8787C274.763 84.8787 274.766 84.8787 274.768 84.8787C274.875 84.8787 274.963 84.9627 274.967 85.0713C274.972 85.1815 274.886 85.2735 274.775 85.2778C273.874 85.311 272.942 85.3452 272.12 85.7138C272.093 85.7261 272.066 85.7315 272.038 85.7315Z" fill="#843725"/>
<path d="M289.494 94.1303C288.486 94.1303 287.479 94.1014 286.49 94.0393C286.388 94.0324 286.307 93.9516 286.303 93.8494L285.814 83.0749C285.812 83.0214 285.831 82.9689 285.868 82.9299C285.904 82.8908 285.955 82.8678 286.009 82.8667C286.125 82.8641 297.625 82.5821 299.586 82.1664C300.41 81.9915 300.791 81.6485 301.127 81.3452C301.528 80.9824 301.881 80.6641 302.747 80.8824C302.614 80.2848 302.433 79.1088 302.877 78.4973C303.019 78.302 303.216 78.1774 303.455 78.1314C303.564 76.8768 304.23 68.5713 303.363 62.2127C303.348 62.1035 303.425 62.003 303.534 61.9874C303.641 61.9794 303.743 62.049 303.758 62.1587C304.7 69.0656 303.847 78.2373 303.838 78.3288C303.828 78.4294 303.746 78.5064 303.646 78.5096C303.45 78.5166 303.304 78.5888 303.2 78.7311C302.807 79.2715 303.079 80.6406 303.218 81.1221C303.238 81.1943 303.217 81.2719 303.162 81.3227C303.107 81.3735 303.028 81.3906 302.958 81.3644C302.059 81.0386 301.821 81.2531 301.394 81.6405C301.039 81.9604 300.597 82.3595 299.668 82.5559C297.794 82.9534 287.831 83.2188 286.221 83.2594L286.693 93.6504C296.247 94.2202 307.277 91.5879 307.388 91.5622C307.499 91.5317 307.603 91.6024 307.629 91.7094C307.655 91.8169 307.589 91.9239 307.482 91.9501C307.383 91.9758 298.334 94.1303 289.494 94.1303Z" fill="white"/>
<path d="M305.684 84.3296C305.609 84.3296 305.537 84.2868 305.503 84.214C304.932 82.9744 304.04 81.9038 302.925 81.1184C302.835 81.0553 302.812 80.9306 302.877 80.8402C302.939 80.7504 303.063 80.7279 303.154 80.7921C304.327 81.6176 305.265 82.7427 305.866 84.0455C305.912 84.1461 305.868 84.2643 305.768 84.3108C305.741 84.3242 305.713 84.3296 305.684 84.3296Z" fill="white"/>
<path d="M307.421 80.6434C307.335 80.6434 307.255 80.5873 307.229 80.4995C307.153 80.2384 306.883 80.0458 306.636 79.8859C306.047 79.5039 305.426 79.1566 304.791 78.8538C304.402 78.6682 303.996 78.5114 303.635 78.6195C303.53 78.6505 303.418 78.5911 303.386 78.4863C303.354 78.3803 303.414 78.2691 303.519 78.2375C304.01 78.0898 304.503 78.2739 304.964 78.4943C305.614 78.8046 306.249 79.1604 306.853 79.5509C307.16 79.75 307.498 79.9945 307.614 80.3888C307.645 80.4942 307.583 80.6054 307.477 80.6365C307.458 80.6413 307.44 80.6434 307.421 80.6434Z" fill="white"/>
<path d="M286.037 83.3912C286.026 83.3912 286.015 83.3907 286.004 83.3885C285.929 83.3762 285.867 83.3206 285.845 83.2462L280.782 65.4486C280.764 65.3839 280.779 65.3143 280.823 65.2635L282.212 63.6569L280.324 63.323C280.22 63.3043 280.147 63.2074 280.16 63.1021L281.473 52.2831C281.486 52.175 281.579 52.0948 281.695 52.1092C281.804 52.1221 281.882 52.2221 281.868 52.3312L280.579 62.9624L282.628 63.3241C282.698 63.3364 282.758 63.3861 282.782 63.4541C282.805 63.5215 282.791 63.5969 282.745 63.6515L281.196 65.4427L286.113 82.7316L299.056 64.1111L297.002 61.947C296.95 61.8924 296.934 61.8137 296.958 61.7426C296.984 61.672 297.047 61.6217 297.121 61.611L300.374 61.1792L300.88 50.8236C300.885 50.7134 300.976 50.6149 301.089 50.6336C301.199 50.639 301.284 50.7326 301.279 50.8428L300.764 61.3654C300.76 61.4617 300.687 61.5409 300.591 61.5537L297.56 61.9561L299.457 63.9543C299.522 64.0228 299.53 64.1282 299.476 64.2058L286.2 83.3056C286.164 83.3602 286.102 83.3912 286.037 83.3912Z" fill="white"/>
<path d="M282.108 109.141C279.327 109.141 277.492 109.081 277.429 109.079C277.318 109.074 277.232 108.982 277.236 108.872C277.239 108.762 277.334 108.658 277.442 108.68C277.663 108.689 299.599 109.405 307.559 105.782C307.66 105.736 307.778 105.78 307.824 105.881C307.87 105.982 307.825 106.1 307.725 106.146C301.974 108.762 289.077 109.141 282.108 109.141Z" fill="white"/>
<path d="M285.256 51.0969C285.256 51.0969 287.113 54.1406 289.671 54.3717C292.228 54.6028 296.203 49.6855 296.203 49.6855L296.429 56.2913L289.968 60.7362L284.738 54.6205L285.256 51.0969Z" fill="#DADEE9"/>
<path d="M275.937 72.7038C275.842 72.7038 275.758 72.6364 275.74 72.5395C275.725 72.4582 274.283 64.363 274.635 59.7656C274.642 59.6554 274.727 59.5677 274.849 59.5821C274.959 59.5902 275.042 59.6859 275.032 59.7961C274.684 64.3421 276.118 72.3881 276.133 72.4694C276.152 72.5775 276.08 72.6813 275.971 72.7011C275.96 72.7032 275.948 72.7038 275.937 72.7038Z" fill="white"/>
<path d="M297.201 40.8884C296.476 43.5672 294.971 46.3466 292.711 48.0287C290.474 49.6931 287.192 50.0457 285.151 47.8858C283.977 46.6435 283.406 44.939 283.167 43.2468C283.043 42.3683 282.999 41.478 282.828 40.6076C282.69 39.9056 282.47 39.2219 282.332 38.5205C282.154 37.6179 282.112 36.694 282.122 35.7748C282.133 34.7128 282.216 33.6353 282.578 32.637C283.86 29.1081 288.526 28.5313 291.647 29.6115C295.704 31.0164 297.999 35.0477 297.518 39.2711C297.514 39.3139 297.508 39.3562 297.503 39.399C297.444 39.866 297.342 40.3679 297.201 40.8884Z" fill="#D7785B"/>
<path d="M297.563 40.6958C297.364 41.2228 296.85 41.769 296.324 41.5695C295.892 41.4058 295.774 40.86 295.736 40.4005C295.619 39.003 295.643 37.5933 295.81 36.2006C295.238 36.2729 294.772 35.7063 294.637 35.1461C294.501 34.586 294.57 33.9905 294.421 33.4336C293.614 33.4726 293.11 32.5701 292.929 31.7831C292.891 31.6178 292.855 31.4444 292.751 31.3107C292.284 30.7147 290.982 31.3829 290.709 30.6772C290.57 31.0758 290.037 31.2117 289.641 31.0662C289.245 30.9206 288.957 30.5814 288.689 30.2556C288.308 30.7312 287.48 30.7393 287.089 30.2717C286.645 30.7767 285.775 30.7034 285.167 30.7302C285.227 31.1769 284.852 31.5894 284.424 31.7312C283.996 31.873 283.531 31.8109 283.084 31.7472C283.208 32.2464 283.094 32.7996 282.783 33.2094C282.68 33.3458 282.555 33.4673 282.473 33.6176C282.337 33.8653 282.331 34.1601 282.328 34.4426C282.314 35.7004 282.3 36.9577 282.286 38.2155C281.85 38.2529 281.437 37.9335 281.271 37.5291C281.106 37.1241 281.154 36.6586 281.301 36.2472C281.347 36.1183 281.403 35.9861 281.386 35.8502C281.363 35.6667 281.214 35.5292 281.106 35.3789C280.722 34.8455 280.837 34.0986 281.096 33.494C281.194 33.2677 281.311 33.0248 281.249 32.7862C281.201 32.6038 281.056 32.4647 280.972 32.2956C280.694 31.7349 281.145 31.1009 281.568 30.6387C281.252 30.4407 281.271 29.8913 281.599 29.7153C281.708 29.6569 281.84 29.6329 281.921 29.5403C282.02 29.4264 282.002 29.2568 281.993 29.1064C281.967 28.6656 282.076 28.1953 282.389 27.8845C282.703 27.5736 283.249 27.4821 283.592 27.7603C283.159 27.4094 285.435 25.4726 286.393 26.4913C286.577 25.99 287.076 25.6203 287.609 25.5898C288.142 25.5598 288.679 25.8707 288.919 26.3484C289.432 25.9204 290.048 25.5491 290.716 25.5657C291.383 25.5823 292.068 26.1264 292.022 26.793C292.616 26.4335 293.384 26.38 294.021 26.6539C294.658 26.9279 295.148 27.5223 295.295 28.2006C296.641 27.732 298.288 28.779 298.434 30.1973C299.047 30.3268 299.655 30.606 300.032 31.1057C300.41 31.6054 300.494 32.3555 300.113 32.852C301.299 33.4132 301.687 35.1793 300.845 36.1857C301.161 36.3317 301.368 36.688 301.337 37.0358C301.307 37.3835 301.041 37.6981 300.704 37.7864C301.217 37.8891 301.457 38.6339 301.099 39.0164C301.002 39.1202 300.873 39.1994 300.81 39.3272C300.713 39.5247 300.809 39.7563 300.835 39.9746C300.9 40.523 300.426 41.074 299.873 41.0906C300.113 41.5967 299.464 42.2393 298.96 41.9959C298.979 42.35 298.709 42.6973 298.361 42.7663C298.013 42.8348 297.631 42.6165 297.514 42.2816C297.433 42.0483 297.471 41.7926 297.511 41.5491C297.617 40.8954 297.826 40.1715 297.802 39.5124C297.774 39.8665 297.757 40.3823 297.563 40.6958Z" fill="#191D2F"/>
<path d="M299.396 39.5187C299.135 40.3426 298.452 41.0167 297.629 41.2794C297.456 41.3345 297.265 41.372 297.096 41.3056C295.512 40.6839 296.185 37.6216 297.269 36.8688C298.876 35.7549 299.786 38.285 299.396 39.5187Z" fill="#D7785B"/>
<path d="M285.356 38.7789C285.356 39.2069 285.009 39.5547 284.581 39.5547C284.152 39.5547 283.805 39.2075 283.805 38.7789C283.805 38.3504 284.152 38.0032 284.581 38.0032C285.009 38.0032 285.356 38.3504 285.356 38.7789Z" fill="#1E1C1B"/>
<path d="M289.92 39.5541C290.348 39.5541 290.695 39.207 290.695 38.7789C290.695 38.3507 290.348 38.0037 289.92 38.0037C289.492 38.0037 289.145 38.3507 289.145 38.7789C289.145 39.207 289.492 39.5541 289.92 39.5541Z" fill="#1E1C1B"/>
<path d="M287.158 43.8925C286.926 43.8925 286.695 43.8411 286.489 43.7352C286.336 43.6566 286.233 43.564 286.172 43.4517C286.079 43.2794 286.102 43.0841 286.118 42.9418L286.743 37.3488C286.752 37.2659 286.82 37.2033 286.91 37.215C286.994 37.2247 287.054 37.2996 287.044 37.383L286.419 42.976C286.404 43.1092 286.395 43.2259 286.44 43.3083C286.47 43.3644 286.531 43.4158 286.627 43.465C287.039 43.6764 287.574 43.617 287.927 43.319C287.991 43.2649 288.087 43.2735 288.14 43.3377C288.195 43.4019 288.186 43.4971 288.122 43.5512C287.855 43.7759 287.506 43.8925 287.158 43.8925Z" fill="#AD452D"/>
<path d="M297.22 40.3004C297.144 40.3004 297.078 40.2432 297.07 40.1656C296.829 38.0181 297.869 37.2445 297.914 37.2124C297.981 37.1642 298.076 37.1787 298.126 37.2471C298.174 37.3151 298.159 37.4098 298.091 37.4585C298.077 37.4692 297.152 38.1786 297.371 40.1319C297.38 40.2154 297.32 40.2903 297.237 40.2994C297.231 40.2999 297.226 40.3004 297.22 40.3004Z" fill="#AD452D"/>
<path d="M298.575 39.7269C298.502 39.7269 298.438 39.6745 298.426 39.6006C298.419 39.5664 298.27 38.7537 297.44 38.5231C297.36 38.5007 297.312 38.4172 297.335 38.3364C297.357 38.2556 297.441 38.207 297.522 38.231C298.541 38.514 298.718 39.5081 298.725 39.5504C298.739 39.6327 298.683 39.7103 298.6 39.7242C298.592 39.7264 298.583 39.7269 298.575 39.7269Z" fill="#AD452D"/>
<path d="M288.313 44.6902C288.904 44.5377 289.477 44.3211 290.071 44.1841C290.169 44.1616 290.274 44.1424 290.368 44.1788C290.476 44.221 290.546 44.3307 290.575 44.443C290.643 44.7095 290.519 44.9855 290.377 45.221C289.518 46.651 287.637 47.0539 286.313 45.9844C285.993 45.7249 285.824 45.2777 286.342 45.1471C286.961 44.9904 287.587 44.8668 288.208 44.7164C288.243 44.7079 288.278 44.6988 288.313 44.6902Z" fill="#7F3828"/>
<path d="M290.377 45.2214C290.519 44.9854 290.642 44.7099 290.575 44.4435C290.569 44.4232 290.556 44.406 290.548 44.3862C288.815 45.1267 287.858 46.0688 287.465 46.5327C288.57 46.7622 289.748 46.2689 290.377 45.2214Z" fill="#F76D6D"/>
<path d="M290.575 44.4437C290.546 44.3308 290.476 44.2217 290.368 44.1794C290.274 44.143 290.169 44.1617 290.071 44.1847C289.477 44.3212 288.904 44.5384 288.313 44.6909C288.278 44.7 288.243 44.7085 288.208 44.7171C287.588 44.868 286.961 44.991 286.342 45.1478C286.31 45.1563 286.287 45.1692 286.26 45.1799L286.515 45.8015C286.515 45.8015 289.035 45.5255 290.573 44.747C290.592 44.6454 290.6 44.5443 290.575 44.4437Z" fill="#F1F2F2"/>
<path d="M288.061 37.108C288.075 37.2931 288.291 37.3824 288.472 37.4209C289.34 37.6044 290.238 37.5547 291.123 37.5049C291.385 37.49 291.702 37.4381 291.798 37.1936C291.87 37.0095 291.772 36.7993 291.633 36.6591C291.137 36.1605 290.191 36.2118 289.54 36.1942C289.096 36.1819 288.018 36.5323 288.061 37.108Z" fill="#191D2F"/>
<path d="M286.377 37.108C286.363 37.2931 286.147 37.3824 285.966 37.4209C285.098 37.6044 284.2 37.5547 283.315 37.5049C283.053 37.49 282.736 37.4381 282.64 37.1936C282.569 37.0095 282.667 36.7993 282.806 36.6591C283.301 36.1605 284.247 36.2118 284.899 36.1942C285.342 36.1819 286.421 36.5323 286.377 37.108Z" fill="#191D2F"/>
<path d="M287.967 57.747L290.159 54.8906L292.708 57.6663L290.654 59.7817L290.217 73.2939L287.813 79.5112L286.566 74.1553L289.338 59.5811L287.967 57.747Z" fill="black"/>
<path d="M286.743 59.5965C286.68 59.5965 286.621 59.5671 286.583 59.5173L284.294 56.4822C284.28 56.4629 284.27 56.4415 284.263 56.4191C284.231 56.3153 283.514 53.8302 285.081 51C285.134 50.9037 285.255 50.8684 285.353 50.9224C285.449 50.9759 285.485 51.0973 285.431 51.1942C284.042 53.7012 284.56 55.9761 284.636 56.2725L286.743 59.0658L290 54.7691C290.036 54.7215 290.09 54.6926 290.149 54.6899C290.212 54.6947 290.265 54.7113 290.306 54.7541L294.254 59.0444C294.853 58.6115 297.349 56.4201 297.362 49.9583C297.362 49.8481 297.451 49.7593 297.561 49.7593H297.562C297.672 49.7593 297.761 49.8486 297.76 49.9594C297.746 57.5281 294.457 59.4034 294.318 59.4793C294.236 59.5232 294.137 59.5055 294.075 59.4392L290.174 55.1998L286.902 59.5162C286.864 59.5676 286.806 59.5965 286.743 59.5965Z" fill="#8D93A0"/>
<path d="M264.892 76.3917C264.836 76.3917 264.78 76.3676 264.74 76.3216C264.669 76.2371 264.679 76.1114 264.763 76.0402C266.511 74.5577 267.523 72.3053 267.468 70.0139L267.462 69.8041C267.454 69.5623 267.444 69.3114 267.474 69.06C267.582 68.1793 268.13 67.4688 268.659 66.7808L268.727 66.6925C271.338 63.2974 273.298 59.3158 274.396 55.1797C274.425 55.0737 274.535 55.0122 274.64 55.0373C274.747 55.0662 274.811 55.1754 274.783 55.2813C273.67 59.4688 271.687 63.4991 269.044 66.936L268.976 67.0248C268.478 67.6695 267.964 68.3366 267.87 69.1076C267.844 69.3285 267.852 69.5522 267.86 69.7892L267.867 70.0042C267.925 72.4145 266.861 74.7851 265.021 76.3436C264.984 76.3762 264.938 76.3917 264.892 76.3917Z" fill="white"/>
<path d="M268.154 75.3473C268.135 75.3473 268.116 75.3446 268.097 75.3387C267.991 75.3077 267.931 75.197 267.963 75.091C268.603 72.921 268.533 70.5542 267.767 68.4259C267.729 68.3226 267.783 68.2076 267.887 68.1707C267.99 68.1332 268.104 68.1862 268.142 68.2911C268.938 70.4985 269.01 72.9531 268.345 75.2039C268.319 75.2917 268.239 75.3473 268.154 75.3473Z" fill="white"/>
<path d="M191.067 199.245C201.803 199.245 210.506 195.775 210.506 191.494C210.506 187.213 201.803 183.742 191.067 183.742C180.33 183.742 171.627 187.213 171.627 191.494C171.627 195.775 180.33 199.245 191.067 199.245Z" fill="#E6E7E8"/>
<path d="M235.88 42.5407C236.087 42.2609 236.283 41.9667 236.362 41.6301C236.439 41.3043 236.402 40.9646 236.402 40.6297C236.404 39.3093 236.976 38.7604 237.804 37.8444C238.263 37.3362 238.561 36.6845 238.647 36.005C239.075 35.9639 239.397 36.4159 239.466 36.8407C239.534 37.2655 239.45 37.708 239.552 38.1258C239.569 38.1916 239.599 38.2665 239.665 38.2837C239.734 38.3018 239.8 38.2451 239.849 38.1932C240.865 37.1296 241.88 36.065 242.872 34.9826C243.699 34.0817 244.753 33.2926 245.991 33.1106C246.24 33.0737 246.516 33.0689 246.719 33.2171C246.856 33.3172 246.94 33.4734 247.009 33.6285C247.663 35.1057 247.302 36.86 246.538 38.2831C245.774 39.7062 244.646 40.8929 243.659 42.171C243.148 42.8318 242.668 43.5246 242.051 44.0869C241.434 44.6492 240.649 45.0788 239.814 45.081C239.619 45.0815 239.422 45.059 239.231 45.0933C238.884 45.1553 238.599 45.3934 238.331 45.6224C237.815 46.0638 237.3 46.5046 236.784 46.946C236.623 47.084 236.454 47.2258 236.25 47.2836C235.899 47.3831 235.533 47.214 235.207 47.0493C234.519 46.702 233.598 46.1954 233.926 45.2784C234.026 44.9991 234.207 44.7578 234.386 44.5213C234.851 43.905 235.316 43.2887 235.781 42.6723C235.813 42.629 235.846 42.5851 235.88 42.5407Z" fill="#A05E47"/>
<path d="M243.813 41.0641C243.733 41.0641 243.652 41.0261 243.603 40.955C242.447 39.2895 240.611 38.4875 240.593 38.4795C240.464 38.4239 240.404 38.2741 240.46 38.144C240.515 38.0146 240.666 37.9541 240.796 38.0108C240.876 38.0451 242.785 38.8802 244.023 40.6639C244.103 40.78 244.075 40.9389 243.959 41.0197C243.914 41.0497 243.863 41.0641 243.813 41.0641Z" fill="#753B2C"/>
<path d="M241.606 38.8813C241.551 38.8813 241.497 38.8642 241.45 38.8283C241.338 38.7422 241.318 38.5822 241.404 38.4699L245.443 33.222C245.53 33.1107 245.689 33.0898 245.802 33.1759C245.913 33.2621 245.934 33.4221 245.848 33.5344L241.808 38.7823C241.758 38.8476 241.682 38.8813 241.606 38.8813Z" fill="#753B2C"/>
<path d="M242.787 39.5806C242.733 39.5806 242.678 39.5635 242.631 39.5276C242.52 39.4415 242.499 39.2815 242.585 39.1692L246.624 33.9207C246.711 33.8095 246.87 33.7902 246.983 33.8747C247.094 33.9609 247.115 34.1208 247.029 34.2332L242.989 39.4816C242.939 39.5464 242.864 39.5806 242.787 39.5806Z" fill="#753B2C"/>
<path d="M243.546 40.5811C243.49 40.5811 243.433 40.5629 243.387 40.5254C243.277 40.4377 243.259 40.2767 243.347 40.1664L246.84 35.804C246.927 35.6927 247.09 35.6761 247.199 35.7638C247.309 35.8516 247.327 36.0126 247.239 36.1228L243.746 40.4853C243.696 40.549 243.621 40.5811 243.546 40.5811Z" fill="#753B2C"/>
<path d="M238.651 42.5906C238.589 42.5906 238.527 42.5686 238.478 42.5232C238.374 42.4285 238.367 42.2669 238.463 42.1626C239.368 41.1776 239.758 39.7523 239.481 38.4426C239.452 38.3046 239.54 38.1687 239.678 38.1398C239.82 38.1066 239.951 38.1992 239.981 38.3367C240.292 39.8053 239.855 41.4039 238.839 42.5082C238.788 42.5627 238.72 42.5906 238.651 42.5906Z" fill="#753B2C"/>
<path d="M173.365 112.368C172.996 112.54 172.587 112.602 172.185 112.662C171.381 112.783 170.578 112.903 169.774 113.024C169.576 113.054 169.351 113.077 169.196 112.949C169.091 112.864 169.044 112.729 169.006 112.6C168.901 112.245 168.827 111.882 168.787 111.515C168.763 111.298 168.752 111.071 168.836 110.869C168.901 110.71 169.021 110.58 169.139 110.454C169.848 109.692 170.557 108.929 171.266 108.167C171.601 107.806 171.99 107.42 172.481 107.406C172.797 107.396 173.093 107.546 173.373 107.691C173.877 107.953 174.395 108.226 174.757 108.664C175.728 109.835 174.556 111.814 173.365 112.368Z" fill="#7F4333"/>
<path d="M168.456 108.104C168.178 108.62 168.168 109.234 168.174 109.82C168.182 110.673 168.205 111.526 168.245 112.379C168.262 112.732 168.448 113.214 168.787 113.116C168.885 113.087 168.96 113.011 169.028 112.935C169.608 112.28 169.905 111.382 169.83 110.51C170.432 110.205 171.063 109.876 171.428 109.308C173.049 106.775 173.154 111.509 173.555 111.849C173.649 111.928 173.799 111.877 173.882 111.786C173.965 111.696 174.009 111.576 174.086 111.48C174.252 111.273 174.542 111.212 174.743 111.038C174.952 110.857 175.041 110.577 175.113 110.31C175.57 108.619 176.014 106.11 174.951 104.536C174.681 104.136 174.3 103.819 173.88 103.583C172.662 102.899 170.452 102.903 169.961 104.532C169.808 105.04 170.03 105.589 169.877 106.114C169.635 106.954 168.854 107.368 168.456 108.104Z" fill="#A05E47"/>
<path d="M174.847 113.067L175.092 108.888L171.428 109.308C171.428 109.308 170.59 110.042 169.83 110.51L173.904 109.953L173.741 113.272L174.847 113.067Z" fill="#2D140D"/>
<path d="M158.506 111.738H164.32L188.388 114.848L188.253 136.076L164.185 139.051H158.777L158.506 111.738Z" fill="#61342F"/>
<path d="M188.388 114.848L164.32 111.738L164.186 139.051L188.253 136.076L188.388 114.848Z" fill="#3D1E1C"/>
<path d="M204.415 45.6245C204.415 45.6245 213.949 51.4786 219.442 56.788C219.442 56.788 220.388 55.4168 220.972 56.688L233.597 43.5754C233.597 43.5754 236.788 44.4373 238.323 47.4024C238.323 47.4024 227.781 61.2104 226.095 63.7084C224.41 66.2063 221.768 71.0166 215.426 65.9244C209.084 60.8322 199.148 53.3024 199.148 53.3024C199.148 53.3024 196.246 50.0416 197.528 45.968C198.809 41.8939 204.415 45.6245 204.415 45.6245Z" fill="#6B93F6"/>
<path d="M173.595 49.8916C173.595 49.8916 170.417 53.9534 169.307 64.0233C168.196 74.0933 167.814 91.2179 168.231 96.4808C168.648 101.744 169.789 105.441 169.789 105.441C169.789 105.441 173.271 105.721 175.176 104.892C175.176 104.892 175.746 93.9373 176.139 89.9365C176.533 85.9357 176.494 71.9121 178.492 65.6749C178.492 65.6749 177.462 55.8452 173.595 49.8916Z" fill="#6B93F6"/>
<path d="M201.333 184.916C201.333 184.916 204.866 189.105 207.33 191.734C209.794 194.363 211.519 197.156 208.89 197.238C206.262 197.32 203.304 196.499 201.415 194.281C199.526 192.063 199.362 191.406 198.047 191.159C196.733 190.913 195.172 190.831 194.926 189.681C194.679 188.53 195.008 185.162 195.008 185.162L201.333 184.916Z" fill="#61342F"/>
<path d="M179.523 185.386C179.523 185.386 175.991 189.575 173.527 192.204C171.062 194.833 169.338 197.625 171.966 197.708C174.595 197.79 177.552 196.968 179.441 194.751C181.33 192.533 181.495 191.876 182.809 191.629C184.124 191.382 185.684 191.301 185.93 190.15C186.177 189 185.848 185.632 185.848 185.632L179.523 185.386Z" fill="#61342F"/>
<path d="M178.371 97.2876L178.513 186.359C182.964 188.707 186.985 186.359 186.985 186.359L193.813 110.206L194.022 186.202C197.324 187.924 202.207 186.202 202.207 186.202L208.128 97.2876H178.371Z" fill="#24262D"/>
<path d="M192.934 111.043C192.881 111.043 192.831 111.022 192.794 110.985C192.75 110.943 192.728 110.881 192.736 110.82C192.748 110.717 193.975 100.595 193.935 98.9734C193.932 98.8621 194.019 98.7712 194.13 98.7685C194.253 98.7669 194.331 98.8525 194.334 98.9627C194.372 100.487 193.359 108.985 193.163 110.613L194.68 110.415C195.126 108.643 196.641 99.2752 196.666 98.8172C196.66 98.7278 196.714 98.6412 196.803 98.6123C196.909 98.5764 197.02 98.6358 197.056 98.7402C197.145 99.0125 195.366 109.475 195.03 110.65C195.008 110.727 194.943 110.782 194.864 110.793L192.961 111.042C192.951 111.043 192.942 111.043 192.934 111.043Z" fill="white"/>
<path d="M189.143 111.512C189.04 111.512 188.953 111.434 188.944 111.331C188.935 111.221 189.016 111.125 189.125 111.114C193.902 110.69 197.039 110.049 197.07 110.042C197.182 110.016 197.284 110.089 197.306 110.197C197.329 110.305 197.26 110.411 197.152 110.433C197.12 110.44 193.963 111.085 189.161 111.512C189.154 111.512 189.149 111.512 189.143 111.512Z" fill="white"/>
<path d="M173.595 49.8918C173.595 49.8918 177.913 64.2381 178.132 71.4698C178.255 75.5236 178.334 79.5784 178.362 83.6338C178.395 88.3477 178.465 93.1281 177.847 97.811C177.722 98.7585 177.615 99.8954 178.638 100.176C179.043 100.288 179.539 100.266 179.957 100.304C181.29 100.427 182.625 100.532 183.961 100.622C187.791 100.879 191.632 101.014 195.471 100.96C197.838 100.926 200.207 100.839 202.565 100.61C203.716 100.498 204.864 100.354 206.006 100.164C207.692 99.8847 208.468 99.5626 208.468 97.7816C208.468 96.627 208.469 95.4725 208.471 94.3179C208.477 91.1073 208.491 87.8973 208.517 84.6867C208.553 80.3098 208.33 75.7782 208.85 71.4222C209.272 67.8783 209.812 56.5628 212.293 51.0148C212.293 51.0148 204.617 42.4198 194.381 42.553C184.146 42.6868 173.595 49.8918 173.595 49.8918Z" fill="#6B93F6"/>
<path d="M192.193 51.1019C190.451 51.1019 189.065 50.6188 188.075 49.6558C186.053 47.6891 186.44 44.4742 186.457 44.3378C186.471 44.2287 186.563 44.1522 186.681 44.165C186.79 44.1789 186.867 44.279 186.853 44.3886C186.849 44.4197 186.477 47.5457 188.355 49.3707C189.568 50.5498 191.451 50.9479 193.962 50.5552C194.043 50.5552 195.999 50.6472 197.374 49.2096C198.508 48.023 198.949 46.1472 198.684 43.6337C198.673 43.5246 198.752 43.4262 198.862 43.4144C198.975 43.4064 199.07 43.4834 199.082 43.5926C199.359 46.2307 198.88 48.2145 197.658 49.4894C196.146 51.0672 194.073 50.9591 193.98 50.9516C193.348 51.0522 192.752 51.1019 192.193 51.1019Z" fill="#414C82"/>
<path d="M187.669 35.3025L188.062 45.7459C188.062 45.7459 187.657 49.9789 194.113 49.881C194.113 49.881 198.214 49.3492 198.152 45.2408L198.01 35.8503L187.669 35.3025Z" fill="#A05E47"/>
<path d="M187.71 37.6436L187.669 36.5806L197.959 37.1257C197.977 37.1504 197.993 37.1744 198.011 37.199L198.088 42.3351C195.797 43.4806 190.965 44.7598 187.71 37.6436Z" fill="#753B2C"/>
<path d="M186.034 34.2913C186.89 36.9311 188.531 39.6328 190.871 41.201C193.187 42.7525 196.483 42.943 198.415 40.6847C199.527 39.3862 200.012 37.6555 200.167 35.9531C200.248 35.0692 200.248 34.1779 200.376 33.2999C200.479 32.5921 200.665 31.8988 200.768 31.1909C200.901 30.2809 200.897 29.3559 200.842 28.4378C200.758 27.0361 200.461 25.5921 199.71 24.3856C198.921 23.1187 197.615 22.3413 196.187 21.9888C192.85 21.1659 188.593 21.7849 186.478 24.7548C185.986 25.4455 185.62 26.2266 185.413 27.0494C184.841 29.3334 185.318 32.0828 186.034 34.2913Z" fill="#A05E47"/>
<path d="M187.804 32.0341C188.13 30.2274 187.952 27.5909 187.952 27.5909C187.952 27.5909 190.885 27.3833 190.825 24.6585L199.963 24.8821C199.879 24.7162 199.808 24.544 199.71 24.3856C198.921 23.1187 197.615 22.3413 196.186 21.9888C192.85 21.1659 188.593 21.7849 186.477 24.7548C185.986 25.4455 185.62 26.2266 185.413 27.0494C184.921 29.0102 185.205 31.3135 185.749 33.3246L186.234 32.567C186.234 32.567 187.478 33.8414 187.804 32.0341Z" fill="#7C574D"/>
<path d="M184.419 32.9794C184.672 33.79 185.272 34.4315 185.969 34.6551C186.116 34.7022 186.277 34.7305 186.415 34.6562C187.709 33.9612 187.014 30.9336 186.077 30.2327C184.688 29.1953 184.04 31.7655 184.419 32.9794Z" fill="#A05E47"/>
<path d="M195.64 36.2723C195.431 36.2723 195.22 36.2204 195.029 36.1166C194.671 35.9224 194.402 35.5639 194.289 35.1338C194.268 35.0524 194.317 34.9695 194.398 34.9487C194.479 34.9273 194.562 34.9759 194.583 35.0573C194.673 35.4023 194.894 35.6987 195.174 35.8507C195.471 36.0122 195.845 36.0069 196.106 35.8378C196.396 35.6495 196.507 35.3146 196.548 35.1322C196.613 34.84 196.601 34.5276 196.581 34.2071C196.516 33.136 196.391 32.0564 196.21 30.9981C196.197 30.9157 196.252 30.8371 196.334 30.8232C196.417 30.8093 196.495 30.8644 196.509 30.9473C196.692 32.0168 196.818 33.1077 196.883 34.1889C196.905 34.5324 196.917 34.8679 196.844 35.1985C196.756 35.5923 196.553 35.9101 196.271 36.093C196.086 36.2118 195.865 36.2723 195.64 36.2723Z" fill="#753B2C"/>
<path d="M194.173 31.5316C194.173 31.9601 193.825 32.3068 193.397 32.3068C192.969 32.3068 192.622 31.9596 192.622 31.5316C192.622 31.1036 192.969 30.7563 193.397 30.7563C193.825 30.7563 194.173 31.1036 194.173 31.5316Z" fill="#1E1C1B"/>
<path d="M199.092 31.5316C199.092 31.9601 198.745 32.3068 198.317 32.3068C197.888 32.3068 197.542 31.9596 197.542 31.5316C197.542 31.1036 197.889 30.7563 198.317 30.7563C198.745 30.7563 199.092 31.1036 199.092 31.5316Z" fill="#1E1C1B"/>
<path d="M191.297 29.7269C191.253 29.7922 191.225 29.8971 191.294 29.9361C191.317 29.9495 191.346 29.95 191.374 29.9495C192.154 29.9383 192.931 29.8387 193.688 29.6536C193.763 29.6354 193.84 29.6151 193.901 29.5675C193.962 29.5199 194.003 29.438 193.979 29.3647C193.946 29.2631 193.819 29.2336 193.713 29.2197C192.988 29.1272 191.776 29.0175 191.297 29.7269Z" fill="#663022"/>
<path d="M200.111 29.7269C200.155 29.7922 200.182 29.8971 200.114 29.9361C200.09 29.9495 200.061 29.95 200.034 29.9495C199.255 29.9383 198.477 29.8387 197.72 29.6536C197.645 29.6354 197.568 29.6151 197.507 29.5675C197.446 29.5199 197.406 29.438 197.429 29.3647C197.462 29.2631 197.589 29.2336 197.696 29.2197C198.419 29.1272 199.631 29.0175 200.111 29.7269Z" fill="#663022"/>
<path d="M195.545 38.6269C194.605 38.6269 193.358 38.4177 192.174 37.5649C192.106 37.5157 192.091 37.421 192.14 37.3531C192.189 37.2851 192.285 37.2696 192.352 37.3188C194.504 38.8698 196.953 38.1508 196.977 38.1438C197.058 38.1187 197.142 38.1647 197.167 38.2444C197.191 38.3246 197.146 38.4092 197.066 38.4338C197.015 38.4493 196.411 38.6269 195.545 38.6269Z" fill="#753B2C"/>
<path d="M195.154 39.614C195.023 39.614 194.893 39.6054 194.764 39.5883C194.681 39.5771 194.622 39.5011 194.633 39.4182C194.644 39.3352 194.72 39.2759 194.803 39.2876C194.968 39.3096 195.133 39.3165 195.299 39.3069C195.396 39.3063 195.455 39.3668 195.459 39.4503C195.464 39.5337 195.4 39.6054 195.316 39.6102C195.262 39.6124 195.208 39.614 195.154 39.614Z" fill="#753B2C"/>
<path d="M186.303 33.2153C186.295 33.2153 186.287 33.2147 186.279 33.2131C186.197 33.2003 186.14 33.1222 186.153 33.0392C186.318 32.0104 185.274 31.2876 185.264 31.2801C185.194 31.2331 185.177 31.1389 185.224 31.0699C185.271 31.0003 185.365 30.9827 185.434 31.0298C185.484 31.0635 186.648 31.8702 186.453 33.0874C186.441 33.1623 186.377 33.2153 186.303 33.2153Z" fill="#753B2C"/>
<path d="M185.314 33.0195C185.304 33.0195 185.294 33.0189 185.285 33.0168C185.203 33.0013 185.149 32.9221 185.164 32.8397C185.181 32.7487 185.348 31.943 185.873 31.7809C185.954 31.7568 186.038 31.8018 186.063 31.8815C186.088 31.9617 186.043 32.0468 185.963 32.0709C185.663 32.1629 185.5 32.6974 185.462 32.8959C185.448 32.9686 185.385 33.0195 185.314 33.0195Z" fill="#753B2C"/>
<path d="M192.809 33.853C191.279 33.853 190.034 32.6075 190.034 31.0774C190.034 29.5467 191.279 28.3018 192.809 28.3018C194.34 28.3018 195.585 29.5473 195.585 31.0774C195.585 32.6075 194.34 33.853 192.809 33.853ZM192.809 28.4526C191.362 28.4526 190.185 29.6302 190.185 31.0769C190.185 32.5241 191.363 33.7011 192.809 33.7011C194.256 33.7011 195.434 32.5235 195.434 31.0769C195.434 29.6302 194.257 28.4526 192.809 28.4526Z" fill="#DADEE9"/>
<path d="M199.397 33.853C197.867 33.853 196.622 32.6075 196.622 31.0774C196.622 29.5467 197.867 28.3018 199.397 28.3018C200.928 28.3018 202.173 29.5473 202.173 31.0774C202.173 32.6075 200.927 33.853 199.397 33.853ZM199.397 28.4526C197.95 28.4526 196.773 29.6302 196.773 31.0769C196.773 32.5241 197.951 33.7011 199.397 33.7011C200.844 33.7011 202.021 32.5235 202.021 31.0769C202.021 29.6302 200.844 28.4526 199.397 28.4526Z" fill="#DADEE9"/>
<path d="M190.109 31.0266H186.699V31.178H190.109V31.0266Z" fill="#DADEE9"/>
<path d="M195.512 31.0689L195.441 30.9346C195.47 30.9196 196.155 30.5671 196.737 30.9378L196.656 31.0657C196.15 30.7436 195.518 31.0662 195.512 31.0689Z" fill="#DADEE9"/>
<path d="M177.908 68.5148C177.804 68.5148 177.716 68.4346 177.709 68.3292C177.305 62.4103 173.724 50.5315 173.688 50.4117C173.656 50.3063 173.715 50.195 173.821 50.1629C173.924 50.1319 174.038 50.1896 174.07 50.2961C174.106 50.416 177.7 62.3386 178.107 68.3019C178.115 68.4121 178.032 68.5073 177.922 68.5148C177.917 68.5148 177.913 68.5148 177.908 68.5148Z" fill="#414C82"/>
<path d="M188.294 86.4906C188.208 86.4906 188.129 86.4355 188.103 86.3489C188.072 86.2445 188.131 86.1327 188.236 86.1001C192.866 84.6914 197.659 83.8028 202.479 83.4587C202.587 83.4603 202.684 83.5331 202.693 83.6444C202.7 83.7546 202.618 83.8493 202.508 83.8579C197.716 84.1992 192.954 85.082 188.353 86.4826C188.333 86.488 188.313 86.4906 188.294 86.4906Z" fill="#414C82"/>
<path d="M185.492 87.4468C185.401 87.4468 185.318 87.3836 185.297 87.2911C185.273 87.1825 185.341 87.0765 185.449 87.0519C189.58 86.129 193.815 85.4988 198.04 85.1794C198.162 85.1671 198.245 85.2538 198.254 85.364C198.263 85.4742 198.18 85.5705 198.07 85.5785C193.866 85.8963 189.648 86.5223 185.536 87.4425C185.521 87.4457 185.507 87.4468 185.492 87.4468Z" fill="#414C82"/>
<path d="M209.802 61.6848C209.799 61.6848 209.795 61.6848 209.793 61.6848C209.682 61.68 209.597 61.5864 209.602 61.4767C209.605 61.4002 209.927 53.8239 208.657 50.2147C208.621 50.111 208.675 49.9965 208.78 49.9601C208.884 49.9232 208.997 49.9772 209.035 50.0826C210.33 53.7645 210.015 61.1808 210.002 61.4943C209.996 61.6013 209.909 61.6848 209.802 61.6848Z" fill="#414C82"/>
<path d="M187.835 43.7647C187.835 43.7647 188.196 45.8929 190.927 46.7762L193.255 47.2182L194.259 49.5069L194.781 47.0175C194.781 47.0175 197.793 45.6121 198.114 42.9622C198.114 42.9622 198.596 43.3233 198.596 43.9257C198.596 44.5281 198.194 49.5872 198.194 49.5872L196.428 48.8243C196.428 48.8243 194.621 50.5909 191.73 49.7076L190.244 50.5507C190.244 50.5507 186.871 47.8602 187.835 43.7647Z" fill="#DADEE9"/>
<path d="M190.243 50.7505C190.173 50.7505 190.104 50.7125 190.068 50.6467C190.015 50.5498 190.051 50.4284 190.148 50.3754C190.171 50.3631 192.461 49.1058 192.921 47.9903C192.962 47.8882 193.078 47.8405 193.181 47.8817C193.283 47.9235 193.332 48.0401 193.289 48.1418C192.777 49.3883 190.438 50.6718 190.339 50.7258C190.309 50.743 190.276 50.7505 190.243 50.7505Z" fill="#ACBBDD"/>
<path d="M198.195 49.7868C198.176 49.7868 198.157 49.7842 198.138 49.7788C198.029 49.7467 195.459 48.9715 194.797 47.5655C194.75 47.4654 194.792 47.3467 194.892 47.2991C194.989 47.2541 195.11 47.2942 195.159 47.3948C195.744 48.6392 198.227 49.3888 198.252 49.3963C198.358 49.4273 198.418 49.5386 198.387 49.6445C198.36 49.7312 198.281 49.7868 198.195 49.7868Z" fill="#ACBBDD"/>
<path d="M172.71 81.308C172.646 81.308 172.584 81.2775 172.545 81.2197C172.483 81.1287 172.506 81.0052 172.598 80.9431C173.631 80.2428 174.502 79.8019 175.241 79.6072C174.342 79.5681 173.425 79.7281 172.59 80.063C172.489 80.1063 172.371 80.0539 172.33 79.9523C172.289 79.8495 172.338 79.7334 172.441 79.6928C173.348 79.3295 174.338 79.1599 175.321 79.2107C175.723 79.2305 175.98 79.4065 176.011 79.6821C176.016 79.735 176.001 79.788 175.967 79.8292C175.934 79.8704 175.885 79.8966 175.832 79.902C175.062 79.9795 174.05 80.4407 172.823 81.2727C172.788 81.2973 172.749 81.308 172.71 81.308Z" fill="#414C82"/>
<path d="M171.694 104.293C170.568 104.293 169.718 104.026 169.653 104.005C169.548 103.972 169.491 103.859 169.525 103.755C169.559 103.649 169.671 103.591 169.776 103.625C169.804 103.632 172.605 104.507 174.74 102.998C174.829 102.933 174.954 102.954 175.018 103.044C175.083 103.135 175.061 103.259 174.971 103.323C173.894 104.086 172.686 104.293 171.694 104.293Z" fill="#414C82"/>
<path d="M219.71 61.733C219.706 61.733 219.701 61.733 219.696 61.733C219.586 61.725 219.503 61.6298 219.51 61.5196C219.713 58.6241 220.7 56.8168 220.742 56.7409C220.795 56.6446 220.917 56.6087 221.014 56.6633C221.11 56.7168 221.145 56.8388 221.092 56.9351C221.082 56.9527 220.105 58.7461 219.909 61.5474C219.901 61.6523 219.814 61.733 219.71 61.733Z" fill="#414C82"/>
<path d="M218.268 60.9946C218.263 60.9946 218.256 60.9946 218.25 60.9941C218.141 60.9845 218.06 60.8876 218.07 60.7774C218.238 58.8856 219.156 56.935 219.195 56.8531C219.241 56.7525 219.362 56.7103 219.46 56.7584C219.56 56.806 219.602 56.9248 219.555 57.0238C219.546 57.0436 218.629 58.9937 218.467 60.8133C218.458 60.917 218.37 60.9946 218.268 60.9946Z" fill="#414C82"/>
<path d="M237.105 48.1529C237.033 48.1529 236.961 48.1128 236.927 48.0427C236.001 46.1905 233.347 44.8883 233.32 44.8749C233.221 44.8268 233.18 44.7075 233.228 44.6085C233.276 44.509 233.398 44.4683 233.495 44.5154C233.609 44.5705 236.297 45.8882 237.285 47.8635C237.333 47.9625 237.294 48.0823 237.195 48.1315C237.166 48.146 237.136 48.1529 237.105 48.1529Z" fill="#414C82"/>
<path d="M239.702 199C247.868 199 254.487 195.529 254.487 191.248C254.487 186.967 247.868 183.497 239.702 183.497C231.537 183.497 224.917 186.967 224.917 191.248C224.917 195.529 231.537 199 239.702 199Z" fill="#E6E7E8"/>
<path d="M247.751 51.8252C246.201 51.8252 244.939 50.5641 244.939 49.0137C244.939 47.6457 246.164 46.5264 247.347 46.2348C247.461 46.2033 247.563 46.2744 247.589 46.3814C247.615 46.4879 247.55 46.5965 247.443 46.6227C246.431 46.8715 245.338 47.857 245.338 49.0137C245.338 50.3442 246.421 51.426 247.751 51.426C249.082 51.426 250.163 50.3442 250.163 49.0137C250.163 47.9752 249.493 47.0582 248.497 46.7329C248.392 46.6987 248.335 46.5858 248.369 46.4809C248.403 46.3755 248.516 46.3199 248.621 46.3531C249.782 46.7329 250.562 47.8019 250.562 49.0137C250.562 50.5641 249.302 51.8252 247.751 51.8252Z" fill="#FBB040"/>
<path d="M241.328 190.608C241.382 189.359 240.879 188.157 240.337 187.031C240.311 186.977 240.284 186.918 240.3 186.86C240.314 186.808 240.359 186.771 240.403 186.739C240.91 186.369 241.534 186.177 242.161 186.135C242.787 186.093 243.417 186.198 244.017 186.382C244.177 186.431 244.339 186.488 244.47 186.592C244.585 186.683 244.67 186.807 244.749 186.931C244.924 187.207 245.077 187.497 245.23 187.787C245.446 188.195 245.662 188.604 245.878 189.013C246.365 189.934 246.63 190.956 246.79 191.986C246.837 192.287 246.883 192.592 246.845 192.894C246.838 192.954 246.826 193.014 246.797 193.067C246.69 193.257 246.382 193.277 246.19 193.325C245.878 193.404 245.562 193.472 245.247 193.538C244.616 193.67 243.981 193.783 243.344 193.875C242.693 193.969 242.027 194.042 241.379 193.93C240.74 193.82 240.954 192.968 241.024 192.518C241.123 191.882 241.299 191.255 241.328 190.608Z" fill="#24262D"/>
<path d="M246.933 192.91C246.933 192.91 242.394 192.441 240.672 193.536C240.672 193.536 242.058 197.956 245.239 197.702C245.239 197.702 246.855 197.45 246.933 192.91Z" fill="#24262D"/>
<path d="M246.571 192.165C246.706 193.347 246.544 194.614 246.221 195.753C246.173 195.922 246.12 196.091 246.034 196.242C245.94 196.408 245.809 196.549 245.674 196.684C245.562 196.797 245.445 196.907 245.311 196.992C245.124 197.11 244.906 197.178 244.685 197.185C244.268 197.199 243.884 197.004 243.546 196.78C243.239 196.576 242.942 196.421 242.657 196.173C242.095 195.683 241.595 195.091 241.376 194.366C240.904 192.807 241.83 191.128 241.561 189.521C241.317 188.058 240.101 186.741 240.398 185.288C240.547 184.562 241.101 183.932 241.802 183.693C244.112 182.903 244.014 185.052 244.491 186.511C245.115 188.419 246.339 190.134 246.571 192.165Z" fill="#EC9D7D"/>
<path d="M240.671 193.735C240.597 193.735 240.527 193.694 240.491 193.623C240.443 193.524 240.484 193.405 240.584 193.356C244.403 191.501 246.914 192.68 247.02 192.731C247.119 192.779 247.159 192.898 247.111 192.997C247.063 193.096 246.942 193.134 246.846 193.09C246.821 193.078 244.394 191.948 240.758 193.716C240.73 193.728 240.7 193.735 240.671 193.735Z" fill="#24262D"/>
<path d="M238.354 190.608C238.299 189.359 238.802 188.157 239.345 187.031C239.37 186.977 239.397 186.918 239.382 186.86C239.368 186.808 239.322 186.771 239.278 186.739C238.771 186.369 238.147 186.177 237.521 186.135C236.894 186.093 236.265 186.198 235.665 186.382C235.505 186.431 235.343 186.488 235.212 186.592C235.097 186.683 235.012 186.807 234.933 186.931C234.758 187.207 234.605 187.497 234.452 187.787C234.236 188.195 234.02 188.604 233.804 189.013C233.317 189.934 233.052 190.956 232.892 191.986C232.845 192.287 232.799 192.592 232.837 192.894C232.844 192.954 232.856 193.014 232.885 193.067C232.992 193.257 233.3 193.277 233.492 193.325C233.804 193.404 234.12 193.472 234.435 193.538C235.066 193.67 235.701 193.783 236.338 193.875C236.989 193.969 237.655 194.042 238.303 193.93C238.942 193.82 238.728 192.968 238.658 192.518C238.559 191.882 238.382 191.255 238.354 190.608Z" fill="#24262D"/>
<path d="M232.749 192.91C232.749 192.91 237.288 192.441 239.01 193.536C239.01 193.536 237.624 197.956 234.442 197.702C234.442 197.702 232.827 197.45 232.749 192.91Z" fill="#24262D"/>
<path d="M233.11 192.165C232.975 193.347 233.138 194.614 233.461 195.753C233.508 195.922 233.561 196.091 233.648 196.242C233.742 196.408 233.872 196.549 234.007 196.684C234.119 196.797 234.236 196.907 234.371 196.992C234.557 197.11 234.775 197.178 234.996 197.185C235.414 197.199 235.797 197.004 236.136 196.78C236.442 196.576 236.74 196.421 237.024 196.173C237.587 195.683 238.086 195.091 238.306 194.366C238.777 192.807 237.852 191.128 238.12 189.521C238.365 188.058 239.581 186.741 239.283 185.288C239.135 184.562 238.581 183.932 237.879 183.693C235.569 182.903 235.667 185.052 235.19 186.511C234.567 188.419 233.343 190.134 233.11 192.165Z" fill="#EC9D7D"/>
<path d="M239.01 193.735C238.981 193.735 238.95 193.728 238.923 193.716C235.29 191.948 232.859 193.076 232.835 193.09C232.738 193.137 232.618 193.097 232.57 192.997C232.522 192.898 232.562 192.779 232.661 192.731C232.765 192.68 235.277 191.499 239.096 193.356C239.197 193.405 239.238 193.524 239.19 193.622C239.154 193.694 239.084 193.735 239.01 193.735Z" fill="#24262D"/>
<path d="M253.253 95.6832C253.253 95.6832 262.216 103.519 256.308 125.007C250.4 146.495 255.258 150.168 251.854 161.479C248.45 172.79 244.753 185.394 244.753 185.394L239.469 186.076C239.469 186.076 241.259 134.467 240.919 128.342C240.578 122.217 239.756 111.581 239.56 104.488C239.364 97.3952 249.167 94.5837 253.253 95.6832Z" fill="#000091"/>
<path d="M229.681 95.9586C229.681 95.9586 220.428 103.396 225.51 125.108C230.592 146.82 225.599 150.278 228.568 161.72C231.537 173.162 234.75 185.907 234.75 185.907L240.002 185.982C240.002 185.982 240.183 135.205 240.757 129.104C241.331 123.002 242.558 112.418 243.024 105.343C243.49 98.2688 233.805 95.0374 229.681 95.9586Z" fill="#000091"/>
<path d="M239.714 186.101C239.604 186.123 239.519 186.012 239.522 185.905L240.022 164.482C240.024 164.374 240.123 164.279 240.219 164.293C240.327 164.295 240.411 164.384 240.408 164.49L239.907 185.913C239.905 186.019 239.818 186.101 239.714 186.101Z" fill="#384775"/>
<path d="M240.871 128.128C240.765 128.128 240.678 128.043 240.678 127.936L240.637 114.538C240.636 114.432 240.723 114.345 240.83 114.345C240.936 114.345 241.022 114.431 241.022 114.538L241.064 127.936C241.065 128.042 240.979 128.128 240.871 128.128Z" fill="#384775"/>
<path d="M243.41 115.184C243.386 115.184 243.362 115.181 243.338 115.171C243.308 115.162 240.364 114.095 238.114 114.58C237.99 114.602 237.89 114.532 237.867 114.42C237.842 114.307 237.915 114.196 238.026 114.173C240.403 113.661 243.357 114.735 243.481 114.781C243.59 114.821 243.645 114.94 243.605 115.048C243.575 115.132 243.495 115.184 243.41 115.184Z" fill="#384775"/>
<path d="M236.617 182.577C236.515 182.577 236.429 182.497 236.424 182.394C236.409 182.103 234.975 153.36 234.463 147.919C233.98 142.757 232.396 114.091 233.018 107.671C233.028 107.567 233.099 107.499 233.23 107.498C233.336 107.509 233.413 107.602 233.403 107.71C232.783 114.109 234.365 142.726 234.848 147.884C235.36 153.333 236.796 182.085 236.81 182.375C236.815 182.482 236.733 182.571 236.627 182.577C236.624 182.577 236.62 182.577 236.617 182.577Z" fill="#384775"/>
<path d="M243.906 182.577C243.904 182.577 243.899 182.577 243.897 182.577C243.791 182.571 243.708 182.482 243.714 182.375C243.728 182.084 245.163 153.333 245.676 147.884C246.158 142.726 247.741 114.109 247.12 107.71C247.11 107.602 247.187 107.509 247.293 107.498C247.421 107.496 247.496 107.567 247.505 107.671C248.127 114.092 246.543 142.757 246.061 147.919C245.549 153.36 244.114 182.104 244.099 182.394C244.095 182.497 244.008 182.577 243.906 182.577Z" fill="#384775"/>
<path d="M234.952 37.0422C233.97 36.2076 232.575 35.8845 231.326 36.2023C230.105 36.5126 229.076 37.3953 228.428 38.4755C227.781 39.5562 227.489 40.821 227.417 42.0783C227.354 43.1702 227.45 44.2707 227.701 45.3354C227.958 46.4311 228.427 47.5487 229.346 48.1988C230.46 48.9858 232.045 48.8868 233.21 48.1779C234.375 47.4685 235.154 46.2455 235.591 44.9534C236.406 42.5475 237.178 38.9335 234.952 37.0422Z" fill="#291E3B"/>
<path d="M252.67 98.7819C251.999 98.8445 251.333 98.867 250.938 98.936C249.573 99.1746 248.202 99.3838 246.827 99.5593C243.213 100.021 239.513 100.327 235.873 99.9964C234.124 99.8375 232.524 99.9092 230.806 99.5293C230.005 99.3523 229.188 99.1693 228.48 98.7541C228.076 98.5182 227.696 98.1774 227.589 97.7221C227.493 97.3059 227.644 96.8688 227.867 96.5044C228.09 96.1401 228.383 95.8228 228.612 95.4622C229.352 94.2975 229.392 92.2928 229.233 90.9622C229.088 89.7462 228.587 88.6066 228.193 87.4472C226.377 82.1046 226.698 76.3565 226.885 70.8058C226.931 69.4238 226.975 68.0414 226.977 66.6584C226.978 65.5771 226.569 63.8025 226.999 62.7988C227.357 61.9631 228.128 62.007 228.907 61.7571C230.265 61.3227 231.585 60.7096 232.926 60.2206C235.428 59.3084 238.414 57.9521 241.127 57.9521C243.893 57.9521 252.192 61.9166 254.128 62.8389C256.064 63.7607 254.958 73.9029 254.866 75.6551C254.774 77.4072 256.064 81.003 253.39 86.9042C251.732 90.5631 253.166 93.3944 254.652 96.7532C254.853 97.2085 255.018 97.7815 254.704 98.1672C254.387 98.5567 253.525 98.7022 252.67 98.7819Z" fill="#DADEE9"/>
<path d="M254.633 62.986C254.633 62.986 257.733 71.5103 257.733 77.6672C257.733 83.8235 258.785 87.3754 256.037 88.3818C253.288 89.3881 246.271 91.7561 237.324 87.8489C237.324 87.8489 228.319 87.4937 226.798 86.4873C225.278 85.481 224.518 83.4089 224.576 80.2122C224.635 77.0155 225.278 67.4255 226.039 65.1757C226.799 62.926 227.208 62.8672 227.208 62.8672L254.633 62.986Z" fill="#DADEE9"/>
<path d="M244.663 53.2627L244.571 61.2317C244.571 61.2317 245.212 63.7051 240.816 63.7051C236.419 63.7051 237.884 58.8504 237.884 58.8504L238.067 50.9729L244.663 53.2627Z" fill="#EC9D7D"/>
<path d="M238.045 51.9338L238.068 50.9729L244.663 53.2627L244.635 55.6874C242.291 55.7725 239.022 55.2444 238.045 51.9338Z" fill="#BA684A"/>
<path d="M234.896 46.9773C235.752 49.6171 237.392 52.3189 239.733 53.887C242.049 55.4385 245.345 55.629 247.277 53.3707C248.388 52.0723 248.874 50.3415 249.029 48.6391C249.11 47.7553 249.11 46.8639 249.238 45.986C249.341 45.2782 249.527 44.5848 249.63 43.877C249.763 42.9669 249.759 42.0419 249.704 41.1238C249.62 39.7221 249.323 38.2781 248.572 37.0716C247.783 35.8047 246.477 35.0274 245.048 34.6748C241.712 33.852 237.455 34.471 235.34 37.4408C234.848 38.1315 234.482 38.9126 234.275 39.7355C233.702 42.0194 234.18 44.7688 234.896 46.9773Z" fill="#EC9D7D"/>
<path d="M249.713 41.9248C248.117 40.7446 246.908 38.6056 246.142 36.8112C244.459 41.225 239.987 44.4281 235.266 44.5999C235.113 44.6052 234.945 44.6138 234.833 44.7192C234.734 44.8128 234.707 44.9594 234.691 45.0953C234.571 46.1766 234.956 46.8887 235.293 47.8602C235.538 48.5638 235.773 49.225 236.149 49.8665C235.212 50.2763 233.397 47.7586 232.996 47.069C230.649 43.028 232.335 37.0118 236.342 34.6974C238.827 33.263 242.024 32.4707 244.857 33.1929C248.272 34.0634 249.751 37.1611 249.802 40.483C249.81 40.9581 249.825 41.477 249.713 41.9248Z" fill="#291E3B"/>
<path d="M233.282 45.6661C233.535 46.4766 234.134 47.1181 234.832 47.3423C234.979 47.3894 235.14 47.4177 235.277 47.3434C236.571 46.6484 235.876 43.6208 234.939 42.9199C233.551 41.8814 232.903 44.4516 233.282 45.6661Z" fill="#EC9D7D"/>
<path d="M246.017 48.7676C245.747 48.7676 245.477 48.6756 245.267 48.5038C245.202 48.4509 245.192 48.3551 245.245 48.2904C245.299 48.2256 245.394 48.2165 245.459 48.2684C245.673 48.4439 245.973 48.5076 246.24 48.4343C246.297 48.4188 246.434 48.3722 246.474 48.2743C246.524 48.1518 246.42 47.9822 246.329 47.8318C245.662 46.7394 245.54 45.4136 245.433 44.2435C245.425 44.1601 245.487 44.0862 245.571 44.0788C245.651 44.0697 245.728 44.1323 245.736 44.2157C245.84 45.3526 245.958 46.6415 246.588 47.6735C246.705 47.8634 246.864 48.124 246.756 48.3888C246.691 48.5482 246.537 48.6681 246.321 48.7269C246.222 48.7547 246.119 48.7676 246.017 48.7676Z" fill="#BF6443"/>
<path d="M243.594 44.6358C243.594 45.0644 243.247 45.4111 242.819 45.4111C242.391 45.4111 242.043 45.0638 242.043 44.6358C242.043 44.2073 242.391 43.8606 242.819 43.8606C243.247 43.8606 243.594 44.2073 243.594 44.6358Z" fill="#1E1C1B"/>
<path d="M248.88 44.6358C248.88 45.0644 248.532 45.4111 248.104 45.4111C247.676 45.4111 247.329 45.0638 247.329 44.6358C247.329 44.2073 247.676 43.8606 248.104 43.8606C248.532 43.8606 248.88 44.2073 248.88 44.6358Z" fill="#1E1C1B"/>
<path d="M243.113 42.0757C243.424 42.0704 243.785 42.1383 243.93 42.4128C243.959 42.4663 243.977 42.5278 243.967 42.5872C243.949 42.6899 243.852 42.7589 243.755 42.7991C243.507 42.9034 243.227 42.8863 242.957 42.8938C242.437 42.9082 241.92 43.0232 241.442 43.2281C241.154 43.3512 240.826 43.6337 240.869 43.165C240.944 42.3625 242.514 42.0859 243.113 42.0757Z" fill="#291E3B"/>
<path d="M247.378 42.2046C247.102 42.1998 246.782 42.2603 246.652 42.5037C246.627 42.5513 246.61 42.6053 246.62 42.6583C246.636 42.7492 246.722 42.8108 246.807 42.8466C247.028 42.9392 247.276 42.9237 247.516 42.9306C247.978 42.9435 248.436 43.0456 248.861 43.2275C249.116 43.3367 249.407 43.5871 249.368 43.1714C249.303 42.4587 247.909 42.2132 247.378 42.2046Z" fill="#291E3B"/>
<path d="M247.468 50.5888C247.468 50.5888 246.049 49.4139 243.687 50.5572C243.687 50.5572 244.436 51.0221 245.67 50.9199C246.906 50.8172 247.468 50.5888 247.468 50.5888Z" fill="#C45335"/>
<path d="M243.687 50.5571C243.687 50.5571 245.678 50.9359 247.468 50.5887C247.468 50.5887 245.947 52.7512 243.687 50.5571Z" fill="#E5724A"/>
<path d="M235.117 46.292C235.109 46.292 235.101 46.2915 235.093 46.2904C235.011 46.2776 234.954 46.2 234.967 46.1171C235.247 44.3317 234.023 43.7352 234.011 43.7298C233.935 43.694 233.903 43.6041 233.938 43.5282C233.973 43.4527 234.063 43.4195 234.14 43.4554C234.154 43.4623 235.582 44.1573 235.266 46.1647C235.255 46.2385 235.191 46.292 235.117 46.292Z" fill="#BF6443"/>
<path d="M234.02 45.7427C233.945 45.7427 233.881 45.6892 233.871 45.6137C233.866 45.587 233.788 44.9487 234.713 44.1098C234.776 44.0542 234.872 44.0585 234.927 44.12C234.984 44.182 234.979 44.2778 234.917 44.334C234.124 45.0525 234.17 45.5677 234.171 45.5725C234.18 45.6549 234.121 45.7304 234.039 45.7405C234.033 45.7421 234.026 45.7427 234.02 45.7427Z" fill="#BF6443"/>
<path d="M244.571 59.1799C244.571 59.1799 245.283 65.2309 241.783 68.4934C241.783 68.4934 236.8 65.6461 237.809 58.646L244.571 59.1799Z" fill="#EC9D7D"/>
<path d="M237.323 88.0492C237.245 88.0492 237.171 88.0026 237.139 87.9256C237.096 87.824 237.146 87.7068 237.247 87.6656L247.567 83.4626L246.982 80.0749C245.474 80.2268 235.911 81.1818 234.108 81.1818C232.197 81.1818 230.261 81.1235 230.242 81.123C230.182 81.1208 230.126 81.0935 230.091 81.0459C230.054 80.9988 230.04 80.9384 230.052 80.8806C230.129 80.5318 230.175 79.8844 229.972 79.634C229.912 79.5597 229.833 79.5249 229.722 79.5249C229.612 79.5249 229.522 79.4366 229.522 79.3269C229.521 79.2472 229.463 71.3071 229.522 69.1965C229.59 66.7296 229.313 65.1658 228.702 64.5473C228.624 64.4692 228.625 64.3424 228.704 64.2653C228.781 64.1883 228.909 64.1883 228.986 64.267C229.686 64.9753 229.993 66.5921 229.922 69.2078C229.868 71.1365 229.912 77.9685 229.92 79.1504C230.064 79.1868 230.188 79.2665 230.283 79.3842C230.57 79.7421 230.532 80.3804 230.484 80.7303C231.052 80.7463 232.587 80.7832 234.107 80.7832C236.005 80.7832 247.016 79.6709 247.126 79.6592C247.226 79.6479 247.325 79.7202 247.343 79.8245L247.987 83.553C248.003 83.645 247.952 83.737 247.866 83.7718L237.398 88.0353C237.374 88.0449 237.348 88.0492 237.323 88.0492Z" fill="#ACBBDD"/>
<path d="M247.791 83.7857C247.709 83.7857 247.63 83.7333 247.603 83.6509C247.567 83.5465 247.622 83.4337 247.727 83.3978L251.17 82.2176C251.122 81.7987 251.492 81.3477 251.635 81.1898L251.862 79.2429C251.876 79.1723 252.96 73.8955 252.389 70.6571C251.806 67.3459 252.384 63.9909 252.389 63.9582C252.407 63.8502 252.518 63.7785 252.62 63.7961C252.729 63.8154 252.801 63.9192 252.782 64.0273C252.777 64.0604 252.211 67.3481 252.782 70.5886C253.367 73.903 252.301 79.0878 252.255 79.3066L252.024 81.3022C252.019 81.346 251.999 81.3878 251.968 81.4193C251.793 81.5975 251.47 82.0335 251.59 82.2459C251.62 82.2984 251.624 82.3599 251.604 82.415C251.582 82.4706 251.538 82.514 251.481 82.5332L247.856 83.775C247.834 83.783 247.814 83.7857 247.791 83.7857Z" fill="#ACBBDD"/>
<path d="M247.323 80.094C247.323 80.094 250.268 78.8202 251.731 80.4776C251.731 80.4776 251.621 81.5728 251.253 82.2892L248.434 83.3496C248.434 83.3496 247.967 84.0007 247.733 83.0537L247.323 80.094Z" fill="#EC9D7D"/>
<path d="M233.634 80.7693C233.41 80.1893 233.176 79.5232 232.938 78.947C232.645 78.2365 231.184 76.0462 230.482 75.5727C229.966 75.2244 229.233 74.9082 228.623 75.1929C228.263 75.3603 227.994 75.7081 227.92 76.0981C227.902 76.1955 227.896 76.2998 227.934 76.3918C227.992 76.5363 228.142 76.6181 228.257 76.723C228.402 76.8535 228.501 77.0333 228.535 77.2254C228.55 77.3083 228.553 77.3934 228.578 77.4741C228.632 77.6475 228.777 77.7727 228.904 77.9027C229.138 78.1434 229.268 78.4377 229.469 78.6966C229.666 78.9513 229.932 79.1717 230.19 79.3622C230.426 79.5361 230.543 79.7998 230.551 80.0887C230.557 80.2915 230.458 80.4953 230.465 80.6821C231.477 80.8024 232.613 80.7661 233.634 80.7693Z" fill="#EC9D7D"/>
<path d="M247.093 90.1387C244.532 90.1387 241.452 89.7851 238.557 88.5348C238.531 88.5225 237.317 87.8869 236.272 87.8869C236.216 87.8869 236.158 87.8896 236.101 87.8938C234.918 87.9736 229.462 87.5579 227.804 87.063C227.699 87.0314 227.639 86.9201 227.67 86.8142C227.702 86.7083 227.815 86.6505 227.92 86.681C229.503 87.1555 234.925 87.5782 236.074 87.4953C237.279 87.4166 238.671 88.1448 238.73 88.1763C245.24 90.9857 252.742 89.1629 252.819 89.1447C252.927 89.1174 253.034 89.1832 253.062 89.2908C253.088 89.3983 253.023 89.5053 252.916 89.5326C252.873 89.5427 250.419 90.1387 247.093 90.1387Z" fill="#ACBBDD"/>
<path d="M228.496 82.9151C228.458 82.9151 228.419 82.9039 228.385 82.8814C228.293 82.8193 228.269 82.6958 228.331 82.6043C228.719 82.0286 229.179 81.5027 229.697 81.0426C229.876 80.8837 230.078 80.7344 230.329 80.7542C230.439 80.7612 230.523 80.8559 230.516 80.9661C230.509 81.0768 230.417 81.163 230.304 81.1533C230.201 81.1501 230.077 81.2384 229.962 81.3411C229.469 81.7793 229.032 82.2785 228.662 82.8268C228.623 82.8846 228.56 82.9151 228.496 82.9151Z" fill="#ACBBDD"/>
<path d="M227.51 80.1903C227.476 80.1903 227.443 80.1823 227.411 80.1641C227.352 80.1299 227.293 80.0347 227.29 79.9662C227.286 79.8469 227.366 79.7474 227.437 79.6992C227.608 79.581 227.787 79.4745 227.967 79.3809C228.126 79.2985 228.254 79.2445 228.379 79.2065C228.901 79.0449 229.443 79.1417 229.922 79.2241C230.031 79.2434 230.103 79.3466 230.084 79.4552C230.066 79.5638 229.962 79.6414 229.853 79.6174C229.42 79.5408 228.923 79.4542 228.498 79.5869C228.394 79.6184 228.289 79.6644 228.151 79.7356C228.001 79.8126 227.852 79.9009 227.709 79.9961C227.708 80.0282 227.699 80.0603 227.683 80.0898C227.646 80.1545 227.579 80.1903 227.51 80.1903Z" fill="#ACBBDD"/>
<path d="M252.98 83.4789C252.936 83.4789 252.891 83.464 252.853 83.4351C252.412 83.0745 251.914 82.7973 251.376 82.6111C251.271 82.5753 251.216 82.4619 251.252 82.3575C251.289 82.2522 251.408 82.1987 251.505 82.2345C252.088 82.4362 252.628 82.7353 253.106 83.1248C253.192 83.1948 253.204 83.32 253.135 83.4067C253.096 83.4538 253.038 83.4789 252.98 83.4789Z" fill="#ACBBDD"/>
<path d="M254.165 82.5246C254.103 82.5246 254.042 82.4957 254.003 82.4422C253.936 82.3496 253.821 82.2812 253.7 82.21C253.155 81.8901 252.536 81.5268 251.883 81.5016C251.772 81.4974 251.687 81.4048 251.692 81.2946C251.696 81.1865 251.784 81.1025 251.891 81.1025C251.894 81.1025 251.896 81.1025 251.9 81.1025C252.652 81.132 253.316 81.5214 253.903 81.866C254.048 81.9521 254.212 82.049 254.328 82.2084C254.392 82.2977 254.371 82.4229 254.282 82.4871C254.246 82.5123 254.206 82.5246 254.165 82.5246Z" fill="#ACBBDD"/>
<path d="M246.436 93.0569C246.424 93.0569 246.41 93.0553 246.396 93.0526C242.793 92.326 239.101 91.8777 235.423 91.7236C235.313 91.7193 235.228 91.6257 235.232 91.516C235.236 91.4058 235.314 91.3218 235.44 91.325C239.138 91.4807 242.851 91.9301 246.476 92.662C246.583 92.684 246.653 92.7888 246.632 92.8974C246.612 92.9921 246.529 93.0569 246.436 93.0569Z" fill="#ACBBDD"/>
<path d="M241.859 93.311H239.482C239.372 93.311 239.283 93.2216 239.283 93.1114C239.283 93.0012 239.372 92.9119 239.482 92.9119H241.859C241.97 92.9119 242.059 93.0012 242.059 93.1114C242.058 93.2216 241.969 93.311 241.859 93.311Z" fill="#ACBBDD"/>
<path d="M239.861 79.8469C238.232 79.8469 236.604 79.7966 234.982 79.6971C234.871 79.6902 234.787 79.5955 234.794 79.4852C234.801 79.3793 234.89 79.298 234.994 79.298C234.998 79.298 235.002 79.298 235.006 79.298C239.86 79.5965 244.77 79.4446 249.596 78.8481C249.703 78.8256 249.805 78.9123 249.819 79.0214C249.833 79.1305 249.754 79.2306 249.646 79.2445C246.407 79.6452 243.131 79.8469 239.861 79.8469Z" fill="#ACBBDD"/>
<path d="M244.942 182.804H233.595C233.485 182.804 233.396 182.715 233.396 182.605C233.396 182.494 233.485 182.405 233.595 182.405H244.942C245.052 182.405 245.142 182.494 245.142 182.605C245.142 182.715 245.052 182.804 244.942 182.804Z" fill="#384775"/>
<path d="M241.442 74.0721C240.458 74.0721 239.617 73.6724 238.934 72.8795C236.316 69.8369 236.788 61.5999 237.694 58.789C237.728 58.6836 237.841 58.6269 237.946 58.6606C238.05 58.6943 238.108 58.8072 238.074 58.9115C237.189 61.6566 236.709 69.6823 239.236 72.6185C239.97 73.4681 240.904 73.8094 242.028 73.6232C242.908 73.4788 243.636 73.001 244.189 72.2033C246.758 68.4984 244.929 59.1004 244.911 59.0057C244.889 58.8971 244.959 58.7927 245.068 58.7703C245.172 58.7489 245.281 58.82 245.302 58.927C245.38 59.3197 247.181 68.5861 244.517 72.4296C243.9 73.3199 243.084 73.8533 242.091 74.0159C241.869 74.0544 241.652 74.0721 241.442 74.0721Z" fill="#FBB040"/>
<path d="M233.781 51.8252C232.23 51.8252 230.97 50.5641 230.97 49.0137C230.97 47.6457 232.193 46.5264 233.376 46.2348C233.489 46.2033 233.592 46.2744 233.619 46.3814C233.645 46.4879 233.58 46.596 233.472 46.6227C232.461 46.8715 231.369 47.857 231.369 49.0137C231.369 50.3442 232.45 51.426 233.781 51.426C235.111 51.426 236.192 50.3442 236.192 49.0137C236.192 47.9752 235.523 47.0582 234.526 46.7329C234.422 46.6987 234.364 46.5858 234.399 46.4809C234.433 46.3755 234.548 46.3199 234.65 46.3531C235.811 46.7329 236.591 47.8019 236.591 49.0137C236.592 50.5641 235.331 51.8252 233.781 51.8252Z" fill="#FBB040"/>
<path d="M148.334 198.999C156.499 198.999 163.119 195.529 163.119 191.248C163.119 186.967 156.499 183.497 148.334 183.497C140.168 183.497 133.549 186.967 133.549 191.248C133.549 195.529 140.168 198.999 148.334 198.999Z" fill="#E6E7E8"/>
<path d="M155.648 191.226C155.648 191.226 153.186 188.652 152.307 186.836C151.429 185.02 149.906 185.137 149.965 186.075C150.023 187.012 150.63 191.291 151 192.168C151.371 193.045 155.357 193.155 155.648 191.226Z" fill="#242C4D"/>
<path d="M148.986 117.072C148.986 117.072 151.207 141.232 151.587 146.224C151.966 151.215 150.07 156.766 150.122 165.064C150.173 173.363 149.794 183.625 150.47 187.436C151.145 191.246 151.303 195.868 153.93 197.406C156.557 198.944 156.873 192.934 155.177 190.939C153.481 188.944 151.519 186.004 152.766 179.537C154.012 173.071 158.068 162.915 157.397 154.084C156.727 145.253 161.22 140.857 160.534 116.581C160.534 116.581 161.355 107.057 154.179 106.637C147.003 106.217 148.986 117.072 148.986 117.072Z" fill="#D7785B"/>
<path d="M151 192.168C151 192.168 154.078 192.922 155.648 191.226C155.648 191.226 157.784 196.816 155.02 197.695C155.02 197.695 151.754 198.323 151 192.168Z" fill="#242C4D"/>
<path d="M140.123 191.226C140.123 191.226 142.585 188.652 143.464 186.836C144.342 185.02 145.865 185.137 145.806 186.075C145.748 187.012 145.141 191.291 144.771 192.168C144.401 193.045 140.415 193.155 140.123 191.226Z" fill="#242C4D"/>
<path d="M144.884 116.116C144.884 116.116 143.377 140.331 143.146 145.331C142.914 150.332 144.973 155.824 145.167 164.12C145.361 172.417 146.043 182.664 145.481 186.492C144.918 190.321 144.896 194.946 142.316 196.561C139.736 198.176 139.242 192.178 140.879 190.134C142.515 188.089 144.389 185.092 142.952 178.665C141.514 172.238 137.161 162.207 137.57 153.36C137.98 144.513 133.358 140.252 133.327 115.966C133.327 115.966 132.225 106.47 139.385 105.839C146.545 105.207 144.884 116.116 144.884 116.116Z" fill="#D7785B"/>
<path d="M144.838 192.168C144.838 192.168 141.76 192.922 140.19 191.226C140.19 191.226 138.054 196.816 140.818 197.695C140.818 197.695 144.085 198.323 144.838 192.168Z" fill="#242C4D"/>
<path d="M148.609 27.4993C149.285 27.357 149.979 27.5716 150.636 27.784C151.079 27.9268 151.522 28.0697 151.964 28.2125C152.305 28.3222 152.66 28.4415 152.908 28.6999C153.155 28.9583 153.247 29.4034 153.01 29.671C153.46 29.5677 153.932 29.4644 154.377 29.5832C154.823 29.7025 155.225 30.123 155.156 30.5794C155.975 30.5516 156.846 30.7795 157.396 31.3867C157.946 31.994 158.049 33.0313 157.473 33.6145C158.279 33.8734 158.745 34.8846 158.419 35.6652C158.35 35.8305 158.251 35.9905 158.243 36.1697C158.223 36.6694 158.846 36.8845 159.31 37.0728C159.773 37.2611 160.191 37.9368 159.757 38.1851C160.297 37.9711 160.968 38.1535 161.325 38.6115C161.683 39.0695 161.697 39.7644 161.358 40.2363C161.912 40.2657 162.433 40.636 162.643 41.149C162.853 41.6621 162.741 42.2918 162.367 42.7011C162.893 42.6776 163.411 43.0424 163.568 43.5448C163.724 44.0472 163.504 44.6416 163.058 44.9209C163.466 45.2387 163.893 45.5832 164.068 46.0695C164.243 46.5559 164.036 47.2166 163.532 47.3327C164.281 47.4889 164.869 48.2171 164.864 48.9821C164.859 49.7472 164.261 50.4673 163.51 50.6134C163.965 50.8054 163.892 51.5454 163.488 51.8289C163.083 52.1125 162.542 52.0697 162.053 51.998C162.249 52.3794 162.114 52.8979 161.757 53.1349C161.399 53.3719 160.869 53.2943 160.594 52.9653C160.6 53.4216 159.994 53.633 159.551 53.5244C159.108 53.4157 158.707 53.129 158.251 53.1156C157.776 53.1017 157.347 53.3863 156.883 53.4853C156.418 53.5843 155.791 53.343 155.819 52.8684C155.586 53.4773 154.555 53.5115 154.281 52.9198C153.734 53.8427 152.302 54.0706 151.496 53.3628C151.291 53.183 151.108 52.9471 150.841 52.8898C150.345 52.7828 149.95 53.3441 149.448 53.4211C149.036 53.4848 148.606 53.1482 148.569 52.7331C147.73 53.4372 146.426 53.5195 145.505 52.9268C145.348 52.8256 145.191 52.7031 145.004 52.6913C144.663 52.6689 144.424 53.0081 144.132 53.1857C143.501 53.5698 142.544 52.9669 142.618 52.2318C142.158 53.0648 140.884 53.2916 140.164 52.6683C139.988 52.5159 139.809 52.311 139.578 52.3308C139.449 52.3415 139.339 52.4228 139.224 52.4822C138.593 52.808 137.706 52.3612 137.592 51.6604C137.088 52.5057 135.774 52.0905 134.852 52.4335C134.661 52.5046 134.476 52.6132 134.272 52.6175C134.05 52.6223 133.846 52.5036 133.656 52.3885C133.182 52.1012 132.708 51.8139 132.234 51.5266C131.803 51.2655 131.306 50.7883 131.555 50.3491C129.824 50.5326 129.812 48.3508 130.519 47.3466C130.589 47.2471 130.669 47.1401 130.659 47.0186C130.649 46.8983 130.552 46.8068 130.473 46.7153C130.074 46.2541 130.054 45.5094 130.425 45.0263C130.087 44.7582 129.94 44.2724 130.073 43.8621C130.206 43.4517 130.609 43.1441 131.04 43.1248C130.536 42.4464 130.826 41.332 131.597 40.9853C131.349 40.774 131.228 40.4262 131.289 40.1074C131.33 39.8961 131.443 39.7067 131.554 39.5215C131.973 38.8218 132.423 38.0915 133.135 37.6923C132.891 37.3532 132.89 36.8599 133.132 36.5196C133.373 36.1793 133.839 36.0172 134.24 36.1349C133.991 35.7091 133.985 35.1516 134.225 34.7204C134.465 34.2892 134.942 34.0003 135.435 33.9874C135.434 33.5316 135.469 33.0469 135.735 32.6772C136.002 32.3075 136.578 32.1272 136.925 32.422C136.695 31.5911 137.55 30.6698 138.396 30.8373C138.263 30.0471 138.917 29.2162 139.715 29.1595C139.866 29.1488 140.024 29.1606 140.162 29.0996C140.341 29.0204 140.447 28.8379 140.563 28.6806C141.026 28.0558 142.059 27.7594 142.566 28.3489C142.686 27.9017 143.184 27.6748 143.639 27.5876C144.094 27.501 144.587 27.4844 144.964 27.2163C145.623 26.7487 146.226 26.7568 147.021 26.6776C147.39 26.6407 147.879 26.5267 148.223 26.7016C148.316 26.7487 148.922 27.4474 148.609 27.4993Z" fill="#291E3B"/>
<path d="M157.453 57.6831C157.453 57.6831 161.397 59.9077 161.864 64.8886C162.33 69.8696 163.731 76.601 164.968 81.3391C166.205 86.0777 168.096 98.6766 166.914 108.362C166.914 108.362 165.146 108.632 163.03 108.355C163.03 108.355 160.803 95.6543 160.022 91.3475C159.24 87.0407 156.851 76.5631 156.39 71.8041C155.929 67.0452 155.149 58.6327 157.453 57.6831Z" fill="#DADEE9"/>
<path d="M136.109 56.8237C136.109 56.8237 139.412 58.5957 138.661 65.8509C137.909 73.1062 134.1 83.7743 133.283 86.5216C132.466 89.2694 131.632 91.7433 124.609 89.4363C117.585 87.1294 111.771 82.6278 111.771 82.6278L113.066 78.7495C113.066 78.7495 121.703 80.0464 123.343 80.3005C124.982 80.5546 127.231 80.8799 127.231 80.8799C127.231 80.8799 130.001 67.6919 130.751 65.1961C131.501 62.6997 133.421 57.8188 136.109 56.8237Z" fill="#DADEE9"/>
<path d="M111.771 82.6278L113.066 78.7495C113.066 78.7495 121.703 80.0464 123.343 80.3005C124.419 80.4674 125.747 80.6632 126.539 80.7793C126.98 82.5251 127.538 85.8956 126.738 90.0313C126.097 89.8863 125.397 89.6958 124.609 89.4369C117.585 87.1294 111.771 82.6278 111.771 82.6278Z" fill="#EC9D7D"/>
<path d="M157.232 92.9421C157.232 92.9421 166.15 111.786 161.174 131.179L158.305 149.339C158.305 149.339 144.053 151.193 136.7 148.835C136.7 148.835 126.328 118.002 131.952 104.205L137.149 92.6816C137.149 92.6816 152.789 90.9177 157.232 92.9421Z" fill="#C9191E"/>
<path d="M147.013 99.6806C143.717 99.6806 139.853 99.2901 135.634 98.1344C135.527 98.1055 135.465 97.9953 135.494 97.8894C135.523 97.7819 135.634 97.7257 135.739 97.7492C148.593 101.267 158.071 97.6379 158.165 97.6005C158.264 97.5593 158.384 97.6101 158.423 97.7134C158.464 97.815 158.414 97.9322 158.31 97.9718C158.245 97.9969 153.851 99.6806 147.013 99.6806Z" fill="#631717"/>
<path d="M141.728 100.428C140.735 100.428 139.469 100.055 138.827 99.004C138.375 98.2651 138.338 97.2898 138.735 96.5221C139.146 95.7212 140.013 95.1423 140.996 95.0101C142.065 94.8641 143.034 95.237 143.653 95.573C144.272 95.9116 144.756 96.3241 145.094 96.8013C145.159 96.8923 145.137 97.0159 145.048 97.079C144.957 97.1421 144.833 97.1218 144.77 97.0325C144.466 96.6045 144.027 96.2315 143.463 95.9239C142.895 95.6158 142.012 95.2787 141.049 95.4066C140.193 95.5205 139.442 96.0186 139.089 96.704C138.757 97.3519 138.787 98.1731 139.168 98.7953C139.724 99.7075 140.844 100.03 141.727 100.03C141.745 100.03 141.761 100.03 141.778 100.03C142.836 100.013 143.891 99.6112 144.821 99.2549C144.925 99.219 145.041 99.2672 145.079 99.3705C145.118 99.4737 145.067 99.5893 144.964 99.6289C144.002 99.9948 142.913 100.412 141.783 100.428C141.765 100.428 141.746 100.428 141.728 100.428Z" fill="#FBB040"/>
<path d="M156.568 95.2818C156.007 95.3476 155.45 95.3706 155.121 95.4429C153.98 95.6916 152.835 95.9105 151.686 96.094C148.665 96.576 145.574 96.8959 142.532 96.5503C141.07 96.3845 139.734 96.4588 138.298 96.0624C137.628 95.8773 136.945 95.6863 136.354 95.2524C136.017 95.0058 135.698 94.6494 135.61 94.1744C135.529 93.7394 135.656 93.2825 135.842 92.9021C136.028 92.5212 136.273 92.1905 136.465 91.8134C137.404 89.9649 136.903 87.9875 137.057 86.031C137.225 83.9161 136.928 81.791 136.394 79.7136C136.001 78.1883 135.424 76.7116 135.115 75.1676C134.309 71.1433 135.356 67.0777 135.75 63.071C135.851 62.0481 135.916 61.0198 135.897 59.9915C135.883 59.2703 135.464 58.3169 135.535 57.6466C135.626 56.7932 136.345 56.7558 137.072 56.4562C140.505 55.0405 144.55 53.8566 148.287 54.3509C150.846 54.689 155.709 55.4461 157.37 57.585C158.375 58.8792 157.965 61.1354 158.024 62.6409C158.149 65.8547 159.761 68.9379 159.484 72.1427C159.372 73.4401 158.953 74.6877 158.611 75.9444C158.077 77.9058 157.727 79.9121 157.379 81.9151C157.055 83.7754 156.926 85.6682 156.785 87.545C156.642 89.4401 157.605 91.4126 158.225 93.1626C158.393 93.6383 158.531 94.2369 158.269 94.6398C158.002 95.0464 157.282 95.1984 156.568 95.2818Z" fill="#DADEE9"/>
<path d="M138.934 55.7457C141.919 54.6821 145.204 53.9427 148.287 54.3504C149.91 54.5649 152.455 54.9512 154.527 55.7484C153.072 57.7161 146.986 64.6381 138.934 55.7457Z" fill="#EC9D7D"/>
<path d="M138.175 148.222C138.086 148.222 138.007 148.164 137.982 148.075C134.873 136.659 131.626 120.486 133.817 108.27C135.137 100.917 137.775 98.5134 137.887 98.4139C137.969 98.3422 138.096 98.3481 138.167 98.4321C138.241 98.5145 138.233 98.6397 138.151 98.714C138.045 98.8077 127.653 108.634 138.367 147.971C138.396 148.077 138.332 148.187 138.226 148.216C138.209 148.221 138.192 148.222 138.175 148.222Z" fill="#631717"/>
<path d="M160.186 105.375C160.094 105.375 160.011 105.312 159.991 105.218C159.32 102.19 158.458 99.1634 157.43 96.2235C157.395 96.1191 157.449 96.0046 157.553 95.9688C157.655 95.9276 157.77 95.9865 157.808 96.0913C158.841 99.0462 159.706 102.088 160.382 105.132C160.405 105.24 160.338 105.346 160.229 105.371C160.216 105.374 160.2 105.375 160.186 105.375Z" fill="#631717"/>
<path d="M136.436 104.515C136.433 104.515 136.43 104.515 136.427 104.515C136.317 104.511 136.232 104.417 136.236 104.307C136.312 102.56 136.97 100.858 138.092 99.5158C138.161 99.4318 138.289 99.4195 138.373 99.4912C138.458 99.5613 138.47 99.6881 138.398 99.7721C137.333 101.048 136.707 102.664 136.636 104.325C136.631 104.431 136.541 104.515 136.436 104.515Z" fill="#631717"/>
<path d="M157.787 79.9261C157.771 79.9261 157.756 79.9245 157.739 79.9208C157.632 79.894 157.567 79.7854 157.593 79.6779C157.61 79.6158 159.156 73.4316 159.286 72.1214C159.395 71.0139 159.46 68.8231 158.666 66.599C157.9 64.4547 157.891 61.0322 157.891 60.8878C157.891 60.7776 157.98 60.6882 158.091 60.6882C158.201 60.6882 158.29 60.7776 158.29 60.8878C158.29 60.922 158.3 64.3862 159.042 66.4642C159.863 68.7615 159.795 71.0193 159.682 72.1604C159.549 73.4996 158.044 79.5195 157.98 79.7752C157.958 79.8657 157.877 79.9261 157.787 79.9261Z" fill="#ACBBDD"/>
<path d="M136.393 79.9126C136.319 79.9126 136.247 79.8708 136.213 79.7986C136.188 79.7473 133.798 74.5914 134.853 68.0033C134.86 67.9524 135.643 62.6371 135.643 61.6078C135.643 61.4976 135.732 61.4082 135.842 61.4082C135.953 61.4082 136.042 61.4976 136.042 61.6078C136.042 62.6671 135.28 67.8449 135.248 68.0643C134.213 74.5282 136.55 79.5782 136.573 79.6285C136.619 79.728 136.577 79.8473 136.478 79.8939C136.451 79.9067 136.422 79.9126 136.393 79.9126Z" fill="#ACBBDD"/>
<path d="M134.576 67.1789C134.574 67.1789 134.571 67.1789 134.57 67.1789C134.459 67.1757 134.372 67.0832 134.376 66.9735C134.429 65.2647 134.437 63.55 134.402 61.8759C134.4 61.7657 134.487 61.6742 134.598 61.6726C134.719 61.6742 134.798 61.7571 134.801 61.8679C134.837 63.5489 134.828 65.2705 134.775 66.9863C134.773 67.0939 134.683 67.1789 134.576 67.1789Z" fill="#ACBBDD"/>
<path d="M159.364 66.2946C159.273 66.2946 159.192 66.2336 159.17 66.1411C158.849 64.7982 158.691 63.4205 158.701 62.0461C158.701 61.9359 158.79 61.8481 158.9 61.8481H158.902C159.012 61.8487 159.101 61.9391 159.1 62.0488C159.09 63.3906 159.244 64.7361 159.558 66.0485C159.584 66.155 159.518 66.263 159.411 66.2887C159.394 66.293 159.379 66.2946 159.364 66.2946Z" fill="#ACBBDD"/>
<path d="M150.194 80.7345C150.18 80.7345 150.165 80.7329 150.151 80.7297C147.513 80.1492 144.805 79.8945 142.098 79.948C141.982 79.9432 141.897 79.8624 141.894 79.7533C141.891 79.6425 141.979 79.551 142.089 79.5489C144.809 79.4836 147.567 79.7517 150.237 80.3402C150.344 80.3637 150.413 80.4702 150.389 80.5777C150.369 80.6708 150.287 80.7345 150.194 80.7345Z" fill="#ACBBDD"/>
<path d="M148.961 81.5294C148.944 81.5294 148.926 81.5273 148.908 81.5225C148.267 81.3448 147.605 81.2742 146.938 81.2651H146.936C146.826 81.2651 146.738 81.1769 146.737 81.0677C146.735 80.9329 146.867 80.8649 147.011 80.8655C147.689 80.8655 148.363 80.957 149.015 81.1373C149.121 81.1667 149.183 81.2769 149.155 81.3828C149.129 81.4716 149.05 81.5294 148.961 81.5294Z" fill="#ACBBDD"/>
<path d="M147.635 91.4731C145.622 91.4731 143.611 91.304 141.618 90.9643C141.509 90.9466 141.435 90.8434 141.454 90.7348C141.472 90.6262 141.575 90.5598 141.684 90.5711C145.25 91.1778 148.876 91.2355 152.457 90.7444C152.581 90.7225 152.667 90.8075 152.683 90.9151C152.698 91.0253 152.621 91.1253 152.512 91.1408C150.892 91.3618 149.263 91.4731 147.635 91.4731Z" fill="#ACBBDD"/>
<path d="M146.163 92.5544C145.889 92.5544 145.614 92.5491 145.342 92.5352C145.232 92.5298 145.147 92.4362 145.152 92.326C145.157 92.2184 145.246 92.136 145.352 92.136C145.354 92.136 145.359 92.136 145.361 92.136C146.255 92.1788 147.161 92.15 148.059 92.0494C148.172 92.0344 148.269 92.1168 148.279 92.2254C148.292 92.334 148.213 92.433 148.103 92.4453C147.459 92.5186 146.81 92.5544 146.163 92.5544Z" fill="#ACBBDD"/>
<path d="M131.991 83.7084C131.94 83.7084 131.887 83.6892 131.849 83.6496C131.081 82.8706 130.175 82.2227 129.191 81.7433C129.212 81.7744 129.232 81.8059 129.253 81.837C129.412 82.0777 129.562 82.3056 129.802 82.494C129.89 82.5614 129.905 82.6866 129.836 82.7732C129.769 82.8599 129.641 82.8765 129.557 82.8075C129.264 82.5806 129.089 82.3137 128.92 82.0569C128.729 81.7679 128.565 81.5176 128.256 81.3437C128.165 81.2929 128.129 81.1805 128.172 81.0858C128.217 80.9911 128.324 80.9462 128.422 80.982C129.811 81.4903 131.094 82.3153 132.132 83.3687C132.211 83.4473 132.21 83.5736 132.131 83.6506C132.093 83.6892 132.042 83.7084 131.991 83.7084Z" fill="#ACBBDD"/>
<path d="M129.766 84.4363C129.7 84.4363 129.636 84.4031 129.598 84.3442C129.033 83.4583 128.363 82.6397 127.605 81.9126C127.526 81.8361 127.523 81.7104 127.599 81.6307C127.678 81.5515 127.802 81.5488 127.883 81.6253C128.661 82.3743 129.352 83.2164 129.934 84.1297C129.993 84.2233 129.967 84.3459 129.874 84.4047C129.84 84.4266 129.804 84.4363 129.766 84.4363Z" fill="#ACBBDD"/>
<path d="M162.198 82.293H159.673C159.563 82.293 159.474 82.2031 159.474 82.0929C159.474 81.9827 159.563 81.8933 159.673 81.8933H162.198C162.308 81.8933 162.397 81.9827 162.397 82.0929C162.397 82.2031 162.308 82.293 162.198 82.293Z" fill="#ACBBDD"/>
<path d="M161.42 83.3602C161.138 83.3602 160.86 83.3436 160.585 83.3105C160.476 83.2965 160.398 83.1976 160.412 83.0874C160.426 82.9788 160.529 82.8964 160.635 82.914C161.044 82.9648 161.467 82.9734 161.891 82.9445C161.986 82.9429 162.095 83.0199 162.105 83.1302C162.111 83.2404 162.029 83.3351 161.919 83.3436C161.752 83.3549 161.586 83.3602 161.42 83.3602Z" fill="#ACBBDD"/>
<path d="M143.467 49.5818L143.559 57.5508C143.559 57.5508 142.917 60.0241 147.315 60.0241C151.711 60.0241 150.246 55.1695 150.246 55.1695L150.063 47.292L143.467 49.5818Z" fill="#EC9D7D"/>
<path d="M150.085 48.2524L150.062 47.2915L143.467 49.5813L143.495 52.006C145.84 52.0911 149.108 51.563 150.085 48.2524Z" fill="#BA684A"/>
<path d="M153.234 43.296C152.378 45.9357 150.738 48.6375 148.397 50.2056C146.081 51.7571 142.785 51.9476 140.853 49.6893C139.741 48.3908 139.256 46.6596 139.101 44.9577C139.02 44.0739 139.02 43.1825 138.891 42.3046C138.788 41.5968 138.602 40.9034 138.499 40.1956C138.366 39.2855 138.37 38.3605 138.425 37.4424C138.509 36.0407 138.806 34.5967 139.557 33.3902C140.346 32.1233 141.652 31.346 143.081 30.9934C146.417 30.1706 150.674 30.7896 152.79 33.7594C153.281 34.4501 153.647 35.2312 153.854 36.0541C154.427 38.338 153.95 41.0874 153.234 43.296Z" fill="#EC9D7D"/>
<path d="M138.415 38.2439C138.437 38.3504 138.464 38.459 138.496 38.5708C138.886 38.7345 139.358 38.2471 139.181 37.863C139.491 38.0123 139.913 37.8202 140.004 37.4885C140.037 37.3649 140.032 37.2296 140.091 37.1161C140.231 36.8497 140.625 36.8609 140.854 36.6657C141.25 36.3281 140.937 35.6855 141.01 35.1703C141.073 34.7204 141.501 34.3507 141.955 34.3533C141.731 33.8638 141.788 33.2566 142.1 32.8173C142.33 32.9885 142.675 32.7863 142.939 32.897C143.293 33.0452 143.227 33.5733 143.433 33.897C143.568 34.1099 143.842 34.2244 144.089 34.1714C144.176 35.2099 145.175 36.0852 146.215 36.0365C146.235 36.8609 147.123 37.5468 147.926 37.3574C148.111 38.3215 149.19 39.0122 150.144 38.7763C150.144 39.3707 150.303 39.9934 150.723 40.4145C151.409 41.102 152.807 40.4439 153.349 41.0998C153.93 41.8039 153.078 43.4833 152.837 44.1793C152.592 44.8823 152.357 45.5436 151.981 46.1856C152.918 46.5954 154.734 44.0777 155.134 43.3881C157.481 39.3471 155.796 33.3309 151.788 31.0165C149.303 29.5821 146.107 28.7898 143.273 29.512C139.858 30.3825 138.379 33.4802 138.328 36.8021C138.32 37.3296 138.316 37.764 138.415 38.2439Z" fill="#291E3B"/>
<path d="M154.848 41.9848C154.595 42.7954 153.996 43.4369 153.298 43.6605C153.152 43.7076 152.991 43.7359 152.853 43.6616C151.559 42.9666 152.254 39.939 153.191 39.2381C154.579 38.2007 155.227 40.7704 154.848 41.9848Z" fill="#EC9D7D"/>
<path d="M144.034 45.4517C143.953 45.4517 143.873 45.4453 143.799 45.4394C143.591 45.4223 143.334 45.4014 143.123 45.2553C142.901 45.1018 142.763 44.8284 142.744 44.5047C142.73 44.2511 142.785 44.0077 142.838 43.7728C143.08 42.7055 143.242 41.6467 143.326 40.5911C143.333 40.5071 143.413 40.4445 143.489 40.452C143.573 40.459 143.635 40.5323 143.628 40.6152C143.542 41.6858 143.379 42.7584 143.142 43.8049C143.083 44.0644 143.035 44.2763 143.047 44.4865C143.06 44.7134 143.153 44.9071 143.295 45.0055C143.439 45.1055 143.643 45.1221 143.823 45.1366C143.977 45.1489 144.135 45.1617 144.267 45.113C144.346 45.0852 144.433 45.1243 144.462 45.2029C144.491 45.2816 144.451 45.3688 144.372 45.3977C144.26 45.4399 144.145 45.4517 144.034 45.4517Z" fill="#BF6443"/>
<path d="M141.006 41.7402C141.434 41.7402 141.781 41.3931 141.781 40.9649C141.781 40.5368 141.434 40.1897 141.006 40.1897C140.578 40.1897 140.23 40.5368 140.23 40.9649C140.23 41.3931 140.578 41.7402 141.006 41.7402Z" fill="#1E1C1B"/>
<path d="M146.894 40.8702C146.894 41.2987 146.547 41.646 146.118 41.646C145.69 41.646 145.343 41.2987 145.343 40.8702C145.343 40.4422 145.69 40.095 146.118 40.095C146.547 40.0944 146.894 40.4417 146.894 40.8702Z" fill="#1E1C1B"/>
<path d="M153.207 42.8594C153.044 43.4056 152.59 43.8063 152.157 44.1771C151.699 44.5687 151.221 44.971 150.64 45.1299C150.302 45.2225 149.851 45.1706 149.73 44.8416C149.609 44.5104 149.914 44.1888 150.187 43.9668C150.845 43.4329 151.502 42.8995 152.16 42.3655C152.279 42.2687 152.404 42.1638 152.451 42.0178C152.645 41.4116 152.435 40.9456 153.098 40.5449C153.558 40.2672 154.024 40.31 154.385 40.7145C155.197 41.624 154.498 43.2082 153.207 42.8594Z" fill="#1E1C1B"/>
<path d="M154.031 41.8552C154.028 41.7188 154.025 41.5797 153.98 41.4513C153.934 41.3229 153.838 41.2041 153.707 41.1683C153.575 41.1324 153.413 41.2052 153.382 41.3379C153.362 41.4256 153.397 41.515 153.429 41.5995C153.598 42.0553 153.508 42.5096 153.603 42.9509C154.07 42.8552 154.037 42.2121 154.031 41.8552Z" fill="#DADEE9"/>
<path d="M150.089 44.4944L152.51 42.7647C153.074 42.3613 153.043 41.2121 153.041 41.1629C153.039 41.1217 153.006 41.0896 152.965 41.0896C152.965 41.0896 152.963 41.0896 152.962 41.0896C152.921 41.0907 152.888 41.126 152.889 41.1677C152.889 41.1789 152.92 42.2843 152.421 42.6406L150 44.3697L150.089 44.4944Z" fill="#DADEE9"/>
<path d="M142.027 47.4276C142.027 47.4276 143.132 45.9884 145.94 47.2922C145.94 47.2922 144.057 48.1899 142.027 47.4276Z" fill="#C45335"/>
<path d="M142.027 47.4276C142.027 47.4276 144.327 47.7593 145.987 47.2617C145.987 47.2617 143.996 49.9887 142.027 47.4276Z" fill="#E5724A"/>
<path d="M147.491 39.1576C147.585 39.1678 147.703 39.1662 147.75 39.0827C147.772 39.0421 147.77 38.9918 147.755 38.9479C147.71 38.8163 147.567 38.7499 147.438 38.6975C146.986 38.5145 145.58 37.7495 145.187 38.3054C144.866 38.7585 145.779 38.8398 146.077 38.9115C146.542 39.0244 147.015 39.1068 147.491 39.1576Z" fill="#291E3B"/>
<path d="M139.652 39.5445C139.557 39.5547 139.44 39.5531 139.393 39.4696C139.371 39.4295 139.372 39.3787 139.387 39.3348C139.433 39.2032 139.575 39.1369 139.704 39.085C140.157 38.902 141.562 38.1369 141.956 38.6928C142.276 39.146 141.364 39.2273 141.065 39.299C140.6 39.4113 140.128 39.4932 139.652 39.5445Z" fill="#291E3B"/>
<path d="M166.369 88.9173C167.16 94.6933 167.675 102.127 166.914 108.362C166.914 108.362 165.146 108.631 163.03 108.355C163.03 108.355 160.802 95.6541 160.021 91.3473C159.896 90.6561 159.726 89.7937 159.532 88.8338C162.369 87.8639 164.926 88.4101 166.369 88.9173Z" fill="#EC9D7D"/>
<path d="M165.419 88.0762C165.408 88.0762 165.396 88.0746 165.384 88.0736C163.806 87.7863 162.189 87.6857 160.59 87.7723C160.512 87.7766 160.435 87.782 160.358 87.7863C160.246 87.7809 160.154 87.7092 160.147 87.599C160.14 87.4888 160.224 87.3941 160.333 87.3871C160.412 87.3818 160.489 87.3775 160.567 87.3732C161.048 87.3417 161.554 87.2946 162.087 87.2438C163.135 87.1458 164.22 87.0528 165.186 87.0651C165.296 87.0677 165.384 87.1587 165.381 87.2689C165.379 87.3775 165.29 87.4642 165.182 87.4642C165.18 87.4642 165.179 87.4642 165.178 87.4642C164.845 87.4588 164.492 87.4658 164.132 87.4834C164.575 87.5343 165.015 87.6006 165.454 87.6803C165.563 87.7012 165.634 87.8039 165.615 87.9131C165.598 88.0088 165.515 88.0762 165.419 88.0762Z" fill="#ACBBDD"/>
<path d="M160.192 87.086C160.096 87.086 160.012 87.017 159.995 86.9196C159.977 86.811 160.05 86.7078 160.159 86.6901C161.643 86.4398 163.156 86.382 164.656 86.5125C164.766 86.5237 164.847 86.62 164.837 86.7297C164.826 86.8383 164.716 86.9004 164.62 86.9111C163.154 86.7806 161.676 86.8383 160.224 87.0828C160.214 87.0844 160.203 87.086 160.192 87.086Z" fill="#ACBBDD"/>
<path d="M129.129 89.7274C129.022 89.7274 128.933 89.6423 128.93 89.5332C128.853 87.0004 128.321 84.5255 127.345 82.1805C127.302 82.0789 127.351 81.9623 127.453 81.92C127.557 81.8772 127.672 81.9248 127.714 82.0281C128.707 84.4185 129.25 86.9389 129.329 89.5225C129.332 89.6327 129.247 89.7247 129.135 89.7274C129.133 89.7274 129.131 89.7274 129.129 89.7274Z" fill="#ACBBDD"/>
<path d="M129.762 90.2718C129.757 90.2718 129.75 90.2718 129.745 90.2718C129.634 90.2606 129.554 90.1643 129.563 90.0546C129.688 88.6705 129.692 87.2661 129.572 85.8767C129.564 85.7665 129.645 85.6702 129.755 85.6606C129.857 85.6563 129.962 85.7333 129.971 85.8435C130.091 87.2549 130.089 88.6844 129.962 90.0904C129.952 90.1937 129.864 90.2718 129.762 90.2718Z" fill="#ACBBDD"/>
<path d="M166.895 105.893C166.895 106.347 166.895 113.262 167.008 115.076C167.122 116.889 166.895 118.477 165.988 119.157C165.31 119.665 164.616 120.152 163.926 120.643C163.492 120.953 163.058 121.261 162.623 121.57C162.373 121.747 161.774 122.418 161.522 122.023C161.436 121.888 161.434 121.718 161.435 121.558C161.436 121.344 161.437 121.13 161.438 120.917C161.439 120.785 161.44 120.651 161.483 120.526C161.532 120.38 161.635 120.258 161.742 120.146C163.011 118.824 165.231 116.933 163.515 115.012C163.372 114.853 163.198 114.692 162.984 114.684C161.756 114.64 163.459 118.329 162.134 118.477C161.113 118.59 161 116.209 161 114.962C161 113.715 162.02 112.015 162.587 109.861C163.154 107.707 163.041 105.213 163.041 105.213C163.041 105.213 166.895 104.76 166.895 105.893Z" fill="#EC9D7D"/>
<path d="M106.181 73.0404C105.908 72.7001 105.524 72.3406 105.099 72.4374C104.759 72.515 104.543 72.8788 104.535 73.2271C104.528 73.5754 104.684 73.906 104.866 74.2035C105.362 75.0188 106.096 75.7127 106.994 76.038C107.35 76.167 107.759 76.2338 108.1 76.0685C108.349 75.9471 108.685 75.6009 108.501 75.3318C108.354 75.1157 107.823 74.9247 107.606 74.7278C107.059 74.2318 106.641 73.6139 106.181 73.0404Z" fill="#EC9D7D"/>
<path d="M107.779 82.1174C107.153 82.0222 106.52 81.905 105.95 81.6279C105.225 81.2753 104.645 80.6847 104.117 80.0742C103.312 79.1422 102.595 78.1348 101.976 77.0701C101.893 76.9262 101.809 76.7737 101.806 76.6073C101.802 76.4147 101.907 76.2387 102.01 76.0761C102.512 75.2795 103.153 74.4341 104.084 74.2929C104.484 74.2324 104.89 74.3127 105.286 74.3929C107.567 74.8547 110.017 75.4089 111.561 77.1499C111.981 77.6233 112.322 78.1744 112.821 78.5644C113.54 79.1278 114.485 79.2813 115.353 79.5654C115.468 79.6029 115.588 79.6467 115.664 79.7398C115.77 79.8677 115.766 80.0517 115.75 80.2176C115.55 82.2528 114.803 82.424 112.944 82.4582C111.217 82.4909 109.487 82.3764 107.779 82.1174Z" fill="#EC9D7D"/>
<path d="M109.838 76.1996C109.661 76.4008 107.059 81.0495 107.059 81.0495L98.6172 75.9348L101.493 70.8816L109.838 76.1996Z" fill="#191D2F"/>
<path d="M109.107 76.175C108.952 76.3499 106.688 80.3957 106.688 80.3957L99.3418 75.9444L101.845 71.5466L109.107 76.175Z" fill="#AAB6BA"/>
<path d="M107.194 80.1029C106.708 79.9065 106.164 79.8675 105.649 79.9627C105.574 79.9766 105.499 79.9932 105.424 79.9847C105.353 79.9766 105.286 79.9461 105.222 79.9156C104.748 79.6925 104.291 79.432 103.857 79.1372C104.38 79.799 104.916 80.4726 105.622 80.9322C106.108 81.2478 106.684 81.449 107.267 81.4527C107.549 81.4543 107.841 81.4115 108.103 81.3029C108.47 81.151 108.274 80.9402 108.066 80.7096C107.827 80.4437 107.525 80.2361 107.194 80.1029Z" fill="#EC9D7D"/>
</g>
</g>
<defs>
<clipPath id="clip0_5445_54395">
<rect width="432" height="216" fill="white"/>
</clipPath>
<clipPath id="clip1_5445_54395">
<rect width="278.684" height="216" fill="white" transform="translate(76.6577)"/>
</clipPath>
</defs>
</svg>
