<svg width="222" height="81" viewBox="0 0 222 81" fill="none" xmlns="http://www.w3.org/2000/svg">
<g clip-path="url(#clip0_4170_97683)">
<path fill-rule="evenodd" clip-rule="evenodd" d="M52.1333 14.729L47.3921 44.6928L70.9393 63.7807L99.2234 52.9116L103.965 22.9478L80.4173 3.86053L52.1333 14.729ZM80.8103 1.38416L50.1836 13.1534L45.0513 45.5892L70.5463 66.2565L101.173 54.4872L106.305 22.0514L80.8103 1.38416Z" fill="#0034AF"/>
<path fill-rule="evenodd" clip-rule="evenodd" d="M52.1333 14.729L47.3921 44.6928L70.9393 63.7807L99.2234 52.9116L103.965 22.9478L80.4173 3.86053L52.1333 14.729ZM80.8103 1.38416L50.1836 13.1534L45.0513 45.5892L70.5463 66.2565L101.173 54.4872L106.305 22.0514L80.8103 1.38416ZM159.552 51.304V57.7395H160.568V51.304H159.552ZM121.166 52.9047C121.504 52.9047 121.757 52.7221 121.757 52.3649C121.757 52.0083 121.504 51.8257 121.166 51.8257C120.827 51.8257 120.566 52.0083 120.566 52.3655C120.566 52.7221 120.827 52.9047 121.166 52.9047ZM120.653 53.4785V57.7395H121.67V53.4785H120.653ZM117.269 53.948C117.574 53.5827 118.017 53.4345 118.417 53.4345C119.269 53.4345 119.607 54.0001 119.607 54.8174V57.7395H118.591V55.1219C118.591 54.6172 118.425 54.3655 117.93 54.3655C117.434 54.3655 117.269 54.6172 117.269 55.1219V57.7395H116.252V53.4785H117.096L117.269 53.948ZM114.19 56.0961V53.4785H115.207V57.7395H114.364L114.19 57.2699C113.886 57.6353 113.443 57.7828 113.043 57.7828C112.192 57.7828 111.853 57.2178 111.853 56.4005V53.4785H112.869V56.0961C112.869 56.6002 113.035 56.8525 113.53 56.8525C114.025 56.8525 114.19 56.6008 114.19 56.0961ZM122.728 56.253C122.728 57.3917 123.44 57.7828 124.362 57.7828C125.283 57.7828 125.995 57.3917 125.995 56.2524V54.9656C125.995 53.8262 125.283 53.4345 124.362 53.4345C123.44 53.4345 122.728 53.8262 122.728 54.9656V56.253ZM124.979 56.2781C124.979 56.6962 124.727 56.8525 124.362 56.8525C123.997 56.8525 123.745 56.6956 123.745 56.2788V54.9386C123.745 54.5211 123.997 54.3648 124.362 54.3648C124.727 54.3648 124.979 54.5211 124.979 54.9386V56.2781ZM129.123 53.4345C128.723 53.4345 128.28 53.5827 127.975 53.948L127.801 53.4785H126.959V57.7395H127.975V55.1219C127.975 54.6172 128.14 54.3655 128.635 54.3655C129.131 54.3655 129.296 54.6172 129.296 55.1219V57.7395H130.313V54.8174C130.313 54.0001 129.974 53.4345 129.123 53.4345ZM134.459 53.948C134.763 53.5827 135.206 53.4345 135.606 53.4345C136.458 53.4345 136.797 54.0001 136.797 54.8174V57.7395H135.78V55.1219C135.78 54.6172 135.615 54.3655 135.12 54.3655C134.624 54.3655 134.459 54.6172 134.459 55.1219V57.7395H133.442V53.4785H134.285L134.459 53.948ZM139.309 53.4785H138.171L137.997 54.4088H139.135C139.752 54.4088 139.848 54.7565 139.848 55.2179V55.4615C139.683 55.1225 139.309 54.948 138.813 54.948C138.188 54.948 137.579 55.3309 137.579 56.3654C137.579 57.4005 138.188 57.7828 138.813 57.7828C139.309 57.7828 139.683 57.5217 139.848 57.1833L140.021 57.7395H140.865V55.2179C140.865 53.7478 140.273 53.4785 139.309 53.4785ZM139.222 56.8525C138.901 56.8525 138.596 56.7828 138.596 56.3654C138.596 55.9479 138.901 55.8783 139.222 55.8783C139.543 55.8783 139.848 55.9479 139.848 56.3654C139.848 56.7828 139.543 56.8525 139.222 56.8525ZM143.997 53.4785V54.4088H143.197V56.1739C143.197 56.8092 143.554 56.8092 143.911 56.8092H143.997V57.7395H143.737C142.659 57.7395 142.181 57.5568 142.181 56.1739V54.4088H141.564V53.4785C142.346 53.4785 142.355 52.9386 142.355 52.4176H143.197V53.4785H143.997ZM145.552 52.9041C145.891 52.9041 146.143 52.7221 146.143 52.3655C146.143 52.0083 145.891 51.8257 145.552 51.8257C145.213 51.8257 144.953 52.0083 144.953 52.3655C144.953 52.7221 145.213 52.9041 145.552 52.9041ZM145.039 53.4785V57.7395H146.056V53.4785H145.039ZM147.114 56.253C147.114 57.3917 147.827 57.7828 148.748 57.7828C149.669 57.7828 150.382 57.3917 150.382 56.2524V54.9656C150.382 53.8262 149.669 53.4345 148.748 53.4345C147.827 53.4345 147.114 53.8262 147.114 54.9656V56.253ZM149.365 56.2781C149.365 56.6962 149.113 56.8525 148.748 56.8525C148.383 56.8525 148.131 56.6956 148.131 56.2788V54.9386C148.131 54.5211 148.383 54.3648 148.748 54.3648C149.113 54.3648 149.365 54.5211 149.365 54.9386V56.2781ZM153.508 53.4345C153.109 53.4345 152.666 53.5827 152.362 53.948L152.188 53.4785H151.345V57.7395H152.362V55.1219C152.362 54.6172 152.527 54.3655 153.022 54.3655C153.517 54.3655 153.682 54.6172 153.682 55.1219V57.7395H154.699V54.8174C154.699 54.0001 154.36 53.4345 153.508 53.4345ZM156.073 53.4785H157.211C158.176 53.4785 158.767 53.7484 158.767 55.2173V57.7395H157.924L157.75 57.1833C157.585 57.5223 157.211 57.7828 156.716 57.7828C156.09 57.7828 155.482 57.3999 155.482 56.3654C155.482 55.3309 156.09 54.948 156.716 54.948C157.211 54.948 157.585 55.1219 157.75 55.4615V55.2179C157.75 54.7565 157.655 54.4088 157.038 54.4088H155.899L156.073 53.4785ZM156.499 56.366C156.499 56.7828 156.803 56.8525 157.124 56.8525C157.446 56.8525 157.75 56.7828 157.75 56.3654C157.75 55.9479 157.446 55.8783 157.124 55.8783C156.803 55.8783 156.499 55.9486 156.499 56.366ZM161.346 54.9656C161.346 53.9129 162.145 53.4345 163.024 53.4345C163.901 53.4345 164.701 53.9129 164.701 54.9656V55.8525H162.363V56.2788C162.363 56.6089 162.528 56.8525 163.024 56.8525C163.432 56.8525 163.684 56.6956 163.684 56.2788V56.2524L164.701 56.4263C164.701 57.3051 163.901 57.7828 163.024 57.7828C162.145 57.7828 161.346 57.3045 161.346 56.2524V54.9656ZM162.363 54.9392V55.1394H163.684V54.9392C163.684 54.609 163.519 54.3655 163.024 54.3655C162.528 54.3655 162.363 54.609 162.363 54.9392ZM114.016 61.0878V63.905C113.764 63.4788 113.425 63.2183 112.912 63.2183C112.305 63.2183 111.853 63.6614 111.853 64.4266V66.3575C111.853 67.1227 112.305 67.5665 112.912 67.5665C113.425 67.5665 113.764 67.3054 114.016 66.8792L114.19 67.5226H115.033V61.0878H114.016ZM114.016 66.0619C114.016 66.4793 113.764 66.6356 113.443 66.6356C113.121 66.6356 112.869 66.4793 112.869 66.0619V64.7223C112.869 64.3055 113.121 64.1486 113.443 64.1486C113.764 64.1486 114.016 64.3055 114.016 64.7223V66.0619ZM115.896 64.7487C115.896 63.6966 116.695 63.2183 117.574 63.2183C118.451 63.2183 119.251 63.6966 119.251 64.7487V65.6356H116.913V66.0619C116.913 66.392 117.078 66.6356 117.574 66.6356C117.982 66.6356 118.234 66.4793 118.234 66.0619V66.0355L119.251 66.2094C119.251 67.0876 118.451 67.5665 117.574 67.5665C116.695 67.5665 115.896 67.0876 115.896 66.0355V64.7487ZM116.913 64.7223V64.9225H118.234V64.7223C118.234 64.3921 118.069 64.1486 117.574 64.1486C117.078 64.1486 116.913 64.3921 116.913 64.7223ZM119.948 66.2357C119.948 67.1748 120.783 67.5665 121.661 67.5665C122.538 67.5665 123.216 67.1924 123.216 66.3487C123.216 65.6268 122.773 65.2791 122.121 65.0707C122.024 65.0398 121.927 65.0103 121.829 64.9822C121.376 64.8478 121.053 64.7524 121.053 64.4706C121.053 64.2615 121.226 64.1486 121.53 64.1486C122.009 64.1486 122.113 64.4097 122.113 64.7223L123.13 64.549C123.13 63.6702 122.452 63.2183 121.574 63.2183C120.696 63.2183 120.036 63.6357 120.036 64.4875C120.036 65.0531 120.331 65.453 121.053 65.7053C121.201 65.7562 121.346 65.7976 121.479 65.8359C121.892 65.9533 122.199 66.0405 122.199 66.2966C122.199 66.5226 121.991 66.6356 121.67 66.6356C121.087 66.6356 120.965 66.392 120.965 66.0619L119.948 66.2357ZM128.503 65.9752V65.8528L129.52 66.0273V66.0355C129.52 67.1748 128.807 67.5665 127.929 67.5665C127.052 67.5665 126.339 67.1748 126.339 66.0355V64.7487C126.339 63.6093 127.052 63.2183 127.929 63.2183C128.807 63.2183 129.52 63.6093 129.52 64.7487V64.7575L128.503 64.9313V64.8096C128.503 64.3055 128.295 64.1486 127.929 64.1486C127.608 64.1486 127.356 64.3055 127.356 64.7223V66.0619C127.356 66.4793 127.608 66.6356 127.929 66.6356C128.295 66.6356 128.503 66.4793 128.503 65.9752ZM131.975 63.2183C131.097 63.2183 130.298 63.6966 130.298 64.7487V66.0355C130.298 67.0876 131.097 67.5665 131.975 67.5665C132.853 67.5665 133.653 67.0876 133.653 66.2094L132.636 66.0355V66.0619C132.636 66.4793 132.384 66.6356 131.975 66.6356C131.48 66.6356 131.315 66.392 131.315 66.0619V65.6356H133.653V64.7487C133.653 63.6966 132.853 63.2183 131.975 63.2183ZM131.315 64.9225V64.7223C131.315 64.3921 131.48 64.1486 131.975 64.1486C132.471 64.1486 132.636 64.3921 132.636 64.7223V64.9225H131.315ZM135.537 63.7311C135.841 63.3658 136.284 63.2183 136.684 63.2183C137.535 63.2183 137.874 63.7832 137.874 64.6011V67.5226H136.858V64.905C136.858 64.4009 136.693 64.1486 136.198 64.1486C135.702 64.1486 135.537 64.4009 135.537 64.905V67.5226H134.52V63.2616H135.363L135.537 63.7311ZM141.006 64.1919V63.2616H140.206V62.2007H139.363C139.363 62.7217 139.354 63.2616 138.572 63.2616V64.1919H139.189V65.9577C139.189 67.3399 139.667 67.5226 140.745 67.5226H141.006V66.5923H140.919C140.563 66.5923 140.206 66.5923 140.206 65.9577V64.1919H141.006ZM142.895 63.7311C143.06 63.4355 143.468 63.2183 143.851 63.2183C144.746 63.2183 144.954 64.1573 144.798 65.1404L143.781 65.3136V64.7053C143.781 64.2879 143.616 64.1486 143.338 64.1486C143.06 64.1486 142.895 64.2879 142.895 64.7053V67.5226H141.878V63.2616H142.721L142.895 63.7311ZM147.133 63.2183C146.254 63.2183 145.455 63.6966 145.455 64.7487V66.0355C145.455 67.0876 146.254 67.5665 147.133 67.5665C148.01 67.5665 148.81 67.0876 148.81 66.2094L147.793 66.0355V66.0619C147.793 66.4793 147.541 66.6356 147.133 66.6356C146.637 66.6356 146.472 66.392 146.472 66.0619V65.6356H148.81V64.7487C148.81 63.6966 148.01 63.2183 147.133 63.2183ZM146.472 64.9225V64.7223C146.472 64.3921 146.637 64.1486 147.133 64.1486C147.628 64.1486 147.793 64.3921 147.793 64.7223V64.9225H146.472ZM151.219 67.5665C150.342 67.5665 149.507 67.1748 149.507 66.2357L150.524 66.0619C150.524 66.392 150.646 66.6356 151.228 66.6356C151.55 66.6356 151.758 66.5226 151.758 66.2966C151.758 66.0405 151.451 65.9533 151.038 65.8359C150.895 65.796 150.753 65.7525 150.611 65.7053C149.89 65.453 149.595 65.0531 149.595 64.4875C149.595 63.6357 150.255 63.2183 151.132 63.2183C152.011 63.2183 152.688 63.6702 152.688 64.549L151.672 64.7223C151.672 64.4097 151.567 64.1486 151.089 64.1486C150.785 64.1486 150.611 64.2615 150.611 64.4706C150.611 64.7524 150.935 64.8478 151.388 64.9822C151.48 65.0092 151.578 65.038 151.68 65.0707C152.332 65.2791 152.775 65.6268 152.775 66.3487C152.775 67.1924 152.097 67.5665 151.219 67.5665ZM158.062 65.8528V65.9752C158.062 66.4793 157.854 66.6356 157.488 66.6356C157.167 66.6356 156.914 66.4793 156.914 66.0619V64.7223C156.914 64.3055 157.167 64.1486 157.488 64.1486C157.854 64.1486 158.062 64.3055 158.062 64.8096V64.9313L159.079 64.7575V64.7487C159.079 63.6093 158.366 63.2183 157.488 63.2183C156.611 63.2183 155.898 63.6093 155.898 64.7487V66.0355C155.898 67.1748 156.611 67.5665 157.488 67.5665C158.366 67.5665 159.079 67.1748 159.079 66.0355V66.0273L158.062 65.8528ZM159.772 66.0355C159.772 67.1748 160.485 67.5665 161.406 67.5665C162.327 67.5665 163.04 67.1748 163.04 66.0355V64.7487C163.04 63.6093 162.327 63.2183 161.406 63.2183C160.485 63.2183 159.772 63.6093 159.772 64.7487V66.0355ZM162.023 66.0619C162.023 66.4793 161.771 66.6356 161.406 66.6356C161.041 66.6356 160.789 66.4793 160.789 66.0619V64.7223C160.789 64.3055 161.041 64.1486 161.406 64.1486C161.771 64.1486 162.023 64.3055 162.023 64.7223V66.0619ZM167.948 63.2183C167.418 63.2183 167.087 63.5227 166.966 63.8617C166.861 63.5139 166.566 63.2183 165.958 63.2183C165.515 63.2183 165.098 63.5227 165.019 63.7311L164.846 63.2616H164.003V67.5226H165.019V64.7223C165.019 64.3055 165.193 64.1486 165.515 64.1486C165.836 64.1486 165.993 64.3055 165.993 64.7223V67.5226H167.01V64.7223C167.01 64.3055 167.183 64.1486 167.505 64.1486C167.826 64.1486 167.983 64.3055 167.983 64.7223V67.5226H168.999V64.34C168.999 63.7832 168.721 63.2183 167.948 63.2183ZM172.92 63.8617C173.041 63.5227 173.372 63.2183 173.901 63.2183C174.675 63.2183 174.953 63.7832 174.953 64.34V67.5226H173.937V64.7223C173.937 64.3055 173.78 64.1486 173.458 64.1486C173.137 64.1486 172.963 64.3055 172.963 64.7223V67.5226H171.946V64.7223C171.946 64.3055 171.79 64.1486 171.468 64.1486C171.147 64.1486 170.973 64.3055 170.973 64.7223V67.5226H169.956V63.2616H170.799L170.973 63.7311C171.051 63.5227 171.468 63.2183 171.911 63.2183C172.52 63.2183 172.815 63.5139 172.92 63.8617ZM178.162 63.2616V65.8792C178.162 66.3839 177.997 66.6356 177.502 66.6356C177.007 66.6356 176.842 66.3839 176.842 65.8792V63.2616H175.825V66.1836C175.825 67.0009 176.164 67.5665 177.015 67.5665C177.415 67.5665 177.859 67.4184 178.162 67.053L178.336 67.5226H179.179V63.2616H178.162ZM181.241 63.7311C181.546 63.3658 181.989 63.2183 182.389 63.2183C183.241 63.2183 183.58 63.7832 183.58 64.6011V67.5226H182.563V64.905C182.563 64.4009 182.398 64.1486 181.902 64.1486C181.407 64.1486 181.241 64.4009 181.241 64.905V67.5226H180.225V63.2616H181.068L181.241 63.7311ZM186.092 63.2616H184.953L184.779 64.1919H185.918C186.535 64.1919 186.63 64.5396 186.63 65.001V65.2446C186.465 64.905 186.092 64.7311 185.597 64.7311C184.971 64.7311 184.362 65.114 184.362 66.1485C184.362 67.1836 184.971 67.5665 185.597 67.5665C186.092 67.5665 186.465 67.3054 186.63 66.9664L186.804 67.5226H187.647V65.001C187.647 63.5315 187.056 63.2616 186.092 63.2616ZM186.005 66.6356C185.683 66.6356 185.379 66.5666 185.379 66.1485C185.379 65.7317 185.683 65.662 186.005 65.662C186.327 65.662 186.63 65.7317 186.63 66.1485C186.63 66.5666 186.327 66.6356 186.005 66.6356ZM191.033 65.8792V63.2616H192.049V67.5226H191.206L191.033 67.053C190.728 67.4184 190.285 67.5665 189.885 67.5665C189.033 67.5665 188.694 67.0009 188.694 66.1836V63.2616H189.711V65.8792C189.711 66.3839 189.876 66.6356 190.372 66.6356C190.868 66.6356 191.033 66.3839 191.033 65.8792ZM196.499 63.2616H195.396L194.622 64.7399L193.849 63.2616H192.745L193.962 65.3921L192.745 67.5226H193.849L194.622 66.0443L195.396 67.5226H196.499L195.282 65.3921L196.499 63.2616ZM114.016 73.6887V70.8709H115.033V77.3057H114.19L114.016 76.6623C113.764 77.0885 113.425 77.3496 112.912 77.3496C112.305 77.3496 111.853 76.9058 111.853 76.1406V74.2104C111.853 73.4452 112.305 73.0014 112.912 73.0014C113.425 73.0014 113.764 73.2625 114.016 73.6887ZM113.443 76.4187C113.764 76.4187 114.016 76.2624 114.016 75.845V74.506C114.016 74.0886 113.764 73.9323 113.443 73.9323C113.121 73.9323 112.869 74.0886 112.869 74.506V75.845C112.869 76.2624 113.121 76.4187 113.443 76.4187ZM117.263 71.4101C117.263 71.0623 117.046 70.8269 116.672 70.8269C116.289 70.8269 116.073 71.0623 116.073 71.4101C116.073 71.7403 116.272 71.975 116.628 71.9926C116.646 72.3146 116.385 72.5839 116.255 72.7145L116.464 72.7923C116.768 72.5751 117.263 72.088 117.263 71.4182V71.4101ZM118.987 73.0453H120.125C121.09 73.0453 121.68 73.3146 121.68 74.7841V77.3057H120.838L120.663 76.7495C120.499 77.0885 120.125 77.3496 119.629 77.3496C119.004 77.3496 118.395 76.9667 118.395 75.9322C118.395 74.8971 119.004 74.5142 119.629 74.5142C120.125 74.5142 120.499 74.6887 120.663 75.0277V74.7841C120.663 74.3234 120.568 73.9756 119.951 73.9756H118.813L118.987 73.0453ZM119.412 75.9322C119.412 76.3497 119.717 76.4187 120.038 76.4187C120.36 76.4187 120.663 76.3497 120.663 75.9322C120.663 75.5148 120.36 75.4451 120.038 75.4451C119.717 75.4451 119.412 75.5148 119.412 75.9322ZM124.714 75.6366V75.7583C124.714 76.2624 124.505 76.4187 124.14 76.4187C123.818 76.4187 123.567 76.2624 123.567 75.845V74.506C123.567 74.0886 123.818 73.9317 124.14 73.9317C124.505 73.9317 124.714 74.0886 124.714 74.5927V74.7144L125.73 74.5406V74.5318C125.73 73.3931 125.018 73.0014 124.14 73.0014C123.262 73.0014 122.55 73.3931 122.55 74.5318V75.8192C122.55 76.9579 123.262 77.3496 124.14 77.3496C125.018 77.3496 125.73 76.9579 125.73 75.8192V75.8104L124.714 75.6366ZM128.688 73.0453V73.9756H127.888V75.7408C127.888 76.3754 128.244 76.3754 128.601 76.3754H128.688V77.3057H128.426C127.349 77.3057 126.871 77.1236 126.871 75.7408V73.9756H126.254V73.0453C127.037 73.0453 127.045 72.5061 127.045 71.9838H127.888V73.0453H128.688ZM130.242 72.4709C130.581 72.4709 130.833 72.2883 130.833 71.9317C130.833 71.5752 130.581 71.3925 130.242 71.3925C129.903 71.3925 129.642 71.5752 129.642 71.9317C129.642 72.2883 129.903 72.4709 130.242 72.4709ZM129.729 73.0447V77.3057H130.746V73.0447H129.729ZM131.804 75.8192C131.804 76.9579 132.517 77.3496 133.438 77.3496C134.359 77.3496 135.072 76.9579 135.072 75.8192V74.5318C135.072 73.3931 134.359 73.0014 133.438 73.0014C132.517 73.0014 131.804 73.3931 131.804 74.5318V75.8192ZM134.055 75.845C134.055 76.2624 133.803 76.4187 133.438 76.4187C133.073 76.4187 132.821 76.2624 132.821 75.845V74.506C132.821 74.0886 133.073 73.9317 133.438 73.9317C133.803 73.9317 134.055 74.0886 134.055 74.506V75.845ZM138.199 73.0014C137.799 73.0014 137.356 73.1495 137.051 73.5142L136.878 73.0447H136.034V77.3057H137.051V74.6887C137.051 74.184 137.217 73.9317 137.712 73.9317C138.208 73.9317 138.373 74.184 138.373 74.6887V77.3057H139.39V74.3842C139.39 73.5663 139.051 73.0014 138.199 73.0014ZM144.231 77.3496C143.353 77.3496 142.519 76.9579 142.519 76.0188L143.536 75.845C143.536 76.1751 143.657 76.4187 144.239 76.4187C144.561 76.4187 144.769 76.3057 144.769 76.0797C144.769 75.8236 144.462 75.7364 144.049 75.619C143.916 75.5807 143.771 75.5399 143.622 75.4884C142.901 75.2361 142.605 74.8362 142.605 74.2706C142.605 73.4188 143.266 73.0014 144.143 73.0014C145.022 73.0014 145.7 73.454 145.7 74.3321L144.683 74.506C144.683 74.1928 144.578 73.9317 144.1 73.9317C143.796 73.9317 143.622 74.0453 143.622 74.2537C143.622 74.5355 143.946 74.6309 144.399 74.7653C144.491 74.7923 144.59 74.8211 144.691 74.8538C145.343 75.0622 145.786 75.4106 145.786 76.1318C145.786 76.9755 145.108 77.3496 144.231 77.3496ZM148.111 77.3496C147.19 77.3496 146.478 76.9579 146.478 75.8192V74.5318C146.478 73.3931 147.19 73.0014 148.111 73.0014C149.033 73.0014 149.745 73.3931 149.745 74.5318V75.8192C149.745 76.9579 149.033 77.3496 148.111 77.3496ZM148.111 76.4187C148.477 76.4187 148.728 76.2624 148.728 75.845V74.506C148.728 74.0886 148.477 73.9317 148.111 73.9317C147.747 73.9317 147.495 74.0886 147.495 74.506V75.845C147.495 76.2624 147.747 76.4187 148.111 76.4187ZM152.779 75.7583V75.6366L153.795 75.8104V75.8192C153.795 76.9579 153.083 77.3496 152.205 77.3496C151.327 77.3496 150.615 76.9579 150.615 75.8192V74.5318C150.615 73.3931 151.327 73.0014 152.205 73.0014C153.083 73.0014 153.795 73.3931 153.795 74.5318V74.5406L152.779 74.7144V74.5927C152.779 74.0886 152.57 73.9317 152.205 73.9317C151.884 73.9317 151.632 74.0886 151.632 74.506V75.845C151.632 76.2624 151.884 76.4187 152.205 76.4187C152.57 76.4187 152.779 76.2624 152.779 75.7583ZM155.18 72.4709C155.519 72.4709 155.771 72.2883 155.771 71.9317C155.771 71.5752 155.519 71.3925 155.18 71.3925C154.841 71.3925 154.58 71.5752 154.58 71.9317C154.58 72.2883 154.841 72.4709 155.18 72.4709ZM154.667 73.0447V77.3057H155.684V73.0447H154.667ZM157.163 73.0453H158.302C159.267 73.0453 159.857 73.3146 159.857 74.7841V77.3057H159.014L158.84 76.7495C158.675 77.0885 158.302 77.3496 157.806 77.3496C157.181 77.3496 156.572 76.9667 156.572 75.9322C156.572 74.8971 157.181 74.5142 157.806 74.5142C158.302 74.5142 158.675 74.6887 158.84 75.0277V74.7841C158.84 74.3234 158.745 73.9756 158.128 73.9756H156.989L157.163 73.0453ZM157.589 75.9322C157.589 76.3497 157.893 76.4187 158.215 76.4187C158.537 76.4187 158.84 76.3497 158.84 75.9322C158.84 75.5148 158.537 75.4451 158.215 75.4451C157.893 75.4451 157.589 75.5148 157.589 75.9322ZM160.642 70.8709V77.3057H161.659V70.8709H160.642ZM162.437 74.5318C162.437 73.4797 163.236 73.0014 164.114 73.0014C164.991 73.0014 165.791 73.4797 165.791 74.5318V75.4187H163.453V75.845C163.453 76.1751 163.619 76.4187 164.114 76.4187C164.523 76.4187 164.774 76.2624 164.774 75.845V75.8192L165.791 75.9931C165.791 76.8713 164.991 77.3496 164.114 77.3496C163.236 77.3496 162.437 76.8713 162.437 75.8192V74.5318ZM163.453 74.506V74.7056H164.774V74.506C164.774 74.1752 164.609 73.9317 164.114 73.9317C163.619 73.9317 163.453 74.1752 163.453 74.506Z" fill="#0034AF"/>
<path fill-rule="evenodd" clip-rule="evenodd" d="M107.27 43.3463V25.6677L107.271 25.6664C107.271 20.7218 105.2 17.3007 99.9965 17.3007C97.554 17.3007 94.846 18.1952 92.9867 20.4048L91.9246 17.5644H86.7729V43.3463H92.9855V27.5082C92.9855 24.4556 93.9942 22.9302 97.0211 22.9302C100.049 22.9302 101.057 24.4568 101.057 27.5082V43.3457L107.27 43.3463ZM82.4321 43.3237V17.543H76.2924V33.3812C76.2924 36.4338 75.2949 37.9598 72.3032 37.9598C69.3114 37.9598 68.3146 36.4326 68.3146 33.3812V17.5437H62.1748V35.2217C62.1748 40.1663 64.2212 43.5874 69.3648 43.5874C71.7784 43.5874 74.455 42.6929 76.2924 40.4833L77.3419 43.3237H82.4321ZM129.699 34.2832V34.3347C129.699 41.2227 125.376 43.5874 120.052 43.5874C114.728 43.5874 110.406 41.2208 110.406 34.3347V26.5534C110.406 19.6654 114.729 17.3007 120.052 17.3007C125.375 17.3007 129.699 19.6673 129.699 26.5534V26.6068L123.532 27.6582V26.9231C123.532 23.8743 122.268 22.9277 120.054 22.9277C118.103 22.9277 116.575 23.8743 116.575 26.3971V34.4935C116.575 37.0163 118.103 37.9629 120.054 37.9629C122.268 37.9629 123.532 37.0163 123.532 33.9675V33.2318L129.699 34.2832ZM151.645 34.3347V34.2832L145.478 33.2312V33.9669C145.478 37.0157 144.213 37.9623 142 37.9623C140.049 37.9623 138.52 37.0157 138.52 34.4929V26.3959C138.52 23.873 140.049 22.9264 142 22.9264C144.213 22.9264 145.478 23.873 145.478 26.9219V27.6576L151.645 26.6061V26.5528C151.645 19.6666 147.32 17.3001 141.998 17.3001C136.675 17.3001 132.352 19.6648 132.352 26.5528V34.3341C132.352 41.2202 136.673 43.5867 141.998 43.5867C147.322 43.5867 151.645 41.2227 151.645 34.3347ZM173.831 28.0656V43.3237H168.695L167.635 39.9566C166.63 42.0086 164.352 43.5874 161.333 43.5874C157.521 43.5874 153.815 41.2723 153.815 35.0108C153.815 28.7486 157.523 26.4335 161.333 26.4335C164.352 26.4335 166.628 27.4862 167.635 29.5382V28.0643C167.635 25.276 167.052 23.1712 163.293 23.1712H156.356L157.415 17.5424H164.352C170.23 17.5424 173.83 19.1726 173.83 28.0656H173.831ZM167.636 35.0108C167.636 32.4854 165.783 32.0642 163.824 32.0642C161.865 32.0642 160.011 32.4854 160.011 35.0108C160.011 37.5355 161.865 37.9567 163.824 37.9567C165.783 37.9567 167.636 37.5355 167.636 35.0108ZM187.38 37.9611C183.856 37.9611 183.119 36.4903 183.119 34.4923L176.967 35.5437C176.967 41.2208 182.016 43.5874 187.328 43.5874C192.64 43.5874 196.742 41.3276 196.742 36.2273C196.742 31.8646 194.059 29.7611 190.115 28.5C189.501 28.3035 188.909 28.1296 188.35 27.9639C185.606 27.1541 183.645 26.5754 183.645 24.8717C183.645 23.6106 184.697 22.927 186.539 22.927C189.432 22.927 190.063 24.5045 190.063 26.3965L196.216 25.345C196.216 20.0345 192.114 17.3007 186.802 17.3007C181.49 17.3007 177.493 19.8255 177.493 24.9766C177.493 28.3933 179.281 30.8125 183.645 32.3366C184.546 32.6455 185.422 32.8947 186.231 33.1244C188.727 33.8338 190.587 34.3629 190.587 35.9115C190.587 37.2775 189.326 37.9611 187.38 37.9611Z" fill="#0034AF"/>
<mask id="mask0_4170_97683" style="mask-type:alpha" maskUnits="userSpaceOnUse" x="45" y="1" width="62" height="66">
<path fill-rule="evenodd" clip-rule="evenodd" d="M52.1333 14.729L47.3921 44.6928L70.9393 63.7807L99.2234 52.9116L103.965 22.9478L80.4173 3.86053L52.1333 14.729ZM80.8103 1.38416L50.1836 13.1534L45.0513 45.5892L70.5463 66.2565L101.173 54.4872L106.305 22.0514L80.8103 1.38416Z" fill="#0034AC"/>
</mask>
<g mask="url(#mask0_4170_97683)">
<path d="M71.0612 62.8152L79.0785 59.1876L80.9661 64.104L69.9746 69.3323L71.0612 62.8152Z" fill="#0034AF"/>
<path d="M79.0488 59.1067L89.9989 54.9034L91.948 59.9799L80.9973 64.1837L79.0488 59.1067Z" fill="white"/>
<path d="M90.0688 54.9951L98.8664 52.7145L103.645 56.6253L91.9916 60.0024L90.0688 54.9951Z" fill="#E1000F"/>
</g>
<path fill-rule="evenodd" clip-rule="evenodd" d="M42.9583 0L41.2088 6.16489L47.3668 7.9175L49.1157 1.75324L42.9583 0ZM45.8709 5.23335L43.8911 4.66965L44.4548 2.68415L46.4346 3.24785L45.8709 5.23335ZM33.6152 18.8456L27.5087 20.7714L29.4308 26.8842L35.5373 24.959L33.6146 18.8456H33.6152ZM30.8507 24.1586L30.2318 22.1901L32.1947 21.5712L32.8142 23.5397L30.8507 24.1586ZM25.999 46.63L30.0435 41.6615L35.0044 45.7129L30.9606 50.6807L25.999 46.63ZM29.0529 46.3186L30.6492 47.6224L31.9505 46.0236L30.3542 44.7204L29.0529 46.3186ZM39.5805 62.6947L38.9277 69.0699L45.2959 69.7252L45.9488 63.3501L39.5805 62.6947ZM43.3569 67.3418L41.3093 67.1315L41.5202 65.0776L43.5672 65.2885L43.3569 67.3418ZM59.0864 75.0088L64.7661 72.051L67.7189 77.7369L62.0399 80.6954L59.0864 75.0088ZM62.0142 75.9328L62.9652 77.7639L64.7918 76.8129L63.8402 74.9818L62.0142 75.9328ZM98.2929 64.6338L95.1719 70.2293L100.761 73.3566L103.882 67.7611L98.2929 64.6338ZM99.9231 70.3988L98.126 69.3925L99.1303 67.5916L100.928 68.5972L99.9231 70.3988Z" fill="#0034AF"/>
</g>
<defs>
<clipPath id="clip0_4170_97683">
<rect width="170.741" height="80.9766" fill="white" transform="translate(25.999)"/>
</clipPath>
</defs>
</svg>
