<svg width="222" height="80" viewBox="0 0 222 80" fill="none" xmlns="http://www.w3.org/2000/svg">
<g clip-path="url(#clip0_4170_97682)">
<path d="M11.0055 29.2169C11.0055 25.2592 14.0901 22.4074 19.6192 21.4762L28.0583 20.0794V18.7407C28.0583 15.5397 25.6721 13.5609 22.2964 13.5609C18.9208 13.5609 17.2329 14.8413 15.7197 16.9947L11.7039 13.9101C14.0319 10.7672 17.7567 8.84662 22.471 8.84662C29.5133 8.84662 33.4128 12.9789 33.4128 18.7407V36.0264H28.0583V33.0581C26.1959 35.328 22.9366 36.783 19.6774 36.783C14.4975 36.783 10.9473 33.8147 10.9473 29.2169H11.0055ZM20.725 32.4761C23.9842 32.4761 26.5451 30.9047 28.1165 28.4021V23.8624L21.0742 25.0846C17.8149 25.6666 16.4763 27.0635 16.4763 29.0423C16.4763 31.0211 18.106 32.4761 20.7832 32.4761H20.725Z" fill="#2A3D85"/>
<path d="M36.3804 9.83594H41.7348V12.3968C43.7137 10.3015 46.3327 8.78833 50.0575 8.78833C55.8194 8.78833 60.2427 12.6878 60.2427 20.2539V35.9681H54.83V20.4285C54.83 16.2962 52.5602 13.7936 48.7771 13.7936C44.9941 13.7936 43.0735 16.0052 41.7348 18.3332V35.9681H36.3804V9.77774V9.83594Z" fill="#2A3D85"/>
<path d="M32.658 61.8674L36.9648 65.1848C34.5204 68.5023 30.5628 70.5975 25.6157 70.5975C16.6528 70.5975 11.0073 63.9626 11.0073 56.1055C11.0073 48.2484 16.6528 41.6135 25.6157 41.6135C34.5786 41.6135 34.5204 43.767 36.9648 47.0262L32.658 50.3436C31.1448 48.2484 28.7003 46.7934 25.6157 46.7934C20.4358 46.7934 16.711 50.8092 16.711 56.1055C16.711 61.4018 20.4358 65.4176 25.6739 65.4176C30.912 65.4176 31.1448 63.9044 32.658 61.8674Z" fill="#2A3D85"/>
<path d="M45.4631 48.1902H39.6431V43.3595H45.4631V36.8411H50.8758V43.3595H60.2461V48.1902H50.8758V60.4706C50.8758 64.0208 52.7382 65.1266 55.6483 65.1266C58.5583 65.1266 59.3149 64.8938 60.2461 64.5446V69.2589C59.0239 69.7827 56.8705 70.0155 54.8335 70.0155C48.7224 70.0155 45.4631 66.8144 45.4631 60.4123V48.132V48.1902Z" fill="#2A3D85"/>
<path d="M63.8532 5.23807V8.84651H69.033V3.78305C69.033 1.97882 67.4034 0.116401 65.5992 0H60.1865V5.00526L63.795 5.23807H63.8532Z" fill="#2A3D85"/>
<path d="M63.8532 74.3223V70.7139H69.033V75.7773C69.033 77.5816 67.4034 79.444 65.5992 79.5604H60.1865V74.5551L63.795 74.3223H63.8532Z" fill="#FFCA05"/>
<path d="M7.39812 74.3223V70.7139H2.21826V75.7773C2.21826 77.5816 3.84788 79.444 5.6521 79.5604H11.0648V74.5551L7.45633 74.3223H7.39812Z" fill="#5C72B6"/>
<path d="M7.39812 5.23807V8.84651H2.21826V3.78305C2.21826 1.97882 3.84788 0.116401 5.6521 0H11.0648V5.00526L7.45633 5.23807H7.39812Z" fill="#008373"/>
<path d="M86.9009 24.3279C86.9009 23.3967 87.5993 22.7565 88.9379 22.5237L91.0331 22.1745V21.767C91.0331 20.894 90.3929 20.4284 89.5199 20.4284C88.6469 20.4284 88.2395 20.7776 87.8321 21.3014L87.0755 20.7194C87.5993 19.9628 88.4723 19.5554 89.5781 19.5554C91.1495 19.5554 92.0807 20.4866 92.0807 21.8252V25.9575H91.0331V25.2009C90.5675 25.7829 89.7527 26.1321 88.9379 26.1321C87.7157 26.1321 86.9009 25.4337 86.9009 24.3861V24.3279ZM89.1125 25.2009C89.9273 25.2009 90.6257 24.7935 91.0331 24.1533V22.9311L89.2289 23.2221C88.3559 23.3967 88.0067 23.7459 88.0067 24.2697C88.0067 24.7935 88.4141 25.2009 89.1707 25.2009H89.1125Z" fill="#2A3D85"/>
<path d="M96.5622 25.4919C96.2712 25.2591 96.1548 24.9681 96.1548 24.6189C96.1548 24.1533 96.3876 23.7459 96.9114 23.3967C96.3876 22.9893 96.0384 22.3491 96.0384 21.7089C96.0384 20.5449 96.9696 19.4973 98.4246 19.4973C99.8796 19.4973 99.2976 19.6137 99.5886 19.7301H101.858V20.6613H100.52C100.694 20.9523 100.753 21.3015 100.753 21.7089C100.753 22.8729 99.8214 23.8623 98.3664 23.8623C96.9114 23.8623 97.7844 23.8623 97.4934 23.7459C97.2606 23.9205 97.086 24.1533 97.086 24.3861C97.086 24.6189 97.2024 24.8517 97.6098 24.8517H99.3558C100.985 24.8517 101.742 25.6665 101.742 26.7723C101.742 27.8782 100.462 29.0422 98.5992 29.0422C96.7368 29.0422 95.5728 28.3438 95.5728 27.1215C95.5728 25.8993 95.8638 26.0157 96.504 25.5501L96.5622 25.4919ZM98.6574 28.111C99.9378 28.111 100.753 27.5872 100.753 26.7723C100.753 25.9575 100.403 25.7247 99.2976 25.7247H97.3188C96.9114 26.0157 96.6204 26.4231 96.6204 26.8887C96.6204 27.6454 97.377 28.111 98.5992 28.111H98.6574ZM99.8214 21.6507C99.8214 20.8941 99.2976 20.2539 98.4246 20.2539C97.5516 20.2539 97.0278 20.8941 97.0278 21.6507C97.0278 22.4073 97.5516 22.9893 98.4246 22.9893C99.2976 22.9893 99.8214 22.3491 99.8214 21.6507Z" fill="#2A3D85"/>
<path d="M107.91 26.1321C105.815 26.1321 104.534 24.6189 104.534 22.8147C104.534 21.0105 105.756 19.4973 107.619 19.4973C109.481 19.4973 110.412 20.6613 110.412 22.1745C110.412 23.6877 110.412 22.6401 110.354 22.8147H105.64C105.64 24.2697 106.629 25.2009 107.968 25.2009C109.307 25.2009 109.423 24.8517 109.83 24.2697L110.587 24.8517C110.005 25.6083 109.074 26.1321 107.968 26.1321H107.91ZM105.698 22.0581H109.365C109.365 21.1269 108.725 20.3703 107.619 20.3703C106.513 20.3703 105.873 20.9523 105.698 22.0581Z" fill="#2A3D85"/>
<path d="M114.371 19.7301H115.418V20.4285C115.942 19.9047 116.582 19.4973 117.455 19.4973C118.852 19.4973 119.842 20.4285 119.842 22.1745V25.8993H118.794V22.2327C118.794 21.1269 118.154 20.4867 117.223 20.4867C116.291 20.4867 115.768 21.0105 115.36 21.6507V25.8993H114.312V19.7301H114.371Z" fill="#2A3D85"/>
<path d="M128.804 24.2697L129.619 24.9099C129.037 25.6665 128.164 26.1903 127 26.1903C124.963 26.1903 123.624 24.6771 123.624 22.8729C123.624 21.0686 124.904 19.5554 127 19.5554C129.095 19.5554 129.037 20.0792 129.619 20.8358L128.804 21.476C128.396 20.9522 127.814 20.5448 127.058 20.5448C125.719 20.5448 124.788 21.5924 124.788 22.8729C124.788 24.1533 125.719 25.2009 127.058 25.2009C128.396 25.2009 128.455 24.8517 128.804 24.2697Z" fill="#2A3D85"/>
<path d="M135.846 26.1321C133.751 26.1321 132.47 24.6189 132.47 22.8147C132.47 21.0105 133.692 19.4973 135.555 19.4973C137.417 19.4973 138.348 20.6613 138.348 22.1745C138.348 23.6877 138.348 22.6401 138.29 22.8147H133.576C133.576 24.2697 134.565 25.2009 135.904 25.2009C137.243 25.2009 137.359 24.8517 137.766 24.2697L138.523 24.8517C137.941 25.6083 137.01 26.1321 135.904 26.1321H135.846ZM133.634 22.0581H137.301C137.301 21.1269 136.661 20.3703 135.555 20.3703C134.449 20.3703 133.809 20.9523 133.634 22.0581Z" fill="#2A3D85"/>
<path d="M147.836 19.7301H148.884V20.4285C149.407 19.9047 150.048 19.4973 150.921 19.4973C152.317 19.4973 153.307 20.4285 153.307 22.1745V25.8993H152.259V22.2327C152.259 21.1269 151.619 20.4867 150.688 20.4867C149.757 20.4867 149.233 21.0105 148.825 21.6507V25.8993H147.778V19.7301H147.836Z" fill="#2A3D85"/>
<path d="M157.264 24.3279C157.264 23.3967 157.962 22.7565 159.301 22.5237L161.396 22.1745V21.767C161.396 20.894 160.756 20.4284 159.883 20.4284C159.01 20.4284 158.602 20.7776 158.195 21.3014L157.438 20.7194C157.962 19.9628 158.835 19.5554 159.941 19.5554C161.512 19.5554 162.444 20.4866 162.444 21.8252V25.9575H161.396V25.2009C160.93 25.7829 160.116 26.1321 159.301 26.1321C158.078 26.1321 157.264 25.4337 157.264 24.3861V24.3279ZM159.475 25.2009C160.29 25.2009 160.989 24.7935 161.396 24.1533V22.9311L159.592 23.2221C158.719 23.3967 158.37 23.7459 158.37 24.2697C158.37 24.7935 158.777 25.2009 159.534 25.2009H159.475Z" fill="#2A3D85"/>
<path d="M167.042 20.6613H165.878V19.7301H167.042V18.2169H168.09V19.7301H170.243V20.6613H168.09V23.8041C168.09 24.7935 168.555 25.0263 169.312 25.0263C170.068 25.0263 170.01 25.0263 170.243 24.8517V25.783C169.952 25.8994 169.603 25.9576 169.195 25.9576C167.799 25.9576 167.042 25.2591 167.042 23.7459V20.6031V20.6613Z" fill="#2A3D85"/>
<path d="M173.853 17.402C173.853 16.9946 174.202 16.7036 174.609 16.7036C175.017 16.7036 175.308 17.0528 175.308 17.402C175.308 17.7512 175.017 18.1586 174.609 18.1586C174.202 18.1586 173.853 17.8094 173.853 17.402ZM174.027 19.73H175.075V25.8993H174.027V19.73Z" fill="#2A3D85"/>
<path d="M185.667 22.8147C185.667 24.6189 184.328 26.1321 182.349 26.1321C180.37 26.1321 179.032 24.6189 179.032 22.8147C179.032 21.0105 180.37 19.4973 182.349 19.4973C184.328 19.4973 185.667 21.0105 185.667 22.8147ZM184.561 22.8147C184.561 21.5343 183.63 20.4867 182.349 20.4867C181.069 20.4867 180.079 21.5343 180.079 22.8147C180.079 24.0951 181.011 25.1427 182.349 25.1427C183.688 25.1427 184.561 24.0369 184.561 22.8147Z" fill="#2A3D85"/>
<path d="M189.508 19.7301H190.556V20.4285C191.079 19.9047 191.72 19.4973 192.593 19.4973C193.989 19.4973 194.979 20.4285 194.979 22.1745V25.8993H193.931V22.2327C193.931 21.1269 193.291 20.4867 192.36 20.4867C191.429 20.4867 190.905 21.0105 190.497 21.6507V25.8993H189.45V19.7301H189.508Z" fill="#2A3D85"/>
<path d="M198.996 24.3279C198.996 23.3967 199.694 22.7565 201.033 22.5237L203.128 22.1745V21.767C203.128 20.894 202.488 20.4284 201.615 20.4284C200.742 20.4284 200.334 20.7776 199.927 21.3014L199.17 20.7194C199.694 19.9628 200.567 19.5554 201.673 19.5554C203.244 19.5554 204.175 20.4866 204.175 21.8252V25.9575H203.128V25.2009C202.662 25.7829 201.847 26.1321 201.033 26.1321C199.81 26.1321 198.996 25.4337 198.996 24.3861V24.3279ZM201.149 25.2009C201.964 25.2009 202.662 24.7935 203.07 24.1533V22.9311L201.265 23.2221C200.392 23.3967 200.043 23.7459 200.043 24.2697C200.043 24.7935 200.451 25.2009 201.207 25.2009H201.149Z" fill="#2A3D85"/>
<path d="M208.424 16.7036H209.472V25.8993H208.424V16.7036Z" fill="#2A3D85"/>
<path d="M216.687 26.1321C214.591 26.1321 213.311 24.6189 213.311 22.8147C213.311 21.0105 214.533 19.4973 216.396 19.4973C218.258 19.4973 219.189 20.6613 219.189 22.1745C219.189 23.6877 219.189 22.6401 219.131 22.8147H214.417C214.417 24.2697 215.406 25.2009 216.745 25.2009C218.084 25.2009 218.2 24.8517 218.607 24.2697L219.364 24.8517C218.782 25.6083 217.851 26.1321 216.745 26.1321H216.687ZM214.475 22.0581H218.2C218.2 21.1269 217.56 20.3703 216.454 20.3703C215.348 20.3703 214.708 20.9523 214.533 22.0581H214.475Z" fill="#2A3D85"/>
<path d="M89.9265 34.804C90.8577 34.804 91.5562 35.1532 92.1382 35.7934V32.0686H93.1858V41.2643H92.1382V40.5077C91.6144 41.1479 90.8577 41.4971 89.9265 41.4971C88.0059 41.4971 86.7837 39.9839 86.7837 38.1797C86.7837 36.3755 88.0059 34.8622 89.9265 34.8622V34.804ZM90.0429 40.4495C90.9159 40.4495 91.6726 40.0421 92.1382 39.2855V36.8411C91.6726 36.0845 90.9159 35.677 90.0429 35.677C88.7625 35.677 87.8313 36.7247 87.8313 38.0051C87.8313 39.2855 88.7043 40.3331 90.0429 40.3331V40.4495Z" fill="#2A3D85"/>
<path d="M100.345 41.4389C98.2497 41.4389 96.9692 39.9257 96.9692 38.1215C96.9692 36.3172 98.1915 34.804 100.054 34.804C101.916 34.804 102.848 35.968 102.848 37.4812C102.848 38.9945 102.848 37.9469 102.789 38.1215H98.075C98.075 39.5765 99.0645 40.5077 100.403 40.5077C101.742 40.5077 101.858 40.1585 102.266 39.5765L103.022 40.1585C102.44 40.9151 101.509 41.4389 100.403 41.4389H100.345ZM98.1333 37.3648H101.858C101.858 36.4336 101.218 35.677 100.112 35.677C99.0063 35.677 98.3661 36.259 98.1915 37.3648H98.1333Z" fill="#2A3D85"/>
<path d="M112.334 32.0104H113.382V41.2061H112.334V32.0104Z" fill="#2A3D85"/>
<path d="M117.456 39.6347C117.456 38.7035 118.154 38.0633 119.493 37.8305L121.588 37.4813V37.0739C121.588 36.2009 120.948 35.7353 120.075 35.7353C119.202 35.7353 118.794 36.0845 118.387 36.6083L117.63 36.0263C118.154 35.2696 119.027 34.8622 120.133 34.8622C121.704 34.8622 122.635 35.7935 122.635 37.1321V41.2643H121.588V40.5077C121.122 41.0897 120.307 41.4389 119.493 41.4389C118.27 41.4389 117.456 40.7405 117.456 39.6929V39.6347ZM119.667 40.5077C120.482 40.5077 121.18 40.1003 121.588 39.4601V38.2379L119.784 38.5289C118.911 38.7035 118.561 39.0527 118.561 39.5765C118.561 40.1003 118.969 40.5077 119.725 40.5077H119.667Z" fill="#2A3D85"/>
<path d="M136.953 39.5765L137.768 40.2167C137.186 40.9733 136.313 41.4971 135.149 41.4971C133.112 41.4971 131.773 39.9839 131.773 38.1797C131.773 36.3755 133.054 34.8622 135.149 34.8622C137.244 34.8622 137.186 35.386 137.768 36.1427L136.953 36.7829C136.546 36.2591 135.964 35.8517 135.207 35.8517C133.869 35.8517 132.937 36.8993 132.937 38.1797C132.937 39.4601 133.869 40.5077 135.207 40.5077C136.546 40.5077 136.604 40.1585 136.953 39.5765Z" fill="#2A3D85"/>
<path d="M147.37 38.1215C147.37 39.9257 146.031 41.4389 144.052 41.4389C142.073 41.4389 140.735 39.9257 140.735 38.1215C140.735 36.3172 142.073 34.804 144.052 34.804C146.031 34.804 147.37 36.3172 147.37 38.1215ZM146.264 38.1215C146.264 36.841 145.333 35.7934 144.052 35.7934C142.772 35.7934 141.782 36.841 141.782 38.1215C141.782 39.4019 142.714 40.4495 144.052 40.4495C145.391 40.4495 146.264 39.3437 146.264 38.1215Z" fill="#2A3D85"/>
<path d="M151.211 32.0104H152.259V35.7352C152.782 35.2114 153.423 34.804 154.296 34.804C155.692 34.804 156.682 35.7352 156.682 37.4812V41.2061H155.634V37.5394C155.634 36.4336 154.994 35.7934 154.063 35.7934C153.132 35.7934 152.608 36.3172 152.2 36.9574V41.2061H151.153V32.0104H151.211Z" fill="#2A3D85"/>
<path d="M163.842 41.4389C161.747 41.4389 160.466 39.9257 160.466 38.1214C160.466 36.3172 161.689 34.804 163.551 34.804C165.413 34.804 166.345 35.968 166.345 37.4812C166.345 38.9945 166.345 37.9468 166.286 38.1214H161.572C161.572 39.5765 162.562 40.5077 163.9 40.5077C165.239 40.5077 165.355 40.1585 165.763 39.5765L166.519 40.1585C165.937 40.9151 165.006 41.4389 163.9 41.4389H163.842ZM161.63 37.3648H165.355C165.355 36.4336 164.715 35.677 163.609 35.677C162.503 35.677 161.863 36.259 161.689 37.3648H161.63ZM163.144 34.0474L164.424 32.0104H165.588L164.133 34.0474H163.144Z" fill="#2A3D85"/>
<path d="M170.359 39.7511C170.766 40.2749 171.29 40.6241 171.93 40.6241C172.57 40.6241 173.036 40.2167 173.036 39.6929C173.036 38.2961 169.951 38.8199 169.951 36.6082C169.951 34.3966 170.766 34.8622 171.93 34.8622C173.094 34.8622 173.56 35.2696 174.025 35.8516L173.327 36.4918C172.978 36.0262 172.512 35.7352 171.988 35.7352C171.464 35.7352 170.999 36.1426 170.999 36.6082C170.999 38.0051 174.083 37.5395 174.083 39.6347C174.083 40.7987 173.152 41.4971 171.988 41.4971C170.824 41.4971 170.242 41.0897 169.66 40.3913L170.417 39.7511H170.359Z" fill="#2A3D85"/>
<path d="M177.692 32.7088C177.692 32.3014 178.042 32.0104 178.449 32.0104C178.856 32.0104 179.147 32.3596 179.147 32.7088C179.147 33.058 178.856 33.4654 178.449 33.4654C178.042 33.4654 177.692 33.1162 177.692 32.7088ZM177.925 35.0368H178.973V41.2061H177.925V35.0368Z" fill="#2A3D85"/>
<path d="M189.509 38.1215C189.509 39.9257 188.17 41.4389 186.191 41.4389C184.213 41.4389 182.874 39.9257 182.874 38.1215C182.874 36.3172 184.213 34.804 186.191 34.804C188.17 34.804 189.509 36.3172 189.509 38.1215ZM188.403 38.1215C188.403 36.841 187.472 35.7934 186.191 35.7934C184.911 35.7934 183.922 36.841 183.922 38.1215C183.922 39.4019 184.853 40.4495 186.191 40.4495C187.53 40.4495 188.403 39.3437 188.403 38.1215Z" fill="#2A3D85"/>
<path d="M193.407 35.0368H194.455V35.7352C194.979 35.2114 195.619 34.804 196.492 34.804C197.889 34.804 198.878 35.7352 198.878 37.4812V41.2061H197.831V37.5394C197.831 36.4336 197.19 35.7934 196.259 35.7934C195.328 35.7934 194.804 36.3172 194.397 36.9574V41.2061H193.349V35.0368H193.407Z" fill="#2A3D85"/>
<path d="M89.9265 50.1108C90.8577 50.1108 91.5562 50.46 92.1382 51.1002V47.3754H93.1858V56.5711H92.1382V55.8145C91.6144 56.4547 90.8577 56.8039 89.9265 56.8039C88.0059 56.8039 86.7837 55.2907 86.7837 53.4864C86.7837 51.6822 88.0059 50.169 89.9265 50.169V50.1108ZM90.0429 55.7563C90.9159 55.7563 91.6726 55.3489 92.1382 54.5923V52.1478C91.6726 51.3912 90.9159 50.9838 90.0429 50.9838C88.7625 50.9838 87.8313 52.0314 87.8313 53.3118C87.8313 54.5923 88.7043 55.6399 90.0429 55.6399V55.7563Z" fill="#2A3D85"/>
<path d="M100.345 56.7457C98.2497 56.7457 96.9692 55.2325 96.9692 53.4283C96.9692 51.6241 98.1915 50.1108 100.054 50.1108C101.916 50.1108 102.848 51.2749 102.848 52.7881C102.848 54.3013 102.848 53.2537 102.789 53.4283H98.075C98.075 54.8833 99.0645 55.8145 100.403 55.8145C101.742 55.8145 101.858 55.4653 102.266 54.8833L103.022 55.4653C102.44 56.2219 101.509 56.7457 100.403 56.7457H100.345ZM98.1333 52.6135H101.858C101.858 51.6823 101.218 50.9257 100.112 50.9257C99.0063 50.9257 98.3661 51.5077 98.1915 52.6135H98.1333Z" fill="#2A3D85"/>
<path d="M106.864 55.0579C107.271 55.5817 107.795 55.9309 108.435 55.9309C109.076 55.9309 109.541 55.5235 109.541 54.9997C109.541 53.6029 106.457 54.1267 106.457 51.9151C106.457 49.7034 107.271 50.1691 108.435 50.1691C109.599 50.1691 110.065 50.5765 110.531 51.1585L109.832 51.7987C109.483 51.3331 109.017 51.0421 108.494 51.0421C107.97 51.0421 107.504 51.4495 107.504 51.9151C107.504 53.3119 110.589 52.8463 110.589 54.9415C110.589 56.1055 109.658 56.8039 108.494 56.8039C107.33 56.8039 106.748 56.3965 106.166 55.6981L106.922 55.0579H106.864Z" fill="#2A3D85"/>
<path d="M120.248 51.2748H119.084V50.3436H120.248V48.8304H121.296V50.3436H123.45V51.2748H121.296V54.4177C121.296 55.4071 121.762 55.6399 122.518 55.6399C123.275 55.6399 123.217 55.6399 123.45 55.4653V56.3965C123.159 56.5129 122.809 56.5711 122.402 56.5711C121.005 56.5711 120.248 55.8727 120.248 54.3595V51.2166V51.2748Z" fill="#2A3D85"/>
<path d="M129.967 56.7457C127.872 56.7457 126.592 55.2325 126.592 53.4283C126.592 51.6241 127.814 50.1108 129.676 50.1108C131.539 50.1108 132.47 51.2749 132.47 52.7881C132.47 54.3013 132.47 53.2537 132.412 53.4283H127.698C127.698 54.8833 128.687 55.8145 130.026 55.8145C131.364 55.8145 131.481 55.4653 131.888 54.8833L132.645 55.4653C132.063 56.2219 131.131 56.7457 130.026 56.7457H129.967ZM127.756 52.6135H131.422C131.422 51.6823 130.782 50.9257 129.676 50.9257C128.571 50.9257 127.93 51.5077 127.756 52.6135Z" fill="#2A3D85"/>
<path d="M136.428 50.3436H137.475V51.1002C137.941 50.5764 138.465 50.2272 139.28 50.2272C140.094 50.2272 139.687 50.2272 139.803 50.2854V51.2748C139.629 51.2748 139.454 51.2166 139.163 51.2166C138.348 51.2166 137.825 51.624 137.475 52.2643V56.5129H136.428V50.3436Z" fill="#2A3D85"/>
<path d="M143.53 50.3436H144.578V51.1002C145.044 50.5764 145.567 50.2272 146.382 50.2272C147.197 50.2272 146.79 50.2272 146.906 50.2854V51.2748C146.731 51.2748 146.557 51.2166 146.266 51.2166C145.451 51.2166 144.927 51.624 144.578 52.2643V56.5129H143.53V50.3436Z" fill="#2A3D85"/>
<path d="M150.338 48.0156C150.338 47.6082 150.688 47.3172 151.095 47.3172C151.502 47.3172 151.793 47.6664 151.793 48.0156C151.793 48.3648 151.502 48.7722 151.095 48.7722C150.688 48.7722 150.338 48.423 150.338 48.0156ZM150.571 50.3436H151.619V56.5129H150.571V50.3436Z" fill="#2A3D85"/>
<path d="M156.392 51.2748H155.228V50.3436H156.392V48.8304H157.439V50.3436H159.593V51.2748H157.439V54.4177C157.439 55.4071 157.905 55.6399 158.661 55.6399C159.418 55.6399 159.36 55.6399 159.593 55.4653V56.3965C159.302 56.5129 158.952 56.5711 158.545 56.5711C157.148 56.5711 156.392 55.8727 156.392 54.3595V51.2166V51.2748Z" fill="#2A3D85"/>
<path d="M169.37 53.4283C169.37 55.2325 168.031 56.7457 166.052 56.7457C164.073 56.7457 162.735 55.2325 162.735 53.4283C162.735 51.6241 164.073 50.1108 166.052 50.1108C168.031 50.1108 169.37 51.6241 169.37 53.4283ZM168.264 53.4283C168.264 52.1479 167.333 51.1003 166.052 51.1003C164.772 51.1003 163.782 52.1479 163.782 53.4283C163.782 54.7087 164.714 55.7563 166.052 55.7563C167.391 55.7563 168.264 54.6505 168.264 53.4283Z" fill="#2A3D85"/>
<path d="M173.038 48.0156C173.038 47.6082 173.387 47.3172 173.795 47.3172C174.202 47.3172 174.493 47.6664 174.493 48.0156C174.493 48.3648 174.202 48.7722 173.795 48.7722C173.387 48.7722 173.038 48.423 173.038 48.0156ZM173.271 50.3436H174.319V56.5129H173.271V50.3436Z" fill="#2A3D85"/>
<path d="M178.742 50.3436H179.789V51.1002C180.255 50.5764 180.779 50.2272 181.594 50.2272C182.408 50.2272 182.001 50.2272 182.117 50.2854V51.2748C181.943 51.2748 181.768 51.2166 181.477 51.2166C180.662 51.2166 180.139 51.624 179.789 52.2643V56.5129H178.742V50.3436Z" fill="#2A3D85"/>
<path d="M188.228 56.7457C186.133 56.7457 184.853 55.2325 184.853 53.4283C184.853 51.6241 186.075 50.1108 187.937 50.1108C189.8 50.1108 190.731 51.2749 190.731 52.7881C190.731 54.3013 190.731 53.2537 190.673 53.4283H185.958C185.958 54.8833 186.948 55.8145 188.286 55.8145C189.625 55.8145 189.741 55.4653 190.149 54.8833L190.905 55.4653C190.323 56.2219 189.392 56.7457 188.286 56.7457H188.228ZM186.017 52.6135H189.683C189.683 51.6823 189.043 50.9257 187.937 50.9257C186.831 50.9257 186.191 51.5077 186.017 52.6135Z" fill="#2A3D85"/>
<path d="M194.745 55.0579C195.152 55.5817 195.676 55.9309 196.316 55.9309C196.956 55.9309 197.422 55.5235 197.422 54.9997C197.422 53.6029 194.337 54.1267 194.337 51.9151C194.337 49.7034 195.152 50.1691 196.316 50.1691C197.48 50.1691 197.946 50.5765 198.411 51.1585L197.713 51.7987C197.364 51.3331 196.898 51.0421 196.374 51.0421C195.851 51.0421 195.385 51.4495 195.385 51.9151C195.385 53.3119 198.47 52.8463 198.47 54.9415C198.47 56.1055 197.538 56.8039 196.374 56.8039C195.21 56.8039 194.628 56.3965 194.046 55.6981L194.803 55.0579H194.745Z" fill="#2A3D85"/>
</g>
<defs>
<clipPath id="clip0_4170_97682">
<rect width="217.089" height="79.735" fill="white" transform="translate(2.21826)"/>
</clipPath>
</defs>
</svg>
