<svg width="222" height="81" viewBox="0 0 222 81" fill="none" xmlns="http://www.w3.org/2000/svg">
<path d="M47.9504 9.28567C47.9539 9.28567 47.9574 9.28049 47.9574 9.28049C47.9855 9.25978 48.0135 9.23389 48.0381 9.20283C48.0346 9.20283 48.0311 9.20283 48.0275 9.19765C48.003 9.22354 47.975 9.2546 47.9504 9.28567Z" fill="black"/>
<path d="M51.8346 7.97694L51.7732 8.02975C51.8083 8.02095 51.8346 8.01215 51.8346 7.97694Z" fill="black"/>
<path fill-rule="evenodd" clip-rule="evenodd" d="M50.5788 9.31382C50.6913 9.20065 50.8038 9.08063 50.9163 8.95718H50.9129C51.1243 8.71713 51.3288 8.48737 51.5743 8.27819C51.6493 8.2096 51.7209 8.15131 51.789 8.1033C51.7991 8.09322 51.8042 8.07822 51.8092 8.06351C51.8144 8.04818 51.8195 8.03318 51.83 8.02442C51.7814 8.04297 51.7426 8.07229 51.7037 8.10179C51.6634 8.13229 51.6229 8.16299 51.5709 8.18217C51.5504 8.18217 51.5299 8.16159 51.5504 8.14102C51.622 8.08958 51.6936 8.03471 51.7618 7.97984H51.7481C51.7277 7.97984 51.7277 7.95927 51.7277 7.93869C51.4739 7.89838 51.279 8.07196 51.1045 8.22734L51.0936 8.23704C51.0664 8.2507 51.0408 8.23715 51.0206 8.2265C51.0104 8.22111 51.0016 8.21646 50.9947 8.21646C50.8403 8.26823 50.7072 8.36366 50.5732 8.45972C50.4497 8.54821 50.3255 8.63722 50.1833 8.69313V8.65198C50.135 8.66863 50.0873 8.69034 50.0395 8.7121C49.9691 8.74411 49.8984 8.77624 49.8254 8.79257C49.6919 8.82355 49.5682 8.81955 49.4482 8.81568C49.4089 8.81441 49.3698 8.81315 49.331 8.81315C49.1127 8.8348 48.8971 8.88157 48.6818 8.92828L48.6117 8.94346C48.6083 8.94518 48.6049 8.94603 48.6015 8.94689C48.5981 8.94775 48.5947 8.94861 48.5913 8.95032C48.4617 8.98461 48.3424 9.03262 48.2231 9.10121L48.2094 9.10806C48.2048 9.11435 48.2001 9.11992 48.1957 9.12509C48.1906 9.1312 48.1859 9.13679 48.1822 9.14236C48.1413 9.19037 48.1038 9.23152 48.0458 9.26238C47.9602 9.30543 47.8862 9.37183 47.8134 9.43715C47.7819 9.46545 47.7505 9.49366 47.7185 9.51957C47.7117 9.52643 47.6981 9.52986 47.6878 9.52986C47.5822 9.63273 47.4765 9.73563 47.3674 9.83506C47.3606 9.84192 47.3299 9.84535 47.306 9.84192C47.306 9.84192 47.3094 9.84192 47.3094 9.83849L47.3196 9.81792L47.3708 9.73562C47.381 9.72018 47.3904 9.70475 47.3998 9.68932C47.4091 9.67389 47.4185 9.65846 47.4287 9.64303C47.456 9.60191 47.4833 9.56069 47.514 9.523C47.5208 9.51272 47.5208 9.50243 47.514 9.49557C47.5072 9.48871 47.4969 9.48528 47.4867 9.48528C47.5856 9.38926 47.7015 9.30696 47.8208 9.23495V9.23152C47.8072 9.23495 47.7867 9.22466 47.7969 9.21094C47.8069 9.19837 47.8151 9.18395 47.8228 9.17039L47.831 9.15607C47.8327 9.15265 47.8336 9.15007 47.8344 9.1475C47.8353 9.14493 47.8361 9.14236 47.8378 9.13893C47.8361 9.1355 47.8336 9.13293 47.831 9.13035C47.8285 9.12778 47.8259 9.12521 47.8242 9.12178L47.8035 9.13542C47.7788 9.15159 47.7534 9.16822 47.7322 9.18694C47.7171 9.19992 47.7031 9.21767 47.6887 9.2359C47.6574 9.27546 47.6243 9.31725 47.5753 9.31725C47.5719 9.31725 47.5549 9.31725 47.5447 9.31382C47.5344 9.31382 47.5276 9.31039 47.5242 9.30696C47.5242 9.30525 47.5242 9.30439 47.5246 9.30396C47.5251 9.30353 47.5259 9.30353 47.5276 9.30353C47.5276 9.30353 47.531 9.3001 47.531 9.29667C47.531 9.29667 47.531 9.29324 47.5344 9.29324C47.5361 9.28982 47.5378 9.28724 47.5395 9.28467C47.5412 9.2821 47.543 9.27952 47.5447 9.2761C47.5464 9.27267 47.5481 9.2701 47.5498 9.26752C47.5515 9.26495 47.5532 9.26238 47.5549 9.25895C47.5566 9.25724 47.5574 9.25466 47.5583 9.25209C47.5591 9.24952 47.56 9.24695 47.5617 9.24523L47.5655 9.23816C47.5689 9.23215 47.573 9.22497 47.5753 9.2178C47.577 9.21437 47.5787 9.2118 47.5804 9.20923C47.5822 9.20666 47.5839 9.20408 47.5856 9.20065C47.5907 9.1938 47.5949 9.18608 47.5992 9.17836C47.6035 9.17065 47.6077 9.16293 47.6128 9.15607C47.6162 9.14922 47.6197 9.14236 47.6265 9.1355C47.6299 9.12864 47.6333 9.12264 47.6367 9.11664C47.6401 9.11064 47.6435 9.10464 47.6469 9.09778C47.6572 9.08063 47.6469 9.06691 47.6333 9.06349C47.6708 9.01548 47.7151 8.97433 47.7697 8.94346H47.7628C47.8099 8.91979 47.8583 8.89206 47.9064 8.86453C47.9348 8.84827 47.9635 8.83183 47.9913 8.81658C48.0015 8.80629 48.0117 8.796 48.0253 8.78915C47.9128 8.82687 47.8106 8.87831 47.7117 8.94689C47.7117 8.94689 47.6844 8.95718 47.6776 8.96404C47.6776 8.96404 47.6572 8.9709 47.6299 8.94689C47.6265 8.94346 47.6265 8.94003 47.6265 8.93317C47.6383 8.90933 47.6628 8.89355 47.6892 8.87649C47.7084 8.8641 47.7286 8.85104 47.7458 8.83372C47.7662 8.83372 47.7833 8.83373 47.7833 8.8543C48.1759 8.54641 48.6601 8.47518 49.1458 8.40371C49.4446 8.35976 49.744 8.31571 50.0231 8.21646C50.0521 8.19589 50.0819 8.17617 50.1117 8.15645C50.1416 8.13673 50.1714 8.11701 50.2004 8.09644C50.2501 8.07574 50.2947 8.0403 50.3418 8.00276C50.3885 7.96566 50.4377 7.92652 50.497 7.89754C50.6538 7.77752 50.7731 7.64035 50.8345 7.43802C50.8345 7.41745 50.814 7.39687 50.814 7.39687C50.5549 7.67464 50.2583 7.89411 49.9413 8.05529C49.639 8.21482 49.315 8.23846 48.9944 8.26186C48.8739 8.27065 48.7538 8.27941 48.6356 8.29533C48.656 8.25418 48.6969 8.25418 48.7344 8.25418C48.7344 8.20549 48.7578 8.18454 48.7877 8.15766C48.7957 8.15047 48.8042 8.14284 48.8129 8.13416H48.8708C48.881 8.13416 48.8862 8.12387 48.8913 8.11359C48.8964 8.1033 48.9015 8.09301 48.9117 8.09301C48.9526 8.09301 49.0106 8.07243 48.9901 8.07243C48.9589 8.03224 48.9134 8.04815 48.8633 8.06571C48.8151 8.08261 48.7625 8.10102 48.714 8.07243C48.732 8.05265 48.7374 8.02891 48.7424 8.0073C48.7477 7.98395 48.7525 7.9631 48.7719 7.95241H48.8504C48.8504 7.91126 48.8913 7.87354 48.8913 7.87354C49.0691 7.76664 49.2407 7.6733 49.4092 7.58169C49.5218 7.52051 49.633 7.46003 49.7436 7.39687C49.7212 7.39687 49.7014 7.40607 49.6821 7.41499C49.6515 7.4292 49.6223 7.44272 49.5867 7.41745C49.6072 7.41745 49.6072 7.40288 49.6072 7.3883C49.6072 7.37373 49.6072 7.35915 49.6276 7.35915C49.7555 7.32498 49.8694 7.2696 49.9856 7.21304C50.0677 7.17311 50.151 7.13259 50.2413 7.09853C50.2145 7.09853 50.1897 7.10574 50.1655 7.11277C50.1189 7.1263 50.0747 7.13916 50.0231 7.09853C50.0367 7.09172 50.0476 7.08302 50.0584 7.07444C50.0802 7.05711 50.1014 7.04023 50.1424 7.04023V6.98194C50.1424 6.96136 50.1629 6.96136 50.1833 6.96136C50.1629 6.96136 50.1424 6.94078 50.1424 6.94078C50.1533 6.919 50.1746 6.91451 50.1983 6.90952C50.2195 6.90508 50.2425 6.90024 50.2617 6.88249C50.2413 6.88249 50.2038 6.88249 50.2038 6.86191C50.2617 6.78304 50.3606 6.76246 50.4595 6.74189C50.4492 6.72131 50.4296 6.72131 50.4126 6.72131C50.3956 6.72131 50.3811 6.72131 50.3811 6.70074C50.3811 6.68016 50.4015 6.68016 50.422 6.68016H50.3811C50.349 6.66402 50.3546 6.6352 50.3586 6.61525C50.3597 6.60978 50.3606 6.60498 50.3606 6.60129C50.4407 6.50692 50.467 6.39556 50.4932 6.28483C50.506 6.23058 50.5188 6.17649 50.5379 6.12462C50.5174 6.12462 50.497 6.12463 50.497 6.10405C50.3053 6.31682 50.0015 6.39744 49.7128 6.47403L49.6856 6.48127H49.5867C49.4879 6.52242 49.3481 6.52242 49.2492 6.46069C49.2022 6.43602 49.1687 6.40518 49.1325 6.37188C49.1083 6.34964 49.0829 6.32629 49.0515 6.30295C48.8913 6.2035 48.7344 6.12462 48.5572 6.0629C48.0628 5.90515 47.5481 5.82285 47.0333 5.84343C47.177 5.76435 47.3297 5.73291 47.4844 5.70104C47.5645 5.68454 47.6451 5.66793 47.7253 5.64453C47.776 5.62962 47.8261 5.61424 47.876 5.59894C48.1588 5.51225 48.4331 5.42815 48.7344 5.44564C48.695 5.43163 48.6445 5.43669 48.598 5.44135C48.5762 5.44354 48.5552 5.44564 48.5367 5.44564C48.3088 5.42866 48.0786 5.4794 47.8385 5.53234C47.7876 5.54356 47.7363 5.55487 47.6844 5.56566C47.5904 5.58524 47.5009 5.61335 47.4113 5.64151C47.3126 5.67254 47.2137 5.70363 47.1083 5.7234C47.0625 5.73918 47.0258 5.76604 46.9901 5.7922C46.9325 5.83429 46.8774 5.87458 46.7912 5.864V5.80228C46.989 5.56223 47.2276 5.32561 47.5447 5.30504C47.8511 5.25513 48.1401 5.29068 48.4415 5.32776C48.4922 5.33399 48.5432 5.34027 48.5947 5.34619C48.8418 5.36607 49.073 5.4212 49.3221 5.4806L49.3481 5.48679C49.4026 5.48679 49.4333 5.5348 49.463 5.58131C49.4872 5.6191 49.5107 5.65588 49.5458 5.66511C49.5944 5.68185 49.6429 5.68497 49.6914 5.68809C49.7622 5.69264 49.833 5.69719 49.9038 5.74398C49.9038 5.73013 49.9015 5.71667 49.8992 5.70334C49.8946 5.67705 49.8902 5.65126 49.9038 5.62396C49.9478 5.57971 49.9982 5.59158 50.0478 5.60327C50.0867 5.61241 50.125 5.62145 50.1595 5.60338C50.2676 5.53628 50.1662 5.43328 50.0647 5.33018C50.0157 5.28048 49.9668 5.23075 49.9413 5.18501C49.9413 5.16444 49.9617 5.14386 49.9617 5.14386C50.0065 5.184 50.0482 5.22554 50.0896 5.26672C50.1931 5.36978 50.2943 5.4706 50.4356 5.54165C50.5345 5.5828 50.7731 5.6411 50.7322 5.52108C50.6622 5.36563 50.5426 5.23083 50.4218 5.09473C50.3721 5.03869 50.3221 4.98241 50.2754 4.92439V4.84552C50.2443 4.84552 50.2368 4.83365 50.2276 4.81892C50.2246 4.81426 50.2215 4.80931 50.2174 4.80437V4.72549C50.1674 4.69927 50.1562 4.65771 50.145 4.61593C50.1386 4.59216 50.1322 4.56831 50.1186 4.54717C50.0844 4.49179 50.0819 4.42365 50.0794 4.35341C50.0774 4.29751 50.0753 4.24029 50.0572 4.1871C50.0163 4.06708 49.9992 3.96763 49.9788 3.84761C49.9566 3.72482 49.9322 3.60741 49.9083 3.49247C49.8661 3.28962 49.8254 3.09441 49.8015 2.89085C49.77 2.59989 49.9169 2.35382 50.0671 2.10227C50.1116 2.0277 50.1564 1.95264 50.197 1.8758C50.3367 1.63575 50.4936 1.39913 50.7527 1.23796C50.8092 1.00383 50.963 0.808853 51.1161 0.61484L51.1277 0.600117C51.2787 0.41184 51.531 0.29674 51.7169 0.211912L51.7379 0.202325C52.014 0.0788725 52.2629 0 52.2663 0H38.5718V10.5586H48.2878C48.5477 10.3702 48.8059 10.2514 49.1134 10.1099C49.2536 10.0454 49.4041 9.97609 49.5697 9.89336C49.6047 9.87573 49.6464 9.85523 49.6927 9.83248C49.9701 9.69595 50.4122 9.47842 50.5788 9.31382ZM47.4958 7.8893C47.4572 7.89317 47.4164 7.89727 47.4318 7.8663C47.4461 7.7969 47.5172 7.77609 47.5866 7.75577C47.6163 7.74707 47.6457 7.73846 47.6702 7.72616L47.6814 7.72037L47.6896 7.71603C47.728 7.69561 47.7751 7.67061 47.8098 7.68514C47.8333 7.71845 47.8623 7.72705 47.8905 7.7354C47.9115 7.74163 47.9321 7.74771 47.9495 7.76376C47.8758 7.8377 47.7898 7.845 47.7026 7.85239C47.6447 7.8573 47.5863 7.86226 47.5306 7.88681C47.5206 7.88681 47.5083 7.88804 47.4958 7.8893ZM44.4796 7.40707C44.4796 7.42764 44.5001 7.44822 44.5001 7.44822C44.9774 6.90983 45.4103 6.45031 46.024 6.06966C46.0404 6.06278 46.0343 6.07138 46.0262 6.0828C46.0141 6.09982 45.9975 6.12313 46.0444 6.11081C46.2476 6.06449 46.3388 5.89045 46.4276 5.72112C46.4506 5.67733 46.4733 5.63386 46.4979 5.593C46.591 5.44157 46.7232 5.34456 46.8564 5.24679C46.9525 5.1763 47.0491 5.10541 47.132 5.01346C47.132 5.03403 47.132 5.05461 47.1115 5.07518C47.132 5.09576 47.1524 5.09576 47.1729 5.09576C47.2088 5.06863 47.2481 5.05739 47.2857 5.04663C47.3337 5.03291 47.379 5.01994 47.4115 4.97573C47.2547 4.91401 47.0536 4.89343 46.8967 4.95516C46.4808 5.15406 46.1263 5.47297 45.7888 5.83305C45.5842 6.04909 45.3728 6.25141 45.1137 6.39201C44.9365 6.74865 44.7387 7.06757 44.4796 7.40707ZM46.144 6.13168C46.1333 6.15312 46.1226 6.16429 46.1124 6.17495C46.1031 6.18468 46.0942 6.19399 46.0861 6.2103C46.0657 6.25132 46.0452 6.26841 46.0078 6.28892C45.9873 6.28892 45.9669 6.28892 45.9669 6.26841C45.9873 6.18979 46.0452 6.11117 46.1236 6.09066C46.144 6.09408 46.144 6.11459 46.144 6.13168ZM47.0158 9.17707C47.0328 9.15993 47.0532 9.13935 47.0635 9.11877C47.0805 9.07762 46.9749 9.08791 46.9579 9.0982C46.9424 9.11065 46.9326 9.12309 46.9207 9.1381L46.917 9.14278C46.9028 9.15913 46.8862 9.17426 46.8693 9.18962C46.8578 9.20004 46.8463 9.21057 46.8353 9.22165C46.7876 9.26966 46.7399 9.31767 46.6888 9.36225C46.6547 9.39311 46.7637 9.40683 46.7876 9.38626C46.8148 9.36568 46.8387 9.34168 46.8625 9.31767C46.8716 9.31767 46.8807 9.31615 46.8867 9.31513L46.8909 9.31446L46.8932 9.31424C46.9496 9.29529 46.9916 9.25599 47.0325 9.21775L47.043 9.20794C47.0566 9.19422 47.0396 9.1805 47.0158 9.17707ZM46.7075 8.95407C46.7072 8.95413 46.7069 8.95424 46.7067 8.95443C46.7063 8.95485 46.7063 8.95571 46.7063 8.95743C46.6854 8.97177 46.6647 8.98637 46.6441 9.00095C46.5908 9.03866 46.5378 9.07616 46.4813 9.10831C46.4272 9.13878 46.3717 9.1651 46.3158 9.19166C46.2836 9.20695 46.2512 9.22233 46.2188 9.23863C46.2188 9.23863 46.2188 9.2352 46.2153 9.2352C46.2085 9.22491 46.1949 9.22148 46.1813 9.22834C46.1063 9.26949 46.0415 9.32436 45.9835 9.38265C45.9733 9.38951 45.9631 9.3998 45.9563 9.41009L45.9256 9.44095V9.44438C45.9119 9.4581 45.8983 9.47181 45.8813 9.49239C45.8777 9.49595 45.875 9.49952 45.8724 9.50294C45.8674 9.50939 45.8629 9.51534 45.854 9.51982C45.8403 9.52668 45.8063 9.52668 45.8097 9.50611V9.50268C45.7994 9.50954 45.7858 9.51639 45.7756 9.51982C45.7705 9.52325 45.7653 9.52582 45.7602 9.5284C45.7551 9.53097 45.75 9.53354 45.7449 9.53697C45.7415 9.53354 45.7347 9.53354 45.7313 9.53354C45.7278 9.53354 45.721 9.53354 45.7176 9.53697C45.7097 9.54383 45.7017 9.55031 45.6938 9.55678C45.6778 9.56974 45.6619 9.58269 45.646 9.5987C45.6051 9.63642 45.5676 9.67757 45.5301 9.72215C45.5301 9.72215 45.5301 9.72558 45.5267 9.72558C45.5267 9.72729 45.5259 9.72815 45.525 9.72901C45.5241 9.72986 45.5233 9.73072 45.5233 9.73244L45.5165 9.7393C45.5152 9.74061 45.5144 9.74191 45.5137 9.74303C45.5126 9.74484 45.5118 9.74615 45.5097 9.74615L45.5062 9.74958C45.5028 9.75644 45.4994 9.7633 45.4926 9.77016C45.4892 9.77359 45.4824 9.77702 45.4756 9.77702C45.4722 9.77359 45.4687 9.77016 45.4687 9.76673C45.467 9.76501 45.4662 9.7633 45.4653 9.76159C45.4645 9.75987 45.4636 9.75816 45.4619 9.75644C45.4585 9.7513 45.456 9.74615 45.4534 9.74101C45.4508 9.73587 45.4483 9.73072 45.4449 9.72558V9.72215C45.4449 9.72043 45.444 9.71872 45.4432 9.717C45.4423 9.71529 45.4415 9.71358 45.4415 9.71186L45.5028 9.63985L45.5062 9.63642C45.5097 9.63299 45.5131 9.62871 45.5165 9.62443C45.5199 9.62014 45.5233 9.61584 45.5267 9.61241C45.5318 9.60556 45.5378 9.5987 45.5437 9.59184C45.5497 9.58498 45.5557 9.57812 45.5608 9.57126C45.5625 9.56783 45.5642 9.56526 45.5659 9.56269C45.5676 9.56012 45.5693 9.55755 45.571 9.55412C45.5915 9.52668 45.6119 9.49925 45.6324 9.46838V9.46496C45.6358 9.46153 45.6392 9.4581 45.6392 9.45124C45.6494 9.43753 45.6597 9.4238 45.6665 9.41009L45.6869 9.36894V9.36551L45.6903 9.36208C45.6903 9.36036 45.6912 9.35951 45.692 9.35865C45.6929 9.35779 45.6938 9.35693 45.6938 9.35522C45.6972 9.34665 45.7006 9.33894 45.704 9.33123C45.7074 9.32352 45.7108 9.31578 45.7142 9.30721V9.30378L45.7176 9.29006C45.7193 9.28663 45.7202 9.2832 45.721 9.27977C45.7219 9.27635 45.7227 9.27292 45.7244 9.26949V9.26606C45.7261 9.26091 45.727 9.25577 45.7278 9.25063C45.7287 9.24548 45.7295 9.24034 45.7313 9.2352C45.7313 9.23177 45.7313 9.22491 45.7278 9.22148C45.7483 9.18376 45.7756 9.14947 45.8063 9.11517C45.8045 9.11517 45.8028 9.11603 45.8011 9.11689C45.8002 9.11738 45.7992 9.11787 45.7982 9.1182C45.7975 9.11845 45.7968 9.1186 45.796 9.1186C45.7809 9.12814 45.7678 9.14087 45.7545 9.15382C45.7439 9.16415 45.7331 9.17463 45.721 9.18376C45.7006 9.2009 45.6597 9.17347 45.6869 9.15289C45.704 9.13918 45.7176 9.12547 45.7312 9.11175C45.7312 9.11175 45.7313 9.10831 45.7347 9.10831C45.7482 9.09601 45.7613 9.08207 45.7745 9.06802C45.7943 9.04683 45.8144 9.02536 45.8369 9.00887C45.8608 8.99172 45.8778 8.978 45.8983 8.96086C45.9017 8.95743 45.9051 8.954 45.9085 8.954C45.9222 8.93685 45.9358 8.91971 45.9528 8.90256C45.9528 8.90256 45.9563 8.90256 45.9563 8.89913C46.0733 8.78557 46.2378 8.74552 46.4058 8.70464C46.5117 8.67885 46.6189 8.65274 46.7165 8.60765C46.7716 8.58471 46.8331 8.59373 46.8938 8.60265C46.942 8.60974 46.9898 8.61675 47.0335 8.60765C47.0915 8.60765 47.1529 8.60764 47.2108 8.6488C47.076 8.72058 46.9474 8.80268 46.8201 8.88389C46.7832 8.9074 46.7464 8.9309 46.7097 8.954C46.7087 8.954 46.708 8.954 46.7075 8.95407ZM47.1336 7.5564C47.1176 7.55824 47.1073 7.55943 47.1161 7.56834C47.1741 7.62664 47.2934 7.60606 47.3752 7.56148C47.4332 7.52033 47.4945 7.52033 47.5729 7.52033C47.5934 7.52033 47.5934 7.48261 47.5934 7.46204C47.6514 7.48261 47.6923 7.48261 47.7502 7.48261C48.2241 7.38316 48.6809 7.28372 49.1173 7.06424C48.6758 6.72306 48.1314 6.57107 47.5982 6.42221C47.5098 6.39752 47.4216 6.37291 47.3343 6.34753C47.3535 6.34753 47.3727 6.35393 47.392 6.36036C47.431 6.37336 47.4705 6.38652 47.5116 6.34753C47.4575 6.30438 47.3973 6.29613 47.3376 6.28796C47.2883 6.28119 47.2393 6.27449 47.1945 6.24808C47.1992 6.24808 47.2048 6.24916 47.2108 6.25032C47.2312 6.25426 47.2572 6.25927 47.2729 6.22751C47.1694 6.17543 47.0658 6.15774 46.9613 6.13988C46.9075 6.13069 46.8535 6.12146 46.7991 6.10749C46.8979 6.08691 46.9593 6.00804 46.9593 5.90859C46.9593 5.88801 46.9184 5.88801 46.8979 5.88801C46.6627 6.00804 46.5025 6.22751 46.4036 6.4847C46.4927 6.53718 46.5888 6.5311 46.683 6.52514C46.7365 6.52175 46.7893 6.5184 46.84 6.52585C46.7953 6.56832 46.7307 6.57985 46.6686 6.59094C46.6454 6.59507 46.6226 6.59914 46.6013 6.60473C46.54 6.61844 46.482 6.66302 46.5025 6.70417C46.5161 6.72132 46.5297 6.72818 46.5468 6.73161C46.5025 6.74533 46.4616 6.7659 46.4241 6.80362C46.4802 6.84781 46.5381 6.83928 46.5952 6.83086C46.6179 6.82752 46.6404 6.8242 46.6627 6.8242C46.6627 6.8491 46.6791 6.85756 46.696 6.86636C46.7048 6.87089 46.7137 6.8755 46.7207 6.88249C46.6218 6.92022 46.5434 7.00252 46.5229 7.06081C46.4985 7.12022 46.4534 7.15882 46.4087 7.19709C46.3785 7.22288 46.3485 7.24853 46.3252 7.28029V7.34201C46.2593 7.4004 46.1916 7.45254 46.1249 7.50396C45.9878 7.60959 45.8545 7.71222 45.7491 7.85983C45.7695 7.85983 45.7695 7.8804 45.7695 7.90098C45.7506 7.92944 45.7238 7.94915 45.6984 7.96785C45.6686 7.9897 45.6408 8.01016 45.6297 8.04158C45.6297 8.06215 45.6297 8.08273 45.6502 8.08273C45.7753 8.04138 45.8835 7.97176 45.9896 7.90351C46.0859 7.84157 46.1805 7.78076 46.2843 7.74323C46.3691 7.72283 46.443 7.68436 46.515 7.64683C46.5762 7.61498 46.636 7.5838 46.7002 7.56491C46.7496 7.55463 46.8042 7.54005 46.8587 7.52548C46.9133 7.5109 46.9678 7.49633 47.0173 7.48604C47.0173 7.50662 47.0173 7.52719 47.0377 7.52719H47.1945C47.1849 7.55051 47.1544 7.55401 47.1336 7.5564Z" fill="#000091"/>
<path d="M67.6085 0H56.2519C56.2519 0 56.2725 0.00343259 56.3583 0.0480562C56.451 0.0961124 56.5712 0.161332 56.6433 0.19909C56.7909 0.274607 56.9316 0.370719 57.0243 0.51832C57.0655 0.576674 57.1239 0.696815 57.0861 0.775764C57.0449 0.875309 57.0243 1.03664 56.9248 1.0744C56.8046 1.13619 56.6467 1.13619 56.5059 1.11559C56.427 1.11559 56.348 1.09499 56.2656 1.0744C56.5643 1.19454 56.8458 1.33528 57.0449 1.61332C57.0655 1.65451 57.1445 1.67167 57.2234 1.67167C57.244 1.67167 57.244 1.71286 57.244 1.73002C57.2028 1.77121 57.1651 1.79181 57.1857 1.85016H57.244C57.3436 1.80897 57.323 1.60988 57.4638 1.67167C57.5633 1.73002 57.6045 1.87076 57.5427 1.9703C57.4638 2.04925 57.3848 2.11104 57.3024 2.16939C57.2818 2.21059 57.2818 2.26894 57.3024 2.31013C57.3608 2.38908 57.3814 2.46803 57.402 2.55041C57.4638 2.69115 57.4809 2.84905 57.5427 2.98978C57.6217 3.28842 57.7006 3.58705 57.6835 3.88912C57.6835 4.04702 57.6045 4.18775 57.6629 4.34909C57.7041 4.50698 57.8036 4.62712 57.8826 4.76786C57.9616 4.888 58.0405 4.96695 58.1023 5.08709C58.2225 5.28618 58.4422 5.48527 58.3426 5.72555C58.2843 5.86629 58.0646 5.84569 57.9238 5.92464C57.8036 6.02419 57.9032 6.18552 57.965 6.28506C58.0645 6.46356 57.8448 6.5837 57.7041 6.64549C57.7453 6.70727 57.8242 6.68668 57.8448 6.72443C57.8654 6.82398 57.965 6.88233 57.9032 6.98531C57.8242 7.10545 57.5839 7.16381 57.7041 7.34573C57.783 7.48647 57.7315 7.64094 57.6835 7.7851C57.6251 7.9636 57.4638 8.04255 57.323 8.08374C57.2028 8.12493 57.0621 8.12493 56.9454 8.10433C56.9042 8.08374 56.8664 8.06314 56.8252 8.06314C56.4853 8.02195 56.1455 7.92584 55.809 7.92584C55.7095 7.94644 55.6099 7.9636 55.5309 8.00479C55.4417 8.07001 55.3593 8.14209 55.2906 8.21761C55.2906 8.21761 55.2906 8.21761 55.2872 8.22104C55.2735 8.23821 55.2563 8.25194 55.2426 8.2691C55.2357 8.2794 55.2254 8.28969 55.2185 8.29999C55.2117 8.30686 55.2082 8.31372 55.2014 8.32059C55.143 8.39267 55.0915 8.47162 55.0434 8.55057C55.04 8.55744 55.0366 8.56087 55.0331 8.5643C55.0297 8.5746 55.0228 8.58146 55.016 8.59176C54.9507 8.7119 54.9027 8.83547 54.8649 8.95905C54.7276 9.41558 54.7894 9.8069 54.8855 9.90301C54.913 9.93047 55.5447 10.1261 55.9841 10.3218C56.1901 10.4145 56.3343 10.4831 56.4544 10.5586H67.6051V0H67.6085Z" fill="#E1000F"/>
<path d="M56.9256 3.85107C57.0046 3.87164 57.1247 3.87164 57.1247 3.91277C57.0835 4.07047 56.8466 4.1116 56.7264 4.27272H56.6646C56.6063 4.31386 56.6234 4.41328 56.565 4.41328C56.5067 4.39271 56.4449 4.41328 56.3865 4.43385C56.4655 4.51269 56.565 4.5744 56.6852 4.55383C56.7058 4.55383 56.7436 4.59497 56.7436 4.63267C56.7436 4.63267 56.7642 4.63267 56.7848 4.61211C56.8054 4.61211 56.826 4.61211 56.826 4.63267V4.71152C56.7676 4.79037 56.6646 4.75266 56.5856 4.7698C56.747 4.81094 56.905 4.81094 57.0458 4.7698C57.166 4.72866 57.0458 4.52983 57.1247 4.43042C57.0835 4.43042 57.1247 4.36871 57.0835 4.36871C57.1247 4.32757 57.1625 4.2693 57.2037 4.24873C57.2449 4.24873 57.3033 4.22816 57.3239 4.18702C57.3239 4.14588 57.2449 4.12874 57.2621 4.08761C57.3823 4.00876 57.4819 3.88878 57.4407 3.76879C57.4201 3.70709 57.2621 3.70709 57.1625 3.66938C57.0629 3.63167 56.9428 3.66938 56.8226 3.68995C56.723 3.68995 56.6234 3.75165 56.5238 3.76879C56.3831 3.80993 56.2629 3.88878 56.1461 3.96762C56.2869 3.90935 56.4243 3.88878 56.5856 3.84764C56.7058 3.85107 56.8054 3.82364 56.9256 3.85107Z" fill="#808080"/>
<path d="M39.6595 23.7841V16.3931H41.5284L43.3339 19.4973L45.1395 16.3931H47.0083V23.7841H45.509V18.4837L43.8619 21.2501H42.806L41.1589 18.4837V23.7841H39.6595Z" fill="#161616"/>
<path d="M49.2295 23.7841V16.3931H50.7289V23.7841H49.2295Z" fill="#161616"/>
<path d="M52.9531 23.7841V16.3931H54.8748L58.1796 21.7358V16.3931H59.6789V23.7841H57.7573L54.4524 18.4415V23.7841H52.9531Z" fill="#161616"/>
<path d="M61.9044 23.7841V16.3931H63.4038V23.7841H61.9044Z" fill="#161616"/>
<path d="M64.9628 22.7599L66.0503 21.7569C66.4938 22.327 67.0851 22.6649 67.6869 22.6649C68.2782 22.6649 68.6372 22.3482 68.6372 21.8202C68.6372 20.4582 65.2796 20.8277 65.2796 18.3253C65.2796 17.1533 66.251 16.1819 67.6658 16.1819C68.7745 16.1819 69.6192 16.6782 70.2527 17.4278L69.1546 18.4203C68.7217 17.8607 68.236 17.4912 67.6764 17.4912C67.1484 17.4912 66.8 17.8291 66.8 18.2725C66.8 19.6135 70.1576 19.2334 70.1576 21.7674C70.1365 23.1612 69.0595 23.9953 67.6975 23.9953C66.4516 23.9953 65.6174 23.5413 64.9628 22.7599Z" fill="#161616"/>
<path d="M71.0763 17.7552V16.3931H77.137V17.7552H74.8563V23.7841H73.357V17.7552H71.0763Z" fill="#161616"/>
<path d="M80.101 15.7596L78.7389 14.3342H80.2805L81.4736 15.7596H80.101ZM78.6122 23.7841V16.3931H82.9201V17.639H80.1115V19.3917H82.4978V20.6377H80.1115V22.5382H82.9201V23.7841H78.6122Z" fill="#161616"/>
<path d="M84.8208 23.7841V16.3931H87.0803C88.7064 16.3931 89.7094 17.2272 89.7094 18.5998C89.7094 19.4973 89.2765 20.1625 88.5163 20.511L90.8286 23.7841H89.0654L87.0909 20.796H86.3201V23.7841H84.8208ZM87.1648 17.639H86.3201V19.5501H87.1648C87.7983 19.5501 88.1679 19.1806 88.1679 18.5787C88.1679 18.0191 87.7983 17.639 87.1648 17.639Z" fill="#161616"/>
<path d="M91.9367 23.7841V16.3931H96.2446V17.639H93.436V19.3917H95.8223V20.6377H93.436V22.5382H96.2446V23.7841H91.9367Z" fill="#161616"/>
<path d="M39.6595 35.0993V27.7082H42.5632C44.9072 27.7082 46.491 29.4082 46.491 31.4038C46.491 33.3993 44.9072 35.0993 42.5632 35.0993H39.6595ZM42.5843 29.0703H41.1589V33.7372H42.5843C43.9569 33.7372 44.9494 32.713 44.9494 31.4038C44.9494 30.0839 43.9569 29.0703 42.5843 29.0703Z" fill="#161616"/>
<path d="M52.454 32.3329V27.7082H53.9534V32.2062C53.9534 34.149 52.813 35.3105 50.9547 35.3105C49.1069 35.3105 47.9666 34.149 47.9666 32.2062V27.7082H49.4659V32.3329C49.4659 33.3254 50.0255 33.9062 50.9653 33.9062C51.8839 33.9062 52.454 33.3254 52.454 32.3329Z" fill="#161616"/>
<path d="M58.1127 29.0703V27.7082H64.1734V29.0703H61.8927V35.0993H60.3934V29.0703H58.1127Z" fill="#161616"/>
<path d="M65.6486 35.0993V27.7082H67.9082C69.5342 27.7082 70.5373 28.5424 70.5373 29.915C70.5373 30.8125 70.1044 31.4777 69.3441 31.8261L71.6565 35.0993H69.8932L67.9187 32.1112H67.1479V35.0993H65.6486ZM67.9926 28.9542H67.1479V30.8653H67.9926C68.6262 30.8653 68.9957 30.4957 68.9957 29.8939C68.9957 29.3343 68.6262 28.9542 67.9926 28.9542Z" fill="#161616"/>
<path d="M72.155 35.0993L74.9531 27.7082H76.917L79.715 35.0993H78.1207L77.4132 33.1776H74.4568L73.7494 35.0993H72.155ZM74.9214 31.9H76.9487L75.935 29.1231L74.9214 31.9Z" fill="#161616"/>
<path d="M79.436 27.7082H81.0303L83.216 33.4838L85.4016 27.7082H86.9959L84.1979 35.0993H82.234L79.436 27.7082Z" fill="#161616"/>
<path d="M86.7169 35.0993L89.5149 27.7082H91.4788L94.2769 35.0993H92.6825L91.9751 33.1776H89.0187L88.3112 35.0993H86.7169ZM89.4832 31.9H91.5105L90.4969 29.1231L89.4832 31.9Z" fill="#161616"/>
<path d="M95.5766 35.0993V27.7082H97.0759V35.0993H95.5766Z" fill="#161616"/>
<path d="M99.3001 35.0993V27.7082H100.799V33.7372H103.608V35.0993H99.3001Z" fill="#161616"/>
<path d="M105.991 36.7887H104.745L105.706 33.6316H107.216L105.991 36.7887Z" fill="#161616"/>
<path d="M111.44 35.0993V27.7082H114.344C116.688 27.7082 118.272 29.4082 118.272 31.4038C118.272 33.3993 116.688 35.0993 114.344 35.0993H111.44ZM114.365 29.0703H112.939V33.7372H114.365C115.737 33.7372 116.73 32.713 116.73 31.4038C116.73 30.0839 115.737 29.0703 114.365 29.0703Z" fill="#161616"/>
<path d="M119.876 35.0993V27.7082H124.184V28.9542H121.375V30.7069H123.761V31.9528H121.375V33.8534H124.184V35.0993H119.876Z" fill="#161616"/>
<path d="M128.983 35.0993V27.7082H130.482V33.7372H133.291V35.0993H128.983Z" fill="#161616"/>
<path d="M134.159 35.0993L136.957 27.7082H138.921L141.719 35.0993H140.125L139.418 33.1776H136.461L135.754 35.0993H134.159ZM136.926 31.9H138.953L137.939 29.1231L136.926 31.9Z" fill="#161616"/>
<path d="M145.253 34.0751L146.34 33.072C146.784 33.6422 147.375 33.9801 147.977 33.9801C148.568 33.9801 148.927 33.6633 148.927 33.1354C148.927 31.7733 145.569 32.1429 145.569 29.6405C145.569 28.4685 146.541 27.4971 147.956 27.4971C149.064 27.4971 149.909 27.9933 150.542 28.743L149.444 29.7355C149.011 29.1759 148.526 28.8063 147.966 28.8063C147.438 28.8063 147.09 29.1442 147.09 29.5877C147.09 30.9286 150.447 30.5485 150.447 33.0826C150.426 34.4763 149.349 35.3105 147.987 35.3105C146.741 35.3105 145.907 34.8564 145.253 34.0751Z" fill="#161616"/>
<path d="M151.207 35.0993L154.005 27.7082H155.969L158.767 35.0993H157.173L156.466 33.1776H153.509L152.802 35.0993H151.207ZM153.974 31.9H156.001L154.987 29.1231L153.974 31.9Z" fill="#161616"/>
<path d="M160.067 35.0993V27.7082H161.989L165.294 33.0509V27.7082H166.793V35.0993H164.871L161.566 29.7566V35.0993H160.067Z" fill="#161616"/>
<path d="M168.258 29.0703V27.7082H174.319V29.0703H172.038V35.0993H170.539V29.0703H168.258Z" fill="#161616"/>
<path d="M178.613 27.0747H177.251L178.444 25.6493H179.986L178.613 27.0747ZM175.794 35.0993V27.7082H180.102V28.9542H177.293V30.7069H179.68V31.9528H177.293V33.8534H180.102V35.0993H175.794Z" fill="#161616"/>
<path d="M182.506 36.7887H181.26L182.221 33.6316H183.731L182.506 36.7887Z" fill="#161616"/>
<path d="M39.6595 45.9954V38.6043H42.5632C44.9072 38.6043 46.491 40.3043 46.491 42.2998C46.491 44.2954 44.9072 45.9954 42.5632 45.9954H39.6595ZM42.5843 39.9664H41.1589V44.6333H42.5843C43.9569 44.6333 44.9494 43.6091 44.9494 42.2998C44.9494 40.98 43.9569 39.9664 42.5843 39.9664Z" fill="#161616"/>
<path d="M48.0953 45.9954V38.6043H52.4032V39.8502H49.5946V41.603H51.9809V42.8489H49.5946V44.7494H52.4032V45.9954H48.0953Z" fill="#161616"/>
<path d="M53.6387 44.9712L54.7262 43.9681C55.1697 44.5383 55.761 44.8761 56.3628 44.8761C56.9541 44.8761 57.3131 44.5594 57.3131 44.0315C57.3131 42.6694 53.9554 43.0389 53.9554 40.5365C53.9554 39.3645 54.9268 38.3931 56.3417 38.3931C57.4503 38.3931 58.295 38.8894 58.9285 39.6391L57.8304 40.6316C57.3975 40.072 56.9118 39.7024 56.3522 39.7024C55.8243 39.7024 55.4759 40.0403 55.4759 40.4838C55.4759 41.8247 58.8335 41.4446 58.8335 43.9787C58.8124 45.3724 57.7354 46.2065 56.3734 46.2065C55.1274 46.2065 54.2933 45.7525 53.6387 44.9712Z" fill="#161616"/>
<path d="M62.7975 44.9712L63.885 43.9681C64.3285 44.5383 64.9197 44.8761 65.5216 44.8761C66.1129 44.8761 66.4719 44.5594 66.4719 44.0315C66.4719 42.6694 63.1142 43.0389 63.1142 40.5365C63.1142 39.3645 64.0856 38.3931 65.5005 38.3931C66.6091 38.3931 67.4538 38.8894 68.0873 39.6391L66.9892 40.6316C66.5563 40.072 66.0706 39.7024 65.511 39.7024C64.9831 39.7024 64.6347 40.0403 64.6347 40.4838C64.6347 41.8247 67.9923 41.4446 67.9923 43.9787C67.9712 45.3724 66.8942 46.2065 65.5321 46.2065C64.2862 46.2065 63.4521 45.7525 62.7975 44.9712Z" fill="#161616"/>
<path d="M72.9243 38.3931C75.2472 38.3931 76.8415 40.1881 76.8415 42.2998C76.8415 44.4116 75.2472 46.2065 72.9243 46.2065C70.5908 46.2065 68.9964 44.4116 68.9964 42.2998C68.9964 40.1881 70.5908 38.3931 72.9243 38.3931ZM72.9243 44.8022C74.3074 44.8022 75.2999 43.7147 75.2999 42.2998C75.2999 40.885 74.3074 39.7974 72.9243 39.7974C71.5305 39.7974 70.538 40.885 70.538 42.2998C70.538 43.7147 71.5305 44.8022 72.9243 44.8022Z" fill="#161616"/>
<path d="M78.4369 45.9954V38.6043H79.9363V44.6333H82.7449V45.9954H78.4369Z" fill="#161616"/>
<path d="M84.2227 45.9954V38.6043H85.7221V45.9954H84.2227Z" fill="#161616"/>
<path d="M87.9463 45.9954V38.6043H90.8499C93.1939 38.6043 94.7777 40.3043 94.7777 42.2998C94.7777 44.2954 93.1939 45.9954 90.8499 45.9954H87.9463ZM90.871 39.9664H89.4456V44.6333H90.871C92.2437 44.6333 93.2362 43.6091 93.2362 42.2998C93.2362 40.98 92.2437 39.9664 90.871 39.9664Z" fill="#161616"/>
<path d="M95.2879 45.9954L98.086 38.6043H100.05L102.848 45.9954H101.254L100.546 44.0737H97.5897L96.8823 45.9954H95.2879ZM98.0543 42.7961H100.082L99.0679 40.0192L98.0543 42.7961Z" fill="#161616"/>
<path d="M104.148 45.9954V38.6043H106.407C108.033 38.6043 109.036 39.4384 109.036 40.8111C109.036 41.7086 108.603 42.3738 107.843 42.7222L110.155 45.9954H108.392L106.418 43.0073H105.647V45.9954H104.148ZM106.492 39.8502H105.647V41.7613H106.492C107.125 41.7613 107.495 41.3918 107.495 40.79C107.495 40.2304 107.125 39.8502 106.492 39.8502Z" fill="#161616"/>
<path d="M111.264 45.9954V38.6043H112.763V45.9954H111.264Z" fill="#161616"/>
<path d="M114.227 39.9664V38.6043H120.288V39.9664H118.007V45.9954H116.508V39.9664H114.227Z" fill="#161616"/>
<path d="M124.582 37.9708H123.22L124.413 36.5454H125.955L124.582 37.9708ZM121.763 45.9954V38.6043H126.071V39.8502H123.262V41.603H125.648V42.8489H123.262V44.7494H126.071V45.9954H121.763Z" fill="#161616"/>
<path d="M127.306 44.9712L128.394 43.9681C128.837 44.5383 129.428 44.8761 130.03 44.8761C130.622 44.8761 130.981 44.5594 130.981 44.0315C130.981 42.6694 127.623 43.0389 127.623 40.5365C127.623 39.3645 128.594 38.3931 130.009 38.3931C131.118 38.3931 131.963 38.8894 132.596 39.6391L131.498 40.6316C131.065 40.072 130.579 39.7024 130.02 39.7024C129.492 39.7024 129.143 40.0403 129.143 40.4838C129.143 41.8247 132.501 41.4446 132.501 43.9787C132.48 45.3724 131.403 46.2065 130.041 46.2065C128.795 46.2065 127.961 45.7525 127.306 44.9712Z" fill="#161616"/>
<path d="M39.6595 57.3105V49.9195H43.9675V51.1654H41.1589V52.9181H43.5451V54.164H41.1589V56.0646H43.9675V57.3105H39.6595Z" fill="#161616"/>
<path d="M45.2625 51.2815V49.9195H51.3232V51.2815H49.0425V57.3105H47.5432V51.2815H45.2625Z" fill="#161616"/>
<path d="M55.6971 57.3105V49.9195H58.6007C60.9447 49.9195 62.5285 51.6194 62.5285 53.615C62.5285 55.6106 60.9447 57.3105 58.6007 57.3105H55.6971ZM58.6218 51.2815H57.1964V55.9485H58.6218C59.9945 55.9485 60.987 54.9243 60.987 53.615C60.987 52.2952 59.9945 51.2815 58.6218 51.2815Z" fill="#161616"/>
<path d="M64.1329 57.3105V49.9195H68.4408V51.1654H65.6322V52.9181H68.0185V54.164H65.6322V56.0646H68.4408V57.3105H64.1329Z" fill="#161616"/>
<path d="M69.6762 56.2863L70.7638 55.2833C71.2072 55.8534 71.7985 56.1913 72.4004 56.1913C72.9916 56.1913 73.3506 55.8745 73.3506 55.3466C73.3506 53.9845 69.993 54.3541 69.993 51.8517C69.993 50.6797 70.9644 49.7083 72.3792 49.7083C73.4879 49.7083 74.3326 50.2046 74.9661 50.9542L73.868 51.9467C73.4351 51.3871 72.9494 51.0176 72.3898 51.0176C71.8619 51.0176 71.5134 51.3554 71.5134 51.7989C71.5134 53.1399 74.8711 52.7597 74.8711 55.2938C74.85 56.6876 73.773 57.5217 72.4109 57.5217C71.165 57.5217 70.3309 57.0677 69.6762 56.2863Z" fill="#161616"/>
<path d="M79.5002 57.3105V49.9195H83.8081V51.1654H80.9995V52.9181H83.3858V54.164H80.9995V57.3105H79.5002Z" fill="#161616"/>
<path d="M83.666 57.3105L86.4641 49.9195H88.428L91.226 57.3105H89.6316L88.9242 55.3888H85.9678L85.2604 57.3105H83.666ZM86.4324 54.1113H88.4596L87.446 51.3343L86.4324 54.1113Z" fill="#161616"/>
<path d="M92.5257 57.3105V49.9195H94.3946L96.2001 53.0237L98.0056 49.9195H99.8745V57.3105H98.3752V52.0101L96.728 54.7764H95.6722L94.025 52.0101V57.3105H92.5257Z" fill="#161616"/>
<path d="M102.096 57.3105V49.9195H103.595V57.3105H102.096Z" fill="#161616"/>
<path d="M105.819 57.3105V49.9195H107.319V55.9485H110.127V57.3105H105.819Z" fill="#161616"/>
<path d="M111.605 57.3105V49.9195H113.104V55.9485H115.913V57.3105H111.605Z" fill="#161616"/>
<path d="M117.391 57.3105V49.9195H121.699V51.1654H118.89V52.9181H121.276V54.164H118.89V56.0646H121.699V57.3105H117.391Z" fill="#161616"/>
<path d="M122.934 56.2863L124.022 55.2833C124.465 55.8534 125.057 56.1913 125.658 56.1913C126.25 56.1913 126.609 55.8745 126.609 55.3466C126.609 53.9845 123.251 54.3541 123.251 51.8517C123.251 50.6797 124.222 49.7083 125.637 49.7083C126.746 49.7083 127.591 50.2046 128.224 50.9542L127.126 51.9467C126.693 51.3871 126.207 51.0176 125.648 51.0176C125.12 51.0176 124.771 51.3554 124.771 51.7989C124.771 53.1399 128.129 52.7597 128.129 55.2938C128.108 56.6876 127.031 57.5217 125.669 57.5217C124.423 57.5217 123.589 57.0677 122.934 56.2863Z" fill="#161616"/>
<path fill-rule="evenodd" clip-rule="evenodd" d="M66.0031 75.94L65.0211 76.8374H64.7677L65.3485 75.8133H66.0031V75.94ZM65.2957 79.4132H65.0845C64.8205 79.73 64.5249 79.9834 64.2398 79.9834C63.9442 79.9834 63.7963 79.8039 63.7963 79.4132C63.7963 79.2549 63.8175 79.0859 63.8491 78.9381L65.5702 78.368C65.9081 77.5656 65.5069 77.2172 65.0317 77.2172C64.2187 77.2172 63.2895 78.6425 63.2895 79.7828C63.2895 80.3212 63.5429 80.6168 63.9442 80.6168C64.4087 80.6063 64.8945 80.1523 65.2957 79.4132ZM64.705 77.682C64.9373 77.682 65.138 77.8615 65.0324 78.2732L63.9659 78.5583C64.1349 78.0515 64.4516 77.682 64.705 77.682ZM61.3478 77.7028H61.918L61.01 80.1945C60.9255 80.4057 61.0416 80.6169 61.2634 80.6169C61.9075 80.6169 62.6782 80.0678 62.9739 79.2866H62.8155C62.5832 79.6138 62.0764 79.9728 61.6963 80.0362L62.5304 77.7028H63.3857L63.4913 77.3439H62.6571L62.9739 76.4464H62.6466L62.0553 77.3439L61.3478 77.4389V77.7028ZM60.5553 77.2283C60.6715 77.2283 60.8299 77.355 60.756 77.5873L59.7318 80.0684C59.9957 80.0262 60.2703 79.7728 60.4286 79.5405H60.5976C60.3547 80.1635 59.8057 80.6175 59.3305 80.6175C59.2144 80.6175 59.0454 80.4908 59.1299 80.2585L60.0802 77.7773C59.8162 77.8196 59.5417 78.073 59.3833 78.3052H59.2249C59.4678 77.6718 60.0591 77.2283 60.5553 77.2283ZM60.8517 76.5946C61.0629 76.5946 61.2424 76.4256 61.2424 76.2039C61.2424 75.9928 61.0629 75.8133 60.8517 75.8133C60.63 75.8133 60.461 75.9928 60.461 76.2039C60.461 76.4151 60.6405 76.5946 60.8517 76.5946ZM56.2374 78.6537C56.4696 78.1469 56.3852 77.9146 56.2374 77.9146C56.1106 77.9146 55.9628 78.0518 55.815 78.3052H55.6566C55.8995 77.7668 56.2162 77.2283 56.5647 77.2283C56.8603 77.2283 56.9659 77.5239 56.9659 77.8512V78.3158C57.0134 78.2605 57.0597 78.2062 57.1049 78.1532L57.1057 78.1522L57.1064 78.1514C57.5525 77.628 57.893 77.2283 58.2858 77.2283C58.592 77.2283 58.7503 77.4184 58.7503 77.7034C58.7503 77.8724 58.6976 78.0835 58.5814 78.3052L57.705 80.0684C57.969 80.0262 58.2435 79.7728 58.4019 79.5405H58.5603C58.3174 80.174 57.7261 80.6175 57.2299 80.6175C57.0081 80.6175 56.8814 80.3852 56.9765 80.1951L57.9901 78.2419C58.1063 78.0202 58.1274 77.8724 57.9479 77.8724C57.705 77.8724 57.1348 78.2736 56.8286 78.6431L56.1634 80.3957C56.0895 80.5752 56.0156 80.6175 55.8467 80.6175C55.5721 80.6175 55.4349 80.438 55.5616 80.1529L56.2374 78.6537ZM55.5502 77.9773C55.6664 77.5761 55.603 77.2172 55.2968 77.2172C54.915 77.2172 54.7954 77.4693 54.4253 78.2498L54.3993 78.3046V77.8401C54.3993 77.5128 54.2937 77.2172 53.9981 77.2172C53.6497 77.2172 53.3329 77.7556 53.09 78.2941H53.2484C53.4174 78.0512 53.5757 77.9034 53.7025 77.9034C53.8503 77.9034 53.9347 78.1357 53.7025 78.6425L53.0267 80.1417C52.9 80.4268 53.0373 80.6063 53.3118 80.6063C53.4807 80.6063 53.5546 80.564 53.6285 80.3846L54.2937 78.6319C54.4838 78.3997 54.6527 78.1991 54.8639 77.9773H55.5502ZM52.2139 78.2732C52.3195 77.8615 52.1189 77.682 51.8866 77.682C51.6332 77.682 51.3164 78.0515 51.1475 78.5583L52.2139 78.2732ZM52.4772 79.4132H52.266C52.0021 79.73 51.7064 79.9834 51.4213 79.9834C51.1257 79.9834 50.9779 79.8039 50.9779 79.4132C50.9779 79.2549 50.999 79.0859 51.0307 78.9381L52.7517 78.368C53.0896 77.5656 52.6884 77.2172 52.2133 77.2172C51.4002 77.2172 50.471 78.6425 50.471 79.7828C50.471 80.3212 50.7245 80.6168 51.1257 80.6168C51.5903 80.6063 52.076 80.1523 52.4772 79.4132ZM49.0996 77.7028H48.5294V77.4389L49.2368 77.3439L49.8281 76.4464H50.1554L49.8387 77.3439H50.6728L50.5672 77.7028H49.712L48.8778 80.0362C49.2579 79.9728 49.7648 79.6138 49.9971 79.2866H50.1554C49.8598 80.0678 49.089 80.6169 48.4449 80.6169C48.2232 80.6169 48.107 80.4057 48.1915 80.1945L49.0996 77.7028ZM45.5101 79.6352C45.5101 78.8645 46.3654 77.8298 46.8405 77.8298C46.9461 77.8298 47.0517 77.8403 47.1361 77.872L46.6399 79.2023C46.3548 79.5507 45.9113 79.9731 45.7001 79.9731C45.584 79.9731 45.5101 79.8675 45.5101 79.6352ZM47.865 77.0591L48.1289 77.0802L47.2103 79.1918C46.9886 79.6986 47.0836 79.9308 47.2103 79.9308C47.337 79.9308 47.4954 79.783 47.6643 79.5402H47.8227C47.5799 80.0787 47.2631 80.6171 46.9147 80.6171C46.619 80.6171 46.4395 80.3004 46.4923 79.7302L46.5134 79.5296L46.4559 79.61C46.0777 80.1387 45.7355 80.6171 45.3836 80.6171C45.0774 80.6171 44.9191 80.4271 44.9191 80.142C44.9191 78.9173 46.26 77.3547 47.5165 77.3547H47.5693L47.865 77.0591ZM45.4463 77.9773C45.5625 77.5761 45.4991 77.2172 45.1929 77.2172C44.8111 77.2172 44.6915 77.4694 44.3214 78.2498L44.2954 78.3046V77.8401C44.2954 77.5128 44.1898 77.2172 43.8942 77.2172C43.5458 77.2172 43.229 77.7556 42.9861 78.2941H43.1445C43.3135 78.0512 43.4718 77.9034 43.588 77.9034C43.7358 77.9034 43.8203 78.1357 43.588 78.6425L42.9122 80.1523C42.7855 80.4374 42.9228 80.6168 43.1973 80.6168C43.3663 80.6168 43.4402 80.5746 43.5141 80.3951L44.1793 78.6425C44.3693 78.4102 44.5383 78.2096 44.7495 77.9879H45.4463V77.9773ZM41.0953 80.2995L41.032 80.4895H38.5718L38.6351 80.2889C39.3954 80.1516 39.5221 80.0883 39.8388 79.2331L40.5252 77.396C40.8314 76.5408 40.768 76.4775 40.1028 76.3402L40.1662 76.1502H43.3655L43.1754 77.1743H42.9431C42.9431 76.5619 42.8798 76.4035 42.299 76.4035H42.1512C41.581 76.4035 41.5071 76.488 41.3487 76.9314L40.8947 78.1667H41.5599C42.0034 78.1667 42.1723 77.8922 42.3729 77.5333H42.6052L42.0562 79.0325H41.8239C41.8767 78.5785 41.8767 78.399 41.4649 78.399H40.7997L40.4935 79.2437C40.1625 80.1228 40.2571 80.1407 41.0453 80.29C41.0616 80.2931 41.0783 80.2962 41.0953 80.2995Z" fill="black"/>
<path fill-rule="evenodd" clip-rule="evenodd" d="M43.1857 67.8626L42.2038 68.57V68.5806H41.9504L42.5311 67.7359H43.1857V67.8626ZM50.0498 72.8145L51.623 68.6333L51.5702 68.5699L50.4827 68.6966V68.8233L50.6939 68.9817C50.8741 69.1219 50.8264 69.2527 50.6768 69.6623L50.6516 69.7314L49.4479 72.9412C49.3529 73.1312 49.4796 73.3635 49.7013 73.3635C50.1976 73.3635 50.7255 72.9095 50.9684 72.2866H50.81C50.6411 72.5189 50.3032 72.7722 50.0498 72.8145ZM57.2606 69.5941L58.2425 68.6966V68.5699H57.5879L57.0072 69.5941H57.2606ZM57.3232 72.1598H57.5344C57.1437 72.9095 56.658 73.3635 56.1935 73.3635C55.7922 73.3635 55.5388 73.0679 55.5388 72.5294C55.5388 71.3891 56.468 69.9637 57.281 69.9637C57.7456 69.9637 58.1574 70.3121 57.8195 71.1145L56.0879 71.6847C56.0562 71.8325 56.0351 72.0015 56.0351 72.1598C56.0351 72.5505 56.1829 72.73 56.4785 72.73C56.7636 72.73 57.0593 72.4766 57.3232 72.1598ZM57.2699 71.0196C57.3755 70.6183 57.1749 70.4388 56.9426 70.4388C56.6998 70.4388 56.383 70.8084 56.2035 71.3046L57.2699 71.0196ZM54.1657 70.4597H53.5955V70.1957L54.3029 70.1007L54.8942 69.2032H55.2215L54.9048 70.1007H55.7389L55.6333 70.4597H54.7781L53.9439 72.7931C54.3241 72.7298 54.8309 72.3708 55.0632 72.0435H55.2215C54.9259 72.8248 54.1551 73.3738 53.511 73.3738C53.2893 73.3738 53.1732 73.1627 53.2576 72.9515L54.1657 70.4597ZM53.0042 70.333C53.0675 70.1007 52.9197 69.974 52.793 69.974C52.2967 69.974 51.7055 70.428 51.4626 71.0509H51.621C51.7794 70.8187 52.0539 70.5653 52.3179 70.523L51.3676 73.0043C51.2831 73.2366 51.4521 73.3633 51.5682 73.3633C52.0433 73.3633 52.5924 72.9093 52.8352 72.2863H52.6768C52.5185 72.5186 52.2439 72.772 51.98 72.8142L53.0042 70.333ZM53.4906 68.9606C53.4906 69.1718 53.3111 69.3513 53.1 69.3513C52.8888 69.3513 52.7093 69.1718 52.7093 68.9606C52.7093 68.7494 52.8782 68.5699 53.1 68.5699C53.3111 68.5699 53.4906 68.7494 53.4906 68.9606ZM48.1597 70.5866C47.6845 70.5866 46.8293 71.6214 46.8293 72.3921C46.8293 72.6244 46.9032 72.73 47.0299 72.73C47.2305 72.73 47.674 72.3077 47.959 71.9592L48.4553 70.6289C48.3603 70.5972 48.2652 70.5866 48.1597 70.5866ZM49.4481 69.837L49.1841 69.8159L48.8885 70.1115H48.8357C47.5792 70.1115 46.2383 71.6742 46.2383 72.899C46.2383 73.1841 46.3966 73.3741 46.7028 73.3741C47.0546 73.3741 47.3969 72.8956 47.7751 72.3669L47.8326 72.2866L47.8115 72.4872C47.7587 73.0574 47.9382 73.3741 48.2338 73.3741C48.5823 73.3741 48.899 72.8356 49.1419 72.2971H48.9835C48.8146 72.54 48.6562 72.6878 48.5295 72.6878C48.4028 72.6878 48.3077 72.4555 48.5295 71.9487L49.4481 69.837ZM44.1259 73.2581C43.6719 73.4376 43.3552 73.6487 43.3552 73.976C43.3552 74.2822 43.6402 74.4089 44.2315 74.4089C45.0234 74.4089 45.4563 74.1767 45.4563 73.8705C45.4563 73.7332 45.2768 73.6698 44.8017 73.5115C44.4955 73.4164 44.2738 73.332 44.1259 73.2581ZM44.6532 71.9593C44.442 71.9593 44.3681 71.7798 44.3681 71.5898C44.3681 70.9774 44.6637 70.2171 45.1389 70.2171C45.35 70.2171 45.424 70.3966 45.424 70.5867C45.4134 71.2096 45.1178 71.9593 44.6532 71.9593ZM45.0555 72.9517C45.6362 73.1312 45.9952 73.2685 45.9952 73.6697C45.9952 74.1871 45.0449 74.7995 43.894 74.7889C43.2288 74.7889 42.6587 74.6094 42.6587 74.1765C42.6587 73.7647 43.0388 73.4269 43.9679 73.1523C43.8412 73.0679 43.7884 72.9623 43.7884 72.8145C43.7884 72.5611 44.0207 72.3605 44.422 72.1704C44.0313 72.1176 43.7779 71.822 43.7779 71.3891C43.7779 70.7239 44.3269 69.9637 45.1927 69.9637C45.3722 69.9637 45.5306 70.0059 45.6573 70.0904H46.6076L46.502 70.4494H45.9424C45.9741 70.5444 45.9952 70.65 45.9952 70.7661C45.9952 71.4102 45.4778 72.1493 44.6542 72.1915C44.4431 72.3077 44.3375 72.466 44.3375 72.5927C44.3375 72.7418 44.5102 72.7922 44.8919 72.9037C44.9427 72.9185 44.9972 72.9344 45.0555 72.9517ZM41.7077 71.1463C42.1195 71.1463 42.13 71.3258 42.0667 71.7798H42.299L42.848 70.2805H42.6157C42.4151 70.6395 42.2462 70.914 41.8027 70.914H40.8947L41.3381 69.6787C41.4965 69.2352 41.5704 69.1507 42.1406 69.1507H42.5418C43.1225 69.1507 43.1859 69.3091 43.1859 69.9215H43.4182L43.6082 68.8973H40.1661L40.1028 69.0874C40.768 69.2246 40.8313 69.288 40.5251 70.1432L39.8388 71.991C39.5221 72.8462 39.3953 72.9096 38.6246 73.0468L38.5718 73.2474H42.394L43.0803 72.1599H42.8163C42.3729 72.5928 41.9294 72.994 41.0636 72.994C40.1113 72.994 40.1282 72.9474 40.414 72.1625C40.4324 72.112 40.4519 72.0584 40.4723 72.0015L40.7891 71.1569H41.7077V71.1463Z" fill="black"/>
<path fill-rule="evenodd" clip-rule="evenodd" d="M44.8638 62.0975C45.075 62.0975 45.2544 61.9181 45.2544 61.7069C45.2544 61.4957 45.075 61.3163 44.8638 61.3163C44.6421 61.3163 44.4731 61.4957 44.4731 61.7069C44.4731 61.9286 44.6421 62.0975 44.8638 62.0975ZM47.9902 63.4275C47.9902 62.9208 47.8635 62.7307 47.5045 62.7307C47.0611 62.7307 46.6493 63.2058 46.2375 63.776L47.1244 61.4004L47.0716 61.3265L45.9841 61.4532V61.5799L46.1953 61.7383C46.3791 61.8813 46.3258 62.0243 46.1692 62.4445L46.153 62.4879L45.1922 65.0007C45.1078 65.2118 45.0127 65.4652 45.0127 65.5285C45.0127 65.8242 45.4139 66.1092 45.7835 66.1092C46.6071 66.1198 47.9902 64.5995 47.9902 63.4275ZM57.1444 62.3507L58.1264 61.4532V61.3265H57.4717L56.891 62.3507H57.1444ZM57.208 64.9162H57.4192C57.018 65.6658 56.5323 66.1198 56.0677 66.1092C55.6665 66.1092 55.4131 65.8242 55.4131 65.2857C55.4131 64.1455 56.3422 62.7202 57.1552 62.7202C57.6198 62.7202 58.0316 63.0686 57.6937 63.871L55.9727 64.4411C55.941 64.5889 55.9199 64.7579 55.9199 64.9162C55.9199 65.3069 56.0677 65.4863 56.3633 65.4863C56.6484 65.4863 56.9441 65.2329 57.208 64.9162ZM57.1542 63.776C57.2598 63.3748 57.0592 63.1953 56.8269 63.1953C56.5735 63.1953 56.2567 63.5648 56.0878 64.0611L57.1542 63.776ZM54.0383 63.217H53.4681V62.9531L54.1755 62.8581L54.7668 61.9607H55.0941L54.7774 62.8581H55.6115L55.5059 63.217H54.6507L53.8165 65.5503C54.1966 65.487 54.7035 65.128 54.9357 64.8007H55.0941C54.7985 65.582 54.0277 66.131 53.3836 66.131C53.1619 66.131 53.0458 65.9198 53.1302 65.7087L54.0383 63.217ZM53.1745 63.4915C53.2906 63.0903 53.2273 62.7314 52.9211 62.7314C52.5392 62.7314 52.4196 62.9835 52.0496 63.764L52.0236 63.8188V63.3543C52.0236 63.027 51.918 62.7314 51.6224 62.7314C51.2739 62.7314 50.9572 63.2698 50.7143 63.8083H50.8727C51.0417 63.5654 51.2 63.4176 51.3162 63.4176C51.464 63.4176 51.5485 63.6499 51.3162 64.1567L50.6404 65.6559C50.5137 65.9409 50.651 66.1204 50.9255 66.1204C51.0945 66.1204 51.1684 66.0782 51.2423 65.8987L51.9075 64.1461C52.0975 63.9138 52.2664 63.7132 52.4776 63.4915H53.1745ZM49.8277 63.776C49.9333 63.3748 49.7327 63.1953 49.5004 63.1953C49.247 63.1953 48.9408 63.5648 48.7613 64.0611L49.8277 63.776ZM50.091 64.9162H49.8798C49.6159 65.2329 49.3202 65.4863 49.0351 65.4863C48.7395 65.4863 48.5917 65.3069 48.5917 64.9162C48.5917 64.7579 48.6128 64.5889 48.6445 64.4411L50.3655 63.871C50.7034 63.0686 50.3022 62.7202 49.827 62.7202C49.014 62.7202 48.0849 64.1455 48.0849 65.2857C48.0849 65.8242 48.3383 66.1092 48.7395 66.1092C49.2041 66.1198 49.6898 65.6658 50.091 64.9162ZM45.6572 65.3178C45.6572 65.455 45.9001 65.6134 46.069 65.6134C46.7553 65.6134 47.3994 64.3781 47.3888 63.6919C47.3888 63.4596 47.2727 63.3646 47.1143 63.3646C46.8609 63.3646 46.3963 63.7447 46.1007 64.1036L45.8261 64.8427C45.7311 65.0855 45.6572 65.2756 45.6572 65.3178ZM44.5488 62.7314C44.6755 62.7314 44.8233 62.858 44.7599 63.0903L43.7463 65.5714C44.0103 65.5292 44.2848 65.2758 44.4432 65.0435H44.6016C44.3587 65.6664 43.8097 66.1204 43.3345 66.1204C43.2078 66.1204 43.0389 65.9937 43.1234 65.7615L44.0736 63.2804C43.8097 63.3226 43.5351 63.576 43.3768 63.8083H43.2184C43.4612 63.1853 44.0525 62.7314 44.5488 62.7314ZM40.1661 61.6333H42.4362L42.3728 61.8339C41.6021 61.9711 41.4754 62.0345 41.1586 62.8897L40.4829 64.7479C40.1555 65.6347 40.24 65.7403 40.8207 65.7403C41.5382 65.7403 42.0087 65.2188 42.4195 64.7635C42.45 64.7297 42.4802 64.6963 42.5101 64.6634H42.7741L42.0244 65.9937H38.5718L38.6351 65.8036C39.3953 65.6664 39.522 65.603 39.8388 64.7479L40.5251 62.8791C40.8313 62.0239 40.7679 61.9606 40.1028 61.8233L40.1661 61.6333Z" fill="black"/>
</svg>
