<svg width="384" height="216" viewBox="0 0 384 216" fill="none" xmlns="http://www.w3.org/2000/svg">
  <rect width="384" height="216" fill="#F6F6F6" />
  <path d="M79.6171 63.8129C79.6278 63.8129 79.6384 63.7971 79.6384 63.7971C79.724 63.7339 79.8096 63.655 79.8844 63.5602C79.8737 63.5602 79.863 63.5602 79.8523 63.5444C79.7775 63.6234 79.6919 63.7181 79.6171 63.8129Z" fill="black" />
  <path d="M91.4687 59.8196L91.2815 59.9808C91.3885 59.9539 91.4687 59.9271 91.4687 59.8196Z" fill="black" />
  <path fill-rule="evenodd" clip-rule="evenodd"
    d="M87.637 63.8988C87.9802 63.5535 88.3235 63.1873 88.6668 62.8106H88.6564C89.3013 62.0782 89.9255 61.3771 90.6744 60.7388C90.9033 60.5295 91.1217 60.3517 91.3298 60.2052C91.3603 60.1744 91.3759 60.1286 91.3912 60.0838C91.4072 60.037 91.4228 59.9912 91.4546 59.9645C91.3063 60.0211 91.1882 60.1105 91.0693 60.2006C90.9464 60.2936 90.8227 60.3873 90.664 60.4458C90.6016 60.4458 90.5392 60.383 90.6016 60.3203C90.8201 60.1633 91.0385 59.9959 91.2466 59.8285H91.205C91.1425 59.8285 91.1425 59.7657 91.1425 59.7029C90.3681 59.5799 89.7734 60.1095 89.241 60.5836L89.2077 60.6132C89.1248 60.6549 89.0465 60.6136 88.985 60.5811C88.9539 60.5646 88.927 60.5505 88.906 60.5505C88.435 60.7084 88.0287 60.9996 87.6198 61.2927C87.2431 61.5627 86.8642 61.8343 86.4303 62.0049V61.8793C86.2829 61.9302 86.1373 61.9964 85.9913 62.0628C85.7765 62.1605 85.561 62.2585 85.338 62.3084C84.9309 62.4029 84.5533 62.3907 84.1873 62.3789C84.0671 62.375 83.948 62.3711 83.8297 62.3711C83.1635 62.4372 82.5057 62.5799 81.8488 62.7224L81.6348 62.7688C81.6244 62.774 81.614 62.7766 81.6036 62.7792C81.5932 62.7818 81.5828 62.7845 81.5724 62.7897C81.1771 62.8943 80.813 63.0408 80.449 63.2501L80.4073 63.271C80.393 63.2902 80.3787 63.3072 80.3655 63.323C80.3497 63.3416 80.3354 63.3587 80.3241 63.3756C80.1993 63.5221 80.0849 63.6477 79.908 63.7419C79.6469 63.8732 79.4211 64.0758 79.199 64.2751C79.1028 64.3615 79.0069 64.4476 78.9094 64.5266C78.8886 64.5476 78.847 64.558 78.8158 64.558C78.4934 64.8719 78.1708 65.1859 77.838 65.4893C77.8172 65.5102 77.7236 65.5207 77.6507 65.5102C77.6507 65.5102 77.6611 65.5102 77.6611 65.4998L77.6923 65.437L77.8484 65.1859C77.8796 65.1388 77.9082 65.0917 77.9368 65.0446C77.9654 64.9975 77.994 64.9504 78.0252 64.9033C78.1084 64.7779 78.1917 64.6521 78.2853 64.5371C78.3061 64.5057 78.3061 64.4743 78.2853 64.4534C78.2645 64.4325 78.2333 64.422 78.2021 64.422C78.5037 64.129 78.8574 63.8779 79.2215 63.6582V63.6477C79.1799 63.6582 79.1175 63.6268 79.1487 63.5849C79.1792 63.5465 79.2041 63.5025 79.2275 63.4612L79.2527 63.4175C79.2579 63.407 79.2605 63.3992 79.2631 63.3913C79.2657 63.3835 79.2683 63.3756 79.2735 63.3652C79.2683 63.3547 79.2605 63.3469 79.2527 63.339C79.2449 63.3312 79.2371 63.3233 79.2319 63.3129L79.1688 63.3545C79.0934 63.4038 79.0159 63.4546 78.951 63.5117C78.9051 63.5513 78.8623 63.6055 78.8183 63.6611C78.7229 63.7818 78.6221 63.9093 78.4725 63.9093C78.4621 63.9093 78.4101 63.9093 78.3789 63.8988C78.3477 63.8988 78.3269 63.8884 78.3165 63.8779C78.3165 63.8727 78.3165 63.87 78.3178 63.8687C78.3191 63.8674 78.3217 63.8674 78.3269 63.8674C78.3269 63.8674 78.3373 63.857 78.3373 63.8465C78.3373 63.8465 78.3373 63.836 78.3477 63.836C78.3529 63.8256 78.3581 63.8177 78.3633 63.8099C78.3685 63.802 78.3737 63.7942 78.3789 63.7837C78.3841 63.7733 78.3893 63.7654 78.3945 63.7576C78.3997 63.7497 78.4049 63.7419 78.4101 63.7314C78.4153 63.7262 78.4179 63.7183 78.4205 63.7105C78.4231 63.7026 78.4257 63.6948 78.4309 63.6896L78.4426 63.668C78.453 63.6496 78.4653 63.6277 78.4725 63.6058C78.4777 63.5954 78.4829 63.5875 78.4881 63.5797C78.4933 63.5718 78.4985 63.564 78.5037 63.5535C78.5193 63.5326 78.5323 63.5091 78.5453 63.4855C78.5583 63.462 78.5713 63.4384 78.5869 63.4175C78.5973 63.3966 78.6077 63.3756 78.6286 63.3547C78.639 63.3338 78.6494 63.3155 78.6598 63.2972C78.6702 63.2789 78.6806 63.2605 78.691 63.2396C78.7222 63.1873 78.691 63.1454 78.6494 63.135C78.7638 62.9885 78.899 62.8629 79.0655 62.7688H79.0446C79.1883 62.6965 79.336 62.6119 79.4826 62.5279C79.5692 62.4783 79.6568 62.4281 79.7416 62.3816C79.7728 62.3502 79.804 62.3188 79.8456 62.2979C79.5023 62.413 79.1903 62.5699 78.8886 62.7792C78.8886 62.7792 78.8054 62.8106 78.7846 62.8315C78.7846 62.8315 78.7222 62.8525 78.639 62.7792C78.6286 62.7688 78.6286 62.7583 78.6286 62.7374C78.6647 62.6646 78.7393 62.6165 78.8199 62.5644C78.8784 62.5266 78.9401 62.4867 78.9926 62.4339C79.055 62.4339 79.1071 62.4339 79.1071 62.4967C80.3051 61.5572 81.7823 61.3399 83.2646 61.1218C84.1762 60.9877 85.0897 60.8533 85.9414 60.5505C86.0298 60.4877 86.1208 60.4275 86.2118 60.3674C86.3029 60.3072 86.3939 60.247 86.4823 60.1842C86.634 60.1211 86.77 60.0129 86.9139 59.8984C87.0562 59.7852 87.2063 59.6658 87.3873 59.5773C87.8658 59.2111 88.2299 58.7926 88.4171 58.1752C88.4171 58.1124 88.3547 58.0497 88.3547 58.0497C87.5641 58.8972 86.6591 59.5669 85.6917 60.0587C84.7693 60.5454 83.7808 60.6176 82.8024 60.689C82.4347 60.7158 82.0685 60.7425 81.7076 60.7911C81.77 60.6656 81.8949 60.6656 82.0093 60.6656C82.0093 60.517 82.0805 60.4531 82.1719 60.371C82.1963 60.3491 82.2222 60.3258 82.2486 60.2993H82.4254C82.4566 60.2993 82.4722 60.2679 82.4878 60.2366C82.5034 60.2052 82.519 60.1738 82.5502 60.1738C82.6751 60.1738 82.8519 60.111 82.7895 60.111C82.6941 59.9883 82.5554 60.0369 82.4024 60.0905C82.2553 60.142 82.0948 60.1982 81.9469 60.111C82.0019 60.0506 82.0184 59.9782 82.0335 59.9123C82.0498 59.841 82.0643 59.7774 82.1237 59.7448H82.363C82.363 59.6192 82.4878 59.5041 82.4878 59.5041C83.0303 59.1779 83.5542 58.8931 84.0683 58.6136C84.4116 58.4269 84.751 58.2424 85.0884 58.0497C85.0201 58.0497 84.9596 58.0777 84.9009 58.105C84.8074 58.1483 84.7185 58.1895 84.6099 58.1124C84.6723 58.1124 84.6723 58.068 84.6723 58.0235C84.6723 57.979 84.6723 57.9346 84.7347 57.9346C85.125 57.8303 85.4723 57.6613 85.8271 57.4887C86.0775 57.3669 86.3316 57.2432 86.6071 57.1393C86.5254 57.1393 86.4497 57.1613 86.3759 57.1828C86.2338 57.2241 86.0989 57.2633 85.9414 57.1393C85.9827 57.1185 86.0161 57.092 86.049 57.0658C86.1155 57.0129 86.1802 56.9614 86.3055 56.9614V56.7836C86.3055 56.7208 86.3679 56.7208 86.4303 56.7208C86.3679 56.7208 86.3055 56.658 86.3055 56.658C86.3385 56.5915 86.4036 56.5778 86.4761 56.5626C86.5405 56.5491 86.6108 56.5343 86.6695 56.4801C86.6071 56.4801 86.4927 56.4801 86.4927 56.4173C86.6695 56.1767 86.9712 56.1139 87.2729 56.0511C87.2417 55.9883 87.1819 55.9883 87.1298 55.9883C87.0778 55.9883 87.0336 55.9883 87.0336 55.9255C87.0336 55.8628 87.096 55.8628 87.1585 55.8628H87.0336C86.9357 55.8135 86.953 55.7256 86.965 55.6647C86.9683 55.648 86.9712 55.6334 86.9712 55.6221C87.2156 55.3341 87.2959 54.9943 87.3758 54.6565C87.415 54.491 87.454 54.3259 87.5121 54.1677C87.4497 54.1677 87.3873 54.1677 87.3873 54.1049C86.8024 54.7541 85.8753 55.0001 84.9947 55.2338L84.9116 55.2559H84.6099C84.3082 55.3814 83.8817 55.3814 83.5801 55.1931C83.4366 55.1178 83.3343 55.0237 83.2238 54.9221C83.15 54.8542 83.0725 54.783 82.9767 54.7118C82.4878 54.4083 82.0093 54.1677 81.4684 53.9793C79.96 53.498 78.3893 53.2469 76.8185 53.3096C77.2572 53.0683 77.7229 52.9724 78.1949 52.8752C78.4393 52.8248 78.6854 52.7741 78.9302 52.7027C79.0847 52.6572 79.2377 52.6103 79.39 52.5636C80.2527 52.2991 81.0898 52.0425 82.0093 52.0959C81.8889 52.0531 81.7348 52.0686 81.5929 52.0828C81.5263 52.0895 81.4624 52.0959 81.406 52.0959C80.7106 52.044 80.0082 52.1989 79.2754 52.3604C79.1202 52.3946 78.9636 52.4292 78.8054 52.4621C78.5184 52.5218 78.2454 52.6076 77.9721 52.6935C77.6709 52.7882 77.3692 52.8831 77.0474 52.9434C76.9078 52.9915 76.7958 53.0735 76.6867 53.1533C76.5111 53.2818 76.343 53.4047 76.08 53.3724V53.1841C76.6833 52.4516 77.4115 51.7296 78.3789 51.6668C79.314 51.5146 80.1958 51.623 81.1156 51.7362C81.2701 51.7552 81.4257 51.7743 81.5828 51.7924C82.3369 51.8531 83.0423 52.0213 83.8025 52.2025L83.8817 52.2214C84.0482 52.2214 84.1418 52.3679 84.2324 52.5098C84.3061 52.6251 84.3778 52.7374 84.4851 52.7655C84.6332 52.8166 84.7813 52.8261 84.9294 52.8356C85.1453 52.8495 85.3613 52.8634 85.5773 53.0062C85.5773 52.9639 85.5702 52.9229 85.5632 52.8822C85.5494 52.802 85.5359 52.7233 85.5773 52.64C85.7115 52.505 85.8654 52.5412 86.0168 52.5768C86.1354 52.6047 86.2524 52.6323 86.3575 52.5772C86.6873 52.3724 86.3779 52.0582 86.0682 51.7436C85.9189 51.5919 85.7696 51.4402 85.6917 51.3006C85.6917 51.2378 85.7541 51.1751 85.7541 51.1751C85.8907 51.2975 86.018 51.4243 86.1442 51.5499C86.46 51.8644 86.769 52.172 87.2001 52.3888C87.5017 52.5144 88.2299 52.6923 88.1051 52.3261C87.8914 51.8517 87.5264 51.4404 87.1579 51.0252C87.0061 50.8541 86.8538 50.6824 86.7112 50.5054V50.2647C86.6163 50.2647 86.5935 50.2285 86.5653 50.1836C86.5563 50.1693 86.5468 50.1543 86.5343 50.1392V49.8985C86.3818 49.8185 86.3476 49.6917 86.3133 49.5642C86.2937 49.4916 86.2741 49.4189 86.2326 49.3544C86.1284 49.1854 86.1209 48.9775 86.1132 48.7631C86.107 48.5926 86.1007 48.418 86.0454 48.2557C85.9206 47.8895 85.8686 47.586 85.8061 47.2198C85.7384 46.8451 85.6639 46.4869 85.5909 46.1362C85.4622 45.5172 85.3383 44.9216 85.2652 44.3005C85.1689 43.4127 85.6173 42.6618 86.0756 41.8943C86.2115 41.6667 86.3482 41.4377 86.4719 41.2032C86.8984 40.4708 87.3769 39.7488 88.1675 39.257C88.34 38.5426 88.8093 37.9477 89.2763 37.3557L89.3117 37.3107C89.7726 36.7363 90.5424 36.3851 91.1097 36.1262L91.1737 36.097C92.0163 35.7203 92.7757 35.4796 92.7861 35.4796H51V67.6971H80.6466C81.4395 67.1223 82.2275 66.7596 83.1655 66.3279C83.5935 66.131 84.0527 65.9196 84.5579 65.6672C84.6649 65.6134 84.792 65.5508 84.9331 65.4814C85.7798 65.0648 87.1287 64.4011 87.637 63.8988ZM78.2298 59.5522C78.1122 59.564 77.9874 59.5765 78.0345 59.482C78.0782 59.2703 78.295 59.2068 78.5068 59.1448C78.5975 59.1182 78.6872 59.0919 78.762 59.0544L78.7962 59.0367L78.8212 59.0235C78.9385 58.9612 79.0821 58.8849 79.1881 58.9292C79.2596 59.0309 79.3481 59.0571 79.4342 59.0826C79.4983 59.1016 79.561 59.1202 79.6142 59.1691C79.3894 59.3948 79.127 59.417 78.8609 59.4396C78.6843 59.4546 78.5059 59.4697 78.3359 59.5446C78.3054 59.5446 78.2679 59.5484 78.2298 59.5522ZM69.0267 58.0808C69.0267 58.1435 69.0891 58.2063 69.0891 58.2063C70.5454 56.5635 71.8665 55.1614 73.7389 53.9999C73.789 53.9789 73.7704 54.0052 73.7456 54.04C73.7087 54.092 73.6581 54.1631 73.8013 54.1255C74.4212 53.9842 74.6996 53.4531 74.9705 52.9364C75.0405 52.8028 75.11 52.6702 75.1848 52.5455C75.4689 52.0835 75.8724 51.7874 76.2789 51.4891C76.5721 51.274 76.8669 51.0577 77.1197 50.7771C77.1197 50.8399 77.1197 50.9027 77.0572 50.9655C77.1197 51.0283 77.1821 51.0283 77.2445 51.0283C77.3542 50.9455 77.474 50.9112 77.5888 50.8784C77.7352 50.8365 77.8735 50.7969 77.9726 50.662C77.4941 50.4737 76.8804 50.4109 76.4019 50.5993C75.1328 51.2062 74.051 52.1793 73.0211 53.278C72.397 53.9372 71.7521 54.5545 70.9615 54.9835C70.4206 56.0717 69.8172 57.0449 69.0267 58.0808ZM74.1051 54.1892C74.0725 54.2546 74.0399 54.2887 74.0088 54.3212C73.9804 54.3509 73.9532 54.3793 73.9284 54.4291C73.866 54.5542 73.8037 54.6064 73.6894 54.669C73.627 54.669 73.5647 54.669 73.5647 54.6064C73.627 54.3665 73.8037 54.1266 74.0427 54.064C74.1051 54.0745 74.1051 54.137 74.1051 54.1892ZM76.7651 63.4816C76.8171 63.4292 76.8794 63.3665 76.9106 63.3037C76.9626 63.1781 76.6404 63.2095 76.5884 63.2409C76.5413 63.2789 76.5112 63.3169 76.475 63.3627L76.4637 63.3769C76.4204 63.4268 76.3696 63.473 76.3181 63.5199C76.2832 63.5517 76.2479 63.5838 76.2143 63.6176C76.0688 63.7641 75.9233 63.9106 75.7674 64.0466C75.6635 64.1408 75.9961 64.1826 76.0688 64.1199C76.152 64.0571 76.2247 63.9838 76.2974 63.9106C76.3252 63.9106 76.3529 63.9059 76.3713 63.9028L76.3841 63.9008L76.391 63.9001C76.5633 63.8423 76.6915 63.7224 76.8162 63.6057L76.8483 63.5757C76.8898 63.5339 76.8379 63.492 76.7651 63.4816ZM75.8246 62.8011C75.8234 62.8013 75.8226 62.8016 75.822 62.8022C75.8207 62.8035 75.8207 62.8061 75.8207 62.8114C75.7569 62.8551 75.6939 62.8997 75.6311 62.9442C75.4685 63.0592 75.3067 63.1737 75.1342 63.2718C74.9692 63.3647 74.8 63.445 74.6293 63.5261C74.5309 63.5727 74.4321 63.6197 74.3332 63.6694C74.3332 63.6694 74.3332 63.6589 74.3228 63.6589C74.302 63.6275 74.2604 63.6171 74.2188 63.638C73.9899 63.7636 73.7923 63.931 73.6154 64.1089C73.5842 64.1298 73.553 64.1612 73.5322 64.1926L73.4386 64.2867V64.2972C73.397 64.3391 73.3554 64.3809 73.3034 64.4437C73.2926 64.4546 73.2842 64.4655 73.2763 64.4759C73.2612 64.4956 73.2473 64.5137 73.2202 64.5274C73.1785 64.5483 73.0745 64.5483 73.0849 64.4856V64.4751C73.0537 64.496 73.0121 64.5169 72.9809 64.5274C72.9653 64.5379 72.9497 64.5457 72.9341 64.5536C72.9185 64.5614 72.9029 64.5693 72.8873 64.5797C72.8769 64.5693 72.8561 64.5693 72.8457 64.5693C72.8353 64.5693 72.8145 64.5693 72.8041 64.5797C72.7798 64.6007 72.7555 64.6204 72.7312 64.6402C72.6827 64.6797 72.6342 64.7192 72.5856 64.7681C72.4608 64.8832 72.3464 65.0087 72.2319 65.1448C72.2319 65.1448 72.2319 65.1552 72.2215 65.1552C72.2215 65.1605 72.2189 65.1631 72.2163 65.1657C72.2137 65.1683 72.2111 65.1709 72.2111 65.1762L72.1903 65.1971C72.1863 65.2011 72.1839 65.2051 72.1818 65.2085C72.1784 65.214 72.1759 65.218 72.1695 65.218L72.1591 65.2285C72.1487 65.2494 72.1383 65.2703 72.1175 65.2912C72.1071 65.3017 72.0863 65.3122 72.0655 65.3122C72.0551 65.3017 72.0447 65.2912 72.0447 65.2808C72.0395 65.2756 72.0369 65.2703 72.0343 65.2651C72.0317 65.2599 72.0291 65.2546 72.0239 65.2494C72.0135 65.2337 72.0057 65.218 71.9979 65.2023C71.9901 65.1866 71.9823 65.1709 71.9719 65.1552V65.1448C71.9719 65.1395 71.9693 65.1343 71.9667 65.1291C71.9641 65.1238 71.9615 65.1186 71.9615 65.1134L72.1487 64.8936L72.1591 64.8832C72.1695 64.8727 72.1799 64.8596 72.1903 64.8466C72.2007 64.8335 72.2111 64.8204 72.2215 64.8099C72.2371 64.789 72.2553 64.7681 72.2735 64.7471C72.2917 64.7262 72.31 64.7053 72.3256 64.6844C72.3308 64.6739 72.336 64.666 72.3412 64.6582C72.3464 64.6504 72.3516 64.6425 72.3568 64.632C72.4192 64.5483 72.4816 64.4646 72.544 64.3705V64.36C72.5544 64.3495 72.5648 64.3391 72.5648 64.3181C72.596 64.2763 72.6272 64.2344 72.648 64.1926L72.7104 64.067V64.0565L72.7208 64.0461C72.7208 64.0408 72.7234 64.0382 72.726 64.0356C72.7286 64.033 72.7312 64.0304 72.7312 64.0252C72.7416 63.999 72.752 63.9755 72.7624 63.952C72.7728 63.9284 72.7833 63.9048 72.7937 63.8787V63.8682L72.8041 63.8263C72.8093 63.8159 72.8119 63.8054 72.8145 63.7949C72.8171 63.7845 72.8197 63.774 72.8249 63.7636V63.7531C72.8301 63.7374 72.8327 63.7217 72.8353 63.706C72.8379 63.6903 72.8405 63.6746 72.8457 63.6589C72.8457 63.6485 72.8457 63.6275 72.8353 63.6171C72.8977 63.502 72.9809 63.3973 73.0745 63.2927C73.0693 63.2927 73.0641 63.2953 73.0589 63.2979C73.0559 63.2994 73.0529 63.3009 73.05 63.3019C73.0477 63.3027 73.0455 63.3032 73.0433 63.3032C72.997 63.3323 72.9572 63.3711 72.9166 63.4106C72.8842 63.4421 72.8514 63.4741 72.8145 63.502C72.752 63.5543 72.6272 63.4706 72.7104 63.4078C72.7624 63.366 72.804 63.3241 72.8456 63.2823C72.8456 63.2823 72.8457 63.2718 72.8561 63.2718C72.8975 63.2342 72.9373 63.1917 72.9775 63.1488C73.038 63.0842 73.0994 63.0186 73.1681 62.9683C73.241 62.916 73.293 62.8742 73.3554 62.8218C73.3658 62.8114 73.3762 62.8009 73.3866 62.8009C73.4282 62.7486 73.4698 62.6963 73.5218 62.644C73.5218 62.644 73.5322 62.644 73.5322 62.6335C73.8894 62.287 74.3914 62.1648 74.9038 62.04C75.2269 61.9614 75.5542 61.8817 75.8519 61.7441C76.0201 61.6741 76.2076 61.7016 76.393 61.7289C76.5401 61.7505 76.6858 61.7719 76.8194 61.7441C76.9962 61.7441 77.1834 61.7441 77.3603 61.8696C76.949 62.0887 76.5564 62.3392 76.1681 62.587C76.0556 62.6587 75.9432 62.7304 75.8311 62.8009C75.8282 62.8009 75.8261 62.8009 75.8246 62.8011ZM77.1245 58.5364C77.0758 58.542 77.0443 58.5457 77.0713 58.5729C77.2482 58.7507 77.6122 58.688 77.8619 58.5519C78.0387 58.4264 78.226 58.4264 78.4652 58.4264C78.5276 58.4264 78.5276 58.3113 78.5276 58.2485C78.7045 58.3113 78.8293 58.3113 79.0061 58.3113C80.4521 58.0078 81.846 57.7044 83.1775 57.0347C81.8302 55.9936 80.1692 55.5299 78.5424 55.0757C78.2725 55.0003 78.0035 54.9252 77.7371 54.8478C77.7956 54.8478 77.8542 54.8673 77.9131 54.887C78.0322 54.9266 78.1527 54.9668 78.278 54.8478C78.1129 54.7161 77.9292 54.691 77.7472 54.666C77.5966 54.6454 77.4472 54.6249 77.3106 54.5444C77.3248 54.5444 77.3418 54.5476 77.3602 54.5512C77.4225 54.5632 77.5017 54.5785 77.5498 54.4816C77.2338 54.3227 76.9179 54.2687 76.5989 54.2142C76.4348 54.1862 76.27 54.158 76.1039 54.1154C76.4056 54.0526 76.5928 53.8119 76.5928 53.5085C76.5928 53.4457 76.468 53.4457 76.4056 53.4457C75.6878 53.8119 75.1989 54.4816 74.8972 55.2664C75.1692 55.4265 75.4623 55.4079 75.7496 55.3897C75.9128 55.3794 76.0742 55.3692 76.2287 55.3919C76.0923 55.5215 75.8952 55.5567 75.7057 55.5905C75.6351 55.6031 75.5655 55.6155 75.5006 55.6326C75.3133 55.6744 75.1365 55.8105 75.1989 55.936C75.2405 55.9883 75.2821 56.0093 75.3341 56.0197C75.1989 56.0616 75.0741 56.1244 74.9596 56.2395C75.1309 56.3743 75.3075 56.3483 75.4818 56.3226C75.551 56.3124 75.6198 56.3023 75.6878 56.3023C75.6878 56.3783 75.7377 56.4041 75.7895 56.4309C75.8162 56.4447 75.8434 56.4588 75.8646 56.4801C75.563 56.5952 75.3237 56.8464 75.2613 57.0242C75.1867 57.2055 75.0491 57.3233 74.9126 57.4401C74.8206 57.5188 74.7292 57.597 74.658 57.6939V57.8823C74.457 58.0604 74.2505 58.2195 74.0468 58.3764C73.6283 58.6987 73.2218 59.0119 72.9 59.4623C72.9624 59.4623 72.9624 59.5251 72.9624 59.5878C72.9048 59.6747 72.823 59.7348 72.7453 59.7919C72.6545 59.8585 72.5695 59.921 72.5359 60.0168C72.5359 60.0796 72.5359 60.1424 72.5983 60.1424C72.98 60.0162 73.3103 59.8038 73.6341 59.5956C73.9279 59.4066 74.2164 59.221 74.5331 59.1065C74.792 59.0442 75.0174 58.9269 75.2373 58.8123C75.4238 58.7152 75.6065 58.62 75.8022 58.5624C75.9531 58.531 76.1195 58.4865 76.2859 58.4421C76.4524 58.3976 76.6188 58.3531 76.7696 58.3217C76.7696 58.3845 76.7696 58.4473 76.8321 58.4473H77.3106C77.2811 58.5184 77.1882 58.5291 77.1245 58.5364Z"
    fill="#000091" />
  <path
    d="M139.6 35.4796H104.947C104.947 35.4796 105.01 35.4901 105.272 35.6262C105.555 35.7729 105.921 35.9719 106.141 36.0871C106.592 36.3175 107.021 36.6108 107.304 37.0612C107.43 37.2392 107.608 37.6058 107.493 37.8467C107.367 38.1504 107.304 38.6427 107 38.7579C106.634 38.9465 106.152 38.9465 105.722 38.8836C105.481 38.8836 105.241 38.8208 104.989 38.7579C105.9 39.1245 106.759 39.5539 107.367 40.4023C107.43 40.528 107.671 40.5804 107.912 40.5804C107.975 40.5804 107.975 40.7061 107.975 40.7584C107.849 40.8841 107.734 40.947 107.797 41.125H107.975C108.278 40.9993 108.216 40.3918 108.645 40.5804C108.949 40.7584 109.075 41.1879 108.886 41.4916C108.645 41.7325 108.404 41.921 108.153 42.0991C108.09 42.2248 108.09 42.4028 108.153 42.5285C108.331 42.7694 108.394 43.0103 108.456 43.2617C108.645 43.6911 108.697 44.1729 108.886 44.6023C109.127 45.5135 109.368 46.4248 109.315 47.3465C109.315 47.8283 109.075 48.2577 109.253 48.75C109.378 49.2318 109.682 49.5983 109.923 50.0278C110.164 50.3943 110.405 50.6352 110.593 51.0018C110.96 51.6093 111.63 52.2168 111.327 52.95C111.149 53.3794 110.478 53.3166 110.049 53.5574C109.682 53.8612 109.986 54.3535 110.174 54.6572C110.478 55.2018 109.808 55.5684 109.378 55.757C109.504 55.9455 109.745 55.8826 109.808 55.9978C109.871 56.3016 110.174 56.4796 109.986 56.7939C109.745 57.1604 109.012 57.3385 109.378 57.8936C109.619 58.323 109.462 58.7944 109.315 59.2343C109.137 59.7789 108.645 60.0198 108.216 60.1455C107.849 60.2712 107.419 60.2712 107.063 60.2083C106.938 60.1455 106.822 60.0826 106.697 60.0826C105.66 59.957 104.622 59.6637 103.596 59.6637C103.292 59.7265 102.988 59.7789 102.747 59.9046C102.475 60.1036 102.224 60.3235 102.014 60.554C102.014 60.554 102.014 60.554 102.004 60.5644C101.962 60.6168 101.909 60.6587 101.867 60.7111C101.847 60.7425 101.815 60.7739 101.794 60.8053C101.773 60.8263 101.763 60.8472 101.742 60.8682C101.564 61.0881 101.407 61.329 101.26 61.5699C101.249 61.5909 101.239 61.6014 101.228 61.6118C101.218 61.6432 101.197 61.6642 101.176 61.6956C100.977 62.0622 100.83 62.4393 100.715 62.8163C100.296 64.2093 100.485 65.4034 100.778 65.6966C100.862 65.7804 102.789 66.3774 104.13 66.9744C104.759 67.2572 105.199 67.4667 105.565 67.6971H139.589V35.4796H139.6Z"
    fill="#E1000F" />
  <path
    d="M107.003 47.2304C107.244 47.2931 107.611 47.2931 107.611 47.4186C107.485 47.8998 106.762 48.0253 106.395 48.517H106.207C106.029 48.6425 106.081 48.9458 105.903 48.9458C105.725 48.8831 105.536 48.9458 105.358 49.0086C105.599 49.2492 105.903 49.4375 106.269 49.3747C106.332 49.3747 106.448 49.5002 106.448 49.6153C106.448 49.6153 106.51 49.6153 106.573 49.5525C106.636 49.5525 106.699 49.5525 106.699 49.6153V49.8559C106.521 50.0964 106.207 49.9814 105.966 50.0337C106.458 50.1592 106.94 50.1592 107.37 50.0337C107.736 49.9082 107.37 49.3015 107.611 48.9981C107.485 48.9981 107.611 48.8098 107.485 48.8098C107.611 48.6843 107.726 48.5065 107.852 48.4437C107.977 48.4437 108.155 48.381 108.218 48.2555C108.218 48.1299 107.977 48.0776 108.03 47.9521C108.396 47.7115 108.7 47.3454 108.575 46.9793C108.512 46.791 108.03 46.791 107.726 46.676C107.422 46.5609 107.055 46.676 106.689 46.7387C106.385 46.7387 106.081 46.927 105.777 46.9793C105.347 47.1048 104.981 47.3454 104.625 47.586C105.054 47.4082 105.473 47.3454 105.966 47.2199C106.332 47.2304 106.636 47.1467 107.003 47.2304Z"
    fill="#808080" />
  <path
    d="M64.6931 104.411C66.8194 104.411 68.6558 103.67 69.9445 102.446V98.5156H64.2098V94.6173H74.5194V104.089C72.4253 106.892 68.9136 108.696 64.6931 108.696C57.3797 108.696 52.386 103.219 52.386 96.7759C52.386 90.3324 57.2508 84.8554 64.3709 84.8554C68.4625 84.8554 71.8132 86.6918 73.8751 89.4303L70.2667 92.2332C68.978 90.3968 66.9483 89.1404 64.3709 89.1404C60.1182 89.1404 57.0898 92.4588 57.0898 96.7759C57.0898 101.093 60.2793 104.411 64.6931 104.411Z"
    fill="#161616" />
  <path
    d="M90.3941 84.8554C97.482 84.8554 102.347 90.3324 102.347 96.7759C102.347 103.219 97.482 108.696 90.3941 108.696C83.274 108.696 78.4092 103.219 78.4092 96.7759C78.4092 90.3324 83.274 84.8554 90.3941 84.8554ZM90.3941 104.411C94.6146 104.411 97.643 101.093 97.643 96.7759C97.643 92.4588 94.6146 89.1404 90.3941 89.1404C86.1414 89.1404 83.1129 92.4588 83.1129 96.7759C83.1129 101.093 86.1414 104.411 90.3941 104.411Z"
    fill="#161616" />
  <path d="M120.515 99.611V85.4998H125.09V99.2244C125.09 105.152 121.61 108.696 115.94 108.696C110.302 108.696 106.822 105.152 106.822 99.2244V85.4998H111.397V99.611C111.397 102.639 113.105 104.411 115.972 104.411C118.775 104.411 120.515 102.639 120.515 99.611Z" fill="#161616" />
  <path d="M128.421 85.4998H133.286L139.955 103.123L146.624 85.4998H151.489L142.951 108.052H136.958L128.421 85.4998Z" fill="#161616" />
  <path d="M155.454 108.052V85.4998H168.599V89.3014H160.029V94.6495H167.31V98.4512H160.029V104.25H168.599V108.052H155.454Z" fill="#161616" />
  <path d="M174.398 108.052V85.4998H181.293C186.255 85.4998 189.315 88.045 189.315 92.2332C189.315 94.9717 187.994 97.0014 185.675 98.0646L192.73 108.052H187.35L181.325 98.9345H178.973V108.052H174.398ZM181.551 89.3014H178.973V95.1328H181.551C183.484 95.1328 184.611 94.0052 184.611 92.1688C184.611 90.4613 183.484 89.3014 181.551 89.3014Z" fill="#161616" />
  <path d="M196.111 108.052V85.4998H201.975L212.059 101.802V85.4998H216.634V108.052H210.77L200.686 91.75V108.052H196.111Z" fill="#161616" />
  <path d="M223.424 108.052V85.4998H236.569V89.3014H227.999V94.6495H235.281V98.4512H227.999V104.25H236.569V108.052H223.424Z" fill="#161616" />
  <path d="M242.369 108.052V85.4998H248.071L253.58 94.9717L259.09 85.4998H264.792V108.052H260.217V91.8788L255.191 100.32H251.969L246.944 91.8788V108.052H242.369Z" fill="#161616" />
  <path d="M271.569 108.052V85.4998H284.714V89.3014H276.144V94.6495H283.426V98.4512H276.144V104.25H284.714V108.052H271.569Z" fill="#161616" />
  <path d="M290.514 108.052V85.4998H296.377L306.461 101.802V85.4998H311.036V108.052H305.173L295.089 91.75V108.052H290.514Z" fill="#161616" />
  <path d="M315.507 89.6558V85.4998H334V89.6558H327.041V108.052H322.466V89.6558H315.507Z" fill="#161616" />
  <path fill-rule="evenodd" clip-rule="evenodd"
    d="M134.701 166.175L131.705 168.913H130.932L132.704 165.788H134.701V166.175ZM132.543 176.773H131.898C131.093 177.739 130.191 178.512 129.321 178.512C128.419 178.512 127.968 177.965 127.968 176.773C127.968 176.289 128.032 175.774 128.129 175.323L133.38 173.583C134.411 171.135 133.187 170.072 131.737 170.072C129.256 170.072 126.421 174.421 126.421 177.9C126.421 179.543 127.194 180.445 128.419 180.445C129.836 180.413 131.318 179.028 132.543 176.773ZM130.74 171.49C131.449 171.49 132.061 172.038 131.739 173.294L128.485 174.164C129.001 172.618 129.967 171.49 130.74 171.49ZM120.496 171.554H122.236L119.466 179.157C119.208 179.801 119.562 180.445 120.239 180.445C122.204 180.445 124.556 178.77 125.458 176.386H124.975C124.266 177.385 122.72 178.48 121.56 178.673L124.105 171.554H126.715L127.037 170.458H124.492L125.458 167.72H124.459L122.655 170.458L120.496 170.748V171.554ZM118.078 170.106C118.433 170.106 118.916 170.492 118.691 171.201L115.565 178.772C116.371 178.643 117.208 177.87 117.692 177.161H118.207C117.466 179.062 115.791 180.447 114.341 180.447C113.987 180.447 113.471 180.06 113.729 179.352L116.629 171.781C115.823 171.91 114.985 172.683 114.502 173.392H114.019C114.76 171.459 116.564 170.106 118.078 170.106ZM118.983 168.172C119.627 168.172 120.175 167.657 120.175 166.98C120.175 166.336 119.627 165.788 118.983 165.788C118.306 165.788 117.791 166.336 117.791 166.98C117.791 167.624 118.338 168.172 118.983 168.172ZM104.903 174.455C105.612 172.909 105.354 172.2 104.903 172.2C104.516 172.2 104.065 172.619 103.614 173.392H103.131C103.872 171.749 104.838 170.106 105.902 170.106C106.804 170.106 107.126 171.008 107.126 172.007V173.424C107.271 173.255 107.412 173.09 107.55 172.928L107.553 172.925L107.555 172.923C108.916 171.325 109.955 170.106 111.153 170.106C112.088 170.106 112.571 170.686 112.571 171.556C112.571 172.071 112.41 172.715 112.055 173.392L109.381 178.772C110.187 178.643 111.024 177.87 111.508 177.161H111.991C111.25 179.094 109.446 180.447 107.931 180.447C107.255 180.447 106.868 179.738 107.158 179.158L110.251 173.199C110.605 172.522 110.67 172.071 110.122 172.071C109.381 172.071 107.641 173.295 106.707 174.423L104.677 179.771C104.452 180.318 104.226 180.447 103.711 180.447C102.873 180.447 102.454 179.899 102.841 179.03L104.903 174.455ZM102.806 172.391C103.161 171.167 102.967 170.072 102.033 170.072C100.868 170.072 100.503 170.841 99.3739 173.223L99.2946 173.39V171.972C99.2946 170.974 98.9724 170.072 98.0703 170.072C97.0071 170.072 96.0405 171.715 95.2995 173.358H95.7828C96.2983 172.617 96.7815 172.166 97.1682 172.166C97.6192 172.166 97.877 172.875 97.1682 174.421L95.1062 178.996C94.7196 179.865 95.1384 180.413 95.9761 180.413C96.4916 180.413 96.7171 180.284 96.9426 179.736L98.9724 174.389C99.5523 173.68 100.068 173.068 100.712 172.391H102.806ZM92.6262 173.294C92.9483 172.038 92.3362 171.49 91.6274 171.49C90.8542 171.49 89.8876 172.618 89.3721 174.164L92.6262 173.294ZM93.4296 176.773H92.7853C91.9798 177.739 91.0777 178.512 90.2078 178.512C89.3057 178.512 88.8547 177.965 88.8547 176.773C88.8547 176.289 88.9191 175.774 89.0157 175.323L94.2673 173.583C95.2983 171.135 94.074 170.072 92.6242 170.072C90.1434 170.072 87.3082 174.421 87.3082 177.9C87.3082 179.543 88.0814 180.445 89.3057 180.445C90.7233 180.413 92.2053 179.028 93.4296 176.773ZM83.1233 171.554H81.3836V170.748L83.5422 170.458L85.3464 167.72H86.3452L85.3786 170.458H87.9238L87.6017 171.554H84.992L82.4468 178.673C83.6066 178.48 85.1531 177.385 85.8619 176.386H86.3452C85.443 178.77 83.0911 180.445 81.1258 180.445C80.4493 180.445 80.0949 179.801 80.3526 179.157L83.1233 171.554ZM72.1708 177.45C72.1708 175.098 74.7805 171.941 76.2303 171.941C76.5525 171.941 76.8747 171.973 77.1324 172.07L75.6182 176.129C74.7483 177.192 73.3951 178.481 72.7508 178.481C72.3964 178.481 72.1708 178.159 72.1708 177.45ZM79.3563 169.589L80.1617 169.654L77.3587 176.097C76.6822 177.643 76.9721 178.352 77.3587 178.352C77.7454 178.352 78.2286 177.901 78.7441 177.16H79.2274C78.4864 178.803 77.5198 180.446 76.4566 180.446C75.5545 180.446 75.0068 179.48 75.1679 177.74L75.2324 177.128L75.0569 177.373C73.9028 178.986 72.8585 180.446 71.785 180.446C70.8507 180.446 70.3674 179.866 70.3674 178.996C70.3674 175.259 74.4591 170.491 78.2931 170.491H78.4542L79.3563 169.589ZM71.9763 172.391C72.3307 171.167 72.1374 170.072 71.2031 170.072C70.0379 170.072 69.673 170.841 68.5439 173.223L68.4646 173.39V171.972C68.4646 170.974 68.1424 170.072 67.2403 170.072C66.1771 170.072 65.2105 171.715 64.4695 173.358H64.9528C65.4683 172.617 65.9516 172.166 66.3059 172.166C66.757 172.166 67.0147 172.875 66.3059 174.421L64.244 179.028C63.8574 179.898 64.2762 180.445 65.1139 180.445C65.6294 180.445 65.8549 180.316 66.0804 179.769L68.1102 174.421C68.6901 173.712 69.2056 173.1 69.8499 172.424H71.9763V172.391ZM58.7001 179.477L58.5068 180.057H51L51.1933 179.445C53.513 179.026 53.8996 178.832 54.8662 176.223L56.9603 170.617C57.8947 168.008 57.7014 167.815 55.6716 167.396L55.8649 166.816H65.627L65.0471 169.941H64.3383C64.3383 168.072 64.145 167.589 62.373 167.589H61.9219C60.1821 167.589 59.9566 167.847 59.4733 169.2L58.088 172.969H60.1177C61.4709 172.969 61.9864 172.132 62.5985 171.036H63.3073L61.632 175.611H60.9232C61.0842 174.226 61.0842 173.678 59.8277 173.678H57.798L56.8637 176.255C55.8537 178.938 56.1423 178.992 58.5473 179.448C58.5973 179.457 58.6483 179.467 58.7001 179.477Z"
    fill="black" />
  <path fill-rule="evenodd" clip-rule="evenodd"
    d="M65.0786 141.528L62.0824 143.687V143.719H61.3091L63.0811 141.142H65.0786V141.528ZM86.0228 156.638L90.8232 143.88L90.6621 143.687L87.3437 144.073V144.46L87.988 144.943C88.5381 145.371 88.3925 145.77 87.9361 147.02L87.8592 147.231L84.1864 157.025C83.8964 157.605 84.283 158.313 84.9596 158.313C86.4738 158.313 88.0847 156.928 88.8257 155.027H88.3424C87.827 155.736 86.796 156.509 86.0228 156.638ZM108.025 146.812L111.021 144.073V143.687H109.024L107.252 146.812H108.025ZM108.216 154.641H108.861C107.669 156.928 106.187 158.313 104.769 158.313C103.545 158.313 102.771 157.411 102.771 155.768C102.771 152.289 105.607 147.939 108.087 147.939C109.505 147.939 110.761 149.002 109.73 151.451L104.447 153.191C104.35 153.642 104.286 154.157 104.286 154.641C104.286 155.833 104.737 156.38 105.639 156.38C106.509 156.38 107.411 155.607 108.216 154.641ZM108.054 151.161C108.376 149.937 107.764 149.389 107.055 149.389C106.314 149.389 105.347 150.517 104.8 152.031L108.054 151.161ZM98.5816 149.453H96.8419V148.647L99.0004 148.357L100.805 145.619H101.803L100.837 148.357H103.382L103.06 149.453H100.45L97.905 156.573C99.0649 156.38 100.611 155.284 101.32 154.285H101.803C100.901 156.67 98.5494 158.345 96.5841 158.345C95.9075 158.345 95.5532 157.7 95.8109 157.056L98.5816 149.453ZM95.0375 149.066C95.2308 148.357 94.7797 147.971 94.3931 147.971C92.8789 147.971 91.0747 149.356 90.3337 151.257H90.817C91.3003 150.548 92.1379 149.775 92.9433 149.646L90.0438 157.217C89.786 157.926 90.3015 158.313 90.6559 158.313C92.1057 158.313 93.781 156.927 94.522 155.026H94.0387C93.5555 155.735 92.7178 156.508 91.9124 156.637L95.0375 149.066ZM96.5219 144.879C96.5219 145.523 95.9742 146.071 95.3298 146.071C94.6855 146.071 94.1378 145.523 94.1378 144.879C94.1378 144.234 94.6533 143.687 95.3298 143.687C95.9742 143.687 96.5219 144.234 96.5219 144.879ZM80.2554 149.84C78.8057 149.84 76.1961 152.997 76.1961 155.349C76.1961 156.058 76.4216 156.38 76.8082 156.38C77.4203 156.38 78.7734 155.092 79.6433 154.028L81.1575 149.969C80.8676 149.872 80.5776 149.84 80.2554 149.84ZM84.1868 147.553L83.3813 147.488L82.4793 148.39H82.3182C78.4843 148.39 74.3927 153.159 74.3927 156.896C74.3927 157.766 74.8759 158.346 75.8103 158.346C76.8837 158.346 77.928 156.886 79.0821 155.272L79.2575 155.027L79.1931 155.639C79.032 157.379 79.5797 158.346 80.4818 158.346C81.5449 158.346 82.5115 156.703 83.2525 155.059H82.7692C82.2537 155.8 81.7705 156.251 81.3839 156.251C80.9973 156.251 80.7073 155.543 81.3839 153.996L84.1868 147.553ZM67.9474 157.991C66.562 158.539 65.5955 159.184 65.5955 160.182C65.5955 161.117 66.4654 161.503 68.2696 161.503C70.6859 161.503 72.0068 160.794 72.0068 159.86C72.0068 159.441 71.4591 159.248 70.0093 158.765C69.075 158.475 68.3984 158.217 67.9474 157.991ZM69.5562 154.029C68.9118 154.029 68.6863 153.481 68.6863 152.901C68.6863 151.032 69.5884 148.713 71.0382 148.713C71.6825 148.713 71.908 149.26 71.908 149.84C71.8758 151.741 70.9737 154.029 69.5562 154.029ZM70.7837 157.057C72.5556 157.605 73.651 158.023 73.651 159.248C73.651 160.826 70.7514 162.695 67.2397 162.663C65.2101 162.663 63.4703 162.115 63.4703 160.794C63.4703 159.538 64.6301 158.507 67.4653 157.669C67.0787 157.411 66.9176 157.089 66.9176 156.638C66.9176 155.865 67.6264 155.253 68.8506 154.673C67.6586 154.512 66.8854 153.61 66.8854 152.289C66.8854 150.259 68.5607 147.939 71.2025 147.939C71.7502 147.939 72.2334 148.068 72.62 148.326H75.5196L75.1974 149.421H73.4899C73.5866 149.711 73.651 150.033 73.651 150.388C73.651 152.353 72.0724 154.608 69.5594 154.737C68.915 155.092 68.5929 155.575 68.5929 155.961C68.5929 156.416 69.1199 156.57 70.2846 156.91C70.4396 156.955 70.6059 157.004 70.7837 157.057ZM60.5686 151.548C61.825 151.548 61.8573 152.096 61.664 153.481H62.3727L64.048 148.906H63.3393C62.7271 150.001 62.2116 150.839 60.8585 150.839H58.0878L59.441 147.07C59.9242 145.717 60.1497 145.459 61.8895 145.459H63.1137C64.8857 145.459 65.079 145.942 65.079 147.811H65.7878L66.3677 144.686H55.8648L55.6715 145.266C57.7012 145.684 57.8945 145.878 56.9602 148.487L54.8661 154.125C53.8996 156.735 53.513 156.928 51.1611 157.347L51 157.959H62.6627L64.7568 154.641H63.9514C62.5983 155.962 61.2451 157.186 58.6033 157.186C55.6975 157.186 55.7493 157.044 56.6211 154.649C56.6772 154.494 56.7368 154.331 56.7991 154.157L57.7657 151.58H60.5686V151.548Z"
    fill="black" />
  <path fill-rule="evenodd" clip-rule="evenodd"
    d="M70.1988 123.937C70.8431 123.937 71.3908 123.39 71.3908 122.745C71.3908 122.101 70.8431 121.553 70.1988 121.553C69.5222 121.553 69.0067 122.101 69.0067 122.745C69.0067 123.422 69.5222 123.937 70.1988 123.937ZM79.7385 127.996C79.7385 126.449 79.3518 125.869 78.2565 125.869C76.9033 125.869 75.6469 127.319 74.3904 129.059L77.0967 121.81L76.9356 121.585L73.6172 121.971V122.358L74.2615 122.841C74.8226 123.278 74.6599 123.714 74.182 124.996L74.1327 125.129L71.2009 132.796C70.9432 133.44 70.6532 134.213 70.6532 134.406C70.6532 135.308 71.8775 136.178 73.0051 136.178C75.518 136.21 79.7385 131.572 79.7385 127.996ZM107.671 124.71L110.667 121.971V121.585H108.669L106.897 124.71H107.671ZM107.865 132.538H108.509C107.285 134.825 105.803 136.211 104.385 136.178C103.161 136.178 102.388 135.309 102.388 133.666C102.388 130.186 105.223 125.837 107.704 125.837C109.121 125.837 110.378 126.9 109.347 129.349L104.095 131.088C103.999 131.539 103.934 132.055 103.934 132.538C103.934 133.73 104.385 134.278 105.287 134.278C106.157 134.278 107.059 133.504 107.865 132.538ZM107.7 129.059C108.023 127.835 107.411 127.287 106.702 127.287C105.929 127.287 104.962 128.415 104.447 129.929L107.7 129.059ZM98.1928 127.353H96.4531V126.548L98.6117 126.258L100.416 123.52H101.415L100.448 126.258H102.993L102.671 127.353H100.061L97.5163 134.473C98.6761 134.28 100.223 133.184 100.931 132.186H101.415C100.512 134.569 98.1606 136.245 96.1954 136.245C95.5188 136.245 95.1644 135.6 95.4222 134.956L98.1928 127.353ZM95.5571 128.191C95.9115 126.967 95.7182 125.871 94.7839 125.871C93.6188 125.871 93.2539 126.641 92.1248 129.022L92.0455 129.19V127.772C92.0455 126.773 91.7233 125.871 90.8212 125.871C89.7581 125.871 88.7916 127.514 88.0506 129.157H88.5338C89.0493 128.416 89.5326 127.965 89.8869 127.965C90.338 127.965 90.5957 128.674 89.8869 130.22L87.8251 134.795C87.4385 135.665 87.8573 136.212 88.6949 136.212C89.2104 136.212 89.4359 136.084 89.6614 135.536L91.6911 130.188C92.271 129.479 92.7865 128.867 93.4308 128.191H95.5571ZM85.3451 129.059C85.6673 127.835 85.0551 127.287 84.3464 127.287C83.5731 127.287 82.6389 128.415 82.0912 129.929L85.3451 129.059ZM86.1485 132.538H85.5042C84.6987 133.504 83.7967 134.278 82.9268 134.278C82.0247 134.278 81.5737 133.73 81.5737 132.538C81.5737 132.055 81.6381 131.539 81.7348 131.088L86.9862 129.349C88.0171 126.9 86.7929 125.837 85.3431 125.837C82.8624 125.837 80.0273 130.186 80.0273 133.666C80.0273 135.309 80.8005 136.178 82.0247 136.178C83.4423 136.211 84.9243 134.825 86.1485 132.538ZM72.6197 133.763C72.6197 134.182 73.3607 134.665 73.8762 134.665C75.9703 134.665 77.9356 130.896 77.9033 128.802C77.9033 128.093 77.549 127.804 77.0657 127.804C76.2925 127.804 74.8749 128.963 73.9729 130.059L73.1352 132.314C72.8453 133.055 72.6197 133.634 72.6197 133.763ZM69.2375 125.871C69.6241 125.871 70.0752 126.258 69.8819 126.967L66.789 134.537C67.5945 134.408 68.4321 133.635 68.9154 132.926H69.3986C68.6576 134.827 66.9823 136.212 65.5326 136.212C65.146 136.212 64.6305 135.826 64.8882 135.117L67.7878 127.547C66.9823 127.675 66.1447 128.449 65.6614 129.157H65.1782C65.9192 127.257 67.7233 125.871 69.2375 125.871ZM55.8648 122.521H62.7914L62.5981 123.133C60.2463 123.552 59.8597 123.745 58.8932 126.354L56.8313 132.024C55.8326 134.73 56.0903 135.053 57.8622 135.053C60.0514 135.053 61.4869 133.461 62.7404 132.072C62.8335 131.969 62.9256 131.867 63.017 131.767H63.8224L61.535 135.826H51L51.1933 135.246C53.5129 134.827 53.8995 134.634 54.866 132.024L56.9602 126.322C57.8944 123.713 57.7011 123.52 55.6715 123.101L55.8648 122.521Z"
    fill="black" />
</svg>