<svg width="225" height="77" viewBox="0 0 225 77" fill="none" xmlns="http://www.w3.org/2000/svg">
<path d="M8.93555 47.9363V24.4619H13.4188V31.955C14.2971 31.138 15.1792 30.5563 16.0651 30.2099C16.9492 29.8636 18.0016 29.6895 19.2205 29.6895C21.0019 29.6895 22.6111 30.0932 24.0501 30.9007C25.464 31.6809 26.6338 32.8381 27.4293 34.2435C28.2425 35.6652 28.6501 37.2553 28.6501 39.0138C28.6501 41.4037 27.9191 43.4875 26.4572 45.267C24.7427 47.3259 22.4351 48.3554 19.5343 48.3554C18.1489 48.3554 16.9626 48.1526 15.9733 47.7507C14.984 47.347 14.0063 46.6581 13.0399 45.6861V47.9363H8.93555ZM18.5125 33.5681C16.9511 33.5681 15.6691 34.0866 14.6626 35.1199C13.658 36.1551 13.1548 37.4735 13.1548 39.077C13.1548 40.6594 13.6714 41.9548 14.7047 42.9632C15.7379 43.9716 17.0621 44.4768 18.677 44.4768C20.2805 44.4768 21.5893 43.9774 22.5997 42.9785C23.6119 41.9816 24.117 40.6805 24.117 39.077C24.117 37.4524 23.5966 36.1283 22.5595 35.1046C21.5205 34.0809 20.1715 33.5681 18.5125 33.5681ZM51.5505 41.0153H37.0617C37.3372 42.0811 37.9361 42.925 38.8584 43.5449C39.7826 44.1649 40.9078 44.4768 42.2376 44.4768C43.1618 44.4768 43.9311 44.3448 44.5453 44.0807C45.1614 43.8166 45.7603 43.3651 46.342 42.7221H51.2386C50.9746 43.52 50.4809 44.3371 49.7538 45.1752C47.8211 47.2953 45.3489 48.3554 42.3371 48.3554C40.9749 48.3626 39.6228 48.1208 38.3475 47.6417C37.1616 47.2056 36.0684 46.55 35.1253 45.7091C34.2245 44.891 33.4988 43.899 32.9917 42.7929C32.4656 41.6689 32.1951 40.4423 32.1996 39.2013C32.1996 37.5041 32.6358 35.9446 33.5103 34.5229C34.3825 33.1029 35.6168 31.9406 37.0866 31.1552C38.6126 30.3303 40.3231 29.9063 42.0578 29.9229C43.8928 29.9229 45.546 30.3286 47.0194 31.1399C48.4624 31.9243 49.6579 33.096 50.4713 34.5229C51.3018 35.9657 51.717 37.5864 51.717 39.3869C51.717 39.9667 51.6615 40.5101 51.5505 41.0153ZM36.9316 37.2917H47.2988C47.0137 36.1647 46.4243 35.3017 45.5345 34.7008C44.6448 34.1019 43.5082 33.8015 42.1228 33.8015C40.7815 33.8015 39.6698 34.0981 38.7857 34.6932C37.8998 35.2883 37.2817 36.1551 36.9316 37.2917ZM56.6844 47.9363V34.1746H54.4915V30.3266H56.6844V24.4619H61.1676V30.3266H63.8714V34.1746H61.1676V47.9363H56.6844ZM86.5422 30.3266V47.9363H82.4378V45.6555C81.5365 46.618 80.6047 47.3068 79.6441 47.7259C78.6816 48.1449 77.5431 48.3554 76.2228 48.3554C74.4223 48.3554 72.8034 47.965 71.3703 47.1843C69.9653 46.432 68.7997 45.3003 68.0064 43.918C67.1989 42.5212 66.7951 40.9483 66.7951 39.2013C66.7951 37.4314 67.2027 35.8413 68.014 34.4291C68.8152 33.03 69.9917 31.8827 71.4104 31.1169C72.8609 30.3209 74.4988 29.9229 76.3223 29.9229C77.6752 29.9229 78.8385 30.143 79.8163 30.5811C80.796 31.0212 81.6686 31.7216 82.4378 32.684V30.3266H86.5422ZM76.7184 33.8015C75.157 33.8015 73.8693 34.3182 72.8532 35.3533C71.8371 36.3866 71.3282 37.7012 71.3282 39.2932C71.3282 40.8354 71.841 42.0849 72.8685 43.0417C73.8961 43.9984 75.2297 44.4768 76.8658 44.4768C78.4922 44.4768 79.8029 43.9908 80.7979 43.0168C81.7929 42.0448 82.2904 40.7723 82.2904 39.2013C82.2904 37.6074 81.77 36.3101 80.731 35.3074C79.6939 34.3028 78.3564 33.8015 76.7184 33.8015ZM94.2803 44.7581C94.0392 44.7545 93.7997 44.7986 93.5757 44.8879C93.3517 44.9771 93.1475 45.1097 92.9748 45.2781C92.8022 45.4465 92.6645 45.6473 92.5697 45.869C92.4749 46.0907 92.4248 46.329 92.4223 46.5701C92.4223 47.4905 93.2661 48.2865 94.2458 48.2865C95.2925 48.2865 96.1708 47.523 96.1708 46.5701C96.1708 45.5847 95.2925 44.7581 94.2803 44.7581ZM116.456 30.3266H120.742V44.6012C120.742 46.3482 120.579 47.7986 120.256 48.9524C119.964 50.0455 119.425 51.057 118.681 51.9087C116.901 53.9466 114.358 54.9645 111.05 54.9645C108.763 54.9645 106.781 54.4728 105.099 53.4912C103.459 52.5547 102.173 51.1042 101.44 49.3638H106.534C107.192 50.0469 107.879 50.5291 108.593 50.8142C109.309 51.0993 110.187 51.2409 111.232 51.2409C112.902 51.2409 114.171 50.7759 115.04 49.8441C115.906 48.9141 116.379 47.502 116.456 45.6096C115.577 46.5816 114.663 47.2819 113.712 47.7105C112.761 48.1411 111.626 48.3554 110.308 48.3554C108.549 48.3554 106.97 47.9574 105.57 47.1595C104.186 46.3824 103.051 45.2285 102.298 43.8319C101.517 42.4102 101.127 40.8048 101.127 39.0138C101.127 36.4077 102.001 34.2416 103.748 32.5137C105.495 30.7859 107.692 29.9229 110.34 29.9229C113.023 29.9229 115.061 30.8012 116.456 32.5597V30.3266ZM110.786 33.8015C109.247 33.8015 108.009 34.2952 107.07 35.2825C106.13 36.2718 105.66 37.5768 105.66 39.2013C105.66 40.8048 106.134 42.0849 107.085 43.0417C108.036 43.9984 109.314 44.4768 110.918 44.4768C112.544 44.4768 113.842 43.9927 114.808 43.0245C115.774 42.0582 116.258 40.7627 116.258 39.1382C116.258 37.5462 115.755 36.2584 114.751 35.2749C113.744 34.2933 112.424 33.8015 110.786 33.8015ZM135.221 29.9229C137 29.9229 138.65 30.3362 140.165 31.1647C141.64 31.9518 142.88 33.1158 143.759 34.5382C144.639 35.9599 145.077 37.5041 145.077 39.1707C145.077 40.824 144.635 42.3586 143.751 43.7707C142.862 45.187 141.613 46.3428 140.133 47.1212C138.604 47.9445 136.892 48.369 135.156 48.3554C133.411 48.3697 131.69 47.9453 130.152 47.1212C128.667 46.3433 127.414 45.1876 126.518 43.7707C125.639 42.3982 125.175 40.8007 125.183 39.1707C125.183 37.9078 125.443 36.7062 125.965 35.5619C126.468 34.4462 127.191 33.4438 128.091 32.6152C129.029 31.7667 130.116 31.1009 131.298 30.6519C132.548 30.1643 133.879 29.917 135.221 29.9229ZM135.039 33.8015C133.589 33.8015 132.339 34.3258 131.291 35.3763C130.24 36.4268 129.716 37.6801 129.716 39.1382C129.716 40.6077 130.242 41.8649 131.298 42.9096C131.793 43.4157 132.386 43.8156 133.041 44.085C133.696 44.3544 134.398 44.4877 135.106 44.4768C136.601 44.4768 137.881 43.9563 138.946 42.9173C140.012 41.8764 140.544 40.6288 140.544 39.1707C140.544 37.6591 140.012 36.3866 138.946 35.3533C137.881 34.3182 136.578 33.8015 135.039 33.8015ZM166.085 30.3266V47.9363H161.931V46.2448C161.074 47.0198 160.247 47.567 159.449 47.8808C158.653 48.1966 157.695 48.3554 156.573 48.3554C155.311 48.3554 154.178 48.1143 153.179 47.634C152.204 47.1737 151.368 46.4641 150.755 45.577C150.27 44.8616 149.924 44.0621 149.733 43.2196C149.536 42.3605 149.436 41.2124 149.436 39.7754V30.3266H153.937V38.9373C153.937 40.1581 154.007 41.111 154.151 41.7998C154.293 42.4868 154.536 43.0283 154.876 43.4205C155.525 44.1247 156.392 44.4768 157.48 44.4768C158.261 44.4768 158.956 44.3294 159.566 44.0348C160.175 43.7382 160.64 43.323 160.959 42.7853C161.2 42.3911 161.367 41.8821 161.46 41.2564C161.554 40.6307 161.6 39.7543 161.6 38.6273V30.3266H166.085ZM177.218 47.9363L169.685 30.3266H174.679L178.997 41.9931L183.251 30.3266H188.327L180.794 47.9363H177.218ZM190.693 44.76C189.74 44.76 188.946 45.5541 188.946 46.5701C188.946 47.4905 189.74 48.2846 190.66 48.2846C191.645 48.2846 192.47 47.523 192.47 46.5701C192.47 45.5847 191.645 44.76 190.693 44.76Z" fill="#373C42"/>
<path d="M196.652 31.6431H200.341L196.612 48.9084C195.64 53.3668 194.302 55.596 192.559 55.596C192.073 55.596 191.748 55.3128 191.748 54.9071C191.748 54.7866 191.79 54.7043 191.91 54.5015C192.046 54.2978 192.117 54.0575 192.113 53.8126C192.112 53.6021 192.068 53.3939 191.986 53.2002C191.903 53.0065 191.783 52.8311 191.633 52.6841C191.482 52.5371 191.303 52.4215 191.108 52.3439C190.912 52.2663 190.703 52.2283 190.492 52.2321C189.641 52.2321 188.992 53.0032 188.992 53.9753C188.992 55.353 190.41 56.4475 192.193 56.4475C195.883 56.4475 198.76 52.3947 200.544 44.8155L203.582 31.6431H208.083L208.326 30.3458H203.908C205.123 23.861 206.703 20.9832 208.975 20.9832C209.541 20.9832 209.866 21.186 209.866 21.5094C209.866 21.5917 209.824 21.7122 209.704 21.915C209.531 22.1644 209.446 22.4637 209.461 22.7665C209.461 23.7386 210.069 24.3872 210.961 24.3872C211.893 24.3872 212.702 23.618 212.702 22.7263C212.702 21.2262 211.204 20.0915 209.177 20.0915C207.191 20.0915 205.569 20.9832 204.07 22.889C202.853 24.5097 202.002 26.3734 200.747 30.3458H196.937L196.652 31.6431ZM210.961 47.9364C213.19 40.8431 213.879 39.1822 215.743 36.0613C217.16 33.7499 218.295 32.4946 218.984 32.4946C219.269 32.4946 219.472 32.6554 219.675 33.061C219.998 33.7499 220.321 33.9527 221.133 33.9527C222.35 33.9527 223.039 33.2237 223.039 31.9263C223.039 30.629 222.267 29.8196 221.133 29.8196C220.201 29.8196 219.066 30.4262 218.012 31.5608C216.309 33.2638 214.608 35.736 213.959 37.3166L213.351 38.8167L215.62 29.9L215.5 29.8196C212.541 30.3458 212.095 30.4262 209.135 30.9141V31.6029C210.027 31.4403 210.19 31.4001 210.515 31.4001C211.407 31.4001 211.933 31.8058 211.933 32.5348C211.933 33.061 211.608 34.7238 211.284 35.9389L207.84 47.9364H210.961Z" fill="#373C42"/>
</svg>
