<svg width="193" height="193" viewBox="0 0 193 193" fill="none" xmlns="http://www.w3.org/2000/svg">
<path d="M165.284 165.064C156.514 158.401 141.513 141.866 161.267 115.909C185.694 83.8097 156.44 70.6406 128.399 72.0151C105.84 73.121 80.4508 44.76 55.1242 49.829C21.5082 56.557 43.3353 85.5054 20.5428 101.102C1.10422 114.402 9.44993 154.93 34.7484 165.064H165.284Z" fill="#DCEDF9"/>
<path d="M181.114 106.2C180.979 101.441 176.545 99.5941 173.586 103.04C171.887 105.017 170.269 107.853 169.966 111.645C169.289 120.131 176.713 117.672 179.487 113.128C180.671 111.19 181.183 108.606 181.114 106.2Z" fill="#DCEDF9"/>
<path d="M99.4144 48.1477C94.7357 47.2622 91.984 51.1991 94.7176 54.8271C96.2855 56.9084 98.7096 59.0958 102.35 60.2021C110.495 62.6783 109.68 54.8996 105.834 51.2184C104.194 49.6477 101.779 48.5951 99.4144 48.1477Z" fill="#DCEDF9"/>
<path d="M22.0843 91.7592C23.9564 87.3808 20.7043 83.8462 16.573 85.7341C14.2029 86.8173 11.5449 88.7137 9.68056 92.0298C5.50867 99.4507 13.28 100.33 17.7036 97.3674C19.5899 96.1036 21.1378 93.9722 22.0843 91.7592Z" fill="#DCEDF9"/>
<path d="M96.6417 171.641C140.932 171.641 176.837 169.277 176.837 166.361C176.837 163.446 140.932 161.082 96.6417 161.082C52.351 161.082 16.4463 163.446 16.4463 166.361C16.4463 169.277 52.351 171.641 96.6417 171.641Z" fill="#DCEDF9"/>
<path d="M174.676 123.05C169.766 127.958 175.243 128.374 171.64 132.081C168.356 135.46 163.511 132.171 163.833 140.423C163.904 142.228 162.59 143.568 160.747 144.254C157.714 145.382 154.748 144.338 152.92 142.264C152.772 142.097 152.63 141.922 152.498 141.74C151.111 139.847 150.605 137.282 151.633 134.74C152.467 132.677 153.943 130.648 156.56 129.84C162.699 127.942 159.291 119.811 164.48 119.454C170.738 119.023 170.962 116.728 175.404 113.634C180.112 110.354 181.331 116.398 174.676 123.05Z" fill="#0077EB"/>
<path d="M172.475 120.368C172.338 120.509 160.953 132.247 152.92 142.264C152.772 142.096 152.63 141.921 152.498 141.739C160.553 131.717 171.867 120.051 172.005 119.909C172.131 119.779 172.339 119.777 172.469 119.903C172.599 120.03 172.602 120.238 172.475 120.368Z" fill="#0059D3"/>
<path d="M175.937 139.435C168.244 143.964 174.927 146.245 169.25 149.699C164.074 152.848 159.101 147.193 156.845 157.569C156.352 159.839 154.285 161.083 151.77 161.344C147.632 161.771 144.275 159.517 142.668 156.346C142.537 156.09 142.417 155.827 142.311 155.558C141.195 152.755 141.391 149.4 143.489 146.566C145.19 144.267 147.682 142.217 151.2 142.053C159.452 141.668 157.829 130.449 164.403 131.676C172.331 133.155 173.35 130.371 179.874 127.949C186.79 125.382 186.362 133.299 175.937 139.435Z" fill="#6B93F6"/>
<path d="M174.06 135.388C173.844 135.52 155.892 146.465 142.667 156.347C142.536 156.091 142.417 155.827 142.311 155.558C155.564 145.677 173.404 134.798 173.621 134.666C173.82 134.545 174.08 134.609 174.201 134.808C174.323 135.007 174.259 135.267 174.06 135.388Z" fill="#0077EB"/>
<path d="M25.9107 66.9768C28.5502 73.3979 23.3361 71.6717 25.2318 76.4805C26.9603 80.8639 32.6989 79.6967 29.2215 87.187C28.4607 88.8256 29.157 90.568 30.5933 91.9109C32.9568 94.1207 36.0969 94.301 38.5827 93.0909C38.7842 92.994 38.9822 92.8863 39.1745 92.7697C41.1836 91.5577 42.6388 89.386 42.6701 86.6439C42.6956 84.4194 42.115 81.9775 40.0121 80.2232C35.0782 76.1065 41.3561 69.9166 36.7052 67.5879C31.0967 64.7789 31.7741 62.5745 28.8683 58.0081C25.788 53.1673 22.3333 58.2745 25.9107 66.9768Z" fill="#0077EB"/>
<path d="M28.9752 65.3504C29.0474 65.5338 35.0297 80.7526 38.582 93.0911C38.7835 92.9942 38.9815 92.8865 39.1737 92.77C35.6033 80.418 29.6589 65.2929 29.5863 65.1092C29.5199 64.9405 29.3288 64.8579 29.1601 64.9243C28.9915 64.9907 28.9085 65.1814 28.9752 65.3504Z" fill="#0059D3"/>
<path d="M18.3941 83.75C23.9606 90.7281 16.903 90.471 20.9722 95.726C24.6813 100.516 31.3463 97.0122 29.7456 107.509C29.3955 109.805 30.8812 111.706 33.137 112.848C36.8492 114.726 40.7902 113.82 43.4239 111.433C43.6377 111.241 43.8435 111.037 44.0388 110.824C46.0834 108.605 47.099 105.401 46.1521 102.005C45.384 99.2498 43.7894 96.4443 40.5629 95.0343C32.9926 91.7259 38.5174 81.8281 31.9388 80.6249C24.0058 79.1732 24.0494 76.2087 18.8206 71.6157C13.2784 66.7463 10.8497 74.293 18.3941 83.75Z" fill="#6B93F6"/>
<path d="M21.5924 80.6401C21.7472 80.8405 34.6029 97.4778 43.4234 111.432C43.6373 111.24 43.843 111.036 44.0383 110.823C35.1904 96.8583 22.4158 80.3232 22.2598 80.1225C22.117 79.938 21.8518 79.9048 21.6673 80.0476C21.4832 80.1904 21.4496 80.456 21.5924 80.6401Z" fill="#0077EB"/>
<path d="M55.9392 77.675C58.1818 76.1395 63.7981 79.9273 66.7348 84.5265L64.1293 77.228C63.1863 76.4101 61.5358 75.2625 58.9558 74.3485C54.9441 72.9264 50.9227 70.6992 53.1696 69.1606C55.2749 67.7189 60.3539 70.9694 63.3979 75.1784L60.052 65.8055C59.4298 65.3269 58.4821 64.7452 57.1284 64.2654C54.6001 63.3691 52.066 61.9656 53.4819 60.996C54.7105 60.1545 57.5465 61.849 59.4827 64.2106L58.3984 61.1727C57.9024 60.2903 57.1972 59.0289 56.0855 57.879C53.5097 55.2141 51.5619 52.216 53.5487 51.7818C55.537 51.3471 58.7909 56.5693 59.3032 61.2874L59.8613 62.8507C59.4282 59.4188 60.6619 55.2639 62.3823 55.1168C64.0919 54.9705 63.0196 57.6617 61.6304 59.9565C60.5727 61.7031 60.2809 63.0892 60.2025 63.8064L62.8382 71.1898C62.1673 65.7534 64.1216 59.1972 66.8441 58.9644C69.5569 58.7325 67.8554 63.0028 65.6509 66.6435C63.985 69.3949 63.5156 71.5836 63.3874 72.7284L66.548 81.5825C65.9875 76.2105 67.9094 69.6902 70.5894 69.669C72.6557 69.6528 72.023 72.5702 69.5549 76.6888C67.8778 79.4877 67.3412 82.0013 67.1698 83.3245L68.6586 87.4949C68.4093 87.6713 68.1499 87.7635 67.892 87.7685L67.2995 86.1091C66.4627 85.2997 64.7199 83.9244 61.7249 82.8629C57.7136 81.4408 53.6927 79.2136 55.9392 77.675Z" fill="#6B93F6"/>
<path d="M36.208 139.531C33.9074 140.978 35.1503 147.637 38.2032 152.16L32.5417 146.868C32.1662 145.678 31.7694 143.707 31.9558 140.976C32.2457 136.73 31.8006 132.154 29.4958 133.604C27.3361 134.963 28.2996 140.915 30.9518 145.382L23.6815 138.586C23.4897 137.824 23.3326 136.724 23.4306 135.291C23.6136 132.615 23.3326 129.731 21.8804 130.645C20.6197 131.438 21.0474 134.714 22.4448 137.429L20.0882 135.227C19.4756 134.421 18.5986 133.272 17.9853 131.795C16.5637 128.372 14.5873 125.393 13.3988 127.043C12.2096 128.695 15.7079 133.757 19.8335 136.102L21.0459 137.235C18.0691 135.474 13.7663 134.954 12.9472 136.474C12.1335 137.985 15.0289 138.071 17.6869 137.708C19.7103 137.432 21.098 137.715 21.787 137.928L27.5145 143.283C22.7925 140.506 15.9997 139.693 14.7039 142.099C13.4127 144.496 18.0073 144.632 22.2243 144.056C25.4115 143.621 27.606 144.061 28.7076 144.398L35.5753 150.818C30.8684 148.168 24.1219 147.34 23.0369 149.79C22.2004 151.68 25.129 152.259 29.8891 151.632C33.1242 151.205 35.6436 151.713 36.9263 152.081L40.1614 155.105C40.4223 154.947 40.6103 154.745 40.7172 154.511L39.4299 153.308C39.02 152.218 38.4506 150.072 38.6672 146.902C38.9578 142.656 38.5128 138.081 36.208 139.531Z" fill="#6B93F6"/>
<path d="M152.311 79.8604H29.5264V164.675H152.311V79.8604Z" fill="#FFAA01"/>
<path d="M152.306 79.8633V85.3005L90.9185 139.711L29.5264 85.3005V79.8633L90.9143 134.46L152.306 79.8633Z" fill="#F88800"/>
<path d="M79.0895 123.753L33.0826 164.675H29.5264V162.513L76.4451 120.782L79.0895 123.753Z" fill="#F88800"/>
<path d="M152.31 162.8V164.675H148.432L102.425 123.753L105.07 120.782L152.31 162.8Z" fill="#F88800"/>
<path d="M29.5225 79.8594L90.9146 134.46L152.307 79.8594H29.5225Z" fill="#FDCC50"/>
<path d="M118.435 72.2212L120.002 75.5736L116.69 75.6249L115.412 72.5744L118.435 72.2212Z" fill="#FCC63A"/>
<path d="M118.959 75.3642C118.959 75.3642 119.639 74.4505 120.18 74.4895C120.72 74.5285 124.888 77.8423 126.315 78.1156C127.743 78.3892 127.611 79.8437 127.013 79.8437C125.293 79.8437 115.796 79.8595 115.796 79.8595C115.796 79.8595 115.509 76.4623 115.873 75.4495C116.236 74.4366 117.843 75.6039 118.959 75.3642Z" fill="#6B93F6"/>
<path d="M121.263 77.6764C121.213 77.6914 121.156 77.6868 121.107 77.6586C121.011 77.6038 120.978 77.4818 121.032 77.3861C121.05 77.3541 121.486 76.5967 122.073 76.301C122.854 75.9066 123.463 76.3481 123.489 76.3671C123.578 76.4327 123.596 76.5581 123.53 76.6469C123.465 76.7357 123.339 76.7542 123.25 76.6882C123.234 76.6762 122.81 76.3786 122.254 76.6585C121.775 76.8993 121.384 77.5779 121.38 77.5845C121.353 77.6304 121.31 77.6621 121.263 77.6764Z" fill="white"/>
<path d="M120.667 77.1133C120.616 77.1284 120.56 77.1238 120.51 77.0956C120.414 77.0408 120.381 76.9188 120.435 76.8227C120.453 76.7906 120.89 76.0333 121.477 75.7376C122.258 75.3432 122.866 75.7843 122.892 75.8036C122.981 75.8693 123 75.9947 122.934 76.0835C122.868 76.1723 122.742 76.1908 122.654 76.1244C122.637 76.1124 122.213 75.8148 121.657 76.0947C121.177 76.3367 120.787 77.0138 120.784 77.0207C120.756 77.067 120.714 77.0991 120.667 77.1133Z" fill="white"/>
<path d="M122.071 78.1334C122.02 78.1484 121.964 78.1438 121.915 78.1156C121.818 78.0608 121.785 77.9388 121.84 77.8427C121.858 77.8107 122.294 77.0533 122.881 76.7573C123.662 76.3624 124.271 76.8044 124.297 76.8233C124.385 76.8889 124.403 77.0143 124.338 77.1031C124.272 77.1915 124.147 77.2104 124.058 77.1444C124.041 77.1325 123.617 76.8349 123.061 77.1147C122.581 77.3567 122.192 78.0338 122.188 78.0407C122.161 78.0874 122.118 78.1191 122.071 78.1334Z" fill="white"/>
<path d="M119.379 73.314L117.911 73.7926L117.096 73.8412L115.694 73.9234C113.841 72.4586 108.845 68.0497 107.871 65.4504C107.871 65.4504 101.442 80.4013 92.5528 80.4013C91.9761 80.4013 93.5 72.9615 94.9491 71.4144C94.9491 71.4144 103.142 56.1447 108.454 57.7655C110.833 58.4912 113.239 61.954 119.379 73.314Z" fill="#2E3052"/>
<path d="M117.911 73.7924L117.095 73.8411C111.643 69.7124 109.117 66.216 107.954 63.9765C107.913 63.8985 107.848 63.8734 107.804 63.8746C107.766 63.8757 107.739 63.8966 107.721 63.941C105.11 70.0872 101.977 73.7758 99.8079 75.7892C97.444 77.9825 95.7151 78.7055 95.6433 78.7359L95.5433 78.4916L95.4434 78.2484C95.4603 78.2411 97.1757 77.52 99.4751 75.3793C101.599 73.403 104.67 69.7784 107.237 63.7341C107.335 63.5013 107.54 63.3573 107.784 63.3477C108.047 63.3373 108.294 63.4886 108.421 63.7329C109.594 65.9918 112.191 69.5603 117.911 73.7924Z" fill="#001030"/>
<path d="M114.224 72.9232C114.457 73.3594 114.858 73.9759 115.241 74.2738C115.241 74.2738 118.381 74.1287 119.908 73.3617L119.223 71.7656C119.223 71.7656 116.723 72.6777 114.224 72.9232Z" fill="#524E84"/>
<path d="M118.333 51.4903C113.868 53.3087 110.299 54.2232 107.262 54.5995C107.262 54.5995 107.26 54.5984 107.256 54.5984C107.217 54.5995 106.502 54.6574 106.228 54.6466C105.41 54.6184 104.302 54.4328 103.18 53.909C102.381 53.5357 101.239 52.5711 100.045 51.4212C98.5654 49.9942 97.0056 48.2822 95.9271 47.0586C95.088 46.1083 94.5391 45.4529 94.5391 45.4529C95.2837 44.345 96.9326 43.3372 98.3678 42.7983C98.3678 42.7983 101.362 47.7851 105.899 50.2339C106.146 50.3682 106.398 50.4929 106.654 50.6083C107.688 50.4408 110.485 50.3134 111.697 50.2269C114.984 49.993 117.667 49.4233 117.667 49.4233L118.333 51.4903Z" fill="#0077EB"/>
<path d="M117.555 49.2586C117.555 49.2586 118.177 47.6884 119.022 47.2399C119.868 46.7917 122.275 45.2137 122.789 45.6858C123.303 46.1579 123.197 48.4256 121.039 50.3209C119.664 51.5283 118.279 51.477 118.279 51.477L117.555 49.2586Z" fill="#FCC63A"/>
<path d="M122.943 47.1284L119.39 50.448C119.256 50.5734 119.015 50.6097 118.85 50.5298L116.672 49.4772C116.605 49.444 116.561 49.3969 116.542 49.3432L116.537 49.3259L116.43 48.9619L117.007 48.743L122.598 46.6196L122.901 46.5054L123.014 46.8898L123.023 46.9165C123.025 46.9195 123.025 46.9222 123.024 46.9261C123.037 46.9933 123.01 47.0666 122.943 47.1284Z" fill="#001030"/>
<path d="M122.598 46.6195L117.008 48.7429L120.17 45.7884C120.303 45.6641 120.544 45.6271 120.708 45.7062L122.598 46.6195Z" fill="#1F2232"/>
<path d="M118.742 50.1609L116.564 49.1075C116.4 49.028 116.374 48.8628 116.507 48.7385L120.061 45.4189C120.194 45.2946 120.435 45.2579 120.599 45.3374L122.778 46.3908C122.942 46.4704 122.967 46.6356 122.834 46.7599L119.281 50.0795C119.147 50.2037 118.906 50.24 118.742 50.1609Z" fill="#2E3052"/>
<path d="M119.007 49.5658L117.319 48.7498C117.154 48.6703 117.129 48.5051 117.262 48.3808L120.026 45.7993C120.159 45.675 120.4 45.6383 120.564 45.7178L122.252 46.5342C122.416 46.6137 122.442 46.7789 122.308 46.9032L119.545 49.4848C119.412 49.6087 119.171 49.645 119.007 49.5658Z" fill="#2E3052"/>
<path d="M123.026 46.9253L123.025 46.9261C123.026 46.9225 123.025 46.9193 123.023 46.916L123.026 46.9253Z" fill="#1F2232"/>
<path d="M118.962 46.4454C118.962 46.4454 119.468 46.5246 119.52 46.9596C119.571 47.395 119.1 47.2217 118.797 47.1259C118.495 47.0302 118.222 47.1263 118.18 47.1754C118.048 47.3313 118.071 46.3165 118.962 46.4454Z" fill="#FCC63A"/>
<path d="M121.225 48.8087C121.225 48.8087 122.019 47.5033 122.628 46.7903C123.033 46.3151 123.24 47.0042 122.963 47.4847C122.685 47.9653 122.138 48.9438 121.225 48.8087Z" fill="#FCC63A"/>
<path d="M84.2208 72.3413L82.4607 60.9941L82.3564 60.3217L82.3684 59.8149L82.7606 43.7399L87.2204 42.2326L87.4594 42.1511L88.461 41.8118L89.255 41.5439L93.9639 42.192L94.7305 42.2974L95.0003 42.3345L98.3693 42.7981C98.4005 53.4547 97.3776 55.7572 99.3466 64.426C100.338 67.6958 96.701 79.2758 84.2208 72.3413Z" fill="#6B93F6"/>
<path d="M86.728 69.4383L86.7288 69.4379C90.2549 68.4533 92.8276 66.0195 94.3646 64.1513C96.0271 62.1306 96.8717 60.3137 96.8802 60.2955C96.9207 60.2071 96.8821 60.1025 96.7937 60.062C96.7053 60.0215 96.6007 60.0601 96.5602 60.1481C96.5521 60.1658 95.7222 61.9484 94.0863 63.9347C92.5821 65.7613 90.0684 68.1394 86.6338 69.0987C86.54 69.1249 86.4852 69.2218 86.5114 69.3156C86.5377 69.409 86.6346 69.4638 86.728 69.4383Z" fill="#0077EB"/>
<path d="M90.7369 69.628C93.8006 68.7869 96.3764 66.2026 96.4933 66.0841C96.5616 66.0146 96.5609 65.9031 96.4914 65.8348C96.4223 65.7664 96.3107 65.7676 96.2424 65.8367C96.2123 65.8672 93.1807 68.9069 89.9031 69.4523C89.8055 69.4678 89.7422 69.5593 89.7584 69.655C89.7742 69.7511 89.8649 69.816 89.961 69.7997C90.2224 69.7561 90.4814 69.6982 90.7369 69.628Z" fill="#0077EB"/>
<path d="M88.568 46.9607C91.6297 46.1119 94.1989 43.521 94.3155 43.4021C94.3834 43.3327 94.3827 43.2211 94.3132 43.1528C94.2437 43.0848 94.1321 43.086 94.0642 43.1551C94.0341 43.1856 91.0102 46.2331 87.7338 46.7866C87.6365 46.802 87.5732 46.8939 87.5894 46.9896C87.6057 47.0857 87.6964 47.1502 87.7925 47.134C88.0534 47.09 88.3124 47.0313 88.568 46.9607Z" fill="#0077EB"/>
<path d="M115.435 101.71L116.668 104.454L114.14 105.542L112.669 102.707L115.435 101.71Z" fill="#FCC63A"/>
<path d="M116.116 104.396C116.116 104.396 116.375 103.287 116.886 103.107C117.397 102.927 122.541 104.301 123.959 103.981C125.378 103.662 125.543 104.736 125.518 105.333C125.492 105.93 114.995 109.696 114.995 109.696C114.995 109.696 113.392 106.781 113.32 105.707C113.249 104.634 115.188 105.062 116.116 104.396Z" fill="#6B93F6"/>
<path d="M119.151 105.596C119.111 105.63 119.058 105.648 119.001 105.642C118.891 105.631 118.812 105.532 118.823 105.422C118.827 105.386 118.925 104.517 119.344 104.012C119.903 103.338 120.637 103.5 120.668 103.507C120.776 103.531 120.843 103.639 120.818 103.747C120.793 103.855 120.685 103.921 120.578 103.896C120.558 103.892 120.05 103.789 119.652 104.267C119.31 104.679 119.222 105.457 119.221 105.465C119.216 105.518 119.189 105.564 119.151 105.596Z" fill="white"/>
<path d="M118.38 105.318C118.34 105.352 118.286 105.37 118.229 105.364C118.12 105.352 118.04 105.253 118.052 105.143C118.056 105.107 118.153 104.238 118.573 103.733C119.132 103.059 119.866 103.22 119.897 103.228C120.005 103.252 120.071 103.36 120.046 103.468C120.022 103.575 119.914 103.643 119.806 103.617C119.786 103.613 119.279 103.509 118.881 103.988C118.537 104.402 118.45 105.178 118.449 105.186C118.444 105.24 118.418 105.286 118.38 105.318Z" fill="white"/>
<path d="M120.075 105.693C120.035 105.727 119.982 105.745 119.925 105.739C119.815 105.727 119.735 105.629 119.747 105.519C119.751 105.483 119.848 104.614 120.268 104.108C120.827 103.434 121.561 103.597 121.592 103.604C121.7 103.628 121.767 103.736 121.742 103.844C121.717 103.951 121.609 104.018 121.502 103.993C121.482 103.989 120.974 103.885 120.576 104.364C120.232 104.778 120.146 105.554 120.145 105.562C120.139 105.615 120.113 105.661 120.075 105.693Z" fill="white"/>
<path d="M116.072 102.242C115.81 102.539 115 102.991 114.119 103.386C113.959 103.458 113.794 103.528 113.632 103.595C113.346 103.713 113.062 103.82 112.795 103.912C112.795 103.912 106.797 92.8576 104.495 84.8412C104.495 84.8412 84.1939 82.3341 83.4906 75.224C83.4663 74.9862 83.4655 74.743 83.4875 74.4937C83.5478 73.8159 83.7824 73.1002 84.2209 72.3425C84.6841 71.5446 91.6321 72.3224 95.3864 73.3758C95.3864 73.3758 105.564 77.3404 109.326 81.4247C111.231 83.4913 116.072 102.242 116.072 102.242Z" fill="#2E3052"/>
<path d="M114.118 103.386C113.958 103.458 113.794 103.528 113.632 103.595C110.599 98.5749 106.387 86.8467 105.448 84.0316C105.385 83.8413 105.222 83.6989 105.022 83.661C95.1586 81.8067 89.4756 79.2197 86.4447 77.3758C85.1091 76.5633 84.1557 75.8225 83.4906 75.2235C83.4663 74.9857 83.4655 74.7425 83.4875 74.4932C84.1329 75.1235 85.1747 75.9928 86.7786 76.962C89.7708 78.7712 95.3814 81.3126 105.121 83.1442C105.508 83.2168 105.825 83.4935 105.949 83.8652C106.887 86.6823 111.115 98.4634 114.118 103.386Z" fill="#001030"/>
<path d="M111.712 102.754L112.67 104.285C112.67 104.285 115.055 103.873 116.669 102.242L116.072 100.874C116.072 100.874 113.171 102.304 111.712 102.754Z" fill="#524E84"/>
<path d="M79.3999 76.5388C79.3999 76.5388 80.7814 78.4121 80.6675 79.3817C80.5536 80.3513 79.3026 82.1775 78.3025 82.2659C77.3024 82.3539 79.4516 79.9186 78.9444 79.9974C78.3307 80.0923 74.1869 83.4922 73.3127 83.4922C72.438 83.4922 74.3413 81.9119 75.0829 81.5128C75.0829 81.5128 73.1224 82.3894 72.6661 82.8457C72.2099 83.3019 71.8787 82.3234 74.1595 80.9357C74.1595 80.9357 72.067 82.1235 71.9246 82.1424C71.4591 82.2045 72.7869 80.6478 73.9303 80.0846C73.9303 80.0846 72.2531 80.9014 72.0825 80.9049C71.8466 80.9099 72.3527 80.361 73.5975 79.6712C74.7173 79.0505 76.5524 76.2007 76.5524 76.2007L79.3999 76.5388Z" fill="#FCC63A"/>
<path d="M82.7604 43.7402C82.7604 43.7402 78.1102 52.6719 77.0514 62.0139L76.5527 76.1997C76.5527 76.1997 77.0306 77.2107 79.4003 76.5387L81.6923 62.3547L83.4486 55.8649C83.4486 55.8649 84.2465 47.8782 82.7604 43.7402Z" fill="#0077EB"/>
<path d="M97.0425 34.0827C96.5484 36.877 93.8827 38.7421 91.0884 38.248C88.2942 37.7539 86.429 35.0882 86.9231 32.294C87.4172 29.4997 90.0829 27.6346 92.8771 28.1286C95.6714 28.6227 97.5362 31.2884 97.0425 34.0827Z" fill="#2E3052"/>
<path d="M97.1208 33.161C97.1208 33.161 98.6235 33.0189 98.6806 31.5946C98.7288 30.3826 97.203 30.904 97.4886 30.0008C97.7743 29.0972 98.1946 28.3043 97.0389 27.8616C96.028 27.4744 95.8836 28.1885 94.6932 26.9047C93.2866 25.3881 91.5361 28.0144 90.0716 27.8438C87.9116 27.5922 87.4283 28.7533 87.0469 29.6831C86.6656 30.613 87.3689 31.4367 87.3689 31.4367L97.1208 33.161Z" fill="#2E3052"/>
<path d="M95.9426 35.3484C95.9426 35.3484 96.9331 34.4212 97.3727 35.4105C97.8124 36.3994 96.5085 38.8606 95.1621 37.9654L95.9426 35.3484Z" fill="#E4794A"/>
<path d="M95.6235 37.2153C95.6776 37.2249 95.7332 37.1979 95.7582 37.1462C96.1269 36.3804 97.0193 36.2013 97.0282 36.1997C97.0961 36.1866 97.1405 36.1214 97.1278 36.0534C97.115 35.9855 97.0494 35.9411 96.9819 35.9538C96.9402 35.9616 95.957 36.1561 95.5328 37.0381C95.5031 37.1003 95.529 37.1751 95.5915 37.2053C95.6015 37.2099 95.6123 37.2134 95.6235 37.2153Z" fill="#FD664D"/>
<path d="M96.537 36.9582C96.5598 36.9625 96.5841 36.9601 96.6073 36.9505C96.671 36.9239 96.7011 36.8505 96.6744 36.7868C96.6698 36.776 96.5621 36.5247 96.2776 36.3317C96.2209 36.2927 96.1425 36.3078 96.1035 36.3653C96.0649 36.4224 96.0796 36.5004 96.1371 36.5394C96.3571 36.6884 96.4424 36.8818 96.4432 36.8837C96.4606 36.9239 96.4969 36.9509 96.537 36.9582Z" fill="#FD664D"/>
<path d="M89.2656 39.2061L88.8066 41.8015C88.8066 41.8015 89.6717 43.134 90.7023 43.4092C91.7317 43.6852 92.5875 42.5554 92.5875 42.5554L93.0287 40.0595L89.2656 39.2061Z" fill="#FCC63A"/>
<path d="M89.2659 39.2061L89.0625 40.3575C89.6272 41.2611 90.84 41.6765 92.7341 41.7301L93.0294 40.0595L89.2659 39.2061Z" fill="#E4794A"/>
<path d="M87.7078 32.0567C87.5777 33.0738 87.4507 34.3523 87.465 35.3949C87.4684 35.655 87.4812 35.9013 87.504 36.124C87.712 38.1331 88.4983 41.6542 92.5648 40.9645C94.3605 40.6603 95.476 38.9167 96.1635 37.0651C96.6298 35.8075 96.8977 34.5005 97.0467 33.559C97.1976 32.5979 96.8293 31.6298 96.0793 31.0103C94.0478 29.3312 91.5813 29.3875 89.9064 29.7129C88.7434 29.9384 87.8575 30.8841 87.7078 32.0567Z" fill="#FCC63A"/>
<path d="M93.9595 35.3472C93.9104 35.6244 94.0135 35.8741 94.1895 35.9054C94.3655 35.9366 94.5481 35.7371 94.5971 35.4603C94.6462 35.1832 94.5431 34.9334 94.3667 34.9022C94.1907 34.8709 94.0085 35.0701 93.9595 35.3472Z" fill="#2E3052"/>
<path d="M90.2251 34.6874C90.1761 34.9645 90.2791 35.2143 90.4555 35.2455C90.6315 35.2768 90.8141 35.0772 90.8631 34.8001C90.9122 34.5229 90.8091 34.2732 90.6331 34.2419C90.4567 34.211 90.2741 34.4102 90.2251 34.6874Z" fill="#2E3052"/>
<path d="M95.5882 34.0466C95.5882 34.0466 94.3534 33.2873 93.2529 33.5482L93.2545 34.0381C93.2545 34.0381 94.4051 33.9867 95.418 34.5823C95.5242 34.3754 95.6349 34.2867 95.5882 34.0466Z" fill="#2E3052"/>
<path d="M89.5136 32.9727C89.5136 32.9727 90.934 32.6828 91.8782 33.3051L91.7091 33.7644C91.7091 33.7644 90.6457 33.3217 89.4904 33.5343C89.4611 33.3035 89.3877 33.1823 89.5136 32.9727Z" fill="#2E3052"/>
<path d="M91.8443 37.0089C91.6362 36.9723 91.4444 36.8549 91.4146 36.836C91.3564 36.799 91.339 36.7218 91.3757 36.6635C91.4123 36.6048 91.4899 36.5874 91.5482 36.6241C91.6516 36.6889 91.9064 36.8071 92.0346 36.7584C92.0593 36.7488 92.0944 36.7279 92.1156 36.6542C92.2364 36.2315 92.3735 34.7674 92.375 34.7528C92.3812 34.6841 92.4426 34.6335 92.5113 34.6397C92.5804 34.6458 92.6309 34.7068 92.6244 34.7759C92.6186 34.8373 92.4835 36.2782 92.3565 36.7229C92.3086 36.8904 92.2036 36.9618 92.1241 36.9923C92.0365 37.0255 91.9388 37.0255 91.8443 37.0089Z" fill="#E4794A"/>
<path d="M93.2618 38.0379C93.0715 38.527 92.5717 39.4009 91.4434 39.2013C90.3124 39.0014 90.146 38.0927 90.1406 37.4863L93.2618 38.0379Z" fill="white"/>
<path d="M91.3444 39.8473C91.0252 39.791 90.7832 39.5814 90.7731 39.5725C90.721 39.5269 90.716 39.4478 90.7616 39.3957C90.8071 39.3436 90.8862 39.3386 90.9384 39.3841C90.9403 39.3857 91.1395 39.5567 91.388 39.6007C91.6162 39.6408 91.8578 39.5486 91.8601 39.5478C91.9242 39.5223 91.9971 39.5536 92.0226 39.618C92.0481 39.6821 92.0168 39.7551 91.9524 39.7805C91.94 39.7856 91.6455 39.9006 91.3444 39.8473Z" fill="#E4794A"/>
<path d="M95.9236 36.1932C96.1065 35.701 96.3146 35.061 96.3073 34.7129C96.2926 34.0964 95.8614 33.6591 96.127 33.114C96.3933 32.5667 95.8954 31.8426 95.4662 31.6611C95.0381 31.4786 93.955 31.5164 93.0135 30.8471C92.1149 30.2075 90.3509 30.2395 89.9618 30.8197C89.4909 31.5226 89.9356 31.6754 88.8725 32.3374C88.4491 32.6014 88.732 33.5313 88.6957 34.0972C88.6784 34.3574 88.6606 34.4828 88.6019 34.7553L88.5738 34.8939L87.4756 34.6997C87.5069 33.8177 87.6053 32.8566 87.7076 32.056C87.8577 30.8834 88.744 29.9384 89.9062 29.7126C91.5815 29.3872 94.0472 29.3301 96.0795 31.01C96.8288 31.6299 97.1974 32.5972 97.0461 33.5583C96.9287 34.3049 96.7353 35.2818 96.4273 36.2823L95.9236 36.1932Z" fill="#2E3052"/>
<path d="M87.8781 35.2606C87.9322 34.9741 87.9627 34.6831 87.9627 34.3913C87.9623 33.9925 87.9121 33.6216 87.545 33.3904C87.2493 33.2043 86.91 33.1418 86.6043 33.4579C85.852 34.2361 86.03 37.1033 87.6018 36.7243L87.8781 35.2606Z" fill="#FCC63A"/>
<path d="M87.4608 35.8737C87.4098 35.8537 87.3762 35.8019 87.3816 35.7448C87.465 34.8991 86.7961 34.2819 86.7891 34.2757C86.7382 34.2294 86.7339 34.1502 86.7803 34.0989C86.8266 34.0476 86.9057 34.0437 86.957 34.0896C86.9883 34.1178 87.7271 34.7952 87.631 35.7691C87.624 35.8378 87.5631 35.888 87.494 35.8814C87.4824 35.8803 87.4712 35.8776 87.4608 35.8737Z" fill="#E4794A"/>
<path d="M86.8131 35.1783C86.7915 35.1698 86.7718 35.1551 86.7571 35.135C86.7166 35.0791 86.7293 35.0007 86.7849 34.9602C86.7942 34.9536 87.0173 34.7946 87.3605 34.778C87.4292 34.7745 87.4882 34.8278 87.4917 34.8969C87.4952 34.966 87.4419 35.0246 87.3728 35.0281C87.1072 35.0412 86.9335 35.1617 86.932 35.1628C86.8961 35.1891 86.8513 35.1933 86.8131 35.1783Z" fill="#E4794A"/>
<path d="M145.876 94.5912C145.876 94.5912 144.185 97.7992 142.193 100.341C141.606 101.09 140.993 101.782 140.388 102.315C139.409 103.182 138.454 103.634 137.677 103.25C134.793 101.826 128.363 90.4896 128.363 90.4896L129.947 88.6495C129.947 88.6495 132.808 91.8869 134.901 93.8246C136.831 95.6114 138.315 96.9469 138.315 96.9469C138.582 96.5486 138.867 96.112 139.163 95.65C139.477 95.1598 139.804 94.6406 140.136 94.1068C142.546 90.2305 145.448 85.9907 145.448 85.9907L145.876 94.5912Z" fill="#FCC63A"/>
<path d="M130.367 89.7629C130.367 89.7629 131.019 88.6913 130.767 87.7318C130.514 86.7722 130.269 84.6028 129.221 84.6615C128.838 84.6831 129.397 85.5895 129.141 86.4286C129.141 86.4286 128.018 85.8878 127.267 85.3328C126.605 84.8445 125.237 84.0512 124.6 83.6884C124.426 83.5892 124.224 83.7799 124.325 83.9509C124.489 84.2273 124.888 84.6407 125.811 85.2181C125.811 85.2181 123.518 83.9339 123.134 84.2161C122.75 84.4982 125.647 86.0519 125.647 86.0519C125.647 86.0519 123.307 85.1066 123.116 85.4524C122.999 85.6632 125.293 87.0111 125.293 87.0111C125.293 87.0111 123.014 86.3074 123.438 86.8413C123.561 86.9968 127.89 88.9558 128.792 91.2305C128.791 91.2305 130.053 90.5395 130.367 89.7629Z" fill="#FCC63A"/>
<path d="M142.194 100.341C141.606 101.09 140.993 101.782 140.389 102.316L139.163 95.6497C139.478 95.1595 139.804 94.6403 140.137 94.1064L142.194 100.341Z" fill="#E4794A"/>
<path d="M145.535 85.6919L139.44 94.4827L141.38 102.316L146.163 94.6861C146.163 94.6861 147.058 89.5812 145.535 85.6919Z" fill="#6B93F6"/>
<path d="M148.664 160.913V163.688L151.255 163.647L151.424 160.706L148.664 160.913Z" fill="#FCC63A"/>
<path d="M155.241 120.363C155.223 120.693 155.134 122.277 154.998 124.485C154.633 130.552 153.95 141.333 153.549 143.754C153.138 146.239 153.324 154.388 153.456 158.653C153.478 159.378 153.195 160.037 152.723 160.521C152.548 160.7 152.344 160.854 152.122 160.98C151.735 161.194 151.292 161.317 150.82 161.317H148.845C147.357 161.317 146.162 160.111 146.209 158.653C146.32 155.047 146.455 148.469 146.198 143.387C145.951 138.55 146.309 129.992 146.584 124.657H146.588C146.699 122.527 146.795 120.914 146.834 120.255L155.241 120.363Z" fill="#2E3052"/>
<path d="M146.836 120.255L155.242 120.363C155.224 120.693 155.135 122.277 154.999 124.485C152.145 124.829 149.172 124.972 146.589 124.657C146.699 122.526 146.796 120.914 146.836 120.255Z" fill="#001030"/>
<path d="M152.691 151.046C152.764 153.774 152.841 156.594 152.791 158.867C152.777 159.505 152.754 160.051 152.724 160.519C152.549 160.7 152.345 160.856 152.121 160.979C152.169 160.436 152.207 159.742 152.226 158.855C152.275 156.595 152.199 153.782 152.126 151.06C152.035 147.735 151.95 144.593 152.135 143.256C152.539 140.33 153.441 124.466 153.677 120.231L154.243 120.256C154.006 124.488 153.101 140.385 152.695 143.33C152.517 144.623 152.602 147.744 152.691 151.046Z" fill="#001030"/>
<path d="M149.328 163.584C149.328 163.584 148.791 162.845 148.352 162.866C147.912 162.888 144.466 165.453 143.301 165.646C142.136 165.839 142.342 166.681 142.545 167.113C142.748 167.545 151.804 167.151 151.804 167.151C151.804 167.151 152.112 164.519 151.835 163.706C151.557 162.893 150.231 163.794 149.328 163.584Z" fill="#6B93F6"/>
<path d="M147.415 165.384C147.456 165.397 147.502 165.394 147.542 165.372C147.621 165.33 147.65 165.234 147.608 165.157C147.594 165.131 147.253 164.52 146.781 164.275C146.154 163.947 145.651 164.288 145.63 164.302C145.557 164.353 145.54 164.453 145.591 164.524C145.643 164.596 145.745 164.613 145.818 164.562C145.832 164.553 146.182 164.323 146.629 164.556C147.013 164.756 147.319 165.303 147.322 165.309C147.343 165.346 147.376 165.372 147.415 165.384Z" fill="white"/>
<path d="M147.909 164.946C147.95 164.959 147.996 164.956 148.037 164.935C148.116 164.893 148.145 164.796 148.102 164.719C148.088 164.693 147.747 164.083 147.276 163.837C146.648 163.509 146.145 163.85 146.124 163.864C146.051 163.915 146.034 164.015 146.086 164.086C146.137 164.158 146.239 164.175 146.312 164.124C146.326 164.115 146.676 163.885 147.123 164.118C147.509 164.319 147.813 164.865 147.816 164.871C147.837 164.908 147.871 164.934 147.909 164.946Z" fill="white"/>
<path d="M146.75 165.734C146.791 165.747 146.837 165.744 146.878 165.723C146.957 165.681 146.986 165.585 146.943 165.507C146.929 165.481 146.588 164.871 146.116 164.625C145.488 164.297 144.986 164.638 144.965 164.653C144.892 164.704 144.875 164.803 144.926 164.875C144.978 164.946 145.08 164.963 145.153 164.912C145.167 164.903 145.517 164.674 145.964 164.906C146.35 165.107 146.654 165.653 146.657 165.659C146.678 165.696 146.712 165.722 146.75 165.734Z" fill="white"/>
<path d="M161.281 160.913L161.56 163.683L163.872 163.647L164.041 160.706L161.281 160.913Z" fill="#FCC63A"/>
<path d="M166.041 143.386C165.784 148.468 165.919 155.046 166.03 158.653C166.073 160.111 164.882 161.316 163.394 161.316H161.419C160.983 161.316 160.568 161.211 160.206 161.028C159.988 160.916 159.784 160.776 159.609 160.608C159.079 160.121 158.757 159.423 158.782 158.652C158.915 154.387 159.101 146.238 158.689 143.753C158.282 141.29 157.58 130.18 157.219 124.176C157.101 122.171 157.019 120.738 156.997 120.384L165.418 120.492C165.443 120.92 165.483 121.579 165.529 122.413C165.801 127.215 166.327 137.789 166.041 143.386Z" fill="#2E3052"/>
<path d="M165.53 122.414C163.945 122.838 160.801 123.616 157.22 124.177C157.102 122.172 157.02 120.739 156.998 120.385L165.419 120.493C165.444 120.921 165.483 121.58 165.53 122.414Z" fill="#001030"/>
<path d="M160.099 158.855C160.119 159.769 160.159 160.478 160.208 161.027C159.988 160.917 159.786 160.776 159.608 160.61C159.574 160.123 159.549 159.547 159.534 158.868C159.485 156.594 159.561 153.774 159.634 151.046C159.724 147.744 159.808 144.624 159.63 143.331C159.224 140.384 158.318 124.48 158.083 120.253L158.648 120.228C158.884 124.457 159.786 140.329 160.191 143.257C160.375 144.594 160.289 147.736 160.2 151.061C160.127 153.782 160.05 156.595 160.099 158.855Z" fill="#001030"/>
<path d="M162.462 163.258C162.462 163.258 163.641 162.949 163.967 162.956C164.293 162.962 166.477 165.354 167.212 165.495C168.545 165.751 168.547 167.791 167.735 167.892C165.388 168.185 161.374 167.214 161.374 167.214C161.374 167.214 161.004 164.596 161.164 163.775C161.325 162.953 161.806 163.499 162.462 163.258Z" fill="#6B93F6"/>
<path d="M164.405 165.492C164.363 165.5 164.317 165.493 164.279 165.468C164.204 165.419 164.185 165.321 164.235 165.247C164.251 165.223 164.65 164.647 165.144 164.447C165.8 164.179 166.267 164.565 166.287 164.582C166.355 164.64 166.362 164.74 166.303 164.807C166.245 164.873 166.142 164.881 166.074 164.823C166.061 164.813 165.736 164.551 165.268 164.741C164.866 164.904 164.508 165.42 164.504 165.425C164.48 165.46 164.444 165.483 164.405 165.492Z" fill="white"/>
<path d="M163.956 165.01C163.914 165.018 163.868 165.011 163.83 164.986C163.755 164.937 163.735 164.839 163.785 164.765C163.802 164.741 164.201 164.165 164.694 163.964C165.351 163.697 165.818 164.083 165.838 164.1C165.906 164.157 165.913 164.258 165.854 164.324C165.796 164.391 165.693 164.398 165.625 164.341C165.612 164.33 165.286 164.069 164.819 164.258C164.415 164.422 164.059 164.937 164.055 164.943C164.031 164.978 163.995 165.001 163.956 165.01Z" fill="white"/>
<path d="M165.033 165.902C164.991 165.911 164.946 165.904 164.907 165.879C164.833 165.83 164.812 165.731 164.863 165.658C164.879 165.633 165.278 165.057 165.772 164.857C166.429 164.589 166.895 164.976 166.915 164.992C166.983 165.05 166.99 165.15 166.932 165.217C166.873 165.283 166.77 165.291 166.702 165.233C166.69 165.223 166.363 164.961 165.896 165.151C165.493 165.315 165.136 165.83 165.133 165.836C165.108 165.871 165.073 165.894 165.033 165.902Z" fill="white"/>
<path d="M167.33 121.214C159.724 123.09 152.127 123.095 144.538 121.214C144.498 118.436 144.458 107.329 144.677 98.2122C144.681 98.0331 144.686 97.8548 144.69 97.6768C144.692 97.5888 144.695 97.5008 144.697 97.414V97.3997C144.7 97.2858 144.703 97.1739 144.706 97.0615C144.869 91.0492 145.152 86.1393 145.637 85.4835C145.638 85.4827 145.638 85.4827 145.638 85.4827C146.77 83.958 152.462 81.5235 154.036 80.4365C154.167 80.6434 154.942 81.7933 155.957 81.8782C157.072 81.9747 158.062 80.6901 158.062 80.6901V80.4469C159.643 81.5332 164.8 83.7866 165.931 85.3067C167.167 86.9727 167.382 116.481 167.33 121.214Z" fill="#6B93F6"/>
<path d="M146.996 93.9317C146.343 94.7967 145.389 96.7564 144.961 97.662C144.903 97.7863 144.854 97.8909 144.817 97.97C144.769 98.0739 144.742 98.1341 144.74 98.1387C144.726 98.1696 144.704 98.1943 144.678 98.2117C144.682 98.0326 144.686 97.8542 144.691 97.6763C144.692 97.5883 144.695 97.5003 144.698 97.4134V97.3991C144.785 97.2146 144.889 96.9977 145.005 96.7599C145.491 95.7656 146.186 94.4246 146.712 93.7267C146.77 93.6499 146.881 93.6341 146.959 93.6904C147.037 93.7476 147.052 93.8556 146.996 93.9317Z" fill="#0077EB"/>
<path d="M161.559 87.2221C161.557 87.2221 161.555 87.2221 161.553 87.2221C158.531 87.1279 156.199 85.8958 154.775 84.8791C153.233 83.7778 152.415 82.7124 152.381 82.6677C152.322 82.5912 152.339 82.4832 152.417 82.4264C152.495 82.3693 152.605 82.3851 152.663 82.4615C152.696 82.504 155.957 86.7021 161.564 86.877C161.662 86.8801 161.738 86.9596 161.735 87.0549C161.732 87.1484 161.654 87.2221 161.559 87.2221Z" fill="#0077EB"/>
<path d="M151.377 115.418C151.285 115.418 151.208 115.348 151.202 115.257C151.195 115.162 151.269 115.08 151.366 115.073C156.325 114.755 159.282 112.293 160.89 110.284C162.638 108.099 163.219 105.96 163.224 105.939C163.249 105.847 163.345 105.791 163.439 105.815C163.533 105.839 163.59 105.933 163.566 106.026C163.542 106.115 162.966 108.246 161.177 110.486C159.524 112.555 156.484 115.091 151.389 115.418C151.385 115.418 151.381 115.418 151.377 115.418Z" fill="#0077EB"/>
<path d="M154.04 112.334C153.963 112.334 153.892 112.283 153.87 112.206C153.845 112.114 153.901 112.019 153.995 111.995C158.304 110.853 159.135 107.328 159.143 107.292C159.164 107.199 159.258 107.14 159.353 107.16C159.448 107.18 159.508 107.272 159.488 107.365C159.479 107.404 159.27 108.324 158.499 109.4C157.789 110.391 156.447 111.703 154.087 112.328C154.071 112.332 154.055 112.334 154.04 112.334Z" fill="#0077EB"/>
<path d="M172.911 120.909C172.803 122.42 171.877 123.542 171.873 124.536C171.868 125.532 170.695 124.88 171.238 122.915C171.78 120.951 170.976 119.05 170.547 119.067C170.117 119.086 170.683 121.282 170.232 122.011C169.78 122.74 169.439 121.209 169.043 120.262C168.632 119.278 168.862 117.238 169.235 115.801C169.607 114.365 167.78 105.254 168.019 102.687L167.359 99.3559L166.974 97.4127L166.901 95.3847L170.424 94.0171C170.557 94.6683 170.693 95.343 170.828 96.022C170.887 96.3211 170.945 96.6214 171.003 96.9206C171.474 99.3493 171.897 101.74 172.07 103.274C172.546 107.516 171.765 116.169 171.765 116.169C171.765 116.169 173.013 119.492 172.911 120.909Z" fill="#FCC63A"/>
<path d="M171.003 96.9206C170.209 97.8099 168.939 98.9421 167.359 99.3559L166.974 97.4127L166.901 95.3847L170.424 94.0171C170.557 94.6683 170.693 95.343 170.828 96.022C170.887 96.3211 170.945 96.6214 171.003 96.9206Z" fill="#E4794A"/>
<path d="M171.981 94.9977C171.981 94.9977 171.561 95.486 170.827 96.0222C169.94 96.6745 168.591 97.3994 166.978 97.4133C166.783 91.7924 166.496 87.0427 166.078 85.6484C166.822 86.547 170.391 90.9737 171.981 94.9977Z" fill="#6B93F6"/>
<path d="M164.56 93.3676C165.212 94.2322 166.166 96.1919 166.594 97.0979C166.652 97.2222 166.701 97.3264 166.738 97.4059C166.786 97.5093 166.813 97.5699 166.815 97.5742C166.844 97.639 166.909 97.6769 166.977 97.6769H166.98C166.979 97.5889 166.976 97.5009 166.973 97.4136C167.025 97.4136 167.077 97.4136 167.127 97.4117C167.103 97.3607 167.046 97.2364 166.964 97.0612C166.861 96.8412 166.718 96.5393 166.55 96.1958C166.064 95.2007 165.369 93.8601 164.843 93.1626C164.785 93.0858 164.675 93.0692 164.597 93.1263C164.518 93.1827 164.502 93.2915 164.56 93.3676Z" fill="#0077EB"/>
<path d="M161.375 71.4089C161.375 74.4537 159.461 76.552 156.354 76.552C153.246 76.552 151.08 74.2962 151.08 71.2514C151.08 68.2066 152.92 65.8999 156.028 65.8999C159.755 65.8999 161.375 68.3645 161.375 71.4089Z" fill="#2E3052"/>
<path d="M160.676 72.7203C160.676 72.7203 161.539 71.5925 162.181 72.525C162.823 73.4576 161.916 76.2125 160.344 75.5401L160.676 72.7203Z" fill="#E4794A"/>
<path d="M160.687 74.6886C160.745 74.6886 160.798 74.6508 160.815 74.5936C161.058 73.7433 161.958 73.3986 161.966 73.3951C162.035 73.3696 162.069 73.2944 162.043 73.2272C162.017 73.16 161.941 73.1261 161.872 73.1515C161.83 73.167 160.839 73.5437 160.559 74.5234C160.539 74.5925 160.58 74.6643 160.651 74.684C160.663 74.687 160.675 74.6886 160.687 74.6886Z" fill="#FD664D"/>
<path d="M161.595 74.2601C161.619 74.2601 161.644 74.2535 161.666 74.2393C161.728 74.2003 161.746 74.12 161.706 74.0594C161.7 74.0494 161.541 73.8116 161.207 73.6657C161.141 73.6363 161.062 73.6657 161.032 73.7313C161.002 73.7969 161.032 73.8737 161.099 73.9031C161.356 74.0158 161.482 74.1983 161.483 74.2003C161.509 74.2393 161.551 74.2601 161.595 74.2601Z" fill="#FD664D"/>
<path d="M151.778 72.7203C151.778 72.7203 150.914 71.5925 150.273 72.525C149.631 73.4576 150.538 76.2125 152.11 75.5401L151.778 72.7203Z" fill="#E4794A"/>
<path d="M151.767 74.6886C151.709 74.6886 151.655 74.6508 151.639 74.5936C151.395 73.7433 150.496 73.3986 150.487 73.3951C150.419 73.3696 150.384 73.2944 150.41 73.2272C150.436 73.16 150.513 73.1261 150.581 73.1515C150.623 73.167 151.614 73.5437 151.895 74.5234C151.914 74.5925 151.873 74.6643 151.803 74.684C151.79 74.687 151.779 74.6886 151.767 74.6886Z" fill="#FD664D"/>
<path d="M150.859 74.2601C150.835 74.2601 150.81 74.2535 150.788 74.2393C150.726 74.2003 150.708 74.12 150.748 74.0594C150.754 74.0494 150.913 73.8116 151.246 73.6657C151.313 73.6363 151.392 73.6657 151.422 73.7313C151.452 73.7969 151.422 73.8737 151.355 73.9031C151.097 74.0158 150.972 74.1983 150.971 74.2003C150.946 74.2393 150.903 74.2601 150.859 74.2601Z" fill="#FD664D"/>
<path d="M154.102 77.8765V80.6159C154.102 80.6159 154.935 82.0109 156.063 82.1059C157.19 82.202 158.191 80.9046 158.191 80.9046V78.0691L154.102 77.8765Z" fill="#FCC63A"/>
<path d="M154.102 77.8765V79.092C154.858 79.9145 156.202 80.1203 158.191 79.8323V78.0691L154.102 77.8765Z" fill="#E4794A"/>
<path d="M161.138 72.633C161.096 73.2135 161.025 73.8261 160.911 74.4363C160.536 76.4559 159.691 78.4415 157.872 79.0788C153.752 80.5201 152.279 77.0581 151.691 75.0401C151.626 74.8166 151.568 74.5668 151.517 74.3005C151.423 73.8195 151.35 73.283 151.294 72.7426C151.226 72.0872 151.182 71.424 151.154 70.8408C151.093 69.6125 151.844 68.4854 153.017 68.043C154.706 67.4069 157.273 66.9039 159.705 68.2549C160.603 68.7525 161.167 69.677 161.187 70.6879C161.197 71.238 161.189 71.9092 161.138 72.633Z" fill="#FCC63A"/>
<path d="M160.627 72.743C160.489 72.9912 159.717 75.3246 159.502 75.6519C159.015 74.6024 156.665 75.3651 156.665 75.3651C156.517 75.4118 156.364 75.4362 156.21 75.4362C156.061 75.4362 155.911 75.413 155.768 75.369L155.756 75.3651C155.756 75.3651 153.378 74.6348 152.909 75.7349C152.692 75.4091 152.021 73.1194 151.896 72.7434H151.294C151.351 73.2838 151.423 73.8204 151.517 74.3013C151.568 74.5677 151.627 74.817 151.691 75.0409C152.28 77.0589 153.752 80.5213 157.872 79.0796C159.692 78.4423 160.536 76.4563 160.911 74.4372C161.026 73.8269 161.096 73.2139 161.138 72.6338L160.627 72.743ZM158.412 77.0106V77.0118C158.411 77.0118 158.411 77.0118 158.411 77.0118C158.229 77.1824 158.043 77.326 157.858 77.4229C156.815 77.976 156.701 77.8923 156.289 77.9104C155.87 77.9297 155.292 77.8081 154.704 77.4877C154.522 77.387 154.249 77.1928 153.951 76.9253C153.951 76.9253 153.527 75.5072 156.217 75.8627C158.912 75.4087 158.457 76.7339 158.412 77.0106Z" fill="#2E3052"/>
<path d="M157.994 73.0774C157.994 73.37 158.148 73.607 158.338 73.607C158.528 73.607 158.681 73.37 158.681 73.0774C158.681 72.7849 158.528 72.5479 158.338 72.5479C158.148 72.5479 157.994 72.7849 157.994 73.0774Z" fill="#2E3052"/>
<path d="M153.943 73.0667C153.943 73.3593 154.097 73.5963 154.287 73.5963C154.477 73.5963 154.63 73.3593 154.63 73.0667C154.63 72.7741 154.477 72.5371 154.287 72.5371C154.097 72.5371 153.943 72.7741 153.943 73.0667Z" fill="#2E3052"/>
<path d="M159.7 71.582C159.7 71.582 158.384 71.0725 157.37 71.5013L157.472 72.0537C157.472 72.0537 158.959 71.9305 159.709 72.2281C159.776 72.0155 159.785 71.8005 159.7 71.582Z" fill="#2E3052"/>
<path d="M153.153 71.582C153.153 71.582 154.47 71.0725 155.483 71.5013L155.382 72.0537C155.382 72.0537 153.894 71.9305 153.144 72.2281C153.078 72.0155 153.068 71.8005 153.153 71.582Z" fill="#2E3052"/>
<path d="M156.181 75.1267C155.956 75.1267 155.734 75.0414 155.7 75.0275C155.632 75.0001 155.599 74.9245 155.627 74.8577C155.655 74.7913 155.733 74.7592 155.8 74.7863C155.92 74.8341 156.208 74.9086 156.333 74.8357C156.357 74.8214 156.389 74.7936 156.398 74.7145C156.446 74.2602 156.319 72.7366 156.318 72.7216C156.312 72.6498 156.366 72.5872 156.439 72.5811C156.513 72.5749 156.577 72.6285 156.582 72.6999C156.588 72.7636 156.713 74.2629 156.662 74.7411C156.643 74.921 156.547 75.0132 156.469 75.0588C156.384 75.109 156.283 75.1267 156.181 75.1267Z" fill="#E4794A"/>
<path d="M157.993 76.0806C157.885 76.6156 157.524 77.6002 156.308 77.6002C155.09 77.6002 154.748 76.7005 154.631 76.0806H157.993Z" fill="white"/>
<path d="M151.294 72.7435H151.896C151.83 72.1513 151.734 71.1084 152.231 70.959C153.799 70.4869 151.767 69.4011 152.475 68.8595C153.183 68.3168 154.945 68.5492 156.171 68.5106C157.403 68.4716 159.386 68.4886 159.867 68.5978C160.349 68.7059 160.084 69.4903 159.908 70.0978C159.73 70.7042 160.499 71.3759 160.628 72.0047C160.665 72.1849 160.657 72.4532 160.627 72.7435H161.129C161.189 71.9784 161.197 71.2662 161.187 70.6888C161.167 69.6775 160.603 68.7534 159.706 68.2551C157.273 66.9041 154.707 67.4078 153.017 68.0443C151.844 68.4855 151.094 69.6138 151.154 70.8409C151.182 71.4241 151.226 72.0876 151.294 72.7435Z" fill="#2E3052"/>
<path d="M63.0264 139.408H32.4688C32.9736 136.343 35.4054 134.116 38.2395 134.125L47.7474 134.152L57.2554 134.125C60.0897 134.116 62.5212 136.343 63.0264 139.408Z" fill="white"/>
<path d="M36.5373 138.97H34.8721V167.46H36.5373V138.97Z" fill="white"/>
<path d="M60.6232 138.97H58.958V167.46H60.6232V138.97Z" fill="white"/>
<path d="M58.9575 146.953H36.5371V148.559H58.9575V146.953Z" fill="#DCEDF9"/>
<path d="M40.2659 101.056C40.2659 101.056 35.1626 107.862 34.4832 113.797C34.0038 117.989 40.2659 124.254 40.2659 124.254L42.4229 123.18L40.2728 118.332C39.5078 115.971 38.5656 115.037 39.2615 112.655L40.8186 109.297L40.2659 101.056Z" fill="#0077EB"/>
<path d="M56.3483 100.953C56.3483 100.953 61.3856 108.21 61.8024 114.17C62.1622 119.309 55.9958 124.254 55.9958 124.254L54.2148 123.367L56.681 118.469C57.4461 116.108 57.8097 114.684 56.7667 112.115L55.4427 109.297L56.3483 100.953Z" fill="#0077EB"/>
<path d="M41.3058 116.556L37.9229 127.317C37.9229 127.317 52.5688 129.185 57.0476 127.977L54.7725 116.256L56.3478 100.953C54.1557 100.029 51.832 99.4392 49.4596 99.2678C45.996 99.0177 43.8082 99.589 40.2663 101.056L41.3058 116.556Z" fill="#6B93F6"/>
<path d="M44.9674 104.3C48.1986 103.921 51.2048 101.703 51.3414 101.601C51.4213 101.541 51.4375 101.428 51.3781 101.348C51.3186 101.268 51.2055 101.252 51.1256 101.312C51.0901 101.338 47.5528 103.948 44.1506 103.994C44.0495 103.994 43.9715 104.077 43.9727 104.177C43.9738 104.277 44.0557 104.356 44.1552 104.355C44.4266 104.351 44.698 104.332 44.9674 104.3Z" fill="#0077EB"/>
<path d="M47.5703 161.955L47.8343 164.331L50.3615 164.389L50.5734 162.417L47.5703 161.955Z" fill="#FCC63A"/>
<path d="M47.1741 124.283C47.1741 124.283 40.6302 123.923 38.4134 125.737C36.197 127.55 36.6424 132.754 38.9005 134.175C41.1586 135.596 45.0078 138.388 45.0078 138.388L47.4562 162.729L50.6917 162.839C50.6917 162.839 53.6728 138.388 52.1612 133.653C50.65 128.918 47.1741 124.283 47.1741 124.283Z" fill="#001030"/>
<path d="M50.99 161.632C51.166 162.201 51.0823 162.752 50.9066 163.299L47.184 163.217C47.0528 162.674 47.0331 162.13 47.1119 161.584L50.99 161.632Z" fill="#2E3052"/>
<path d="M56.4344 124.099H39.2613L37.6744 114.819C37.537 114.015 38.1562 113.281 38.9714 113.281H56.7243C57.5399 113.281 58.1587 114.015 58.0217 114.819L56.4344 124.099Z" fill="white"/>
<path d="M55.0541 126.117H40.6594C39.8874 126.117 39.2617 125.491 39.2617 124.719V124.099H56.4518V124.719C56.4522 125.491 55.8261 126.117 55.0541 126.117Z" fill="#DCEDF9"/>
<path d="M49.3775 119.073C49.3775 119.896 48.7098 120.564 47.886 120.564C47.0623 120.564 46.3945 119.896 46.3945 119.073C46.3945 118.249 47.0623 117.581 47.886 117.581C48.7098 117.581 49.3775 118.249 49.3775 119.073Z" fill="#DCEDF9"/>
<path d="M36.8365 155.272L36.2764 157.624L38.5441 158.072L39.4678 155.972L36.8365 155.272Z" fill="#FCC63A"/>
<path d="M50.4982 123.88C50.4982 123.88 46.1156 122.369 43.5464 125.543C40.9772 128.716 36.6748 155.507 36.6748 155.507L39.6242 156.724L49.1052 132.931C49.1052 132.931 56.8259 137.337 57.7612 131.074C58.5012 126.117 50.4982 123.88 50.4982 123.88Z" fill="#2E3052"/>
<path d="M40.2923 155.496C40.2815 156.111 40.0213 156.624 39.6728 157.105L36.0479 155.823C36.0942 155.249 36.2501 154.709 36.5037 154.198L40.2923 155.496Z" fill="#524E84"/>
<path d="M38.0067 157.237C38.0067 157.237 36.6322 156.54 36.2276 156.46C35.8231 156.381 32.4815 158.751 31.535 158.728C29.8181 158.686 29.2684 161.207 30.2443 161.55C33.0667 162.543 38.29 162.42 38.29 162.42C38.29 162.42 39.45 159.284 39.472 158.225C39.4936 157.166 38.7525 157.712 38.0067 157.237Z" fill="#6B93F6"/>
<path d="M35.0048 159.478C35.0543 159.5 35.1122 159.503 35.1666 159.483C35.272 159.442 35.3229 159.325 35.2808 159.221C35.2666 159.186 34.9284 158.368 34.3722 157.988C33.6326 157.481 32.9513 157.833 32.9228 157.848C32.8236 157.901 32.7873 158.023 32.8417 158.121C32.8961 158.219 33.0212 158.256 33.1208 158.203C33.1393 158.194 33.6122 157.958 34.1394 158.318C34.5926 158.628 34.8968 159.361 34.8995 159.369C34.9199 159.418 34.9585 159.456 35.0048 159.478Z" fill="white"/>
<path d="M35.6904 159.002C35.7398 159.024 35.7977 159.028 35.8521 159.007C35.9575 158.966 36.0085 158.85 35.9664 158.746C35.9521 158.711 35.614 157.892 35.0577 157.512C34.3174 157.004 33.6369 157.357 33.6083 157.372C33.5091 157.425 33.4728 157.547 33.5273 157.645C33.5817 157.743 33.7067 157.78 33.8063 157.727C33.8249 157.717 34.2981 157.482 34.8246 157.842C35.2797 158.153 35.5815 158.885 35.5846 158.892C35.6055 158.943 35.6441 158.981 35.6904 159.002Z" fill="white"/>
<path d="M34.1191 159.816C34.1685 159.839 34.2264 159.842 34.2808 159.821C34.3862 159.781 34.4372 159.664 34.3951 159.56C34.3808 159.525 34.0427 158.707 33.4865 158.326C32.7461 157.819 32.0656 158.171 32.037 158.186C31.9378 158.239 31.9015 158.362 31.956 158.46C32.0104 158.558 32.1355 158.594 32.235 158.541C32.2536 158.532 32.7268 158.297 33.2537 158.657C33.7088 158.968 34.011 159.7 34.0137 159.707C34.0338 159.757 34.0728 159.795 34.1191 159.816Z" fill="white"/>
<path d="M48.8091 164.232C48.8091 164.232 50.2157 163.805 50.6091 163.797C51.0024 163.79 53.7472 166.571 54.6401 166.706C56.2597 166.952 56.3574 169.411 55.3839 169.571C52.5684 170.034 47.6828 169.052 47.6828 169.052C47.6828 169.052 47.1138 165.914 47.269 164.916C47.4246 163.919 48.0302 164.554 48.8091 164.232Z" fill="#6B93F6"/>
<path d="M51.2577 166.834C51.2075 166.847 51.1523 166.841 51.1048 166.812C51.0126 166.757 50.984 166.638 51.0412 166.548C51.0601 166.518 51.514 165.805 52.0992 165.54C52.8777 165.187 53.4594 165.63 53.4838 165.649C53.5683 165.715 53.5822 165.836 53.5146 165.919C53.4471 166.002 53.3236 166.016 53.239 165.949C53.2232 165.938 52.8183 165.638 52.2632 165.888C51.7861 166.104 51.3789 166.743 51.3747 166.749C51.3473 166.793 51.3044 166.822 51.2577 166.834Z" fill="white"/>
<path d="M50.6929 166.274C50.6427 166.287 50.5879 166.281 50.5404 166.252C50.4481 166.197 50.4196 166.078 50.4767 165.988C50.4956 165.958 50.9495 165.244 51.5347 164.98C52.3141 164.626 52.895 165.07 52.9193 165.089C53.0038 165.155 53.0177 165.276 52.9498 165.359C52.8823 165.442 52.7587 165.456 52.6742 165.389C52.6584 165.378 52.2531 165.078 51.6984 165.328C51.2194 165.545 50.8141 166.183 50.8102 166.189C50.7824 166.233 50.74 166.262 50.6929 166.274Z" fill="white"/>
<path d="M52.0337 167.3C51.9835 167.312 51.9287 167.306 51.8812 167.278C51.789 167.222 51.7604 167.103 51.8175 167.013C51.8364 166.983 52.2904 166.27 52.8755 166.005C53.6549 165.651 54.2358 166.095 54.2601 166.115C54.3447 166.181 54.3586 166.302 54.2906 166.384C54.2231 166.467 54.0996 166.481 54.015 166.415C53.9992 166.403 53.5939 166.103 53.0392 166.354C52.5602 166.571 52.1549 167.208 52.151 167.215C52.1232 167.258 52.0808 167.287 52.0337 167.3Z" fill="white"/>
<path d="M52.6296 85.7065C52.6296 85.7065 54.7125 88.9323 54.4839 92.2925C54.2558 95.6526 54.7908 99.5315 51.7843 99.3609C48.7777 99.1903 43.4146 100.566 41.7101 97.9493C40.0055 95.3326 52.6296 85.7065 52.6296 85.7065Z" fill="#2E3052"/>
<path d="M53.4019 91.6379C53.4019 91.6379 53.9423 96.5085 51.6314 97.8494C49.3204 99.1904 47.6475 97.6931 47.6475 97.6931C47.6475 97.6931 52.5192 90.9045 53.4019 91.6379Z" fill="#000B29"/>
<path d="M43.8016 91.6149C43.8016 91.6149 42.9717 90.5083 42.3544 91.4235C41.7372 92.3383 42.6096 95.0407 44.1204 94.381L43.8016 91.6149Z" fill="#E4794A"/>
<path d="M43.7906 93.5459C43.735 93.5459 43.6837 93.5088 43.6678 93.4525C43.4335 92.6183 42.5693 92.2798 42.5608 92.2767C42.4952 92.2516 42.462 92.1779 42.4867 92.1123C42.5118 92.0463 42.5855 92.0131 42.6511 92.0382C42.6917 92.0536 43.6439 92.423 43.9137 93.3838C43.9326 93.4517 43.8933 93.5223 43.8253 93.5412C43.8138 93.5443 43.8022 93.5459 43.7906 93.5459Z" fill="#FD664D"/>
<path d="M42.9187 93.1257C42.8952 93.1257 42.8709 93.1192 42.8496 93.1053C42.7902 93.0671 42.7732 92.9879 42.8114 92.9289C42.818 92.9188 42.9708 92.6857 43.2904 92.5425C43.3545 92.5135 43.4302 92.5425 43.4591 92.6069C43.4881 92.6714 43.4591 92.7467 43.3947 92.7756C43.1472 92.8864 43.0272 93.0655 43.026 93.0671C43.0017 93.1053 42.9608 93.1257 42.9187 93.1257Z" fill="#FD664D"/>
<path d="M52.354 91.6149C52.354 91.6149 53.1839 90.5083 53.8011 91.4235C54.4183 92.3383 53.546 95.0407 52.0352 94.381L52.354 91.6149Z" fill="#E4794A"/>
<path d="M52.3646 93.5459C52.4206 93.5459 52.4715 93.5088 52.4873 93.4525C52.7216 92.6183 53.5859 92.2798 53.5944 92.2767C53.66 92.2516 53.6932 92.1779 53.6681 92.1123C53.643 92.0463 53.5697 92.0131 53.5037 92.0382C53.4631 92.0536 52.5109 92.423 52.2411 93.3838C52.2222 93.4517 52.2615 93.5223 52.3295 93.5412C52.3414 93.5443 52.353 93.5459 52.3646 93.5459Z" fill="#FD664D"/>
<path d="M53.2376 93.1257C53.2611 93.1257 53.285 93.1192 53.3067 93.1053C53.3661 93.0671 53.3831 92.9879 53.3449 92.9289C53.3383 92.9188 53.1855 92.6857 52.8655 92.5425C52.8014 92.5135 52.7257 92.5425 52.6968 92.6069C52.6678 92.6714 52.6968 92.7467 52.7612 92.7756C53.0087 92.8864 53.1287 93.0655 53.1299 93.0671C53.1546 93.1053 53.1959 93.1257 53.2376 93.1257Z" fill="#FD664D"/>
<path d="M50.1207 96.6738V99.3612C50.1207 99.3612 49.3193 100.73 48.2355 100.823C47.1527 100.918 46.1904 99.6445 46.1904 99.6445V96.8626L50.1207 96.6738Z" fill="#FCC63A"/>
<path d="M50.1207 96.6738V97.8662C49.3935 98.6733 48.1023 98.9593 46.1908 98.6772L46.1904 96.863L50.1207 96.6738Z" fill="#E4794A"/>
<path d="M52.9539 89.7716C52.9041 90.8161 52.8045 92.122 52.6053 93.1665C52.5555 93.427 52.4992 93.6721 52.4367 93.8918C51.8712 95.8719 50.4565 99.268 46.4961 97.8533C44.7471 97.2291 43.9362 95.2806 43.5749 93.2993C43.3298 91.9537 43.2927 90.5938 43.3105 89.6222C43.3294 88.6302 43.8709 87.7239 44.734 87.2348C47.0716 85.9097 49.5382 86.4037 51.1621 87.0279C52.29 87.461 53.0114 88.5677 52.9539 89.7716Z" fill="#FCC63A"/>
<path d="M46.3333 92.0303C46.3333 92.3171 46.1855 92.5499 46.0029 92.5499C45.8207 92.5499 45.6729 92.3171 45.6729 92.0303C45.6729 91.7435 45.8207 91.5107 46.0029 91.5107C46.1855 91.5111 46.3333 91.7435 46.3333 92.0303Z" fill="#2E3052"/>
<path d="M50.4114 92.0303C50.4114 92.3171 50.2636 92.5499 50.0814 92.5499C49.8992 92.5499 49.751 92.3171 49.751 92.0303C49.751 91.7435 49.8988 91.5107 50.0814 91.5107C50.2636 91.5111 50.4114 91.7435 50.4114 92.0303Z" fill="#2E3052"/>
<path d="M45.349 90.3019C45.6235 90.2243 46.1774 90.0919 46.7618 90.0903C46.9158 90.0899 47.0335 90.2266 47.0061 90.3779L47.0053 90.3818C46.9837 90.5026 46.8756 90.5883 46.7529 90.5825C46.3553 90.564 45.3116 90.6199 44.8187 90.8195C44.8086 90.7338 44.8592 90.64 44.931 90.5566C45.0394 90.4304 45.1884 90.347 45.349 90.3019Z" fill="#2E3052"/>
<path d="M50.6854 90.3126C50.4109 90.235 49.857 90.1026 49.2726 90.1011C49.119 90.1007 49.0013 90.2373 49.0283 90.3887L49.0291 90.3925C49.0507 90.5133 49.1588 90.599 49.2815 90.5932C49.6791 90.5747 50.7228 90.6307 51.2158 90.8302C51.2258 90.7445 51.1752 90.6507 51.1034 90.5674C50.995 90.4411 50.8456 90.3578 50.6854 90.3126Z" fill="#2E3052"/>
<path d="M48.1222 94.1433C48.0246 94.1433 47.9265 94.1259 47.8447 94.0769C47.7702 94.0321 47.6772 93.9418 47.659 93.765C47.6104 93.2956 47.7304 91.8249 47.7358 91.7624C47.7416 91.6922 47.803 91.6397 47.8737 91.6455C47.9439 91.6512 47.9964 91.713 47.9906 91.7833C47.9895 91.7983 47.8675 93.2929 47.9134 93.7384C47.9215 93.8159 47.9532 93.8433 47.9759 93.8572C48.0956 93.929 48.3727 93.8557 48.4882 93.809C48.5534 93.782 48.6279 93.8136 48.6545 93.8789C48.6812 93.9441 48.6499 94.0186 48.5847 94.0452C48.5515 94.0595 48.3376 94.1433 48.1222 94.1433Z" fill="#E4794A"/>
<path d="M46.501 94.9492C46.5975 95.4348 46.9182 96.3284 47.999 96.3284C49.0825 96.3284 49.3863 95.512 49.4905 94.9492H46.501Z" fill="white"/>
<path d="M47.9833 97.0732C47.6714 97.0732 47.3962 96.9053 47.3846 96.8979C47.3248 96.8609 47.3063 96.7821 47.3433 96.7223C47.3804 96.6625 47.4587 96.6439 47.5189 96.6806C47.5213 96.6818 47.7459 96.8176 47.9837 96.8176C48.2411 96.8176 48.4716 96.6814 48.4739 96.6798C48.5345 96.6435 48.6129 96.6632 48.6491 96.7234C48.6854 96.7837 48.6661 96.862 48.6059 96.8983C48.5936 96.9056 48.3137 97.0732 47.9833 97.0732Z" fill="#E4794A"/>
<path d="M53.4675 89.5638C53.4266 89.6803 53.3127 89.7544 53.1602 89.7992C53.1714 90.081 53.1417 90.4195 53.1139 90.7441C52.9564 92.5892 52.4909 92.9135 52.3855 92.4572C52.316 92.1542 52.3203 90.4164 52.3539 89.8498C51.9891 89.8258 51.6776 89.7652 51.6776 89.7652L51.2495 87.9738L51.0997 89.7432C50.4578 89.9667 48.9598 89.6089 48.9598 89.6089L48.4572 87.843L48.1465 89.5421C47.1834 90.0111 45.9802 89.6989 45.9802 89.6989L45.7038 87.8661L45.0654 89.6989C45.0654 89.6989 43.0111 90.4357 42.9887 89.6989C42.9748 89.27 43.289 88.0622 43.5546 87.1266C43.8441 86.1064 44.5142 85.2444 45.4205 84.7581C47.9685 83.3901 50.6632 84.1177 51.5876 84.67C53.5481 85.8396 53.4675 89.5638 53.4675 89.5638Z" fill="#2E3052"/>
<path d="M44.1207 85.8433C44.1207 85.8433 42.4296 87.8547 41.873 91.4472C41.3168 95.0397 40.5463 97.6938 42.711 98.88C45.054 100.164 44.851 97.5309 44.8174 96.8153C44.7838 96.0997 42.7909 94.1438 44.1207 88.6344C44.5503 86.8553 44.1207 85.8433 44.1207 85.8433Z" fill="#2E3052"/>
<path d="M43.7256 93.2666C43.7256 93.2666 43.7256 93.2685 43.7256 93.2708C43.7264 93.2975 43.7283 93.4403 43.7383 93.6638C43.7433 93.8024 43.7518 93.9711 43.765 94.1629C43.8445 95.3734 44.0799 97.4636 44.7716 98.1885C45.0445 98.4753 45.5711 98.6189 46.191 98.6772V97.7261C45.5379 97.4161 45.0287 96.907 44.6338 96.2805C44.3899 95.7524 43.9695 94.9256 43.7727 93.6252L43.7256 93.2666Z" fill="#000B29"/>
<path d="M52.984 94.4422C52.984 94.6074 52.8501 94.7414 52.6849 94.7414C52.5197 94.7414 52.3857 94.6074 52.3857 94.4422C52.3857 94.277 52.5197 94.1431 52.6849 94.1431C52.8501 94.1431 52.984 94.277 52.984 94.4422Z" fill="white"/>
<path d="M143.11 68.6833H135.773C135.21 68.6833 134.753 68.2267 134.753 67.6635V60.3265C134.753 59.7633 135.21 59.3066 135.773 59.3066H143.11C143.673 59.3066 144.13 59.7633 144.13 60.3265V67.6635C144.13 68.2271 143.673 68.6833 143.11 68.6833Z" fill="#FFAA01"/>
<path d="M142.634 63.9954C142.634 64.7678 142.36 65.4761 141.903 66.0285C141.318 66.7368 140.432 67.1884 139.442 67.1884C138.451 67.1884 137.566 66.7372 136.98 66.0289C136.523 65.4765 136.249 64.7682 136.249 63.9958C136.249 62.2326 137.678 60.8032 139.442 60.8032C141.204 60.8025 142.634 62.2318 142.634 63.9954Z" fill="#FDCC50"/>
<path d="M141.904 66.0282C141.318 66.7365 140.432 67.1881 139.442 67.1881C138.451 67.1881 137.566 66.7369 136.98 66.0286L137.023 65.9437C137.092 65.807 137.188 65.6874 137.303 65.5909C137.418 65.494 137.552 65.4202 137.698 65.3758C138.218 65.2172 138.7 65.0566 138.971 64.5923C138.642 64.4375 138.422 64.1279 138.33 63.909C137.969 63.9862 137.709 63.3177 137.903 63.1405C137.976 63.0734 138.05 63.0548 138.116 63.0583C138.176 62.3782 138.746 61.771 139.442 61.771C140.137 61.771 140.708 62.3786 140.768 63.0583C140.833 63.0544 140.907 63.0734 140.981 63.1405C141.174 63.3177 140.914 63.9859 140.553 63.909C140.474 64.153 140.203 64.4471 139.959 64.5498C140.229 65.0142 140.665 65.2168 141.185 65.3755C141.331 65.4199 141.465 65.4936 141.58 65.5905C141.695 65.687 141.791 65.8066 141.86 65.9433L141.904 66.0282Z" fill="white"/>
<path d="M21.2788 118.543H13.9417C13.3785 118.543 12.9219 118.087 12.9219 117.523V110.186C12.9219 109.623 13.3785 109.167 13.9417 109.167H21.2788C21.842 109.167 22.2986 109.623 22.2986 110.186V117.523C22.2986 118.087 21.842 118.543 21.2788 118.543Z" fill="#FFAA01"/>
<path d="M17.7509 110.746C16.5535 110.666 15.5576 111.614 15.5576 112.794C15.5576 113.175 15.6622 113.534 15.8448 113.84C16.1165 114.298 16.3964 114.751 16.6546 115.216L17.627 116.969L19.11 114.293C19.1968 114.137 19.291 113.984 19.3817 113.83C19.5693 113.513 19.6724 113.14 19.6623 112.743C19.6376 111.692 18.7996 110.815 17.7509 110.746ZM17.61 113.414C17.1317 113.414 16.7434 113.027 16.7434 112.548C16.7434 112.069 17.1317 111.681 17.61 111.681C18.089 111.681 18.4765 112.069 18.4765 112.548C18.4765 113.027 18.089 113.414 17.61 113.414Z" fill="white"/>
<path d="M175.346 71.7715C176.5 71.7715 177.439 72.7102 177.439 73.8648C177.439 75.0189 176.5 75.958 175.346 75.958C174.192 75.958 173.253 75.0189 173.253 73.8648C173.253 72.7102 174.192 71.7715 175.346 71.7715ZM175.346 75.3011C176.138 75.3011 176.782 74.6568 176.782 73.8648C176.782 73.0727 176.138 72.4285 175.346 72.4285C174.554 72.4285 173.91 73.0727 173.91 73.8648C173.91 74.6568 174.554 75.3011 175.346 75.3011Z" fill="#6B93F6"/>
<path d="M167.812 64.4282C168.966 64.4282 169.905 65.3674 169.905 66.5215C169.905 67.6756 168.966 68.6148 167.812 68.6148C166.658 68.6148 165.719 67.6756 165.719 66.5215C165.718 65.3674 166.658 64.4282 167.812 64.4282ZM167.812 67.9578C168.604 67.9578 169.248 67.3136 169.248 66.5215C169.248 65.7294 168.604 65.0852 167.812 65.0852C167.02 65.0852 166.375 65.7294 166.375 66.5215C166.375 67.3136 167.02 67.9578 167.812 67.9578Z" fill="#FFAA01"/>
<path d="M165.225 57.6265C165.406 57.6265 165.553 57.7735 165.553 57.9549V59.4028C165.553 59.5843 165.406 59.7313 165.225 59.7313C165.044 59.7313 164.896 59.5843 164.896 59.4028V57.9549C164.896 57.7735 165.044 57.6265 165.225 57.6265Z" fill="#6B93F6"/>
<path d="M165.225 55.0928C165.406 55.0928 165.553 55.2398 165.553 55.4213V56.8691C165.553 57.0506 165.406 57.1976 165.225 57.1976C165.044 57.1976 164.896 57.0506 164.896 56.8691V55.4213C164.896 55.2398 165.044 55.0928 165.225 55.0928Z" fill="#6B93F6"/>
<path d="M163.193 57.084H164.494C164.675 57.084 164.822 57.2311 164.822 57.4125C164.822 57.5939 164.675 57.741 164.494 57.741H163.193C163.011 57.741 162.864 57.5939 162.864 57.4125C162.864 57.2307 163.011 57.084 163.193 57.084Z" fill="#6B93F6"/>
<path d="M165.956 57.084H167.257C167.439 57.084 167.586 57.2311 167.586 57.4125C167.586 57.5939 167.439 57.741 167.257 57.741H165.956C165.775 57.741 165.628 57.5939 165.628 57.4125C165.628 57.2307 165.775 57.084 165.956 57.084Z" fill="#6B93F6"/>
<path d="M176.783 65.7397C176.964 65.7397 177.111 65.8868 177.111 66.0682V67.5161C177.111 67.6975 176.964 67.8446 176.783 67.8446C176.601 67.8446 176.454 67.6975 176.454 67.5161V66.0682C176.454 65.8868 176.601 65.7397 176.783 65.7397Z" fill="#FFAA01"/>
<path d="M176.783 63.2061C176.964 63.2061 177.111 63.3531 177.111 63.5345V64.9824C177.111 65.1639 176.964 65.3109 176.783 65.3109C176.601 65.3109 176.454 65.1639 176.454 64.9824V63.5345C176.454 63.3527 176.601 63.2061 176.783 63.2061Z" fill="#FFAA01"/>
<path d="M174.75 65.1968H176.051C176.233 65.1968 176.38 65.3438 176.38 65.5253C176.38 65.7067 176.233 65.8537 176.051 65.8537H174.75C174.569 65.8537 174.422 65.7067 174.422 65.5253C174.422 65.3438 174.569 65.1968 174.75 65.1968Z" fill="#FFAA01"/>
<path d="M177.514 65.1968H178.815C178.996 65.1968 179.143 65.3438 179.143 65.5253C179.143 65.7067 178.996 65.8537 178.815 65.8537H177.514C177.333 65.8537 177.186 65.7067 177.186 65.5253C177.186 65.3438 177.333 65.1968 177.514 65.1968Z" fill="#FFAA01"/>
<path d="M45.7232 45.0444C46.8773 45.0444 47.8164 45.9836 47.8164 47.1377C47.8164 48.2919 46.8773 49.231 45.7232 49.231C44.569 49.231 43.6299 48.2919 43.6299 47.1377C43.6303 45.9832 44.569 45.0444 45.7232 45.0444ZM45.7232 45.701C44.9311 45.701 44.2869 46.3456 44.2869 47.1373C44.2869 47.9294 44.9311 48.5736 45.7232 48.5736C46.5152 48.5736 47.1599 47.9294 47.1599 47.1373C47.1599 46.3453 46.5152 45.701 45.7232 45.701Z" fill="#6B93F6"/>
<path d="M38.1001 38.1304C39.2543 38.1304 40.1934 39.0695 40.1934 40.2236C40.1934 41.3778 39.2543 42.3169 38.1001 42.3169C36.946 42.3169 36.0068 41.3778 36.0068 40.2236C36.0072 39.0691 36.946 38.1304 38.1001 38.1304ZM38.1001 38.787C37.308 38.787 36.6638 39.4312 36.6638 40.2233C36.6638 41.0153 37.308 41.6596 38.1001 41.6596C38.8922 41.6596 39.5364 41.0149 39.5364 40.2233C39.5368 39.4312 38.8926 38.787 38.1001 38.787Z" fill="#FFAA01"/>
<path d="M35.3398 50.0951C35.3398 50.2765 35.4869 50.4236 35.6683 50.4236H37.1162C37.2976 50.4236 37.4447 50.2765 37.4447 50.0951C37.4447 49.9137 37.2976 49.7666 37.1162 49.7666H35.6683C35.4869 49.7666 35.3398 49.9137 35.3398 50.0951Z" fill="#6B93F6"/>
<path d="M32.8057 50.0951C32.8057 50.2765 32.9527 50.4236 33.1341 50.4236H34.582C34.7635 50.4236 34.9105 50.2765 34.9105 50.0951C34.9105 49.9137 34.7635 49.7666 34.582 49.7666H33.1341C32.9523 49.7666 32.8057 49.9137 32.8057 50.0951Z" fill="#6B93F6"/>
<path d="M34.7959 48.0625V49.3633C34.7959 49.5447 34.943 49.6918 35.1244 49.6918C35.3058 49.6918 35.4529 49.5447 35.4529 49.3633V48.0625C35.4529 47.8811 35.3058 47.7344 35.1244 47.7344C34.943 47.7344 34.7959 47.8814 34.7959 48.0625Z" fill="#6B93F6"/>
<path d="M34.7959 50.8266V52.1275C34.7959 52.3089 34.943 52.4559 35.1244 52.4559C35.3058 52.4559 35.4529 52.3089 35.4529 52.1275V50.8266C35.4529 50.6452 35.3058 50.4985 35.1244 50.4985C34.943 50.4985 34.7959 50.6452 34.7959 50.8266Z" fill="#6B93F6"/>
<path d="M50.6719 38.787C50.6719 38.9684 50.8189 39.1155 51.0004 39.1155H52.4482C52.6297 39.1155 52.7767 38.9684 52.7767 38.787C52.7767 38.6056 52.6297 38.4585 52.4482 38.4585H51.0004C50.8189 38.4585 50.6719 38.6056 50.6719 38.787Z" fill="#FFAA01"/>
<path d="M48.1377 38.787C48.1377 38.9684 48.2848 39.1155 48.4662 39.1155H49.9141C50.0955 39.1155 50.2426 38.9684 50.2426 38.787C50.2426 38.6056 50.0955 38.4585 49.9141 38.4585H48.4662C48.2848 38.4585 48.1377 38.6056 48.1377 38.787Z" fill="#FFAA01"/>
<path d="M50.1289 36.7548V38.0556C50.1289 38.237 50.276 38.3841 50.457 38.3841C50.638 38.3841 50.7855 38.237 50.7855 38.0556V36.7548C50.7855 36.5733 50.6384 36.4263 50.457 36.4263C50.2756 36.4263 50.1289 36.5733 50.1289 36.7548Z" fill="#FFAA01"/>
<path d="M50.1289 39.5189V40.8197C50.1289 41.0012 50.276 41.1482 50.457 41.1482C50.638 41.1482 50.7855 41.0012 50.7855 40.8197V39.5189C50.7855 39.3375 50.6384 39.1904 50.457 39.1904C50.2756 39.1904 50.1289 39.3375 50.1289 39.5189Z" fill="#FFAA01"/>
<path d="M137.95 48.8917C137.994 48.9021 138.041 48.9025 138.089 48.8913C138.586 48.7689 138.873 48.7195 138.876 48.7191C139.027 48.6937 139.126 48.5582 139.099 48.4169C139.072 48.2756 138.928 48.1818 138.778 48.2073C138.765 48.2096 138.468 48.2602 137.948 48.3883C137.8 48.4246 137.711 48.5667 137.75 48.7056C137.777 48.8006 137.856 48.8693 137.95 48.8917Z" fill="#DCEDF9"/>
<path d="M121.863 60.8066C121.605 61.2482 121.356 61.706 121.124 62.1677C121.067 62.2819 120.931 62.3387 120.806 62.3089C120.789 62.3047 120.772 62.2993 120.755 62.292C120.617 62.2306 120.558 62.0758 120.623 61.9457C120.86 61.4748 121.114 61.0074 121.377 60.5565C121.451 60.4307 121.619 60.3844 121.753 60.4534C121.887 60.5225 121.936 60.6804 121.863 60.8066Z" fill="#DCEDF9"/>
<path d="M120.474 63.5678C120.275 64.0344 120.084 64.5165 119.91 65.0017C119.863 65.1311 119.718 65.2036 119.58 65.1704C119.573 65.1689 119.566 65.167 119.558 65.1646C119.414 65.1187 119.336 64.9709 119.385 64.835C119.563 64.3409 119.756 63.8492 119.96 63.374C120.017 63.2408 120.178 63.1764 120.32 63.2296C120.462 63.2833 120.531 63.4346 120.474 63.5678Z" fill="#DCEDF9"/>
<path d="M118.125 71.1832C117.991 71.1515 117.901 71.0299 117.919 70.8983C117.99 70.3811 118.073 69.8634 118.167 69.3601C118.193 69.2188 118.337 69.1242 118.488 69.1489C118.64 69.1748 118.739 69.3084 118.713 69.4496C118.621 69.9453 118.538 70.4548 118.469 70.9647C118.449 71.1071 118.31 71.2079 118.159 71.1893C118.147 71.1878 118.136 71.1859 118.125 71.1832Z" fill="#DCEDF9"/>
<path d="M119.237 66.1422C119.384 66.1808 119.471 66.3244 119.429 66.4626C119.361 66.6907 119.296 66.9219 119.235 67.1493C119.164 67.4117 119.095 67.68 119.032 67.9467C118.998 68.0868 118.85 68.1749 118.7 68.1432C118.698 68.1428 118.695 68.142 118.693 68.1417C118.548 68.1073 118.458 67.9703 118.491 67.8325C118.556 67.5611 118.626 67.2882 118.698 67.0215C118.76 66.7899 118.827 66.5548 118.896 66.3224C118.936 66.1862 119.085 66.1059 119.23 66.1403C119.233 66.1414 119.235 66.1418 119.237 66.1422Z" fill="#DCEDF9"/>
<path d="M122.689 59.4908C122.623 59.5884 122.5 59.6309 122.387 59.6039C122.359 59.5973 122.332 59.5865 122.307 59.5714C122.177 59.4946 122.139 59.3341 122.221 59.2129C122.516 58.7744 122.829 58.3397 123.152 57.9213C123.242 57.8051 123.415 57.7793 123.539 57.8634C123.663 57.9475 123.691 58.1101 123.601 58.2266C123.285 58.6362 122.978 59.0615 122.689 59.4908Z" fill="#DCEDF9"/>
<path d="M136.535 49.334C136.029 49.4961 135.517 49.6779 135.011 49.874C134.953 49.896 134.893 49.8991 134.837 49.886C134.755 49.8663 134.684 49.8122 134.649 49.7331C134.591 49.6003 134.658 49.4482 134.799 49.3938C135.316 49.1935 135.839 49.0082 136.355 48.8426C136.5 48.7963 136.658 48.8688 136.707 49.0047C136.756 49.1394 136.679 49.2873 136.535 49.334Z" fill="#DCEDF9"/>
<path d="M132.078 51.2051C132.013 51.2387 131.941 51.2456 131.875 51.2302C131.803 51.2132 131.74 51.17 131.701 51.1048C131.627 50.9793 131.675 50.821 131.808 50.7508C132.29 50.4983 132.786 50.2563 133.282 50.0309C133.42 49.9684 133.585 50.0224 133.652 50.1517C133.719 50.281 133.661 50.4366 133.523 50.4991C133.036 50.7199 132.55 50.9577 132.078 51.2051Z" fill="#DCEDF9"/>
<path d="M126.826 54.7954C126.754 54.8583 126.657 54.8788 126.568 54.8575C126.519 54.8456 126.472 54.8209 126.434 54.783C126.33 54.6784 126.335 54.5136 126.447 54.4156C126.849 54.0624 127.269 53.7157 127.695 53.3853C127.813 53.2938 127.987 53.3093 128.085 53.4201C128.182 53.5308 128.165 53.6949 128.048 53.786C127.63 54.1102 127.219 54.4495 126.826 54.7954Z" fill="#DCEDF9"/>
<path d="M129.334 52.8509C129.265 52.8984 129.18 52.9111 129.102 52.8926C129.042 52.8783 128.986 52.8447 128.947 52.7934C128.857 52.6772 128.884 52.5147 129.008 52.4302C129.452 52.1268 129.914 51.8311 130.381 51.5513C130.51 51.4737 130.681 51.5096 130.763 51.6304C130.846 51.7512 130.808 51.9122 130.679 51.9894C130.221 52.2638 129.769 52.5533 129.334 52.8509Z" fill="#DCEDF9"/>
<path d="M124.597 57.0195C124.526 57.0994 124.416 57.1299 124.315 57.106C124.277 57.0967 124.24 57.0798 124.207 57.0543C124.089 56.9628 124.072 56.7987 124.17 56.6884C124.522 56.2892 124.892 55.8955 125.269 55.5184C125.374 55.4138 125.549 55.4088 125.661 55.5072C125.772 55.6056 125.778 55.7701 125.673 55.8747C125.303 56.2437 124.941 56.6289 124.597 57.0195Z" fill="#DCEDF9"/>
<path d="M138.226 47.1321L137.666 42.7988L152.348 44.9041L138.226 47.1321Z" fill="#6B93F6"/>
<path d="M152.347 44.9038L138.785 48.2354L138.749 48.2446L138.067 49.0255L138.226 47.1322L152.347 44.9038Z" fill="#0077EB"/>
<path d="M138.067 49.0255L139.286 49.0105L138.749 48.2446L138.067 49.0255Z" fill="#0059D3"/>
<path d="M140.456 47.8252L138.749 48.2447L141.525 52.1974L152.348 44.9043L140.456 47.8252Z" fill="#6B93F6"/>
</svg>
