<svg width="150" height="62" viewBox="0 0 150 62" fill="none" xmlns="http://www.w3.org/2000/svg">
<path d="M1.23385 30.1503V8.37173H6.74071L12.0609 17.5187L17.3811 8.37173H22.8879V30.1503H18.47V14.5319L13.6165 22.6833H10.5053L5.65179 14.5319V30.1503H1.23385ZM35.6916 13.8475C40.794 13.8475 44.2786 17.6121 44.2786 22.31C44.2786 27.0079 40.794 30.7725 35.6916 30.7725C30.5892 30.7725 27.1046 27.0079 27.1046 22.31C27.1046 17.6121 30.5892 13.8475 35.6916 13.8475ZM35.7538 27.039C38.2739 27.039 40.1717 25.0168 40.1717 22.31C40.1717 19.5721 38.2739 17.5809 35.7538 17.5809C33.1404 17.5809 31.2114 19.5721 31.2114 22.31C31.2114 25.0479 33.1404 27.039 35.7538 27.039ZM47.8825 30.1503V14.4697H51.8337V15.7142C52.9226 14.6564 54.3849 13.8475 56.4694 13.8475C59.8607 13.8475 62.5674 16.1809 62.5674 20.8166V30.1503H58.5851V20.9722C58.5851 18.8877 57.4028 17.5809 55.4738 17.5809C53.4827 17.5809 52.4248 18.9188 51.8337 19.9144V30.1503H47.8825Z" fill="#DEE5FD"/>
<path d="M1.23385 30.1503H0.809596V30.5745H1.23385V30.1503ZM1.23385 8.37173V7.94747H0.809596V8.37173H1.23385ZM6.74071 8.37173L7.10745 8.15842L6.98475 7.94747H6.74071V8.37173ZM12.0609 17.5187L11.6942 17.732L12.0609 18.3625L12.4276 17.732L12.0609 17.5187ZM17.3811 8.37173V7.94747H17.137L17.0143 8.15842L17.3811 8.37173ZM22.8879 8.37173H23.3122V7.94747H22.8879V8.37173ZM22.8879 30.1503V30.5745H23.3122V30.1503H22.8879ZM18.47 30.1503H18.0458V30.5745H18.47V30.1503ZM18.47 14.5319H18.8943V12.9901L18.1055 14.3149L18.47 14.5319ZM13.6165 22.6833V23.1076H13.8577L13.981 22.9004L13.6165 22.6833ZM10.5053 22.6833L10.1408 22.9004L10.2641 23.1076H10.5053V22.6833ZM5.65179 14.5319L6.01632 14.3149L5.22753 12.9901V14.5319H5.65179ZM5.65179 30.1503V30.5745H6.07604V30.1503H5.65179ZM1.23385 30.1503H1.65811V8.37173H1.23385H0.809596V30.1503H1.23385ZM1.23385 8.37173V8.79599H6.74071V8.37173V7.94747H1.23385V8.37173ZM6.74071 8.37173L6.37398 8.58503L11.6942 17.732L12.0609 17.5187L12.4276 17.3054L7.10745 8.15842L6.74071 8.37173ZM12.0609 17.5187L12.4276 17.732L17.7478 8.58503L17.3811 8.37173L17.0143 8.15842L11.6942 17.3054L12.0609 17.5187ZM17.3811 8.37173V8.79599H22.8879V8.37173V7.94747H17.3811V8.37173ZM22.8879 8.37173H22.4637V30.1503H22.8879H23.3122V8.37173H22.8879ZM22.8879 30.1503V29.726H18.47V30.1503V30.5745H22.8879V30.1503ZM18.47 30.1503H18.8943V14.5319H18.47H18.0458V30.1503H18.47ZM18.47 14.5319L18.1055 14.3149L13.252 22.4663L13.6165 22.6833L13.981 22.9004L18.8345 14.749L18.47 14.5319ZM13.6165 22.6833V22.2591H10.5053V22.6833V23.1076H13.6165V22.6833ZM10.5053 22.6833L10.8698 22.4663L6.01632 14.3149L5.65179 14.5319L5.28725 14.749L10.1408 22.9004L10.5053 22.6833ZM5.65179 14.5319H5.22753V30.1503H5.65179H6.07604V14.5319H5.65179ZM5.65179 30.1503V29.726H1.23385V30.1503V30.5745H5.65179V30.1503ZM35.6916 13.8475V14.2717C40.5546 14.2717 43.8543 17.8412 43.8543 22.31H44.2786H44.7028C44.7028 17.3829 41.0334 13.4232 35.6916 13.4232V13.8475ZM44.2786 22.31H43.8543C43.8543 26.7788 40.5546 30.3483 35.6916 30.3483V30.7725V31.1968C41.0334 31.1968 44.7028 27.2371 44.7028 22.31H44.2786ZM35.6916 30.7725V30.3483C30.8286 30.3483 27.5289 26.7788 27.5289 22.31H27.1046H26.6804C26.6804 27.2371 30.3498 31.1968 35.6916 31.1968V30.7725ZM27.1046 22.31H27.5289C27.5289 17.8412 30.8286 14.2717 35.6916 14.2717V13.8475V13.4232C30.3498 13.4232 26.6804 17.3829 26.6804 22.31H27.1046ZM35.7538 27.039V27.4633C38.5344 27.4633 40.596 25.224 40.596 22.31H40.1717H39.7475C39.7475 24.8095 38.0134 26.6148 35.7538 26.6148V27.039ZM40.1717 22.31H40.596C40.596 19.363 38.5326 17.1567 35.7538 17.1567V17.5809V18.0052C38.0152 18.0052 39.7475 19.7812 39.7475 22.31H40.1717ZM35.7538 17.5809V17.1567C32.8911 17.1567 30.7872 19.353 30.7872 22.31H31.2114H31.6357C31.6357 19.7912 33.3896 18.0052 35.7538 18.0052V17.5809ZM31.2114 22.31H30.7872C30.7872 25.2669 32.8911 27.4633 35.7538 27.4633V27.039V26.6148C33.3896 26.6148 31.6357 24.8288 31.6357 22.31H31.2114ZM47.8825 30.1503H47.4582V30.5745H47.8825V30.1503ZM47.8825 14.4697V14.0455H47.4582V14.4697H47.8825ZM51.8337 14.4697H52.258V14.0455H51.8337V14.4697ZM51.8337 15.7142H51.4095V16.7178L52.1293 16.0185L51.8337 15.7142ZM62.5674 30.1503V30.5745H62.9917V30.1503H62.5674ZM58.5851 30.1503H58.1608V30.5745H58.5851V30.1503ZM51.8337 19.9144L51.4689 19.6978L51.4095 19.7979V19.9144H51.8337ZM51.8337 30.1503V30.5745H52.258V30.1503H51.8337ZM47.8825 30.1503H48.3067V14.4697H47.8825H47.4582V30.1503H47.8825ZM47.8825 14.4697V14.894H51.8337V14.4697V14.0455H47.8825V14.4697ZM51.8337 14.4697H51.4095V15.7142H51.8337H52.258V14.4697H51.8337ZM51.8337 15.7142L52.1293 16.0185C53.1518 15.0253 54.5118 14.2717 56.4694 14.2717V13.8475V13.4232C54.258 13.4232 52.6935 14.2875 51.5381 15.4099L51.8337 15.7142ZM56.4694 13.8475V14.2717C58.0658 14.2717 59.4727 14.8189 60.482 15.8853C61.4921 16.9524 62.1432 18.5815 62.1432 20.8166H62.5674H62.9917C62.9917 18.416 62.2894 16.5605 61.0983 15.302C59.9064 14.0428 58.2643 13.4232 56.4694 13.4232V13.8475ZM62.5674 20.8166H62.1432V30.1503H62.5674H62.9917V20.8166H62.5674ZM62.5674 30.1503V29.726H58.5851V30.1503V30.5745H62.5674V30.1503ZM58.5851 30.1503H59.0093V20.9722H58.5851H58.1608V30.1503H58.5851ZM58.5851 20.9722H59.0093C59.0093 19.8517 58.6908 18.8924 58.066 18.2086C57.437 17.5204 56.5385 17.1567 55.4738 17.1567V17.5809V18.0052C56.3381 18.0052 56.9953 18.2948 57.4396 18.7811C57.8882 19.2718 58.1608 20.0082 58.1608 20.9722H58.5851ZM55.4738 17.5809V17.1567C53.2505 17.1567 52.082 18.6652 51.4689 19.6978L51.8337 19.9144L52.1985 20.131C52.7677 19.1723 53.7148 18.0052 55.4738 18.0052V17.5809ZM51.8337 19.9144H51.4095V30.1503H51.8337H52.258V19.9144H51.8337ZM51.8337 30.1503V29.726H47.8825V30.1503V30.5745H51.8337V30.1503Z" fill="#1212FF"/>
<path d="M10.2777 33.6333C12.5306 33.6333 14.5173 34.0831 16.2376 34.9826C17.9784 35.8821 19.3301 37.1496 20.2928 38.7851C21.2554 40.4002 21.7367 42.2605 21.7367 44.3663C21.7367 46.472 21.2452 48.3425 20.262 49.978C19.2995 51.6135 17.9272 52.8811 16.1454 53.7806C14.3841 54.6801 12.3565 55.13 10.0627 55.13H1V33.6333H10.2777ZM10.4313 50.5914C11.5168 50.5914 12.4794 50.3358 13.3191 49.8247C14.1588 49.3137 14.8141 48.5879 15.2852 47.6474C15.7563 46.707 15.9919 45.6337 15.9919 44.4276C15.9919 43.201 15.7359 42.1174 15.2238 41.177C14.7323 40.2366 14.0462 39.5109 13.1655 38.9998C12.2848 38.4682 11.2813 38.2025 10.1548 38.2025H6.62194V50.5914H10.4313Z" fill="#1212FF"/>
<path d="M58.0684 33.6333H64.1818L70.4182 46.2062L76.6238 33.6333H82.7373V55.13H77.7605L77.7298 41.5144L72.2307 52.9833H68.6057L63.0758 41.5144V55.13H58.0684V33.6333Z" fill="#1212FF"/>
<path d="M91.5371 33.6333H97.159V55.13H91.5371V33.6333Z" fill="#1212FF"/>
<path d="M105.955 33.6333H122.053L122.022 38.1105H111.577V42.8943H121.223V47.3715H111.577V55.13H105.955V33.6333Z" fill="#1212FF"/>
<path d="M143.964 55.13L142.49 51.3274H133.181L131.676 55.13H125.9L135.147 33.6333H140.923L149.955 55.13H143.964ZM134.872 47.0342H140.831L137.882 39.3678L134.872 47.0342Z" fill="#1212FF"/>
<path fill-rule="evenodd" clip-rule="evenodd" d="M38.8488 35.1972C33.7589 35.1972 29.6327 39.316 29.6327 44.3969C29.6327 49.4777 33.7589 53.5965 38.8488 53.5965C43.939 53.5965 48.0652 49.4777 48.0652 44.3969C48.0652 39.316 43.939 35.1972 38.8488 35.1972ZM26.5605 44.3969C26.5605 37.6224 32.0622 32.1306 38.8488 32.1306C45.6355 32.1306 51.1373 37.6224 51.1373 44.3969C51.1373 51.1714 45.6355 56.6631 38.8488 56.6631C32.0622 56.6631 26.5605 51.1714 26.5605 44.3969Z" fill="#1212FF"/>
<path d="M38.8482 61.263L34.8574 54.3633H42.839L38.8482 61.263Z" fill="#1212FF"/>
<path d="M38.9414 37.8904C38.9688 37.8904 38.995 37.9017 39.0146 37.9207L44.6367 43.7908V43.7917C44.6477 43.8033 44.6558 43.8183 44.6592 43.8347V43.8357L44.6543 43.8865C44.6476 43.9019 44.6363 43.9151 44.6221 43.9246C44.6078 43.934 44.5906 43.9392 44.5732 43.9392H43.8057C43.6704 43.9392 43.5388 43.9794 43.4277 44.0535L43.3242 44.1384C43.1967 44.2659 43.1251 44.4388 43.125 44.6189V48.9656C43.125 49.0338 43.1048 49.1001 43.0674 49.156L43.0244 49.2078C42.9602 49.272 42.8726 49.3083 42.7812 49.3083H35.1016C35.0104 49.3083 34.9228 49.2721 34.8584 49.2078C34.7941 49.1435 34.7578 49.0564 34.7578 48.9656V44.6189C34.7578 44.4838 34.7175 44.3528 34.6436 44.2419L34.5586 44.1384L34.4551 44.0535C34.3443 43.9796 34.2134 43.9393 34.0781 43.9392H33.3096C33.2921 43.9392 33.2749 43.9339 33.2607 43.9246C33.2464 43.9151 33.2351 43.9018 33.2285 43.8865V43.8855L33.2227 43.8367C33.2257 43.8203 33.2332 43.8042 33.2451 43.7917L33.2461 43.7908L38.8682 37.9207C38.8876 37.9018 38.9138 37.8904 38.9414 37.8904Z" fill="#DEE5FD" stroke="#1212FF" stroke-width="0.848514"/>
</svg>
