<svg width="264" height="107" viewBox="0 0 264 107" fill="none" xmlns="http://www.w3.org/2000/svg">
<g clip-path="url(#clip0_671_18272)">
<path d="M0.415 51.2495V12.7495H10.15L19.555 28.9195L28.96 12.7495H38.695V51.2495H30.885V23.6395L22.305 38.0495H16.805L8.225 23.6395V51.2495H0.415ZM61.3292 22.4295C70.3492 22.4295 76.5092 29.0845 76.5092 37.3895C76.5092 45.6945 70.3492 52.3495 61.3292 52.3495C52.3092 52.3495 46.1492 45.6945 46.1492 37.3895C46.1492 29.0845 52.3092 22.4295 61.3292 22.4295ZM61.4392 45.7495C65.8942 45.7495 69.2492 42.1745 69.2492 37.3895C69.2492 32.5495 65.8942 29.0295 61.4392 29.0295C56.8192 29.0295 53.4092 32.5495 53.4092 37.3895C53.4092 42.2295 56.8192 45.7495 61.4392 45.7495ZM82.8802 51.2495V23.5295H89.8652V25.7295C91.7902 23.8595 94.3752 22.4295 98.0602 22.4295C104.055 22.4295 108.84 26.5545 108.84 34.7495V51.2495H101.8V35.0245C101.8 31.3395 99.7102 29.0295 96.3002 29.0295C92.7802 29.0295 90.9102 31.3945 89.8652 33.1545V51.2495H82.8802Z" fill="#DEE5FD"/>
<path d="M0.415 51.2495H-0.335V51.9995H0.415V51.2495ZM0.415 12.7495V11.9995H-0.335V12.7495H0.415ZM10.15 12.7495L10.7983 12.3724L10.5814 11.9995H10.15V12.7495ZM19.555 28.9195L18.9067 29.2966L19.555 30.4112L20.2033 29.2966L19.555 28.9195ZM28.96 12.7495V11.9995H28.5286L28.3117 12.3724L28.96 12.7495ZM38.695 12.7495H39.445V11.9995H38.695V12.7495ZM38.695 51.2495V51.9995H39.445V51.2495H38.695ZM30.885 51.2495H30.135V51.9995H30.885V51.2495ZM30.885 23.6395H31.635V20.9139L30.2406 23.2558L30.885 23.6395ZM22.305 38.0495V38.7995H22.7313L22.9494 38.4332L22.305 38.0495ZM16.805 38.0495L16.1606 38.4332L16.3787 38.7995H16.805V38.0495ZM8.225 23.6395L8.86942 23.2558L7.475 20.9139V23.6395H8.225ZM8.225 51.2495V51.9995H8.975V51.2495H8.225ZM0.415 51.2495H1.165V12.7495H0.415H-0.335V51.2495H0.415ZM0.415 12.7495V13.4995H10.15V12.7495V11.9995H0.415V12.7495ZM10.15 12.7495L9.50169 13.1266L18.9067 29.2966L19.555 28.9195L20.2033 28.5424L10.7983 12.3724L10.15 12.7495ZM19.555 28.9195L20.2033 29.2966L29.6083 13.1266L28.96 12.7495L28.3117 12.3724L18.9067 28.5424L19.555 28.9195ZM28.96 12.7495V13.4995H38.695V12.7495V11.9995H28.96V12.7495ZM38.695 12.7495H37.945V51.2495H38.695H39.445V12.7495H38.695ZM38.695 51.2495V50.4995H30.885V51.2495V51.9995H38.695V51.2495ZM30.885 51.2495H31.635V23.6395H30.885H30.135V51.2495H30.885ZM30.885 23.6395L30.2406 23.2558L21.6606 37.6658L22.305 38.0495L22.9494 38.4332L31.5294 24.0232L30.885 23.6395ZM22.305 38.0495V37.2995H16.805V38.0495V38.7995H22.305V38.0495ZM16.805 38.0495L17.4494 37.6658L8.86942 23.2558L8.225 23.6395L7.58058 24.0232L16.1606 38.4332L16.805 38.0495ZM8.225 23.6395H7.475V51.2495H8.225H8.975V23.6395H8.225ZM8.225 51.2495V50.4995H0.415V51.2495V51.9995H8.225V51.2495ZM61.3292 22.4295V23.1795C69.926 23.1795 75.7592 29.4896 75.7592 37.3895H76.5092H77.2592C77.2592 28.6794 70.7725 21.6795 61.3292 21.6795V22.4295ZM76.5092 37.3895H75.7592C75.7592 45.2894 69.926 51.5995 61.3292 51.5995V52.3495V53.0995C70.7725 53.0995 77.2592 46.0996 77.2592 37.3895H76.5092ZM61.3292 52.3495V51.5995C52.7325 51.5995 46.8992 45.2894 46.8992 37.3895H46.1492H45.3992C45.3992 46.0996 51.886 53.0995 61.3292 53.0995V52.3495ZM46.1492 37.3895H46.8992C46.8992 29.4896 52.7325 23.1795 61.3292 23.1795V22.4295V21.6795C51.886 21.6795 45.3992 28.6794 45.3992 37.3895H46.1492ZM61.4392 45.7495V46.4995C66.3548 46.4995 69.9992 42.5408 69.9992 37.3895H69.2492H68.4992C68.4992 41.8082 65.4337 44.9995 61.4392 44.9995V45.7495ZM69.2492 37.3895H69.9992C69.9992 32.1798 66.3516 28.2795 61.4392 28.2795V29.0295V29.7795C65.4368 29.7795 68.4992 32.9192 68.4992 37.3895H69.2492ZM61.4392 29.0295V28.2795C56.3786 28.2795 52.6592 32.1622 52.6592 37.3895H53.4092H54.1592C54.1592 32.9368 57.2599 29.7795 61.4392 29.7795V29.0295ZM53.4092 37.3895H52.6592C52.6592 42.6168 56.3786 46.4995 61.4392 46.4995V45.7495V44.9995C57.2599 44.9995 54.1592 41.8422 54.1592 37.3895H53.4092ZM82.8802 51.2495H82.1302V51.9995H82.8802V51.2495ZM82.8802 23.5295V22.7795H82.1302V23.5295H82.8802ZM89.8652 23.5295H90.6152V22.7795H89.8652V23.5295ZM89.8652 25.7295H89.1152V27.5037L90.3878 26.2675L89.8652 25.7295ZM108.84 51.2495V51.9995H109.59V51.2495H108.84ZM101.8 51.2495H101.05V51.9995H101.8V51.2495ZM89.8652 33.1545L89.2203 32.7716L89.1152 32.9486V33.1545H89.8652ZM89.8652 51.2495V51.9995H90.6152V51.2495H89.8652ZM82.8802 51.2495H83.6302V23.5295H82.8802H82.1302V51.2495H82.8802ZM82.8802 23.5295V24.2795H89.8652V23.5295V22.7795H82.8802V23.5295ZM89.8652 23.5295H89.1152V25.7295H89.8652H90.6152V23.5295H89.8652ZM89.8652 25.7295L90.3878 26.2675C92.1953 24.5116 94.5995 23.1795 98.0602 23.1795V22.4295V21.6795C94.1508 21.6795 91.3851 23.2074 89.3426 25.1916L89.8652 25.7295ZM98.0602 22.4295V23.1795C100.882 23.1795 103.369 24.1468 105.154 26.0319C106.939 27.9184 108.09 30.7983 108.09 34.7495H108.84H109.59C109.59 30.5057 108.349 27.2256 106.243 25.0008C104.136 22.7747 101.233 21.6795 98.0602 21.6795V22.4295ZM108.84 34.7495H108.09V51.2495H108.84H109.59V34.7495H108.84ZM108.84 51.2495V50.4995H101.8V51.2495V51.9995H108.84V51.2495ZM101.8 51.2495H102.55V35.0245H101.8H101.05V51.2495H101.8ZM101.8 35.0245H102.55C102.55 33.0437 101.987 31.3478 100.883 30.1392C99.7706 28.9225 98.1823 28.2795 96.3002 28.2795V29.0295V29.7795C97.828 29.7795 98.9898 30.2915 99.7753 31.1511C100.568 32.0187 101.05 33.3203 101.05 35.0245H101.8ZM96.3002 29.0295V28.2795C92.3698 28.2795 90.3041 30.9463 89.2203 32.7716L89.8652 33.1545L90.5101 33.5374C91.5163 31.8428 93.1906 29.7795 96.3002 29.7795V29.0295ZM89.8652 33.1545H89.1152V51.2495H89.8652H90.6152V33.1545H89.8652ZM89.8652 51.2495V50.4995H82.8802V51.2495V51.9995H89.8652V51.2495Z" fill="#1212FF"/>
<path d="M16.4011 58.1562C20.3837 58.1562 23.8957 58.9513 26.9369 60.5415C30.0144 62.1317 32.4039 64.3724 34.1057 67.2636C35.8074 70.1187 36.6582 73.4075 36.6582 77.1299C36.6582 80.8524 35.7893 84.1591 34.0513 87.0504C32.3497 89.9416 29.9239 92.1824 26.7739 93.7725C23.6603 95.3627 20.076 96.1579 16.021 96.1579H0V58.1562H16.4011ZM16.6727 88.1347C18.5916 88.1347 20.2932 87.6829 21.7777 86.7793C23.2621 85.876 24.4206 84.5929 25.2533 82.9304C26.0861 81.2679 26.5026 79.3706 26.5026 77.2384C26.5026 75.0699 26.05 73.1545 25.1447 71.492C24.2759 69.8296 23.063 68.5466 21.5061 67.6431C19.9493 66.7034 18.1752 66.2336 16.1839 66.2336H9.93844V88.1347H16.6727Z" fill="#1212FF"/>
<path d="M100.885 58.1562H111.692L122.717 80.3825L133.687 58.1562H144.494V96.1579H135.696L135.642 72.0883L125.921 92.3631H119.513L109.737 72.0883V96.1579H100.885V58.1562Z" fill="#1212FF"/>
<path d="M160.051 58.1562H169.989V96.1579H160.051V58.1562Z" fill="#1212FF"/>
<path d="M185.539 58.1562H213.997L213.942 66.071H195.478V74.5278H212.53V82.4425H195.478V96.1579H185.539V58.1562Z" fill="#1212FF"/>
<path d="M252.733 96.1579L250.127 89.4358H233.671L231.01 96.1579H220.8L237.147 58.1562H247.357L263.323 96.1579H252.733ZM236.659 81.8463H247.193L241.98 68.2936L236.659 81.8463Z" fill="#1212FF"/>
<path fill-rule="evenodd" clip-rule="evenodd" d="M66.9097 60.9206C57.9117 60.9206 50.6174 68.2018 50.6174 77.1837C50.6174 86.1657 57.9117 93.4468 66.9097 93.4468C75.908 93.4468 83.2023 86.1657 83.2023 77.1837C83.2023 68.2018 75.908 60.9206 66.9097 60.9206ZM45.1865 77.1837C45.1865 65.2079 54.9123 55.4995 66.9097 55.4995C78.9072 55.4995 88.6331 65.2079 88.6331 77.1837C88.6331 89.1597 78.9072 98.8679 66.9097 98.8679C54.9123 98.8679 45.1865 89.1597 45.1865 77.1837Z" fill="#1212FF"/>
<path d="M66.9084 107L59.8535 94.8022H73.9632L66.9084 107Z" fill="#1212FF"/>
<path d="M67.0713 65.6826C67.1187 65.6827 67.1638 65.7012 67.1982 65.7334L77.1387 76.1133H77.1396C77.1599 76.1344 77.174 76.1629 77.1797 76.1934C77.1849 76.2229 77.1817 76.2534 77.1699 76.2812C77.1581 76.3088 77.1387 76.3329 77.1133 76.3496C77.088 76.3663 77.0579 76.375 77.0273 76.375H75.6699C75.3514 76.375 75.045 76.5012 74.8193 76.7266C74.5935 76.9521 74.4668 77.2584 74.4668 77.5771V85.2607C74.4668 85.4213 74.4029 85.5749 74.2891 85.6885V85.6895C74.1756 85.8029 74.0209 85.8672 73.8594 85.8672H60.2832C60.122 85.8671 59.9674 85.8032 59.8535 85.6895V85.6885C59.7398 85.5749 59.6758 85.4212 59.6758 85.2607V77.5771C59.6758 77.2583 59.5492 76.9521 59.3232 76.7266C59.0979 76.5016 58.7925 76.375 58.4736 76.375H57.1143C57.0988 76.375 57.0838 76.3725 57.0693 76.3682L57.0283 76.3496C57.0157 76.3413 57.0046 76.3307 56.9951 76.3193L56.9717 76.2812L56.96 76.2383C56.9583 76.2237 56.9593 76.2089 56.9619 76.1943V76.1934C56.9672 76.1643 56.9808 76.1362 57.002 76.1143L57.0029 76.1133L66.9434 65.7334C66.9775 65.7011 67.0234 65.6826 67.0713 65.6826Z" fill="#DEE5FD" stroke="#1212FF" stroke-width="1.5"/>
</g>
<defs>
<clipPath id="clip0_671_18272">
<rect width="263.323" height="107" fill="white" transform="translate(0 -0.000488281)"/>
</clipPath>
</defs>
</svg>
