<svg width="258" height="258" viewBox="0 0 258 258" fill="none" xmlns="http://www.w3.org/2000/svg">
<path d="M130.409 214.165C190.279 214.165 238.814 211.131 238.814 207.387C238.814 203.644 190.279 200.61 130.409 200.61C70.5378 200.61 22.0029 203.644 22.0029 207.387C22.0029 211.131 70.5378 214.165 130.409 214.165Z" fill="#E6F5FF"/>
<path d="M90.2384 211.883C100.786 211.883 109.337 211.274 109.337 210.523C109.337 209.771 100.786 209.162 90.2384 209.162C79.6905 209.162 71.1396 209.771 71.1396 210.523C71.1396 211.274 79.6905 211.883 90.2384 211.883Z" fill="#D4ECFF"/>
<path d="M171.759 211.26C186.639 211.26 198.702 210.384 198.702 209.304C198.702 208.224 186.639 207.349 171.759 207.349C156.878 207.349 144.815 208.224 144.815 209.304C144.815 210.384 156.878 211.26 171.759 211.26Z" fill="#D4ECFF"/>
<path d="M36.187 122.417C60.8127 106.042 51.1346 59.4104 94.4199 59.4104C137.706 59.4104 113.416 83.3978 157.013 73.8027C200.61 64.2077 182.738 126.512 208.084 135.683C238.619 146.73 247.944 176.789 224.9 204.934H33.6958C33.6958 204.934 -0.558975 146.853 36.187 122.417Z" fill="#D4ECFF"/>
<path d="M83.6733 60.4507L83.6016 60.5116C83.6016 60.5116 83.648 60.4842 83.7352 60.4373C83.7146 60.4419 83.6934 60.446 83.6733 60.4507Z" fill="#D4ECFF"/>
<path opacity="0.18" d="M224.66 204.881C247.704 176.736 238.379 146.677 207.844 135.63C182.498 126.46 200.371 64.1546 156.774 73.7496C113.177 83.3447 137.466 59.3573 94.1806 59.3573C93.9246 59.3573 93.6795 59.3671 93.4277 59.3702C98.2111 60.3398 104.309 63.62 110.727 72.3193C125.088 91.7864 134.981 98.8072 157.639 93.3819C180.297 87.9567 149.022 154.017 187.318 158.165C214.951 161.159 200.049 187.08 185.171 204.881H224.66V204.881Z" fill="#E6EEFE"/>
<path d="M220.825 120.516V133.643C220.825 137.089 218.002 139.912 214.551 139.912H201.424C197.978 139.912 195.155 137.089 195.155 133.643V120.516C195.155 117.065 197.978 114.242 201.424 114.242H214.551C218.002 114.243 220.825 117.065 220.825 120.516Z" fill="#FFAA00"/>
<path d="M207.831 119.683C204.079 119.809 201.023 122.859 200.89 126.61C200.829 128.328 201.372 129.917 202.322 131.182C202.709 131.699 202.852 132.359 202.706 132.988L202.248 134.963L204.667 133.898C205.131 133.694 205.651 133.66 206.14 133.797C206.904 134.011 207.719 134.103 208.563 134.046C212.159 133.808 215.053 130.889 215.258 127.292C215.5 123.046 212.056 119.542 207.831 119.683ZM204.891 127.28C204.652 127.28 204.459 127.087 204.459 126.848C204.459 126.609 204.652 126.415 204.891 126.415C205.13 126.415 205.323 126.609 205.323 126.848C205.323 127.087 205.13 127.28 204.891 127.28ZM207.965 127.28C207.726 127.28 207.532 127.087 207.532 126.848C207.532 126.609 207.726 126.415 207.965 126.415C208.204 126.415 208.397 126.609 208.397 126.848C208.397 127.087 208.203 127.28 207.965 127.28ZM211.207 127.28C210.968 127.28 210.774 127.087 210.774 126.848C210.774 126.609 210.968 126.415 211.207 126.415C211.446 126.415 211.639 126.609 211.639 126.848C211.639 127.087 211.446 127.28 211.207 127.28Z" fill="white"/>
<path d="M49.0385 126.867V139.495C49.0385 142.816 46.3218 145.533 43.0008 145.533H30.3727C27.0522 145.533 24.335 142.816 24.335 139.495V126.867C24.335 123.546 27.0517 120.829 30.3727 120.829H43.0013C46.3218 120.829 49.0385 123.546 49.0385 126.867Z" fill="#FFAA00"/>
<path d="M40.2075 125.85H32.7105C30.7399 125.85 29.1279 127.462 29.1279 129.433V136.93C29.1279 138.901 30.7404 140.513 32.7105 140.513H40.2075C42.1781 140.513 43.7901 138.9 43.7901 136.93V129.433C43.7901 127.462 42.1781 125.85 40.2075 125.85ZM39.2266 133.799L34.7596 136.496C34.2848 136.783 33.6791 136.441 33.6791 135.887V130.492C33.6791 129.938 34.2848 129.596 34.7596 129.882L39.2266 132.58C39.6858 132.857 39.6858 133.522 39.2266 133.799Z" fill="white"/>
<path d="M137.401 65.861V79.2321C137.401 82.7466 134.526 85.6223 131.011 85.6223H117.64C114.126 85.6223 111.25 82.7466 111.25 79.2321V65.861C111.25 62.3465 114.126 59.4708 117.64 59.4708H131.011C134.526 59.4708 137.401 62.3465 137.401 65.861Z" fill="#53A4F4"/>
<path d="M115.838 73.7543C115.508 73.8684 115.334 74.2285 115.454 74.5588L115.838 75.6517C115.959 75.9757 116.319 76.1501 116.643 76.0361L117.195 75.8379L116.384 73.5624L115.838 73.7543Z" fill="#0D5DBC"/>
<path d="M122.581 76.677L120.215 77.5176C120.204 77.5176 120.197 77.5232 120.186 77.5294L121.296 80.6698C121.326 80.7601 121.404 80.82 121.495 80.8318L123.776 81.078C123.95 81.096 124.089 80.9216 124.029 80.7539L122.581 76.677Z" fill="#0D5DBC"/>
<path d="M132.85 74.6062L131.714 71.4003C132.173 71.0396 132.474 70.4927 132.474 69.8632C132.474 68.7698 131.589 67.8889 130.501 67.8889C130.49 67.8889 130.481 67.8905 130.47 67.891L129.342 64.7078C129.189 64.2733 128.711 64.0458 128.277 64.2C127.842 64.3538 127.615 64.8311 127.769 65.2656L131.276 75.164C131.43 75.5985 131.907 75.8261 132.342 75.6718C132.777 75.5175 133.004 75.0407 132.85 74.6062Z" fill="#0D5DBC"/>
<path d="M120.77 70.2176L117.96 71.2135C117.167 71.4947 116.752 72.3652 117.033 73.1583L117.969 75.7977C118.245 76.5784 119.093 76.9891 119.876 76.7337L119.877 76.7363C119.888 76.7363 119.9 76.7306 119.911 76.7249L119.913 76.7244L122.72 75.7296L122.726 75.7357C122.726 75.7357 128.682 74.2672 130.433 75.3792L126.982 65.6417C126.323 67.6077 120.77 70.2176 120.77 70.2176Z" fill="#0D5DBC"/>
<path d="M58.6816 193.146C58.6398 193.132 62.1693 190.363 64.3824 186.409C66.6595 182.574 67.6208 177.553 63.9185 175.787C58.6635 173.492 63.4515 165.211 59.5005 164.639C55.6795 164.35 56.2868 166.343 54.2001 161.268C51.8838 156.215 48.0319 157.262 43.5122 154.42C38.7268 151.726 36.2211 157.916 40.9946 162.441C45.6417 167.302 39.6515 163.096 39.7908 166.63C39.8646 169.576 51.1036 174.784 48.2506 175.571C45.4606 176.073 44.5401 178.67 46.5076 180.928C51.214 186.01 58.7095 192.962 58.6816 193.146Z" fill="#53A4F4"/>
<path opacity="0.39" d="M58.5667 196.621C58.592 196.606 58.6059 196.582 58.609 196.549C59.1776 191.237 58.9067 183.846 56.4098 176.756C56.4036 176.737 56.3969 176.719 56.3907 176.701C56.3985 176.684 56.4062 176.667 56.4134 176.65C57.2901 174.725 57.786 172.549 58.1529 170.384C58.2746 169.67 58.3851 168.949 58.4945 168.225C58.5007 168.184 58.4903 168.16 58.4573 168.142C58.4109 168.116 58.3428 168.12 58.3149 168.165C58.3082 168.176 58.303 168.19 58.301 168.206C58.1941 168.913 58.0868 169.617 57.9687 170.316C57.6317 172.313 57.1848 174.323 56.4258 176.135C56.3835 176.235 56.3417 176.335 56.2989 176.435C56.2602 176.328 56.2215 176.22 56.1817 176.112C55.0976 173.15 53.6606 170.22 51.755 167.265C51.7379 167.239 51.7214 167.213 51.7044 167.187L51.7488 167.113C51.7581 167.096 51.7606 167.085 51.7606 167.07C51.7183 164.722 51.3164 162.293 50.5496 159.914C50.5362 159.872 50.514 159.851 50.4773 159.844C50.4314 159.836 50.3819 159.858 50.3674 159.894C50.3602 159.911 50.3607 159.933 50.369 159.959C51.0713 162.138 51.467 164.365 51.5558 166.529C51.562 166.679 51.5677 166.83 51.5728 166.981C51.4877 166.852 51.4015 166.723 51.3153 166.594C49.4629 163.834 47.2606 161.151 44.55 158.525C44.5175 158.493 44.4974 158.497 44.4902 158.499C44.4613 158.504 44.4329 158.532 44.4205 158.567C44.4061 158.609 44.4159 158.647 44.4499 158.68C48.1424 162.262 50.9412 166.008 53.0795 169.814C53.1244 169.894 53.1693 169.975 53.2137 170.055C53.128 170.041 53.0424 170.027 52.9567 170.013C50.0671 169.548 47.3339 168.751 44.7451 167.663C44.7146 167.65 44.6935 167.65 44.6749 167.685C44.6589 167.715 44.6558 167.756 44.6672 167.789C44.677 167.817 44.6961 167.837 44.7255 167.849C47.4056 168.98 50.2395 169.798 53.2452 170.258C53.272 170.26 53.2988 170.262 53.3257 170.265C53.3386 170.288 53.3515 170.311 53.3644 170.335C54.5341 172.49 55.447 174.565 56.1781 176.64C56.1823 176.652 56.1869 176.664 56.191 176.677C56.189 176.689 56.1864 176.702 56.1843 176.714C56.1786 176.747 56.1895 176.775 56.2163 176.799C56.2261 176.807 56.2359 176.816 56.2452 176.824C56.2493 176.837 56.254 176.849 56.2581 176.862C56.8918 178.697 57.4279 180.662 57.8489 182.851C57.8716 182.971 57.8943 183.09 57.9165 183.209C57.8252 183.131 57.7334 183.053 57.6415 182.975C55.046 180.777 52.2204 179.02 49.3473 177.755C49.306 177.737 49.2699 177.746 49.2405 177.781C49.2193 177.807 49.209 177.841 49.2147 177.867C49.2173 177.879 49.225 177.896 49.2575 177.911C52.2813 179.242 55.2395 181.113 57.93 183.46C57.9429 183.472 57.9558 183.482 57.9687 183.494C57.9718 183.511 57.9748 183.528 57.9779 183.545C58.641 187.379 58.9083 191.586 58.4243 196.557C58.4196 196.602 58.4382 196.615 58.447 196.62C58.479 196.642 58.5311 196.642 58.5667 196.621Z" fill="#092B96"/>
<path d="M69.1052 201.876C69.002 202.271 65.6238 193.128 56.5215 186.429C48.058 179.455 33.8696 174.926 26.9066 178.168C13.3807 184.304 23.6976 190.886 30.8066 188.667C38.1807 186.987 32.3427 197.425 40.4207 195.259C48.4368 193.757 48.2541 196.512 52.8285 196.179C57.7986 195.545 69.4282 201.56 69.1052 201.876Z" fill="#328DD8"/>
<path d="M205.898 187.825C205.925 187.789 201.448 187.502 197.386 185.493C193.339 183.618 189.707 180.021 191.761 176.471C194.797 171.606 186.165 167.485 189.1 164.779C192.088 162.38 192.714 164.366 191.564 159C190.616 153.523 194.386 152.208 196.506 147.308C198.928 142.379 204.496 146.067 203.118 152.499C202.035 159.136 204.596 152.279 206.48 155.273C208.086 157.744 201.762 168.395 204.56 167.431C207.145 166.268 209.373 167.889 209.028 170.864C208.022 177.716 205.771 187.688 205.898 187.825Z" fill="#328DD8"/>
<path opacity="0.39" d="M207.959 190.626C207.93 190.628 207.905 190.616 207.883 190.59C204.41 186.531 200.453 180.283 198.502 173.023C198.497 173.005 198.492 172.986 198.487 172.966C198.471 172.957 198.455 172.947 198.439 172.938C196.628 171.847 194.988 170.333 193.461 168.754C192.957 168.234 192.458 167.702 191.959 167.168C191.93 167.137 191.926 167.112 191.942 167.078C191.966 167.03 192.024 166.994 192.072 167.016C192.084 167.021 192.096 167.03 192.107 167.042C192.595 167.565 193.082 168.085 193.574 168.594C194.982 170.05 196.488 171.456 198.138 172.52C198.229 172.579 198.321 172.638 198.412 172.696C198.384 172.585 198.355 172.475 198.326 172.364C197.545 169.307 197.073 166.079 196.973 162.564C196.972 162.533 196.972 162.502 196.971 162.471L196.892 162.435C196.875 162.427 196.867 162.419 196.859 162.407C195.565 160.446 194.523 158.216 193.81 155.82C193.797 155.778 193.803 155.748 193.829 155.722C193.863 155.689 193.916 155.679 193.948 155.701C193.964 155.711 193.975 155.728 193.983 155.755C194.636 157.949 195.569 160.01 196.72 161.845C196.8 161.973 196.881 162.1 196.961 162.226C196.959 162.072 196.956 161.917 196.955 161.762C196.921 158.438 197.22 154.98 197.97 151.281C197.979 151.237 197.998 151.228 198.005 151.225C198.031 151.213 198.071 151.22 198.101 151.243C198.137 151.269 198.15 151.306 198.14 151.353C197.121 156.395 196.931 161.067 197.321 165.416C197.329 165.507 197.338 165.599 197.346 165.69C197.409 165.63 197.472 165.57 197.535 165.511C199.655 163.493 201.458 161.29 202.977 158.929C202.995 158.901 203.013 158.889 203.048 158.907C203.079 158.923 203.104 158.955 203.113 158.989C203.121 159.018 203.116 159.045 203.099 159.072C201.529 161.52 199.654 163.797 197.436 165.877C197.415 165.894 197.394 165.911 197.373 165.928C197.376 165.955 197.379 165.981 197.381 166.008C197.635 168.446 198.056 170.674 198.627 172.798C198.63 172.811 198.633 172.824 198.637 172.836C198.646 172.845 198.654 172.854 198.663 172.863C198.686 172.886 198.694 172.916 198.685 172.951C198.682 172.963 198.679 172.976 198.676 172.989C198.679 173.001 198.682 173.014 198.686 173.026C199.201 174.898 199.871 176.822 200.761 178.865C200.81 178.977 200.859 179.088 200.908 179.199C200.939 179.083 200.971 178.967 201.003 178.85C201.9 175.569 203.237 172.522 204.89 169.854C204.914 169.815 204.949 169.802 204.994 169.815C205.025 169.825 205.054 169.847 205.064 169.871C205.068 169.883 205.072 169.901 205.053 169.932C203.313 172.74 201.931 175.956 201.04 179.413C201.036 179.43 201.031 179.446 201.027 179.463C201.034 179.479 201.041 179.494 201.049 179.51C202.67 183.048 204.829 186.668 208.04 190.493C208.069 190.528 208.061 190.549 208.057 190.559C208.044 190.594 208 190.623 207.959 190.626Z" fill="#092B96"/>
<path d="M200.24 192.545C200.284 192.541 197.544 188.99 196.37 184.613C195.105 180.335 195.407 175.233 199.429 174.43C205.087 173.497 202.481 164.294 206.452 164.709C210.226 165.368 209.148 167.151 212.418 162.744C215.905 158.415 219.382 160.377 224.461 158.733C229.762 157.297 230.67 163.913 224.93 167.127C219.231 170.697 226.071 168.091 225.068 171.483C224.272 174.321 212.099 176.607 214.67 178.071C217.251 179.244 217.505 181.987 215.043 183.693C209.233 187.464 200.258 192.359 200.24 192.545Z" fill="#53A4F4"/>
<path opacity="0.39" d="M199.497 195.941C199.477 195.921 199.469 195.894 199.474 195.861C200.228 190.572 202.307 183.475 206.47 177.215C206.48 177.199 206.491 177.183 206.502 177.166C206.499 177.148 206.495 177.13 206.492 177.111C206.116 175.03 206.169 172.8 206.346 170.61C206.403 169.887 206.473 169.162 206.545 168.434C206.549 168.392 206.565 168.372 206.601 168.362C206.652 168.349 206.718 168.368 206.733 168.419C206.737 168.432 206.738 168.447 206.737 168.463C206.667 169.174 206.598 169.883 206.541 170.589C206.377 172.608 206.316 174.667 206.606 176.609C206.622 176.717 206.639 176.824 206.655 176.931C206.719 176.836 206.783 176.742 206.848 176.647C208.627 174.042 210.74 171.555 213.313 169.159C213.336 169.138 213.358 169.117 213.381 169.095L213.356 169.013C213.351 168.995 213.351 168.983 213.355 168.969C213.973 166.703 214.959 164.448 216.287 162.33C216.31 162.292 216.337 162.276 216.374 162.28C216.421 162.283 216.463 162.317 216.469 162.355C216.471 162.373 216.466 162.394 216.451 162.417C215.235 164.357 214.304 166.418 213.686 168.494C213.644 168.639 213.601 168.784 213.559 168.928C213.674 168.824 213.788 168.72 213.903 168.617C216.377 166.396 219.172 164.337 222.444 162.458C222.483 162.435 222.502 162.444 222.509 162.447C222.535 162.459 222.556 162.493 222.559 162.53C222.563 162.574 222.544 162.609 222.503 162.632C218.044 165.198 214.41 168.14 211.402 171.304C211.338 171.371 211.275 171.438 211.212 171.505C211.299 171.512 211.385 171.52 211.471 171.527C214.387 171.787 217.232 171.686 220.008 171.267C220.041 171.262 220.062 171.267 220.071 171.306C220.079 171.34 220.072 171.379 220.053 171.409C220.036 171.433 220.013 171.448 219.982 171.453C217.106 171.89 214.158 171.987 211.132 171.694C211.105 171.69 211.079 171.685 211.052 171.681C211.034 171.701 211.015 171.72 210.997 171.74C209.333 173.541 207.939 175.329 206.72 177.16C206.713 177.171 206.706 177.182 206.699 177.193C206.698 177.205 206.697 177.218 206.696 177.23C206.694 177.263 206.676 177.288 206.645 177.304C206.633 177.311 206.621 177.316 206.61 177.323C206.603 177.333 206.596 177.344 206.588 177.355C205.523 178.978 204.521 180.751 203.574 182.769C203.523 182.88 203.472 182.99 203.421 183.1C203.528 183.047 203.637 182.993 203.745 182.941C206.801 181.447 209.972 180.439 213.068 179.919C213.113 179.911 213.145 179.928 213.165 179.97C213.179 180.001 213.181 180.037 213.169 180.06C213.163 180.071 213.152 180.086 213.117 180.092C209.858 180.64 206.531 181.726 203.346 183.34C203.331 183.348 203.316 183.356 203.3 183.363C203.293 183.379 203.286 183.395 203.279 183.411C201.694 186.964 200.401 190.976 199.649 195.914C199.642 195.959 199.621 195.967 199.611 195.97C199.577 195.984 199.527 195.971 199.497 195.941Z" fill="#092B96"/>
<path d="M189.273 199.111C189.273 199.111 220.484 175.253 230.308 177.316C240.132 179.379 233.934 189.737 227.62 189.362C221.305 188.988 226.892 199.291 219.356 198.056C211.821 196.822 211.705 199.507 207.203 198.634C202.702 197.761 189.273 199.111 189.273 199.111Z" fill="#328DD8"/>
<path d="M184.193 112.959H62.5547C60.2858 112.959 58.4463 114.798 58.4463 117.067V201.127C58.4463 203.396 60.2858 205.236 62.5547 205.236H184.193C186.462 205.236 188.301 203.397 188.301 201.127V117.067C188.301 114.798 186.462 112.959 184.193 112.959Z" fill="#0D5DBC"/>
<path d="M69.2418 199.265C68.8197 199.265 68.4766 198.922 68.4766 198.5V119.694C68.4766 119.273 68.8197 118.93 69.2418 118.93H170.199C170.621 118.93 170.964 119.273 170.964 119.694V198.5C170.964 198.922 170.621 199.265 170.199 199.265H69.2418V199.265Z" fill="#D4ECFF"/>
<path d="M170.199 118.93H69.2418C68.8197 118.93 68.4766 119.273 68.4766 119.694V121.882H166.655C167.077 121.882 167.42 122.225 167.42 122.647V199.265H170.199C170.621 199.265 170.964 198.922 170.964 198.5V119.694C170.964 119.273 170.621 118.93 170.199 118.93Z" fill="#E6EEFE"/>
<path d="M183.724 159.097C183.724 156.789 181.853 154.918 179.545 154.918C177.237 154.918 175.366 156.789 175.366 159.097C175.366 161.405 177.237 163.276 179.545 163.276C181.853 163.276 183.724 161.405 183.724 159.097Z" fill="white"/>
<path d="M69.2431 199.264H124.4C121.359 201.488 118.145 203.487 114.781 205.237H62.5557C60.2864 205.237 58.4463 203.396 58.4463 201.127V117.066C58.4463 114.8 60.2864 112.96 62.5557 112.96H150.482C151.204 114.913 151.844 116.904 152.401 118.929H69.2431C68.8179 118.929 68.4753 119.271 68.4753 119.696V198.5C68.4753 198.922 68.8179 199.264 69.2431 199.264Z" fill="#0061EF"/>
<path d="M63.3374 150.945C62.9076 150.945 62.5557 151.297 62.5557 151.727V169.97C62.5557 170.4 62.9076 170.752 63.3374 170.752C63.7672 170.752 64.1191 170.4 64.1191 169.97V151.727C64.1197 151.297 63.7678 150.945 63.3374 150.945Z" fill="white"/>
<path d="M86.8109 176.312C86.7128 176.057 86.6457 175.782 86.6143 175.483C86.6421 175.633 86.7051 175.931 86.8109 176.312Z" fill="#0D5DBC"/>
<path d="M173.909 105.013L174.327 104.721C174.195 103.953 173.523 102.806 171.219 101.447C166.956 98.9321 162.76 94.7385 162.947 92.5115C162.947 92.5115 160.935 98.1787 163.928 100.516C166.738 102.709 172.35 101.554 173.909 105.013Z" fill="#53A4F4"/>
<path d="M174.08 104.894L174.328 104.721C174.196 103.953 173.524 102.806 171.22 101.447C166.956 98.9326 162.76 94.739 162.948 92.512C162.948 92.512 162.359 97.3103 165.337 99.4279C168.276 101.518 172.348 100.83 174.08 104.894Z" fill="#328DD8"/>
<path d="M173.162 102.122C173.591 103.009 173.837 103.769 173.981 104.358L174.206 104.236C174.149 102.285 173.729 98.6674 171.628 95.3133C168.558 90.4118 164.763 84.2384 164.763 84.2384C164.763 84.2384 163.153 91.657 168.332 96.1204C170.915 98.3459 172.357 100.454 173.162 102.122Z" fill="#53A4F4"/>
<path d="M168.318 92.6363C171.034 96.6054 173.587 101.313 173.962 103.687C174.015 103.479 174.072 103.258 174.132 103.033C173.944 100.992 173.351 98.0641 171.628 95.3138C168.558 90.4123 164.763 84.2389 164.763 84.2389C164.763 84.2389 164.784 87.4706 168.318 92.6363Z" fill="#328DD8"/>
<path d="M175.003 103.631C174.296 104.134 173.672 104.46 173.182 104.672L173.321 104.85C175.007 104.513 178.088 103.612 180.692 101.291C184.495 97.8979 189.297 93.6878 189.297 93.6878C189.297 93.6878 182.614 93.3875 179.503 98.5465C177.951 101.119 176.333 102.684 175.003 103.631Z" fill="#53A4F4"/>
<path d="M182.528 98.0192C179.482 100.966 175.769 103.88 173.763 104.557C173.952 104.572 174.152 104.589 174.356 104.608C176.101 104.142 178.557 103.194 180.692 101.291C184.496 97.8979 189.298 93.6879 189.298 93.6879C189.298 93.6879 186.493 94.1843 182.528 98.0192Z" fill="#328DD8"/>
<path d="M174.385 105.329C174.494 106.419 174.585 107.17 174.622 107.684L174.836 107.687C174.932 105.844 175.096 102.661 175.041 100.532C174.96 97.3964 175.922 96.1167 176.522 90.8396C177.122 85.5619 175.721 78.0634 175.721 78.0634C175.721 78.0634 172.037 84.7286 173.195 92.2152C174.352 99.7024 173.902 100.529 174.385 105.329Z" fill="#53A4F4"/>
<path d="M174.635 107.685L174.675 107.686L174.872 106.971C174.968 105.096 175.089 102.406 175.04 100.533C174.959 97.3975 175.921 96.1178 176.521 90.8407C177.121 85.563 175.72 78.0645 175.72 78.0645C175.72 78.0645 174.216 88.4696 174.533 93.2535C174.826 97.6792 174.661 106.405 174.635 107.685Z" fill="#328DD8"/>
<path d="M182.311 83.7605C182.134 84.9674 178.676 92.0078 176.546 96.7142C174.879 100.397 175.326 103.854 175.598 105.185L176.025 105.176C175.735 103.57 175.636 103.819 175.953 101.299C176.299 98.5347 180.191 96.5362 182.549 91.1729C184.909 85.8106 182.488 82.5541 182.311 83.7605Z" fill="#53A4F4"/>
<path d="M182.444 83.5236C182.516 85.231 182.515 91.0454 179.456 94.2033C175.913 97.8612 174.842 101.84 175.993 105.177L176.026 105.177C175.735 103.571 175.637 103.82 175.953 101.3C176.3 98.5356 180.191 96.5372 182.55 91.1738C184.648 86.4039 182.967 83.3033 182.444 83.5236Z" fill="#328DD8"/>
<path d="M168.076 104.672L169.298 111.904C169.412 112.578 169.995 113.072 170.679 113.072H177.744C178.428 113.072 179.011 112.579 179.125 111.904L180.347 104.672C180.458 104.018 179.954 103.422 179.291 103.422H169.132C168.469 103.422 167.965 104.018 168.076 104.672Z" fill="#E6EEFE"/>
<path opacity="0.56" d="M180.341 104.306L180.34 104.304C180.328 104.236 180.31 104.17 180.285 104.106C180.284 104.102 180.282 104.098 180.279 104.093C180.256 104.034 180.227 103.979 180.194 103.925C180.188 103.915 180.18 103.905 180.174 103.895C180.142 103.848 180.109 103.804 180.071 103.763C180.056 103.747 180.04 103.734 180.024 103.719C179.99 103.686 179.955 103.654 179.916 103.626C179.89 103.607 179.862 103.592 179.834 103.576C179.801 103.556 179.769 103.535 179.733 103.518C179.692 103.5 179.648 103.487 179.606 103.474C179.578 103.465 179.551 103.454 179.523 103.448C179.449 103.431 179.372 103.422 179.292 103.422H176.075H169.133C168.521 103.422 168.051 103.931 168.068 104.522H177.14C177.139 104.572 177.14 104.621 177.132 104.672L175.91 111.904C175.796 112.578 175.212 113.071 174.529 113.071H177.745C178.429 113.071 179.013 112.578 179.127 111.904L180.349 104.672C180.369 104.546 180.362 104.424 180.341 104.306Z" fill="#53A4F4"/>
<path d="M159.694 101.906V199.256H83.9229V97.2131C83.9229 99.8097 86.023 101.906 88.6154 101.906L159.694 101.906Z" fill="white"/>
<path d="M151.299 92.4122V101.123H88.6137C86.4615 101.123 84.7061 99.3715 84.7061 97.2157V96.3163C84.7061 94.1641 86.4615 92.4122 88.6137 92.4122H151.299Z" fill="#E6EEFE"/>
<path d="M89.5957 95.2988H154.511V94.5134H89.5957C88.4843 94.5134 87.5771 95.4206 87.5771 96.5362V96.9995C87.5771 98.1151 88.4843 99.0223 89.5957 99.0223H158.073V98.2369H89.5957C88.9162 98.2369 88.3625 97.6791 88.3625 96.9995V96.5362C88.3625 95.8525 88.9167 95.2988 89.5957 95.2988Z" fill="white"/>
<path d="M88.6139 92.4123H151.299V91.627H88.6139C86.0221 91.627 83.9209 93.724 83.9209 96.3164V97.2158C83.9209 99.8076 86.0221 101.909 88.6139 101.909H159.702V101.123H88.6139C86.4617 101.123 84.7063 99.3716 84.7063 97.2158V96.3164C84.7063 94.1636 86.4622 92.4123 88.6139 92.4123Z" fill="white"/>
<path d="M158.074 99.0222V101.123H88.6138C88.2567 101.123 87.9069 101.076 87.5771 100.982V96.9995C87.5771 98.1151 88.4843 99.0222 89.5957 99.0222H158.074Z" fill="#53A4F4"/>
<path d="M120.163 134.618H110.816V135.528H120.163V134.618Z" fill="#E6EEFE"/>
<path d="M120.163 137.077H110.816V137.986H120.163V137.077Z" fill="#E6EEFE"/>
<path d="M120.163 139.536H110.816V140.446H120.163V139.536Z" fill="#E6EEFE"/>
<path d="M120.163 141.995H110.816V142.905H120.163V141.995Z" fill="#E6EEFE"/>
<path d="M120.163 144.455H110.816V145.364H120.163V144.455Z" fill="#E6EEFE"/>
<path d="M120.163 146.914H110.816V147.824H120.163V146.914Z" fill="#E6EEFE"/>
<path d="M120.162 149.373H93.3154V150.283H120.162V149.373Z" fill="#E6EEFE"/>
<path d="M120.162 151.832H93.3154V152.742H120.162V151.832Z" fill="#E6EEFE"/>
<path d="M120.162 154.292H93.3154V155.201H120.162V154.292Z" fill="#E6EEFE"/>
<path d="M120.162 156.751H93.3154V157.661H120.162V156.751Z" fill="#E6EEFE"/>
<path d="M120.162 159.21H93.3154V160.12H120.162V159.21Z" fill="#E6EEFE"/>
<path d="M151.05 179.25H138.01V180.132H151.05V179.25Z" fill="#E6EEFE"/>
<path d="M151.05 181.634H138.01V182.516H151.05V181.634Z" fill="#E6EEFE"/>
<path d="M151.05 184.017H138.01V184.899H151.05V184.017Z" fill="#E6EEFE"/>
<path d="M151.05 186.401H138.01V187.283H151.05V186.401Z" fill="#E6EEFE"/>
<path d="M151.05 188.785H138.01V189.667H151.05V188.785Z" fill="#E6EEFE"/>
<path d="M151.05 191.092H138.01V192.002H151.05V191.092Z" fill="#E6EEFE"/>
<path d="M151.05 193.551H138.01V194.461H151.05V193.551Z" fill="#E6EEFE"/>
<path d="M135.363 179.25H121.496V180.132H135.363V179.25Z" fill="#E6EEFE"/>
<path d="M135.363 181.634H121.496V182.516H135.363V181.634Z" fill="#E6EEFE"/>
<path d="M135.363 184.017H121.496V184.899H135.363V184.017Z" fill="#E6EEFE"/>
<path d="M135.363 186.401H121.496V187.283H135.363V186.401Z" fill="#E6EEFE"/>
<path d="M135.363 188.785H121.496V189.667H135.363V188.785Z" fill="#E6EEFE"/>
<path d="M135.363 191.092H121.496V192.002H135.363V191.092Z" fill="#E6EEFE"/>
<path d="M135.363 193.551H121.496V194.461H135.363V193.551Z" fill="#E6EEFE"/>
<path d="M151.049 149.373H137.89V150.283H151.049V149.373Z" fill="#E6EEFE"/>
<path d="M151.048 134.477H124.029V147.746H151.048V134.477Z" fill="#E6EEFE"/>
<path d="M151.049 162.703H93.3154V175.972H151.049V162.703Z" fill="#53A4F4"/>
<path d="M151.049 151.832H137.89V152.742H151.049V151.832Z" fill="#E6EEFE"/>
<path d="M135.515 149.362H124.241V160.12H135.515V149.362Z" fill="#E6EEFE"/>
<path d="M151.049 154.292H137.89V155.201H151.049V154.292Z" fill="#E6EEFE"/>
<path d="M151.049 156.751H137.89V157.661H151.049V156.751Z" fill="#E6EEFE"/>
<path d="M151.049 159.21H137.89V160.12H151.049V159.21Z" fill="#E6EEFE"/>
<path d="M109.124 134.618H93.3154V147.701H109.124V134.618Z" fill="#53A4F4"/>
<path d="M93.3154 178.713L118.168 178.898V194.523L93.3154 194.339V178.713Z" fill="#E6EEFE"/>
<path d="M151.049 107.259H93.3154V129.712H151.049V107.259Z" fill="#FFAA00"/>
<path d="M101.951 126.974H100.417V111.635H102.586L106.136 122.723V111.635H107.648V126.974H105.873L101.951 114.571V126.974Z" fill="white"/>
<path d="M117.049 118.428V119.962H113.302V125.418H117.903V126.974H111.593V111.635H117.903V113.191H113.302V118.428H117.049Z" fill="white"/>
<path d="M125.747 126.974H123.403L121.299 111.635H122.964L124.761 124.695L126.47 111.657H128.158L129.845 124.717L131.576 111.635H133.066L130.985 126.974H128.728L127.26 116.566L125.747 126.974Z" fill="white"/>
<path d="M143.278 115.316V115.732H141.657V115.228C141.657 113.848 141.131 113.037 139.904 113.037C138.677 113.037 138.151 113.848 138.151 115.206C138.151 118.646 143.3 118.975 143.3 123.292C143.3 125.614 142.182 127.127 139.838 127.127C137.493 127.127 136.397 125.615 136.397 123.292V122.415H137.997V123.379C137.997 124.759 138.567 125.571 139.794 125.571C141.021 125.571 141.59 124.76 141.59 123.379C141.59 119.961 136.463 119.632 136.463 115.315C136.463 112.949 137.558 111.48 139.859 111.48C142.183 111.481 143.278 112.994 143.278 115.316Z" fill="white"/>
<path d="M154.512 95.2987V98.1419L143.024 98.2363H89.5955C88.916 98.2363 88.3623 97.6785 88.3623 96.999V96.5356C88.3623 95.8524 88.916 95.2982 89.5955 95.2982H154.512V95.2987Z" fill="#76B4FF"/>
<path d="M89.8881 174.303C86.3369 172.349 86.598 175.378 86.598 175.378C86.8741 178.393 90.3999 179.415 92.8241 179.762L93.3649 176.229C92.5238 175.76 91.3731 175.121 89.8881 174.303Z" fill="#0061EF"/>
<path d="M102.903 176.071L95.1494 177.545C95.1494 177.545 94.459 177.434 93.2898 176.782L92.877 179.328C93.8801 179.696 95.5411 180.209 95.6381 180.069L103.131 176.909C104.412 176.909 105.145 176.095 105.145 176.095L102.903 176.071Z" fill="#FFA683"/>
<path d="M86.0117 174.77L92.6738 162.494C92.7946 162.301 93.0557 162.012 93.277 161.959C93.8658 161.818 95.0546 161.683 95.8947 162.56C96.0015 162.671 95.9468 162.859 95.7967 162.896L93.9411 163.246C93.632 163.304 93.3792 163.527 93.2827 163.826L89.3131 176.138L86.0117 174.77Z" fill="#FFA683"/>
<path d="M89.3125 176.139L91.0422 170.774L88.393 169.325L85.1855 174.445L89.3125 176.139Z" fill="#0061EF"/>
<path d="M84.3323 186.921L84.8813 196.423L80.2012 209.52L82.0691 209.53L90.6585 196.554L90.0068 187.302L84.3323 186.921Z" fill="#084184"/>
<path d="M84.9033 187.074C84.9033 187.074 85.2619 188.377 87.0535 191.439C88.8451 194.502 91.2233 197.336 91.2233 197.336L91.8559 209.509H93.7863L95.7837 197.118C95.8477 196.793 95.8106 196.457 95.6774 196.154L91.2883 186.162L84.9033 187.074Z" fill="#0D5DBC"/>
<path d="M87.732 173.65C87.7119 173.663 87.5973 173.736 87.4492 173.869C87.5277 173.782 87.6216 173.708 87.732 173.65Z" fill="url(#paint0_linear_1163_20036)"/>
<path d="M87.0857 173.268C88.2106 173.176 89.2648 173.828 89.804 174.82C90.5424 176.177 91.7607 178.658 91.8009 180.322L91.9805 187.802C91.9805 187.802 87.9577 189.789 83.7363 187.206C83.7363 187.206 85.2725 182.828 84.5805 178.465C84.0495 175.116 85.3664 173.409 87.0857 173.268Z" fill="#0061EF"/>
<path d="M90.4009 188.314C90.4267 186.376 90.0325 182.918 89.822 181.223C89.7523 180.661 89.4339 180.172 88.9705 179.847C87.7435 178.987 87.1124 177.374 86.8193 176.34C87.5304 178.248 89.7528 179.144 91.7167 179.56C91.7678 179.827 91.7993 180.082 91.8029 180.322L91.9794 187.804C91.9794 187.804 91.3787 188.098 90.4009 188.314Z" fill="#0D5DBC"/>
<path d="M91.3075 169.953L91.0402 170.774L88.8369 169.569L90.4783 166.541C90.7028 167.542 91.0913 169.097 91.3075 169.953Z" fill="#EF8160"/>
<path d="M89.6768 170.546C89.5282 169.596 89.3435 168.706 88.5029 168.838C87.6629 168.969 86.5271 170.116 86.6757 171.066C86.7279 171.398 86.8723 171.687 87.07 171.92H86.2129V173.702H88.5014V172.507C88.5153 172.505 88.5292 172.507 88.5426 172.505C89.3832 172.373 89.8254 171.496 89.6768 170.546Z" fill="#FFA683"/>
<path d="M87.4966 170.688C87.4966 170.688 87.1158 170.23 86.8676 170.532C86.6199 170.835 86.4955 171.29 87.2118 171.552C87.2118 171.552 86.9914 172.777 85.9171 172.626C84.8428 172.474 83.8923 171.428 84.3469 169.981C84.8015 168.535 85.2009 167.447 86.8258 167.516C88.4512 167.585 89.6215 167.447 89.5116 167.034C89.5116 167.034 90.2417 168.959 89.5735 169.201C88.9053 169.444 88.1478 169.444 88.1478 169.444C88.1478 169.444 87.9739 170.638 87.4966 170.688Z" fill="#084184"/>
<path d="M88.5004 173.702V172.526L88.4818 172.508C88.4818 172.508 88.0546 172.557 87.5479 172.418C87.5479 172.418 87.8858 172.786 88.0845 172.875C88.1707 172.914 88.182 173.288 88.1676 173.701H88.5004V173.702Z" fill="#EF8160"/>
<path d="M91.9248 209.506V210.912H95.7592C95.977 210.912 96.0621 210.629 95.881 210.509C95.3201 210.135 94.4222 209.621 93.5868 209.506H91.9248Z" fill="#084184"/>
<path d="M80.207 209.506V210.912H84.0414C84.2592 210.912 84.3443 210.629 84.1632 210.509C83.6023 210.135 82.704 209.621 81.8691 209.506H80.207Z" fill="#084184"/>
<path d="M90.4004 188.673L94.9376 197.435L93.2756 209.868H93.7864L95.7838 197.477C95.8478 197.152 95.8107 196.816 95.6775 196.513L91.7637 187.603L90.4004 188.673Z" fill="#084184"/>
<path d="M84.7657 187.742C85.8886 185.766 86.0274 180.778 85.1966 178.675C84.0898 175.872 86.0011 173.609 86.0011 173.609C84.8679 174.268 84.1698 175.872 84.5805 178.465C85.2725 182.828 83.7363 187.206 83.7363 187.206C84.0826 187.417 84.4252 187.588 84.7657 187.742Z" fill="#2886F7"/>
<path d="M207.863 170.125H169.931V195.106C169.931 200.701 174.466 205.237 180.061 205.237H197.732C203.327 205.237 207.862 200.701 207.862 195.106L207.863 170.125Z" fill="#D4ECFF"/>
<path d="M172.229 195.105V170.125H169.931V195.105C169.931 200.701 174.466 205.236 180.061 205.236H182.36C176.765 205.236 172.229 200.701 172.229 195.105Z" fill="white"/>
<path d="M196.733 170.125V195.105C196.733 200.701 192.198 205.236 186.603 205.236H197.732C203.327 205.236 207.862 200.701 207.862 195.105V170.125H196.733Z" fill="#E6EEFE"/>
<path d="M207.849 170.112C207.849 168.425 199.36 167.056 188.89 167.056C178.419 167.056 169.931 168.425 169.931 170.112C169.931 171.801 178.419 173.169 188.89 173.169C199.36 173.169 207.849 171.801 207.849 170.112Z" fill="#E6EEFE"/>
<path d="M188.89 172.46C177.353 172.46 171.386 170.946 170.674 170.112C171.386 169.279 177.353 167.765 188.89 167.765C200.426 167.765 206.394 169.279 207.106 170.112C206.394 170.946 200.426 172.46 188.89 172.46Z" fill="#FFAA00"/>
<path d="M186.137 168.527C193.245 168.527 199.198 169.917 200.78 171.785C204.612 171.275 206.702 170.585 207.106 170.113C206.394 169.279 200.426 167.765 188.89 167.765C177.353 167.765 171.386 169.28 170.674 170.113C170.876 170.35 171.503 170.641 172.559 170.937C174.988 169.511 180.155 168.527 186.137 168.527Z" fill="#FF6700"/>
<path d="M203.875 177.632C203.871 178.417 204.475 179.119 205.35 179.297C206.983 179.632 208.381 180.373 209.456 181.489C210.883 182.971 211.663 185.052 211.651 187.349C211.64 189.646 210.84 191.719 209.398 193.187C208.311 194.292 206.907 195.019 205.27 195.338C204.394 195.508 203.782 196.204 203.778 196.989C203.773 198.078 204.918 198.894 206.137 198.673C212.021 197.612 215.398 192.962 215.426 187.368C215.453 181.773 212.123 177.09 206.25 175.971C205.033 175.739 203.88 176.543 203.875 177.632Z" fill="#D4ECFF"/>
<path d="M203.975 197.236C203.979 196.433 204.591 195.721 205.467 195.547C207.103 195.221 208.508 194.477 209.594 193.345C211.036 191.844 211.837 189.723 211.849 187.373C211.861 185.023 211.081 182.894 209.654 181.378C208.579 180.236 207.182 179.478 205.549 179.136C204.674 178.953 204.07 178.235 204.074 177.432C204.076 177.074 204.206 176.752 204.408 176.479C204.086 176.78 203.877 177.178 203.875 177.632C203.871 178.417 204.475 179.119 205.35 179.298C206.983 179.632 208.381 180.373 209.456 181.49C210.884 182.972 211.663 185.053 211.651 187.349C211.64 189.646 210.84 191.719 209.398 193.187C208.311 194.293 206.907 195.02 205.27 195.338C204.394 195.508 203.782 196.204 203.778 196.989C203.776 197.404 203.943 197.778 204.216 198.072C204.065 197.824 203.973 197.543 203.975 197.236Z" fill="white"/>
<path d="M206.25 175.971C205.493 175.827 204.761 176.084 204.314 176.56C204.636 176.471 204.99 176.448 205.351 176.513C211.224 177.586 214.556 182.066 214.529 187.417C214.502 192.768 211.127 197.214 205.243 198.228C204.938 198.28 204.638 198.271 204.359 198.211C204.806 198.597 205.459 198.795 206.137 198.673C212.021 197.612 215.398 192.962 215.426 187.368C215.453 181.774 212.123 177.091 206.25 175.971Z" fill="#E6EEFE"/>
<path d="M58.5465 98.2499C61.6451 98.2499 61.8092 93.6374 58.7168 93.4403C58.6874 93.4382 58.658 93.4367 58.6286 93.4351C58.6286 93.416 58.6301 93.3969 58.6301 93.3773C58.6301 90.0806 55.9572 87.4077 52.6605 87.4077C51.6213 87.4077 50.644 87.674 49.7931 88.1409C48.7476 86.1951 46.6934 84.8721 44.3296 84.8721C40.9065 84.8721 38.1309 87.6471 38.1309 91.0708C38.1309 91.2545 38.1407 91.4361 38.1562 91.6157C37.5215 91.4335 36.8523 91.334 36.1593 91.334C33.6618 91.334 31.4611 92.6023 30.1654 94.5296C29.0993 96.1152 30.2732 98.2504 32.184 98.2504H58.5465V98.2499Z" fill="#E6EEFE"/>
<path d="M97.0848 67.9813C100.137 67.9813 100.299 63.4369 97.2525 63.2423C97.2236 63.2403 97.1947 63.2387 97.1658 63.2372C97.1658 63.2181 97.1674 63.1995 97.1674 63.1804C97.1674 59.9322 94.5342 57.299 91.286 57.299C90.2622 57.299 89.2994 57.5611 88.4609 58.0214C87.4309 56.1045 85.4072 54.8005 83.0785 54.8005C79.7059 54.8005 76.9716 57.5348 76.9716 60.9074C76.9716 61.0885 76.9809 61.2671 76.9963 61.4441C76.3715 61.2645 75.712 61.1664 75.0288 61.1664C72.5685 61.1664 70.4003 62.4157 69.1232 64.3151C68.0731 65.877 69.2295 67.9808 71.1119 67.9808L97.0848 67.9813Z" fill="#E6EEFE"/>
<path d="M207.475 98.7824C204.728 98.7824 204.583 94.6925 207.324 94.5176C207.35 94.5161 207.376 94.5145 207.402 94.513C207.402 94.4959 207.401 94.4789 207.401 94.4619C207.401 91.5387 209.77 89.1687 212.694 89.1687C213.615 89.1687 214.481 89.4046 215.236 89.8189C216.163 88.0939 217.984 86.9205 220.08 86.9205C223.115 86.9205 225.575 89.3813 225.575 92.4165C225.575 92.5795 225.567 92.7405 225.553 92.8994C226.116 92.7379 226.709 92.6497 227.324 92.6497C229.538 92.6497 231.489 93.7741 232.638 95.4831C233.583 96.8886 232.543 98.7819 230.849 98.7819L207.475 98.7824Z" fill="#E6EEFE"/>
<path d="M179.914 64.7883C176.653 64.7883 176.48 59.9327 179.734 59.7252C179.765 59.7232 179.796 59.7216 179.827 59.7201C179.827 59.7 179.826 59.6798 179.826 59.6597C179.826 56.1891 182.639 53.3758 186.109 53.3758C187.203 53.3758 188.232 53.656 189.128 54.1473C190.228 52.0993 192.39 50.7061 194.878 50.7061C198.482 50.7061 201.403 53.6271 201.403 57.2309C201.403 57.4244 201.393 57.6153 201.376 57.8047C202.044 57.6127 202.749 57.508 203.479 57.508C206.108 57.508 208.424 58.8429 209.788 60.8718C210.911 62.5406 209.675 64.7883 207.664 64.7883H179.914Z" fill="#E6EEFE"/>
<path d="M212.295 75.8286C221.075 75.8286 228.194 68.7104 228.194 59.9296C228.194 51.1488 221.075 44.0305 212.295 44.0305C203.514 44.0305 196.396 51.1488 196.396 59.9296C196.396 68.7104 203.514 75.8286 212.295 75.8286Z" fill="#FFAA00"/>
<path opacity="0.28" d="M213.745 44.0996C217.916 46.4077 220.741 50.851 220.741 55.9553C220.741 63.4347 214.678 69.4977 207.199 69.4977C203.284 69.4977 199.759 67.8347 197.286 65.1788C199.455 71.3796 205.353 75.8291 212.294 75.8291C221.075 75.8291 228.193 68.7108 228.193 59.93C228.193 51.6384 221.845 44.8328 213.745 44.0996Z" fill="#FF6700"/>
<path d="M175.195 195.078L173.942 196.87L168.185 194.068C168.185 194.068 168.077 193.057 167.793 193.027C167.648 193.011 167.571 193.187 167.531 193.363C167.247 193.087 166.942 192.836 166.772 192.836C166.39 192.838 167.35 194.378 167.501 194.663C167.786 195.203 171.462 197.753 175.575 199.563L177.213 196.486L175.195 195.078Z" fill="#FFA683"/>
<path d="M167.823 193.205L166.993 189.729C166.968 189.618 166.856 189.538 166.744 189.55L166.362 189.605C166.25 189.617 166.18 189.717 166.206 189.828L167.035 193.305C167.047 193.417 167.148 193.498 167.26 193.486L167.642 193.43C167.753 193.418 167.835 193.317 167.823 193.205Z" fill="#084184"/>
<path d="M167.652 196.932C166.398 197.041 155.14 207.782 155.14 207.782L157.719 207.746L167.532 201.966C167.532 201.966 174.211 207.3 179.899 207.391C182.369 207.431 182.452 204.4 182.452 204.4C182.452 204.4 170.709 196.665 167.652 196.932Z" fill="#084184"/>
<path d="M182.412 204.838C182.412 204.838 181.753 208.413 178.127 208.927L149.661 208.786L149.781 206.494L174.434 203.681L182.412 204.838Z" fill="#083766"/>
<path d="M178.059 191.505C178.059 191.505 176.774 191.661 176.03 192.645C175.62 193.186 174.334 195.683 174.334 195.683L177.161 197.388L178.059 191.505Z" fill="#0D5DBC"/>
<path d="M177.466 187.693C177.466 187.693 176.487 187.546 176.239 186.826C175.929 185.922 176.425 184.732 176.999 184.748C176.999 184.748 177.979 184.855 179.223 185.12C179.693 185.22 180.117 184.873 180.484 184.911C181.425 185.01 183.726 187.501 180.81 190.157L178.658 188.623L177.466 187.693Z" fill="#084184"/>
<path d="M181.216 187.877C180.984 187.629 180.715 187.829 180.715 187.829C180.715 187.829 180.711 187.833 180.704 187.841C180.016 187.678 179.353 186.903 179.353 186.903C179.002 187.367 177.455 187.69 177.455 187.69V188.724C177.455 189.625 178.119 190.356 178.961 190.431L178.944 191.768L180.889 191.167V189.135C181.298 188.968 181.415 188.09 181.216 187.877Z" fill="#FFA683"/>
<path d="M179.499 190.682C179.634 190.601 180.312 189.638 180.312 189.638C180.04 190.04 179.049 190.412 178.959 190.445L178.943 191.767L179.45 191.611C179.431 191.181 179.428 190.724 179.499 190.682Z" fill="#EF8160"/>
<path d="M190.404 209.245C190.404 209.245 187.85 203.314 186.255 197.836C185.604 198.264 184.872 198.813 184.062 199.148L189.094 209.079C189.094 209.079 189.493 210.089 190.091 210.129C190.69 210.169 192.2 210.461 192.212 210.336C192.239 210.056 190.404 209.245 190.404 209.245Z" fill="#FFA683"/>
<path d="M184.398 192.406C183.583 191.732 181.631 191.298 180.938 191.161C180.776 191.129 180.613 191.125 180.45 191.149L178.048 191.498C175.828 192.797 176.534 194.458 175.743 197.364C174.953 200.27 173.697 203.432 173.697 203.432C175.534 204.919 181.993 205.915 181.993 205.915C183.025 204.836 183.07 200.838 183.14 198.333L184.019 199.294C184.019 199.294 186.956 197.795 186.924 197.69C186.506 196.295 184.398 192.406 184.398 192.406Z" fill="#0061EF"/>
<path d="M149.651 208.785L148.511 208.678C148.226 208.651 148.017 208.399 148.043 208.114L148.419 204.113C148.443 203.857 148.784 203.786 148.906 204.012C149.284 204.714 149.792 205.83 149.835 206.827L149.651 208.785Z" fill="#084184"/>
<path d="M179.77 205.505C181.043 205.769 181.993 205.916 181.993 205.916C183.025 204.837 183.07 200.838 183.14 198.333L182.239 196.541C182.239 196.541 182.105 202.587 179.77 205.505Z" fill="#2886F7"/>
<path d="M182.118 205.76C181.661 206.857 180.565 208.583 178.126 208.93L149.661 208.785L149.671 208.646C154.514 208.511 173.072 207.987 175.939 207.896C179.233 207.79 179.771 205.505 179.771 205.505H179.776C181.045 205.77 181.993 205.914 181.993 205.914C182.036 205.866 182.079 205.818 182.118 205.76Z" fill="#084184"/>
<path d="M85.818 84.2472C85.818 84.2472 84.9779 84.6213 84.6456 85.257C84.3133 85.8927 84.3943 91.756 82.7209 92.0816C81.0475 92.4072 77.7998 92.7571 77.7998 92.7571L77.9071 93.9759L86.6276 92.7973L85.818 84.2472Z" fill="#0D5DBC"/>
<path d="M84.5784 93.0615L89.5867 97.7804C89.5867 97.7804 87.2435 100.215 81.8028 98.9558L76.0762 98.2262L68.0245 107.807L66.4316 107.161L73.4219 95.2303C73.6975 94.7669 74.1732 94.4589 74.7083 94.3964L84.5784 93.0615Z" fill="#083766"/>
<path d="M87.5282 83.2698C88.3817 83.8689 93.7656 88.1114 90.3167 97.6771L84.3672 93.0202C84.3672 93.0202 85.4663 90.1496 85.1949 87.8158C84.7263 83.7873 86.9384 83.3828 87.296 83.2419C87.3739 83.211 87.4596 83.2218 87.5282 83.2698Z" fill="#0061EF"/>
<path d="M84.4801 93.0975L90.2402 97.4872C90.2402 97.4872 89.0988 99.4521 83.5291 99.8602L77.8897 100.549L72.9722 112.004L71.2266 111.923L74.4671 98.4732C74.593 97.9495 74.9562 97.514 75.449 97.2957L84.4801 93.0975Z" fill="#084184"/>
<path d="M79.6199 87.0991L78.2752 84.2348C78.2329 84.143 78.1214 84.0939 78.0265 84.1244L77.706 84.2415C77.6106 84.272 77.5677 84.371 77.6101 84.4629L78.9548 87.3272C78.9852 87.4227 79.0874 87.4748 79.1828 87.4443L79.5033 87.3272C79.5982 87.2962 79.6508 87.1941 79.6199 87.0991Z" fill="#084184"/>
<path d="M77.8269 92.9872C77.8269 92.9872 75.9208 93.2524 76.0942 94.2044L77.9063 93.9758L77.8269 92.9872Z" fill="#FFA683"/>
<path d="M80.1133 87.6785C80.1133 87.6785 79.8141 86.9252 79.5623 86.9505C79.4338 86.9634 79.3987 87.1295 79.3951 87.2895C79.0999 87.1011 78.7898 86.9375 78.6422 86.969C78.3115 87.0397 79.4214 88.2018 79.603 88.4216C79.6593 88.4892 79.8192 88.6073 80.0504 88.7544L80.505 87.8875L80.1133 87.6785Z" fill="#FFA683"/>
<path d="M88.409 84.4582C87.4905 84.1671 86.5209 84.7327 86.3223 85.6754L85.5849 89.1749L80.5394 87.6171L80.0234 88.8834C81.2139 89.6414 84.5132 91.3602 87.7712 92.0547L89.4704 86.5005C89.7408 85.6429 89.2655 84.7296 88.409 84.4582Z" fill="#0061EF"/>
<path d="M90.251 86.066C90.251 86.066 88.6792 93.4934 88.3428 93.7256C88.0017 93.9624 84.6338 91.1151 84.6338 91.1151C85.6333 91.4903 86.705 91.8287 87.7731 92.0548L89.3537 86.8715L90.251 86.066Z" fill="#0D5DBC"/>
<path d="M72.9461 111.927V113.318H69.1535C68.9378 113.318 68.8537 113.038 69.0333 112.919C69.588 112.549 70.4765 112.041 71.3021 111.927H72.9461Z" fill="#084184"/>
<path d="M68.0307 107.797L67.3986 109.084L63.9925 107.704C63.7917 107.625 63.816 107.334 64.0265 107.289C64.6777 107.148 65.655 106.971 66.4651 107.168L68.0307 107.797Z" fill="#084184"/>
<path d="M76.9931 100.001L72.5498 111.984L72.9714 112.004L77.8889 100.549L83.5283 99.8603C89.0975 99.4522 90.2394 97.4872 90.2394 97.4872L89.1227 96.6364C86.308 98.7556 76.9931 100.001 76.9931 100.001Z" fill="#1764AF"/>
<path d="M90.3295 86.6698C90.9022 89.0274 91.3248 91.6275 90.8315 93.6441C90.4229 95.3159 89.123 96.6364 89.123 96.6364L90.3171 97.6771C92.1535 92.5827 91.4848 88.9985 90.3295 86.6698Z" fill="#2886F7"/>
<path d="M83.104 79.923C83.6133 78.9343 84.9224 78.635 85.9286 79.1531C86.9348 79.6712 87.3378 80.8931 86.8285 81.8822C86.7784 81.9798 86.7191 82.0716 86.6556 82.1609L87.0818 83.4467L85.3599 84.5453L85.2557 83.0995C84.6778 83.3523 84.2196 83.1857 83.8362 82.9885C82.83 82.47 82.5947 80.9116 83.104 79.923Z" fill="#FFA683"/>
<path d="M85.5344 80.7874C85.5344 80.7874 86.1278 80.5247 86.2237 81.0588C86.3197 81.5928 85.8677 82.033 86.4735 82.8957C87.0788 83.7585 87.1469 83.4726 86.5994 85.2766C86.0519 87.0805 87.4317 88.6569 90.0814 88.3272C92.7316 87.9974 93.0664 84.9804 90.9864 82.7657C88.9064 80.5505 88.4395 79.6258 87.3393 78.5376C86.2387 77.4488 83.0529 77.1748 82.7314 80.3002C82.7314 80.3002 83.7371 80.5619 84.6757 80.3828L84.6809 81.1697C84.6814 81.2837 84.813 81.3472 84.9028 81.2776L85.5344 80.7874Z" fill="#3F3F3F"/>
<path d="M85.6579 83.4056C85.6512 83.2069 86.0944 82.3602 85.9902 82.4902C85.8859 82.6202 85.2549 83.0996 85.2549 83.0996L85.3586 84.5454L85.8096 84.258C85.7311 83.8648 85.6605 83.4923 85.6579 83.4056Z" fill="#EF8160"/>
<defs>
<linearGradient id="paint0_linear_1163_20036" x1="87.6171" y1="173.8" x2="87.5748" y2="173.735" gradientUnits="userSpaceOnUse">
<stop stop-color="#FF3688"/>
<stop offset="1" stop-color="#FF85BC"/>
</linearGradient>
</defs>
</svg>
