<svg width="263" height="222" viewBox="0 0 263 222" fill="none" xmlns="http://www.w3.org/2000/svg">
<path d="M231.86 111.076C239.524 102.859 246.718 91.7774 242.802 81.3844C238.876 70.964 225.999 66.972 214.705 64.9797C203.411 62.9874 190.599 60.7848 184.344 51.4864C178.03 42.1019 181.045 28.9366 174.841 19.4843C168.252 9.44646 154.22 7.45729 141.958 6.45404C123.261 4.92472 104.007 3.44901 86.092 8.84104C68.1768 14.2336 51.7054 28.2345 49.6668 46.251C47.5946 64.564 60.3863 83.1355 54.7604 100.738C48.9211 119.008 25.1541 129.086 22.7866 148.07C21.5473 158.007 26.7228 167.525 31.7344 176.287C38.146 187.497 44.5575 199.416 50.9686 210.625H210.16C207.871 207.507 210.137 203.019 213.331 200.763C216.525 198.507 220.525 197.457 223.596 195.045C231.726 188.659 229.892 176.119 225.308 167.017C220.724 157.915 213.984 149.016 214.539 138.909C215.147 127.865 224.196 119.294 231.86 111.076Z" fill="#ECECFE"/>
<path d="M35.8386 118.774C53.0117 102.237 51.702 93.437 48.1767 71.4048C46.4566 60.6533 32.7847 71.1898 27.9072 87.4884C22.7884 104.59 26.7006 127.573 35.8386 118.774Z" fill="#ECECFE"/>
<path d="M91.7958 202.333C89.5244 206.371 58.1981 215.013 57.9647 203.112C57.7687 193.089 80.5461 196.073 88.9022 199.591C86.4106 197.155 84.0231 194.639 81.7349 192.137C79.5439 189.741 77.4381 187.275 75.4153 184.748C70.4994 187.882 40.3213 188.638 42.7367 177.404C44.6691 168.415 62.9027 174.507 71.5636 179.698C68.5186 175.551 65.6844 171.255 63.0525 166.837C59.4268 169.963 27.2732 168.879 30.5657 157.499C33.3169 147.99 53.6995 157.24 60.8873 163.095C58.196 158.3 55.7301 153.376 53.495 148.347C48.9123 150.763 17.9575 145.486 22.6532 134.76C26.5375 125.887 44.8094 137.022 51.5553 143.822C50.3817 140.982 49.2823 138.112 48.247 135.219C43.4189 133.249 27.413 106.309 38.6133 102.934C49.1951 99.7446 52.0866 127.706 49.8651 134.061C51.0266 137.333 52.2847 140.569 53.6259 143.766C54.0195 134.833 61.4296 112.25 70.379 117.237C80.4573 122.855 60.3197 146.079 55.1189 147.244C57.3209 152.199 59.7558 157.044 62.4045 161.767C61.8726 152.446 66.284 130.204 75.5955 133.896C86.1783 138.094 69.8346 163.123 64.5902 165.55C67.786 170.916 71.2803 176.103 75.0815 181.077C73.2711 173.237 75.8373 147.483 86.0096 150.716C97.2204 154.279 81.3045 182.04 76.768 183.26C78.8434 185.878 81.0007 188.438 83.2505 190.926C85.267 193.156 87.3755 195.394 89.5743 197.571C86.3344 188.708 84.0441 166.455 93.9663 167.214C105.31 168.083 97.1458 196.8 92.8548 200.701C96.9461 204.459 101.327 207.916 106 210.671C107.075 211.305 105.916 212.862 104.849 212.233C100.197 209.488 95.8603 206.058 91.7958 202.333Z" fill="#C8C1E8"/>
<path d="M139.652 211.945C140.759 204.712 142.274 197.544 144.192 190.482C146.105 183.436 148.426 176.5 151.12 169.714C153.819 162.913 156.896 156.261 160.332 149.801C163.761 143.354 167.546 137.099 171.678 131.078C175.798 125.072 180.254 119.298 185.024 113.796C185.629 113.099 186.24 112.406 186.854 111.717C187.657 110.816 186.215 109.625 185.416 110.521C180.499 116.033 175.899 121.824 171.645 127.861C167.401 133.881 163.495 140.141 159.945 146.595C156.402 153.037 153.22 159.676 150.415 166.472C147.592 173.314 145.16 180.313 143.116 187.426C141.086 194.492 139.454 201.671 138.241 208.92C138.088 209.831 137.943 210.743 137.804 211.655C137.622 212.844 139.47 213.139 139.652 211.945Z" fill="#DAD4F8"/>
<path d="M169.399 134.695C168.025 120.399 171.81 99.2198 172.149 85.1438C172.523 69.6114 174.694 52.9119 187.825 43.9073C191.25 41.5587 195.619 39.8071 200.464 40.4556C207.27 41.3663 213.214 46.9318 215.522 52.6639C217.83 58.3964 217.222 64.2326 216.121 69.7018C210.748 96.4139 193.998 119.714 169.399 134.695Z" fill="#DAD4F8"/>
<path d="M148.757 173.447C139.331 163.564 129.853 145.546 121.875 134.833C113.073 123.012 104.972 109.278 109.827 94.9269C111.093 91.184 113.437 87.3386 117.553 85.0105C123.335 81.739 131.175 82.4458 136.31 85.3883C141.444 88.3308 144.391 93.0439 146.744 97.7679C158.237 120.843 158.958 147.973 148.757 173.447Z" fill="#DAD4F8"/>
<path d="M141.566 194.241C148.987 180.624 165 162.566 173.766 149.774C183.438 135.658 195.363 121.123 212.115 117.634C216.485 116.723 221.309 116.703 225.1 119.06C230.426 122.37 232.206 129.636 230.747 135.735C229.288 141.834 225.25 146.968 221.009 151.587C200.293 174.145 171.814 189.436 141.566 194.241Z" fill="#DAD4F8"/>
<path d="M136.037 212.667C144.985 210.209 153.665 205.565 161.636 200.494C161.985 200.73 162.492 201.054 163.14 201.416C164.458 202.168 166.356 203.104 168.638 203.958C170.918 204.808 173.592 205.591 176.457 206.146C179.331 206.708 182.399 207.037 185.472 207.153C188.552 207.243 191.634 207.118 194.534 206.741C195.991 206.558 197.388 206.318 198.725 206.035C200.053 205.755 201.311 205.404 202.483 205.064C203.649 204.712 204.714 204.335 205.676 203.96C206.625 203.58 207.451 203.213 208.132 202.877C209.506 202.21 210.294 201.688 210.294 201.688C210.294 201.688 209.54 201.111 208.221 200.362C207.556 199.979 206.749 199.559 205.826 199.119C204.904 198.684 203.855 198.246 202.718 197.81C201.575 197.397 200.341 196.96 199.026 196.601C197.71 196.233 196.33 195.899 194.892 195.623C192.024 195.057 188.955 194.736 185.879 194.631C182.803 194.551 179.714 194.676 176.817 195.056C173.915 195.417 171.204 196.03 168.868 196.733C167.723 197.079 166.673 197.451 165.732 197.822C166.328 197.417 166.923 197.018 167.515 196.612C173.224 192.721 178.665 188.491 183.884 184.017C184.156 184.182 184.472 184.367 184.838 184.576C186.161 185.332 188.06 186.266 190.342 187.115C192.623 187.968 195.29 188.751 198.162 189.307C201.024 189.871 204.102 190.198 207.176 190.313C210.254 190.408 213.338 190.287 216.233 189.902C217.686 189.721 219.088 189.481 220.424 189.195C221.753 188.919 223.017 188.567 224.184 188.224C225.355 187.872 226.416 187.495 227.373 187.125C228.318 186.744 229.151 186.376 229.836 186.04C231.206 185.374 231.995 184.852 231.995 184.852C231.995 184.852 231.239 184.273 229.925 183.526C229.254 183.143 228.447 182.72 227.531 182.283C226.606 181.847 225.561 181.407 224.416 180.972C223.278 180.556 222.044 180.128 220.729 179.761C219.416 179.392 218.029 179.065 216.595 178.787C213.726 178.225 210.655 177.901 207.582 177.798C204.503 177.714 201.418 177.837 198.522 178.215C195.621 178.588 192.903 179.191 190.57 179.897C189.348 180.267 188.235 180.666 187.245 181.05C192.242 176.563 197.011 171.835 201.555 166.887C201.883 166.968 202.255 167.06 202.686 167.153C204.183 167.465 206.274 167.784 208.704 167.905C211.137 168.029 213.919 167.968 216.822 167.624C219.725 167.294 222.751 166.68 225.718 165.854C228.683 165.015 231.583 163.963 234.231 162.723C235.558 162.111 236.823 161.461 238.006 160.782C239.194 160.116 240.29 159.402 241.298 158.722C242.299 158.024 243.21 157.349 244.002 156.703C244.792 156.053 245.482 155.455 246.022 154.925C247.127 153.881 247.72 153.138 247.72 153.138C247.72 153.138 246.829 152.818 245.342 152.499C244.594 152.341 243.703 152.185 242.684 152.047C241.672 151.909 240.548 151.804 239.327 151.733C238.113 151.689 236.801 151.649 235.443 151.7C234.081 151.747 232.661 151.85 231.205 152.016C228.304 152.351 225.278 152.971 222.318 153.803C219.356 154.651 216.461 155.705 213.808 156.947C211.205 158.148 208.855 159.521 206.871 160.866C210.535 156.574 214.046 152.146 217.409 147.6C218.61 146.847 220.064 145.833 221.614 144.546C223.486 142.979 225.484 141.047 227.385 138.827C229.304 136.613 231.103 134.111 232.722 131.492C234.331 128.869 235.75 126.128 236.859 123.416C237.416 122.067 237.9 120.731 238.317 119.434C238.733 118.142 239.05 116.867 239.337 115.683C239.606 114.494 239.808 113.377 239.954 112.366C240.097 111.352 240.192 110.454 240.232 109.689C240.341 108.173 240.265 107.225 240.265 107.225C240.265 107.225 239.396 107.595 238.088 108.371C237.426 108.76 236.665 109.248 235.828 109.838C234.992 110.421 234.084 111.111 233.149 111.89C232.219 112.678 231.233 113.533 230.268 114.497C229.301 115.455 228.327 116.493 227.377 117.6C225.464 119.813 223.666 122.323 222.045 124.944C220.457 127.573 219.039 130.32 217.929 133.025C216.812 135.731 215.998 138.387 215.454 140.762C214.91 143.137 214.646 145.233 214.544 146.755C214.51 147.271 214.498 147.712 214.492 148.083C209.046 155.334 203.194 162.292 196.936 168.842C197.454 167.511 198.029 165.795 198.519 163.806C199.096 161.437 199.556 158.693 199.774 155.779C199.995 152.862 199.955 149.777 199.711 146.711C199.44 143.643 198.957 140.597 198.236 137.764C197.879 136.337 197.482 134.973 197.041 133.684C196.607 132.395 196.113 131.184 195.638 130.063C195.141 128.948 194.646 127.932 194.162 127.03C193.673 126.13 193.213 125.349 192.794 124.706C191.979 123.426 191.367 122.709 191.367 122.709C191.367 122.709 190.879 123.52 190.292 124.921C189.987 125.626 189.667 126.475 189.338 127.444C189.019 128.415 188.701 129.502 188.405 130.683C188.133 131.868 187.844 133.146 187.638 134.495C187.43 135.837 187.262 137.252 187.153 138.708C186.931 141.628 186.971 144.716 187.23 147.781C187.509 150.851 188.002 153.895 188.717 156.729C189.421 159.564 190.347 162.191 191.322 164.426C192.295 166.658 193.328 168.503 194.151 169.78C194.439 170.233 194.704 170.62 194.927 170.919C188.563 177.394 181.801 183.451 174.599 188.957C174.716 188.695 174.847 188.404 174.988 188.073C175.577 186.669 176.276 184.676 176.856 182.31C177.438 179.941 177.895 177.202 178.115 174.288C178.335 171.372 178.302 168.285 178.05 165.213C177.781 162.146 177.296 159.098 176.576 156.259C176.225 154.849 175.824 153.477 175.381 152.191C174.948 150.904 174.452 149.692 173.978 148.57C173.484 147.451 172.99 146.431 172.502 145.535C172.017 144.639 171.558 143.855 171.139 143.209C170.32 141.937 169.704 141.213 169.704 141.213C169.704 141.213 169.22 142.024 168.63 143.428C168.331 144.13 168.011 144.979 167.681 145.949C167.36 146.921 167.039 148.008 166.749 149.194C166.465 150.375 166.179 151.656 165.984 152.997C165.768 154.343 165.6 155.759 165.495 157.219C165.278 160.132 165.315 163.216 165.576 166.286C165.848 169.353 166.341 172.402 167.056 175.239C167.765 178.074 168.687 180.699 169.662 182.929C170.638 185.162 171.669 187.001 172.492 188.286C172.897 188.922 173.253 189.424 173.504 189.764C170.735 191.853 167.906 193.866 165.005 195.78C161.45 198.131 157.74 200.482 153.911 202.653C154.07 202.326 154.253 201.929 154.445 201.457C155.042 200.051 155.744 198.062 156.313 195.695C156.903 193.329 157.363 190.582 157.573 187.674C157.799 184.75 157.766 181.668 157.508 178.597C157.243 175.53 156.761 172.488 156.046 169.653C155.693 168.229 155.285 166.861 154.842 165.572C154.412 164.286 153.913 163.071 153.44 161.952C152.95 160.841 152.451 159.816 151.965 158.918C151.476 158.02 151.013 157.238 150.603 156.6C149.781 155.318 149.168 154.599 149.168 154.599C149.168 154.599 148.685 155.411 148.088 156.813C147.795 157.515 147.469 158.367 147.145 159.333C146.819 160.305 146.507 161.391 146.205 162.576C145.931 163.757 145.642 165.044 145.448 166.383C145.233 167.73 145.062 169.142 144.957 170.6C144.739 173.52 144.779 176.602 145.034 179.672C145.317 182.738 145.798 185.783 146.519 188.625C147.225 191.461 148.151 194.078 149.121 196.313C150.1 198.549 151.132 200.385 151.96 201.671C152.369 202.323 152.732 202.83 152.99 203.173C147.368 206.299 141.486 208.999 135.43 210.661C134.139 211.024 134.743 213.023 136.037 212.667Z" fill="#C8C1E8"/>
<path d="M96.8991 28.2739C99.3913 28.2739 101.411 30.294 101.411 32.7861C101.411 33.617 102.085 34.2902 102.916 34.2902C103.746 34.2902 104.42 33.617 104.42 32.7861C104.42 28.6323 101.052 25.2651 96.8986 25.2651C96.0677 25.2651 95.3945 25.9384 95.3945 26.7692C95.3951 27.6006 96.0688 28.2739 96.8991 28.2739Z" fill="#6B93F6"/>
<path d="M96.8986 22.2577C102.714 22.2577 107.428 26.9718 107.428 32.7869C107.428 33.6178 108.101 34.291 108.932 34.291C109.763 34.291 110.436 33.6178 110.436 32.7869C110.436 25.3106 104.375 19.2495 96.8986 19.2495C96.0677 19.2495 95.3945 19.9227 95.3945 20.7536C95.3945 21.584 96.0683 22.2577 96.8986 22.2577Z" fill="#6B93F6"/>
<path d="M110.061 40.1722C109.893 39.6814 109.484 39.3119 108.978 39.1947L99.953 37.1341C99.4553 37.0211 98.934 37.1683 98.5692 37.5251C98.3585 37.7206 98.3438 37.7358 97.3657 39.601C94.1216 38.1063 91.5223 35.496 90.0402 32.2455C91.9506 31.2827 91.9653 31.2827 92.1613 31.0573C92.5182 30.692 92.6653 30.1712 92.5523 29.6735L90.4917 20.7541C90.3745 20.2485 90.005 19.8391 89.5142 19.671C89.1631 19.5454 88.8 19.455 88.4311 19.4003C88.0511 19.312 87.6627 19.2616 87.2728 19.25C83.4516 19.25 80.3535 22.3481 80.3535 26.1692C80.3703 38.9556 90.7313 49.3166 103.518 49.3334C107.339 49.3334 110.437 46.2354 110.437 42.4142C110.437 42.0311 110.408 41.649 110.347 41.2711C110.284 40.8964 110.188 40.5291 110.061 40.1722Z" fill="#454975"/>
<path d="M183.759 32.4947H165.278C161.448 32.4947 158.314 29.3609 158.314 25.5308C158.314 21.7007 161.448 18.5669 165.278 18.5669H183.759C187.59 18.5669 190.723 21.7007 190.723 25.5308C190.723 29.3609 187.59 32.4947 183.759 32.4947Z" fill="#454975"/>
<path d="M185.497 34.6345C185.497 35.4843 184.808 36.1733 183.959 36.1733C183.109 36.1733 182.42 35.4843 182.42 34.6345C182.42 33.7847 183.109 33.0957 183.959 33.0957C184.808 33.0957 185.497 33.7847 185.497 34.6345Z" fill="#454975"/>
<path d="M170.48 25.3424C170.48 26.4576 169.576 27.3615 168.461 27.3615C167.345 27.3615 166.441 26.4576 166.441 25.3424C166.441 24.2272 167.345 23.3232 168.461 23.3232C169.576 23.3232 170.48 24.2272 170.48 25.3424Z" fill="white"/>
<path d="M176.539 25.3424C176.539 26.4576 175.635 27.3615 174.52 27.3615C173.405 27.3615 172.501 26.4576 172.501 25.3424C172.501 24.2272 173.405 23.3232 174.52 23.3232C175.635 23.3232 176.539 24.2272 176.539 25.3424Z" fill="white"/>
<path d="M182.599 25.3424C182.599 26.4576 181.695 27.3615 180.58 27.3615C179.464 27.3615 178.561 26.4576 178.561 25.3424C178.561 24.2272 179.464 23.3232 180.58 23.3232C181.695 23.3232 182.599 24.2272 182.599 25.3424Z" fill="white"/>
<path d="M156.818 48.6749H175.3C179.13 48.6749 182.263 45.5411 182.263 41.711C182.263 37.8809 179.13 34.7471 175.3 34.7471H156.818C152.988 34.7471 149.854 37.8809 149.854 41.711C149.854 45.5411 152.988 48.6749 156.818 48.6749Z" fill="#6B93F6"/>
<path d="M155.08 50.8147C155.08 51.6645 155.769 52.3534 156.619 52.3534C157.469 52.3534 158.158 51.6645 158.158 50.8147C158.158 49.9649 157.469 49.2759 156.619 49.2759C155.769 49.2759 155.08 49.9649 155.08 50.8147Z" fill="#6B93F6"/>
<path d="M162.022 41.5865C162.022 42.7017 161.118 43.6056 160.003 43.6056C158.887 43.6056 157.983 42.7017 157.983 41.5865C157.983 40.4713 158.887 39.5674 160.003 39.5674C161.118 39.5674 162.022 40.4713 162.022 41.5865Z" fill="white"/>
<path d="M168.081 41.5865C168.081 42.7017 167.177 43.6056 166.062 43.6056C164.947 43.6056 164.043 42.7017 164.043 41.5865C164.043 40.4713 164.947 39.5674 166.062 39.5674C167.177 39.5674 168.081 40.4713 168.081 41.5865Z" fill="white"/>
<path d="M174.141 41.5865C174.141 42.7017 173.237 43.6056 172.122 43.6056C171.006 43.6056 170.103 42.7017 170.103 41.5865C170.103 40.4713 171.006 39.5674 172.122 39.5674C173.237 39.5674 174.141 40.4713 174.141 41.5865Z" fill="white"/>
<path d="M129.612 90.2365C128.972 91.8877 127.898 93.2131 126.635 94.0697C125.024 95.1781 123.099 95.5323 121.356 94.858C118.254 93.6582 116.923 89.6363 118.38 85.8829C119.831 82.1295 123.527 80.061 126.629 81.2608C126.647 81.2666 126.664 81.2723 126.681 81.2839C129.749 82.5121 131.058 86.5056 129.612 90.2365Z" fill="#A6AFE2"/>
<path d="M53.5536 84.6332C56.8003 89.5817 66.2543 103.963 71.5575 111.757C67.5366 119.281 59.1174 123.444 59.1174 123.444C59.1174 123.444 54.7644 111.796 52.472 105.492C50.1796 99.188 48.4038 94.2795 48.4726 91.0558C48.4821 90.6102 48.8474 90.4614 49.0954 90.4099L48.7491 89.783C48.3271 89.0188 48.6293 88.0571 49.4123 87.6719C49.91 87.427 50.4739 87.4911 50.9127 87.7749L50.2705 86.7359C49.7397 85.8771 49.9526 84.7546 50.7608 84.1497C51.6611 83.4765 52.9366 83.6935 53.5536 84.6332Z" fill="#FFB8B8"/>
<path d="M56.5732 104.628C56.6726 100.715 60.1774 97.6221 61.5196 96.7603L61.9858 97.4871C60.2694 98.5886 57.5155 101.509 57.4362 104.65L56.5732 104.628Z" fill="#F18B8B"/>
<path d="M50.965 87.7692L50.5918 87.9868L55.6531 96.6675L56.0263 96.45L50.965 87.7692Z" fill="#F18B8B"/>
<path d="M49.136 90.4559L48.7471 90.6426L52.7696 99.0232L53.1585 98.8365L49.136 90.4559Z" fill="#F18B8B"/>
<path d="M142.136 97.4456L142.156 97.7751L142.348 107.876L142.839 133.529L112.129 125.272L126.921 115.539L126.773 111.677L126.271 98.2596C126.092 93.9029 129.467 90.2147 133.822 89.9945C138.19 89.7874 141.877 93.1346 142.136 97.4456Z" fill="#FFB8B8"/>
<path d="M142.135 97.4456L142.155 97.7751L142.347 107.876C140.759 108.729 139.108 109.463 137.453 110.127C134.789 111.196 132.423 111.944 129.544 111.951C128.621 111.951 127.656 111.94 126.772 111.677L126.27 98.2596C126.092 93.9029 129.467 90.2147 133.821 89.9945C138.19 89.7874 141.876 93.1346 142.135 97.4456Z" fill="#F18B8B"/>
<path d="M148.676 92.1898C146.403 97.6996 144.685 99.8417 142.817 99.251C137.432 108.475 130.021 111.95 123.41 110.156C118.047 108.714 118.322 100.899 119.827 93.8237C120.184 92.1903 120.597 90.5811 121.018 89.1091C121.715 86.7111 122.867 83.418 124.478 79.7256C120.23 66.5603 132.981 63.6741 141.396 73.2688C141.845 72.9388 142.326 72.6897 142.828 72.563C145.05 71.934 147.546 73.5889 149.416 79.7182C153.265 83.9373 150.964 86.679 148.676 92.1898Z" fill="#454975"/>
<path d="M145.675 79.3635C144.977 78.0691 143.683 76.4657 141.396 73.2683C141.845 72.9383 142.326 72.6892 142.829 72.5625C143.931 74.6321 145.502 77.8584 145.675 79.3635Z" fill="#3B3E63"/>
<path d="M146.916 94.0864C144.334 99.284 140.336 96.9475 139.977 94.8611C137.886 97.9076 136.528 98.6917 135.597 98.7884C134.666 98.8857 132.074 97.2502 130.964 96.8897C129.839 96.516 124.233 98.1478 119.841 93.8368L119.826 93.8237C120.183 92.1903 120.596 90.5811 121.018 89.109C121.714 86.711 122.867 83.418 124.478 79.7255C126.859 76.7032 134.129 70.8797 142.634 85.8701C141.953 88.7632 141.466 90.9831 140.852 92.4662C145.003 87.4499 149.499 88.9025 146.916 94.0864Z" fill="#FFB8B8"/>
<path d="M141.492 93.379C141.683 92.8771 141.965 92.4146 142.331 92.0231C142.684 91.6179 143.118 91.2773 143.61 91.024C144.099 90.7734 144.655 90.5989 145.242 90.6288C145.532 90.6367 145.836 90.7119 146.096 90.8806C146.353 91.0451 146.542 91.3451 146.503 91.6221C146.345 91.393 146.137 91.2947 145.925 91.2684C145.718 91.2311 145.497 91.2558 145.28 91.3015C144.846 91.3987 144.421 91.5774 144.005 91.7913C143.588 92.0026 143.182 92.2569 142.772 92.5297C142.356 92.7962 141.96 93.1025 141.492 93.379Z" fill="#F18B8B"/>
<path d="M142.017 92.7998C142.211 92.5612 142.503 92.3988 142.809 92.3242C143.117 92.2438 143.445 92.2422 143.763 92.3195C144.078 92.4025 144.391 92.5791 144.584 92.8618C144.786 93.1393 144.824 93.4925 144.747 93.7852C144.567 93.185 144.169 92.8592 143.656 92.7373C143.405 92.6684 143.133 92.65 142.86 92.6558C142.586 92.67 142.306 92.701 142.017 92.7998Z" fill="#F18B8B"/>
<path d="M126.994 87.4863C124.417 90.8587 121.359 92.285 120.974 93.1858C120.588 94.0866 121.922 95.8498 125.249 96.4547C127.218 95.207 125.626 93.1643 126.994 87.4863Z" fill="#F18B8B"/>
<path d="M133.252 88.8644C133.299 89.6553 132.816 90.3275 132.172 90.3659C131.529 90.4042 130.969 89.7946 130.921 89.0042C130.874 88.2133 131.357 87.5411 132.001 87.5027C132.644 87.4638 133.205 88.0735 133.252 88.8644Z" fill="#454975"/>
<path d="M124.915 88.0824C124.766 88.8602 124.132 89.3926 123.499 89.2712C122.866 89.1498 122.473 88.4208 122.622 87.643C122.771 86.8652 123.406 86.3329 124.039 86.4543C124.672 86.5751 125.065 87.3041 124.915 88.0824Z" fill="#454975"/>
<path d="M133.527 81.7299C135.849 81.7961 136.948 84.5415 137.3 86.033C137.473 86.7677 136.986 86.9669 136.593 86.2805C136.109 85.4371 134.802 83.9062 133.323 83.3202C132.278 82.9055 132.626 81.7041 133.527 81.7299Z" fill="#454975"/>
<path d="M126.888 80.594C124.93 79.7909 123.288 81.1831 122.459 82.3466C122.022 82.9615 122.348 83.5722 123.01 83.1402C123.825 82.6089 124.762 81.9519 126.345 82.1028C127.465 82.2095 127.722 80.9361 126.888 80.594Z" fill="#454975"/>
<path d="M105.751 196.134C112.794 198.607 120.053 200.103 132.119 198.965C139.165 176.205 140.299 121.533 140.529 118.485C135.003 120.61 128.183 121.846 125.298 115.125C111.479 130.707 105.67 154.516 105.751 196.134Z" fill="white"/>
<path d="M142.438 112.662C134.971 116.972 130.268 130.061 129.028 150.057C127.787 170.054 126.251 188.329 126.759 194.293C127.266 200.256 129.043 209.89 139.734 210.747C150.424 211.604 166.192 212.157 166.192 212.157C166.192 212.157 153.621 134.99 153.194 130.37C152.768 125.75 151.225 118.506 142.438 112.662Z" fill="#6B93F6"/>
<path d="M231.332 198.76C226.412 195.47 212.115 185.889 204.369 180.517C196.809 184.471 192.572 192.854 192.572 192.854C192.572 192.854 204.181 197.31 210.465 199.657C216.748 202.005 221.641 203.825 224.865 203.784C225.31 203.778 225.462 203.414 225.516 203.167L226.14 203.518C226.9 203.947 227.865 203.653 228.257 202.874C228.506 202.378 228.447 201.814 228.167 201.372L229.201 202.024C230.055 202.562 231.179 202.359 231.791 201.556C232.472 200.663 232.266 199.385 231.332 198.76Z" fill="#FFB8B8"/>
<path d="M208.379 183.714L225.976 188.248C226.993 188.51 227.618 189.533 227.386 190.557C227.145 191.628 226.064 192.285 225.001 192.008L214.486 189.269C214.486 189.269 206.159 187.839 208.379 183.714Z" fill="#FFB8B8"/>
<path d="M213.47 195.205C212.802 195.42 212.097 195.552 211.364 195.564L211.351 194.701C214.493 194.649 217.436 191.922 218.553 190.215L219.275 190.687C218.566 191.773 216.369 194.273 213.47 195.205Z" fill="#F18B8B"/>
<path d="M219.541 196.179L219.32 196.55L227.956 201.688L228.176 201.317L219.541 196.179Z" fill="#F18B8B"/>
<path d="M217.117 199.028L216.927 199.415L225.272 203.511L225.462 203.124L217.117 199.028Z" fill="#F18B8B"/>
<path d="M142.437 112.662C152.092 119.497 155.084 124.412 157.99 130.382C160.896 136.351 171.81 155.926 175.056 160.077C178.302 164.228 204.369 180.517 204.369 180.517L190.447 195.887C190.447 195.887 163.762 184.131 158.635 178.594C153.507 173.058 142.173 152.465 142.437 112.662Z" fill="#6B93F6"/>
<path d="M126.85 113.904L126.948 116.461C121.119 122.873 116.602 134.166 114.109 148.658C111.277 165.072 110.188 182.526 110.076 196.972C110.011 206.91 100.827 206.785 96.2842 203.393C97.2496 190.315 101.032 158.743 103.086 149.099C105.053 139.86 109.036 113.016 126.85 113.904Z" fill="#6B93F6"/>
<path d="M126.86 114.069L126.89 114.797C117.669 118.409 112.749 135.858 112.749 135.858C112.749 135.858 107.006 153.886 101.736 158.053C91.5064 166.141 83.8829 163.996 78.123 157.879C75.0812 154.648 55.8838 124.01 55.8838 124.01L71.5864 111.556L89.3706 135.441C89.3706 135.441 104.459 124.671 110.146 120.486C115.279 116.693 119.65 114.005 126.86 114.069Z" fill="#6B93F6"/>
<path d="M145.217 148.149L144.412 148.462L154.086 173.284L154.89 172.97L145.217 148.149Z" fill="#BB4344"/>
<path d="M106.364 137.924L102.161 151.23L102.984 151.49L107.187 138.184L106.364 137.924Z" fill="#000091"/>
<path d="M55.0472 94.5682L38.9258 78.4468V92.2553C38.9258 94.9266 41.091 97.0919 43.7623 97.0919H66.3326C69.004 97.0919 71.1692 94.9266 71.1692 92.2553V78.4468L55.0472 94.5682Z" fill="#3E4169"/>
<path d="M71.1682 78.4463V76.1334C71.1682 73.4621 69.003 71.2969 66.3317 71.2969H43.7613C41.09 71.2969 38.9248 73.4621 38.9248 76.1334V78.4463L55.0462 94.5678L71.1682 78.4463Z" fill="#454975"/>
<path d="M68.0803 80.3687C71.3613 80.3687 74.021 77.709 74.021 74.428C74.021 71.147 71.3613 68.4873 68.0803 68.4873C64.7994 68.4873 62.1396 71.147 62.1396 74.428C62.1396 77.709 64.7994 80.3687 68.0803 80.3687Z" fill="#6B93F6"/>
<path d="M53.1954 86.3789H42.6084V88.7428H53.1954V86.3789Z" fill="#A6AFE2"/>
<path d="M68.3979 107.717L64.0196 90.0809C63.7668 89.0613 62.7494 88.4281 61.723 88.6504C60.6504 88.8827 59.983 89.9574 60.2505 91.0221L62.8971 101.561C62.8971 101.561 64.253 109.901 68.3979 107.717Z" fill="#FFB8B8"/>
<path d="M127.294 98.3403C127.288 98.3686 127.29 98.3965 127.284 98.4249C126.642 103.523 120.568 104.042 120.119 97.8174C120.088 97.4952 120.078 97.151 120.088 96.7915C121.766 96.854 125.8 97.8809 127.294 98.3403Z" fill="#F18B8B"/>
<path d="M127.294 98.3403C127.288 98.3686 127.29 98.3965 127.284 98.4249C126.596 98.6004 125.849 98.7087 125.056 98.7491C123.063 98.85 121.264 98.4769 120.119 97.8174C120.088 97.4952 120.078 97.151 120.088 96.7915C121.766 96.854 125.8 97.8809 127.294 98.3403Z" fill="#F3EDFF"/>
<path d="M149.68 94.9277C149.04 96.5789 147.966 97.9043 146.704 98.7615C145.092 99.8698 143.167 100.224 141.425 99.5498C138.322 98.35 136.991 94.328 138.448 90.5741C139.899 86.8207 143.596 84.7527 146.698 85.952C146.715 85.9578 146.732 85.9635 146.749 85.9751C149.817 87.2038 151.125 91.1969 149.68 94.9277Z" fill="#A6AFE2"/>
<path d="M144.786 86.0435C147.152 82.7158 144.469 76.2821 141.392 73.2687C141.392 73.2687 140.28 72.0552 139.906 71.7583C140.599 71.7693 140.852 71.8902 141.555 72.4289C142.259 72.9676 151.615 78.6245 148.035 87.299C148.035 87.299 144.972 86.7971 144.786 86.0435Z" fill="#A6AFE2"/>
<path d="M149.68 94.9276C149.04 96.5789 147.967 97.9043 146.704 98.7614C142.368 99.7384 138.963 95.3906 141.934 90.2661C143.236 88.021 144.967 86.6441 146.75 85.9756C149.818 87.2038 151.126 91.1968 149.68 94.9276Z" fill="#BBC3ED"/>
<path d="M140.882 96.438C138.259 99.0615 133.109 99.3426 129.037 99.4089C128.645 99.4152 128.322 99.72 128.297 100.112C128.267 100.563 128.64 100.939 129.092 100.914C135.282 100.57 139.129 100.179 141.756 97.3629L140.882 96.438Z" fill="#A6AFE2"/>
<path d="M129.059 101.725C129.939 101.725 130.653 101.012 130.653 100.132C130.653 99.252 129.939 98.5386 129.059 98.5386C128.179 98.5386 127.466 99.252 127.466 100.132C127.466 101.012 128.179 101.725 129.059 101.725Z" fill="#EA5455"/>
<path d="M78.95 52.7388C82.1967 52.7388 84.8286 50.1068 84.8286 46.8601C84.8286 43.6134 82.1967 40.9814 78.95 40.9814C75.7033 40.9814 73.0713 43.6134 73.0713 46.8601C73.0713 50.1068 75.7033 52.7388 78.95 52.7388Z" fill="#ECECFE"/>
<path d="M140.789 28.3673C140.789 29.6995 139.709 30.779 138.378 30.779C137.045 30.779 135.966 29.699 135.966 28.3673C135.966 27.0355 137.046 25.9556 138.378 25.9556C139.71 25.9556 140.789 27.0355 140.789 28.3673Z" fill="#DAD4F8"/>
<path d="M113.974 64.0861C114.925 64.0861 115.696 63.3148 115.696 62.3633C115.696 61.4119 114.925 60.6406 113.974 60.6406C113.022 60.6406 112.251 61.4119 112.251 62.3633C112.251 63.3148 113.022 64.0861 113.974 64.0861Z" fill="#DAD4F8"/>
<path d="M163.8 116.775C163.8 117.821 162.952 118.67 161.905 118.67C160.859 118.67 160.01 117.822 160.01 116.775C160.01 115.729 160.858 114.88 161.905 114.88C162.952 114.88 163.8 115.729 163.8 116.775Z" fill="#DAD4F8"/>
<path d="M173.376 152.192V188.683C173.376 192.288 170.456 195.213 166.845 195.213H102.092C98.4867 195.213 95.5674 192.288 95.5674 188.683V152.192C95.5674 148.587 98.4867 145.662 102.092 145.662H166.845C170.456 145.662 173.376 148.587 173.376 152.192Z" fill="#454975"/>
<path d="M151.534 195.212H128.081L127.247 167.772H141.69L151.534 195.212Z" fill="#393C61"/>
<path d="M158.995 206.781H146.752L141.692 167.775H127.249L122.189 206.781H109.946C108.934 206.781 108.113 207.601 108.113 208.614V210.415H160.826V208.614C160.827 207.601 160.007 206.781 158.995 206.781ZM139.76 187.324C139.76 190.245 137.392 192.613 134.471 192.613C131.549 192.613 129.181 190.245 129.181 187.324V185.116C129.181 182.195 131.549 179.827 134.471 179.827C137.392 179.827 139.76 182.195 139.76 185.116V187.324Z" fill="#A6AFE2"/>
<path d="M134.404 186.53C122.208 186.53 126.461 201.607 126.461 210.056" stroke="#F3EDFF" stroke-width="1.14263" stroke-miterlimit="10"/>
<path d="M194.785 70.6143C192.011 70.6143 189.389 70.9595 187.057 71.5734C185.864 71.8876 185.029 72.9603 185.029 74.1942V92.1745V94.4848C185.029 96.2101 186.619 97.4809 188.307 97.1214C190.31 96.6941 192.497 96.4592 194.785 96.4592C198.396 96.4592 201.758 97.0442 204.548 98.0458V92.174V72.2003C201.758 71.1992 198.396 70.6143 194.785 70.6143Z" fill="#454975"/>
<path d="M214.31 70.6143C210.699 70.6143 207.336 71.1992 204.547 72.2009V92.1745V98.0464C207.336 97.0447 210.699 96.4598 214.31 96.4598C216.598 96.4598 218.784 96.6947 220.788 97.1219C222.476 97.4814 224.065 96.2106 224.065 94.4853V92.175V74.1948C224.065 72.9608 223.231 71.8882 222.037 71.5739C219.707 70.9595 217.084 70.6143 214.31 70.6143Z" fill="#3E4169"/>
<path d="M223.529 212.902H38.1344C37.4365 212.902 36.8652 212.33 36.8652 211.632C36.8652 210.935 37.4365 210.363 38.1344 210.363H223.529C224.227 210.363 224.799 210.935 224.799 211.632C224.798 212.33 224.227 212.902 223.529 212.902Z" fill="#454975"/>
</svg>
