<svg width="226" height="208" viewBox="0 0 226 208" fill="none" xmlns="http://www.w3.org/2000/svg">
<path d="M209.86 106.076C217.524 97.859 224.718 86.7774 220.802 76.3844C216.876 65.964 203.999 61.972 192.705 59.9797C181.411 57.9874 168.599 55.7848 162.344 46.4864C156.03 37.1019 159.045 23.9366 152.841 14.4843C146.252 4.44646 132.22 2.45729 119.958 1.45404C101.261 -0.0752805 82.0065 -1.55099 64.092 3.84104C46.1768 9.2336 29.7054 23.2345 27.6668 41.251C25.5946 59.564 38.3863 78.1355 32.7604 95.7379C26.9211 114.008 3.15411 124.086 0.786553 143.07C-0.452669 153.007 4.72284 162.525 9.73438 171.287C16.146 182.497 22.5575 194.416 28.9686 205.625H188.16C185.871 202.507 188.137 198.019 191.331 195.763C194.525 193.507 198.525 192.457 201.596 190.045C209.726 183.659 207.892 171.119 203.308 162.017C198.724 152.915 191.984 144.016 192.539 133.909C193.147 122.865 202.196 114.294 209.86 106.076Z" fill="#ECECFE"/>
<path d="M13.8386 113.774C31.0117 97.2371 29.702 88.437 26.1767 66.4048C24.4566 55.6533 10.7847 66.1898 5.90719 82.4884C0.788439 99.59 4.70055 122.573 13.8386 113.774Z" fill="#ECECFE"/>
<path d="M69.7958 197.333C67.5244 201.371 36.1981 210.013 35.9647 198.112C35.7687 188.089 58.5461 191.073 66.9022 194.591C64.4106 192.155 62.0231 189.639 59.7349 187.137C57.5439 184.741 55.4381 182.275 53.4153 179.748C48.4994 182.882 18.3213 183.638 20.7367 172.404C22.6691 163.415 40.9027 169.507 49.5636 174.698C46.5186 170.551 43.6844 166.255 41.0525 161.837C37.4268 164.963 5.27325 163.879 8.56575 152.499C11.3169 142.99 31.6995 152.24 38.8873 158.095C36.196 153.3 33.7301 148.376 31.495 143.347C26.9123 145.763 -4.04246 140.486 0.653231 129.76C4.53749 120.887 22.8094 132.022 29.5553 138.822C28.3817 135.982 27.2823 133.112 26.247 130.219C21.4189 128.249 5.41304 101.309 16.6133 97.9341C27.1951 94.7446 30.0866 122.706 27.8651 129.061C29.0266 132.333 30.2847 135.569 31.6259 138.766C32.0195 129.833 39.4296 107.25 48.379 112.237C58.4573 117.855 38.3197 141.079 33.1189 142.244C35.3209 147.199 37.7558 152.044 40.4045 156.767C39.8726 147.446 44.284 125.204 53.5955 128.896C64.1783 133.094 47.8346 158.123 42.5902 160.55C45.786 165.916 49.2803 171.103 53.0815 176.077C51.2711 168.237 53.8373 142.483 64.0096 145.716C75.2204 149.279 59.3045 177.04 54.768 178.26C56.8434 180.878 59.0007 183.438 61.2505 185.926C63.267 188.156 65.3755 190.394 67.5743 192.571C64.3344 183.708 62.0441 161.455 71.9663 162.214C83.31 163.083 75.1458 191.8 70.8548 195.701C74.9461 199.459 79.327 202.916 84.0001 205.671C85.0753 206.305 83.916 207.862 82.8486 207.233C78.1965 204.488 73.8603 201.058 69.7958 197.333Z" fill="#C8C1E8"/>
<path d="M117.652 206.945C118.759 199.712 120.274 192.544 122.192 185.482C124.105 178.436 126.426 171.5 129.12 164.714C131.819 157.913 134.896 151.261 138.332 144.801C141.761 138.354 145.546 132.099 149.678 126.078C153.798 120.072 158.254 114.298 163.024 108.796C163.629 108.099 164.24 107.406 164.854 106.717C165.657 105.816 164.215 104.625 163.416 105.521C158.499 111.033 153.899 116.824 149.645 122.861C145.401 128.881 141.495 135.141 137.945 141.595C134.402 148.037 131.22 154.676 128.415 161.472C125.592 168.314 123.16 175.313 121.116 182.426C119.086 189.492 117.454 196.671 116.241 203.92C116.088 204.831 115.943 205.743 115.804 206.655C115.622 207.844 117.47 208.139 117.652 206.945Z" fill="#DAD4F8"/>
<path d="M147.399 129.695C146.025 115.399 149.81 94.2198 150.149 80.1438C150.523 64.6114 152.694 47.9119 165.825 38.9073C169.25 36.5587 173.619 34.8071 178.464 35.4556C185.27 36.3663 191.214 41.9318 193.522 47.6639C195.83 53.3964 195.222 59.2326 194.121 64.7018C188.748 91.4139 171.998 114.714 147.399 129.695Z" fill="#DAD4F8"/>
<path d="M126.757 168.447C117.331 158.564 107.853 140.546 99.8753 129.833C91.0731 118.012 82.9724 104.278 87.8274 89.9269C89.0934 86.184 91.4373 82.3386 95.5528 80.0105C101.335 76.739 109.175 77.4458 114.31 80.3883C119.444 83.3308 122.391 88.0439 124.744 92.7679C136.237 115.843 136.958 142.973 126.757 168.447Z" fill="#DAD4F8"/>
<path d="M119.566 189.241C126.987 175.624 143 157.566 151.766 144.774C161.438 130.658 173.363 116.123 190.115 112.634C194.485 111.723 199.309 111.703 203.1 114.06C208.426 117.37 210.206 124.636 208.747 130.735C207.288 136.834 203.25 141.968 199.009 146.587C178.293 169.145 149.814 184.436 119.566 189.241Z" fill="#DAD4F8"/>
<path d="M114.037 207.667C122.985 205.209 131.665 200.565 139.636 195.494C139.985 195.73 140.492 196.054 141.14 196.416C142.458 197.168 144.356 198.104 146.638 198.958C148.918 199.808 151.592 200.591 154.457 201.146C157.331 201.708 160.399 202.037 163.472 202.153C166.552 202.243 169.634 202.118 172.534 201.741C173.991 201.558 175.388 201.318 176.725 201.035C178.053 200.755 179.311 200.404 180.483 200.064C181.649 199.712 182.714 199.335 183.676 198.96C184.625 198.58 185.451 198.213 186.132 197.877C187.506 197.21 188.294 196.688 188.294 196.688C188.294 196.688 187.54 196.111 186.221 195.362C185.556 194.979 184.749 194.559 183.826 194.119C182.904 193.684 181.855 193.246 180.718 192.81C179.575 192.397 178.341 191.96 177.026 191.601C175.71 191.233 174.33 190.899 172.892 190.623C170.024 190.057 166.955 189.736 163.879 189.631C160.803 189.551 157.714 189.676 154.817 190.056C151.915 190.417 149.204 191.03 146.868 191.733C145.723 192.079 144.673 192.451 143.732 192.822C144.328 192.417 144.923 192.018 145.515 191.612C151.224 187.721 156.665 183.491 161.884 179.017C162.156 179.182 162.472 179.367 162.838 179.576C164.161 180.332 166.06 181.266 168.342 182.115C170.623 182.968 173.29 183.751 176.162 184.307C179.024 184.871 182.102 185.198 185.176 185.313C188.254 185.408 191.338 185.287 194.233 184.902C195.686 184.721 197.088 184.481 198.424 184.195C199.753 183.919 201.017 183.567 202.184 183.224C203.355 182.872 204.416 182.495 205.373 182.125C206.318 181.744 207.151 181.376 207.836 181.04C209.206 180.374 209.995 179.852 209.995 179.852C209.995 179.852 209.239 179.273 207.925 178.526C207.254 178.143 206.447 177.72 205.531 177.283C204.606 176.847 203.561 176.407 202.416 175.972C201.278 175.556 200.044 175.128 198.729 174.761C197.416 174.392 196.029 174.065 194.595 173.787C191.726 173.225 188.655 172.901 185.582 172.798C182.503 172.714 179.418 172.837 176.522 173.215C173.621 173.588 170.903 174.191 168.57 174.897C167.348 175.267 166.235 175.666 165.245 176.05C170.242 171.563 175.011 166.835 179.555 161.887C179.883 161.968 180.255 162.06 180.686 162.153C182.183 162.465 184.274 162.784 186.704 162.905C189.137 163.029 191.919 162.968 194.822 162.624C197.725 162.294 200.751 161.68 203.718 160.854C206.683 160.015 209.583 158.963 212.231 157.723C213.558 157.111 214.823 156.461 216.006 155.782C217.194 155.116 218.29 154.402 219.298 153.722C220.299 153.024 221.21 152.349 222.002 151.703C222.792 151.053 223.482 150.455 224.022 149.925C225.127 148.881 225.72 148.138 225.72 148.138C225.72 148.138 224.829 147.818 223.342 147.499C222.594 147.341 221.703 147.185 220.684 147.047C219.672 146.909 218.548 146.804 217.327 146.733C216.113 146.689 214.801 146.649 213.443 146.7C212.081 146.747 210.661 146.85 209.205 147.016C206.304 147.351 203.278 147.971 200.318 148.803C197.356 149.651 194.461 150.705 191.808 151.947C189.205 153.148 186.855 154.521 184.871 155.866C188.535 151.574 192.046 147.146 195.409 142.6C196.61 141.847 198.064 140.833 199.614 139.546C201.486 137.979 203.484 136.047 205.385 133.827C207.304 131.613 209.103 129.111 210.722 126.492C212.331 123.869 213.75 121.128 214.859 118.416C215.416 117.067 215.9 115.731 216.317 114.434C216.733 113.142 217.05 111.867 217.337 110.683C217.606 109.494 217.808 108.377 217.954 107.366C218.097 106.352 218.192 105.454 218.232 104.689C218.341 103.173 218.265 102.225 218.265 102.225C218.265 102.225 217.396 102.595 216.088 103.371C215.426 103.76 214.665 104.248 213.828 104.838C212.992 105.421 212.084 106.111 211.149 106.89C210.219 107.678 209.233 108.533 208.268 109.497C207.301 110.455 206.327 111.493 205.377 112.6C203.464 114.813 201.666 117.323 200.045 119.944C198.457 122.573 197.039 125.32 195.929 128.025C194.812 130.731 193.998 133.387 193.454 135.762C192.91 138.137 192.646 140.233 192.544 141.755C192.51 142.271 192.498 142.712 192.492 143.083C187.046 150.334 181.194 157.292 174.936 163.842C175.454 162.511 176.029 160.795 176.519 158.806C177.096 156.437 177.556 153.693 177.774 150.779C177.995 147.862 177.955 144.777 177.711 141.711C177.44 138.643 176.957 135.597 176.236 132.764C175.879 131.337 175.482 129.973 175.041 128.684C174.607 127.395 174.113 126.184 173.638 125.063C173.141 123.948 172.646 122.932 172.162 122.03C171.673 121.13 171.213 120.349 170.794 119.706C169.979 118.426 169.367 117.709 169.367 117.709C169.367 117.709 168.879 118.52 168.292 119.921C167.987 120.626 167.667 121.475 167.338 122.444C167.019 123.415 166.701 124.502 166.405 125.683C166.133 126.868 165.844 128.146 165.638 129.495C165.43 130.837 165.262 132.252 165.153 133.708C164.931 136.628 164.971 139.716 165.23 142.781C165.509 145.851 166.002 148.895 166.717 151.729C167.421 154.564 168.347 157.191 169.322 159.426C170.295 161.658 171.328 163.503 172.151 164.78C172.439 165.233 172.704 165.62 172.927 165.919C166.563 172.394 159.801 178.451 152.599 183.957C152.716 183.695 152.847 183.404 152.988 183.073C153.577 181.669 154.276 179.676 154.856 177.31C155.438 174.941 155.895 172.202 156.115 169.288C156.335 166.372 156.302 163.285 156.05 160.213C155.781 157.146 155.296 154.098 154.576 151.259C154.225 149.849 153.824 148.477 153.381 147.191C152.948 145.904 152.452 144.692 151.978 143.57C151.484 142.451 150.99 141.431 150.502 140.535C150.017 139.639 149.558 138.855 149.139 138.209C148.32 136.937 147.704 136.213 147.704 136.213C147.704 136.213 147.22 137.024 146.63 138.428C146.331 139.13 146.011 139.979 145.681 140.949C145.36 141.921 145.039 143.008 144.749 144.194C144.465 145.375 144.179 146.656 143.984 147.997C143.768 149.343 143.6 150.759 143.495 152.219C143.278 155.132 143.315 158.216 143.576 161.286C143.848 164.353 144.341 167.402 145.056 170.239C145.765 173.074 146.687 175.699 147.662 177.929C148.638 180.162 149.669 182.001 150.492 183.286C150.897 183.922 151.253 184.424 151.504 184.764C148.735 186.853 145.906 188.866 143.005 190.78C139.45 193.131 135.74 195.482 131.911 197.653C132.07 197.326 132.253 196.929 132.445 196.457C133.042 195.051 133.744 193.062 134.313 190.695C134.903 188.329 135.363 185.582 135.573 182.674C135.799 179.75 135.766 176.668 135.508 173.597C135.243 170.53 134.761 167.488 134.046 164.653C133.693 163.229 133.285 161.861 132.842 160.572C132.412 159.286 131.913 158.071 131.44 156.952C130.95 155.841 130.451 154.816 129.965 153.918C129.476 153.02 129.013 152.238 128.603 151.6C127.781 150.318 127.168 149.599 127.168 149.599C127.168 149.599 126.685 150.411 126.088 151.813C125.795 152.515 125.469 153.367 125.145 154.333C124.819 155.305 124.507 156.391 124.205 157.576C123.931 158.757 123.642 160.044 123.448 161.383C123.233 162.73 123.062 164.142 122.957 165.6C122.739 168.52 122.779 171.602 123.034 174.672C123.317 177.738 123.798 180.783 124.519 183.625C125.225 186.461 126.151 189.078 127.121 191.313C128.1 193.549 129.132 195.385 129.96 196.671C130.369 197.323 130.732 197.83 130.99 198.173C125.368 201.299 119.486 203.999 113.43 205.661C112.139 206.024 112.743 208.023 114.037 207.667Z" fill="#C8C1E8"/>
<path d="M74.8991 23.2739C77.3913 23.2739 79.4114 25.294 79.4114 27.7861C79.4114 28.617 80.0846 29.2902 80.9155 29.2902C81.7464 29.2902 82.4196 28.617 82.4196 27.7861C82.4196 23.6323 79.0525 20.2651 74.8986 20.2651C74.0677 20.2651 73.3945 20.9384 73.3945 21.7692C73.3951 22.6006 74.0688 23.2739 74.8991 23.2739Z" fill="#6B93F6"/>
<path d="M74.8986 17.2577C80.7137 17.2577 85.4278 21.9718 85.4278 27.7869C85.4278 28.6178 86.101 29.291 86.9319 29.291C87.7628 29.291 88.436 28.6178 88.436 27.7869C88.436 20.3106 82.3749 14.2495 74.8986 14.2495C74.0677 14.2495 73.3945 14.9227 73.3945 15.7536C73.3945 16.584 74.0683 17.2577 74.8986 17.2577Z" fill="#6B93F6"/>
<path d="M88.0612 35.1722C87.893 34.6814 87.4836 34.3119 86.9781 34.1947L77.953 32.1341C77.4553 32.0211 76.934 32.1683 76.5692 32.5251C76.3585 32.7206 76.3438 32.7358 75.3657 34.601C72.1216 33.1063 69.5223 30.496 68.0402 27.2455C69.9506 26.2827 69.9653 26.2827 70.1613 26.0573C70.5182 25.692 70.6653 25.1712 70.5523 24.6735L68.4917 15.7541C68.3745 15.2485 68.005 14.8391 67.5142 14.671C67.1631 14.5454 66.8 14.455 66.4311 14.4003C66.0511 14.312 65.6627 14.2616 65.2728 14.25C61.4516 14.25 58.3535 17.3481 58.3535 21.1692C58.3703 33.9556 68.7313 44.3166 81.5177 44.3334C85.3389 44.3334 88.437 41.2354 88.437 37.4142C88.4375 37.0311 88.4075 36.649 88.3466 36.2711C88.284 35.8964 88.1884 35.5291 88.0612 35.1722Z" fill="#454975"/>
<path d="M161.759 27.4947H143.278C139.448 27.4947 136.314 24.3609 136.314 20.5308C136.314 16.7007 139.448 13.5669 143.278 13.5669H161.759C165.59 13.5669 168.723 16.7007 168.723 20.5308C168.723 24.3609 165.59 27.4947 161.759 27.4947Z" fill="#454975"/>
<path d="M163.497 29.6345C163.497 30.4843 162.808 31.1733 161.959 31.1733C161.109 31.1733 160.42 30.4843 160.42 29.6345C160.42 28.7847 161.109 28.0957 161.959 28.0957C162.808 28.0957 163.497 28.7847 163.497 29.6345Z" fill="#454975"/>
<path d="M148.48 20.3424C148.48 21.4576 147.576 22.3615 146.461 22.3615C145.345 22.3615 144.441 21.4576 144.441 20.3424C144.441 19.2272 145.345 18.3232 146.461 18.3232C147.576 18.3232 148.48 19.2272 148.48 20.3424Z" fill="white"/>
<path d="M154.539 20.3424C154.539 21.4576 153.635 22.3615 152.52 22.3615C151.405 22.3615 150.501 21.4576 150.501 20.3424C150.501 19.2272 151.405 18.3232 152.52 18.3232C153.635 18.3232 154.539 19.2272 154.539 20.3424Z" fill="white"/>
<path d="M160.599 20.3424C160.599 21.4576 159.695 22.3615 158.58 22.3615C157.464 22.3615 156.561 21.4576 156.561 20.3424C156.561 19.2272 157.464 18.3232 158.58 18.3232C159.695 18.3232 160.599 19.2272 160.599 20.3424Z" fill="white"/>
<path d="M134.818 43.6749H153.3C157.13 43.6749 160.263 40.5411 160.263 36.711C160.263 32.8809 157.13 29.7471 153.3 29.7471H134.818C130.988 29.7471 127.854 32.8809 127.854 36.711C127.854 40.5411 130.988 43.6749 134.818 43.6749Z" fill="#6B93F6"/>
<path d="M133.08 45.8147C133.08 46.6645 133.769 47.3534 134.619 47.3534C135.469 47.3534 136.158 46.6645 136.158 45.8147C136.158 44.9649 135.469 44.2759 134.619 44.2759C133.769 44.2759 133.08 44.9649 133.08 45.8147Z" fill="#6B93F6"/>
<path d="M140.022 36.5865C140.022 37.7017 139.118 38.6056 138.003 38.6056C136.887 38.6056 135.983 37.7017 135.983 36.5865C135.983 35.4713 136.887 34.5674 138.003 34.5674C139.118 34.5674 140.022 35.4713 140.022 36.5865Z" fill="white"/>
<path d="M146.081 36.5865C146.081 37.7017 145.177 38.6056 144.062 38.6056C142.947 38.6056 142.043 37.7017 142.043 36.5865C142.043 35.4713 142.947 34.5674 144.062 34.5674C145.177 34.5674 146.081 35.4713 146.081 36.5865Z" fill="white"/>
<path d="M152.141 36.5865C152.141 37.7017 151.237 38.6056 150.122 38.6056C149.006 38.6056 148.103 37.7017 148.103 36.5865C148.103 35.4713 149.006 34.5674 150.122 34.5674C151.237 34.5674 152.141 35.4713 152.141 36.5865Z" fill="white"/>
<path d="M107.612 85.2365C106.972 86.8877 105.898 88.2131 104.635 89.0697C103.024 90.1781 101.099 90.5323 99.3562 89.858C96.2539 88.6582 94.9227 84.6363 96.3795 80.8829C97.8306 77.1295 101.527 75.061 104.629 76.2608C104.647 76.2666 104.664 76.2723 104.681 76.2839C107.749 77.5121 109.058 81.5056 107.612 85.2365Z" fill="#A6AFE2"/>
<path d="M31.5536 79.6332C34.8003 84.5817 44.2543 98.9625 49.5575 106.757C45.5366 114.281 37.1174 118.444 37.1174 118.444C37.1174 118.444 32.7644 106.796 30.472 100.492C28.1796 94.188 26.4038 89.2795 26.4726 86.0558C26.4821 85.6102 26.8474 85.4614 27.0954 85.4099L26.7491 84.783C26.3271 84.0188 26.6293 83.0571 27.4123 82.6719C27.91 82.427 28.4739 82.4911 28.9127 82.7749L28.2705 81.7359C27.7397 80.8771 27.9526 79.7546 28.7608 79.1497C29.6611 78.4765 30.9366 78.6935 31.5536 79.6332Z" fill="#FFB8B8"/>
<path d="M34.5732 99.6281C34.6726 95.7149 38.1774 92.6221 39.5196 91.7603L39.9858 92.4871C38.2694 93.5886 35.5155 96.5085 35.4362 99.6502L34.5732 99.6281Z" fill="#F18B8B"/>
<path d="M28.965 82.7692L28.5918 82.9868L33.6531 91.6675L34.0263 91.45L28.965 82.7692Z" fill="#F18B8B"/>
<path d="M27.136 85.4559L26.7471 85.6426L30.7696 94.0232L31.1585 93.8365L27.136 85.4559Z" fill="#F18B8B"/>
<path d="M120.136 92.4456L120.156 92.7751L120.348 102.876L120.839 128.529L90.1289 120.272L104.921 110.539L104.773 106.677L104.271 93.2596C104.092 88.9029 107.467 85.2147 111.822 84.9945C116.19 84.7874 119.877 88.1346 120.136 92.4456Z" fill="#FFB8B8"/>
<path d="M120.135 92.4456L120.155 92.7751L120.347 102.876C118.759 103.729 117.108 104.463 115.453 105.127C112.789 106.196 110.423 106.944 107.544 106.951C106.621 106.951 105.656 106.94 104.772 106.677L104.27 93.2596C104.092 88.9029 107.467 85.2147 111.821 84.9945C116.19 84.7874 119.876 88.1346 120.135 92.4456Z" fill="#F18B8B"/>
<path d="M126.676 87.1898C124.403 92.6996 122.685 94.8417 120.817 94.251C115.432 103.475 108.021 106.95 101.41 105.156C96.0467 103.714 96.3221 95.8991 97.8267 88.8237C98.1835 87.1903 98.5966 85.5811 99.0181 84.1091C99.715 81.7111 100.867 78.418 102.478 74.7256C98.2303 61.5603 110.981 58.6741 119.396 68.2688C119.845 67.9388 120.326 67.6897 120.828 67.563C123.05 66.934 125.546 68.5889 127.416 74.7182C131.265 78.9373 128.964 81.679 126.676 87.1898Z" fill="#454975"/>
<path d="M123.675 74.3635C122.977 73.0691 121.683 71.4657 119.396 68.2683C119.845 67.9383 120.326 67.6892 120.829 67.5625C121.931 69.6321 123.502 72.8584 123.675 74.3635Z" fill="#3B3E63"/>
<path d="M124.916 89.0864C122.334 94.284 118.336 91.9475 117.977 89.8611C115.886 92.9076 114.528 93.6917 113.597 93.7884C112.666 93.8857 110.074 92.2502 108.964 91.8897C107.839 91.516 102.233 93.1478 97.8409 88.8368L97.8262 88.8237C98.183 87.1903 98.5961 85.5811 99.0176 84.109C99.7144 81.711 100.867 78.418 102.478 74.7255C104.859 71.7032 112.129 65.8797 120.634 80.8701C119.953 83.7632 119.466 85.9831 118.852 87.4662C123.003 82.4499 127.499 83.9025 124.916 89.0864Z" fill="#FFB8B8"/>
<path d="M119.492 88.379C119.683 87.8771 119.965 87.4146 120.331 87.0231C120.684 86.6179 121.118 86.2773 121.61 86.024C122.099 85.7734 122.655 85.5989 123.242 85.6288C123.532 85.6367 123.836 85.7119 124.096 85.8806C124.353 86.0451 124.542 86.3451 124.503 86.6221C124.345 86.393 124.137 86.2947 123.925 86.2684C123.718 86.2311 123.497 86.2558 123.28 86.3015C122.846 86.3987 122.421 86.5774 122.005 86.7913C121.588 87.0026 121.182 87.2569 120.772 87.5297C120.356 87.7962 119.96 88.1025 119.492 88.379Z" fill="#F18B8B"/>
<path d="M120.017 87.7998C120.211 87.5612 120.503 87.3988 120.809 87.3242C121.117 87.2438 121.445 87.2422 121.763 87.3195C122.078 87.4025 122.391 87.5791 122.584 87.8618C122.786 88.1393 122.824 88.4925 122.747 88.7852C122.567 88.185 122.169 87.8592 121.656 87.7373C121.405 87.6684 121.133 87.65 120.86 87.6558C120.586 87.67 120.306 87.701 120.017 87.7998Z" fill="#F18B8B"/>
<path d="M104.994 82.4863C102.417 85.8587 99.3588 87.285 98.9735 88.1858C98.5883 89.0866 99.9221 90.8498 103.249 91.4547C105.218 90.207 103.626 88.1643 104.994 82.4863Z" fill="#F18B8B"/>
<path d="M111.252 83.8644C111.299 84.6553 110.816 85.3275 110.172 85.3659C109.529 85.4042 108.969 84.7946 108.921 84.0042C108.874 83.2133 109.357 82.5411 110.001 82.5027C110.644 82.4638 111.205 83.0735 111.252 83.8644Z" fill="#454975"/>
<path d="M102.915 83.0824C102.766 83.8602 102.132 84.3926 101.499 84.2712C100.866 84.1498 100.473 83.4208 100.622 82.643C100.771 81.8652 101.406 81.3329 102.039 81.4543C102.672 81.5751 103.065 82.3041 102.915 83.0824Z" fill="#454975"/>
<path d="M111.527 76.7299C113.849 76.7961 114.948 79.5415 115.3 81.033C115.473 81.7677 114.986 81.9669 114.593 81.2805C114.109 80.4371 112.802 78.9062 111.323 78.3202C110.278 77.9055 110.626 76.7041 111.527 76.7299Z" fill="#454975"/>
<path d="M104.888 75.594C102.93 74.7909 101.288 76.1831 100.459 77.3466C100.022 77.9615 100.348 78.5722 101.01 78.1402C101.825 77.6089 102.762 76.9519 104.345 77.1028C105.465 77.2095 105.722 75.9361 104.888 75.594Z" fill="#454975"/>
<path d="M83.7508 191.134C90.7936 193.607 98.0534 195.103 110.119 193.965C117.165 171.205 118.299 116.533 118.529 113.485C113.003 115.61 106.183 116.846 103.298 110.125C89.4787 125.707 83.6699 149.516 83.7508 191.134Z" fill="white"/>
<path d="M120.438 107.662C112.971 111.972 108.268 125.061 107.028 145.057C105.787 165.054 104.251 183.329 104.759 189.293C105.266 195.256 107.043 204.89 117.734 205.747C128.424 206.604 144.192 207.157 144.192 207.157C144.192 207.157 131.621 129.99 131.194 125.37C130.768 120.75 129.225 113.506 120.438 107.662Z" fill="#6B93F6"/>
<path d="M209.332 193.76C204.412 190.47 190.115 180.889 182.369 175.517C174.809 179.471 170.572 187.854 170.572 187.854C170.572 187.854 182.181 192.31 188.465 194.657C194.748 197.005 199.641 198.825 202.865 198.784C203.31 198.778 203.462 198.414 203.516 198.167L204.14 198.518C204.9 198.947 205.865 198.653 206.257 197.874C206.506 197.378 206.447 196.814 206.167 196.372L207.201 197.024C208.055 197.562 209.179 197.359 209.791 196.556C210.472 195.663 210.266 194.385 209.332 193.76Z" fill="#FFB8B8"/>
<path d="M186.379 178.714L203.976 183.248C204.993 183.51 205.618 184.533 205.386 185.557C205.145 186.628 204.064 187.285 203.001 187.008L192.486 184.269C192.486 184.269 184.159 182.839 186.379 178.714Z" fill="#FFB8B8"/>
<path d="M191.47 190.205C190.802 190.42 190.097 190.552 189.364 190.564L189.351 189.701C192.493 189.649 195.436 186.922 196.553 185.215L197.275 185.687C196.566 186.773 194.369 189.273 191.47 190.205Z" fill="#F18B8B"/>
<path d="M197.541 191.179L197.32 191.55L205.956 196.688L206.176 196.317L197.541 191.179Z" fill="#F18B8B"/>
<path d="M195.117 194.028L194.927 194.415L203.272 198.511L203.462 198.124L195.117 194.028Z" fill="#F18B8B"/>
<path d="M120.437 107.662C130.092 114.497 133.084 119.412 135.99 125.382C138.896 131.351 149.81 150.926 153.056 155.077C156.302 159.228 182.369 175.517 182.369 175.517L168.447 190.887C168.447 190.887 141.762 179.131 136.635 173.594C131.507 168.058 120.173 147.465 120.437 107.662Z" fill="#6B93F6"/>
<path d="M104.85 108.904L104.948 111.461C99.1185 117.873 94.6015 129.166 92.1089 143.658C89.2768 160.072 88.1878 177.526 88.0764 191.972C88.0113 201.91 78.8275 201.785 74.2842 198.393C75.2496 185.315 79.0324 153.743 81.0857 144.099C83.0528 134.86 87.0364 108.016 104.85 108.904Z" fill="#6B93F6"/>
<path d="M104.86 109.069L104.89 109.797C95.6688 113.409 90.7492 130.858 90.7492 130.858C90.7492 130.858 85.0056 148.886 79.7355 153.053C69.5064 161.141 61.8829 158.996 56.123 152.879C53.0812 149.648 33.8838 119.01 33.8838 119.01L49.5864 106.556L67.3706 130.441C67.3706 130.441 82.4589 119.671 88.1462 115.486C93.2787 111.693 97.6501 109.005 104.86 109.069Z" fill="#6B93F6"/>
<path d="M123.217 143.149L122.412 143.462L132.086 168.284L132.89 167.97L123.217 143.149Z" fill="#BB4344"/>
<path d="M84.3644 132.924L80.1611 146.23L80.9839 146.49L85.1872 133.184L84.3644 132.924Z" fill="#000091"/>
<path d="M33.0472 89.5682L16.9258 73.4468V87.2553C16.9258 89.9266 19.091 92.0919 21.7623 92.0919H44.3326C47.004 92.0919 49.1692 89.9266 49.1692 87.2553V73.4468L33.0472 89.5682Z" fill="#3E4169"/>
<path d="M49.1682 73.4463V71.1334C49.1682 68.4621 47.003 66.2969 44.3317 66.2969H21.7613C19.09 66.2969 16.9248 68.4621 16.9248 71.1334V73.4463L33.0462 89.5678L49.1682 73.4463Z" fill="#454975"/>
<path d="M46.0803 75.3687C49.3613 75.3687 52.021 72.709 52.021 69.428C52.021 66.147 49.3613 63.4873 46.0803 63.4873C42.7994 63.4873 40.1396 66.147 40.1396 69.428C40.1396 72.709 42.7994 75.3687 46.0803 75.3687Z" fill="#6B93F6"/>
<path d="M31.1954 81.3789H20.6084V83.7428H31.1954V81.3789Z" fill="#A6AFE2"/>
<path d="M46.3979 102.717L42.0196 85.0809C41.7668 84.0613 40.7494 83.4281 39.723 83.6504C38.6504 83.8827 37.983 84.9574 38.2505 86.0221L40.8971 96.5608C40.8971 96.5608 42.253 104.901 46.3979 102.717Z" fill="#FFB8B8"/>
<path d="M105.294 93.3403C105.288 93.3686 105.29 93.3965 105.284 93.4249C104.642 98.5231 98.568 99.0418 98.1186 92.8174C98.0882 92.4952 98.0777 92.151 98.0876 91.7915C99.7657 91.854 103.8 92.8809 105.294 93.3403Z" fill="#F18B8B"/>
<path d="M105.294 93.3403C105.288 93.3686 105.29 93.3965 105.284 93.4249C104.596 93.6004 103.849 93.7087 103.056 93.7491C101.063 93.85 99.2638 93.4769 98.1186 92.8174C98.0882 92.4952 98.0777 92.151 98.0876 91.7915C99.7657 91.854 103.8 92.8809 105.294 93.3403Z" fill="#F3EDFF"/>
<path d="M127.68 89.9277C127.04 91.5789 125.966 92.9043 124.704 93.7615C123.092 94.8698 121.167 95.224 119.425 94.5498C116.322 93.35 114.991 89.328 116.448 85.5741C117.899 81.8207 121.596 79.7527 124.698 80.952C124.715 80.9578 124.732 80.9635 124.749 80.9751C127.817 82.2038 129.125 86.1969 127.68 89.9277Z" fill="#A6AFE2"/>
<path d="M122.786 81.0435C125.152 77.7158 122.469 71.2821 119.392 68.2687C119.392 68.2687 118.28 67.0552 117.906 66.7583C118.599 66.7693 118.852 66.8902 119.555 67.4289C120.259 67.9676 129.615 73.6245 126.035 82.299C126.035 82.299 122.972 81.7971 122.786 81.0435Z" fill="#A6AFE2"/>
<path d="M127.68 89.9276C127.04 91.5789 125.967 92.9043 124.704 93.7614C120.368 94.7384 116.963 90.3906 119.934 85.2661C121.236 83.021 122.967 81.6441 124.75 80.9756C127.818 82.2038 129.126 86.1968 127.68 89.9276Z" fill="#BBC3ED"/>
<path d="M118.882 91.438C116.259 94.0615 111.109 94.3426 107.037 94.4089C106.645 94.4152 106.322 94.72 106.297 95.112C106.267 95.5629 106.64 95.9392 107.092 95.914C113.282 95.5703 117.129 95.1793 119.756 92.3629L118.882 91.438Z" fill="#A6AFE2"/>
<path d="M107.059 96.7254C107.939 96.7254 108.653 96.012 108.653 95.132C108.653 94.252 107.939 93.5386 107.059 93.5386C106.179 93.5386 105.466 94.252 105.466 95.132C105.466 96.012 106.179 96.7254 107.059 96.7254Z" fill="#EA5455"/>
<path d="M56.95 47.7388C60.1967 47.7388 62.8286 45.1068 62.8286 41.8601C62.8286 38.6134 60.1967 35.9814 56.95 35.9814C53.7033 35.9814 51.0713 38.6134 51.0713 41.8601C51.0713 45.1068 53.7033 47.7388 56.95 47.7388Z" fill="#ECECFE"/>
<path d="M118.789 23.3673C118.789 24.6995 117.709 25.779 116.378 25.779C115.045 25.779 113.966 24.699 113.966 23.3673C113.966 22.0355 115.046 20.9556 116.378 20.9556C117.71 20.9556 118.789 22.0355 118.789 23.3673Z" fill="#DAD4F8"/>
<path d="M91.9737 59.0861C92.9251 59.0861 93.6964 58.3148 93.6964 57.3633C93.6964 56.4119 92.9251 55.6406 91.9737 55.6406C91.0223 55.6406 90.251 56.4119 90.251 57.3633C90.251 58.3148 91.0223 59.0861 91.9737 59.0861Z" fill="#DAD4F8"/>
<path d="M141.8 111.775C141.8 112.821 140.952 113.67 139.905 113.67C138.859 113.67 138.01 112.822 138.01 111.775C138.01 110.729 138.858 109.88 139.905 109.88C140.952 109.88 141.8 110.729 141.8 111.775Z" fill="#DAD4F8"/>
<path d="M151.376 147.192V183.683C151.376 187.288 148.456 190.213 144.845 190.213H80.0919C76.4867 190.213 73.5674 187.288 73.5674 183.683V147.192C73.5674 143.587 76.4867 140.662 80.0919 140.662H144.845C148.456 140.662 151.376 143.587 151.376 147.192Z" fill="#454975"/>
<path d="M129.534 190.212H106.081L105.247 162.772H119.69L129.534 190.212Z" fill="#393C61"/>
<path d="M136.995 201.781H124.752L119.692 162.775H105.249L100.189 201.781H87.9458C86.9336 201.781 86.1133 202.601 86.1133 203.614V205.415H138.826V203.614C138.827 202.601 138.007 201.781 136.995 201.781ZM117.76 182.324C117.76 185.245 115.392 187.613 112.471 187.613C109.549 187.613 107.181 185.245 107.181 182.324V180.116C107.181 177.195 109.549 174.827 112.471 174.827C115.392 174.827 117.76 177.195 117.76 180.116V182.324Z" fill="#A6AFE2"/>
<path d="M112.404 181.53C100.208 181.53 104.461 196.607 104.461 205.056" stroke="#F3EDFF" stroke-width="1.14263" stroke-miterlimit="10"/>
<path d="M172.785 65.6143C170.011 65.6143 167.389 65.9595 165.057 66.5734C163.864 66.8876 163.029 67.9603 163.029 69.1942V87.1745V89.4848C163.029 91.2101 164.619 92.4809 166.307 92.1214C168.31 91.6941 170.497 91.4592 172.785 91.4592C176.396 91.4592 179.758 92.0442 182.548 93.0458V87.174V67.2003C179.758 66.1992 176.396 65.6143 172.785 65.6143Z" fill="#454975"/>
<path d="M192.31 65.6143C188.699 65.6143 185.336 66.1992 182.547 67.2009V87.1745V93.0464C185.336 92.0447 188.699 91.4598 192.31 91.4598C194.598 91.4598 196.784 91.6947 198.788 92.1219C200.476 92.4814 202.065 91.2106 202.065 89.4853V87.175V69.1948C202.065 67.9608 201.231 66.8882 200.037 66.5739C197.707 65.9595 195.084 65.6143 192.31 65.6143Z" fill="#3E4169"/>
<path d="M201.529 207.902H16.1344C15.4365 207.902 14.8652 207.33 14.8652 206.632C14.8652 205.935 15.4365 205.363 16.1344 205.363H201.529C202.227 205.363 202.799 205.935 202.799 206.632C202.798 207.33 202.227 207.902 201.529 207.902Z" fill="#454975"/>
</svg>
