<svg width="303" height="266" viewBox="0 0 303 266" fill="none" xmlns="http://www.w3.org/2000/svg">
<path d="M88.8219 191.528C88.7878 192.374 96.0369 203.544 98.2984 207.006C98.8028 207.779 99.5444 208.357 100.415 208.662C101.427 209.017 102.889 209.365 104.536 209.248C106.663 209.096 107.208 206.381 107.34 204.667C107.403 203.853 107.281 203.038 106.994 202.275L101.266 187.07L88.8219 191.528Z" fill="#122937"/>
<path d="M94.834 194.405C94.834 194.405 98.3601 195.546 100.296 192.385" stroke="white" stroke-width="0.478269" stroke-miterlimit="10"/>
<path d="M95.6909 196.132C95.6909 196.132 99.217 197.273 101.152 194.112" stroke="white" stroke-width="0.478269" stroke-miterlimit="10"/>
<path d="M96.5481 197.859C96.5481 197.859 100.074 199 102.01 195.839" stroke="white" stroke-width="0.478269" stroke-miterlimit="10"/>
<path d="M97.4058 199.586C97.4058 199.586 100.932 200.727 102.867 197.566" stroke="white" stroke-width="0.478269" stroke-miterlimit="10"/>
<path d="M95.5006 158.39C95.7623 158.121 113.052 162.389 120.488 157.388C120.488 155.839 119.517 154.456 118.06 153.93L105.173 149.283L95.0452 155.702L95.5006 158.39Z" fill="#122937"/>
<mask id="mask0_1454_54170" style="mask-type:luminance" maskUnits="userSpaceOnUse" x="95" y="149" width="26" height="11">
<path d="M95.5006 158.39C95.7623 158.121 113.052 162.389 120.488 157.388C120.488 155.839 119.517 154.456 118.06 153.93L105.173 149.283L95.0452 155.702L95.5006 158.39Z" fill="white"/>
</mask>
<g mask="url(#mask0_1454_54170)">
<path d="M105.844 152.652C105.844 152.652 108.846 150.479 107.437 147.051" stroke="white" stroke-width="0.478269" stroke-miterlimit="10"/>
<path d="M107.745 152.98C107.745 152.98 110.747 150.807 109.337 147.379" stroke="white" stroke-width="0.478269" stroke-miterlimit="10"/>
<path d="M109.645 153.307C109.645 153.307 112.647 151.134 111.238 147.706" stroke="white" stroke-width="0.478269" stroke-miterlimit="10"/>
<path d="M111.545 153.634C111.545 153.634 114.547 151.461 113.138 148.033" stroke="white" stroke-width="0.478269" stroke-miterlimit="10"/>
</g>
<path d="M68.7825 114.552C68.7825 114.552 69.4853 154.702 87.2887 192.092C87.2887 192.092 100.292 196.928 103.423 185.241C103.423 185.241 98.5512 170.006 97.1259 156.65C97.1259 156.65 103.84 155.27 105.718 149.282C105.718 149.282 103.214 139.237 104.884 126.134C106.553 113.031 107.913 110.71 107.755 101.02L68.7825 114.552Z" fill="#A44926"/>
<mask id="mask1_1454_54170" style="mask-type:luminance" maskUnits="userSpaceOnUse" x="68" y="101" width="40" height="93">
<path d="M68.7825 114.552C68.7825 114.552 69.4853 154.702 87.2887 192.092C87.2887 192.092 100.292 196.928 103.423 185.241C103.423 185.241 98.5512 170.006 97.1259 156.65C97.1259 156.65 103.84 155.27 105.718 149.282C105.718 149.282 103.214 139.237 104.884 126.134C106.553 113.031 107.913 110.71 107.755 101.02L68.7825 114.552Z" fill="white"/>
</mask>
<g mask="url(#mask1_1454_54170)">
<path d="M96.6855 153.57C96.6855 153.57 103.968 151.12 105.846 145.132" stroke="#451E10" stroke-width="0.478269" stroke-miterlimit="10"/>
<path d="M97.1254 156.65C93.695 133.97 94.1329 127.627 94.1329 127.627L95.7028 126.533C96.9094 125.692 97.6478 124.33 97.6946 122.86L97.9755 110.416" stroke="#451E10" stroke-width="0.478269" stroke-miterlimit="10"/>
<path d="M94.9011 127.092V112.324" stroke="#451E10" stroke-width="0.478269" stroke-miterlimit="10"/>
<path d="M83.9165 187.984C83.9165 187.984 98.6689 193.732 102.221 179.84" stroke="#451E10" stroke-width="0.478269" stroke-miterlimit="10"/>
<path d="M87.8463 189.172C87.8463 189.172 77.1977 165.285 72.4565 135.837C72.4565 135.837 77.8266 133.267 76.1486 125.604" stroke="#451E10" stroke-width="0.478269" stroke-miterlimit="10"/>
</g>
<path d="M52.9502 66.0868C53.221 66.1081 65.9874 40.5954 97.0196 44.0146C97.0196 44.0146 104.642 51.6286 104.912 66.9199C105.183 82.2112 107.754 101.02 107.754 101.02C107.754 101.02 92.3274 124.16 68.782 114.552L63.9105 86.812L52.9502 66.0868Z" fill="#122937"/>
<path d="M68.4302 132.565C69.2553 133.223 71.0306 135.081 72.4564 135.836C72.4564 135.836 77.7716 132.787 76.1485 125.603L74.3854 124.261L68.4302 132.565Z" fill="#FFB19D"/>
<path d="M72.4563 135.836C72.4563 135.836 77.8263 133.266 76.1484 125.603" stroke="#451E10" stroke-width="0.478269" stroke-miterlimit="10"/>
<path d="M52.9501 66.0868C52.9501 66.0868 41.0918 91.7415 48.21 113.374C49.3373 116.799 51.8803 119.896 54.5461 123.191C54.5461 123.191 61.7303 131 68.7303 133.728C68.7303 133.728 75.799 131.481 75.1601 124.113C75.141 123.894 68.5766 117.474 68.1042 116.837C64.594 112.103 64.3105 109.61 64.5137 103.625C64.6738 98.9214 66.1374 91.2643 66.3353 86.5247C66.5193 82.1123 64.1035 67.0417 54.1429 66.0868" fill="#122937"/>
<path d="M135.069 33.181C134.97 32.5894 135.031 31.569 135.938 31.9185C136.195 32.0175 136.396 32.2218 136.575 32.4308C137.347 33.3304 137.879 34.4152 138.65 35.3159C139.318 36.0963 139.306 34.9169 139.441 34.4104C139.657 33.5948 139.819 32.7655 140.043 31.9515C140.415 30.6002 140.769 29.2441 141.103 27.8833C141.31 27.0443 141.339 26.4176 141.896 25.7574C142.45 25.102 143.378 25.6212 143.589 26.2218C143.733 26.6294 143.728 27.073 143.699 27.5045C143.593 29.1 143.191 30.6534 142.974 32.234C142.928 32.5718 142.624 33.4209 142.848 33.7199C143.28 34.2971 143.7 32.5867 143.831 32.2611C144.486 30.6273 145.214 29.0234 146.011 27.4545C146.261 26.964 146.513 26.4203 147.037 26.2516C148.49 25.7835 148.528 27.0278 148.413 27.6556C148.12 29.2521 147.66 30.2619 146.97 31.9605C146.63 32.7968 146.004 33.9508 145.706 34.9424C145.956 34.944 147.404 32.6346 147.667 32.1329C147.878 31.7312 149.674 28.0487 150.973 28.7632C152.396 29.5309 150.063 33.5885 149.557 34.4742C149.333 34.8663 149.005 35.2105 148.445 36.6023C148.409 36.6911 151.303 34.0242 151.495 33.8715C152.143 33.3549 152.878 33.839 153.084 34.5801C153.255 35.1914 152.797 35.6936 152.428 36.1352C149.433 39.7161 147.981 45.1595 145.662 49.1139C145.107 50.0619 144.352 51.0285 143.272 51.2323C143.059 51.2727 142.833 51.2796 142.631 51.202C142.425 51.1232 142.261 50.9647 142.105 50.8083C140.948 49.6459 139.91 48.3664 139.007 46.997C138.221 45.8043 137.132 44.2769 136.871 42.8479C136.596 41.3397 136.727 39.7826 136.39 38.252C136.121 37.0332 135.769 35.8351 135.44 34.6317C135.394 34.4663 135.174 33.8013 135.069 33.181Z" fill="#FFB19D"/>
<path d="M97.0195 44.0146C97.0195 44.0146 110.796 51.7978 125.022 58.8292L135.865 40.0836L147.17 47.1736L131.18 76.2023C131.18 76.2023 129.437 79.6645 124.755 78.6293C119.039 77.3647 102.759 71.2621 102.759 71.2621L102.641 54.3758L97.0195 44.0146Z" fill="#122937"/>
<mask id="mask2_1454_54170" style="mask-type:luminance" maskUnits="userSpaceOnUse" x="97" y="40" width="51" height="39">
<path d="M97.0195 44.0146C97.0195 44.0146 110.796 51.7978 125.022 58.8292L135.865 40.0836L147.17 47.1736L131.18 76.2023C131.18 76.2023 129.437 79.6645 124.755 78.6293C119.039 77.3647 102.759 71.2621 102.759 71.2621L102.641 54.3758L97.0195 44.0146Z" fill="white"/>
</mask>
<g mask="url(#mask2_1454_54170)">
<path d="M130.589 42.9187L148.498 56.6683" stroke="white" stroke-width="0.478269" stroke-miterlimit="10"/>
</g>
<mask id="mask3_1454_54170" style="mask-type:luminance" maskUnits="userSpaceOnUse" x="45" y="43" width="66" height="91">
<path d="M110.343 77.029C106.393 52.741 97.0195 44.0146 97.0195 44.0146C65.9868 40.5954 53.2209 66.1081 52.9501 66.0868C52.9501 66.0868 41.0918 91.7415 48.21 113.374C49.3373 116.799 51.8803 119.896 54.5461 123.191C54.5461 123.191 61.7303 131 68.7303 133.728C68.7303 133.728 75.799 131.481 75.1601 124.113C75.141 123.894 68.5766 117.474 68.1042 116.837C64.594 112.103 64.3105 109.61 64.5137 103.625C64.5924 101.312 64.9866 98.284 65.3904 95.2399L68.7819 114.552C92.3273 124.16 107.754 101.02 107.754 101.02" fill="white"/>
</mask>
<g mask="url(#mask3_1454_54170)">
<path d="M89.0117 66.0868C90.4465 73.7178 91.7132 81.3792 92.9512 89.0448C94.1471 96.4524 95.6101 104.57 96.0453 112.072" stroke="white" stroke-width="0.478269" stroke-miterlimit="10"/>
<path d="M87.2881 67.2481C87.2881 67.2481 84.8686 68.1456 83.3593 71.8983C83.3593 71.8983 82.9922 73.6933 80.7078 71.1642C78.4234 68.635 67.7371 53.2272 74.5898 48.4142" stroke="white" stroke-width="0.478269" stroke-miterlimit="10"/>
<path d="M90.9312 66.0867C90.9312 66.0867 93.5326 66.0452 94.7759 66.9704C94.9956 67.1337 95.3122 66.9954 95.3558 66.7251C95.7224 64.4726 96.7778 58.3147 93.0677 52.3435" stroke="white" stroke-width="0.478269" stroke-miterlimit="10"/>
<path d="M63.9656 131.899C63.9656 131.899 72.4265 129.211 71.6615 120.391" stroke="white" stroke-width="0.572434" stroke-miterlimit="10"/>
<path d="M65.5611 92.315C65.9596 90.3923 66.2554 88.458 66.3357 86.5247C66.5198 82.1123 64.104 67.0417 54.1433 66.0868" stroke="white" stroke-width="0.478269" stroke-miterlimit="10"/>
<path d="M97.0195 44.0145C97.0195 44.0145 104.642 51.6285 104.912 66.9199C104.932 68.0392 105.036 69.9007 105.189 72.1611" stroke="white" stroke-width="0.478269" stroke-miterlimit="10"/>
<path d="M60.2444 69.0314C60.2444 69.0314 65.1994 61.3631 72.4565 55.0504" stroke="white" stroke-width="0.478269" stroke-miterlimit="10"/>
<path d="M92.5268 70.3699C92.506 70.637 92.2725 70.8365 92.0054 70.8157C91.7384 70.795 91.5389 70.5614 91.5601 70.2943C91.5814 70.0273 91.8144 69.8278 92.081 69.8485C92.3486 69.8693 92.5481 70.1028 92.5268 70.3699Z" fill="white"/>
<path d="M93.0722 74.1998C93.0514 74.4668 92.8179 74.6663 92.5508 74.6456C92.2837 74.6248 92.0842 74.3913 92.105 74.1242C92.1257 73.8571 92.3593 73.6576 92.6264 73.6789C92.8934 73.7002 93.0929 73.9332 93.0722 74.1998Z" fill="white"/>
<path d="M93.6169 78.0302C93.5961 78.2972 93.3626 78.4967 93.0955 78.476C92.8284 78.4552 92.6289 78.2217 92.6497 77.9546C92.6704 77.6876 92.904 77.4881 93.171 77.5088C93.4381 77.5301 93.6376 77.7636 93.6169 78.0302Z" fill="white"/>
<path d="M94.1615 81.8606C94.1408 82.1277 93.9072 82.3272 93.6402 82.3064C93.3731 82.2857 93.1736 82.0521 93.1944 81.7851C93.2151 81.518 93.4486 81.3185 93.7157 81.3393C93.9828 81.36 94.1823 81.5941 94.1615 81.8606Z" fill="white"/>
<path d="M94.7065 85.6911C94.6857 85.9581 94.4522 86.1576 94.1851 86.1369C93.918 86.1161 93.7185 85.8826 93.7393 85.6155C93.76 85.3484 93.9936 85.1489 94.2606 85.1697C94.5277 85.1904 94.7272 85.4245 94.7065 85.6911Z" fill="white"/>
<path d="M95.2511 89.5214C95.2303 89.7884 94.9968 89.9879 94.7303 89.9667C94.4637 89.9454 94.2637 89.7124 94.2844 89.4458C94.3052 89.1793 94.5387 88.9793 94.8058 89C95.0729 89.0208 95.2718 89.2543 95.2511 89.5214Z" fill="white"/>
<path d="M95.796 93.3518C95.7753 93.6189 95.5417 93.8184 95.2752 93.7976C95.0081 93.7769 94.8086 93.5433 94.8294 93.2763C94.8501 93.0092 95.0837 92.8097 95.3502 92.8305C95.6178 92.8517 95.8173 93.0848 95.796 93.3518Z" fill="white"/>
<path d="M96.3413 97.1822C96.3205 97.4492 96.087 97.6487 95.8199 97.628C95.5528 97.6072 95.3533 97.3737 95.3746 97.1066C95.3954 96.8396 95.6289 96.6401 95.8954 96.6613C96.162 96.6826 96.362 96.9151 96.3413 97.1822Z" fill="white"/>
<path d="M96.8861 101.013C96.8654 101.28 96.6318 101.479 96.3648 101.458C96.0977 101.438 95.8982 101.204 95.919 100.937C95.9397 100.67 96.1733 100.47 96.4403 100.491C96.7074 100.512 96.9069 100.746 96.8861 101.013Z" fill="white"/>
<path d="M97.4308 104.843C97.4101 105.11 97.1765 105.31 96.9095 105.289C96.6424 105.268 96.4429 105.035 96.4636 104.767C96.4844 104.5 96.7179 104.301 96.985 104.322C97.2521 104.343 97.4516 104.576 97.4308 104.843Z" fill="white"/>
<path d="M97.9755 108.673C97.9548 108.941 97.7212 109.14 97.4542 109.119C97.1871 109.099 96.9876 108.865 97.0089 108.598C97.0296 108.331 97.2632 108.131 97.5302 108.152C97.7968 108.173 97.9963 108.406 97.9755 108.673Z" fill="white"/>
</g>
<path d="M75.1606 44.0146V52.7022C75.1606 54.302 75.7155 55.8517 76.7412 57.079C78.7261 59.4533 82.6635 63.3135 89.0118 66.0869C89.0118 66.0869 92.0522 60.0055 91.4894 48.2941L75.1606 44.0146Z" fill="#FFB19D"/>
<path d="M91.5244 53.1028C90.3216 54.1099 88.7091 54.286 88.7091 54.286C83.305 55.1867 79.4959 52.0351 77.113 48.8835C77.113 48.8835 82.1218 60.2998 91.1095 58.0116L91.5244 53.1028Z" fill="#052A3D"/>
<path d="M95.8635 33.34C95.9258 33.365 96.0449 33.3437 96.1976 33.3086C96.8935 33.1485 98.2863 32.6968 98.1682 34.9961C98.024 37.7992 96.0902 40.4592 96.0902 40.4592" fill="#FFB19D"/>
<path d="M74.0189 43.3246C74.0189 43.3246 78.5388 55.981 88.709 54.286C98.8793 52.591 95.8283 28.5212 95.8283 28.5212L94.3594 23.2102C94.3594 23.2102 89.6134 20.4981 89.3873 20.1592C89.1612 19.8203 81.4036 18.8031 81.4036 18.8031L75.7144 19.9331C75.7144 19.9331 71.985 24.1141 71.7595 24.453C71.5334 24.7918 71.4206 30.6683 71.4206 30.6683L73.7305 37.4269C73.7305 37.4269 69.0473 33.4933 70.4034 39.2564C71.7589 45.0196 74.0189 43.3246 74.0189 43.3246Z" fill="#FFB19D"/>
<path d="M87.2881 43.7933C87.8738 43.7933 88.725 43.522 89.3996 43.0134C89.8417 42.6804 89.9316 42.0537 89.6028 41.6089C89.1469 40.9929 88.4745 40.0262 87.9706 39.058" stroke="black" stroke-width="0.478269" stroke-miterlimit="10" stroke-linecap="round" stroke-linejoin="round"/>
<path d="M81.0366 44.8451C81.0366 44.8451 81.8086 47.2769 85.1697 47.2051" stroke="black" stroke-width="0.478269" stroke-miterlimit="10" stroke-linecap="round" stroke-linejoin="round"/>
<path d="M70.9907 37.7322C70.9907 37.7322 73.3182 38.3961 73.73 41.0189" stroke="black" stroke-width="0.478269" stroke-miterlimit="10" stroke-linecap="round" stroke-linejoin="round"/>
<path d="M88.8354 34.6237C88.8354 34.6237 90.548 33.5948 93.0904 34.3322" stroke="black" stroke-width="0.478269" stroke-miterlimit="10" stroke-linecap="round" stroke-linejoin="round"/>
<path d="M91.6209 35.4397C91.382 35.8536 90.8532 35.9962 90.4393 35.7573C90.0254 35.519 89.8828 34.9897 90.1217 34.5758C90.3605 34.1619 90.8894 34.0193 91.3033 34.2582C91.7172 34.4965 91.8592 35.0253 91.6209 35.4397Z" fill="black"/>
<path d="M78.3667 35.418C78.3667 35.418 80.0792 34.3891 82.6216 35.1259" stroke="black" stroke-width="0.478269" stroke-miterlimit="10" stroke-linecap="round" stroke-linejoin="round"/>
<path d="M81.1516 36.234C80.9133 36.6479 80.3839 36.7905 79.97 36.5516C79.5562 36.3128 79.4136 35.784 79.6524 35.3701C79.8913 34.9562 80.4201 34.8136 80.834 35.0525C81.2479 35.2908 81.39 35.8196 81.1516 36.234Z" fill="black"/>
<path d="M77.1528 33.6219C77.3182 33.6969 77.6103 33.6059 77.7529 33.5666C78.1971 33.4447 78.6429 33.3729 79.0994 33.3022C80.1703 33.1367 81.2439 32.9877 82.3174 32.8425C82.6515 32.7973 82.9862 32.7526 83.3203 32.709C83.4139 32.6967 83.549 32.7037 83.6368 32.6675C83.8544 32.5776 83.823 32.2802 83.6948 32.127C83.523 31.9221 83.2235 31.9626 82.9862 31.912C82.0807 31.7194 81.1492 31.5854 80.2214 31.6024C79.4936 31.6157 78.7935 31.9009 78.1764 32.2701C77.9274 32.419 77.672 32.5584 77.439 32.7324C77.2746 32.8553 77.0219 33.2138 77.0326 33.4266C77.0379 33.5309 77.0842 33.5905 77.1528 33.6219Z" fill="#122937"/>
<path d="M94.28 32.6691C94.123 32.7601 93.823 32.6989 93.6777 32.6739C93.2234 32.5968 92.7728 32.5696 92.3121 32.5446C91.23 32.4861 90.1474 32.4446 89.0642 32.4074C88.7275 32.3957 88.3902 32.3845 88.0529 32.3739C87.9582 32.3707 87.8246 32.3914 87.7342 32.3643C87.5086 32.2967 87.5102 31.9972 87.623 31.8323C87.7741 31.6115 88.0758 31.6216 88.3066 31.5482C89.1887 31.2662 90.1021 31.0407 91.0268 30.9651C91.7524 30.9061 92.4775 31.1205 93.1282 31.4264C93.3904 31.5498 93.6586 31.6631 93.9076 31.8137C94.0836 31.9201 94.3704 32.2515 94.381 32.4638C94.3858 32.5675 94.3449 32.6314 94.28 32.6691Z" fill="#122937"/>
<path d="M72.9326 37.512C73.3789 38.0903 73.8253 38.6685 74.2716 39.2468C74.2982 39.2814 74.3264 39.3171 74.3658 39.3362C74.4876 39.3958 74.6169 39.267 74.6776 39.1458C75.3633 37.778 73.7056 36.2825 73.8429 34.7589C73.9594 33.4613 75.1787 32.5686 75.4261 31.2881C75.6352 30.206 75.7602 29.0026 75.4256 27.9397C75.1064 26.9267 74.6361 25.8468 74.9941 24.8466C75.4043 23.7002 76.7518 23.1719 77.968 23.1192C79.1097 23.0697 80.2625 23.3192 81.2818 23.8353C83.1151 24.7642 83.7402 24.321 85.1202 22.9926C86.0603 22.0877 87.4988 21.9148 88.5788 22.7761C89.0778 23.174 89.4438 23.7613 90.0354 23.9997C90.5653 24.213 91.1712 24.1007 91.7261 24.2364C92.556 24.4386 94.5233 24.5652 94.8314 25.3621C95.3251 26.6405 95.2219 28.2573 95.3831 29.6086C95.6182 31.5786 95.8533 33.5486 96.0885 35.5186C96.1114 35.7101 96.138 35.9112 96.2518 36.0671C96.3662 36.2229 96.5992 36.3091 96.7577 36.199C96.9115 36.0926 96.9211 35.8729 96.9189 35.6856C96.9104 34.8365 96.9886 33.9869 97.1514 33.1538C97.3047 32.3696 97.6483 31.7589 97.8824 31.02C98.3702 29.4819 98.7043 27.7375 97.9686 26.2192C97.5951 25.4488 97.0003 24.7961 96.6716 24.0055C96.0135 22.4228 96.5237 20.5863 96.122 18.9201C95.6581 16.9959 93.7184 15.4318 91.7601 15.7207C90.8126 15.8606 89.9189 16.3889 88.9645 16.3144C88.4479 16.2739 87.9632 16.058 87.4993 15.8281C86.0661 15.1179 84.6882 14.2311 83.1247 13.8938C81.5611 13.5565 79.7002 13.9246 78.8293 15.2658C78.6458 15.5483 78.5074 15.8696 78.2553 16.0931C77.8541 16.449 77.2684 16.4745 76.7327 16.4953C74.8276 16.5692 72.8746 16.8299 71.2116 17.762C70.3146 18.2647 69.4379 19.225 69.7597 20.2012C69.8677 20.5284 70.0997 20.8029 70.2146 21.1279C70.4535 21.8062 70.1316 22.5665 69.6597 23.1102C69.1884 23.6533 68.576 24.0561 68.076 24.5732C67.2545 25.4228 66.7917 26.8469 67.5338 27.7668C67.7493 28.0338 68.043 28.227 68.2696 28.4844C68.9437 29.2511 68.8926 30.4135 68.6319 31.4003C68.3712 32.3872 67.9382 33.3565 67.9754 34.3769C68.0126 35.3973 68.7505 36.5012 69.7709 36.4666C70.1433 36.4538 70.4971 36.2926 70.869 36.2671C71.6202 36.215 72.2979 36.7177 72.7975 37.2811C73.2965 37.8445 73.7056 38.5031 74.3147 38.9452" fill="#122937"/>
<path d="M149.5 63.7114L163.823 78.2175L169.125 69.3113L179.944 84.9127L169.84 96.7317C169.84 96.7317 167.16 100.168 163.54 97.8202C159.918 95.4724 140.451 70.2471 140.451 70.2471L149.5 63.7114Z" fill="#F5804C"/>
<path d="M140.451 70.2476C140.451 70.2476 135.207 66.338 134.784 63.4199C134.361 60.5019 137.895 59.1458 137.895 59.1458L144.267 57.1455L147.185 58.4941C147.185 58.4941 148.052 58.9187 148.436 60.4061C148.512 60.7019 149.739 63.2029 149.5 63.712C148.541 65.7629 145.542 68.5367 145.542 68.5367L140.451 70.2476Z" fill="#F5804C"/>
<path d="M138.132 59.7444C137.111 58.2346 136.09 56.7247 135.069 55.2149C134.72 54.7 134.357 54.1296 134.412 53.5104C134.468 52.889 135.002 52.3437 135.623 52.2762C136.479 52.1825 137.197 52.8837 137.749 53.5455C138.917 54.9468 139.977 56.4391 140.915 58.0042C140.922 58.0164 141.035 58.1622 141.043 58.1734C140.394 59.1007 139.26 59.6375 138.132 59.7444Z" fill="#F5804C"/>
<path d="M140.792 58.2558C140.134 56.556 139.48 54.6334 138.822 52.9336C138.598 52.3538 138.371 51.717 138.563 51.1259C138.756 50.5322 139.399 50.121 140.019 50.1933C140.875 50.2939 141.418 51.1371 141.808 51.9058C142.633 53.5332 143.333 55.2239 143.898 56.9593C143.902 56.9731 143.979 57.1397 143.985 57.153C143.144 57.9111 141.915 58.4037 140.792 58.2558Z" fill="#F5804C"/>
<path d="M143.984 57.2981L141.127 56.697C141.127 56.697 139.651 56.3794 139.43 57.8509C139.251 59.0463 141.479 59.814 142.321 60.0597C142.453 60.0981 142.512 60.2518 142.438 60.3672C142.234 60.6854 142.015 61.3812 142.548 62.6841" stroke="black" stroke-width="0.459011" stroke-miterlimit="10" stroke-linecap="round" stroke-linejoin="round"/>
<path d="M137.287 59.4528C137.794 58.991 138.553 58.941 139.052 59.132C139.55 59.323 139.925 59.7395 140.252 60.1609C140.466 60.4359 140.669 60.72 140.86 61.0116C141.119 61.4063 141.36 61.8287 141.427 62.2963C141.578 63.3561 140.242 64.4424 139.433 63.728C139.276 63.5902 139.132 63.4487 138.995 63.3061" stroke="black" stroke-width="0.459011" stroke-miterlimit="10" stroke-linecap="round" stroke-linejoin="round"/>
<path d="M135.082 61.3403C135.311 60.8578 135.945 60.6801 136.462 60.8157C136.979 60.9514 137.396 61.3243 137.768 61.7079C138.011 61.9579 138.243 62.2181 138.464 62.4873C138.765 62.8517 139.051 63.2454 139.168 63.7029C139.334 64.3504 138.932 65.0893 138.35 65.3856C137.804 65.6633 137.279 65.3452 136.847 65.01C136.327 64.6063 135.832 64.1812 135.35 63.7322" stroke="black" stroke-width="0.459011" stroke-miterlimit="10" stroke-linecap="round" stroke-linejoin="round"/>
<path d="M182.182 166.994C181.873 166.783 165.946 175.467 157.668 172.034C157.362 170.516 158.041 168.968 159.366 168.165L171.079 161.063L182.276 165.354L182.182 166.994Z" fill="#122937"/>
<mask id="mask4_1454_54170" style="mask-type:luminance" maskUnits="userSpaceOnUse" x="157" y="161" width="26" height="12">
<path d="M182.182 166.994C181.873 166.783 165.946 175.467 157.668 172.034C157.362 170.516 158.041 168.968 159.366 168.165L171.079 161.063L182.276 165.354L182.182 166.994Z" fill="white"/>
</mask>
<g mask="url(#mask4_1454_54170)">
<path d="M171.372 166.238C171.372 166.238 168 164.701 168.704 161.062" stroke="white" stroke-width="0.478269" stroke-miterlimit="10"/>
<path d="M169.575 166.935C169.575 166.935 166.202 165.398 166.907 161.759" stroke="white" stroke-width="0.478269" stroke-miterlimit="10"/>
<path d="M167.776 167.631C167.776 167.631 164.404 166.094 165.108 162.455" stroke="white" stroke-width="0.478269" stroke-miterlimit="10"/>
<path d="M165.978 168.327C165.978 168.327 162.606 166.791 163.31 163.152" stroke="white" stroke-width="0.478269" stroke-miterlimit="10"/>
</g>
<path d="M208.442 183.774C208.631 184.6 203.544 196.906 201.953 200.723C201.598 201.575 200.975 202.279 200.175 202.738C199.245 203.273 197.872 203.882 196.23 204.067C194.112 204.307 193.079 201.737 192.637 200.076C192.427 199.288 192.397 198.465 192.54 197.661L195.394 181.665L208.442 183.774Z" fill="#122937"/>
<path d="M203.057 187.701C203.057 187.701 199.798 189.467 197.318 186.713" stroke="white" stroke-width="0.478269" stroke-miterlimit="10"/>
<path d="M202.53 189.555C202.53 189.555 199.271 191.322 196.791 188.567" stroke="white" stroke-width="0.478269" stroke-miterlimit="10"/>
<path d="M202.002 191.41C202.002 191.41 198.744 193.177 196.264 190.422" stroke="white" stroke-width="0.478269" stroke-miterlimit="10"/>
<path d="M201.475 193.265C201.475 193.265 198.217 195.031 195.737 192.277" stroke="white" stroke-width="0.478269" stroke-miterlimit="10"/>
<path d="M221.596 127.132L210.551 183.916C210.551 183.916 200.938 192.522 193.76 181.078L197.509 136.535L189.923 131.446L183.456 165.281C183.456 165.281 171.359 168.552 169.579 160.406L175.593 113.711L194.222 115.112L221.596 127.132Z" fill="#FBC02E"/>
<mask id="mask5_1454_54170" style="mask-type:luminance" maskUnits="userSpaceOnUse" x="169" y="113" width="53" height="75">
<path d="M221.596 127.132L210.551 183.916C210.551 183.916 200.938 192.522 193.76 181.078L197.509 136.535L189.923 131.446L183.456 165.281C183.456 165.281 171.359 168.552 169.579 160.406L175.593 113.711L194.222 115.112L221.596 127.132Z" fill="white"/>
</mask>
<g mask="url(#mask5_1454_54170)">
<path d="M213.235 180.022C213.235 180.022 201.532 188.629 192.793 177.186" stroke="#BD9123" stroke-width="0.581105" stroke-miterlimit="10"/>
<path d="M186.178 162.314C186.178 162.314 171.508 165.585 169.35 157.439" stroke="#BD9123" stroke-width="0.526628" stroke-miterlimit="10"/>
<path d="M180.191 162.959L186.178 129.127" stroke="#BD9123" stroke-width="0.526628" stroke-miterlimit="10"/>
<path d="M195.542 133.696L194.043 132.506C192.891 131.592 192.239 130.187 192.284 128.717L192.779 116.28" stroke="#BD9123" stroke-width="0.526628" stroke-miterlimit="10"/>
<path d="M194.809 133.114L195.729 118.375" stroke="#BD9123" stroke-width="0.526628" stroke-miterlimit="10"/>
<path d="M208.76 182.249C209.215 182.088 216.649 131.744 216.649 131.744" stroke="#BD9123" stroke-width="0.581105" stroke-miterlimit="10"/>
</g>
<path d="M185.415 115.329C185.415 115.329 195.44 122.477 205.955 122.088L211.629 67.5876L191.832 65.5735L185.415 115.329Z" fill="white"/>
<path d="M175.809 57.1184C175.809 57.1184 204.691 39.9134 228.351 65.79C228.351 65.79 240.617 74.6164 238.329 105.034C238.329 105.034 228.852 111.036 218.246 104.509L218.077 117.951L200.379 127.308C200.379 127.308 198.857 95.2347 207.73 67.5876L195.488 67.4498C195.488 67.4498 189.1 109.367 188.305 125.522L174.34 114.511L176.625 87.4238C176.625 87.4238 167.487 82.8337 166.019 70.9328L175.809 57.1184Z" fill="#009081"/>
<mask id="mask6_1454_54170" style="mask-type:luminance" maskUnits="userSpaceOnUse" x="166" y="51" width="73" height="77">
<path d="M175.809 57.1184C175.809 57.1184 204.691 39.9134 228.351 65.79C228.351 65.79 240.617 74.6164 238.329 105.034C238.329 105.034 228.852 111.036 218.246 104.509L218.077 117.951L200.379 127.308C200.379 127.308 198.857 95.2347 207.73 67.5876L195.488 67.4498C195.488 67.4498 189.1 109.367 188.305 125.522L174.34 114.511L176.625 87.4238C176.625 87.4238 167.487 82.8337 166.019 70.9328L175.809 57.1184Z" fill="white"/>
</mask>
<g mask="url(#mask6_1454_54170)">
<path d="M177.008 80.6471C177.008 80.6471 169.712 75.2031 168.243 63.3022L177.008 80.6471Z" fill="#009081"/>
<path d="M177.008 80.6471C177.008 80.6471 169.712 75.2031 168.243 63.3022" stroke="#00524A" stroke-width="0.478269" stroke-miterlimit="10"/>
<path d="M239.378 98.6953C239.378 98.6953 229.786 105.476 218.266 98.3867L239.378 98.6953Z" fill="#009081"/>
<path d="M239.378 98.6953C239.378 98.6953 229.786 105.476 218.266 98.3867" stroke="#00524A" stroke-width="0.519446" stroke-miterlimit="10"/>
<path d="M194.296 71.2487L191.901 72.65C191.574 72.8953 191.1 72.7628 190.956 72.3803C190.392 70.8934 189.376 67.2736 190.492 62.5255" fill="#009081"/>
<path d="M194.296 71.2487L191.901 72.65C191.574 72.8953 191.1 72.7628 190.956 72.3803C190.392 70.8934 189.376 67.2736 190.492 62.5255" stroke="#00524A" stroke-width="0.478269" stroke-miterlimit="10"/>
<path d="M207.637 78.4499C207.54 78.7452 207.223 78.9064 206.927 78.8101C206.632 78.7138 206.471 78.3962 206.567 78.1009C206.663 77.8057 206.981 77.6445 207.276 77.7408C207.572 77.8371 207.733 78.1541 207.637 78.4499Z" fill="#4F9D91"/>
<path d="M207.207 82.9177C207.111 83.2129 206.793 83.3741 206.498 83.2778C206.202 83.1815 206.041 82.8639 206.137 82.5687C206.234 82.2734 206.551 82.1117 206.847 82.2085C207.142 82.3048 207.303 82.6224 207.207 82.9177Z" fill="#4F9D91"/>
<path d="M206.777 87.3854C206.681 87.6807 206.363 87.8419 206.068 87.7456C205.772 87.6493 205.611 87.3317 205.708 87.0364C205.804 86.7412 206.121 86.5794 206.417 86.6763C206.711 86.7731 206.873 87.0902 206.777 87.3854Z" fill="#4F9D91"/>
<path d="M206.346 91.8537C206.25 92.149 205.933 92.3107 205.637 92.2139C205.342 92.1176 205.181 91.8 205.277 91.5047C205.373 91.2095 205.691 91.0483 205.986 91.1446C206.282 91.2409 206.443 91.5585 206.346 91.8537Z" fill="#4F9D91"/>
<path d="M205.917 96.3215C205.82 96.6168 205.503 96.778 205.207 96.6817C204.912 96.5854 204.751 96.2678 204.847 95.9725C204.944 95.6773 205.261 95.5161 205.556 95.6123C205.852 95.7086 206.013 96.0262 205.917 96.3215Z" fill="#4F9D91"/>
<path d="M205.487 100.79C205.391 101.085 205.073 101.246 204.778 101.15C204.482 101.054 204.321 100.736 204.418 100.441C204.514 100.146 204.831 99.9843 205.127 100.081C205.422 100.177 205.583 100.494 205.487 100.79Z" fill="#4F9D91"/>
<path d="M205.057 105.257C204.961 105.553 204.643 105.714 204.348 105.618C204.052 105.521 203.891 105.204 203.988 104.908C204.084 104.613 204.401 104.452 204.697 104.548C204.992 104.645 205.153 104.962 205.057 105.257Z" fill="#4F9D91"/>
<path d="M204.627 109.725C204.531 110.021 204.213 110.182 203.918 110.085C203.623 109.989 203.461 109.672 203.558 109.376C203.654 109.081 203.972 108.919 204.267 109.016C204.562 109.112 204.723 109.43 204.627 109.725Z" fill="#4F9D91"/>
<path d="M204.197 114.193C204.101 114.489 203.783 114.65 203.488 114.554C203.193 114.457 203.032 114.14 203.128 113.844C203.224 113.549 203.542 113.388 203.837 113.484C204.132 113.581 204.294 113.898 204.197 114.193Z" fill="#4F9D91"/>
<path d="M203.767 118.661C203.671 118.956 203.353 119.118 203.058 119.021C202.763 118.925 202.602 118.607 202.698 118.312C202.794 118.017 203.112 117.856 203.407 117.952C203.702 118.048 203.864 118.366 203.767 118.661Z" fill="#4F9D91"/>
<path d="M203.337 123.129C203.241 123.424 202.923 123.585 202.628 123.489C202.333 123.393 202.171 123.075 202.268 122.78C202.364 122.485 202.682 122.324 202.977 122.42C203.272 122.517 203.433 122.834 203.337 123.129Z" fill="#4F9D91"/>
<path d="M206.997 73.7093L209.261 76.1842C209.904 76.988 211.181 76.7603 211.505 75.7831C212.985 71.3137 215.652 61.0509 211.628 54.428" fill="#009081"/>
<path d="M206.997 73.7093L209.261 76.1842C209.904 76.988 211.181 76.7603 211.505 75.7831C212.985 71.3137 215.652 61.0509 211.628 54.428" stroke="#00524A" stroke-width="0.478269" stroke-miterlimit="10"/>
<path d="M218.246 104.508C218.139 100.997 218.032 97.486 217.925 93.9748C217.748 88.1574 216.815 81.7968 218.633 76.1773C219.72 72.8219 221.745 70.2582 224.465 68.0728" fill="#009081"/>
<path d="M218.246 104.508C218.139 100.997 218.032 97.4861 217.925 93.9748C217.748 88.1574 216.815 81.7968 218.633 76.1773C219.72 72.8219 221.745 70.2582 224.465 68.0728" stroke="#00524A" stroke-width="0.478269" stroke-miterlimit="10"/>
<path d="M176.625 87.4243L177.961 63.8051" stroke="#00524A" stroke-width="0.478269" stroke-miterlimit="10"/>
</g>
<path d="M213.209 35.7744C213.209 35.7744 215 48.2376 211.629 51.2344L207.73 52.2824C207.73 52.2824 204.649 41.2785 204.878 41.195C205.106 41.1115 206.181 38.1711 206.181 38.1711L213.209 35.7744Z" fill="#122937"/>
<path d="M185.309 49.8832C185.254 49.9263 185.128 49.9396 184.964 49.9481C184.217 49.9875 182.684 49.9343 183.466 52.2155C184.419 54.9973 187.134 57.1184 187.134 57.1184" fill="#F5804C"/>
<path d="M210.191 53.6396C210.191 53.6396 209.288 67.6908 198.556 68.9165C191.829 69.6848 187.799 60.1018 185.727 52.8416C184.541 48.6851 183.949 44.3828 183.91 40.0608L183.903 39.2458C183.903 39.2458 187.901 35.1456 188.031 34.7386C188.161 34.3322 195.682 31.0705 195.682 31.0705L201.738 30.5677C201.738 30.5677 206.7 33.7034 207.025 33.98C207.351 34.2561 206.261 38.6781 206.261 38.6781L207.73 49.5554C207.73 49.5554 212.364 42.3032 212.66 48.4989C212.956 54.6951 210.191 53.6396 210.191 53.6396Z" fill="#F5804C"/>
<path d="M189.393 49.5969C189.715 49.9799 190.287 50.0288 190.67 49.7064C191.053 49.3841 191.102 48.8122 190.78 48.4291C190.457 48.0461 189.885 47.9971 189.502 48.3195C189.119 48.6419 189.07 49.2138 189.393 49.5969Z" fill="black"/>
<path d="M199.432 48.544C199.754 48.927 200.326 48.976 200.709 48.6536C201.092 48.3312 201.141 47.7593 200.819 47.3763C200.496 46.9932 199.924 46.9443 199.541 47.2667C199.158 47.5891 199.109 48.161 199.432 48.544Z" fill="black"/>
<path d="M195.014 57.512C194.426 57.6865 193.49 57.6673 192.661 57.3577C192.118 57.1545 191.84 56.5522 192.038 56.0075C192.312 55.2531 192.7 54.0816 192.918 52.9591" stroke="black" stroke-width="0.501039" stroke-miterlimit="10" stroke-linecap="round" stroke-linejoin="round"/>
<path d="M211.628 47.1337C211.628 47.1337 209.475 48.4738 209.817 51.2343" stroke="black" stroke-width="0.501039" stroke-miterlimit="10" stroke-linecap="round" stroke-linejoin="round"/>
<path d="M203.542 45.8329C203.383 45.9372 203.066 45.8904 202.912 45.8728C202.433 45.818 201.959 45.8159 201.475 45.817C200.34 45.8186 199.205 45.8377 198.07 45.8611C197.717 45.8686 197.364 45.8766 197.01 45.8851C196.911 45.8877 196.773 45.9165 196.676 45.8936C196.436 45.8361 196.421 45.5228 196.529 45.3435C196.674 45.1036 196.99 45.0972 197.227 45.0062C198.134 44.6604 199.076 44.3715 200.039 44.2391C200.795 44.1353 201.565 44.3173 202.264 44.5998C202.546 44.7136 202.833 44.8168 203.102 44.9594C203.292 45.0605 203.611 45.3903 203.634 45.6122C203.647 45.7207 203.608 45.7899 203.542 45.8329Z" fill="#122937"/>
<path d="M185.806 47.4322C185.983 47.5019 186.284 47.3912 186.43 47.3428C186.889 47.1917 187.351 47.0928 187.825 46.9949C188.937 46.7645 190.052 46.5522 191.168 46.3432C191.515 46.2783 191.863 46.2139 192.21 46.1501C192.308 46.132 192.45 46.1325 192.539 46.0899C192.762 45.9846 192.713 45.6744 192.571 45.5212C192.38 45.3159 192.069 45.3744 191.818 45.334C190.86 45.1802 189.878 45.0898 188.909 45.1568C188.148 45.2095 187.43 45.5452 186.804 45.9644C186.551 46.1336 186.292 46.2926 186.057 46.4873C185.892 46.6251 185.646 47.0135 185.669 47.2353C185.68 47.3433 185.732 47.4034 185.806 47.4322Z" fill="#122937"/>
<path d="M196.665 59.8453C196.665 59.8453 202.786 56.3032 202.723 56.5926C202.661 56.8815 203.061 60.2842 198.977 61.81L196.665 59.8453Z" fill="white"/>
<path d="M195.488 67.4504L196.802 69.6167C198.726 72.7896 203.16 73.3407 205.73 70.6637C205.764 70.6275 205.799 70.5908 205.833 70.5541L207.163 69.1214C210.605 65.416 210.74 60.004 210.255 55.275C210.195 54.6856 209.76 53.2039 209.994 52.6772L207.729 57.7754L205.656 63.3146L200.331 66.4625L195.488 67.4504Z" fill="#F5804C"/>
<mask id="mask7_1454_54170" style="mask-type:luminance" maskUnits="userSpaceOnUse" x="195" y="52" width="16" height="21">
<path d="M195.488 67.4504L196.802 69.6167C198.726 72.7896 203.16 73.3407 205.73 70.6637C205.764 70.6275 205.799 70.5908 205.833 70.5541C205.833 70.5541 207.163 69.1219 207.163 69.1214C210.605 65.416 210.74 60.004 210.255 55.275C210.195 54.6856 209.76 53.2039 209.994 52.6772L207.729 57.7754L204.625 61.8091L200.331 66.4625L195.488 67.4504Z" fill="white"/>
</mask>
<g mask="url(#mask7_1454_54170)">
<path d="M195.387 68.7193C202.015 68.5692 205.864 64.4611 207.729 60.2195C207.729 60.2195 206.01 70.3632 197.168 70.876C196.593 70.9095 196.065 70.028 195.742 69.404L195.387 68.7193Z" fill="#052A3D"/>
</g>
<path d="M183.25 35.2696C183.25 35.2696 183.834 18.2785 205.381 21.5067C207.051 21.7567 208.326 23.0463 208.242 24.529C208.217 24.9775 208.072 25.3307 207.708 25.4265C207.708 25.4265 211.093 28.6563 212.132 31.1588C212.132 31.1588 200.297 39.0574 183.25 35.2696Z" fill="#1255FF"/>
<path d="M201.404 24.1316C201.404 24.1316 204.772 24.0837 207.708 25.4265" stroke="black" stroke-width="0.467895" stroke-miterlimit="10" stroke-linecap="round" stroke-linejoin="round"/>
<path d="M183.282 41.0721C183.282 41.0721 201.405 44.5461 213.236 35.8543L212.132 31.1588C212.132 31.1588 200.017 37.371 183.25 35.2696L183.282 41.0721Z" fill="#1255FF"/>
<mask id="mask8_1454_54170" style="mask-type:luminance" maskUnits="userSpaceOnUse" x="183" y="31" width="31" height="11">
<path d="M183.282 41.0721C183.282 41.0721 201.405 44.5461 213.236 35.8543L212.132 31.1588C212.132 31.1588 200.017 37.371 183.25 35.2696L183.282 41.0721Z" fill="white"/>
</mask>
<g mask="url(#mask8_1454_54170)">
<path d="M185.219 34.6844L185.442 42.9502" stroke="black" stroke-width="0.467895" stroke-miterlimit="10" stroke-linecap="round" stroke-linejoin="round"/>
<path d="M188.052 34.3221L189.603 43.3507" stroke="black" stroke-width="0.467895" stroke-miterlimit="10" stroke-linecap="round" stroke-linejoin="round"/>
<path d="M192.347 34.6844L192.205 44.1083" stroke="black" stroke-width="0.467895" stroke-miterlimit="10" stroke-linecap="round" stroke-linejoin="round"/>
<path d="M194.659 35.2271L196.317 44.1961" stroke="black" stroke-width="0.467895" stroke-miterlimit="10" stroke-linecap="round" stroke-linejoin="round"/>
<path d="M197.54 34.6844L200.5 42.5123" stroke="black" stroke-width="0.467895" stroke-miterlimit="10" stroke-linecap="round" stroke-linejoin="round"/>
<path d="M201.404 33.7061L203.231 42.5022" stroke="black" stroke-width="0.467895" stroke-miterlimit="10" stroke-linecap="round" stroke-linejoin="round"/>
<path d="M204.849 32.4165L206.654 40.4375" stroke="black" stroke-width="0.467895" stroke-miterlimit="10" stroke-linecap="round" stroke-linejoin="round"/>
<path d="M207.708 31.6765L210.346 38.8367" stroke="black" stroke-width="0.467895" stroke-miterlimit="10" stroke-linecap="round" stroke-linejoin="round"/>
<path d="M210.676 30.6774L211.992 39.7118" stroke="black" stroke-width="0.467895" stroke-miterlimit="10" stroke-linecap="round" stroke-linejoin="round"/>
</g>
<path d="M212.132 31.1588C212.132 31.1588 199.762 37.646 183.25 35.2696" stroke="black" stroke-width="0.467895" stroke-miterlimit="10" stroke-linecap="round" stroke-linejoin="round"/>
<path d="M180.19 139.993C180.109 141.135 179.117 141.995 177.975 141.914C176.833 141.832 175.973 140.841 176.055 139.698C176.136 138.556 177.128 137.696 178.27 137.777C179.412 137.859 180.272 138.851 180.19 139.993Z" fill="#F5804C"/>
<path d="M182.473 137.132C182.391 138.274 181.4 139.134 180.257 139.052C179.115 138.971 178.255 137.979 178.337 136.837C178.418 135.695 179.41 134.835 180.552 134.916C181.694 134.997 182.554 135.99 182.473 137.132Z" fill="#F5804C"/>
<path d="M184.067 133.533C184.744 134.456 184.545 135.753 183.622 136.431C182.699 137.109 181.402 136.91 180.725 135.987C180.047 135.064 180.246 133.766 181.169 133.089C182.092 132.412 183.389 132.61 184.067 133.533Z" fill="#F5804C"/>
<path d="M185.721 131.633C186.31 132.437 186.137 133.565 185.334 134.155C184.531 134.744 183.402 134.571 182.813 133.769C182.223 132.965 182.396 131.836 183.199 131.247C184.002 130.658 185.131 130.83 185.721 131.633Z" fill="#F5804C"/>
<path d="M198.522 130.412L187.761 127.132L176.446 141.385C176.446 141.385 189.542 145.024 189.923 145.111C190.304 145.199 198.522 130.412 198.522 130.412Z" fill="#265573"/>
<path d="M176.446 141.385L176.538 142.705L190.074 146.589L189.923 145.111L176.446 141.385Z" fill="#24485E"/>
<path d="M190.073 146.589L198.522 132.188V130.412L189.923 145.111L190.073 146.589Z" fill="#193342"/>
<path d="M196.127 131.651L187.701 129.083L178.841 140.243C178.841 140.243 189.095 143.092 189.394 143.161C189.692 143.229 196.127 131.651 196.127 131.651Z" fill="#A6DCFF"/>
<mask id="mask9_1454_54170" style="mask-type:luminance" maskUnits="userSpaceOnUse" x="178" y="129" width="19" height="15">
<path d="M196.127 131.651L187.701 129.083L178.841 140.243C178.841 140.243 189.095 143.092 189.394 143.161C189.692 143.229 196.127 131.651 196.127 131.651Z" fill="white"/>
</mask>
<g mask="url(#mask9_1454_54170)">
<path d="M182.797 127.068L178.962 129.48L189.784 146.692L193.62 144.281L182.797 127.068Z" fill="white"/>
<path d="M185.201 125.558L184.242 126.161L195.064 143.374L196.023 142.771L185.201 125.558Z" fill="white"/>
</g>
<path d="M204.475 138.915C204.475 138.915 197.392 141.426 193.609 144.053C193.609 144.053 190.982 142.897 192.873 140.901C194.765 138.905 195.921 137.644 195.921 137.644C195.921 137.644 195.431 134.162 198.521 130.412L194.239 129.127C194.239 129.127 197.48 126.43 200.378 127.309L204.475 138.915Z" fill="#F5804C"/>
<path d="M218.246 104.509L218.077 117.951L200.379 127.308L204.475 138.915L229.168 129.126C229.168 129.126 233.72 126.496 234.858 121.326C235.735 117.341 237.008 109.056 237.546 105.463C235.074 106.712 227.052 109.928 218.246 104.509Z" fill="#F5804C"/>
<path d="M25.8703 131.873C26.1336 133.393 27.5211 134.511 27.8711 136.014C28.2701 137.729 27.2439 139.408 26.3895 140.947C25.5351 142.486 24.8291 144.449 25.7851 145.927C26.4874 147.013 27.8701 147.452 28.7314 148.416C29.9661 149.798 29.8603 151.901 29.4826 153.715C29.1048 155.529 28.5308 157.42 29.066 159.194C29.581 160.9 31.0669 162.176 32.707 162.873C34.3472 163.57 36.148 163.773 37.919 163.969C38.2239 164.003 38.5473 164.034 38.8229 163.9C39.3592 163.639 39.4454 162.927 39.4767 162.331C39.697 158.121 40.7434 153.955 42.5389 150.14C43.3433 148.432 44.3243 146.645 44.0668 144.774C43.9328 143.798 43.4668 142.899 43.2486 141.938C42.9465 140.606 43.1151 139.147 42.4863 137.934C41.7936 136.598 40.32 135.903 38.9868 135.206C36.0219 133.655 33.2906 131.657 30.9115 129.304C29.564 127.972 29.0655 126.483 27.3684 128.036C26.3868 128.935 25.6388 130.538 25.8703 131.873Z" fill="#A44926"/>
<path d="M97.8216 223.214C98.9744 222.445 98.9276 219.894 97.464 218.787C95.202 219.227 93.4581 219.716 93.4581 219.716C93.4581 219.716 90.4326 209.198 90.3241 208.475L84.1438 215.379L88.4812 224.921L90.5698 227.858C93.4224 227.196 95.9159 225.501 97.8216 223.214Z" fill="#FFA670"/>
<path d="M105.199 218.239C103.079 217.879 99.956 218.302 97.4636 218.787C98.9271 219.894 98.9739 222.445 97.8211 223.214C95.9155 225.5 93.422 227.196 90.5688 227.858L91.7733 229.552C102.568 227.333 105.786 223.327 106.738 220.961C107.214 219.781 106.453 218.452 105.199 218.239Z" fill="#1255FF"/>
<path d="M104.928 246.149L98.0707 239.574C98.6351 240.398 99.2187 241.215 99.8023 242.033C100.463 242.958 100.797 244.514 100.401 245.588C99.9077 246.927 98.1143 247.428 96.8582 247.72C95.2463 248.096 93.5758 248.007 91.9745 247.624C88.6537 246.832 85.7107 244.944 82.7847 243.263C86.5411 246.366 90.6349 249.05 94.851 250.647C94.851 250.647 99.5379 252.764 103.157 252.093C105.947 251.576 106.976 248.112 104.928 246.149Z" fill="#1255FF"/>
<path d="M99.8028 246.49C100.793 245.995 100.793 243.519 99.8028 242.033C99.2187 241.215 98.6356 240.398 98.0706 239.574L94.5062 236.155L84.155 211.14L63.9092 221.837C63.9092 221.837 71.9387 234.304 82.7851 243.263C87.9413 246.225 93.8715 250.14 99.8028 246.49Z" fill="#FFA670"/>
<path d="M91.0732 227.858L84.155 211.14" stroke="black" stroke-width="0.49524" stroke-miterlimit="10" stroke-linecap="round" stroke-linejoin="round"/>
<path d="M38.8162 137.827C38.8162 137.827 30.9287 153.902 34.7176 173.982L44.7512 179.433C44.7512 179.433 51.3767 214.976 60.5463 227.858C60.5463 227.858 94.4428 228.112 93.4368 199.893C93.4368 199.893 83.5862 180.38 79.6079 159.921C79.6079 159.921 82.2599 153.67 79.4185 148.934C76.5771 144.198 60.8538 138.512 60.8538 138.512L38.8162 137.827Z" fill="#FF675D"/>
<path d="M59.2211 199.119L56.3057 188.896C50.8639 192.209 44.2234 193.55 37.9043 192.076C38.6491 195.638 39.6338 199.412 40.9325 203.205C47.5271 204.289 54.0223 202.924 59.2211 199.119Z" fill="#C7423A"/>
<path d="M56.3058 188.897L52.9521 177.137C51.9945 173.781 50.0659 170.753 47.3214 168.596C44.8545 166.657 41.7125 165.326 38.6928 167.29C36.6606 168.612 34.6363 171.559 34.7177 173.983C34.8406 177.631 36.2201 184.02 37.9044 192.077C44.2235 193.55 50.8639 192.209 56.3058 188.897Z" fill="#FF675D"/>
<path d="M60.547 203.767L59.2212 199.119C54.0225 202.924 47.5273 204.289 40.9326 203.205C41.9291 206.115 43.1106 209.037 44.513 211.883C46.3069 215.523 49.9958 217.902 54.0534 217.829C55.6467 217.801 57.4736 217.475 59.5319 216.678L70.4523 213.37L73.4581 205.072L60.547 203.767Z" fill="#FFA670"/>
<path d="M81.8387 204.683C81.8329 204.642 81.7951 204.613 81.7605 204.59C81.5621 204.459 75.6239 206.08 75.8527 205.156C79.7645 204.432 81.2163 203.809 81.2232 203.804C81.3317 203.707 81.4924 203.422 81.3041 203.306C80.8162 203.008 79.5522 203.134 78.9729 203.213C77.8945 203.359 76.8028 203.408 75.7154 203.358C75.4595 203.346 73.9476 203.043 74.337 202.474C74.3625 202.437 74.412 202.424 74.4572 202.417C75.5164 202.254 77.3268 202.347 77.7131 201.648C77.7743 201.537 77.9152 201.323 77.7929 201.29C77.2162 201.134 76.5975 201.041 76.2543 200.967C75.3606 200.773 74.5886 200.217 73.6848 200.053C72.4894 199.836 71.6536 200.756 70.862 201.501C70.3124 202.017 69.7932 202.566 69.3085 203.143C68.9851 203.527 68.5031 203.978 68.4073 204.468C68.319 204.919 68.3988 205.469 68.3951 205.928C68.3818 207.574 68.3679 209.22 68.3546 210.867C68.3461 211.89 68.3376 212.913 68.3291 213.936C68.3286 213.983 70.28 213.439 70.4529 213.371C71.1594 213.09 71.8313 212.724 72.45 212.283C73.0841 211.832 73.5619 211.274 74.1247 210.752C74.661 210.255 75.5042 210.218 76.1873 210.093C77.0619 209.933 77.9206 209.688 78.7909 209.506C78.9622 209.47 79.1537 209.42 79.2394 209.269C79.4442 208.909 78.9447 208.444 78.6265 208.359C77.8753 208.159 77.1188 208.099 76.3517 208.001C75.7308 207.92 77.1555 207.317 77.3896 207.204C78.9292 206.462 80.978 206.125 81.8393 205.194C81.8685 205.162 81.8451 204.725 81.8387 204.683Z" fill="#FFA670"/>
<path d="M60.5469 203.767C60.5469 203.767 61.6247 207.976 59.4116 210.309" stroke="black" stroke-width="0.49524" stroke-miterlimit="10" stroke-linecap="round" stroke-linejoin="round"/>
<path d="M56.3058 188.897C56.3058 188.897 52.935 175.748 52.934 175.745C51.4725 170.621 46.0381 166.67 40.3074 168.026C37.6628 168.652 34.6182 171.018 34.7182 173.983" stroke="#AD463F" stroke-width="0.49524" stroke-miterlimit="10"/>
<path d="M60.5469 177.61C61.7864 177.073 71.0736 179.768 74.8912 169.52" stroke="#AD463F" stroke-width="0.49524" stroke-miterlimit="10"/>
<path d="M41.5417 167.838C41.5417 167.838 39.5781 161.347 41.4768 152.679" stroke="#AD463F" stroke-width="0.49524" stroke-miterlimit="10"/>
<path d="M57.1797 148.385C57.1797 148.385 63.9441 148.704 62.2364 145.325C60.5286 141.946 55.0735 138.84 55.0735 138.84L57.1797 148.385Z" fill="white"/>
<path d="M39.4236 139.964C39.4236 139.964 34.7984 151.717 45.2293 154.462C50.3562 155.811 53.869 155.669 56.1168 155.174C57.9532 154.771 58.9507 152.782 58.1602 151.076L56.9132 148.386" fill="white"/>
<path d="M40.3009 136.629L39.2784 141.255C38.9459 144.208 40.3993 147.08 42.9865 148.542C46.3705 150.453 51.4607 151.902 56.9132 148.386L58.2762 141.637L40.3009 136.629Z" fill="#FFA670"/>
<path d="M57.9591 143.208C51.3251 144.661 46.5291 142.2 43.7212 139.964C43.7212 139.964 49.7046 148.519 57.1931 146.998L57.9591 143.208Z" fill="#052A3D"/>
<path d="M40.3738 132.585C41.3644 127.633 38.8879 122.68 42.355 118.223C45.6326 113.716 53.427 112.339 56.2195 115.575C55.5044 115.34 55.1172 113.216 54.7942 112.621C53.9483 111.06 52.6673 109.872 51.2037 108.896C43.1189 103.508 29.3188 105.853 26.4135 116.12C23.686 125.757 29.7838 132.378 32.1166 134.746C35.3666 135.24 39.4854 135.25 40.3738 132.585Z" fill="#A44926"/>
<path d="M56.222 115.576C53.4269 112.275 45.6331 113.716 42.3549 118.223C38.8883 122.68 41.3643 127.633 40.3737 132.585C40.1928 133.128 39.8917 133.532 39.5065 133.838C38.1914 132.805 36.6401 132.166 34.8568 132.501C33.9301 132.676 32.9661 133.199 32.6985 134.103C32.6841 134.152 32.6751 134.201 32.665 134.251C32.6299 134.245 32.5937 134.24 32.5586 134.235C32.59 134.267 32.6187 134.295 32.649 134.325C32.5698 134.831 32.7113 135.365 32.9714 135.811C33.2704 136.323 33.713 136.735 34.1737 137.109C35.9065 138.512 38.1664 139.489 40.3508 139.039C40.9153 138.923 41.4957 138.68 41.8122 138.204C44.0998 140.645 50.237 145.746 59.838 142.705C62.0586 142.001 63.6195 139.987 63.7355 137.661C63.9882 132.606 63.3019 123.214 56.222 115.576Z" fill="#FFA670"/>
<path d="M58.3287 132.102C58.3287 132.102 59.5757 131.229 59.531 129.523C59.5193 129.075 59.1773 128.708 58.7357 128.634C58.0313 128.516 56.7981 128.011 55.1963 126.168" stroke="black" stroke-width="0.49524" stroke-miterlimit="10" stroke-linecap="round" stroke-linejoin="round"/>
<path d="M58.05 134.746C58.05 134.746 50.7993 137.226 51.0622 137.384C51.325 137.541 54.0031 139.658 58.05 137.658V134.746Z" fill="white"/>
<path d="M45.9607 129.672C45.9607 129.672 46.9651 127.864 49.6278 127.21" stroke="black" stroke-width="0.49524" stroke-miterlimit="10" stroke-linecap="round" stroke-linejoin="round"/>
<path d="M47.6449 129.917C48.1397 129.917 48.5408 129.516 48.5408 129.021C48.5408 128.526 48.1397 128.125 47.6449 128.125C47.1501 128.125 46.749 128.526 46.749 129.021C46.749 129.516 47.1501 129.917 47.6449 129.917Z" fill="black"/>
<path d="M54.6084 123.535C54.6084 123.535 55.6128 121.726 58.2755 121.073" stroke="black" stroke-width="0.49524" stroke-miterlimit="10" stroke-linecap="round" stroke-linejoin="round"/>
<path d="M56.2926 123.78C56.7874 123.78 57.1885 123.379 57.1885 122.884C57.1885 122.389 56.7874 121.988 56.2926 121.988C55.7978 121.988 55.3967 122.389 55.3967 122.884C55.3967 123.379 55.7978 123.78 56.2926 123.78Z" fill="black"/>
<path d="M34.0753 134.99C33.954 134.929 36.6283 134.078 38.8165 135.78" stroke="black" stroke-width="0.49524" stroke-miterlimit="10" stroke-linecap="round" stroke-linejoin="round"/>
<path d="M57.7621 118.667C57.6882 118.792 57.4557 118.866 57.3445 118.905C56.9982 119.029 56.6736 119.185 56.3433 119.348C55.5671 119.729 54.7973 120.122 54.0285 120.518C53.7891 120.642 53.5503 120.765 53.3119 120.889C53.2449 120.924 53.1598 120.99 53.0864 121.007C52.9028 121.047 52.7874 120.838 52.8017 120.679C52.8204 120.467 53.0348 120.356 53.1667 120.215C53.671 119.675 54.219 119.162 54.8329 118.749C55.3149 118.425 55.9033 118.291 56.4757 118.251C56.7066 118.234 56.9375 118.209 57.1689 118.216C57.3328 118.221 57.6616 118.341 57.752 118.484C57.7962 118.556 57.7924 118.616 57.7621 118.667Z" fill="#122937"/>
<path d="M44.7271 127.104C44.8719 127.095 45.0426 126.921 45.1283 126.839C45.3948 126.586 45.681 126.367 45.9752 126.146C46.6658 125.625 47.3643 125.116 48.0644 124.609C48.2825 124.452 48.5006 124.294 48.7193 124.137C48.7805 124.093 48.8784 124.047 48.9262 123.989C49.0454 123.844 48.9113 123.646 48.7629 123.587C48.5645 123.508 48.3692 123.649 48.1836 123.703C47.4744 123.909 46.769 124.167 46.1231 124.528C45.6167 124.812 45.232 125.277 44.9373 125.769C44.8187 125.967 44.6915 126.162 44.5936 126.372C44.5245 126.521 44.4819 126.868 44.5697 127.013C44.6117 127.084 44.667 127.108 44.7271 127.104Z" fill="#122937"/>
<path d="M48.3309 133.295C50.873 133.295 52.9338 131.234 52.9338 128.692C52.9338 126.15 50.873 124.089 48.3309 124.089C45.7888 124.089 43.728 126.15 43.728 128.692C43.728 131.234 45.7888 133.295 48.3309 133.295Z" stroke="white" stroke-width="0.49524" stroke-miterlimit="10"/>
<path d="M60.4578 126.558C62.8064 125.585 63.9217 122.893 62.9488 120.544C61.976 118.195 59.2834 117.08 56.9347 118.053C54.5861 119.026 53.4708 121.719 54.4436 124.067C55.4165 126.416 58.1091 127.531 60.4578 126.558Z" stroke="white" stroke-width="0.49524" stroke-miterlimit="10"/>
<path d="M52.6002 126.782C52.1017 126.099 52.2517 125.142 52.9348 124.644C53.6179 124.146 54.5755 124.295 55.0735 124.978" stroke="white" stroke-width="0.49524" stroke-miterlimit="10"/>
<path d="M43.7785 129.337L37.3391 132.532" stroke="white" stroke-width="0.49524" stroke-miterlimit="10"/>
<path d="M208.572 232.268L201.092 239.45C199.726 240.762 198.907 242.576 198.965 244.468C199.014 246.068 199.642 247.733 201.817 248.372C206.5 249.747 208.611 248.266 213.269 245.621C217.927 242.976 223.783 237.589 223.783 237.589L224.38 235.252L208.572 232.268Z" fill="#FBC02E"/>
<path d="M211.71 238.77C211.71 238.77 208.031 238.321 207.606 234.639" stroke="white" stroke-width="0.478269" stroke-miterlimit="10"/>
<path d="M210.206 239.976C210.206 239.976 206.527 239.527 206.102 235.845" stroke="white" stroke-width="0.478269" stroke-miterlimit="10"/>
<path d="M208.701 241.181C208.701 241.181 205.022 240.732 204.597 237.05" stroke="white" stroke-width="0.478269" stroke-miterlimit="10"/>
<path d="M207.197 242.387C207.197 242.387 203.518 241.938 203.093 238.256" stroke="white" stroke-width="0.478269" stroke-miterlimit="10"/>
<path d="M208.331 214.313L194.667 216.414C193.124 216.652 191.696 217.454 190.796 218.73C189.91 219.986 189.362 222.32 190.981 224.146C194.219 227.799 196.861 227.045 202.212 227.278C207.564 227.511 215.387 226.059 215.387 226.059L217.134 224.395L208.331 214.313Z" fill="#FBC02E"/>
<path d="M203.217 221.94C203.217 221.94 200.484 219.436 202.279 216.193" stroke="white" stroke-width="0.478269" stroke-miterlimit="10"/>
<path d="M201.291 222.047C201.291 222.047 198.559 219.543 200.353 216.3" stroke="white" stroke-width="0.478269" stroke-miterlimit="10"/>
<path d="M199.366 222.153C199.366 222.153 196.634 219.649 198.429 216.406" stroke="white" stroke-width="0.478269" stroke-miterlimit="10"/>
<path d="M197.441 222.26C197.441 222.26 194.708 219.755 196.503 216.512" stroke="white" stroke-width="0.478269" stroke-miterlimit="10"/>
<path d="M204.776 194.86L205.632 214.787C205.632 214.787 205.768 219.866 208.181 219.919L215.016 203.985L204.776 194.86Z" fill="#009081"/>
<path d="M212.434 205.232L207.781 215.531C207.781 215.531 205.052 219.715 206.812 225.508C208.572 231.301 208.572 232.267 208.572 232.267C208.572 232.267 213.4 242.727 225.147 235.807C225.67 231.919 225.664 227.662 227.756 224.235C228.235 223.45 234.062 215.613 235.102 216.336L217.175 203.88L212.434 205.232Z" fill="#009081"/>
<path d="M221.228 237.59C221.228 237.59 215.384 225.717 227.722 213.845" stroke="#004A43" stroke-width="0.478269" stroke-miterlimit="10"/>
<path d="M212.434 205.232L207.781 215.531C207.781 215.531 206.997 216.734 206.54 218.741" stroke="#004A43" stroke-width="0.478269" stroke-miterlimit="10"/>
<path d="M215.384 153.955C215.384 153.955 206.343 158.233 204.352 169.394C204.352 169.394 204.637 175.478 207.781 178.574C207.781 178.574 212.533 168.68 215.192 159.464" fill="#6B93F6"/>
<path d="M226.339 127.506C226.339 127.506 211.965 134.415 214.69 153.955L225.179 139.45L226.339 127.506Z" fill="#6B93F6"/>
<path d="M266.729 166.792C266.729 166.792 252.234 168.514 246.475 182.047V190.992L218.935 195.643C218.935 195.643 219.677 206.38 228.929 208.011L253.102 206.263C253.102 206.263 261.162 206.643 263.443 199.675C265.724 192.707 266.729 166.792 266.729 166.792Z" fill="#6B93F6"/>
<path d="M226.339 127.506C226.339 127.506 253.591 124.607 261.528 147.442C265.763 159.999 266.729 166.793 266.729 166.793L240.229 217.425C240.229 217.425 216.522 218.551 204.775 200.528C204.775 200.528 201.133 186.414 201.93 178.505L204.283 167.444L207.78 178.574L214.943 158.865L214.098 153.733L214.989 150.523L217.975 146.52L220.782 142.542L226.339 127.506Z" fill="#6B93F6"/>
<path d="M233.748 154.118L230.256 158.747L235.973 158.246L236.507 157.629L233.748 154.118Z" fill="white"/>
<path d="M224.896 131.198C224.896 131.198 233.602 130.94 239.439 132.917" stroke="#05346B" stroke-width="0.478269" stroke-miterlimit="10"/>
<path d="M238.279 139.349L228.124 144.912L228.938 149.744L224.251 151.591L220.64 163.905" stroke="#05346B" stroke-width="0.478269" stroke-miterlimit="10"/>
<path d="M266.728 166.792C266.728 166.792 255.26 166.46 248.627 175.856C246.941 178.244 246.103 181.129 246.103 184.053L246.475 190.993L218.935 195.644" stroke="#05346B" stroke-width="0.478269" stroke-miterlimit="10"/>
<path d="M218.136 191.766C218.136 191.766 219.029 206.667 230.064 208.222L245.638 207.09" stroke="#05346B" stroke-width="0.478269" stroke-miterlimit="10"/>
<path d="M246.475 190.993C246.475 190.993 246.159 192.943 248.272 195.644" stroke="#05346B" stroke-width="0.478269" stroke-miterlimit="10"/>
<path d="M204.775 200.528L220.212 166.015C220.212 166.015 223.443 159.79 229.27 158.998C233.692 158.398 236.165 158.233 236.165 158.233" stroke="#05346B" stroke-width="0.478269" stroke-miterlimit="10"/>
<path d="M218.131 172.724C218.131 172.724 223.175 165.569 238.405 167.444L241.138 163.276L247.622 165.925C247.622 165.925 262.664 149.175 256.997 141.407" stroke="#05346B" stroke-width="0.478269" stroke-miterlimit="10"/>
<path d="M215.729 159.999C215.729 159.999 212.539 155.804 215.384 149.744C218.718 145.706 221.156 142.496 222.382 139.45C222.382 139.45 224.295 131.737 226.338 127.843" stroke="#6B93F6" stroke-width="0.478269" stroke-miterlimit="10"/>
<path d="M204.284 167.444C204.284 167.444 203.648 175.032 209.362 179.954" stroke="#05346B" stroke-width="0.478269" stroke-miterlimit="10"/>
<path d="M230.125 158.884C230.125 158.884 233.173 155.718 233.906 153.78" stroke="#05346B" stroke-width="0.478269" stroke-miterlimit="10"/>
<path d="M214.715 158.233C214.715 158.233 213.651 161.091 213.112 163.905C212.572 166.719 211.557 173.27 207.781 178.574" stroke="#05346B" stroke-width="0.478269" stroke-miterlimit="10"/>
<path d="M259.366 168.052C259.366 168.052 258.273 160.861 255.747 154.193" stroke="#05346B" stroke-width="0.478269" stroke-miterlimit="10"/>
<path d="M223.005 176.983C223.005 176.983 228.076 185.183 239.439 181.252" stroke="#05346B" stroke-width="0.478269" stroke-miterlimit="10"/>
<path d="M219.097 180.253C219.119 180.783 218.705 181.231 218.175 181.251C217.644 181.272 217.197 180.859 217.176 180.329C217.155 179.798 217.568 179.351 218.099 179.33C218.629 179.309 219.077 179.722 219.097 180.253Z" fill="#05346B"/>
<path d="M215.191 188.018C215.212 188.549 214.799 188.996 214.268 189.017C213.738 189.038 213.291 188.625 213.27 188.094C213.249 187.564 213.662 187.117 214.192 187.096C214.723 187.075 215.17 187.487 215.191 188.018Z" fill="#05346B"/>
<path d="M211.284 195.784C211.305 196.314 210.892 196.761 210.361 196.782C209.831 196.803 209.384 196.39 209.363 195.86C209.342 195.329 209.755 194.882 210.285 194.861C210.816 194.84 211.263 195.253 211.284 195.784Z" fill="#05346B"/>
<path d="M237.45 144.42L233.906 153.78C233.097 155.919 234.677 158.207 236.964 158.207C243.569 158.207 253.094 156.905 255.535 149.554C256.585 146.394 256.579 142.648 256.996 139.348L252.165 142.541L248.491 145.705L242.96 146.519L239.439 145.705L237.45 144.42Z" fill="#A85734"/>
<path d="M236.971 145.684C238.465 147.981 241.374 148.822 244.128 148.601C247.796 148.307 251.006 146.71 253.577 144.318C253.577 144.318 246.928 154.86 235.102 150.621L236.971 145.684Z" fill="#052A3D"/>
<path d="M242.019 112.69C243.947 110.279 246.647 108.576 249.505 107.411C255.236 105.073 261.909 105.393 266.368 110.06C273.718 117.754 271.637 136.561 258.844 137.133C258.101 137.166 257.304 137.102 256.714 136.648C256.012 136.109 255.78 135.167 255.629 134.295C255.174 131.674 255.029 128.984 254.23 126.447C253.431 123.909 251.829 121.452 249.365 120.447C247.772 119.798 246.017 119.833 244.342 120.06C243.149 120.222 241.494 120.791 240.337 120.174C237.888 118.866 240.91 114.078 242.019 112.69Z" fill="#122937"/>
<path d="M268.921 120.58C273.614 120.58 277.418 116.444 277.418 111.342C277.418 106.239 273.614 102.103 268.921 102.103C264.228 102.103 260.424 106.239 260.424 111.342C260.424 116.444 264.228 120.58 268.921 120.58Z" fill="#122937"/>
<path d="M238.406 121.382C238.901 120.113 239.533 118.917 240.514 117.999C242.495 116.145 243.888 115.662 246.475 115.979C254.075 116.91 258.732 125.326 257.681 134.029C257.6 134.705 257.718 136.131 258.647 135.312C259.477 134.58 261.355 133.298 262.45 133.274C263.361 133.254 264.376 133.555 264.81 134.355C264.833 134.398 264.852 134.443 264.871 134.488C264.903 134.476 264.936 134.463 264.968 134.452C264.945 134.488 264.924 134.52 264.901 134.555C265.077 135.018 265.05 135.55 264.894 136.024C264.714 136.567 264.378 137.045 264.018 137.49C262.661 139.163 260.721 140.537 258.568 140.549C258.012 140.552 257.415 140.439 257.021 140.053C255.348 142.816 250.594 149.522 240.915 148.561C239.439 148.415 236.775 146.099 236.2 143.924C235.283 140.457 234.913 136.827 235.196 133.249C235.418 130.441 236.224 127.732 237.158 125.088C237.575 123.909 237.926 122.611 238.406 121.382Z" fill="#A85734"/>
<path d="M240.599 139.377C240.599 139.377 239.287 139.848 238.498 138.4C238.291 138.021 238.189 137.597 238.38 137.209C238.805 136.342 239.763 136.089 240.583 134.029" stroke="black" stroke-width="0.478269" stroke-miterlimit="10" stroke-linecap="round" stroke-linejoin="round"/>
<path d="M250.508 133.126C250.508 133.126 249.122 131.688 246.475 131.738" stroke="black" stroke-width="0.478269" stroke-miterlimit="10" stroke-linecap="round" stroke-linejoin="round"/>
<path d="M248.12 133.139C248.243 133.601 248.717 133.876 249.179 133.753C249.641 133.63 249.916 133.156 249.793 132.694C249.67 132.233 249.196 131.958 248.734 132.081C248.273 132.203 247.997 132.677 248.12 133.139Z" fill="black"/>
<path d="M240.915 129.542C240.915 129.542 239.529 128.104 236.882 128.154" stroke="black" stroke-width="0.478269" stroke-miterlimit="10" stroke-linecap="round" stroke-linejoin="round"/>
<path d="M238.527 129.555C238.65 130.017 239.124 130.292 239.586 130.169C240.048 130.046 240.323 129.573 240.2 129.11C240.078 128.649 239.604 128.374 239.142 128.496C238.679 128.619 238.404 129.093 238.527 129.555Z" fill="black"/>
<path d="M263.687 135.469C263.789 135.387 261.093 135.118 259.366 137.164" stroke="black" stroke-width="0.478269" stroke-miterlimit="10" stroke-linecap="round" stroke-linejoin="round"/>
<path d="M252.002 131.896C251.858 131.908 251.662 131.762 251.566 131.695C251.264 131.485 250.947 131.312 250.623 131.138C249.862 130.729 249.094 130.331 248.325 129.936C248.086 129.814 247.846 129.691 247.606 129.569C247.539 129.535 247.436 129.504 247.379 129.454C247.239 129.328 247.342 129.113 247.479 129.032C247.663 128.924 247.878 129.034 248.069 129.059C248.802 129.154 249.538 129.301 250.231 129.561C250.775 129.765 251.226 130.165 251.592 130.607C251.739 130.786 251.894 130.958 252.023 131.152C252.114 131.288 252.209 131.625 252.144 131.781C252.113 131.858 252.062 131.891 252.002 131.896Z" fill="#122937"/>
<path d="M236.819 125.971C236.912 126.082 237.154 126.116 237.27 126.137C237.632 126.201 237.978 126.302 238.33 126.408C239.159 126.656 239.983 126.916 240.806 127.18C241.063 127.262 241.319 127.344 241.575 127.427C241.646 127.45 241.741 127.502 241.817 127.506C242.004 127.516 242.084 127.29 242.044 127.136C241.99 126.93 241.76 126.856 241.607 126.739C241.021 126.289 240.396 125.874 239.722 125.568C239.193 125.328 238.591 125.293 238.019 125.348C237.789 125.37 237.557 125.383 237.33 125.428C237.169 125.461 236.864 125.633 236.799 125.789C236.767 125.866 236.78 125.925 236.819 125.971Z" fill="#122937"/>
<path d="M240.583 142.743C240.583 142.743 242.53 144.391 245.338 142.541" stroke="black" stroke-width="0.478269" stroke-miterlimit="10" stroke-linecap="round" stroke-linejoin="round"/>
</svg>
