<?xml version="1.0" encoding="UTF-8"?>
<svg xmlns="http://www.w3.org/2000/svg" xmlns:xlink="http://www.w3.org/1999/xlink" width="300px" height="268px" viewBox="0 0 300 268" version="1.1">
<g id="surface1">
<path style=" stroke:none;fill-rule:nonzero;fill:rgb(1.568627%,2.352941%,2.352941%);fill-opacity:1;" d="M 30.292969 243.523438 L 30.429688 243.105469 C 28.636719 242.769531 28.410156 242.769531 29.125 240.8125 L 29.851562 238.804688 L 31.828125 238.804688 C 32.71875 238.804688 32.730469 239.171875 32.59375 240.140625 L 33.109375 240.140625 L 34.292969 236.894531 L 33.78125 236.894531 C 33.335938 237.660156 32.984375 238.226562 32.015625 238.226562 L 30.066406 238.226562 L 31.101562 235.382812 C 31.425781 234.480469 31.613281 234.289062 32.824219 234.289062 L 33.6875 234.289062 C 34.9375 234.289062 35.085938 234.628906 35.085938 235.894531 L 35.585938 235.894531 L 36 233.683594 L 28.570312 233.683594 L 28.4375 234.101562 C 29.875 234.398438 30.011719 234.535156 29.335938 236.394531 L 27.722656 240.8125 C 27.050781 242.660156 26.765625 242.808594 25.109375 243.105469 L 24.988281 243.523438 Z M 40.605469 238.105469 C 40.859375 237.230469 40.726562 236.460938 40.050781 236.460938 C 39.257812 236.460938 39.058594 237.066406 38.25 238.804688 L 38.25 237.808594 C 38.25 237.09375 38.019531 236.460938 37.375 236.460938 C 36.621094 236.460938 35.933594 237.632812 35.410156 238.792969 L 35.757812 238.792969 C 36.121094 238.265625 36.457031 237.957031 36.726562 237.957031 C 37.050781 237.957031 37.226562 238.457031 36.726562 239.5625 L 35.273438 242.796875 C 35.003906 243.402344 35.289062 243.792969 35.878906 243.792969 C 36.242188 243.792969 36.40625 243.699219 36.554688 243.308594 L 37.980469 239.519531 C 38.382812 239.019531 38.746094 238.589844 39.203125 238.105469 Z M 47.148438 236.152344 L 46.582031 236.109375 L 45.949219 236.730469 L 45.8125 236.730469 C 42.746094 236.730469 40.09375 240.179688 40.09375 242.6875 C 40.09375 243.386719 40.523438 243.792969 41.199219 243.792969 C 41.992188 243.792969 42.773438 242.660156 43.648438 241.449219 L 43.605469 241.878906 C 43.5 243.117188 43.875 243.792969 44.523438 243.792969 C 45.277344 243.792969 45.960938 242.621094 46.488281 241.460938 L 46.136719 241.460938 C 45.773438 241.988281 45.4375 242.296875 45.167969 242.296875 C 44.886719 242.296875 44.683594 241.785156 45.167969 240.695312 Z M 41.480469 241.691406 C 41.480469 240.03125 43.324219 237.78125 44.359375 237.78125 C 44.589844 237.78125 44.804688 237.808594 44.992188 237.863281 L 43.914062 240.734375 C 43.296875 241.488281 42.339844 242.40625 41.898438 242.40625 C 41.640625 242.40625 41.480469 242.1875 41.480469 241.691406 M 48.277344 237.5 L 49.515625 237.5 L 47.550781 242.875 C 47.375 243.335938 47.617188 243.792969 48.089844 243.792969 C 49.207031 243.792969 51.011719 242.6875 51.644531 241.179688 L 51.292969 241.179688 C 50.792969 241.703125 49.839844 242.40625 49.019531 242.550781 L 50.820312 237.5 L 52.667969 237.5 L 52.894531 236.730469 L 51.105469 236.730469 L 51.789062 234.789062 L 51.078125 234.789062 L 49.800781 236.730469 L 48.277344 236.945312 Z M 57.066406 241.191406 L 56.609375 241.191406 C 56.03125 241.878906 55.410156 242.417969 54.792969 242.417969 C 54.160156 242.417969 53.835938 242.039062 53.835938 241.191406 C 53.835938 240.839844 53.878906 240.492188 53.945312 240.167969 L 57.675781 238.941406 C 58.402344 237.214844 57.523438 236.460938 56.503906 236.460938 C 54.738281 236.460938 52.734375 239.414062 52.734375 242 C 52.734375 243.160156 53.285156 243.792969 54.148438 243.792969 C 55.15625 243.792969 56.207031 242.808594 57.066406 241.191406 M 55.789062 237.457031 C 56.289062 237.457031 56.71875 237.835938 56.488281 238.792969 L 54.171875 239.332031 C 54.578125 238.253906 55.25 237.457031 55.789062 237.457031 M 64.054688 238.105469 C 64.308594 237.230469 64.175781 236.460938 63.503906 236.460938 C 62.707031 236.460938 62.503906 237.066406 61.699219 238.804688 L 61.699219 237.808594 C 61.699219 237.09375 61.46875 236.460938 60.824219 236.460938 C 60.070312 236.460938 59.382812 237.632812 58.859375 238.792969 L 59.207031 238.792969 C 59.570312 238.265625 59.910156 237.957031 60.179688 237.957031 C 60.5 237.957031 60.675781 238.457031 60.179688 239.5625 L 58.722656 242.796875 C 58.453125 243.402344 58.738281 243.792969 59.328125 243.792969 C 59.691406 243.792969 59.855469 243.699219 60 243.308594 L 61.429688 239.519531 C 61.832031 239.019531 62.195312 238.589844 62.65625 238.105469 Z M 64.082031 242.796875 C 63.8125 243.402344 64.09375 243.792969 64.6875 243.792969 C 65.050781 243.792969 65.210938 243.699219 65.359375 243.308594 L 66.785156 239.519531 C 67.445312 238.710938 68.804688 237.847656 69.34375 237.847656 C 69.734375 237.847656 69.679688 238.171875 69.425781 238.65625 L 67.230469 242.875 C 67.015625 243.292969 67.296875 243.792969 67.769531 243.792969 C 68.847656 243.792969 70.125 242.820312 70.636719 241.460938 L 70.285156 241.460938 C 69.9375 241.960938 69.34375 242.511719 68.792969 242.605469 L 70.675781 238.792969 C 70.921875 238.308594 71.039062 237.847656 71.039062 237.484375 C 71.039062 236.867188 70.691406 236.460938 70.042969 236.460938 C 69.117188 236.460938 68.171875 237.511719 67.054688 238.804688 L 67.054688 237.808594 C 67.054688 237.09375 66.828125 236.460938 66.179688 236.460938 C 65.777344 236.460938 65.386719 236.8125 65.023438 237.308594 L 65.023438 237.445312 C 65.722656 237.40625 66.03125 238.457031 65.535156 239.5625 Z M 75.941406 234.546875 C 76.425781 234.546875 76.828125 234.15625 76.828125 233.660156 C 76.828125 233.171875 76.425781 232.769531 75.941406 232.769531 C 75.441406 232.769531 75.050781 233.171875 75.050781 233.660156 C 75.050781 234.15625 75.441406 234.546875 75.941406 234.546875 M 75.5625 237.242188 C 75.710938 236.742188 75.375 236.460938 75.121094 236.460938 C 74.042969 236.460938 72.765625 237.433594 72.253906 238.792969 L 72.601562 238.792969 C 72.953125 238.292969 73.542969 237.742188 74.097656 237.648438 L 72.035156 243.011719 C 71.847656 243.511719 72.226562 243.792969 72.480469 243.792969 C 73.503906 243.792969 74.703125 242.808594 75.214844 241.460938 L 74.863281 241.460938 C 74.511719 241.960938 73.921875 242.511719 73.371094 242.605469 Z M 77.234375 237.5 L 78.46875 237.5 L 76.503906 242.875 C 76.332031 243.335938 76.574219 243.792969 77.042969 243.792969 C 78.160156 243.792969 79.964844 242.6875 80.597656 241.179688 L 80.25 241.179688 C 79.75 241.703125 78.792969 242.40625 77.972656 242.550781 L 79.777344 237.5 L 81.621094 237.5 L 81.847656 236.730469 L 80.058594 236.730469 L 80.746094 234.789062 L 80.03125 234.789062 L 78.753906 236.730469 L 77.234375 236.945312 Z M 85.28125 235.773438 L 87.90625 233.320312 L 87.90625 233.039062 L 86.492188 233.039062 L 84.878906 235.773438 Z M 86.023438 241.191406 L 85.566406 241.191406 C 84.984375 241.878906 84.367188 242.417969 83.75 242.417969 C 83.113281 242.417969 82.792969 242.039062 82.792969 241.191406 C 82.792969 240.839844 82.832031 240.492188 82.898438 240.167969 L 86.628906 238.941406 C 87.355469 237.214844 86.480469 236.460938 85.457031 236.460938 C 83.695312 236.460938 81.6875 239.414062 81.6875 242 C 81.6875 243.160156 82.238281 243.792969 83.101562 243.792969 C 84.113281 243.792969 85.160156 242.808594 86.023438 241.191406 M 84.742188 237.457031 C 85.242188 237.457031 85.671875 237.835938 85.445312 238.792969 L 83.128906 239.332031 C 83.53125 238.253906 84.203125 237.457031 84.742188 237.457031 "/>
<path style=" stroke:none;fill-rule:nonzero;fill:rgb(1.568627%,2.352941%,2.352941%);fill-opacity:1;" d="M 32.957031 216.175781 L 35.585938 214.371094 L 35.585938 214.085938 L 33.996094 214.085938 L 32.542969 216.175781 Z M 31.882812 221.824219 C 32.769531 221.824219 32.785156 222.1875 32.648438 223.160156 L 33.160156 223.160156 L 34.34375 219.910156 L 33.835938 219.910156 C 33.390625 220.679688 33.039062 221.246094 32.070312 221.246094 L 30.117188 221.246094 L 31.101562 218.535156 C 31.425781 217.632812 31.613281 217.457031 32.824219 217.457031 L 33.6875 217.457031 C 34.9375 217.457031 35.085938 217.796875 35.085938 219.046875 L 35.585938 219.046875 L 36 216.835938 L 28.570312 216.835938 L 28.4375 217.253906 C 29.875 217.550781 30.011719 217.6875 29.335938 219.546875 L 27.722656 223.96875 C 27.050781 225.8125 26.765625 225.960938 25.109375 226.257812 L 24.988281 226.675781 L 33.253906 226.675781 L 34.734375 224.332031 L 34.171875 224.332031 C 33.226562 225.21875 32.042969 226.070312 30.386719 226.070312 C 28.195312 226.070312 28.394531 225.976562 29.125 223.96875 L 29.902344 221.824219 Z M 41.292969 227.59375 C 41.292969 226.730469 40.523438 226.417969 39.273438 226.042969 C 38.195312 225.71875 37.710938 225.625 37.710938 225.273438 C 37.710938 224.992188 37.941406 224.652344 38.398438 224.410156 C 40.160156 224.316406 41.304688 222.726562 41.304688 221.394531 C 41.304688 221.109375 41.25 220.867188 41.15625 220.652344 L 42.652344 220.652344 L 42.878906 219.882812 L 40.511719 219.882812 C 40.230469 219.707031 39.890625 219.613281 39.554688 219.613281 C 37.683594 219.613281 36.472656 221.257812 36.472656 222.59375 C 36.472656 223.605469 37.117188 224.238281 37.898438 224.382812 C 37.023438 224.777344 36.539062 225.234375 36.539062 225.773438 C 36.539062 226.082031 36.648438 226.300781 36.902344 226.5 C 34.882812 227.09375 34.089844 227.769531 34.089844 228.726562 C 34.089844 229.65625 35.316406 230.046875 36.769531 230.046875 C 39.234375 230.046875 41.292969 228.710938 41.292969 227.59375 M 38.371094 223.898438 C 37.925781 223.898438 37.75 223.523438 37.75 223.09375 C 37.75 221.890625 38.398438 220.125 39.40625 220.125 C 39.851562 220.125 40.027344 220.503906 40.027344 220.933594 C 40.027344 222.132812 39.378906 223.898438 38.371094 223.898438 M 35.585938 228.253906 C 35.585938 227.539062 36.269531 227.09375 37.253906 226.703125 C 37.574219 226.867188 38.0625 227.039062 38.707031 227.257812 C 39.730469 227.59375 40.121094 227.726562 40.121094 228.039062 C 40.121094 228.699219 39.003906 229.195312 37.480469 229.195312 C 36.203125 229.195312 35.585938 228.925781 35.585938 228.253906 M 49.289062 219.304688 L 48.722656 219.265625 L 48.089844 219.882812 L 47.953125 219.882812 C 44.886719 219.882812 42.234375 223.335938 42.234375 225.839844 C 42.234375 226.542969 42.664062 226.945312 43.335938 226.945312 C 44.132812 226.945312 44.914062 225.8125 45.789062 224.601562 L 45.746094 225.03125 C 45.640625 226.273438 46.015625 226.945312 46.664062 226.945312 C 47.417969 226.945312 48.105469 225.773438 48.628906 224.613281 L 48.277344 224.613281 C 47.914062 225.140625 47.578125 225.449219 47.308594 225.449219 C 47.027344 225.449219 46.824219 224.9375 47.308594 223.847656 Z M 43.621094 224.84375 C 43.621094 223.183594 45.464844 220.933594 46.5 220.933594 C 46.730469 220.933594 46.945312 220.960938 47.132812 221.015625 L 46.058594 223.886719 C 45.4375 224.640625 44.480469 225.558594 44.039062 225.558594 C 43.78125 225.558594 43.621094 225.34375 43.621094 224.84375 M 50.753906 225.761719 L 54.511719 215.90625 L 54.390625 215.761719 L 52.035156 216.03125 L 52.035156 216.3125 L 52.492188 216.664062 C 52.90625 216.984375 52.773438 217.296875 52.398438 218.292969 L 49.460938 226.03125 C 49.246094 226.445312 49.53125 226.945312 50 226.945312 C 51.078125 226.945312 52.222656 225.976562 52.734375 224.613281 L 52.382812 224.613281 C 52.035156 225.113281 51.308594 225.664062 50.753906 225.761719 M 57.914062 217.699219 C 58.402344 217.699219 58.804688 217.308594 58.804688 216.808594 C 58.804688 216.324219 58.402344 215.921875 57.914062 215.921875 C 57.417969 215.921875 57.027344 216.324219 57.027344 216.808594 C 57.027344 217.308594 57.417969 217.699219 57.914062 217.699219 M 57.539062 220.394531 C 57.6875 219.898438 57.351562 219.613281 57.09375 219.613281 C 56.019531 219.613281 54.738281 220.585938 54.226562 221.945312 L 54.578125 221.945312 C 54.925781 221.445312 55.519531 220.894531 56.070312 220.800781 L 54.011719 226.164062 C 53.824219 226.664062 54.199219 226.945312 54.457031 226.945312 C 55.480469 226.945312 56.679688 225.960938 57.1875 224.613281 L 56.839844 224.613281 C 56.488281 225.113281 55.898438 225.664062 55.34375 225.761719 Z M 59.207031 220.652344 L 60.445312 220.652344 L 58.480469 226.03125 C 58.304688 226.488281 58.546875 226.945312 59.019531 226.945312 C 60.136719 226.945312 61.941406 225.839844 62.574219 224.332031 L 62.222656 224.332031 C 61.726562 224.855469 60.769531 225.558594 59.949219 225.707031 L 61.753906 220.652344 L 63.597656 220.652344 L 63.824219 219.882812 L 62.035156 219.882812 L 62.722656 217.941406 L 62.007812 217.941406 L 60.730469 219.882812 L 59.207031 220.097656 Z M 67.257812 218.925781 L 69.882812 216.472656 L 69.882812 216.191406 L 68.46875 216.191406 L 66.855469 218.925781 Z M 68 224.34375 L 67.539062 224.34375 C 66.960938 225.03125 66.34375 225.570312 65.722656 225.570312 C 65.089844 225.570312 64.769531 225.195312 64.769531 224.34375 C 64.769531 223.996094 64.808594 223.644531 64.875 223.320312 L 68.605469 222.09375 C 69.332031 220.367188 68.457031 219.613281 67.433594 219.613281 C 65.667969 219.613281 63.664062 222.566406 63.664062 225.152344 C 63.664062 226.3125 64.214844 226.945312 65.078125 226.945312 C 66.085938 226.945312 67.136719 225.960938 68 224.34375 M 66.71875 220.609375 C 67.21875 220.609375 67.648438 220.988281 67.417969 221.945312 L 65.105469 222.484375 C 65.507812 221.40625 66.179688 220.609375 66.71875 220.609375 "/>
<path style=" stroke:none;fill-rule:nonzero;fill:rgb(1.568627%,2.352941%,2.352941%);fill-opacity:1;" d="M 33.445312 199.992188 L 28.542969 199.992188 L 28.410156 200.40625 C 29.851562 200.703125 29.984375 200.839844 29.308594 202.699219 L 27.722656 207.121094 C 27.050781 208.96875 26.765625 209.113281 25.109375 209.410156 L 24.988281 209.828125 L 32.449219 209.828125 L 34.0625 206.945312 L 33.496094 206.945312 C 32.582031 207.957031 31.503906 209.222656 29.851562 209.222656 C 28.597656 209.222656 28.449219 209.007812 29.125 207.121094 L 30.710938 202.699219 C 31.371094 200.855469 31.667969 200.703125 33.324219 200.40625 Z M 38.867188 200.855469 C 39.351562 200.855469 39.757812 200.460938 39.757812 199.964844 C 39.757812 199.476562 39.351562 199.074219 38.867188 199.074219 C 38.371094 199.074219 37.980469 199.476562 37.980469 199.964844 C 37.980469 200.460938 38.371094 200.855469 38.867188 200.855469 M 38.492188 203.546875 C 38.640625 203.050781 38.304688 202.765625 38.046875 202.765625 C 36.972656 202.765625 35.691406 203.738281 35.179688 205.097656 L 35.53125 205.097656 C 35.878906 204.601562 36.472656 204.046875 37.023438 203.953125 L 34.964844 209.316406 C 34.777344 209.816406 35.152344 210.097656 35.410156 210.097656 C 36.429688 210.097656 37.628906 209.113281 38.140625 207.765625 L 37.792969 207.765625 C 37.441406 208.265625 36.847656 208.820312 36.296875 208.914062 Z M 45.8125 204.261719 C 45.8125 203.171875 45.410156 202.765625 44.65625 202.765625 C 43.714844 202.765625 42.824219 203.765625 41.9375 204.976562 L 44.183594 199.0625 L 44.066406 198.910156 L 41.707031 199.183594 L 41.707031 199.464844 L 42.167969 199.816406 C 42.582031 200.136719 42.449219 200.476562 42.074219 201.445312 L 39.648438 207.699219 C 39.472656 208.15625 39.257812 208.699219 39.257812 208.84375 C 39.257812 209.492188 40.132812 210.097656 40.929688 210.097656 C 42.757812 210.097656 45.8125 206.796875 45.8125 204.261719 M 41.574219 209.007812 C 41.210938 209.007812 40.6875 208.671875 40.6875 208.375 C 40.6875 208.277344 40.847656 207.863281 41.050781 207.335938 L 41.65625 205.730469 C 42.300781 204.964844 43.285156 204.140625 43.835938 204.140625 C 44.171875 204.140625 44.429688 204.359375 44.429688 204.855469 C 44.429688 206.324219 43.054688 209.007812 41.574219 209.007812 M 50.714844 207.496094 L 50.257812 207.496094 C 49.675781 208.183594 49.058594 208.726562 48.441406 208.726562 C 47.804688 208.726562 47.484375 208.347656 47.484375 207.496094 C 47.484375 207.148438 47.523438 206.796875 47.589844 206.472656 L 51.320312 205.246094 C 52.046875 203.523438 51.171875 202.765625 50.148438 202.765625 C 48.386719 202.765625 46.378906 205.71875 46.378906 208.304688 C 46.378906 209.464844 46.933594 210.097656 47.792969 210.097656 C 48.804688 210.097656 49.851562 209.113281 50.714844 207.496094 M 49.4375 203.765625 C 49.933594 203.765625 50.363281 204.140625 50.136719 205.097656 L 47.820312 205.636719 C 48.222656 204.558594 48.894531 203.765625 49.4375 203.765625 M 57.699219 204.410156 C 57.957031 203.535156 57.820312 202.765625 57.148438 202.765625 C 56.355469 202.765625 56.152344 203.375 55.34375 205.113281 L 55.34375 204.113281 C 55.34375 203.402344 55.117188 202.765625 54.46875 202.765625 C 53.714844 202.765625 53.03125 203.9375 52.503906 205.097656 L 52.855469 205.097656 C 53.21875 204.574219 53.554688 204.261719 53.824219 204.261719 C 54.148438 204.261719 54.320312 204.761719 53.824219 205.867188 L 52.371094 209.101562 C 52.101562 209.707031 52.382812 210.097656 52.976562 210.097656 C 53.339844 210.097656 53.5 210.003906 53.648438 209.613281 L 55.074219 205.828125 C 55.480469 205.328125 55.84375 204.898438 56.300781 204.410156 Z M 58.667969 203.804688 L 59.652344 203.804688 L 57.6875 209.183594 C 57.511719 209.640625 57.753906 210.097656 58.226562 210.097656 C 59.34375 210.097656 61.144531 208.992188 61.777344 207.484375 L 61.429688 207.484375 C 60.933594 208.007812 59.976562 208.710938 59.152344 208.859375 L 60.957031 203.804688 L 62.800781 203.804688 L 63.03125 203.035156 L 61.242188 203.035156 L 61.925781 201.097656 L 61.214844 201.097656 L 59.933594 203.035156 L 58.667969 203.253906 Z M 66.382812 202.078125 L 69.007812 199.628906 L 69.007812 199.34375 L 67.59375 199.34375 L 65.980469 202.078125 Z M 67.121094 207.496094 L 66.664062 207.496094 C 66.085938 208.183594 65.46875 208.726562 64.847656 208.726562 C 64.214844 208.726562 63.890625 208.347656 63.890625 207.496094 C 63.890625 207.148438 63.933594 206.796875 64 206.472656 L 67.730469 205.246094 C 68.457031 203.523438 67.582031 202.765625 66.558594 202.765625 C 64.792969 202.765625 62.789062 205.71875 62.789062 208.304688 C 62.789062 209.464844 63.339844 210.097656 64.203125 210.097656 C 65.210938 210.097656 66.261719 209.113281 67.121094 207.496094 M 65.84375 203.765625 C 66.34375 203.765625 66.773438 204.140625 66.542969 205.097656 L 64.226562 205.636719 C 64.632812 204.558594 65.304688 203.765625 65.84375 203.765625 "/>
<path style=" stroke:none;fill-rule:nonzero;fill:rgb(0%,0%,0%);fill-opacity:1;" d="M 28.871094 79.800781 L 25.15625 79.800781 L 25.15625 61.464844 L 29.789062 61.464844 L 34.261719 69.164062 L 38.734375 61.464844 L 43.367188 61.464844 L 43.367188 79.800781 L 39.652344 79.800781 L 39.652344 66.648438 L 35.570312 73.511719 L 32.953125 73.511719 L 28.871094 66.648438 L 28.871094 79.800781 "/>
<path style=" stroke:none;fill-rule:nonzero;fill:rgb(0%,0%,0%);fill-opacity:1;" d="M 52.207031 79.800781 L 48.492188 79.800781 L 48.492188 61.464844 L 52.207031 61.464844 L 52.207031 79.800781 "/>
<path style=" stroke:none;fill-rule:nonzero;fill:rgb(0%,0%,0%);fill-opacity:1;" d="M 61.078125 79.800781 L 57.363281 79.800781 L 57.363281 61.464844 L 62.125 61.464844 L 70.3125 74.71875 L 70.3125 61.464844 L 74.027344 61.464844 L 74.027344 79.800781 L 69.265625 79.800781 L 61.078125 66.542969 L 61.078125 79.800781 "/>
<path style=" stroke:none;fill-rule:nonzero;fill:rgb(0%,0%,0%);fill-opacity:1;" d="M 82.898438 79.800781 L 79.183594 79.800781 L 79.183594 61.464844 L 82.898438 61.464844 L 82.898438 79.800781 "/>
<path style=" stroke:none;fill-rule:nonzero;fill:rgb(0%,0%,0%);fill-opacity:1;" d="M 93.179688 80.320312 C 91.746094 80.320312 90.480469 80.074219 89.371094 79.578125 C 88.265625 79.078125 87.273438 78.304688 86.402344 77.257812 L 89.097656 74.769531 C 89.65625 75.484375 90.289062 76.039062 90.992188 76.433594 C 91.699219 76.824219 92.421875 77.023438 93.152344 77.023438 C 93.886719 77.023438 94.460938 76.835938 94.878906 76.457031 C 95.296875 76.082031 95.507812 75.574219 95.507812 74.925781 C 95.507812 74.421875 95.3125 73.96875 94.917969 73.5625 C 94.527344 73.164062 93.648438 72.664062 92.289062 72.070312 C 91.242188 71.617188 90.476562 71.242188 89.988281 70.945312 C 89.5 70.648438 89.082031 70.335938 88.730469 70.003906 C 88.207031 69.511719 87.820312 68.957031 87.566406 68.339844 C 87.3125 67.71875 87.1875 67.023438 87.1875 66.257812 C 87.1875 64.753906 87.75 63.492188 88.875 62.472656 C 90 61.449219 91.410156 60.9375 93.101562 60.9375 C 94.355469 60.9375 95.519531 61.195312 96.59375 61.710938 C 97.667969 62.226562 98.636719 63 99.511719 64.027344 L 96.789062 66.492188 C 96.195312 65.722656 95.59375 65.148438 94.984375 64.761719 C 94.375 64.378906 93.753906 64.1875 93.125 64.1875 C 92.480469 64.1875 91.957031 64.371094 91.558594 64.738281 C 91.15625 65.101562 90.957031 65.566406 90.957031 66.125 C 90.957031 66.632812 91.152344 67.078125 91.542969 67.460938 C 91.9375 67.84375 92.804688 68.335938 94.148438 68.929688 C 95.191406 69.382812 95.964844 69.757812 96.460938 70.054688 C 96.960938 70.351562 97.382812 70.667969 97.730469 70.996094 C 98.253906 71.503906 98.640625 72.070312 98.894531 72.699219 C 99.148438 73.328125 99.277344 74.027344 99.277344 74.796875 C 99.257812 76.453125 98.683594 77.789062 97.546875 78.804688 C 96.414062 79.816406 94.957031 80.320312 93.179688 80.320312 "/>
<path style=" stroke:none;fill-rule:nonzero;fill:rgb(0%,0%,0%);fill-opacity:1;" d="M 106.835938 79.800781 L 106.835938 64.84375 L 101.183594 64.84375 L 101.183594 61.464844 L 116.203125 61.464844 L 116.203125 64.84375 L 110.550781 64.84375 L 110.550781 79.800781 L 106.835938 79.800781 "/>
<path style=" stroke:none;fill-rule:nonzero;fill:rgb(0%,0%,0%);fill-opacity:1;" d="M 126.589844 59.890625 L 123.1875 59.890625 L 119.8125 56.355469 L 123.632812 56.355469 Z M 119.5 79.800781 L 119.5 61.464844 L 130.171875 61.464844 L 130.171875 64.554688 L 123.214844 64.554688 L 123.214844 68.902344 L 129.125 68.902344 L 129.125 71.992188 L 123.214844 71.992188 L 123.214844 76.707031 L 130.171875 76.707031 L 130.171875 79.800781 L 119.5 79.800781 "/>
<path style=" stroke:none;fill-rule:nonzero;fill:rgb(0%,0%,0%);fill-opacity:1;" d="M 142.808594 66.886719 C 142.808594 66.167969 142.585938 65.601562 142.144531 65.183594 C 141.699219 64.761719 141.089844 64.554688 140.324219 64.554688 L 138.230469 64.554688 L 138.230469 69.296875 L 140.324219 69.296875 C 141.109375 69.296875 141.71875 69.082031 142.15625 68.652344 C 142.589844 68.226562 142.808594 67.636719 142.808594 66.886719 Z M 138.230469 79.800781 L 134.515625 79.800781 L 134.515625 61.464844 L 140.113281 61.464844 C 142.136719 61.464844 143.730469 61.953125 144.890625 62.929688 C 146.050781 63.90625 146.628906 65.242188 146.628906 66.9375 C 146.628906 68.054688 146.371094 69.019531 145.859375 69.832031 C 145.34375 70.644531 144.617188 71.269531 143.671875 71.703125 L 149.402344 79.800781 L 145.03125 79.800781 L 140.140625 72.386719 L 138.230469 72.386719 L 138.230469 79.800781 "/>
<path style=" stroke:none;fill-rule:nonzero;fill:rgb(0%,0%,0%);fill-opacity:1;" d="M 151.785156 79.800781 L 151.785156 61.464844 L 162.457031 61.464844 L 162.457031 64.554688 L 155.5 64.554688 L 155.5 68.902344 L 161.410156 68.902344 L 161.410156 71.992188 L 155.5 71.992188 L 155.5 76.707031 L 162.457031 76.707031 L 162.457031 79.800781 L 151.785156 79.800781 "/>
<path style=" stroke:none;fill-rule:nonzero;fill:rgb(0%,0%,0%);fill-opacity:1;" d="M 32.402344 91.617188 L 28.871094 91.617188 L 28.871094 103.195312 L 32.402344 103.195312 C 34.078125 103.195312 35.472656 102.640625 36.589844 101.53125 C 37.707031 100.425781 38.265625 99.050781 38.265625 97.40625 C 38.265625 95.75 37.710938 94.367188 36.601562 93.269531 C 35.496094 92.167969 34.09375 91.617188 32.402344 91.617188 Z M 42.085938 97.40625 C 42.085938 99.992188 41.160156 102.164062 39.3125 103.929688 C 37.460938 105.695312 35.144531 106.574219 32.351562 106.574219 L 25.15625 106.574219 L 25.15625 88.238281 L 32.351562 88.238281 C 35.144531 88.238281 37.460938 89.121094 39.3125 90.886719 C 41.160156 92.648438 42.085938 94.824219 42.085938 97.40625 "/>
<path style=" stroke:none;fill-rule:nonzero;fill:rgb(0%,0%,0%);fill-opacity:1;" d="M 45.695312 106.574219 L 45.695312 88.238281 L 56.371094 88.238281 L 56.371094 91.328125 L 49.410156 91.328125 L 49.410156 95.679688 L 55.324219 95.679688 L 55.324219 98.769531 L 49.410156 98.769531 L 49.410156 103.484375 L 56.371094 103.484375 L 56.371094 106.574219 L 45.695312 106.574219 "/>
<path style=" stroke:none;fill-rule:nonzero;fill:rgb(0%,0%,0%);fill-opacity:1;" d="M 65.839844 107.097656 C 64.410156 107.097656 63.140625 106.851562 62.035156 106.351562 C 60.925781 105.855469 59.9375 105.082031 59.0625 104.035156 L 61.757812 101.546875 C 62.316406 102.261719 62.949219 102.816406 63.65625 103.210938 C 64.359375 103.601562 65.082031 103.796875 65.8125 103.796875 C 66.546875 103.796875 67.121094 103.609375 67.539062 103.234375 C 67.957031 102.859375 68.167969 102.351562 68.167969 101.703125 C 68.167969 101.195312 67.972656 100.742188 67.578125 100.339844 C 67.1875 99.941406 66.308594 99.441406 64.949219 98.847656 C 63.902344 98.394531 63.136719 98.019531 62.648438 97.722656 C 62.160156 97.425781 61.742188 97.109375 61.390625 96.777344 C 60.867188 96.289062 60.480469 95.734375 60.226562 95.117188 C 59.972656 94.496094 59.847656 93.800781 59.847656 93.03125 C 59.847656 91.53125 60.410156 90.269531 61.535156 89.25 C 62.660156 88.226562 64.070312 87.714844 65.761719 87.714844 C 67.015625 87.714844 68.179688 87.972656 69.253906 88.488281 C 70.324219 89.003906 71.296875 89.777344 72.171875 90.804688 L 69.449219 93.269531 C 68.855469 92.5 68.253906 91.925781 67.644531 91.539062 C 67.035156 91.15625 66.414062 90.964844 65.789062 90.964844 C 65.140625 90.964844 64.617188 91.148438 64.21875 91.515625 C 63.816406 91.878906 63.617188 92.34375 63.617188 92.902344 C 63.617188 93.40625 63.8125 93.855469 64.203125 94.238281 C 64.597656 94.621094 65.464844 95.109375 66.808594 95.703125 C 67.855469 96.160156 68.625 96.535156 69.121094 96.832031 C 69.621094 97.128906 70.042969 97.441406 70.390625 97.773438 C 70.914062 98.28125 71.300781 98.847656 71.554688 99.476562 C 71.808594 100.105469 71.933594 100.804688 71.933594 101.574219 C 71.917969 103.230469 71.34375 104.566406 70.210938 105.578125 C 69.074219 106.59375 67.617188 107.097656 65.839844 107.097656 "/>
<path style=" stroke:none;fill-rule:nonzero;fill:rgb(0%,0%,0%);fill-opacity:1;" d="M 87.816406 107.097656 C 86.386719 107.097656 85.117188 106.851562 84.007812 106.351562 C 82.902344 105.855469 81.910156 105.082031 81.039062 104.035156 L 83.734375 101.546875 C 84.292969 102.261719 84.925781 102.816406 85.632812 103.210938 C 86.339844 103.601562 87.058594 103.796875 87.789062 103.796875 C 88.523438 103.796875 89.097656 103.609375 89.515625 103.234375 C 89.9375 102.859375 90.144531 102.351562 90.144531 101.703125 C 90.144531 101.195312 89.949219 100.742188 89.554688 100.339844 C 89.164062 99.941406 88.285156 99.441406 86.925781 98.847656 C 85.878906 98.394531 85.113281 98.019531 84.625 97.722656 C 84.136719 97.425781 83.714844 97.109375 83.367188 96.777344 C 82.84375 96.289062 82.457031 95.734375 82.203125 95.117188 C 81.949219 94.496094 81.824219 93.800781 81.824219 93.03125 C 81.824219 91.53125 82.386719 90.269531 83.511719 89.25 C 84.636719 88.226562 86.046875 87.714844 87.738281 87.714844 C 88.992188 87.714844 90.15625 87.972656 91.230469 88.488281 C 92.300781 89.003906 93.273438 89.777344 94.148438 90.804688 L 91.425781 93.269531 C 90.832031 92.5 90.230469 91.925781 89.621094 91.539062 C 89.011719 91.15625 88.390625 90.964844 87.761719 90.964844 C 87.117188 90.964844 86.59375 91.148438 86.195312 91.515625 C 85.792969 91.878906 85.59375 92.34375 85.59375 92.902344 C 85.59375 93.40625 85.789062 93.855469 86.179688 94.238281 C 86.574219 94.621094 87.441406 95.109375 88.785156 95.703125 C 89.832031 96.160156 90.601562 96.535156 91.101562 96.832031 C 91.597656 97.128906 92.019531 97.441406 92.367188 97.773438 C 92.890625 98.28125 93.28125 98.847656 93.53125 99.476562 C 93.785156 100.105469 93.914062 100.804688 93.914062 101.574219 C 93.894531 103.230469 93.320312 104.566406 92.183594 105.578125 C 91.050781 106.59375 89.59375 107.097656 87.816406 107.097656 "/>
<path style=" stroke:none;fill-rule:nonzero;fill:rgb(0%,0%,0%);fill-opacity:1;" d="M 99.851562 97.40625 C 99.851562 99.1875 100.410156 100.667969 101.523438 101.847656 C 102.640625 103.027344 104.054688 103.617188 105.765625 103.617188 C 107.453125 103.617188 108.859375 103.027344 109.976562 101.847656 C 111.09375 100.667969 111.652344 99.1875 111.652344 97.40625 C 111.652344 95.625 111.09375 94.144531 109.976562 92.96875 C 108.859375 91.789062 107.453125 91.199219 105.765625 91.199219 C 104.054688 91.199219 102.640625 91.789062 101.523438 92.96875 C 100.410156 94.144531 99.851562 95.625 99.851562 97.40625 Z M 96.03125 97.40625 C 96.03125 94.683594 96.957031 92.386719 98.804688 90.519531 C 100.652344 88.648438 102.972656 87.714844 105.765625 87.714844 C 108.535156 87.714844 110.847656 88.648438 112.699219 90.519531 C 114.546875 92.386719 115.46875 94.683594 115.46875 97.40625 C 115.46875 100.132812 114.546875 102.429688 112.699219 104.296875 C 110.847656 106.164062 108.535156 107.097656 105.765625 107.097656 C 102.972656 107.097656 100.652344 106.164062 98.804688 104.296875 C 96.957031 102.429688 96.03125 100.132812 96.03125 97.40625 "/>
<path style=" stroke:none;fill-rule:nonzero;fill:rgb(0%,0%,0%);fill-opacity:1;" d="M 129.730469 103.195312 L 129.730469 106.574219 L 119.054688 106.574219 L 119.054688 88.238281 L 122.769531 88.238281 L 122.769531 103.195312 L 129.730469 103.195312 "/>
<path style=" stroke:none;fill-rule:nonzero;fill:rgb(0%,0%,0%);fill-opacity:1;" d="M 136.742188 106.574219 L 133.023438 106.574219 L 133.023438 88.238281 L 136.742188 88.238281 L 136.742188 106.574219 "/>
<path style=" stroke:none;fill-rule:nonzero;fill:rgb(0%,0%,0%);fill-opacity:1;" d="M 149.140625 91.617188 L 145.609375 91.617188 L 145.609375 103.195312 L 149.140625 103.195312 C 150.816406 103.195312 152.210938 102.640625 153.328125 101.53125 C 154.441406 100.425781 155.003906 99.050781 155.003906 97.40625 C 155.003906 95.75 154.449219 94.367188 153.339844 93.269531 C 152.234375 92.167969 150.832031 91.617188 149.140625 91.617188 Z M 158.820312 97.40625 C 158.820312 99.992188 157.898438 102.164062 156.050781 103.929688 C 154.199219 105.695312 151.878906 106.574219 149.089844 106.574219 L 141.894531 106.574219 L 141.894531 88.238281 L 149.089844 88.238281 C 151.878906 88.238281 154.199219 89.121094 156.050781 90.886719 C 157.898438 92.648438 158.820312 94.824219 158.820312 97.40625 "/>
<path style=" stroke:none;fill-rule:nonzero;fill:rgb(0%,0%,0%);fill-opacity:1;" d="M 166.566406 98.636719 L 171.589844 98.636719 L 169.078125 91.75 Z M 163.660156 106.574219 L 159.710938 106.574219 L 166.644531 88.238281 L 171.511719 88.238281 L 178.445312 106.574219 L 174.492188 106.574219 L 172.742188 101.808594 L 165.414062 101.808594 L 163.660156 106.574219 "/>
<path style=" stroke:none;fill-rule:nonzero;fill:rgb(0%,0%,0%);fill-opacity:1;" d="M 189.589844 93.660156 C 189.589844 92.945312 189.367188 92.378906 188.921875 91.957031 C 188.476562 91.539062 187.871094 91.328125 187.105469 91.328125 L 185.011719 91.328125 L 185.011719 96.070312 L 187.105469 96.070312 C 187.886719 96.070312 188.5 95.859375 188.933594 95.429688 C 189.371094 95.003906 189.589844 94.414062 189.589844 93.660156 Z M 185.011719 106.574219 L 181.296875 106.574219 L 181.296875 88.238281 L 186.894531 88.238281 C 188.917969 88.238281 190.507812 88.730469 191.667969 89.707031 C 192.828125 90.683594 193.410156 92.019531 193.410156 93.714844 C 193.410156 94.832031 193.152344 95.796875 192.636719 96.609375 C 192.121094 97.421875 191.394531 98.042969 190.453125 98.480469 L 196.179688 106.574219 L 191.8125 106.574219 L 186.917969 99.160156 L 185.011719 99.160156 L 185.011719 106.574219 "/>
<path style=" stroke:none;fill-rule:nonzero;fill:rgb(0%,0%,0%);fill-opacity:1;" d="M 202.277344 106.574219 L 198.5625 106.574219 L 198.5625 88.238281 L 202.277344 88.238281 L 202.277344 106.574219 "/>
<path style=" stroke:none;fill-rule:nonzero;fill:rgb(0%,0%,0%);fill-opacity:1;" d="M 211.199219 106.574219 L 211.199219 91.617188 L 205.546875 91.617188 L 205.546875 88.238281 L 220.566406 88.238281 L 220.566406 91.617188 L 214.914062 91.617188 L 214.914062 106.574219 L 211.199219 106.574219 "/>
<path style=" stroke:none;fill-rule:nonzero;fill:rgb(0%,0%,0%);fill-opacity:1;" d="M 234.246094 83.132812 L 230.847656 86.667969 L 227.472656 86.667969 L 230.429688 83.132812 Z M 223.859375 106.574219 L 223.859375 88.238281 L 234.535156 88.238281 L 234.535156 91.328125 L 227.578125 91.328125 L 227.578125 95.679688 L 233.488281 95.679688 L 233.488281 98.769531 L 227.578125 98.769531 L 227.578125 103.484375 L 234.535156 103.484375 L 234.535156 106.574219 L 223.859375 106.574219 "/>
<path style=" stroke:none;fill-rule:nonzero;fill:rgb(0%,0%,0%);fill-opacity:1;" d="M 244.007812 107.097656 C 242.574219 107.097656 241.308594 106.851562 240.199219 106.351562 C 239.09375 105.855469 238.101562 105.082031 237.230469 104.035156 L 239.925781 101.546875 C 240.484375 102.261719 241.117188 102.816406 241.820312 103.210938 C 242.527344 103.601562 243.25 103.796875 243.980469 103.796875 C 244.714844 103.796875 245.289062 103.609375 245.707031 103.234375 C 246.125 102.859375 246.335938 102.351562 246.335938 101.703125 C 246.335938 101.195312 246.140625 100.742188 245.746094 100.339844 C 245.355469 99.941406 244.476562 99.441406 243.117188 98.847656 C 242.070312 98.394531 241.304688 98.019531 240.816406 97.722656 C 240.328125 97.425781 239.90625 97.109375 239.558594 96.777344 C 239.035156 96.289062 238.648438 95.734375 238.394531 95.117188 C 238.140625 94.496094 238.015625 93.800781 238.015625 93.03125 C 238.015625 91.53125 238.578125 90.269531 239.703125 89.25 C 240.828125 88.226562 242.238281 87.714844 243.929688 87.714844 C 245.183594 87.714844 246.347656 87.972656 247.421875 88.488281 C 248.492188 89.003906 249.464844 89.777344 250.335938 90.804688 L 247.617188 93.269531 C 247.023438 92.5 246.421875 91.925781 245.8125 91.539062 C 245.203125 91.15625 244.582031 90.964844 243.953125 90.964844 C 243.308594 90.964844 242.785156 91.148438 242.386719 91.515625 C 241.984375 91.878906 241.78125 92.34375 241.78125 92.902344 C 241.78125 93.40625 241.980469 93.855469 242.371094 94.238281 C 242.761719 94.621094 243.632812 95.109375 244.976562 95.703125 C 246.019531 96.160156 246.792969 96.535156 247.289062 96.832031 C 247.785156 97.128906 248.210938 97.441406 248.558594 97.773438 C 249.082031 98.28125 249.46875 98.847656 249.722656 99.476562 C 249.976562 100.105469 250.101562 100.804688 250.101562 101.574219 C 250.085938 103.230469 249.507812 104.566406 248.375 105.578125 C 247.242188 106.59375 245.785156 107.097656 244.007812 107.097656 "/>
<path style=" stroke:none;fill-rule:nonzero;fill:rgb(0%,0%,0%);fill-opacity:1;" d="M 257.480469 102.933594 L 254.445312 110.765625 L 251.359375 110.765625 L 253.738281 102.933594 L 257.480469 102.933594 "/>
<path style=" stroke:none;fill-rule:nonzero;fill:rgb(0%,0%,0%);fill-opacity:1;" d="M 32.402344 118.394531 L 28.871094 118.394531 L 28.871094 129.972656 L 32.402344 129.972656 C 34.078125 129.972656 35.472656 129.417969 36.589844 128.308594 C 37.707031 127.199219 38.265625 125.824219 38.265625 124.183594 C 38.265625 122.527344 37.710938 121.144531 36.601562 120.046875 C 35.496094 118.945312 34.09375 118.394531 32.402344 118.394531 Z M 42.085938 124.183594 C 42.085938 126.769531 41.160156 128.941406 39.3125 130.707031 C 37.460938 132.46875 35.144531 133.351562 32.351562 133.351562 L 25.15625 133.351562 L 25.15625 115.015625 L 32.351562 115.015625 C 35.144531 115.015625 37.460938 115.898438 39.3125 117.660156 C 41.160156 119.425781 42.085938 121.601562 42.085938 124.183594 "/>
<path style=" stroke:none;fill-rule:nonzero;fill:rgb(0%,0%,0%);fill-opacity:1;" d="M 45.695312 133.351562 L 45.695312 115.015625 L 56.371094 115.015625 L 56.371094 118.109375 L 49.410156 118.109375 L 49.410156 122.457031 L 55.324219 122.457031 L 55.324219 125.546875 L 49.410156 125.546875 L 49.410156 130.261719 L 56.371094 130.261719 L 56.371094 133.351562 L 45.695312 133.351562 "/>
<path style=" stroke:none;fill-rule:nonzero;fill:rgb(0%,0%,0%);fill-opacity:1;" d="M 78.214844 129.972656 L 78.214844 133.351562 L 67.539062 133.351562 L 67.539062 115.015625 L 71.253906 115.015625 L 71.253906 129.972656 L 78.214844 129.972656 "/>
<path style=" stroke:none;fill-rule:nonzero;fill:rgb(0%,0%,0%);fill-opacity:1;" d="M 83.578125 115.015625 L 80.542969 122.558594 L 77.453125 122.558594 L 79.808594 115.015625 L 83.578125 115.015625 "/>
<path style=" stroke:none;fill-rule:nonzero;fill:rgb(0%,0%,0%);fill-opacity:1;" d="M 88.96875 125.414062 L 93.992188 125.414062 L 91.480469 118.527344 Z M 86.0625 133.351562 L 82.113281 133.351562 L 89.046875 115.015625 L 93.914062 115.015625 L 100.84375 133.351562 L 96.894531 133.351562 L 95.140625 128.585938 L 87.816406 128.585938 L 86.0625 133.351562 "/>
<path style=" stroke:none;fill-rule:nonzero;fill:rgb(0%,0%,0%);fill-opacity:1;" d="M 110.082031 130.390625 C 111.230469 130.390625 112.132812 130.046875 112.789062 129.359375 C 113.441406 128.667969 113.769531 127.710938 113.769531 126.488281 L 113.769531 115.015625 L 117.484375 115.015625 L 117.484375 126.175781 C 117.484375 128.566406 116.828125 130.449219 115.507812 131.820312 C 114.191406 133.191406 112.375 133.875 110.054688 133.875 C 107.753906 133.875 105.941406 133.191406 104.625 131.820312 C 103.308594 130.449219 102.648438 128.566406 102.648438 126.175781 L 102.648438 115.015625 L 106.367188 115.015625 L 106.367188 126.488281 C 106.367188 127.710938 106.691406 128.667969 107.347656 129.359375 C 108 130.046875 108.910156 130.390625 110.082031 130.390625 "/>
<path style=" stroke:none;fill-rule:nonzero;fill:rgb(0%,0%,0%);fill-opacity:1;" d="M 126.09375 133.351562 L 126.09375 118.394531 L 120.441406 118.394531 L 120.441406 115.015625 L 135.457031 115.015625 L 135.457031 118.394531 L 129.808594 118.394531 L 129.808594 133.351562 L 126.09375 133.351562 "/>
<path style=" stroke:none;fill-rule:nonzero;fill:rgb(0%,0%,0%);fill-opacity:1;" d="M 140.167969 124.183594 C 140.167969 125.964844 140.726562 127.445312 141.84375 128.625 C 142.957031 129.804688 144.371094 130.390625 146.082031 130.390625 C 147.773438 130.390625 149.175781 129.804688 150.292969 128.625 C 151.40625 127.445312 151.964844 125.964844 151.964844 124.183594 C 151.964844 122.402344 151.40625 120.921875 150.292969 119.746094 C 149.175781 118.566406 147.773438 117.976562 146.082031 117.976562 C 144.371094 117.976562 142.957031 118.566406 141.84375 119.746094 C 140.726562 120.921875 140.167969 122.402344 140.167969 124.183594 Z M 136.347656 124.183594 C 136.347656 121.460938 137.273438 119.164062 139.121094 117.292969 C 140.96875 115.425781 143.289062 114.492188 146.082031 114.492188 C 148.851562 114.492188 151.164062 115.425781 153.015625 117.292969 C 154.863281 119.164062 155.785156 121.460938 155.785156 124.183594 C 155.785156 126.910156 154.863281 129.207031 153.015625 131.074219 C 151.164062 132.941406 148.851562 133.875 146.082031 133.875 C 143.289062 133.875 140.96875 132.941406 139.121094 131.074219 C 137.273438 129.207031 136.347656 126.910156 136.347656 124.183594 "/>
<path style=" stroke:none;fill-rule:nonzero;fill:rgb(0%,0%,0%);fill-opacity:1;" d="M 163.085938 133.351562 L 159.371094 133.351562 L 159.371094 115.015625 L 164.132812 115.015625 L 172.320312 128.269531 L 172.320312 115.015625 L 176.035156 115.015625 L 176.035156 133.351562 L 171.273438 133.351562 L 163.085938 120.097656 L 163.085938 133.351562 "/>
<path style=" stroke:none;fill-rule:nonzero;fill:rgb(0%,0%,0%);fill-opacity:1;" d="M 183.4375 124.183594 C 183.4375 125.964844 183.996094 127.445312 185.113281 128.625 C 186.230469 129.804688 187.644531 130.390625 189.351562 130.390625 C 191.042969 130.390625 192.449219 129.804688 193.566406 128.625 C 194.679688 127.445312 195.238281 125.964844 195.238281 124.183594 C 195.238281 122.402344 194.679688 120.921875 193.566406 119.746094 C 192.449219 118.566406 191.042969 117.976562 189.351562 117.976562 C 187.644531 117.976562 186.230469 118.566406 185.113281 119.746094 C 183.996094 120.921875 183.4375 122.402344 183.4375 124.183594 Z M 179.621094 124.183594 C 179.621094 121.460938 180.542969 119.164062 182.394531 117.292969 C 184.242188 115.425781 186.5625 114.492188 189.351562 114.492188 C 192.125 114.492188 194.4375 115.425781 196.285156 117.292969 C 198.132812 119.164062 199.058594 121.460938 199.058594 124.183594 C 199.058594 126.910156 198.132812 129.207031 196.285156 131.074219 C 194.4375 132.941406 192.125 133.875 189.351562 133.875 C 186.5625 133.875 184.242188 132.941406 182.394531 131.074219 C 180.542969 129.207031 179.621094 126.910156 179.621094 124.183594 "/>
<path style=" stroke:none;fill-rule:nonzero;fill:rgb(0%,0%,0%);fill-opacity:1;" d="M 206.359375 133.351562 L 202.644531 133.351562 L 202.644531 115.015625 L 207.273438 115.015625 L 211.746094 122.71875 L 216.222656 115.015625 L 220.851562 115.015625 L 220.851562 133.351562 L 217.136719 133.351562 L 217.136719 120.203125 L 213.054688 127.066406 L 210.4375 127.066406 L 206.359375 120.203125 L 206.359375 133.351562 "/>
<path style=" stroke:none;fill-rule:nonzero;fill:rgb(0%,0%,0%);fill-opacity:1;" d="M 229.695312 133.351562 L 225.980469 133.351562 L 225.980469 115.015625 L 229.695312 115.015625 L 229.695312 133.351562 "/>
<path style=" stroke:none;fill-rule:nonzero;fill:rgb(0%,0%,0%);fill-opacity:1;" d="M 234.851562 133.351562 L 234.851562 115.015625 L 245.523438 115.015625 L 245.523438 118.109375 L 238.5625 118.109375 L 238.5625 122.457031 L 244.476562 122.457031 L 244.476562 125.546875 L 238.5625 125.546875 L 238.5625 130.261719 L 245.523438 130.261719 L 245.523438 133.351562 L 234.851562 133.351562 "/>
<path style=" stroke:none;fill-rule:nonzero;fill:rgb(0%,0%,0%);fill-opacity:1;" d="M 25.15625 160.128906 L 25.15625 141.792969 L 35.832031 141.792969 L 35.832031 144.882812 L 28.871094 144.882812 L 28.871094 149.230469 L 34.785156 149.230469 L 34.785156 152.324219 L 28.871094 152.324219 L 28.871094 157.039062 L 35.832031 157.039062 L 35.832031 160.128906 L 25.15625 160.128906 "/>
<path style=" stroke:none;fill-rule:nonzero;fill:rgb(0%,0%,0%);fill-opacity:1;" d="M 44.332031 160.128906 L 44.332031 145.171875 L 38.683594 145.171875 L 38.683594 141.792969 L 53.699219 141.792969 L 53.699219 145.171875 L 48.050781 145.171875 L 48.050781 160.128906 L 44.332031 160.128906 "/>
<path style=" stroke:none;fill-rule:nonzero;fill:rgb(0%,0%,0%);fill-opacity:1;" d="M 71.070312 145.171875 L 67.539062 145.171875 L 67.539062 156.75 L 71.070312 156.75 C 72.746094 156.75 74.140625 156.195312 75.257812 155.085938 C 76.375 153.976562 76.933594 152.601562 76.933594 150.960938 C 76.933594 149.300781 76.378906 147.921875 75.269531 146.820312 C 74.164062 145.722656 72.765625 145.171875 71.070312 145.171875 Z M 80.75 150.960938 C 80.75 153.546875 79.828125 155.71875 77.980469 157.484375 C 76.128906 159.246094 73.808594 160.128906 71.019531 160.128906 L 63.824219 160.128906 L 63.824219 141.792969 L 71.019531 141.792969 C 73.808594 141.792969 76.128906 142.675781 77.980469 144.4375 C 79.828125 146.203125 80.75 148.378906 80.75 150.960938 "/>
<path style=" stroke:none;fill-rule:nonzero;fill:rgb(0%,0%,0%);fill-opacity:1;" d="M 84.363281 160.128906 L 84.363281 141.792969 L 95.035156 141.792969 L 95.035156 144.882812 L 88.078125 144.882812 L 88.078125 149.230469 L 93.988281 149.230469 L 93.988281 152.324219 L 88.078125 152.324219 L 88.078125 157.039062 L 95.035156 157.039062 L 95.035156 160.128906 L 84.363281 160.128906 "/>
<path style=" stroke:none;fill-rule:nonzero;fill:rgb(0%,0%,0%);fill-opacity:1;" d="M 104.507812 160.652344 C 103.078125 160.652344 101.808594 160.402344 100.699219 159.90625 C 99.59375 159.410156 98.601562 158.636719 97.730469 157.589844 L 100.425781 155.101562 C 100.984375 155.816406 101.617188 156.371094 102.324219 156.761719 C 103.03125 157.15625 103.75 157.351562 104.480469 157.351562 C 105.214844 157.351562 105.789062 157.164062 106.207031 156.789062 C 106.628906 156.414062 106.835938 155.902344 106.835938 155.257812 C 106.835938 154.75 106.640625 154.296875 106.246094 153.894531 C 105.855469 153.492188 104.976562 152.996094 103.617188 152.402344 C 102.570312 151.945312 101.804688 151.570312 101.316406 151.273438 C 100.828125 150.976562 100.410156 150.664062 100.058594 150.332031 C 99.535156 149.84375 99.148438 149.289062 98.894531 148.667969 C 98.640625 148.050781 98.515625 147.355469 98.515625 146.585938 C 98.515625 145.085938 99.078125 143.824219 100.203125 142.800781 C 101.328125 141.78125 102.738281 141.269531 104.429688 141.269531 C 105.683594 141.269531 106.847656 141.527344 107.921875 142.039062 C 108.996094 142.558594 109.964844 143.328125 110.839844 144.359375 L 108.117188 146.820312 C 107.523438 146.054688 106.921875 145.476562 106.3125 145.09375 C 105.703125 144.710938 105.082031 144.515625 104.453125 144.515625 C 103.808594 144.515625 103.285156 144.699219 102.886719 145.066406 C 102.484375 145.433594 102.285156 145.894531 102.285156 146.457031 C 102.285156 146.960938 102.480469 147.40625 102.871094 147.792969 C 103.265625 148.175781 104.132812 148.664062 105.476562 149.257812 C 106.523438 149.714844 107.292969 150.089844 107.789062 150.386719 C 108.289062 150.679688 108.710938 150.996094 109.058594 151.328125 C 109.582031 151.835938 109.972656 152.402344 110.222656 153.03125 C 110.476562 153.660156 110.605469 154.355469 110.605469 155.125 C 110.585938 156.785156 110.011719 158.121094 108.875 159.132812 C 107.742188 160.144531 106.285156 160.652344 104.507812 160.652344 "/>
<path style=" stroke:none;fill-rule:nonzero;fill:rgb(0%,0%,0%);fill-opacity:1;" d="M 130.066406 147.214844 C 130.066406 146.5 129.839844 145.929688 129.386719 145.511719 C 128.933594 145.09375 128.324219 144.882812 127.558594 144.882812 L 125.070312 144.882812 L 125.070312 149.625 L 127.558594 149.625 C 128.339844 149.625 128.957031 149.410156 129.402344 148.984375 C 129.847656 148.554688 130.066406 147.964844 130.066406 147.214844 Z M 125.070312 160.128906 L 121.355469 160.128906 L 121.355469 141.792969 L 127.398438 141.792969 C 129.421875 141.792969 131.011719 142.28125 132.160156 143.257812 C 133.3125 144.238281 133.886719 145.574219 133.886719 147.265625 C 133.886719 148.960938 133.308594 150.292969 132.148438 151.261719 C 130.988281 152.230469 129.40625 152.714844 127.398438 152.714844 L 125.070312 152.714844 L 125.070312 160.128906 "/>
<path style=" stroke:none;fill-rule:nonzero;fill:rgb(0%,0%,0%);fill-opacity:1;" d="M 136.972656 160.128906 L 136.972656 141.792969 L 147.648438 141.792969 L 147.648438 144.882812 L 140.691406 144.882812 L 140.691406 149.230469 L 146.601562 149.230469 L 146.601562 152.324219 L 140.691406 152.324219 L 140.691406 157.039062 L 147.648438 157.039062 L 147.648438 160.128906 L 136.972656 160.128906 "/>
<path style=" stroke:none;fill-rule:nonzero;fill:rgb(0%,0%,0%);fill-opacity:1;" d="M 160.285156 147.214844 C 160.285156 146.5 160.0625 145.929688 159.621094 145.511719 C 159.175781 145.09375 158.566406 144.882812 157.800781 144.882812 L 155.707031 144.882812 L 155.707031 149.625 L 157.800781 149.625 C 158.585938 149.625 159.195312 149.410156 159.632812 148.984375 C 160.066406 148.554688 160.285156 147.964844 160.285156 147.214844 Z M 155.707031 160.128906 L 151.992188 160.128906 L 151.992188 141.792969 L 157.589844 141.792969 C 159.613281 141.792969 161.207031 142.28125 162.367188 143.257812 C 163.527344 144.238281 164.105469 145.574219 164.105469 147.265625 C 164.105469 148.386719 163.847656 149.351562 163.332031 150.160156 C 162.820312 150.972656 162.089844 151.597656 161.148438 152.035156 L 166.878906 160.128906 L 162.507812 160.128906 L 157.617188 152.714844 L 155.707031 152.714844 L 155.707031 160.128906 "/>
<path style=" stroke:none;fill-rule:nonzero;fill:rgb(0%,0%,0%);fill-opacity:1;" d="M 174.335938 160.652344 C 172.902344 160.652344 171.636719 160.402344 170.527344 159.90625 C 169.421875 159.410156 168.429688 158.636719 167.558594 157.589844 L 170.253906 155.101562 C 170.8125 155.816406 171.445312 156.371094 172.148438 156.761719 C 172.855469 157.15625 173.574219 157.351562 174.308594 157.351562 C 175.039062 157.351562 175.617188 157.164062 176.035156 156.789062 C 176.453125 156.414062 176.664062 155.902344 176.664062 155.257812 C 176.664062 154.75 176.46875 154.296875 176.074219 153.894531 C 175.683594 153.492188 174.804688 152.996094 173.445312 152.402344 C 172.398438 151.945312 171.628906 151.570312 171.144531 151.273438 C 170.652344 150.976562 170.234375 150.664062 169.886719 150.332031 C 169.363281 149.84375 168.976562 149.289062 168.722656 148.667969 C 168.46875 148.050781 168.34375 147.355469 168.34375 146.585938 C 168.34375 145.085938 168.90625 143.824219 170.03125 142.800781 C 171.15625 141.78125 172.5625 141.269531 174.257812 141.269531 C 175.511719 141.269531 176.675781 141.527344 177.75 142.039062 C 178.820312 142.558594 179.792969 143.328125 180.667969 144.359375 L 177.945312 146.820312 C 177.351562 146.054688 176.75 145.476562 176.140625 145.09375 C 175.527344 144.710938 174.910156 144.515625 174.28125 144.515625 C 173.636719 144.515625 173.113281 144.699219 172.714844 145.066406 C 172.3125 145.433594 172.109375 145.894531 172.109375 146.457031 C 172.109375 146.960938 172.304688 147.40625 172.699219 147.792969 C 173.09375 148.175781 173.960938 148.664062 175.304688 149.257812 C 176.347656 149.714844 177.121094 150.089844 177.617188 150.386719 C 178.117188 150.679688 178.539062 150.996094 178.886719 151.328125 C 179.410156 151.835938 179.796875 152.402344 180.050781 153.03125 C 180.304688 153.660156 180.429688 154.355469 180.429688 155.125 C 180.414062 156.785156 179.835938 158.121094 178.703125 159.132812 C 177.570312 160.144531 176.113281 160.652344 174.335938 160.652344 "/>
<path style=" stroke:none;fill-rule:nonzero;fill:rgb(0%,0%,0%);fill-opacity:1;" d="M 186.371094 150.960938 C 186.371094 152.742188 186.925781 154.222656 188.042969 155.402344 C 189.160156 156.578125 190.574219 157.167969 192.28125 157.167969 C 193.972656 157.167969 195.378906 156.578125 196.496094 155.402344 C 197.609375 154.222656 198.167969 152.742188 198.167969 150.960938 C 198.167969 149.179688 197.609375 147.699219 196.496094 146.523438 C 195.378906 145.339844 193.972656 144.753906 192.28125 144.753906 C 190.574219 144.753906 189.160156 145.339844 188.042969 146.523438 C 186.925781 147.699219 186.371094 149.179688 186.371094 150.960938 Z M 182.550781 150.960938 C 182.550781 148.234375 183.472656 145.941406 185.324219 144.070312 C 187.171875 142.203125 189.492188 141.269531 192.28125 141.269531 C 195.054688 141.269531 197.367188 142.203125 199.214844 144.070312 C 201.0625 145.941406 201.988281 148.234375 201.988281 150.960938 C 201.988281 153.683594 201.0625 155.980469 199.214844 157.851562 C 197.367188 159.71875 195.054688 160.652344 192.28125 160.652344 C 189.492188 160.652344 187.171875 159.71875 185.324219 157.851562 C 183.472656 155.980469 182.550781 153.683594 182.550781 150.960938 "/>
<path style=" stroke:none;fill-rule:nonzero;fill:rgb(0%,0%,0%);fill-opacity:1;" d="M 209.289062 160.128906 L 205.574219 160.128906 L 205.574219 141.792969 L 210.335938 141.792969 L 218.523438 155.046875 L 218.523438 141.792969 L 222.238281 141.792969 L 222.238281 160.128906 L 217.476562 160.128906 L 209.289062 146.875 L 209.289062 160.128906 "/>
<path style=" stroke:none;fill-rule:nonzero;fill:rgb(0%,0%,0%);fill-opacity:1;" d="M 231.109375 160.128906 L 227.394531 160.128906 L 227.394531 141.792969 L 232.152344 141.792969 L 240.34375 155.046875 L 240.34375 141.792969 L 244.058594 141.792969 L 244.058594 160.128906 L 239.296875 160.128906 L 231.109375 146.875 L 231.109375 160.128906 "/>
<path style=" stroke:none;fill-rule:nonzero;fill:rgb(0%,0%,0%);fill-opacity:1;" d="M 249.210938 160.128906 L 249.210938 141.792969 L 259.886719 141.792969 L 259.886719 144.882812 L 252.925781 144.882812 L 252.925781 149.230469 L 258.839844 149.230469 L 258.839844 152.324219 L 252.925781 152.324219 L 252.925781 157.039062 L 259.886719 157.039062 L 259.886719 160.128906 L 249.210938 160.128906 "/>
<path style=" stroke:none;fill-rule:nonzero;fill:rgb(0%,0%,0%);fill-opacity:1;" d="M 269.359375 160.652344 C 267.925781 160.652344 266.660156 160.402344 265.550781 159.90625 C 264.441406 159.410156 263.453125 158.636719 262.582031 157.589844 L 265.277344 155.101562 C 265.832031 155.816406 266.464844 156.371094 267.171875 156.761719 C 267.878906 157.15625 268.597656 157.351562 269.332031 157.351562 C 270.0625 157.351562 270.640625 157.164062 271.058594 156.789062 C 271.476562 156.414062 271.683594 155.902344 271.683594 155.257812 C 271.683594 154.75 271.488281 154.296875 271.097656 153.894531 C 270.703125 153.492188 269.828125 152.996094 268.46875 152.402344 C 267.421875 151.945312 266.652344 151.570312 266.164062 151.273438 C 265.675781 150.976562 265.257812 150.664062 264.910156 150.332031 C 264.386719 149.84375 263.996094 149.289062 263.746094 148.667969 C 263.492188 148.050781 263.367188 147.355469 263.367188 146.585938 C 263.367188 145.085938 263.929688 143.824219 265.054688 142.800781 C 266.179688 141.78125 267.585938 141.269531 269.277344 141.269531 C 270.535156 141.269531 271.699219 141.527344 272.773438 142.039062 C 273.84375 142.558594 274.816406 143.328125 275.6875 144.359375 L 272.96875 146.820312 C 272.375 146.054688 271.773438 145.476562 271.164062 145.09375 C 270.550781 144.710938 269.933594 144.515625 269.304688 144.515625 C 268.660156 144.515625 268.136719 144.699219 267.734375 145.066406 C 267.332031 145.433594 267.132812 145.894531 267.132812 146.457031 C 267.132812 146.960938 267.328125 147.40625 267.722656 147.792969 C 268.113281 148.175781 268.980469 148.664062 270.324219 149.257812 C 271.371094 149.714844 272.144531 150.089844 272.640625 150.386719 C 273.136719 150.679688 273.558594 150.996094 273.910156 151.328125 C 274.433594 151.835938 274.820312 152.402344 275.074219 153.03125 C 275.324219 153.660156 275.453125 154.355469 275.453125 155.125 C 275.433594 156.785156 274.859375 158.121094 273.726562 159.132812 C 272.59375 160.144531 271.136719 160.652344 269.359375 160.652344 "/>
<path style=" stroke:none;fill-rule:nonzero;fill:rgb(0%,0%,0%);fill-opacity:1;" d="M 28.871094 186.90625 L 25.15625 186.90625 L 25.15625 168.570312 L 28.871094 168.570312 L 28.871094 175.878906 L 38.109375 175.878906 L 38.109375 168.570312 L 41.824219 168.570312 L 41.824219 186.90625 L 38.109375 186.90625 L 38.109375 179.257812 L 28.871094 179.257812 L 28.871094 186.90625 "/>
<path style=" stroke:none;fill-rule:nonzero;fill:rgb(0%,0%,0%);fill-opacity:1;" d="M 51.527344 178.96875 L 56.550781 178.96875 L 54.039062 172.078125 Z M 48.625 186.90625 L 44.675781 186.90625 L 51.605469 168.570312 L 56.472656 168.570312 L 63.40625 186.90625 L 59.457031 186.90625 L 57.703125 182.140625 L 50.378906 182.140625 L 48.625 186.90625 "/>
<path style=" stroke:none;fill-rule:nonzero;fill:rgb(0%,0%,0%);fill-opacity:1;" d="M 69.972656 186.90625 L 66.257812 186.90625 L 66.257812 168.570312 L 71.019531 168.570312 L 79.207031 181.824219 L 79.207031 168.570312 L 82.921875 168.570312 L 82.921875 186.90625 L 78.164062 186.90625 L 69.972656 173.652344 L 69.972656 186.90625 "/>
<path style=" stroke:none;fill-rule:nonzero;fill:rgb(0%,0%,0%);fill-opacity:1;" d="M 95.324219 171.949219 L 91.792969 171.949219 L 91.792969 183.527344 L 95.324219 183.527344 C 97 183.527344 98.394531 182.972656 99.511719 181.863281 C 100.625 180.753906 101.183594 179.378906 101.183594 177.738281 C 101.183594 176.078125 100.632812 174.699219 99.523438 173.597656 C 98.414062 172.5 97.015625 171.949219 95.324219 171.949219 Z M 105.003906 177.738281 C 105.003906 180.320312 104.078125 182.496094 102.230469 184.261719 C 100.382812 186.023438 98.0625 186.90625 95.273438 186.90625 L 88.078125 186.90625 L 88.078125 168.570312 L 95.273438 168.570312 C 98.0625 168.570312 100.382812 169.449219 102.230469 171.214844 C 104.078125 172.980469 105.003906 175.152344 105.003906 177.738281 "/>
<path style=" stroke:none;fill-rule:nonzero;fill:rgb(0%,0%,0%);fill-opacity:1;" d="M 112.328125 186.90625 L 108.617188 186.90625 L 108.617188 168.570312 L 112.328125 168.570312 L 112.328125 186.90625 "/>
<path style=" stroke:none;fill-rule:nonzero;fill:rgb(0%,0%,0%);fill-opacity:1;" d="M 119.734375 177.738281 C 119.734375 179.519531 120.292969 181 121.410156 182.175781 C 122.523438 183.355469 123.9375 183.945312 125.648438 183.945312 C 126.625 183.945312 127.527344 183.726562 128.355469 183.289062 C 129.183594 182.855469 129.875 182.234375 130.433594 181.429688 L 133.363281 183.683594 C 132.492188 184.871094 131.386719 185.792969 130.042969 186.449219 C 128.699219 187.101562 127.234375 187.429688 125.648438 187.429688 C 122.855469 187.429688 120.535156 186.496094 118.6875 184.625 C 116.839844 182.757812 115.914062 180.460938 115.914062 177.738281 C 115.914062 175.011719 116.839844 172.71875 118.6875 170.847656 C 120.535156 168.980469 122.855469 168.046875 125.648438 168.046875 C 127.214844 168.046875 128.671875 168.367188 130.015625 169.015625 C 131.359375 169.660156 132.476562 170.578125 133.363281 171.765625 L 130.433594 174.042969 C 129.875 173.242188 129.183594 172.621094 128.355469 172.183594 C 127.527344 171.75 126.625 171.527344 125.648438 171.527344 C 123.9375 171.527344 122.523438 172.117188 121.410156 173.296875 C 120.292969 174.476562 119.734375 175.957031 119.734375 177.738281 "/>
<path style=" stroke:none;fill-rule:nonzero;fill:rgb(0%,0%,0%);fill-opacity:1;" d="M 141.03125 178.96875 L 146.054688 178.96875 L 143.542969 172.078125 Z M 138.125 186.90625 L 134.175781 186.90625 L 141.109375 168.570312 L 145.972656 168.570312 L 152.90625 186.90625 L 148.957031 186.90625 L 147.203125 182.140625 L 139.878906 182.140625 L 138.125 186.90625 "/>
<path style=" stroke:none;fill-rule:nonzero;fill:rgb(0%,0%,0%);fill-opacity:1;" d="M 164.472656 173.992188 C 164.472656 173.277344 164.246094 172.707031 163.792969 172.289062 C 163.339844 171.871094 162.726562 171.660156 161.960938 171.660156 L 159.476562 171.660156 L 159.476562 176.402344 L 161.960938 176.402344 C 162.746094 176.402344 163.359375 176.1875 163.804688 175.757812 C 164.25 175.332031 164.472656 174.742188 164.472656 173.992188 Z M 159.476562 186.90625 L 155.757812 186.90625 L 155.757812 168.570312 L 161.804688 168.570312 C 163.828125 168.570312 165.414062 169.058594 166.5625 170.035156 C 167.714844 171.015625 168.292969 172.351562 168.292969 174.042969 C 168.292969 175.738281 167.710938 177.070312 166.550781 178.039062 C 165.390625 179.007812 163.808594 179.492188 161.804688 179.492188 L 159.476562 179.492188 L 159.476562 186.90625 "/>
<path style=" stroke:none;fill-rule:nonzero;fill:rgb(0%,0%,0%);fill-opacity:1;" d="M 181.765625 163.460938 L 178.363281 166.996094 L 174.988281 166.996094 L 177.945312 163.460938 Z M 171.378906 186.90625 L 171.378906 168.570312 L 182.054688 168.570312 L 182.054688 171.660156 L 175.09375 171.660156 L 175.09375 176.007812 L 181.003906 176.007812 L 181.003906 179.101562 L 175.09375 179.101562 L 175.09375 183.816406 L 182.054688 183.816406 L 182.054688 186.90625 L 171.378906 186.90625 "/>
<path style=" stroke:none;fill-rule:nonzero;fill:rgb(0%,0%,0%);fill-opacity:1;" d="M 186.394531 186.90625 L 186.394531 168.570312 L 197.070312 168.570312 L 197.070312 171.660156 L 190.109375 171.660156 L 190.109375 176.007812 L 196.023438 176.007812 L 196.023438 179.101562 L 190.109375 179.101562 L 190.109375 183.816406 L 197.070312 183.816406 L 197.070312 186.90625 L 186.394531 186.90625 "/>
<path style=" stroke:none;fill-rule:nonzero;fill:rgb(0%,0%,0%);fill-opacity:1;" d="M 206.539062 187.429688 C 205.109375 187.429688 203.839844 187.179688 202.734375 186.683594 C 201.625 186.183594 200.636719 185.414062 199.765625 184.363281 L 202.460938 181.875 C 203.015625 182.59375 203.648438 183.148438 204.355469 183.539062 C 205.0625 183.933594 205.78125 184.128906 206.515625 184.128906 C 207.246094 184.128906 207.824219 183.941406 208.242188 183.566406 C 208.660156 183.191406 208.871094 182.679688 208.871094 182.035156 C 208.871094 181.527344 208.671875 181.074219 208.28125 180.671875 C 207.886719 180.269531 207.011719 179.773438 205.652344 179.179688 C 204.605469 178.722656 203.835938 178.347656 203.347656 178.050781 C 202.859375 177.753906 202.441406 177.441406 202.09375 177.109375 C 201.570312 176.621094 201.179688 176.066406 200.929688 175.445312 C 200.675781 174.828125 200.550781 174.132812 200.550781 173.363281 C 200.550781 171.859375 201.113281 170.597656 202.238281 169.578125 C 203.363281 168.554688 204.769531 168.046875 206.460938 168.046875 C 207.71875 168.046875 208.882812 168.304688 209.957031 168.816406 C 211.027344 169.332031 212 170.105469 212.871094 171.136719 L 210.152344 173.597656 C 209.558594 172.828125 208.957031 172.253906 208.347656 171.871094 C 207.734375 171.484375 207.117188 171.292969 206.488281 171.292969 C 205.84375 171.292969 205.320312 171.476562 204.917969 171.84375 C 204.515625 172.210938 204.316406 172.671875 204.316406 173.230469 C 204.316406 173.738281 204.511719 174.183594 204.90625 174.566406 C 205.296875 174.953125 206.164062 175.441406 207.507812 176.035156 C 208.554688 176.488281 209.328125 176.863281 209.824219 177.160156 C 210.320312 177.457031 210.746094 177.773438 211.09375 178.105469 C 211.617188 178.609375 212.003906 179.179688 212.257812 179.808594 C 212.511719 180.4375 212.636719 181.132812 212.636719 181.902344 C 212.621094 183.5625 212.042969 184.898438 210.910156 185.910156 C 209.777344 186.921875 208.320312 187.429688 206.539062 187.429688 "/>
<path style=" stroke:none;fill-rule:nonzero;fill:rgb(15.294118%,22.352941%,48.235294%);fill-opacity:1;" d="M 44.019531 41.875 C 43.972656 41.828125 44.15625 41.875 44.203125 41.78125 C 44.066406 41.78125 43.972656 41.78125 43.835938 41.78125 C 43.789062 41.78125 43.789062 41.734375 43.789062 41.6875 C 43.558594 41.734375 43.285156 41.828125 43.054688 41.875 C 42.730469 41.964844 42.453125 42.195312 42.085938 42.289062 C 41.578125 42.472656 41.164062 42.886719 40.613281 43.070312 C 40.566406 43.070312 40.566406 43.027344 40.566406 42.980469 C 40.613281 42.839844 40.796875 42.796875 40.886719 42.65625 C 40.886719 42.613281 40.886719 42.566406 40.839844 42.566406 C 41.210938 42.058594 41.71875 41.78125 42.175781 41.367188 C 42.175781 41.320312 42.175781 41.273438 42.175781 41.226562 C 42.316406 41.042969 42.546875 40.949219 42.636719 40.71875 C 42.683594 40.582031 42.867188 40.398438 43.097656 40.304688 C 43.054688 40.257812 42.960938 40.257812 42.960938 40.167969 C 42.777344 40.167969 42.589844 40.257812 42.40625 40.121094 C 42.492188 40.035156 42.59375 39.988281 42.695312 39.957031 C 42.65625 39.949219 42.621094 39.929688 42.589844 39.890625 C 42.546875 39.796875 42.679688 39.695312 42.824219 39.660156 C 43.007812 39.613281 43.238281 39.613281 43.375 39.476562 C 43.054688 39.429688 42.683594 39.566406 42.359375 39.382812 C 42.589844 38.78125 42.960938 38.277344 43.515625 38 C 43.558594 38 43.652344 38 43.652344 38.042969 C 43.652344 38.277344 43.515625 38.460938 43.285156 38.507812 C 43.652344 38.597656 44.019531 38.597656 44.386719 38.78125 C 44.34375 38.875 44.25 38.828125 44.203125 38.828125 C 44.433594 38.96875 44.710938 38.875 44.941406 39.058594 C 44.800781 39.199219 44.664062 39.058594 44.527344 39.058594 C 45.957031 39.476562 47.476562 39.796875 48.671875 40.71875 C 47.660156 41.226562 46.601562 41.457031 45.496094 41.6875 C 45.355469 41.6875 45.261719 41.6875 45.125 41.644531 C 45.125 41.6875 45.125 41.78125 45.078125 41.78125 C 44.894531 41.78125 44.757812 41.78125 44.617188 41.875 C 44.433594 41.964844 44.15625 42.011719 44.019531 41.875 Z M 43.078125 45.082031 C 43.074219 45.085938 43.070312 45.085938 43.066406 45.089844 C 42.894531 45.210938 42.722656 45.335938 42.539062 45.441406 C 42.34375 45.554688 42.136719 45.644531 41.929688 45.738281 C 41.929688 45.734375 41.929688 45.734375 41.925781 45.730469 C 41.910156 45.707031 41.878906 45.695312 41.847656 45.710938 C 41.671875 45.804688 41.527344 45.929688 41.382812 46.0625 C 41.363281 46.082031 41.339844 46.105469 41.320312 46.125 C 41.320312 46.128906 41.316406 46.128906 41.316406 46.128906 C 41.316406 46.128906 41.3125 46.132812 41.3125 46.132812 C 41.289062 46.15625 41.269531 46.175781 41.246094 46.199219 C 41.246094 46.199219 41.242188 46.203125 41.238281 46.207031 C 41.238281 46.207031 41.238281 46.207031 41.238281 46.210938 C 41.203125 46.242188 41.171875 46.277344 41.136719 46.316406 C 41.113281 46.34375 41.105469 46.363281 41.074219 46.382812 C 41.046875 46.402344 40.964844 46.402344 40.976562 46.347656 C 40.976562 46.34375 40.976562 46.34375 40.976562 46.339844 C 40.949219 46.351562 40.921875 46.367188 40.894531 46.378906 C 40.867188 46.394531 40.84375 46.40625 40.820312 46.421875 C 40.8125 46.417969 40.800781 46.414062 40.789062 46.414062 C 40.777344 46.417969 40.765625 46.417969 40.753906 46.425781 C 40.699219 46.472656 40.644531 46.519531 40.589844 46.566406 C 40.496094 46.65625 40.402344 46.75 40.324219 46.851562 C 40.320312 46.855469 40.320312 46.855469 40.320312 46.855469 C 40.316406 46.859375 40.3125 46.863281 40.308594 46.867188 C 40.304688 46.875 40.300781 46.878906 40.296875 46.886719 C 40.292969 46.894531 40.285156 46.898438 40.28125 46.90625 C 40.28125 46.90625 40.277344 46.910156 40.277344 46.910156 C 40.265625 46.925781 40.257812 46.941406 40.246094 46.957031 C 40.246094 46.957031 40.242188 46.960938 40.242188 46.960938 C 40.234375 46.96875 40.222656 46.976562 40.207031 46.980469 C 40.199219 46.96875 40.195312 46.960938 40.1875 46.949219 C 40.183594 46.945312 40.179688 46.9375 40.175781 46.929688 C 40.160156 46.90625 40.148438 46.878906 40.132812 46.855469 C 40.132812 46.855469 40.132812 46.851562 40.132812 46.851562 C 40.128906 46.84375 40.125 46.835938 40.121094 46.828125 C 40.171875 46.773438 40.222656 46.71875 40.265625 46.664062 C 40.269531 46.660156 40.273438 46.65625 40.277344 46.652344 C 40.292969 46.632812 40.308594 46.613281 40.324219 46.59375 C 40.351562 46.558594 40.375 46.527344 40.402344 46.496094 C 40.410156 46.480469 40.421875 46.46875 40.429688 46.457031 C 40.480469 46.390625 40.527344 46.328125 40.574219 46.261719 C 40.574219 46.261719 40.574219 46.257812 40.578125 46.257812 C 40.585938 46.246094 40.589844 46.238281 40.597656 46.226562 C 40.621094 46.195312 40.640625 46.164062 40.660156 46.128906 C 40.679688 46.101562 40.695312 46.070312 40.710938 46.039062 C 40.710938 46.035156 40.714844 46.03125 40.714844 46.03125 C 40.714844 46.027344 40.71875 46.023438 40.71875 46.019531 C 40.722656 46.015625 40.722656 46.007812 40.726562 46.003906 C 40.742188 45.96875 40.757812 45.933594 40.769531 45.894531 C 40.773438 45.894531 40.773438 45.886719 40.773438 45.882812 C 40.777344 45.875 40.78125 45.863281 40.785156 45.855469 C 40.789062 45.835938 40.796875 45.820312 40.800781 45.804688 C 40.800781 45.800781 40.800781 45.796875 40.800781 45.792969 C 40.808594 45.769531 40.8125 45.746094 40.816406 45.722656 C 40.820312 45.710938 40.816406 45.703125 40.8125 45.691406 C 40.863281 45.605469 40.921875 45.523438 40.996094 45.445312 C 40.988281 45.449219 40.980469 45.453125 40.972656 45.457031 C 40.90625 45.5 40.863281 45.558594 40.804688 45.605469 C 40.753906 45.640625 40.660156 45.578125 40.71875 45.535156 C 40.761719 45.503906 40.789062 45.472656 40.824219 45.4375 C 40.824219 45.4375 40.828125 45.433594 40.828125 45.433594 C 40.90625 45.355469 40.976562 45.261719 41.066406 45.199219 C 41.117188 45.160156 41.164062 45.128906 41.207031 45.089844 C 41.214844 45.085938 41.21875 45.078125 41.226562 45.070312 C 41.257812 45.027344 41.292969 44.992188 41.328125 44.953125 C 41.332031 44.953125 41.332031 44.953125 41.332031 44.949219 C 41.773438 44.523438 42.519531 44.542969 43.097656 44.273438 C 43.328125 44.179688 43.605469 44.316406 43.835938 44.273438 C 43.972656 44.273438 44.113281 44.273438 44.25 44.363281 C 43.835938 44.589844 43.453125 44.84375 43.078125 45.082031 Z M 43.902344 45.464844 C 43.882812 45.515625 43.835938 45.558594 43.789062 45.597656 C 43.847656 45.609375 43.886719 45.636719 43.851562 45.667969 C 43.742188 45.765625 43.640625 45.867188 43.5 45.914062 C 43.488281 45.917969 43.460938 45.921875 43.429688 45.921875 C 43.371094 45.976562 43.316406 46.03125 43.257812 46.082031 C 43.203125 46.132812 42.949219 46.097656 43.027344 46.027344 C 43.144531 45.925781 43.253906 45.8125 43.367188 45.707031 C 43.433594 45.648438 43.5 45.589844 43.558594 45.523438 C 43.589844 45.484375 43.617188 45.449219 43.65625 45.421875 C 43.695312 45.394531 43.941406 45.371094 43.902344 45.464844 Z M 41.761719 38.554688 C 41.71875 38.644531 41.664062 38.652344 41.625 38.738281 C 41.578125 38.828125 41.53125 38.875 41.441406 38.921875 C 41.394531 38.921875 41.347656 38.921875 41.347656 38.875 C 41.394531 38.691406 41.53125 38.507812 41.71875 38.460938 C 41.761719 38.460938 41.761719 38.507812 41.761719 38.554688 Z M 37.941406 41.597656 C 37.941406 41.597656 37.894531 41.550781 37.894531 41.503906 C 38.492188 40.71875 38.953125 39.980469 39.367188 39.152344 C 39.964844 38.828125 40.460938 38.359375 40.933594 37.859375 C 41.71875 37.03125 42.546875 36.292969 43.515625 35.832031 C 43.882812 35.691406 44.34375 35.738281 44.710938 35.878906 C 44.574219 36.0625 44.34375 36.015625 44.15625 36.152344 C 44.113281 36.152344 44.066406 36.152344 44.019531 36.105469 C 44.066406 36.0625 44.066406 36.015625 44.066406 35.96875 C 43.605469 36.476562 42.960938 36.707031 42.589844 37.308594 C 42.316406 37.769531 42.132812 38.367188 41.53125 38.507812 C 41.347656 38.554688 41.578125 38.367188 41.488281 38.414062 C 40.058594 39.289062 39.042969 40.351562 37.941406 41.597656 Z M 44.988281 42.613281 C 44.894531 42.613281 44.710938 42.65625 44.757812 42.566406 C 44.800781 42.335938 45.125 42.335938 45.308594 42.242188 C 45.402344 42.195312 45.539062 42.105469 45.632812 42.148438 C 45.726562 42.289062 45.863281 42.242188 45.957031 42.335938 C 45.679688 42.613281 45.308594 42.472656 44.988281 42.613281 Z M 52.074219 45.914062 C 52.332031 45.652344 52.597656 45.371094 52.859375 45.089844 L 52.855469 45.089844 C 53.34375 44.535156 53.824219 44.007812 54.390625 43.519531 C 54.5625 43.367188 54.730469 43.230469 54.890625 43.117188 C 54.9375 43.070312 54.9375 42.980469 54.984375 42.933594 C 54.753906 43.027344 54.617188 43.210938 54.386719 43.304688 C 54.339844 43.304688 54.292969 43.257812 54.339844 43.210938 C 54.503906 43.089844 54.667969 42.964844 54.832031 42.839844 C 54.820312 42.839844 54.8125 42.839844 54.800781 42.839844 C 54.753906 42.839844 54.753906 42.796875 54.753906 42.75 C 54.15625 42.65625 53.695312 43.070312 53.28125 43.441406 C 53.1875 43.488281 53.09375 43.394531 53.050781 43.394531 C 52.359375 43.625 51.851562 44.226562 51.160156 44.503906 C 51.160156 44.457031 51.160156 44.457031 51.160156 44.410156 C 50.882812 44.503906 50.617188 44.667969 50.332031 44.734375 C 49.917969 44.824219 49.546875 44.78125 49.179688 44.78125 C 48.621094 44.835938 48.0625 44.957031 47.503906 45.078125 C 47.488281 45.082031 47.472656 45.085938 47.457031 45.089844 C 47.15625 45.171875 46.875 45.285156 46.597656 45.4375 C 46.585938 45.441406 46.578125 45.449219 46.566406 45.453125 C 46.542969 45.484375 46.519531 45.511719 46.5 45.535156 C 46.398438 45.644531 46.316406 45.742188 46.183594 45.808594 C 45.902344 45.953125 45.671875 46.207031 45.421875 46.410156 C 45.402344 46.421875 45.375 46.433594 45.347656 46.433594 C 45.097656 46.671875 44.855469 46.910156 44.605469 47.144531 C 44.585938 47.160156 44.515625 47.167969 44.464844 47.160156 C 44.464844 47.160156 44.464844 47.160156 44.46875 47.15625 C 44.476562 47.140625 44.484375 47.128906 44.492188 47.113281 C 44.53125 47.046875 44.570312 46.984375 44.613281 46.917969 C 44.65625 46.84375 44.703125 46.773438 44.75 46.703125 C 44.8125 46.609375 44.875 46.515625 44.945312 46.421875 C 44.960938 46.398438 44.957031 46.378906 44.945312 46.363281 C 44.929688 46.347656 44.90625 46.339844 44.878906 46.339844 C 45.109375 46.117188 45.382812 45.925781 45.652344 45.761719 C 45.652344 45.757812 45.652344 45.753906 45.652344 45.753906 C 45.621094 45.761719 45.578125 45.738281 45.601562 45.707031 C 45.628906 45.664062 45.652344 45.621094 45.679688 45.582031 C 45.683594 45.566406 45.691406 45.554688 45.695312 45.539062 C 45.683594 45.527344 45.671875 45.515625 45.660156 45.503906 C 45.585938 45.550781 45.507812 45.597656 45.441406 45.652344 C 45.332031 45.753906 45.246094 45.957031 45.078125 45.957031 C 45.066406 45.957031 45.035156 45.953125 45.011719 45.945312 C 44.988281 45.941406 44.972656 45.9375 44.960938 45.929688 C 44.964844 45.925781 44.964844 45.921875 44.96875 45.917969 C 44.96875 45.914062 44.972656 45.910156 44.972656 45.90625 C 44.976562 45.902344 44.980469 45.898438 44.980469 45.894531 C 44.988281 45.878906 44.996094 45.867188 45.003906 45.855469 C 45.011719 45.839844 45.015625 45.828125 45.023438 45.8125 C 45.03125 45.804688 45.035156 45.792969 45.042969 45.78125 C 45.054688 45.761719 45.0625 45.742188 45.074219 45.722656 C 45.082031 45.710938 45.089844 45.695312 45.097656 45.683594 C 45.121094 45.648438 45.140625 45.613281 45.160156 45.582031 C 45.167969 45.5625 45.175781 45.546875 45.1875 45.53125 C 45.203125 45.503906 45.21875 45.476562 45.238281 45.445312 C 45.257812 45.410156 45.234375 45.378906 45.203125 45.367188 C 45.285156 45.253906 45.390625 45.160156 45.515625 45.089844 L 45.503906 45.089844 C 45.679688 45 45.855469 44.890625 46.03125 44.792969 C 46.058594 44.773438 46.082031 44.75 46.109375 44.726562 C 45.84375 44.816406 45.609375 44.9375 45.375 45.089844 C 45.375 45.089844 45.316406 45.113281 45.296875 45.132812 C 45.296875 45.132812 45.246094 45.152344 45.183594 45.089844 C 45.175781 45.082031 45.171875 45.070312 45.171875 45.054688 C 45.21875 44.964844 45.355469 44.917969 45.449219 44.824219 C 45.496094 44.824219 45.539062 44.824219 45.539062 44.871094 C 47.015625 43.71875 49.042969 43.996094 50.746094 43.394531 C 50.882812 43.304688 51.023438 43.210938 51.160156 43.117188 C 51.390625 43.027344 51.574219 42.796875 51.851562 42.65625 C 52.222656 42.382812 52.496094 42.058594 52.632812 41.597656 C 52.632812 41.550781 52.589844 41.503906 52.589844 41.503906 C 51.992188 42.148438 51.300781 42.65625 50.5625 43.027344 C 49.59375 43.535156 48.535156 43.441406 47.519531 43.582031 C 47.566406 43.488281 47.660156 43.488281 47.75 43.488281 C 47.75 43.347656 47.84375 43.304688 47.9375 43.210938 C 47.980469 43.210938 48.027344 43.210938 48.074219 43.210938 C 48.121094 43.210938 48.121094 43.117188 48.167969 43.117188 C 48.257812 43.117188 48.398438 43.070312 48.351562 43.070312 C 48.210938 42.886719 47.9375 43.210938 47.707031 43.070312 C 47.796875 42.980469 47.75 42.839844 47.84375 42.796875 C 47.890625 42.796875 47.980469 42.796875 48.027344 42.796875 C 48.027344 42.703125 48.121094 42.613281 48.121094 42.613281 C 48.8125 42.195312 49.457031 41.875 50.101562 41.503906 C 49.960938 41.503906 49.871094 41.644531 49.730469 41.550781 C 49.824219 41.550781 49.730469 41.414062 49.824219 41.414062 C 50.332031 41.273438 50.746094 40.996094 51.253906 40.8125 C 51.070312 40.8125 50.929688 40.949219 50.746094 40.8125 C 50.839844 40.765625 50.882812 40.675781 51.023438 40.675781 C 51.023438 40.628906 51.023438 40.582031 51.023438 40.535156 C 51.023438 40.488281 51.070312 40.488281 51.113281 40.488281 C 51.070312 40.488281 51.023438 40.445312 51.023438 40.445312 C 51.070312 40.351562 51.207031 40.398438 51.300781 40.304688 C 51.253906 40.304688 51.160156 40.304688 51.160156 40.257812 C 51.300781 40.074219 51.53125 40.027344 51.761719 39.980469 C 51.714844 39.890625 51.574219 39.980469 51.574219 39.890625 C 51.574219 39.84375 51.621094 39.84375 51.667969 39.84375 C 51.621094 39.84375 51.621094 39.84375 51.574219 39.84375 C 51.484375 39.796875 51.53125 39.707031 51.53125 39.660156 C 51.804688 39.335938 51.804688 38.921875 51.945312 38.554688 C 51.898438 38.554688 51.851562 38.554688 51.851562 38.507812 C 51.390625 39.011719 50.652344 39.199219 49.960938 39.382812 C 49.917969 39.382812 49.777344 39.382812 49.730469 39.382812 C 49.503906 39.476562 49.179688 39.476562 48.949219 39.335938 C 48.765625 39.246094 48.671875 39.105469 48.488281 38.96875 C 48.121094 38.738281 47.75 38.554688 47.335938 38.414062 C 46.1875 38.042969 44.988281 37.859375 43.789062 37.90625 C 44.296875 37.628906 44.855469 37.605469 45.402344 37.445312 C 46.1875 37.214844 46.921875 36.9375 47.75 36.984375 C 47.613281 36.9375 47.429688 36.984375 47.289062 36.984375 C 46.648438 36.9375 46 37.121094 45.308594 37.261719 C 44.847656 37.351562 44.433594 37.539062 43.972656 37.628906 C 43.699219 37.722656 43.558594 38 43.238281 37.953125 C 43.238281 37.953125 43.238281 37.859375 43.238281 37.8125 C 43.699219 37.261719 44.25 36.707031 44.988281 36.660156 C 45.816406 36.523438 46.601562 36.660156 47.429688 36.753906 C 48.027344 36.800781 48.582031 36.9375 49.179688 37.074219 C 49.410156 37.074219 49.457031 37.445312 49.640625 37.492188 C 49.917969 37.585938 50.191406 37.492188 50.46875 37.675781 C 50.46875 37.585938 50.421875 37.492188 50.46875 37.398438 C 50.652344 37.214844 50.882812 37.445312 51.070312 37.351562 C 51.4375 37.121094 50.746094 36.707031 50.5625 36.386719 C 50.5625 36.339844 50.609375 36.292969 50.609375 36.292969 C 50.976562 36.617188 51.253906 36.984375 51.714844 37.214844 C 51.945312 37.308594 52.496094 37.445312 52.402344 37.167969 C 52.175781 36.660156 51.714844 36.246094 51.34375 35.785156 C 51.34375 35.738281 51.34375 35.648438 51.34375 35.601562 C 51.253906 35.601562 51.253906 35.554688 51.207031 35.507812 C 51.207031 35.460938 51.207031 35.371094 51.207031 35.324219 C 51.023438 35.230469 51.070312 35.046875 50.976562 34.90625 C 50.839844 34.679688 50.929688 34.355469 50.839844 34.078125 C 50.746094 33.800781 50.699219 33.570312 50.652344 33.292969 C 50.515625 32.511719 50.332031 31.816406 50.238281 31.078125 C 50.148438 30.203125 50.746094 29.511719 51.160156 28.726562 C 51.484375 28.175781 51.851562 27.621094 52.449219 27.25 C 52.589844 26.699219 52.957031 26.238281 53.324219 25.777344 C 53.695312 25.324219 54.304688 25.050781 54.746094 24.851562 C 55.390625 24.566406 55.972656 24.386719 55.972656 24.386719 L 24.355469 24.386719 L 24.355469 48.792969 L 46.746094 48.792969 C 47.625 48.164062 48.5 47.863281 49.722656 47.257812 C 50.300781 46.972656 51.625 46.363281 52.074219 45.914062 "/>
<path style=" stroke:none;fill-rule:nonzero;fill:rgb(91.764706%,11.372549%,14.509804%);fill-opacity:1;" d="M 91.398438 24.386719 L 65.171875 24.386719 C 65.171875 24.386719 65.222656 24.394531 65.421875 24.5 C 65.636719 24.617188 65.910156 24.761719 66.082031 24.851562 C 66.421875 25.03125 66.75 25.253906 66.960938 25.589844 C 67.054688 25.730469 67.191406 26.007812 67.101562 26.191406 C 67.007812 26.421875 66.960938 26.789062 66.730469 26.882812 C 66.457031 27.019531 66.085938 27.019531 65.765625 26.976562 C 65.582031 26.976562 65.394531 26.929688 65.210938 26.882812 C 65.902344 27.160156 66.546875 27.484375 67.007812 28.128906 C 67.054688 28.21875 67.238281 28.265625 67.421875 28.265625 C 67.46875 28.265625 67.46875 28.359375 67.46875 28.40625 C 67.378906 28.496094 67.285156 28.542969 67.332031 28.683594 C 67.378906 28.683594 67.421875 28.683594 67.46875 28.683594 C 67.699219 28.589844 67.652344 28.128906 67.976562 28.265625 C 68.207031 28.40625 68.296875 28.726562 68.160156 28.957031 C 67.976562 29.144531 67.792969 29.28125 67.609375 29.421875 C 67.5625 29.511719 67.5625 29.648438 67.609375 29.742188 C 67.746094 29.925781 67.792969 30.109375 67.835938 30.296875 C 67.976562 30.617188 68.023438 30.988281 68.160156 31.3125 C 68.34375 32.003906 68.527344 32.695312 68.480469 33.386719 C 68.480469 33.753906 68.296875 34.078125 68.4375 34.449219 C 68.527344 34.816406 68.757812 35.09375 68.941406 35.417969 C 69.128906 35.691406 69.3125 35.878906 69.449219 36.152344 C 69.726562 36.617188 70.234375 37.074219 70.003906 37.628906 C 69.863281 37.953125 69.359375 37.90625 69.035156 38.089844 C 68.757812 38.320312 68.988281 38.691406 69.128906 38.921875 C 69.359375 39.335938 68.851562 39.613281 68.527344 39.75 C 68.621094 39.890625 68.804688 39.84375 68.851562 39.9375 C 68.898438 40.167969 69.128906 40.304688 68.988281 40.535156 C 68.804688 40.8125 68.253906 40.949219 68.527344 41.367188 C 68.710938 41.6875 68.59375 42.046875 68.480469 42.382812 C 68.34375 42.796875 67.976562 42.980469 67.652344 43.070312 C 67.378906 43.164062 67.054688 43.164062 66.777344 43.117188 C 66.6875 43.070312 66.59375 43.027344 66.5 43.027344 C 65.71875 42.933594 64.9375 42.703125 64.152344 42.703125 C 63.921875 42.75 63.691406 42.796875 63.507812 42.886719 C 63.300781 43.042969 63.113281 43.207031 62.949219 43.382812 C 62.949219 43.382812 62.945312 43.386719 62.945312 43.386719 C 62.910156 43.425781 62.875 43.460938 62.84375 43.5 C 62.824219 43.523438 62.804688 43.546875 62.785156 43.570312 C 62.769531 43.585938 62.757812 43.601562 62.746094 43.617188 C 62.609375 43.785156 62.488281 43.964844 62.382812 44.148438 C 62.375 44.160156 62.367188 44.171875 62.363281 44.183594 C 62.351562 44.207031 62.335938 44.226562 62.328125 44.25 C 62.175781 44.53125 62.058594 44.816406 61.976562 45.097656 C 61.664062 46.152344 61.800781 47.058594 62.019531 47.277344 C 62.082031 47.339844 63.542969 47.789062 64.558594 48.242188 C 65.035156 48.457031 65.367188 48.621094 65.644531 48.792969 L 91.398438 48.792969 L 91.398438 24.386719 "/>
<path style=" stroke:none;fill-rule:nonzero;fill:rgb(57.254902%,58.431373%,58.823529%);fill-opacity:1;" d="M 66.734375 33.289062 C 66.917969 33.335938 67.191406 33.335938 67.191406 33.429688 C 67.101562 33.796875 66.550781 33.890625 66.273438 34.257812 L 66.132812 34.257812 C 65.996094 34.351562 66.042969 34.582031 65.90625 34.582031 C 65.765625 34.535156 65.628906 34.582031 65.488281 34.628906 C 65.675781 34.8125 65.90625 34.949219 66.179688 34.90625 C 66.226562 34.90625 66.320312 34.996094 66.320312 35.089844 C 66.320312 35.089844 66.363281 35.089844 66.410156 35.042969 C 66.457031 35.042969 66.503906 35.042969 66.503906 35.089844 L 66.503906 35.273438 C 66.363281 35.457031 66.132812 35.367188 65.949219 35.410156 C 66.320312 35.503906 66.6875 35.503906 67.007812 35.410156 C 67.285156 35.320312 67.007812 34.859375 67.191406 34.628906 C 67.101562 34.628906 67.191406 34.488281 67.101562 34.488281 C 67.191406 34.398438 67.285156 34.257812 67.378906 34.210938 C 67.46875 34.210938 67.609375 34.167969 67.652344 34.074219 C 67.652344 33.984375 67.46875 33.9375 67.515625 33.84375 C 67.792969 33.660156 68.023438 33.382812 67.929688 33.105469 C 67.882812 32.96875 67.515625 32.96875 67.285156 32.875 C 67.054688 32.78125 66.777344 32.875 66.503906 32.921875 C 66.273438 32.921875 66.042969 33.058594 65.8125 33.105469 C 65.488281 33.199219 65.210938 33.382812 64.9375 33.566406 C 65.257812 33.429688 65.582031 33.382812 65.949219 33.289062 C 66.226562 33.289062 66.460938 33.222656 66.734375 33.289062 "/>
</g>
</svg>
