<svg width="113" height="22" viewBox="0 0 113 22" fill="none" xmlns="http://www.w3.org/2000/svg">
<path d="M6.99368 1.13477C8.69193 1.13477 10.1895 1.47442 11.4863 2.15371C12.7986 2.83301 13.8175 3.79021 14.5432 5.02529C15.2688 6.24494 15.6316 7.64985 15.6316 9.24003C15.6316 10.8302 15.2611 12.2428 14.52 13.4779C13.7944 14.713 12.76 15.6702 11.4168 16.3495C10.0891 17.0288 8.5607 17.3685 6.83158 17.3685H0V1.13477H6.99368ZM7.10947 13.9411C7.92772 13.9411 8.65333 13.7481 9.28632 13.3621C9.9193 12.9762 10.4133 12.4281 10.7684 11.7179C11.1235 11.0077 11.3011 10.1972 11.3011 9.28635C11.3011 8.36003 11.1081 7.54178 10.7221 6.83161C10.3516 6.12143 9.83439 5.57336 9.17053 5.1874C8.50667 4.78599 7.75018 4.58529 6.90105 4.58529H4.2379V13.9411H7.10947Z" fill="#4164F5"/>
<path d="M43.0185 1.13477H47.6269L52.328 10.6295L57.0059 1.13477H61.6143V17.3685H57.8627L57.8396 7.08634L53.6943 15.7474H50.9617L46.7932 7.08634V17.3685H43.0185V1.13477Z" fill="#4164F5"/>
<path d="M68.2479 1.13477H72.4858V17.3685H68.2479V1.13477Z" fill="#4164F5"/>
<path d="M79.1168 1.13477H91.2515L91.2284 4.51582H83.3547V8.12845H90.6263V11.5095H83.3547V17.3685H79.1168V1.13477Z" fill="#4164F5"/>
<path d="M107.769 17.3685L106.658 14.4969H99.6408L98.5061 17.3685H94.1524L101.123 1.13477H105.477L112.285 17.3685H107.769ZM100.915 11.2548H105.407L103.184 5.46529L100.915 11.2548Z" fill="#4164F5"/>
<path fill-rule="evenodd" clip-rule="evenodd" d="M28.5313 2.31579C24.6944 2.31579 21.584 5.42623 21.584 9.26316C21.584 13.1001 24.6944 16.2105 28.5313 16.2105C32.3683 16.2105 35.4787 13.1001 35.4787 9.26316C35.4787 5.42623 32.3683 2.31579 28.5313 2.31579ZM19.2682 9.26316C19.2682 4.14726 23.4154 0 28.5313 0C33.6472 0 37.7945 4.14726 37.7945 9.26316C37.7945 14.3791 33.6472 18.5263 28.5313 18.5263C23.4154 18.5263 19.2682 14.3791 19.2682 9.26316Z" fill="#4164F5"/>
<path d="M28.5309 22L25.5226 16.7895L31.5392 16.7895L28.5309 22Z" fill="#4164F5"/>
<path d="M33.1241 8.58414L28.8789 4.14319C28.8043 4.07033 28.7042 4.02954 28.6 4.02954C28.4958 4.02954 28.3957 4.07033 28.3212 4.14319L24.076 8.58414C24.0235 8.63878 23.9882 8.70768 23.9746 8.78223C23.9609 8.85679 23.9695 8.93371 23.9993 9.00342C24.029 9.07313 24.0786 9.13253 24.1419 9.17423C24.2051 9.21593 24.2792 9.23808 24.355 9.23793H24.9339C24.9851 9.23793 25.0341 9.25827 25.0703 9.29448C25.1065 9.33069 25.1268 9.3798 25.1268 9.43101V12.7134C25.1268 12.8671 25.1878 13.0144 25.2964 13.123C25.405 13.2317 25.5522 13.2927 25.7057 13.2927H31.4947C31.6482 13.2927 31.7955 13.2317 31.904 13.123C32.0126 13.0144 32.0736 12.8671 32.0736 12.7134V9.43101C32.0736 9.3798 32.0939 9.33069 32.1301 9.29448C32.1663 9.25827 32.2154 9.23793 32.2666 9.23793H32.8455C32.9211 9.23793 32.9951 9.2157 33.0582 9.17399C33.1213 9.13228 33.1708 9.07293 33.2005 9.00332C33.2301 8.9337 33.2387 8.8569 33.2252 8.78244C33.2116 8.70799 33.1764 8.63916 33.1241 8.58453V8.58414Z" fill="#4164F5"/>
</svg>
