<svg width="123" height="102" viewBox="0 0 123 102" fill="none" xmlns="http://www.w3.org/2000/svg">
<rect width="33" height="12" transform="translate(12 12)" fill="white"/>
<path d="M22.7028 22.5498C22.7068 22.5498 22.7108 22.5439 22.7108 22.5439C22.7428 22.5203 22.7748 22.4909 22.8028 22.4556C22.7988 22.4556 22.7948 22.4556 22.7908 22.4498C22.7628 22.4792 22.7308 22.5145 22.7028 22.5498Z" fill="#1414B2"/>
<path d="M27.1353 21.0629L27.0653 21.1229C27.1053 21.1129 27.1353 21.1029 27.1353 21.0629Z" fill="#1414B2"/>
<path fill-rule="evenodd" clip-rule="evenodd" d="M25.7023 22.5817C25.8306 22.4532 25.959 22.3168 26.0874 22.1765H26.0835C26.3247 21.9038 26.5582 21.6428 26.8383 21.4051C26.9239 21.3272 27.0056 21.261 27.0834 21.2064C27.0948 21.195 27.1006 21.1779 27.1064 21.1612C27.1123 21.1438 27.1182 21.1268 27.1301 21.1168C27.0746 21.1379 27.0304 21.1712 26.986 21.2047C26.94 21.2394 26.8937 21.2742 26.8344 21.296C26.8111 21.296 26.7877 21.2727 26.8111 21.2493C26.8928 21.1908 26.9745 21.1285 27.0523 21.0662H27.0367C27.0134 21.0662 27.0134 21.0428 27.0134 21.0194C26.7237 20.9736 26.5013 21.1708 26.3022 21.3473L26.2897 21.3584C26.2587 21.3739 26.2294 21.3585 26.2064 21.3464C26.1948 21.3403 26.1847 21.335 26.1769 21.335C26.0007 21.3938 25.8488 21.5022 25.6958 21.6114C25.555 21.7119 25.4133 21.813 25.251 21.8765V21.8298C25.1959 21.8487 25.1414 21.8734 25.0868 21.8981C25.0065 21.9345 24.9258 21.971 24.8425 21.9895C24.6902 22.0247 24.549 22.0202 24.4121 22.0158C24.3671 22.0143 24.3226 22.0129 24.2783 22.0129C24.0292 22.0375 23.7832 22.0906 23.5375 22.1437L23.4575 22.161C23.4536 22.1629 23.4497 22.1639 23.4458 22.1649C23.4419 22.1658 23.438 22.1668 23.4341 22.1688C23.2863 22.2077 23.1501 22.2623 23.0139 22.3402L22.9984 22.348C22.993 22.3551 22.9877 22.3614 22.9827 22.3673C22.9768 22.3743 22.9715 22.3806 22.9673 22.3869C22.9206 22.4415 22.8778 22.4882 22.8116 22.5233C22.714 22.5722 22.6295 22.6476 22.5465 22.7219C22.5105 22.754 22.4746 22.7861 22.4382 22.8155C22.4304 22.8233 22.4148 22.8272 22.4031 22.8272C22.2825 22.9441 22.1619 23.061 22.0374 23.1739C22.0297 23.1817 21.9946 23.1856 21.9674 23.1817C21.9674 23.1817 21.9713 23.1817 21.9713 23.1778L21.983 23.1545L22.0413 23.061C22.053 23.0434 22.0637 23.0259 22.0744 23.0084C22.0851 22.9908 22.0958 22.9733 22.1075 22.9558C22.1386 22.909 22.1697 22.8622 22.2047 22.8194C22.2125 22.8077 22.2125 22.796 22.2047 22.7882C22.1969 22.7804 22.1853 22.7765 22.1736 22.7765C22.2864 22.6675 22.4187 22.5739 22.5549 22.4921V22.4882C22.5393 22.4921 22.516 22.4804 22.5276 22.4649C22.539 22.4506 22.5484 22.4342 22.5571 22.4188L22.5665 22.4025C22.5685 22.3986 22.5695 22.3957 22.5704 22.3928C22.5714 22.3899 22.5724 22.3869 22.5743 22.383C22.5724 22.3791 22.5695 22.3762 22.5665 22.3733C22.5636 22.3704 22.5607 22.3675 22.5588 22.3636L22.5352 22.3791C22.507 22.3974 22.478 22.4163 22.4537 22.4376C22.4365 22.4523 22.4205 22.4725 22.4041 22.4932C22.3684 22.5382 22.3307 22.5856 22.2748 22.5856C22.2709 22.5856 22.2514 22.5856 22.2397 22.5817C22.2281 22.5817 22.2203 22.5778 22.2164 22.5739C22.2164 22.572 22.2164 22.571 22.2169 22.5705C22.2174 22.57 22.2183 22.57 22.2203 22.57C22.2203 22.57 22.2242 22.5662 22.2242 22.5623C22.2242 22.5623 22.2242 22.5584 22.2281 22.5584C22.23 22.5545 22.232 22.5515 22.2339 22.5486C22.2358 22.5457 22.2378 22.5428 22.2397 22.5389C22.2417 22.535 22.2436 22.5321 22.2456 22.5291C22.2475 22.5262 22.2495 22.5233 22.2514 22.5194C22.2534 22.5175 22.2543 22.5145 22.2553 22.5116C22.2563 22.5087 22.2572 22.5058 22.2592 22.5038L22.2636 22.4958C22.2674 22.4889 22.272 22.4808 22.2748 22.4726C22.2767 22.4688 22.2786 22.4658 22.2806 22.4629C22.2825 22.46 22.2845 22.4571 22.2864 22.4532C22.2923 22.4454 22.2971 22.4366 22.302 22.4278C22.3068 22.4191 22.3117 22.4103 22.3175 22.4025C22.3214 22.3947 22.3253 22.3869 22.3331 22.3791C22.337 22.3713 22.3409 22.3645 22.3448 22.3577C22.3487 22.3509 22.3526 22.3441 22.3565 22.3363C22.3681 22.3168 22.3565 22.3012 22.3409 22.2973C22.3837 22.2428 22.4343 22.196 22.4965 22.161H22.4887C22.5424 22.1341 22.5977 22.1026 22.6525 22.0713C22.6849 22.0528 22.7177 22.0341 22.7494 22.0168C22.7611 22.0051 22.7727 21.9934 22.7883 21.9856C22.6599 22.0285 22.5432 22.0869 22.4304 22.1649C22.4304 22.1649 22.3992 22.1765 22.3915 22.1843C22.3915 22.1843 22.3681 22.1921 22.337 22.1649C22.3331 22.161 22.3331 22.1571 22.3331 22.1493C22.3466 22.1222 22.3745 22.1043 22.4047 22.0849C22.4266 22.0708 22.4496 22.056 22.4693 22.0363C22.4926 22.0363 22.5121 22.0363 22.5121 22.0597C22.9601 21.7099 23.5126 21.6289 24.067 21.5477C24.4079 21.4978 24.7496 21.4478 25.0681 21.335C25.1012 21.3116 25.1352 21.2892 25.1693 21.2668C25.2033 21.2444 25.2374 21.222 25.2704 21.1986C25.3272 21.1751 25.378 21.1348 25.4318 21.0922C25.4851 21.0501 25.5412 21.0056 25.6089 20.9727C25.7879 20.8363 25.924 20.6805 25.994 20.4506C25.994 20.4272 25.9707 20.4038 25.9707 20.4038C25.675 20.7194 25.3366 20.9688 24.9747 21.1519C24.6297 21.3331 24.2601 21.36 23.8941 21.3866C23.7566 21.3966 23.6196 21.4065 23.4847 21.4246C23.508 21.3778 23.5547 21.3779 23.5975 21.3779C23.5975 21.3225 23.6241 21.2987 23.6583 21.2682C23.6674 21.26 23.6771 21.2514 23.687 21.2415H23.7531C23.7648 21.2415 23.7706 21.2298 23.7765 21.2181C23.7823 21.2064 23.7881 21.1947 23.7998 21.1947C23.8465 21.1947 23.9126 21.1714 23.8893 21.1714C23.8536 21.1257 23.8018 21.1438 23.7445 21.1637C23.6895 21.1829 23.6295 21.2038 23.5742 21.1714C23.5947 21.1489 23.6009 21.1219 23.6066 21.0974C23.6126 21.0708 23.6181 21.0471 23.6403 21.035H23.7298C23.7298 20.9882 23.7765 20.9454 23.7765 20.9454C23.9794 20.8239 24.1753 20.7179 24.3676 20.6138C24.496 20.5443 24.6229 20.4756 24.7491 20.4038C24.7236 20.4038 24.7009 20.4143 24.679 20.4244C24.644 20.4406 24.6107 20.4559 24.5701 20.4272C24.5935 20.4272 24.5935 20.4107 24.5935 20.3941C24.5935 20.3775 24.5935 20.361 24.6168 20.361C24.7628 20.3222 24.8927 20.2592 25.0254 20.195C25.119 20.1496 25.2141 20.1036 25.3171 20.0649C25.2865 20.0649 25.2582 20.0731 25.2306 20.0811C25.1775 20.0964 25.127 20.111 25.0681 20.0649C25.0836 20.0571 25.0961 20.0473 25.1084 20.0375C25.1332 20.0178 25.1574 19.9986 25.2043 19.9986V19.9324C25.2043 19.909 25.2276 19.909 25.251 19.909C25.2276 19.909 25.2043 19.8857 25.2043 19.8857C25.2166 19.8609 25.241 19.8558 25.2681 19.8501C25.2922 19.8451 25.3185 19.8396 25.3405 19.8194C25.3171 19.8194 25.2743 19.8194 25.2743 19.796C25.3404 19.7064 25.4533 19.6831 25.5661 19.6597C25.5544 19.6363 25.5321 19.6363 25.5126 19.6363C25.4932 19.6363 25.4766 19.6363 25.4766 19.6129C25.4766 19.5896 25.5 19.5896 25.5233 19.5896H25.4766C25.44 19.5712 25.4465 19.5385 25.451 19.5158C25.4522 19.5096 25.4533 19.5041 25.4533 19.4999C25.5447 19.3927 25.5747 19.2662 25.6046 19.1404C25.6192 19.0788 25.6338 19.0173 25.6556 18.9584C25.6322 18.9584 25.6089 18.9584 25.6089 18.935C25.3901 19.1767 25.0434 19.2683 24.714 19.3554L24.683 19.3636H24.5701C24.4573 19.4103 24.2978 19.4103 24.185 19.3402C24.1313 19.3122 24.0931 19.2771 24.0517 19.2393C24.0241 19.214 23.9952 19.1875 23.9593 19.161C23.7765 19.048 23.5975 18.9584 23.3952 18.8883C22.8311 18.709 22.2436 18.6155 21.6562 18.6389C21.8202 18.5491 21.9944 18.5133 22.1709 18.4771C22.2623 18.4584 22.3544 18.4395 22.4459 18.4129C22.5037 18.396 22.5609 18.3785 22.6179 18.3611C22.9406 18.2626 23.2536 18.1671 23.5975 18.187C23.5525 18.1711 23.4949 18.1768 23.4418 18.1821C23.4169 18.1846 23.393 18.187 23.3719 18.187C23.1118 18.1677 22.8491 18.2253 22.575 18.2855C22.517 18.2982 22.4584 18.3111 22.3992 18.3233C22.2919 18.3456 22.1898 18.3775 22.0876 18.4095C21.9749 18.4448 21.8621 18.4801 21.7418 18.5025C21.6896 18.5205 21.6477 18.551 21.6068 18.5807C21.5412 18.6285 21.4783 18.6743 21.3799 18.6623V18.5922C21.6056 18.3194 21.8779 18.0506 22.2397 18.0272C22.5895 17.9705 22.9193 18.0109 23.2633 18.053C23.3211 18.0601 23.3792 18.0673 23.438 18.074C23.72 18.0966 23.9839 18.1592 24.2682 18.2267L24.2978 18.2337C24.36 18.2337 24.3951 18.2883 24.429 18.3411C24.4565 18.384 24.4833 18.4258 24.5234 18.4363C24.5788 18.4553 24.6342 18.4589 24.6896 18.4624C24.7704 18.4676 24.8512 18.4728 24.9319 18.5259C24.9319 18.5102 24.9293 18.4949 24.9267 18.4798C24.9215 18.4499 24.9165 18.4206 24.9319 18.3896C24.9821 18.3393 25.0397 18.3528 25.0963 18.3661C25.1407 18.3764 25.1845 18.3867 25.2237 18.3662C25.3471 18.29 25.2314 18.1729 25.1156 18.0558C25.0597 17.9993 25.0039 17.9428 24.9747 17.8909C24.9747 17.8675 24.9981 17.8441 24.9981 17.8441C25.0492 17.8897 25.0968 17.9369 25.144 17.9837C25.2621 18.1008 25.3776 18.2153 25.5389 18.2961C25.6517 18.3428 25.924 18.409 25.8773 18.2727C25.7974 18.0961 25.6609 17.9429 25.5231 17.7883C25.4663 17.7246 25.4094 17.6607 25.356 17.5948V17.5052C25.3205 17.5052 25.312 17.4917 25.3015 17.4749C25.2981 17.4696 25.2946 17.464 25.2899 17.4584V17.3688C25.2328 17.339 25.2201 17.2918 25.2072 17.2443C25.1999 17.2173 25.1926 17.1902 25.177 17.1662C25.1381 17.1033 25.1353 17.0259 25.1324 16.946C25.1301 16.8825 25.1277 16.8175 25.107 16.7571C25.0603 16.6207 25.0409 16.5078 25.0175 16.3714C24.9922 16.2319 24.9643 16.0985 24.937 15.9679C24.8889 15.7374 24.8426 15.5157 24.8152 15.2844C24.7792 14.9538 24.9469 14.6743 25.1183 14.3885C25.1691 14.3037 25.2203 14.2185 25.2665 14.1312C25.426 13.8584 25.605 13.5896 25.9007 13.4065C25.9652 13.1405 26.1407 12.919 26.3154 12.6985L26.3286 12.6818C26.501 12.4679 26.7889 12.3371 27.0011 12.2408L27.025 12.2299C27.3402 12.0896 27.6242 12 27.6281 12H12V23.996H23.0879C23.3844 23.782 23.6791 23.6469 24.0299 23.4862C24.19 23.4129 24.3617 23.3342 24.5507 23.2402C24.5907 23.2201 24.6382 23.1968 24.691 23.171C25.0077 23.0159 25.5122 22.7687 25.7023 22.5817ZM22.184 20.9633C22.14 20.9677 22.0933 20.9723 22.1109 20.9372C22.1273 20.8583 22.2084 20.8347 22.2876 20.8116C22.3215 20.8017 22.355 20.7919 22.383 20.7779L22.3958 20.7714L22.4052 20.7664C22.449 20.7432 22.5027 20.7148 22.5424 20.7313C22.5691 20.7692 22.6022 20.779 22.6344 20.7884C22.6584 20.7955 22.6818 20.8024 22.7017 20.8207C22.6177 20.9047 22.5195 20.913 22.42 20.9214C22.3539 20.9269 22.2873 20.9326 22.2237 20.9605C22.2122 20.9605 22.1982 20.9619 22.184 20.9633ZM18.742 20.4154C18.742 20.4388 18.7653 20.4622 18.7653 20.4622C19.31 19.8505 19.8041 19.3284 20.5044 18.8959C20.5231 18.8881 20.5162 18.8979 20.5069 18.9109C20.4931 18.9302 20.4742 18.9567 20.5277 18.9427C20.7596 18.8901 20.8637 18.6923 20.965 18.5C20.9912 18.4502 21.0172 18.4008 21.0452 18.3544C21.1514 18.1823 21.3023 18.0721 21.4543 17.9611C21.564 17.881 21.6742 17.8004 21.7688 17.696C21.7688 17.7193 21.7688 17.7427 21.7454 17.7661C21.7688 17.7895 21.7921 17.7895 21.8155 17.7895C21.8565 17.7586 21.9013 17.7459 21.9443 17.7336C21.999 17.718 22.0507 17.7033 22.0878 17.6531C21.9088 17.583 21.6793 17.5596 21.5003 17.6297C21.0257 17.8557 20.6211 18.218 20.2359 18.6271C20.0025 18.8726 19.7613 19.1024 19.4656 19.2622C19.2633 19.6674 19.0377 20.0297 18.742 20.4154ZM20.6413 18.9664C20.6291 18.9908 20.6169 19.0035 20.6053 19.0156C20.5947 19.0266 20.5845 19.0372 20.5752 19.0557C20.5519 19.1023 20.5286 19.1217 20.4858 19.145C20.4625 19.145 20.4392 19.145 20.4392 19.1217C20.4625 19.0324 20.5286 18.9431 20.618 18.9198C20.6413 18.9237 20.6413 18.947 20.6413 18.9664ZM21.6362 22.4264C21.6556 22.4069 21.6789 22.3835 21.6906 22.3601C21.71 22.3134 21.5895 22.3251 21.5701 22.3368C21.5525 22.3509 21.5412 22.365 21.5277 22.3821L21.5235 22.3874C21.5073 22.406 21.4883 22.4232 21.469 22.4406C21.4559 22.4525 21.4427 22.4644 21.4302 22.477C21.3758 22.5316 21.3214 22.5861 21.263 22.6368C21.2242 22.6718 21.3486 22.6874 21.3758 22.664C21.4069 22.6407 21.4341 22.6134 21.4613 22.5861C21.4716 22.5861 21.482 22.5844 21.4889 22.5832L21.4937 22.5825L21.4963 22.5822C21.5607 22.5607 21.6086 22.516 21.6553 22.4726L21.6673 22.4614C21.6828 22.4459 21.6634 22.4303 21.6362 22.4264ZM21.2844 22.173C21.284 22.1731 21.2837 22.1732 21.2835 22.1734C21.283 22.1739 21.283 22.1749 21.283 22.1768C21.2591 22.1931 21.2356 22.2097 21.2121 22.2263C21.1512 22.2691 21.0907 22.3117 21.0262 22.3483C20.9645 22.3829 20.9012 22.4128 20.8374 22.4429C20.8006 22.4603 20.7636 22.4778 20.7266 22.4963C20.7266 22.4963 20.7266 22.4924 20.7228 22.4924C20.715 22.4807 20.6994 22.4768 20.6838 22.4846C20.5983 22.5314 20.5243 22.5937 20.4582 22.6599C20.4465 22.6677 20.4349 22.6794 20.4271 22.6911L20.3921 22.7262V22.7301C20.3765 22.7457 20.3609 22.7612 20.3415 22.7846C20.3374 22.7887 20.3343 22.7927 20.3313 22.7966C20.3257 22.8039 20.3205 22.8107 20.3104 22.8158C20.2948 22.8236 20.2559 22.8236 20.2598 22.8002V22.7963C20.2481 22.8041 20.2326 22.8119 20.2209 22.8158C20.215 22.8197 20.2092 22.8226 20.2034 22.8255C20.1975 22.8284 20.1917 22.8314 20.1859 22.8353C20.182 22.8314 20.1742 22.8314 20.1703 22.8314C20.1664 22.8314 20.1586 22.8314 20.1547 22.8353C20.1457 22.8431 20.1366 22.8504 20.1275 22.8578C20.1094 22.8725 20.0912 22.8872 20.073 22.9054C20.0264 22.9483 19.9836 22.995 19.9408 23.0457C19.9408 23.0457 19.9408 23.0495 19.9369 23.0495C19.9369 23.0515 19.9359 23.0525 19.9349 23.0534C19.934 23.0544 19.933 23.0554 19.933 23.0573L19.9252 23.0651C19.9237 23.0666 19.9228 23.0681 19.922 23.0694C19.9207 23.0714 19.9198 23.0729 19.9174 23.0729L19.9135 23.0768C19.9096 23.0846 19.9058 23.0924 19.898 23.1002C19.8941 23.1041 19.8863 23.108 19.8785 23.108C19.8746 23.1041 19.8707 23.1002 19.8707 23.0963C19.8688 23.0944 19.8678 23.0924 19.8668 23.0905C19.8659 23.0885 19.8649 23.0866 19.863 23.0846C19.8591 23.0788 19.8561 23.0729 19.8532 23.0671C19.8503 23.0612 19.8474 23.0554 19.8435 23.0495V23.0457C19.8435 23.0437 19.8425 23.0418 19.8416 23.0398C19.8406 23.0379 19.8396 23.0359 19.8396 23.034L19.9096 22.9521L19.9135 22.9483C19.9174 22.9444 19.9213 22.9395 19.9252 22.9346C19.9291 22.9298 19.933 22.9249 19.9369 22.921C19.9427 22.9132 19.9495 22.9054 19.9563 22.8976C19.9631 22.8898 19.9699 22.882 19.9758 22.8742C19.9777 22.8703 19.9797 22.8674 19.9816 22.8645C19.9836 22.8616 19.9855 22.8586 19.9875 22.8547C20.0108 22.8236 20.0341 22.7924 20.0575 22.7573V22.7534C20.0614 22.7496 20.0653 22.7457 20.0653 22.7379C20.0769 22.7223 20.0886 22.7067 20.0964 22.6911L20.1197 22.6444V22.6405L20.1236 22.6366C20.1236 22.6346 20.1246 22.6336 20.1256 22.6327C20.1265 22.6317 20.1275 22.6307 20.1275 22.6288C20.1314 22.619 20.1353 22.6103 20.1392 22.6015C20.1431 22.5928 20.147 22.584 20.1509 22.5742V22.5703L20.1547 22.5547C20.1567 22.5509 20.1577 22.547 20.1586 22.5431C20.1596 22.5392 20.1606 22.5353 20.1625 22.5314V22.5275C20.1645 22.5216 20.1654 22.5158 20.1664 22.5099C20.1674 22.5041 20.1684 22.4983 20.1703 22.4924C20.1703 22.4885 20.1703 22.4807 20.1664 22.4768C20.1898 22.434 20.2209 22.395 20.2559 22.356C20.254 22.356 20.252 22.357 20.2501 22.358C20.2489 22.3586 20.2478 22.3591 20.2467 22.3595C20.2459 22.3598 20.2451 22.3599 20.2442 22.3599C20.2269 22.3708 20.212 22.3852 20.1968 22.4C20.1847 22.4117 20.1724 22.4236 20.1586 22.434C20.1353 22.4535 20.0886 22.4223 20.1197 22.3989C20.1392 22.3833 20.1547 22.3677 20.1703 22.3522C20.1703 22.3522 20.1703 22.3483 20.1742 22.3483C20.1897 22.3343 20.2046 22.3184 20.2196 22.3025C20.2422 22.2784 20.2652 22.254 20.2909 22.2353C20.3181 22.2158 20.3376 22.2002 20.3609 22.1807C20.3648 22.1768 20.3687 22.1729 20.3726 22.1729C20.3882 22.1535 20.4037 22.134 20.4232 22.1145C20.4232 22.1145 20.4271 22.1145 20.4271 22.1106C20.5607 21.9816 20.7484 21.9361 20.94 21.8896C21.0609 21.8603 21.1833 21.8307 21.2947 21.7794C21.3575 21.7534 21.4277 21.7636 21.497 21.7738C21.552 21.7818 21.6065 21.7898 21.6565 21.7794C21.7226 21.7794 21.7926 21.7794 21.8588 21.8262C21.7049 21.9077 21.5581 22.001 21.4129 22.0933C21.3708 22.12 21.3288 22.1467 21.2869 22.1729C21.2858 22.1729 21.285 22.1729 21.2844 22.173ZM21.7706 20.5851C21.7524 20.5872 21.7406 20.5885 21.7507 20.5986C21.8168 20.6649 21.953 20.6415 22.0464 20.5909C22.1125 20.5441 22.1825 20.5441 22.272 20.5441C22.2954 20.5441 22.2954 20.5012 22.2954 20.4779C22.3615 20.5012 22.4082 20.5012 22.4743 20.5012C23.0151 20.3883 23.5364 20.2753 24.0344 20.0259C23.5305 19.6383 22.9093 19.4656 22.3009 19.2965C22.1999 19.2684 22.0993 19.2405 21.9997 19.2116C22.0216 19.2116 22.0435 19.2189 22.0655 19.2262C22.1101 19.241 22.1552 19.2559 22.202 19.2116C22.1403 19.1626 22.0715 19.1532 22.0035 19.144C21.9472 19.1363 21.8913 19.1286 21.8402 19.0987C21.8455 19.0987 21.8519 19.0999 21.8587 19.1012C21.882 19.1057 21.9116 19.1114 21.9297 19.0753C21.8115 19.0161 21.6933 18.996 21.574 18.9757C21.5127 18.9653 21.451 18.9548 21.3889 18.9389C21.5017 18.9155 21.5717 18.8259 21.5717 18.7129C21.5717 18.6896 21.5251 18.6896 21.5017 18.6896C21.2333 18.8259 21.0504 19.0753 20.9376 19.3675C21.0393 19.4271 21.1489 19.4202 21.2564 19.4134C21.3174 19.4096 21.3778 19.4058 21.4356 19.4142C21.3846 19.4625 21.3108 19.4756 21.24 19.4882C21.2136 19.4929 21.1875 19.4975 21.1632 19.5038C21.0932 19.5194 21.0271 19.5701 21.0504 19.6168C21.066 19.6363 21.0815 19.6441 21.101 19.648C21.0504 19.6636 21.0037 19.687 20.9609 19.7298C21.025 19.78 21.091 19.7703 21.1562 19.7608C21.1821 19.757 21.2078 19.7532 21.2333 19.7532C21.2333 19.7815 21.2519 19.7911 21.2713 19.8011C21.2813 19.8062 21.2915 19.8115 21.2994 19.8194C21.1866 19.8623 21.0971 19.9558 21.0738 20.022C21.0459 20.0895 20.9944 20.1334 20.9433 20.1768C20.9089 20.2062 20.8747 20.2353 20.8481 20.2714V20.3415C20.773 20.4078 20.6957 20.4671 20.6195 20.5255C20.463 20.6455 20.311 20.7621 20.1906 20.9298C20.214 20.9298 20.214 20.9532 20.214 20.9766C20.1924 21.0089 20.1618 21.0313 20.1328 21.0525C20.0988 21.0774 20.067 21.1006 20.0545 21.1363C20.0545 21.1597 20.0545 21.1831 20.0778 21.1831C20.2206 21.1361 20.3441 21.057 20.4652 20.9794C20.5751 20.9091 20.683 20.84 20.8014 20.7973C20.8982 20.7742 20.9825 20.7305 21.0648 20.6878C21.1345 20.6516 21.2028 20.6162 21.2761 20.5947C21.3325 20.5831 21.3947 20.5665 21.457 20.5499C21.5192 20.5334 21.5815 20.5168 21.6379 20.5051C21.6379 20.5285 21.6379 20.5519 21.6612 20.5519H21.8402C21.8292 20.5784 21.7944 20.5824 21.7706 20.5851Z" fill="#1414B2"/>
<path d="M45.0002 12H32.1305C32.1305 12 32.1539 12.0039 32.2511 12.0546C32.3562 12.1092 32.4923 12.1834 32.574 12.2263C32.7413 12.3121 32.9008 12.4213 33.0059 12.5891C33.0526 12.6554 33.1187 12.7919 33.0759 12.8817C33.0292 12.9948 33.0059 13.1782 32.8931 13.2211C32.7569 13.2913 32.5779 13.2913 32.4184 13.2679C32.3289 13.2679 32.2395 13.2445 32.1461 13.2211C32.4846 13.3576 32.8036 13.5176 33.0292 13.8336C33.0526 13.8804 33.142 13.8999 33.2315 13.8999C33.2549 13.8999 33.2549 13.9467 33.2549 13.9662C33.2082 14.013 33.1654 14.0364 33.1887 14.1027H33.2549C33.3677 14.0559 33.3444 13.8296 33.5039 13.8999C33.6167 13.9662 33.6634 14.1261 33.5933 14.2393C33.5039 14.329 33.4144 14.3992 33.321 14.4655C33.2977 14.5124 33.2977 14.5787 33.321 14.6255C33.3871 14.7152 33.4105 14.8049 33.4338 14.8986C33.5039 15.0585 33.5233 15.238 33.5933 15.3979C33.6828 15.7373 33.7723 16.0767 33.7529 16.42C33.7529 16.5995 33.6634 16.7594 33.7295 16.9428C33.7762 17.1222 33.889 17.2588 33.9785 17.4187C34.068 17.5553 34.1575 17.645 34.2275 17.7815C34.3637 18.0078 34.6126 18.2341 34.4998 18.5072C34.4337 18.6671 34.1847 18.6437 34.0252 18.7334C33.889 18.8466 34.0018 19.0299 34.0719 19.143C34.1847 19.3459 33.9357 19.4824 33.7762 19.5527C33.8229 19.6229 33.9124 19.5995 33.9357 19.6424C33.959 19.7555 34.0719 19.8218 34.0018 19.9389C33.9124 20.0754 33.64 20.1417 33.7762 20.3485C33.8657 20.5085 33.8073 20.684 33.7529 20.8479C33.6867 21.0507 33.5039 21.1404 33.3444 21.1873C33.2082 21.2341 33.0487 21.2341 32.9164 21.2107C32.8697 21.1873 32.8269 21.1638 32.7802 21.1638C32.3951 21.117 32.0099 21.0078 31.6287 21.0078C31.5158 21.0312 31.403 21.0507 31.3135 21.0975C31.2124 21.1717 31.119 21.2536 31.0412 21.3394C31.0412 21.3394 31.0412 21.3394 31.0373 21.3433C31.0217 21.3628 31.0023 21.3784 30.9867 21.3979C30.9789 21.4096 30.9673 21.4213 30.9595 21.433C30.9517 21.4408 30.9478 21.4486 30.94 21.4564C30.8739 21.5384 30.8155 21.6281 30.7611 21.7178C30.7572 21.7256 30.7533 21.7295 30.7494 21.7334C30.7455 21.7451 30.7377 21.7529 30.73 21.7646C30.656 21.9012 30.6016 22.0416 30.5588 22.1821C30.4032 22.7009 30.4732 23.1456 30.5821 23.2549C30.6132 23.2861 31.3291 23.5085 31.8271 23.7308C32.0605 23.8362 32.2239 23.9142 32.3601 24H44.9963V12H45.0002Z" fill="#E1000F"/>
<path d="M32.8963 16.3827C32.9858 16.4061 33.122 16.4061 33.122 16.4529C33.0753 16.6321 32.8068 16.6788 32.6707 16.8619H32.6006C32.5345 16.9087 32.554 17.0217 32.4878 17.0217C32.4217 16.9983 32.3517 17.0217 32.2855 17.0451C32.375 17.1347 32.4878 17.2048 32.624 17.1814C32.6473 17.1814 32.6901 17.2282 32.6901 17.271C32.6901 17.271 32.7135 17.271 32.7368 17.2477C32.7602 17.2477 32.7835 17.2477 32.7835 17.271V17.3606C32.7174 17.4503 32.6006 17.4074 32.5112 17.4269C32.694 17.4736 32.873 17.4736 33.0325 17.4269C33.1687 17.3801 33.0325 17.1542 33.122 17.0412C33.0753 17.0412 33.122 16.971 33.0753 16.971C33.122 16.9243 33.1648 16.8581 33.2115 16.8347C33.2581 16.8347 33.3243 16.8113 33.3476 16.7645C33.3476 16.7178 33.2581 16.6983 33.2776 16.6516C33.4138 16.562 33.5266 16.4256 33.4799 16.2892C33.4566 16.2191 33.2776 16.2191 33.1648 16.1762C33.0519 16.1334 32.9158 16.1762 32.7796 16.1996C32.6668 16.1996 32.554 16.2697 32.4411 16.2892C32.2816 16.336 32.1455 16.4256 32.0132 16.5152C32.1727 16.449 32.3283 16.4256 32.5112 16.3788C32.6473 16.3827 32.7602 16.3516 32.8963 16.3827Z" fill="#808080"/>
<path d="M13.236 38H14.94V32.024L16.812 35.12H18.012L19.884 32.024V38H21.588V29.6H19.44L17.412 33.056L15.384 29.6H13.236V38ZM24.1124 38H25.8164V29.6H24.1124V38ZM28.3443 38H30.0483V31.964L33.8043 38H35.9883V29.6H34.2843V35.612L30.5283 29.6H28.3443V38ZM38.5176 38H40.2216V29.6H38.5176V38ZM41.9934 36.836C42.7374 37.724 43.6974 38.24 45.1134 38.24C46.6494 38.24 47.8734 37.28 47.8974 35.72C47.8974 32.876 44.0574 33.224 44.0574 31.724C44.0574 31.232 44.4414 30.848 45.0294 30.848C45.6654 30.848 46.2174 31.256 46.7094 31.892L47.9574 30.776C47.2494 29.924 46.2774 29.36 45.0174 29.36C43.4214 29.36 42.3294 30.464 42.3294 31.796C42.3294 34.592 46.1694 34.256 46.1694 35.756C46.1694 36.368 45.7614 36.728 45.0894 36.728C44.4054 36.728 43.7334 36.344 43.2294 35.696L41.9934 36.836ZM48.9415 31.148H51.5335V38H53.2375V31.148H55.8295V29.6H48.9415V31.148ZM59.1982 28.88H60.7582L59.4022 27.26H57.6502L59.1982 28.88ZM57.5062 38H62.4022V36.548H59.2102V34.448H61.9222V32.996H59.2102V31.052H62.4022V29.6H57.5062V38ZM64.5622 38H66.2662V34.604H67.1422L69.3742 38H71.4142L68.7742 34.28C69.6262 33.872 70.1182 33.116 70.1182 32.108C70.1182 30.548 68.9782 29.6 67.1302 29.6H64.5622V38ZM67.2262 31.052C67.9462 31.052 68.3662 31.448 68.3662 32.084C68.3662 32.768 67.9462 33.152 67.2262 33.152H66.2662V31.052H67.2262ZM72.6496 38H77.5456V36.548H74.3536V34.448H77.0656V32.996H74.3536V31.052H77.5456V29.6H72.6496V38ZM13.236 50H16.536C19.2 50 21 48.068 21 45.8C21 43.532 19.2 41.6 16.536 41.6H13.236V50ZM16.56 43.148C18.12 43.148 19.248 44.3 19.248 45.8C19.248 47.288 18.12 48.452 16.56 48.452H14.94V43.148H16.56ZM22.8233 50H27.7193V48.548H24.5273V46.448H27.2393V44.996H24.5273V43.052H27.7193V41.6H22.8233V50ZM29.1234 48.836C29.8674 49.724 30.8274 50.24 32.2434 50.24C33.7794 50.24 35.0034 49.28 35.0274 47.72C35.0274 44.876 31.1874 45.224 31.1874 43.724C31.1874 43.232 31.5714 42.848 32.1594 42.848C32.7954 42.848 33.3474 43.256 33.8394 43.892L35.0874 42.776C34.3794 41.924 33.4074 41.36 32.1474 41.36C30.5514 41.36 29.4594 42.464 29.4594 43.796C29.4594 46.592 33.2994 46.256 33.2994 47.756C33.2994 48.368 32.8914 48.728 32.2194 48.728C31.5354 48.728 30.8634 48.344 30.3594 47.696L29.1234 48.836ZM39.5325 48.836C40.2765 49.724 41.2365 50.24 42.6525 50.24C44.1885 50.24 45.4125 49.28 45.4365 47.72C45.4365 44.876 41.5965 45.224 41.5965 43.724C41.5965 43.232 41.9805 42.848 42.5685 42.848C43.2045 42.848 43.7565 43.256 44.2485 43.892L45.4965 42.776C44.7885 41.924 43.8165 41.36 42.5565 41.36C40.9605 41.36 39.8685 42.464 39.8685 43.796C39.8685 46.592 43.7085 46.256 43.7085 47.756C43.7085 48.368 43.3005 48.728 42.6285 48.728C41.9445 48.728 41.2725 48.344 40.7685 47.696L39.5325 48.836ZM51.0417 41.36C48.3897 41.36 46.5777 43.4 46.5777 45.8C46.5777 48.2 48.3897 50.24 51.0417 50.24C53.6817 50.24 55.4937 48.2 55.4937 45.8C55.4937 43.4 53.6817 41.36 51.0417 41.36ZM51.0417 48.644C49.4577 48.644 48.3297 47.408 48.3297 45.8C48.3297 44.192 49.4577 42.956 51.0417 42.956C52.6137 42.956 53.7417 44.192 53.7417 45.8C53.7417 47.408 52.6137 48.644 51.0417 48.644ZM57.3069 50H62.2029V48.452H59.0109V41.6H57.3069V50ZM63.8826 50H65.5866V41.6H63.8826V50ZM68.1144 50H71.4144C74.0784 50 75.8784 48.068 75.8784 45.8C75.8784 43.532 74.0784 41.6 71.4144 41.6H68.1144V50ZM71.4384 43.148C72.9984 43.148 74.1264 44.3 74.1264 45.8C74.1264 47.288 72.9984 48.452 71.4384 48.452H69.8184V43.148H71.4384ZM76.4583 50H78.2703L79.0743 47.816H82.4343L83.2383 50H85.0503L81.8703 41.6H79.6383L76.4583 50ZM79.6023 46.364L80.7543 43.208L81.9063 46.364H79.6023ZM86.5274 50H88.2314V46.604H89.1074L91.3394 50H93.3794L90.7394 46.28C91.5914 45.872 92.0834 45.116 92.0834 44.108C92.0834 42.548 90.9434 41.6 89.0954 41.6H86.5274V50ZM89.1914 43.052C89.9114 43.052 90.3314 43.448 90.3314 44.084C90.3314 44.768 89.9114 45.152 89.1914 45.152H88.2314V43.052H89.1914ZM94.6148 50H96.3188V41.6H94.6148V50ZM97.9826 43.148H100.575V50H102.279V43.148H104.871V41.6H97.9826V43.148ZM109.751 40.88L111.311 39.26H109.559L108.203 40.88H109.751ZM106.547 50H111.443V48.548H108.251V46.448H110.963V44.996H108.251V43.052H111.443V41.6H106.547V50ZM112.847 48.836C113.591 49.724 114.551 50.24 115.967 50.24C117.503 50.24 118.727 49.28 118.751 47.72C118.751 44.876 114.911 45.224 114.911 43.724C114.911 43.232 115.295 42.848 115.883 42.848C116.519 42.848 117.071 43.256 117.563 43.892L118.811 42.776C118.103 41.924 117.131 41.36 115.871 41.36C114.275 41.36 113.183 42.464 113.183 43.796C113.183 46.592 117.023 46.256 117.023 47.756C117.023 48.368 116.615 48.728 115.943 48.728C115.259 48.728 114.587 48.344 114.083 47.696L112.847 48.836ZM13.236 62H18.132V60.548H14.94V58.448H17.652V56.996H14.94V55.052H18.132V53.6H13.236V62ZM19.6039 55.148H22.1959V62H23.8999V55.148H26.4919V53.6H19.6039V55.148ZM31.4629 62H34.7629C37.4269 62 39.2269 60.068 39.2269 57.8C39.2269 55.532 37.4269 53.6 34.7629 53.6H31.4629V62ZM34.7869 55.148C36.3469 55.148 37.4749 56.3 37.4749 57.8C37.4749 59.288 36.3469 60.452 34.7869 60.452H33.1669V55.148H34.7869ZM41.0502 62H45.9462V60.548H42.7542V58.448H45.4662V56.996H42.7542V55.052H45.9462V53.6H41.0502V62ZM51.4007 62H56.2967V60.452H53.1047V53.6H51.4007V62ZM57.2836 62H59.0956L59.8996 59.816H63.2596L64.0636 62H65.8756L62.6956 53.6H60.4636L57.2836 62ZM60.4276 58.364L61.5796 55.208L62.7316 58.364H60.4276ZM69.8911 60.836C70.6351 61.724 71.5951 62.24 73.0111 62.24C74.5471 62.24 75.7711 61.28 75.7951 59.72C75.7951 56.876 71.9551 57.224 71.9551 55.724C71.9551 55.232 72.3391 54.848 72.9271 54.848C73.5631 54.848 74.1151 55.256 74.6071 55.892L75.8551 54.776C75.1471 53.924 74.1751 53.36 72.9151 53.36C71.3191 53.36 70.2271 54.464 70.2271 55.796C70.2271 58.592 74.0671 58.256 74.0671 59.756C74.0671 60.368 73.6591 60.728 72.9871 60.728C72.3031 60.728 71.6311 60.344 71.1271 59.696L69.8911 60.836ZM76.6589 62H78.4709L79.2749 59.816H82.6349L83.4389 62H85.2509L82.0709 53.6H79.8389L76.6589 62ZM79.8029 58.364L80.9549 55.208L82.1069 58.364H79.8029ZM86.728 62H88.432V55.964L92.188 62H94.372V53.6H92.668V59.612L88.912 53.6H86.728V62ZM96.0373 55.148H98.6293V62H100.333V55.148H102.925V53.6H96.0373V55.148ZM107.806 52.88L109.366 51.26H107.614L106.258 52.88H107.806ZM104.602 62H109.498V60.548H106.306V58.448H109.018V56.996H106.306V55.052H109.498V53.6H104.602V62Z" fill="#1E1E1E"/>
<path fill-rule="evenodd" clip-rule="evenodd" d="M43.18 84.614L42.0638 85.6339H41.7758L42.4359 84.47H43.18V84.614ZM42.3759 88.5614H42.1359C41.8358 88.9213 41.4998 89.2093 41.1757 89.2093C40.8397 89.2093 40.6717 89.0053 40.6717 88.5614C40.6717 88.3814 40.6957 88.1894 40.7317 88.0214L42.688 87.3734C43.072 86.4615 42.6159 86.0655 42.0759 86.0655C41.1517 86.0655 40.0956 87.6854 40.0956 88.9813C40.0956 89.5933 40.3836 89.9293 40.8397 89.9293C41.3678 89.9173 41.9198 89.4013 42.3759 88.5614ZM41.7046 86.5938C41.9686 86.5938 42.1966 86.7978 42.0766 87.2657L40.8644 87.5897C41.0565 87.0138 41.4165 86.5938 41.7046 86.5938ZM37.8886 86.6175H38.5367L37.5045 89.4493C37.4085 89.6893 37.5405 89.9293 37.7925 89.9293C38.5247 89.9293 39.4008 89.3053 39.7368 88.4174H39.5568C39.2928 88.7894 38.7167 89.1973 38.2846 89.2693L39.2328 86.6175H40.2049L40.3249 86.2095H39.3768L39.7368 85.1896H39.3648L38.6927 86.2095L37.8886 86.3175V86.6175ZM36.9878 86.0782C37.1198 86.0782 37.2998 86.2222 37.2158 86.4862L36.0516 89.306C36.3517 89.258 36.6637 88.97 36.8438 88.706H37.0358C36.7597 89.414 36.1356 89.93 35.5956 89.93C35.4636 89.93 35.2715 89.786 35.3675 89.522L36.4477 86.7022C36.1477 86.7502 35.8356 87.0381 35.6556 87.3021H35.4756C35.7516 86.5822 36.4237 86.0782 36.9878 86.0782ZM37.3246 85.3579C37.5647 85.3579 37.7687 85.1659 37.7687 84.9139C37.7687 84.674 37.5647 84.47 37.3246 84.47C37.0726 84.47 36.8806 84.674 36.8806 84.9139C36.8806 85.1539 37.0846 85.3579 37.3246 85.3579ZM32.0797 87.6981C32.3437 87.1221 32.2477 86.8581 32.0797 86.8581C31.9357 86.8581 31.7676 87.0141 31.5996 87.3021H31.4196C31.6956 86.6902 32.0557 86.0782 32.4517 86.0782C32.7878 86.0782 32.9078 86.4142 32.9078 86.7862V87.3141C32.9618 87.2513 33.0144 87.1896 33.0658 87.1293L33.0667 87.1282L33.0675 87.1273C33.5745 86.5324 33.9617 86.0782 34.408 86.0782C34.7561 86.0782 34.9361 86.2942 34.9361 86.6182C34.9361 86.8102 34.8761 87.0501 34.7441 87.3021L33.7479 89.306C34.048 89.258 34.36 88.97 34.54 88.706H34.7201C34.444 89.426 33.7719 89.93 33.2079 89.93C32.9558 89.93 32.8118 89.666 32.9198 89.45L34.072 87.2301C34.204 86.9781 34.228 86.8102 34.024 86.8102C33.7479 86.8102 33.0998 87.2661 32.7518 87.6861L31.9957 89.678C31.9117 89.882 31.8277 89.93 31.6356 89.93C31.3236 89.93 31.1676 89.726 31.3116 89.402L32.0797 87.6981ZM31.2987 86.9294C31.4307 86.4735 31.3587 86.0655 31.0106 86.0655C30.5766 86.0655 30.4407 86.3521 30.02 87.2391L29.9905 87.3014V86.7735C29.9905 86.4015 29.8705 86.0655 29.5344 86.0655C29.1384 86.0655 28.7783 86.6775 28.5023 87.2894H28.6823C28.8743 87.0134 29.0544 86.8455 29.1984 86.8455C29.3664 86.8455 29.4624 87.1094 29.1984 87.6854L28.4303 89.3893C28.2863 89.7133 28.4423 89.9173 28.7543 89.9173C28.9464 89.9173 29.0304 89.8693 29.1144 89.6653L29.8705 87.6734C30.0865 87.4094 30.2785 87.1814 30.5186 86.9294H31.2987ZM27.5064 87.2657C27.6264 86.7978 27.3984 86.5938 27.1344 86.5938C26.8463 86.5938 26.4863 87.0138 26.2942 87.5897L27.5064 87.2657ZM27.8057 88.5614H27.5657C27.2656 88.9213 26.9296 89.2093 26.6055 89.2093C26.2695 89.2093 26.1015 89.0053 26.1015 88.5614C26.1015 88.3814 26.1255 88.1894 26.1615 88.0214L28.1178 87.3734C28.5018 86.4615 28.0458 86.0655 27.5057 86.0655C26.5815 86.0655 25.5254 87.6854 25.5254 88.9813C25.5254 89.5933 25.8134 89.9293 26.2695 89.9293C26.7976 89.9173 27.3497 89.4013 27.8057 88.5614ZM23.9665 86.6175H23.3184V86.3175L24.1225 86.2095L24.7946 85.1896H25.1666L24.8066 86.2095H25.7547L25.6347 86.6175H24.6626L23.7144 89.2693C24.1465 89.1973 24.7226 88.7894 24.9866 88.4174H25.1666C24.8306 89.3053 23.9545 89.9293 23.2224 89.9293C22.9703 89.9293 22.8383 89.6893 22.9343 89.4493L23.9665 86.6175ZM19.8865 88.8136C19.8865 87.9377 20.8586 86.7617 21.3987 86.7617C21.5187 86.7617 21.6387 86.7737 21.7347 86.8097L21.1707 88.3217C20.8466 88.7176 20.3425 89.1976 20.1025 89.1976C19.9705 89.1976 19.8865 89.0776 19.8865 88.8136ZM22.5632 85.8858L22.8632 85.9098L21.8191 88.3097C21.567 88.8856 21.675 89.1496 21.8191 89.1496C21.9631 89.1496 22.1431 88.9816 22.3351 88.7057H22.5152C22.2391 89.3176 21.8791 89.9296 21.483 89.9296C21.147 89.9296 20.9429 89.5696 21.0029 88.9216L21.0269 88.6937L20.9616 88.7849C20.5317 89.3858 20.1427 89.9296 19.7428 89.9296C19.3947 89.9296 19.2147 89.7136 19.2147 89.3896C19.2147 87.9977 20.7389 86.2218 22.1671 86.2218H22.2271L22.5632 85.8858ZM19.814 86.9294C19.946 86.4735 19.874 86.0655 19.526 86.0655C19.0919 86.0655 18.956 86.3521 18.5354 87.2391L18.5058 87.3014V86.7735C18.5058 86.4015 18.3858 86.0655 18.0498 86.0655C17.6537 86.0655 17.2937 86.6775 17.0176 87.2894H17.1976C17.3897 87.0134 17.5697 86.8455 17.7017 86.8455C17.8697 86.8455 17.9658 87.1094 17.7017 87.6854L16.9336 89.4013C16.7896 89.7253 16.9456 89.9293 17.2576 89.9293C17.4497 89.9293 17.5337 89.8813 17.6177 89.6773L18.3738 87.6854C18.5898 87.4214 18.7819 87.1934 19.0219 86.9414H19.814V86.9294ZM14.8684 89.5686L14.7964 89.7846H12L12.072 89.5566C12.9361 89.4006 13.0802 89.3286 13.4402 88.3566L14.2203 86.2688C14.5684 85.2968 14.4964 85.2248 13.7403 85.0688L13.8123 84.8528H17.4488L17.2328 86.0168H16.9687C16.9687 85.3208 16.8967 85.1408 16.2366 85.1408H16.0686C15.4205 85.1408 15.3365 85.2368 15.1565 85.7408L14.6404 87.1447H15.3965C15.9006 87.1447 16.0926 86.8327 16.3206 86.4247H16.5847L15.9606 88.1286H15.6965C15.7565 87.6127 15.7565 87.4087 15.2885 87.4087H14.5324L14.1843 88.3686C13.8081 89.3678 13.9156 89.3882 14.8115 89.5578C14.8301 89.5613 14.8491 89.5649 14.8684 89.5686Z" fill="black"/>
<path fill-rule="evenodd" clip-rule="evenodd" d="M17.2448 75.434L16.1286 76.2384V76.2505H15.8405L16.5006 75.29H17.2448V75.434ZM25.0472 81.0647L26.8355 76.3104L26.7755 76.2384L25.5393 76.3824V76.5265L25.7793 76.7066C25.9843 76.866 25.93 77.0147 25.76 77.4804L25.7313 77.559L24.3631 81.2088C24.2551 81.4249 24.3991 81.689 24.6511 81.689C25.2152 81.689 25.8153 81.1728 26.0914 80.4644H25.9114C25.7193 80.7286 25.3353 81.0167 25.0472 81.0647ZM33.2438 77.4029L34.36 76.3824V76.2384H33.6159L32.9558 77.4029H33.2438ZM33.315 80.3204H33.5551C33.111 81.1728 32.5589 81.689 32.0308 81.689C31.5747 81.689 31.2867 81.3529 31.2867 80.7406C31.2867 79.4439 32.3429 77.8231 33.267 77.8231C33.7951 77.8231 34.2632 78.2193 33.8791 79.1318L31.9108 79.7801C31.8748 79.9482 31.8508 80.1403 31.8508 80.3204C31.8508 80.7646 32.0188 80.9687 32.3549 80.9687C32.6789 80.9687 33.015 80.6805 33.315 80.3204ZM33.2544 79.0238C33.3745 78.5675 33.1464 78.3634 32.8824 78.3634C32.6063 78.3634 32.2463 78.7836 32.0422 79.3479L33.2544 79.0238ZM29.7258 78.3871H29.0777V78.087L29.8818 77.9789L30.554 76.9584H30.926L30.566 77.9789H31.5141L31.3941 78.3871H30.4219L29.4738 81.0404C29.9058 80.9684 30.4819 80.5602 30.746 80.188H30.926C30.59 81.0765 29.7138 81.7008 28.9817 81.7008C28.7296 81.7008 28.5976 81.4607 28.6936 81.2205L29.7258 78.3871ZM28.4055 78.243C28.4775 77.9789 28.3095 77.8348 28.1655 77.8348C27.6014 77.8348 26.9292 78.3511 26.6532 79.0595H26.8332C27.0133 78.7953 27.3253 78.5072 27.6254 78.4592L26.5452 81.2805C26.4492 81.5447 26.6412 81.6887 26.7732 81.6887C27.3133 81.6887 27.9374 81.1725 28.2135 80.4641H28.0334C27.8534 80.7283 27.5413 81.0164 27.2413 81.0644L28.4055 78.243ZM28.9585 76.6826C28.9585 76.9227 28.7544 77.1268 28.5144 77.1268C28.2744 77.1268 28.0703 76.9227 28.0703 76.6826C28.0703 76.4425 28.2624 76.2384 28.5144 76.2384C28.7544 76.2384 28.9585 76.4425 28.9585 76.6826ZM22.8987 78.5315C22.3586 78.5315 21.3864 79.7081 21.3864 80.5845C21.3864 80.8486 21.4704 80.9687 21.6145 80.9687C21.8425 80.9687 22.3466 80.4884 22.6706 80.0922L23.2347 78.5795C23.1267 78.5435 23.0187 78.5315 22.8987 78.5315ZM24.3632 77.6791L24.0632 77.6551L23.7271 77.9912H23.6671C22.2389 77.9912 20.7146 79.7681 20.7146 81.1608C20.7146 81.485 20.8946 81.7011 21.2427 81.7011C21.6426 81.7011 22.0316 81.157 22.4616 80.5558L22.5269 80.4645L22.5029 80.6926C22.4429 81.3409 22.6469 81.7011 22.983 81.7011C23.3791 81.7011 23.7391 81.0888 24.0152 80.4765H23.8351C23.6431 80.7526 23.4631 80.9207 23.3191 80.9207C23.175 80.9207 23.067 80.6565 23.3191 80.0803L24.3632 77.6791ZM18.3135 81.5691C17.7974 81.7732 17.4373 82.0133 17.4373 82.3855C17.4373 82.7337 17.7614 82.8778 18.4335 82.8778C19.3337 82.8778 19.8258 82.6136 19.8258 82.2655C19.8258 82.1094 19.6217 82.0373 19.0816 81.8573C18.7336 81.7492 18.4815 81.6532 18.3135 81.5691ZM18.9128 80.0923C18.6728 80.0923 18.5888 79.8882 18.5888 79.6721C18.5888 78.9758 18.9248 78.1114 19.4649 78.1114C19.705 78.1114 19.789 78.3155 19.789 78.5316C19.777 79.2399 19.4409 80.0923 18.9128 80.0923ZM19.3701 81.2208C20.0302 81.4249 20.4383 81.581 20.4383 82.0372C20.4383 82.6255 19.3581 83.3218 18.0499 83.3098C17.2937 83.3098 16.6456 83.1057 16.6456 82.6135C16.6456 82.1453 17.0777 81.7611 18.1339 81.4489C17.9899 81.3529 17.9299 81.2328 17.9299 81.0647C17.9299 80.7766 18.1939 80.5485 18.65 80.3324C18.2059 80.2723 17.9178 79.9362 17.9178 79.4439C17.9178 78.6875 18.542 77.8231 19.5261 77.8231C19.7302 77.8231 19.9102 77.8711 20.0542 77.9672H21.1344L21.0144 78.3754H20.3783C20.4143 78.4834 20.4383 78.6035 20.4383 78.7356C20.4383 79.4679 19.8502 80.3083 18.914 80.3564C18.674 80.4884 18.554 80.6685 18.554 80.8126C18.554 80.9821 18.7503 81.0394 19.1842 81.1661C19.2419 81.183 19.3039 81.2011 19.3701 81.2208ZM15.5646 79.1679C16.0327 79.1679 16.0447 79.372 15.9727 79.8882H16.2367L16.8609 78.1834H16.5968C16.3688 78.5916 16.1767 78.9037 15.6726 78.9037H14.6405L15.1446 77.499C15.3246 76.9948 15.4086 76.8988 16.0567 76.8988H16.5128C17.1729 76.8988 17.2449 77.0788 17.2449 77.7752H17.509L17.725 76.6106H13.8123L13.7403 76.8267C14.4964 76.9828 14.5684 77.0548 14.2204 78.0273L13.4403 80.1283C13.0802 81.1008 12.9362 81.1729 12.06 81.3289L12 81.557H16.3448L17.1249 80.3204H16.8248C16.3208 80.8127 15.8167 81.2689 14.8325 81.2689C13.75 81.2689 13.7693 81.2159 14.0941 80.3234C14.115 80.2659 14.1372 80.205 14.1604 80.1403L14.5204 79.1799H15.5646V79.1679Z" fill="black"/>
<path fill-rule="evenodd" clip-rule="evenodd" d="M19.1496 68.8876C19.3896 68.8876 19.5936 68.6837 19.5936 68.4438C19.5936 68.2039 19.3896 68 19.1496 68C18.8977 68 18.7057 68.2039 18.7057 68.4438C18.7057 68.6957 18.8977 68.8876 19.1496 68.8876ZM22.7022 70.3986C22.7022 69.8229 22.5583 69.607 22.1503 69.607C21.6464 69.607 21.1785 70.1467 20.7106 70.7944L21.7184 68.0956L21.6584 68.0117L20.4227 68.1556V68.2996L20.6626 68.4795C20.8716 68.6419 20.811 68.8044 20.633 69.2818L20.6146 69.3311L19.5229 72.1858C19.4269 72.4257 19.3189 72.7136 19.3189 72.7856C19.3189 73.1214 19.7748 73.4453 20.1947 73.4453C21.1305 73.4573 22.7022 71.73 22.7022 70.3986ZM33.1042 69.1752L34.22 68.1556V68.0117H33.4761L32.8163 69.1752H33.1042ZM33.1765 72.0899H33.4164C32.9605 72.9415 32.4086 73.4573 31.8807 73.4453C31.4248 73.4453 31.1369 73.1214 31.1369 72.5097C31.1369 71.2143 32.1927 69.595 33.1165 69.595C33.6444 69.595 34.1123 69.9908 33.7284 70.9024L31.7727 71.5501C31.7368 71.7181 31.7128 71.91 31.7128 72.0899C31.7128 72.5337 31.8807 72.7376 32.2167 72.7376C32.5406 72.7376 32.8765 72.4497 33.1765 72.0899ZM33.1153 70.7945C33.2353 70.3387 33.0073 70.1348 32.7434 70.1348C32.4555 70.1348 32.0955 70.5546 31.9036 71.1184L33.1153 70.7945ZM29.5747 70.1595H28.9268V69.8596L29.7306 69.7516L30.4025 68.7321H30.7744L30.4145 69.7516H31.3623L31.2423 70.1595H30.2705L29.3227 72.8103C29.7546 72.7383 30.3305 72.3305 30.5945 71.9587H30.7744C30.4385 72.8463 29.5627 73.47 28.8308 73.47C28.5789 73.47 28.4469 73.2301 28.5429 72.9902L29.5747 70.1595ZM28.5931 70.4713C28.7251 70.0155 28.6531 69.6077 28.3052 69.6077C27.8713 69.6077 27.7354 69.8942 27.3149 70.7809L27.2854 70.8431V70.3154C27.2854 69.9435 27.1654 69.6077 26.8295 69.6077C26.4336 69.6077 26.0736 70.2194 25.7977 70.8311H25.9776C26.1696 70.5553 26.3496 70.3873 26.4815 70.3873C26.6495 70.3873 26.7455 70.6512 26.4815 71.227L25.7137 72.9302C25.5697 73.2541 25.7257 73.458 26.0376 73.458C26.2296 73.458 26.3136 73.41 26.3976 73.2061L27.1534 71.215C27.3694 70.9511 27.5613 70.7232 27.8013 70.4713H28.5931ZM24.7902 70.7945C24.9101 70.3387 24.6822 70.1348 24.4182 70.1348C24.1303 70.1348 23.7823 70.5546 23.5784 71.1184L24.7902 70.7945ZM25.0893 72.0899H24.8494C24.5495 72.4497 24.2135 72.7376 23.8896 72.7376C23.5536 72.7376 23.3857 72.5337 23.3857 72.0899C23.3857 71.91 23.4097 71.7181 23.4457 71.5501L25.4013 70.9024C25.7852 69.9908 25.3293 69.595 24.7894 69.595C23.8656 69.595 22.8098 71.2143 22.8098 72.5097C22.8098 73.1214 23.0977 73.4453 23.5536 73.4453C24.0815 73.4573 24.6334 72.9415 25.0893 72.0899ZM20.0512 72.5461C20.0512 72.702 20.3272 72.882 20.5191 72.882C21.299 72.882 22.0308 71.4786 22.0188 70.6989C22.0188 70.435 21.8869 70.3271 21.7069 70.3271C21.419 70.3271 20.8911 70.7589 20.5551 71.1667L20.2432 72.0064C20.1352 72.2822 20.0512 72.4981 20.0512 72.5461ZM18.7917 69.6077C18.9357 69.6077 19.1036 69.7516 19.0316 70.0155L17.8799 72.8343C18.1798 72.7863 18.4917 72.4984 18.6717 72.2345H18.8517C18.5757 72.9422 17.9518 73.458 17.4119 73.458C17.268 73.458 17.076 73.314 17.172 73.0502L18.2518 70.2314C17.9518 70.2794 17.6399 70.5673 17.4599 70.8311H17.28C17.5559 70.1235 18.2278 69.6077 18.7917 69.6077ZM13.8116 68.3602H16.3911L16.3192 68.5881C15.4433 68.744 15.2994 68.816 14.9394 69.7876L14.1716 71.8986C13.7997 72.9062 13.8956 73.0261 14.5555 73.0261C15.3708 73.0261 15.9053 72.4337 16.3721 71.9164C16.4068 71.878 16.4411 71.84 16.4751 71.8027H16.7751L15.9232 73.314H12L12.072 73.0981C12.9358 72.9422 13.0798 72.8702 13.4397 71.8986L14.2196 69.7756C14.5675 68.804 14.4955 68.732 13.7397 68.5761L13.8116 68.3602Z" fill="black"/>
</svg>
