<svg width="332" height="65" viewBox="0 0 332 65" fill="none" xmlns="http://www.w3.org/2000/svg">
<g clip-path="url(#clip0_2274_24852)">
<path d="M20.5478 3.35278C25.5374 3.35278 29.9373 4.35629 33.7474 6.36329C37.603 8.37031 40.5965 11.1984 42.7287 14.8475C44.8605 18.451 45.9265 22.6019 45.9265 27.3001C45.9265 31.9984 44.8379 36.172 42.6605 39.8211C40.5287 43.4703 37.4896 46.2984 33.5432 48.3054C29.6423 50.3124 25.1518 51.3161 20.0715 51.3161H0V3.35278H20.5478ZM20.888 41.1897C23.2921 41.1897 25.4239 40.6194 27.2837 39.479C29.1434 38.3388 30.5948 36.7194 31.6381 34.6211C32.6814 32.5228 33.2032 30.1281 33.2032 27.437C33.2032 24.7001 32.6362 22.2826 31.5021 20.1844C30.4136 18.0861 28.894 16.4668 26.9435 15.3265C24.9931 14.1405 22.7704 13.5475 20.2757 13.5475H12.4512V41.1897H20.888Z" fill="#1212FF"/>
<path d="M126.391 3.35278H139.93L153.742 31.4054L167.486 3.35278H181.026V51.3161H170.004L169.936 20.937L157.757 46.5265H149.728L137.481 20.937V51.3161H126.391V3.35278Z" fill="#1212FF"/>
<path d="M200.516 3.35278H212.967V51.3161H200.516V3.35278Z" fill="#1212FF"/>
<path d="M232.449 3.35278H268.102L268.034 13.3422H244.9V24.0159H266.265V34.0054H244.9V51.3161H232.449V3.35278Z" fill="#1212FF"/>
<path d="M316.631 51.3161L313.367 42.8318H292.75L289.416 51.3161H276.625L297.105 3.35278H309.897L329.899 51.3161H316.631ZM296.494 33.2529H309.691L303.16 16.1475L296.494 33.2529Z" fill="#1212FF"/>
<path fill-rule="evenodd" clip-rule="evenodd" d="M83.8266 6.84211C72.5535 6.84211 63.415 16.032 63.415 27.3684C63.415 38.7048 72.5535 47.8947 83.8266 47.8947C95.0999 47.8947 104.238 38.7048 104.238 27.3684C104.238 16.032 95.0999 6.84211 83.8266 6.84211ZM56.6111 27.3684C56.6111 12.2533 68.7958 0 83.8266 0C98.8573 0 111.042 12.2533 111.042 27.3684C111.042 42.4837 98.8573 54.7368 83.8266 54.7368C68.7958 54.7368 56.6111 42.4837 56.6111 27.3684Z" fill="#1212FF"/>
<path d="M83.8254 65L74.9868 49.6053H92.6639L83.8254 65Z" fill="#1212FF"/>
<path d="M97.3203 25.3622L84.8477 12.2412C84.6285 12.0259 84.3344 11.9054 84.0282 11.9054C83.7221 11.9054 83.428 12.0259 83.2091 12.2412L70.7365 25.3622C70.5822 25.5236 70.4785 25.7272 70.4386 25.9474C70.3983 26.1677 70.4236 26.395 70.5111 26.6009C70.5984 26.8069 70.7441 26.9824 70.9301 27.1056C71.1158 27.2288 71.3335 27.2943 71.5562 27.2938H73.257C73.4075 27.2938 73.5514 27.3539 73.6578 27.4609C73.7641 27.5679 73.8238 27.713 73.8238 27.8643V37.5623C73.8238 38.0164 74.003 38.4516 74.3221 38.7724C74.6412 39.0936 75.0736 39.2738 75.5246 39.2738H92.533C92.984 39.2738 93.4168 39.0936 93.7356 38.7724C94.0546 38.4516 94.2339 38.0164 94.2339 37.5623V27.8643C94.2339 27.713 94.2935 27.5679 94.3999 27.4609C94.5062 27.3539 94.6505 27.2938 94.8009 27.2938H96.5017C96.7239 27.2938 96.9413 27.2281 97.1267 27.1049C97.3121 26.9817 97.4575 26.8063 97.5448 26.6007C97.6317 26.395 97.657 26.1681 97.6173 25.9481C97.5774 25.7281 97.4739 25.5236 97.3203 25.3622Z" fill="#1212FF"/>
</g>
<defs>
<clipPath id="clip0_2274_24852">
<rect width="332" height="65" fill="white"/>
</clipPath>
</defs>
</svg>
