<svg width="148" height="29" viewBox="0 0 148 29" fill="none" xmlns="http://www.w3.org/2000/svg">
<g clip-path="url(#clip0_1287_52156)">
<path d="M9.15986 1.49582C11.3841 1.49582 13.3455 1.94354 15.044 2.83897C16.7628 3.73441 18.0973 4.99617 19.0477 6.62423C19.9981 8.23195 20.4732 10.0839 20.4732 12.18C20.4732 14.2762 19.988 16.1382 19.0173 17.7663C18.067 19.3944 16.7122 20.6562 14.953 21.5516C13.214 22.447 11.2122 22.8948 8.94756 22.8948H0V1.49582H9.15986ZM9.31152 18.3769C10.3832 18.3769 11.3336 18.1225 12.1626 17.6137C12.9916 17.105 13.6387 16.3825 14.1037 15.4463C14.5688 14.5101 14.8014 13.4417 14.8014 12.2411C14.8014 11.02 14.5487 9.94142 14.0431 9.00529C13.5578 8.06914 12.8804 7.34669 12.011 6.83792C11.1415 6.30879 10.1507 6.04423 9.03854 6.04423H5.55052V18.3769H9.31152Z" fill="#1212FF"/>
<path d="M56.3438 1.49582H62.3795L68.5367 14.0116L74.6635 1.49582H80.6993V22.8948H75.7857L75.7555 9.34107L70.3262 20.7579H66.7472L61.2876 9.34107V22.8948H56.3438V1.49582Z" fill="#1212FF"/>
<path d="M89.3867 1.49582H94.9372V22.8948H89.3867V1.49582Z" fill="#1212FF"/>
<path d="M103.621 1.49582H119.514L119.484 5.95266H109.172V10.7148H118.695V15.1716H109.172V22.8948H103.621V1.49582Z" fill="#1212FF"/>
<path d="M141.149 22.8948L139.693 19.1095H130.503L129.017 22.8948H123.314L132.444 1.49582H138.147L147.063 22.8948H141.149ZM132.172 14.8359H138.055L135.143 7.20423L132.172 14.8359Z" fill="#1212FF"/>
<path fill-rule="evenodd" clip-rule="evenodd" d="M37.3685 3.05263C32.3432 3.05263 28.2694 7.15276 28.2694 12.2105C28.2694 17.2683 32.3432 21.3684 37.3685 21.3684C42.394 21.3684 46.4678 17.2683 46.4678 12.2105C46.4678 7.15276 42.394 3.05263 37.3685 3.05263ZM25.2363 12.2105C25.2363 5.46684 30.6681 0 37.3685 0C44.069 0 49.5009 5.46684 49.5009 12.2105C49.5009 18.9543 44.069 24.421 37.3685 24.421C30.6681 24.421 25.2363 18.9543 25.2363 12.2105Z" fill="#1212FF"/>
<path d="M37.3678 29L33.4277 22.1316H41.3079L37.3678 29Z" fill="#1212FF"/>
<path d="M43.3843 11.3155L37.8242 5.46149C37.7265 5.36544 37.5954 5.31168 37.4589 5.31168C37.3225 5.31168 37.1914 5.36544 37.0938 5.46149L31.5337 11.3155C31.4649 11.3875 31.4187 11.4783 31.4009 11.5766C31.3829 11.6749 31.3942 11.7763 31.4332 11.8682C31.4721 11.96 31.5371 12.0383 31.62 12.0933C31.7028 12.1483 31.7998 12.1775 31.8991 12.1773H32.6573C32.7244 12.1773 32.7886 12.2041 32.836 12.2518C32.8834 12.2996 32.91 12.3643 32.91 12.4318V16.7586C32.91 16.9612 32.9899 17.1554 33.1321 17.2985C33.2743 17.4418 33.4671 17.5222 33.6682 17.5222H41.2502C41.4513 17.5222 41.6442 17.4418 41.7863 17.2985C41.9285 17.1554 42.0084 16.9612 42.0084 16.7586V12.4318C42.0084 12.3643 42.035 12.2996 42.0824 12.2518C42.1298 12.2041 42.1941 12.1773 42.2612 12.1773H43.0194C43.1184 12.1773 43.2153 12.148 43.298 12.093C43.3806 12.038 43.4455 11.9598 43.4844 11.868C43.5231 11.7763 43.5344 11.675 43.5167 11.5769C43.4989 11.4787 43.4528 11.3875 43.3843 11.3155Z" fill="#1212FF"/>
</g>
<defs>
<clipPath id="clip0_1287_52156">
<rect width="148" height="29" fill="white"/>
</clipPath>
</defs>
</svg>
