<svg width="48" height="49" viewBox="0 0 48 49" fill="none" xmlns="http://www.w3.org/2000/svg">
<g opacity="0.4">
<path d="M46.2917 17L40.6697 2.94203C40.5575 2.66286 40.3641 2.4238 40.1144 2.25585C39.8648 2.08789 39.5705 1.99877 39.2697 2.00003H8.30766C8.00668 1.99822 7.71213 2.08712 7.46241 2.25515C7.21268 2.42318 7.01937 2.66254 6.90766 2.94203L2.10766 14.942C2.0162 15.1702 1.98223 15.4174 2.00875 15.6619C2.03528 15.9063 2.12148 16.1405 2.25977 16.3437C2.39806 16.547 2.58419 16.7132 2.8018 16.8276C3.0194 16.9421 3.2618 17.0013 3.50766 17H21.2757C21.5765 17.0013 21.8708 16.9122 22.1204 16.7442C22.3701 16.5762 22.5635 16.3372 22.6757 16.058L28.2917 2.00003" stroke="#4164F5" stroke-width="3" stroke-linecap="round" stroke-linejoin="round"/>
<path d="M43.2916 9.5V23C43.2916 23.7956 42.9756 24.5587 42.4129 25.1213C41.8503 25.6839 41.0873 26 40.2916 26H7.29163C6.49598 26 5.73291 25.6839 5.17031 25.1213C4.6077 24.5587 4.29163 23.7956 4.29163 23V17" stroke="#4164F5" stroke-width="3" stroke-linecap="round" stroke-linejoin="round"/>
<path d="M31.2916 11H37.2916" stroke="#4164F5" stroke-width="3" stroke-linecap="round" stroke-linejoin="round"/>
<path d="M25.2916 26V47" stroke="#4164F5" stroke-width="3" stroke-linecap="round" stroke-linejoin="round"/>
<path d="M19.2916 26V47" stroke="#4164F5" stroke-width="3" stroke-linecap="round" stroke-linejoin="round"/>
</g>
</svg>
