
<svg width="16" height="15" viewBox="0 0 16 15" fill="none" xmlns="http://www.w3.org/2000/svg">
<path fill-rule="evenodd" clip-rule="evenodd" d="M7.96334 1.09239e-05C9.05116 -0.00190708 10.1246 0.248771 11.099 0.732305C12.0737 1.21596 12.9227 1.91936 13.5792 2.78708C14.2357 3.6548 14.6817 4.66313 14.8821 5.7326C15.0825 6.80208 15.0317 7.90347 14.7339 8.95C14.436 9.99652 13.8992 10.9596 13.1657 11.7633C12.4322 12.5669 11.5221 13.1893 10.5071 13.5813C9.49207 13.9733 8.39988 14.1242 7.31659 14.0221C6.31946 13.9282 5.35495 13.6222 4.48728 13.126L0.669908 14.9445C0.490857 15.0297 0.277498 14.993 0.137246 14.8528C-0.00300607 14.7126 -0.0397518 14.4992 0.0455085 14.3202L1.86339 10.5022C1.28576 9.49273 0.967416 8.35419 0.938911 7.18877C0.908289 5.93683 1.21326 4.6995 1.82219 3.60518C2.43111 2.51087 3.32179 1.59945 4.4018 0.965513C5.48159 0.331702 6.71129 -0.00165701 7.96334 1.09239e-05ZM7.96344 0.468448L7.96276 0.936884C6.87764 0.93532 5.81188 1.22418 4.87606 1.77348C3.94024 2.32278 3.16848 3.11252 2.64085 4.06073C2.11323 5.00893 1.84897 6.08107 1.8755 7.16586C1.90204 8.25066 2.21839 9.30859 2.79175 10.2299C2.87611 10.3654 2.88562 10.5346 2.81698 10.6788L1.45901 13.5308L4.31054 12.1724C4.45467 12.1038 4.62384 12.1132 4.75941 12.1976C5.56015 12.6956 6.46563 13.0009 7.40448 13.0894C8.34332 13.1778 9.28989 13.0471 10.1696 12.7073C11.0493 12.3676 11.838 11.8282 12.4737 11.1317C13.1094 10.4352 13.5747 9.60052 13.8328 8.69354C14.0909 7.78655 14.1349 6.83201 13.9613 5.90513C13.7876 4.97825 13.4011 4.10436 12.8321 3.35234C12.2631 2.60032 11.5273 1.9907 10.6826 1.57154C9.83785 1.15237 8.90732 0.935116 7.96432 0.936884L7.96344 0.468448Z" fill="#4164F5"/>
</svg>
