<svg width="17" height="17" viewBox="0 0 17 17" fill="none" xmlns="http://www.w3.org/2000/svg">
<path d="M9 11.132V14.9986C9 15.2638 9.10536 15.5182 9.29289 15.7057C9.48043 15.8933 9.73478 15.9986 10 15.9986H14C14.2652 15.9986 14.5196 15.8933 14.7071 15.7057C14.8946 15.5182 15 15.2638 15 14.9986V11.132" stroke="#4164F5" stroke-linecap="round" stroke-linejoin="round"/>
<path d="M8 12.0067L11.012 9.37132C11.2854 9.1318 11.6365 8.99976 12 8.99976C12.3635 8.99976 12.7146 9.1318 12.988 9.37132L16 12.0067" stroke="#4164F5" stroke-linecap="round" stroke-linejoin="round"/>
<path d="M13 16H11V14C11 13.7348 11.1054 13.4804 11.2929 13.2929C11.4804 13.1054 11.7348 13 12 13C12.2652 13 12.5196 13.1054 12.7071 13.2929C12.8946 13.4804 13 13.7348 13 14V16Z" stroke="#4164F5" stroke-linecap="round" stroke-linejoin="round"/>
<path d="M3 5H10" stroke="#4164F5" stroke-linecap="round" stroke-linejoin="round"/>
<path d="M3 8H8.5" stroke="#4164F5" stroke-linecap="round" stroke-linejoin="round"/>
<path d="M3 11H5.5" stroke="#4164F5" stroke-linecap="round" stroke-linejoin="round"/>
<path d="M5.5 14H2C1.73478 14 1.48043 13.8946 1.29289 13.7071C1.10536 13.5196 1 13.2652 1 13V2C1 1.73478 1.10536 1.48043 1.29289 1.29289C1.48043 1.10536 1.73478 1 2 1H9.086C9.35103 1.00006 9.6052 1.10532 9.79267 1.29267L11.7073 3.20733C11.8947 3.3948 11.9999 3.64897 12 3.914V7" stroke="#4164F5" stroke-linecap="round" stroke-linejoin="round"/>
</svg>
