<svg width="13" height="17" viewBox="0 0 13 17" fill="none" xmlns="http://www.w3.org/2000/svg">
<path d="M5 3H2C1.73478 3 1.48043 3.10536 1.29289 3.29289C1.10536 3.48043 1 3.73478 1 4V15C1 15.2652 1.10536 15.5196 1.29289 15.7071C1.48043 15.8946 1.73478 16 2 16H11C11.2652 16 11.5196 15.8946 11.7071 15.7071C11.8946 15.5196 12 15.2652 12 15V4C12 3.73478 11.8946 3.48043 11.7071 3.29289C11.5196 3.10536 11.2652 3 11 3H8" stroke="#4164F5" stroke-linecap="round" stroke-linejoin="round"/>
<path d="M8 2.5C8 2.10218 7.84196 1.72064 7.56066 1.43934C7.27936 1.15804 6.89782 1 6.5 1C6.10218 1 5.72064 1.15804 5.43934 1.43934C5.15804 1.72064 5 2.10218 5 2.5V4.5C5 4.63261 5.05268 4.75979 5.14645 4.85355C5.24022 4.94732 5.36739 5 5.5 5H7.5C7.63261 5 7.75979 4.94732 7.85355 4.85355C7.94732 4.75979 8 4.63261 8 4.5V2.5Z" stroke="#4164F5" stroke-linecap="round" stroke-linejoin="round"/>
<path d="M4.25 9.25C4.25 9.84674 4.48705 10.419 4.90901 10.841C5.33097 11.2629 5.90326 11.5 6.5 11.5C7.09674 11.5 7.66903 11.2629 8.09099 10.841C8.51295 10.419 8.75 9.84674 8.75 9.25C8.75 8.65326 8.51295 8.08097 8.09099 7.65901C7.66903 7.23705 7.09674 7 6.5 7C5.90326 7 5.33097 7.23705 4.90901 7.65901C4.48705 8.08097 4.25 8.65326 4.25 9.25V9.25Z" stroke="#4164F5" stroke-linecap="round" stroke-linejoin="round"/>
<path d="M10.5 16C10.3698 15.0314 9.89255 14.1431 9.15692 13.4997C8.4213 12.8564 7.47725 12.5018 6.5 12.5018C5.52275 12.5018 4.5787 12.8564 3.84308 13.4997C3.10745 14.1431 2.63023 15.0314 2.5 16" stroke="#4164F5" stroke-linecap="round" stroke-linejoin="round"/>
<path d="M8.74321 9.07603C8.02082 9.28276 7.25821 9.30567 6.5247 9.14266C5.7912 8.97966 5.11007 8.63593 4.54321 8.1427" stroke="#4164F5" stroke-linecap="round" stroke-linejoin="round"/>
</svg>
