<svg width="14" height="16" viewBox="0 0 14 16" fill="none" xmlns="http://www.w3.org/2000/svg">
<path d="M7 9V7" stroke="#4164F5" stroke-linecap="round" stroke-linejoin="round"/>
<path d="M7 5.54068C7.0663 5.54068 7.12989 5.51434 7.17678 5.46746C7.22366 5.42057 7.25 5.35698 7.25 5.29068" stroke="#4164F5" stroke-linecap="round" stroke-linejoin="round"/>
<path d="M6.75 5.29068C6.75 5.35698 6.77634 5.42057 6.82322 5.46746C6.87011 5.51434 6.9337 5.54068 7 5.54068" stroke="#4164F5" stroke-linecap="round" stroke-linejoin="round"/>
<path d="M7 5.04068C6.9337 5.04068 6.87011 5.06702 6.82322 5.1139C6.77634 5.16079 6.75 5.22438 6.75 5.29068" stroke="#4164F5" stroke-linecap="round" stroke-linejoin="round"/>
<path d="M7.25 5.29068C7.25 5.22438 7.22366 5.16079 7.17678 5.1139C7.12989 5.06702 7.0663 5.04068 7 5.04068" stroke="#4164F5" stroke-linecap="round" stroke-linejoin="round"/>
<path d="M13 6.5C12.9998 5.36476 12.6775 4.25289 12.0706 3.29351C11.4636 2.33413 10.597 1.56661 9.57129 1.08011C8.54558 0.593608 7.4029 0.408078 6.27596 0.54507C5.14902 0.682063 4.08407 1.13596 3.20479 1.85403C2.32552 2.57211 1.668 3.5249 1.30861 4.60175C0.949212 5.67859 0.902693 6.8353 1.17445 7.93753C1.44621 9.03976 2.02509 10.0423 2.84386 10.8286C3.66264 11.615 4.6877 12.153 5.8 12.38L7 15.5L8.2 12.38C9.55524 12.1034 10.7733 11.367 11.648 10.2955C12.5227 9.22398 13.0003 7.88318 13 6.5V6.5Z" stroke="#4164F5" stroke-linecap="round" stroke-linejoin="round"/>
</svg>
