<svg width="290" height="216" viewBox="0 0 290 216" fill="none" xmlns="http://www.w3.org/2000/svg">
<path d="M290 189.819H0V189.964H290V189.819Z" fill="#EBEBEB"/>
<path d="M49.637 195.34H30.4262V195.485H49.637V195.34Z" fill="#EBEBEB"/>
<path d="M131.403 193.767H99.2612V193.912H131.403V193.767Z" fill="#EBEBEB"/>
<path d="M63.9114 198.783H52.78V198.928H63.9114V198.783Z" fill="#EBEBEB"/>
<path d="M248.619 195.268H223.567V195.413H248.619V195.268Z" fill="#EBEBEB"/>
<path d="M257.456 195.268H253.782V195.413H257.456V195.268Z" fill="#EBEBEB"/>
<path d="M187.95 197.302H160.784V197.447H187.95V197.302Z" fill="#EBEBEB"/>
<path d="M137.468 163.966H25.4707C23.6454 163.966 22.16 162.481 22.16 160.657V3.30903C22.16 1.48472 23.6454 0.00012207 25.4707 0.00012207H137.468C139.293 0.00012207 140.778 1.48472 140.778 3.30903V160.657C140.778 162.481 139.293 163.966 137.468 163.966ZM25.4707 0.145625C23.7249 0.145625 22.305 1.56472 22.305 3.30961V160.658C22.305 162.403 23.7249 163.822 25.4707 163.822H137.468C139.213 163.822 140.633 162.403 140.633 160.658V3.30903C140.633 1.56472 139.213 0.145046 137.468 0.145046L25.4707 0.145625Z" fill="#EBEBEB"/>
<path d="M262.92 163.966H150.923C149.098 163.966 147.613 162.481 147.613 160.657V3.30903C147.613 1.48472 149.098 0.00012207 150.923 0.00012207H262.92C264.746 0.00012207 266.23 1.48472 266.23 3.30903V160.657C266.231 162.481 264.746 163.966 262.92 163.966ZM150.923 0.145625C149.178 0.145625 147.758 1.56472 147.758 3.30961V160.658C147.758 162.403 149.178 163.822 150.923 163.822H262.92C264.666 163.822 266.085 162.403 266.085 160.658V3.30903C266.085 1.56472 264.666 0.145046 262.92 0.145046L150.923 0.145625Z" fill="#EBEBEB"/>
<path d="M172.748 11.2705H60.7741V91.6118H172.748V11.2705Z" fill="#FAFAFA"/>
<path d="M166.375 91.6118L137.895 11.2705H116.521L145.002 91.6118H166.375Z" fill="white"/>
<path d="M108.903 91.6118L80.4216 11.2705H72.6259L101.107 91.6118H108.903Z" fill="white"/>
<path d="M55.4353 8.50769H178.087C178.36 8.50769 178.584 8.73145 178.584 9.00507C178.584 9.27869 178.36 9.50245 178.087 9.50245H55.4353C55.1615 9.50245 54.9376 9.27869 54.9376 9.00507C54.9376 8.73145 55.1615 8.50769 55.4353 8.50769Z" fill="#E0E0E0"/>
<path d="M117.424 11.0978H116.097V91.7845H117.424V11.0978Z" fill="#F0F0F0"/>
<path d="M116.097 11.0978H115.434V91.7845H116.097V11.0978Z" fill="#E0E0E0"/>
<path d="M60.0005 50.7778V52.1041L173.522 52.1041V50.7778L60.0005 50.7778Z" fill="#F0F0F0"/>
<path d="M60.0004 91.0588V11.823V10.4967H61.3269H172.194H173.522V11.823V91.0588V92.3852H172.194H61.3269H60.0004V91.0588ZM172.194 91.0588V11.823H61.3269V91.0588H172.194Z" fill="#F0F0F0"/>
<path d="M60.0004 10.4967H59.3369V92.3852H60.0004V10.4967Z" fill="#E0E0E0"/>
<path opacity="0.5" d="M76.4614 7.29211V101.642H52.4958L56.891 7.29211H76.4614Z" fill="#EBEBEB"/>
<path opacity="0.5" d="M156.398 7.29211V101.642H180.363L175.968 7.29211H156.398Z" fill="#EBEBEB"/>
<path d="M45.0561 112.946H35.9159V187.049H45.0561V112.946Z" fill="#F0F0F0"/>
<path d="M138.374 187.049H37.671V189.82H138.374V187.049Z" fill="#F0F0F0"/>
<path d="M45.0565 187.049H140.13V112.946L45.0565 112.946L45.0565 187.049Z" fill="#F5F5F5"/>
<path d="M44.1078 110.528H34.7657V112.946H44.1078V110.528Z" fill="#F0F0F0"/>
<path d="M44.1081 112.946L141.28 112.946V110.528L44.1081 110.528V112.946Z" fill="#FAFAFA"/>
<path d="M136.843 154.648H48.343V118.022H136.843V154.648ZM48.9566 154.034H136.229V118.636H48.9566V154.034Z" fill="#E0E0E0"/>
<path d="M136.843 181.973H48.343V158.315H136.843V181.973ZM48.9566 181.359H136.229V158.928H48.9566V181.359Z" fill="#E0E0E0"/>
<path d="M124.108 120.296H61.0769C60.6309 120.296 60.2661 119.931 60.2661 119.485V119.139C60.2661 118.693 60.6309 118.328 61.0769 118.328H124.108C124.554 118.328 124.919 118.693 124.919 119.139V119.485C124.919 119.931 124.554 120.296 124.108 120.296Z" fill="#E0E0E0"/>
<path d="M124.108 160.589H61.0769C60.6309 160.589 60.2661 160.224 60.2661 159.778V159.432C60.2661 158.986 60.6309 158.622 61.0769 158.622H124.108C124.554 158.622 124.919 158.986 124.919 159.432V159.778C124.919 160.224 124.554 160.589 124.108 160.589Z" fill="#E0E0E0"/>
<path d="M201.758 186.264H254.931L254.931 24.1135H201.758L201.758 186.264Z" fill="#F0F0F0"/>
<path d="M201.758 24.1132H200.071V186.263H201.758V24.1132Z" fill="#E0E0E0"/>
<path d="M210.385 180.078H246.304L246.304 30.2989H210.385L210.385 180.078Z" fill="#FAFAFA"/>
<path d="M145 216C207.108 216 257.456 213.061 257.456 209.436C257.456 205.811 207.108 202.872 145 202.872C82.8925 202.872 32.5444 205.811 32.5444 209.436C32.5444 213.061 82.8925 216 145 216Z" fill="#F5F5F5"/>
<path d="M83.1465 204.39L87.6873 202.668L84.9074 191.699L80.366 193.421L83.1465 204.39Z" fill="#B55B52"/>
<path d="M49.0257 204.478H53.8826L54.6099 193.237H49.753L49.0257 204.478Z" fill="#B55B52"/>
<path d="M54.3686 203.916H48.4468C48.2484 203.916 48.0831 204.054 48.0495 204.247L47.3048 208.562C47.2276 209.01 47.6006 209.433 48.0588 209.425C49.9623 209.393 51.3468 209.281 53.7463 209.281C55.2224 209.281 59.682 209.434 61.7207 209.434C63.7147 209.434 63.9253 207.419 63.0819 207.237C59.2992 206.419 56.423 205.29 55.1713 204.214C54.9457 204.02 54.6586 203.916 54.3686 203.916Z" fill="#263238"/>
<path d="M87.4565 202.155L82.4974 204.035C82.3118 204.105 82.1999 204.295 82.2283 204.491L82.8623 208.866C82.9278 209.319 83.3964 209.595 83.8222 209.426C85.5999 208.717 87.1085 207.818 89.3716 207.006C92.0182 206.056 94.645 205.041 96.7869 203.677C98.4683 202.607 97.7602 200.58 96.9673 200.898C93.358 202.346 92.4729 202.822 88.6849 202.094C88.2725 202.015 87.848 202.006 87.4565 202.155Z" fill="#263238"/>
<path d="M74.6442 56.5437C76.1731 59.2428 77.7832 62.0253 79.406 64.7174C81.0277 67.4217 82.6952 70.0941 84.463 72.5995C84.8917 73.2343 85.3661 73.8412 85.7936 74.4285C85.9705 74.6911 86.0459 74.7664 86.1706 74.8656C86.297 74.9583 86.5934 75.0424 87.0516 75.0035C87.5046 74.9717 88.0793 74.8395 88.6738 74.6186C89.8756 74.1804 91.1615 73.4615 92.4195 72.6575C93.0447 72.2465 93.6798 71.8233 94.3016 71.3729C94.9141 70.9283 95.5492 70.4309 96.1152 69.9944L98.8389 72.4181C98.3169 73.1775 97.8071 73.8227 97.2451 74.4894C96.6912 75.1485 96.1147 75.7971 95.4883 76.4087C94.8677 77.0278 94.2088 77.6249 93.4942 78.189C92.782 78.7559 92.0181 79.2997 91.1562 79.7785C90.2944 80.2556 89.3443 80.7002 88.2081 80.9779C87.0846 81.2469 85.7147 81.3512 84.2902 80.9663C82.8599 80.6017 81.5706 79.6881 80.7157 78.7107C80.1333 78.0359 79.5649 77.4064 79.0337 76.7397C76.8801 74.1027 74.98 71.3735 73.1768 68.5962C71.3835 65.7991 69.7264 62.9992 68.1581 60.0236L74.6442 56.5437Z" fill="#B65B52"/>
<path d="M66.0296 56.7668C64.7199 61.2194 73.939 73.3588 73.939 73.3588L83.2347 67.3804C83.2347 67.3804 80.5029 61.1869 76.7932 56.4636C72.9849 51.6144 67.4668 51.8799 66.0296 56.7668Z" fill="#6A6AF4"/>
<path opacity="0.2" d="M66.0296 56.7668C64.7199 61.2194 73.939 73.3588 73.939 73.3588L83.2347 67.3804C83.2347 67.3804 80.5029 61.1869 76.7932 56.4636C72.9849 51.6144 67.4668 51.8799 66.0296 56.7668Z" fill="black"/>
<path opacity="0.2" d="M71.6961 61.9939C73.6084 62.8101 76.422 67.4123 77.8859 70.8233L73.9407 73.3571C73.9407 73.3571 70.3888 68.6824 68.0108 64.0681C69.2572 62.7017 70.6852 61.5649 71.6961 61.9939Z" fill="black"/>
<path d="M95.5434 71.5079L97.2463 66.7411L102.08 69.0465C102.08 69.0465 101.077 73.298 97.5398 73.2911L95.5434 71.5079Z" fill="#B55B52"/>
<path d="M101.548 63.6014L103.593 65.8611L102.081 69.0471L97.2469 66.7411L101.548 63.6014Z" fill="#B55B52"/>
<path opacity="0.2" d="M84.9068 191.703L86.3411 197.357L81.798 199.079L80.3642 193.425L84.9068 191.703Z" fill="black"/>
<path opacity="0.2" d="M49.7518 193.24H54.6111L54.2335 199.034H49.3743L49.7518 193.24Z" fill="black"/>
<path d="M44.3798 54.7976C49.6114 73.2371 48.7553 92.8025 49.0819 96.7774C52.8884 96.6412 67.2266 96.1009 75.0427 95.8053C79.4524 68.319 71.5331 53.0208 71.5331 53.0208C71.5331 53.0208 69.8673 52.6973 67.6019 52.4649C66.8914 52.3924 66.1252 52.3281 65.3271 52.2863C64.8863 52.2597 64.4385 52.2457 63.9844 52.2365C61.0537 52.1884 56.2675 52.6539 52.9702 53.0567C52.28 53.1425 51.5765 53.2463 50.8973 53.357C50.2662 53.4648 49.6474 53.579 49.0645 53.6956C46.4203 54.2225 44.3798 54.7976 44.3798 54.7976Z" fill="#6A6AF4"/>
<path opacity="0.2" d="M44.3798 54.7976C49.6114 73.2371 48.7553 92.8025 49.0819 96.7774C52.8884 96.6412 67.2266 96.1009 75.0427 95.8053C79.4524 68.319 71.5331 53.0208 71.5331 53.0208C71.5331 53.0208 69.8673 52.6973 67.6019 52.4649C66.8914 52.3924 66.1252 52.3281 65.3271 52.2863C64.8863 52.2597 64.4385 52.2457 63.9844 52.2365C61.0537 52.1884 56.2675 52.6539 52.9702 53.0567C52.28 53.1425 51.5765 53.2463 50.8973 53.357C50.2662 53.4648 49.6474 53.579 49.0645 53.6956C46.4203 54.2225 44.3798 54.7976 44.3798 54.7976Z" fill="black"/>
<path opacity="0.2" d="M49.9067 62.7081C50.3724 64.4919 49.84 72.6325 47.9764 74.64C47.7224 72.0337 47.3837 69.312 46.9359 66.5301L49.9067 62.7081Z" fill="black"/>
<path d="M53.1402 40.5806C54.0983 44.0703 55.2752 50.5079 52.972 53.055C55.0403 54.8249 57.7222 56.8486 61.9411 56.6834C66.1594 56.5182 65.2094 53.6805 63.9844 52.2365C59.9633 51.5873 59.8467 48.6494 60.3304 45.8465L53.1402 40.5806Z" fill="#B55B52"/>
<path d="M62.0484 56.0834L62.8146 56.6016L60.019 57.4149L60.7393 56.1216L62.0484 56.0834Z" fill="#6A6AF4"/>
<path d="M63.1034 55.8115L62.8146 56.6016L65.6218 57.415L65.4321 55.9141L63.1034 55.8115Z" fill="#6A6AF4"/>
<path d="M51.2935 52.7878L52.3984 52.2336C52.7574 52.0533 53.186 52.0875 53.5085 52.3269C54.6685 53.1884 57.7547 55.2208 62.0484 56.0834C59.8299 57.1419 60.3786 59.9807 60.3786 59.9807C60.3786 59.9807 53.3316 57.6578 51.069 53.4527C50.9397 53.2121 51.0493 52.9107 51.2935 52.7878Z" fill="white"/>
<path d="M65.2164 52.0567L63.5964 51.8133C63.4085 51.7849 63.2803 51.9947 63.3899 52.1501C63.956 52.9518 64.895 54.7251 63.104 55.812C65.3225 56.8705 66.0127 59.4606 66.0127 59.4606C66.0127 59.4606 68.9005 56.3453 65.5336 52.2365C65.4547 52.1402 65.3393 52.0753 65.2164 52.0567Z" fill="white"/>
<path opacity="0.2" d="M56.0715 42.7301L60.3269 45.8442C60.2104 46.508 60.1309 47.1775 60.1326 47.8233C58.6067 47.7178 56.4102 46.2158 56.1324 44.6477C55.9938 43.8657 55.9706 43.1063 56.0715 42.7301Z" fill="black"/>
<path d="M65.4628 33.4247C65.2685 35.1087 63.6509 36.5615 62.6034 36.9244L61.3002 29.586C64.2298 27.5223 65.736 31.0573 65.4628 33.4247Z" fill="#263238"/>
<path d="M51.6728 35.448C52.5172 40.1911 52.7701 43.0101 55.4665 45.184C59.5225 48.454 65.1699 45.5869 65.7609 40.6873C66.2928 36.2769 64.8225 29.2609 59.925 27.8986C55.1 26.5566 50.8283 30.7049 51.6728 35.448Z" fill="#B55B52"/>
<path d="M52.5747 38.6461C54.7729 39.8136 55.7409 37.1894 55.76 36.1262C55.7896 34.4312 55.0554 32.5732 54.1807 31.8927C58.424 31.8677 66.8195 31.6828 64.7019 27.6429C62.5843 23.6024 58.3434 24.0645 55.1464 26.2737C53.4569 27.4412 47.9933 26.425 49.3476 29.5745C46.4986 31.0869 48.9694 36.7314 52.5747 38.6461Z" fill="#263238"/>
<path d="M49.8133 29.3142C49.8133 29.3142 48.8778 29.4011 47.7189 28.6023C48.053 30.1025 49.5726 30.1373 49.5726 30.1373L49.8133 29.3142Z" fill="#263238"/>
<path d="M49.8881 39.3493C50.4612 40.5151 51.5197 41.3075 52.5358 41.6362C54.0647 42.1301 54.415 40.729 54.0438 39.2537C53.7098 37.9256 52.99 36.1175 51.4298 36.2659C49.8928 36.412 49.2327 38.016 49.8881 39.3493Z" fill="#B55B52"/>
<path d="M80.6977 147.126C78.724 132.442 75.0421 95.807 75.0421 95.807L57.9762 96.447C57.9762 96.447 66.0254 133.058 68.9388 147.901C71.8521 162.745 79.9541 198.574 79.9541 198.574L87.6449 195.663C87.6449 195.663 82.7521 162.393 80.6977 147.126Z" fill="#263238"/>
<path opacity="0.2" d="M64.3481 106.318C63.2832 106.584 61.6012 107.237 60.5543 108.259C62.1638 115.661 64.2698 125.404 66.0788 133.992C67.3131 126.552 67.3496 112.516 64.3481 106.318Z" fill="black"/>
<path d="M65.8341 96.1525C65.8341 96.1525 62.2131 135.894 60.5543 150.021C58.7378 165.491 56.47 197.912 56.47 197.912H47.5745C47.5745 197.912 47.2056 169.237 48.3621 154.094C49.6793 136.845 49.0837 96.782 49.0837 96.782L65.8341 96.1525Z" fill="#263238"/>
<path d="M57.652 198.104H47.1772L46.9568 194.976L58.6519 194.773L57.652 198.104Z" fill="#6A6AF4"/>
<path d="M88.6785 195.476L79.5151 198.949L78.3922 195.99L88.5764 191.952L88.6785 195.476Z" fill="#6A6AF4"/>
<path d="M59.0764 35.9482C59.1211 36.3372 59.3635 36.6288 59.6182 36.5992C59.8728 36.5702 60.0421 36.2311 59.9975 35.8421C59.9528 35.4532 59.7104 35.1616 59.4558 35.1912C59.2011 35.2201 59.0312 35.5593 59.0764 35.9482Z" fill="#263238"/>
<path d="M63.4752 35.4415C63.5199 35.8305 63.7629 36.1221 64.0169 36.0925C64.2715 36.0635 64.4409 35.7244 64.3962 35.3354C64.3516 34.9465 64.1086 34.6549 63.8545 34.6844C63.6005 34.714 63.4305 35.0525 63.4752 35.4415Z" fill="#263238"/>
<path d="M62.0989 35.7963C62.0989 35.7963 63.2426 37.9382 64.3417 38.9086C63.7275 39.6304 62.5229 39.4715 62.5229 39.4715L62.0989 35.7963Z" fill="#A02724"/>
<path d="M61.0021 40.7011C59.4988 40.6721 58.6937 39.7243 58.6566 39.6797C58.616 39.631 58.6229 39.5585 58.6717 39.518C58.7204 39.4774 58.7929 39.4843 58.8335 39.5324C58.8428 39.5435 59.783 40.6437 61.4858 40.4478C61.5491 40.4408 61.6059 40.486 61.6134 40.5487C61.621 40.6118 61.5752 40.6686 61.5125 40.6762C61.3345 40.6971 61.1645 40.7046 61.0021 40.7011Z" fill="#263238"/>
<path d="M57.5563 34.6844C57.5181 34.6838 57.4792 34.6734 57.4438 34.6525C57.3342 34.5882 57.2982 34.4473 57.3626 34.3377C58.0093 33.2421 59.0696 33.1824 59.1148 33.1807C59.2418 33.1749 59.3491 33.2734 59.3549 33.4004C59.3607 33.5267 59.2627 33.634 59.1363 33.6404C59.1015 33.6421 58.275 33.6972 57.7588 34.5719C57.7153 34.6456 57.6364 34.6861 57.5563 34.6844Z" fill="#263238"/>
<path d="M65.1961 33.7112C65.1218 33.7094 65.0493 33.6723 65.0064 33.6045C64.4606 32.7483 63.633 32.721 63.5982 32.7205C63.4717 32.7176 63.3702 32.6132 63.3725 32.4868C63.3743 32.3605 63.4775 32.259 63.6045 32.2608C63.6504 32.2625 64.7112 32.2845 65.395 33.3576C65.4634 33.4648 65.4315 33.6068 65.3248 33.6752C65.2842 33.7007 65.2396 33.7117 65.1961 33.7112Z" fill="#263238"/>
<path d="M56.017 204.764C55.5681 204.764 55.0786 204.671 54.7375 204.589C54.6917 204.578 54.6558 204.542 54.6465 204.496C54.6366 204.45 54.6552 204.404 54.6935 204.38C54.8651 204.269 56.3842 203.308 56.9346 203.584C57.0198 203.626 57.1265 203.718 57.148 203.909C57.177 204.166 57.1068 204.37 56.9404 204.516C56.7292 204.701 56.3865 204.764 56.017 204.764ZM55.0629 204.428C55.8958 204.593 56.5286 204.563 56.7832 204.341C56.8951 204.243 56.9392 204.106 56.9189 203.923C56.909 203.834 56.8713 203.804 56.8394 203.788C56.5529 203.645 55.6812 204.06 55.0629 204.428Z" fill="#6A6AF4"/>
<path d="M54.7642 204.593C54.7422 204.593 54.7201 204.586 54.7004 204.574C54.6639 204.551 54.6418 204.511 54.643 204.469C54.6447 204.41 54.6911 203.009 55.2328 202.548C55.3738 202.428 55.5362 202.378 55.7154 202.4C55.9921 202.433 56.0727 202.603 56.0965 202.701C56.2264 203.243 55.3071 204.306 54.8181 204.579C54.8019 204.588 54.7833 204.593 54.7642 204.593ZM55.647 202.625C55.5524 202.625 55.4672 202.658 55.3877 202.726C55.0403 203.022 54.926 203.838 54.8895 204.247C55.3703 203.868 55.9491 203.065 55.8726 202.745C55.8656 202.716 55.8494 202.647 55.6992 202.629C55.6818 202.626 55.6644 202.625 55.647 202.625Z" fill="#6A6AF4"/>
<path d="M88.1409 202.613C88.098 202.614 88.0579 202.591 88.0365 202.553C88.0127 202.51 88.0191 202.457 88.0516 202.421C88.2174 202.236 89.6918 200.619 90.36 200.717C90.4887 200.736 90.5879 200.811 90.6459 200.935C90.7433 201.144 90.7422 201.345 90.643 201.535C90.3124 202.164 88.943 202.479 88.156 202.611C88.1513 202.612 88.1461 202.613 88.1409 202.613ZM90.2817 200.942C89.8942 200.954 89.0474 201.706 88.4576 202.322C89.5236 202.109 90.2544 201.782 90.44 201.428C90.5055 201.304 90.505 201.175 90.4383 201.033C90.4127 200.979 90.3791 200.952 90.3269 200.945C90.313 200.942 90.2979 200.942 90.2817 200.942Z" fill="#6A6AF4"/>
<path d="M88.1409 202.613C88.1299 202.613 88.1189 202.612 88.1078 202.609C88.0684 202.598 88.0371 202.567 88.0266 202.528C88.0121 202.474 87.6705 201.205 88.0684 200.512C88.1896 200.301 88.3671 200.163 88.595 200.102C88.9024 200.02 89.0445 200.137 89.1095 200.25C89.3873 200.732 88.6739 202.125 88.2192 202.579C88.1977 202.6 88.1699 202.612 88.1409 202.613ZM88.7725 200.305C88.7412 200.306 88.7023 200.311 88.6542 200.324C88.4854 200.369 88.359 200.468 88.2679 200.627C88.0063 201.082 88.1223 201.875 88.1995 202.253C88.6316 201.705 89.077 200.654 88.91 200.365C88.9001 200.348 88.8734 200.302 88.7725 200.305Z" fill="#6A6AF4"/>
<path d="M49.7199 61.66C48.263 64.6605 46.7782 67.7567 45.3386 70.8053C44.6246 72.3386 43.9083 73.8679 43.232 75.4035L42.2257 77.7054L41.7449 78.8567L41.6243 79.1448L41.5402 79.3587C41.481 79.4955 41.4427 79.6347 41.3911 79.7726C41.046 80.8793 40.9526 82.0427 41.2009 83.2983C41.4277 84.5534 41.9792 85.8699 42.7303 87.1551C43.4838 88.4403 44.4315 89.6976 45.4923 90.8912C46.0189 91.4924 46.5723 92.0831 47.1528 92.6488C47.4428 92.9317 47.7386 93.21 48.0397 93.4801C48.3279 93.7503 48.6556 94.0395 48.9126 94.2621L46.9777 97.3513C46.0781 96.8945 45.3276 96.4459 44.5457 95.9288C43.7749 95.4215 43.0192 94.8853 42.2872 94.3062C40.8314 93.141 39.4545 91.821 38.2348 90.2738C37.0214 88.7289 35.9554 86.9359 35.3046 84.8473C34.6625 82.7714 34.4984 80.3738 35.0239 78.1362C35.0941 77.8608 35.1561 77.5796 35.2414 77.3095L35.4653 76.5907L35.8765 75.313C36.1618 74.4707 36.4449 73.6238 36.7581 72.7966C37.3671 71.1305 38.0045 69.4853 38.6901 67.8645C40.0455 64.6037 41.5123 61.4595 43.17 58.3013L49.7199 61.66Z" fill="#B65B52"/>
<path d="M44.381 54.7982C39.9498 56.1854 35.5923 71.2024 35.5923 71.2024L45.8449 75.6876C45.8449 75.6876 49.162 68.4303 51.069 62.7429C53.146 56.5483 49.7489 53.1182 44.381 54.7982Z" fill="#6A6AF4"/>
<path opacity="0.2" d="M44.381 54.7982C39.9498 56.1854 35.5923 71.2024 35.5923 71.2024L45.8449 75.6876C45.8449 75.6876 49.162 68.4303 51.069 62.7429C53.146 56.5483 49.7489 53.1182 44.381 54.7982Z" fill="black"/>
<path d="M47.8286 93.3097L52.0689 95.8291L47.9446 99.9327C47.9446 99.9327 44.3625 97.1792 45.4308 95.021L47.8286 93.3097Z" fill="#B55B52"/>
<path d="M54.8999 99.8463L50.6467 102.824L47.9445 99.9326L52.0689 95.829L54.8999 99.8463Z" fill="#B55B52"/>
<path d="M260.059 92.2184L259.857 95.0128L260.436 95.0547L260.638 92.2603L260.059 92.2184Z" fill="#6A6AF4"/>
<path d="M260.844 81.6584L260.256 89.7588L260.835 89.8007L261.423 81.7003L260.844 81.6584Z" fill="#6A6AF4"/>
<path d="M244.948 172.754H102.884C98.5437 172.754 95.2464 169.205 95.5579 164.866L103.074 60.0583C103.385 55.7199 107.192 52.1698 111.532 52.1698H253.596C257.936 52.1698 261.234 55.7193 260.922 60.0583L253.406 164.866C253.095 169.205 249.289 172.754 244.948 172.754Z" fill="#6A6AF4"/>
<path d="M211.902 209.436H165.789L157.57 152.485H203.683L211.902 209.436Z" fill="#6A6AF4"/>
<path d="M204.58 206.043H154.698L153.708 209.436H203.589L204.58 206.043Z" fill="#6A6AF4"/>
<path d="M206.117 179.902L161.173 177.447L157.57 152.485H202.16L206.117 179.902Z" fill="#263238"/>
<path d="M243.344 172.754H101.281C96.94 172.754 93.6427 169.205 93.9542 164.866L101.47 60.0583C101.781 55.7199 105.588 52.1698 109.929 52.1698H251.992C256.333 52.1698 259.63 55.7193 259.319 60.0583L251.802 164.866C251.491 169.205 247.685 172.754 243.344 172.754Z" fill="#263238"/>
<path d="M258.972 61.0883L254.653 121.211L255.206 121.25L259.525 61.128L258.972 61.0883Z" fill="white"/>
<path d="M254.28 126.439L252.787 147.256L253.34 147.296L254.833 126.478L254.28 126.439Z" fill="white"/>
<path d="M243.044 170.793H101.862C98.4834 170.793 95.9175 168.03 96.1593 164.653L103.645 60.2717C103.888 56.8944 106.85 54.1316 110.229 54.1316H251.41C254.789 54.1316 257.355 56.8944 257.113 60.2717L249.627 164.653C249.385 168.03 246.422 170.793 243.044 170.793Z" fill="white"/>
<path opacity="0.2" d="M243.044 170.793H101.862C98.4834 170.793 95.9175 168.03 96.1593 164.653L103.645 60.2717C103.888 56.8944 106.85 54.1316 110.229 54.1316H251.41C254.789 54.1316 257.355 56.8944 257.113 60.2717L249.627 164.653C249.385 168.03 246.422 170.793 243.044 170.793Z" fill="#6A6AF4"/>
<path opacity="0.5" d="M138.076 166.167H105.105C103.473 166.167 102.232 164.831 102.35 163.2L109.627 61.725C109.744 60.0937 111.175 58.7587 112.808 58.7587H145.779C147.411 58.7587 148.651 60.0937 148.534 61.725L141.257 163.2C141.14 164.831 139.709 166.167 138.076 166.167Z" fill="white"/>
<path opacity="0.4" d="M136.8 73.0632H119.735C118.265 73.0632 117.148 71.8609 117.253 70.3908L117.441 67.7758C117.546 66.3063 118.836 65.104 120.306 65.104H137.371C138.841 65.104 139.958 66.3063 139.853 67.7758L139.665 70.3908C139.56 71.8609 138.27 73.0632 136.8 73.0632Z" fill="#6A6AF4"/>
<path d="M125.95 114.111H99.898C97.3327 114.111 95.3839 112.013 95.5683 109.449L97.4359 83.4108C97.6198 80.8468 99.869 78.7489 102.434 78.7489H128.486C131.052 78.7489 133 80.8468 132.816 83.4108L130.948 109.449C130.764 112.013 128.515 114.111 125.95 114.111Z" fill="#6A6AF4"/>
<path d="M129.685 92.7625C128.707 92.7625 127.85 93.5619 127.78 94.5392L127.509 98.32C127.439 99.2974 128.182 100.097 129.159 100.097H131.804C132.047 100.097 132.259 99.8997 132.277 99.6562L132.739 93.2036C132.757 92.9601 132.573 92.763 132.33 92.763H129.685V92.7625Z" fill="white"/>
<path d="M119.633 85.3748H103.212C102.819 85.3748 102.522 85.0543 102.55 84.6624C102.578 84.2705 102.922 83.95 103.314 83.95H119.735C120.127 83.95 120.425 84.2705 120.397 84.6624C120.369 85.0548 120.025 85.3748 119.633 85.3748Z" fill="white"/>
<path d="M119.373 89.0009H102.951C102.559 89.0009 102.262 88.6804 102.289 88.2885C102.317 87.8966 102.661 87.576 103.053 87.576H119.475C119.867 87.576 120.164 87.8966 120.137 88.2885C120.109 88.681 119.765 89.0009 119.373 89.0009Z" fill="white"/>
<path d="M113.439 92.6274H102.691C102.299 92.6274 102.002 92.3068 102.03 91.915C102.057 91.5231 102.401 91.2025 102.793 91.2025H113.541C113.933 91.2025 114.23 91.5231 114.203 91.915C114.174 92.3068 113.831 92.6274 113.439 92.6274Z" fill="white"/>
<path opacity="0.5" d="M119.675 109.904H103.788C102.111 109.904 100.838 108.533 100.958 106.856L101.556 98.5137C101.676 96.8377 103.146 95.4662 104.823 95.4662H120.711C122.387 95.4662 123.661 96.8377 123.541 98.5137L122.943 106.856C122.823 108.533 121.353 109.904 119.675 109.904Z" fill="white"/>
<path opacity="0.4" d="M134.508 123.863H114.741C114.014 123.863 113.461 123.268 113.514 122.542C113.566 121.815 114.203 121.221 114.93 121.221H134.698C135.425 121.221 135.978 121.816 135.925 122.542C135.873 123.268 135.236 123.863 134.508 123.863Z" fill="#6A6AF4"/>
<path opacity="0.8" d="M130.524 129.049H117.981C117.253 129.049 116.701 128.454 116.753 127.728C116.806 127.001 117.443 126.407 118.17 126.407H130.714C131.441 126.407 131.994 127.002 131.941 127.728C131.889 128.455 131.252 129.049 130.524 129.049Z" fill="white"/>
<path opacity="0.4" d="M133.482 138.174H113.714C112.987 138.174 112.435 137.579 112.487 136.853C112.539 136.126 113.177 135.532 113.904 135.532H133.671C134.399 135.532 134.951 136.127 134.899 136.853C134.847 137.58 134.209 138.174 133.482 138.174Z" fill="#6A6AF4"/>
<path opacity="0.8" d="M129.498 143.36H116.955C116.227 143.36 115.675 142.765 115.727 142.039C115.78 141.312 116.417 140.718 117.144 140.718H129.688C130.415 140.718 130.967 141.313 130.915 142.039C130.862 142.766 130.225 143.36 129.498 143.36Z" fill="white"/>
<path opacity="0.4" d="M132.456 152.485H112.688C111.961 152.485 111.409 151.89 111.461 151.164C111.513 150.437 112.151 149.843 112.878 149.843H132.645C133.373 149.843 133.925 150.438 133.873 151.164C133.821 151.891 133.183 152.485 132.456 152.485Z" fill="#6A6AF4"/>
<path opacity="0.8" d="M128.472 157.671H115.928C115.201 157.671 114.649 157.076 114.701 156.35C114.753 155.623 115.39 155.029 116.118 155.029H128.661C129.389 155.029 129.941 155.624 129.889 156.35C129.836 157.077 129.199 157.671 128.472 157.671Z" fill="white"/>
<path opacity="0.5" d="M244.576 136.411C245.433 135.104 247.397 135.657 247.288 137.17L245.386 163.691C245.288 165.058 244.257 166.168 243.084 166.168H147.479C146.307 166.168 145.434 165.058 145.532 163.691L146.662 147.934C146.815 145.809 148.978 144.278 150.968 144.898C156.356 146.577 160.973 145.591 165.264 143.464C174.442 138.91 182.121 129.138 192.672 129.138C193.076 129.138 193.475 129.148 193.862 129.174C209.557 130.12 214.338 149.605 226.498 149.605C230.091 149.605 233.372 148.054 236.228 145.844C239.727 143.139 242.583 139.448 244.576 136.411Z" fill="#6A6AF4"/>
<path opacity="0.5" d="M246.559 147.337L245.386 163.691C245.288 165.057 244.257 166.167 243.084 166.167H147.479C146.307 166.167 145.434 165.057 145.532 163.691L147.863 131.194C148.022 128.968 150.941 128.032 152.122 129.833C155.173 134.484 159.867 140.491 165.264 143.464C167.333 144.6 169.5 145.291 171.722 145.291C179.447 145.291 186.016 136.132 193.862 129.173C198.673 124.906 203.963 121.462 210.291 121.462C223.499 121.462 225.447 142.911 236.228 145.843C238.306 146.411 240.711 146.288 243.59 145.188C245.133 144.6 246.675 145.726 246.559 147.337Z" fill="#6A6AF4"/>
<g opacity="0.8">
<path d="M247.028 140.998C246.975 140.998 246.929 140.975 246.889 140.94C246.871 140.923 246.854 140.9 246.848 140.877C246.836 140.854 246.831 140.825 246.831 140.801C246.831 140.743 246.854 140.697 246.889 140.662C246.959 140.587 247.092 140.581 247.168 140.662C247.208 140.698 247.226 140.749 247.226 140.801C247.226 140.825 247.22 140.854 247.214 140.877C247.202 140.9 247.185 140.923 247.168 140.94C247.132 140.975 247.08 140.998 247.028 140.998Z" fill="white"/>
<path d="M154.071 154.58C153.962 154.58 153.874 154.494 153.874 154.383C153.874 154.279 153.961 154.192 154.071 154.192V154.186C154.182 154.186 154.268 154.279 154.268 154.383C154.268 154.493 154.182 154.586 154.071 154.586C154.071 154.586 154.071 154.586 154.071 154.58ZM152.082 154.471C152.082 154.471 152.082 154.471 152.088 154.471C151.978 154.465 151.896 154.366 151.908 154.256C151.919 154.146 152.017 154.071 152.128 154.082C152.238 154.094 152.313 154.192 152.302 154.297C152.29 154.401 152.204 154.476 152.105 154.476C152.099 154.476 152.093 154.476 152.082 154.471ZM155.834 154.297C155.823 154.186 155.898 154.088 156.008 154.076C156.119 154.064 156.217 154.14 156.229 154.25C156.241 154.36 156.166 154.458 156.055 154.471C156.049 154.471 156.038 154.471 156.032 154.471C155.933 154.471 155.846 154.395 155.834 154.297ZM150.121 154.168C150.016 154.145 149.947 154.041 149.964 153.931C149.987 153.826 150.092 153.757 150.202 153.774C150.306 153.797 150.376 153.902 150.359 154.012C150.336 154.105 150.254 154.168 150.161 154.168C150.15 154.168 150.133 154.168 150.121 154.168ZM157.772 153.972C157.743 153.862 157.807 153.758 157.917 153.729C158.022 153.705 158.125 153.769 158.154 153.873C158.183 153.978 158.114 154.088 158.009 154.117C158.009 154.117 158.009 154.117 158.009 154.111C157.992 154.117 157.975 154.117 157.963 154.117C157.87 154.117 157.789 154.059 157.772 153.972ZM221.206 154.053C221.097 154.053 221.009 153.966 221.009 153.855C221.009 153.745 221.102 153.658 221.206 153.658C221.317 153.658 221.403 153.745 221.403 153.855C221.403 153.966 221.316 154.053 221.206 154.053ZM222.975 153.775C222.964 153.665 223.045 153.566 223.15 153.56C223.259 153.543 223.358 153.624 223.37 153.734C223.382 153.844 223.301 153.943 223.19 153.955C223.185 153.955 223.179 153.955 223.174 153.955C223.073 153.954 222.987 153.879 222.975 153.775ZM219.223 153.931C219.118 153.919 219.037 153.821 219.054 153.711C219.067 153.6 219.165 153.526 219.275 153.537C219.385 153.554 219.46 153.653 219.449 153.757C219.432 153.862 219.35 153.937 219.252 153.937C219.24 153.937 219.234 153.937 219.223 153.931ZM148.196 153.694C148.091 153.664 148.028 153.555 148.057 153.45C148.092 153.345 148.196 153.282 148.307 153.311C148.411 153.346 148.468 153.45 148.44 153.56C148.417 153.647 148.336 153.7 148.249 153.7C148.23 153.7 148.213 153.7 148.196 153.694ZM224.924 153.502C224.901 153.392 224.97 153.288 225.081 153.271C225.186 153.247 225.289 153.317 225.313 153.427C225.336 153.531 225.266 153.635 225.156 153.658C225.144 153.658 225.133 153.664 225.121 153.664C225.028 153.664 224.941 153.595 224.924 153.502ZM217.273 153.572C217.163 153.549 217.099 153.444 217.128 153.334C217.151 153.229 217.256 153.166 217.366 153.189C217.471 153.213 217.534 153.323 217.511 153.427C217.488 153.519 217.407 153.578 217.32 153.578C217.303 153.578 217.285 153.578 217.273 153.572ZM159.651 153.41C159.61 153.305 159.663 153.189 159.767 153.155C159.865 153.115 159.981 153.166 160.021 153.265C160.057 153.369 160.01 153.485 159.906 153.519C159.883 153.531 159.86 153.537 159.836 153.537C159.755 153.537 159.68 153.485 159.651 153.41ZM226.843 153.068C226.814 152.958 226.873 152.847 226.982 152.818C227.087 152.789 227.197 152.853 227.226 152.957C227.255 153.062 227.191 153.171 227.087 153.2C227.07 153.207 227.052 153.213 227.035 153.213C226.948 153.213 226.866 153.154 226.843 153.068ZM215.371 152.998C215.266 152.963 215.214 152.847 215.25 152.749C215.29 152.644 215.4 152.592 215.505 152.627C215.61 152.667 215.662 152.778 215.627 152.882C215.598 152.963 215.517 153.009 215.435 153.009C215.411 153.009 215.388 153.009 215.371 152.998ZM161.455 152.627C161.402 152.534 161.443 152.413 161.541 152.36C161.64 152.314 161.756 152.354 161.808 152.453C161.854 152.545 161.82 152.667 161.721 152.713C161.692 152.731 161.663 152.737 161.629 152.737C161.559 152.737 161.489 152.696 161.455 152.627ZM228.728 152.488C228.688 152.383 228.746 152.273 228.844 152.238L228.85 152.232C228.949 152.198 229.065 152.256 229.1 152.354C229.135 152.459 229.083 152.574 228.978 152.609C228.955 152.615 228.938 152.621 228.914 152.621C228.833 152.621 228.758 152.569 228.728 152.488ZM213.539 152.244C213.44 152.204 213.394 152.082 213.44 151.984C213.486 151.885 213.602 151.845 213.701 151.885C213.805 151.931 213.846 152.047 213.8 152.152C213.765 152.221 213.695 152.268 213.62 152.268C213.591 152.268 213.562 152.261 213.539 152.244ZM230.567 151.792C230.527 151.694 230.573 151.578 230.677 151.537C230.776 151.491 230.892 151.537 230.932 151.642C230.979 151.741 230.932 151.857 230.827 151.903C230.804 151.915 230.775 151.915 230.752 151.915C230.672 151.914 230.602 151.868 230.567 151.792ZM163.171 151.676C163.113 151.584 163.142 151.456 163.235 151.398C163.327 151.34 163.449 151.369 163.508 151.461C163.566 151.554 163.537 151.676 163.444 151.734C163.415 151.758 163.374 151.769 163.34 151.769C163.276 151.769 163.211 151.734 163.171 151.676ZM211.77 151.358C211.671 151.305 211.636 151.184 211.688 151.085C211.74 150.992 211.862 150.957 211.961 151.01C212.053 151.062 212.089 151.178 212.036 151.276C212.001 151.34 211.931 151.381 211.862 151.381C211.833 151.381 211.799 151.369 211.77 151.358ZM232.371 150.998C232.325 150.9 232.365 150.784 232.464 150.737C232.563 150.691 232.684 150.731 232.731 150.83C232.777 150.929 232.731 151.045 232.632 151.091C232.632 151.091 232.632 151.091 232.638 151.097C232.609 151.108 232.58 151.114 232.552 151.114C232.475 151.114 232.406 151.074 232.371 150.998ZM164.806 150.587C164.743 150.494 164.766 150.372 164.853 150.309C164.94 150.245 165.067 150.263 165.131 150.349C165.194 150.436 165.172 150.563 165.085 150.627C165.049 150.65 165.009 150.667 164.969 150.667C164.905 150.667 164.848 150.639 164.806 150.587ZM210.059 150.366C210.059 150.366 210.059 150.366 210.059 150.36C209.966 150.308 209.937 150.186 209.995 150.094C210.047 149.995 210.169 149.966 210.262 150.024C210.36 150.082 210.39 150.204 210.331 150.297C210.291 150.36 210.227 150.395 210.163 150.395C210.128 150.395 210.088 150.384 210.059 150.366ZM234.134 150.117C234.082 150.024 234.117 149.903 234.216 149.85C234.308 149.798 234.43 149.838 234.483 149.932C234.535 150.03 234.5 150.146 234.401 150.204C234.372 150.216 234.338 150.227 234.308 150.227C234.238 150.227 234.169 150.186 234.134 150.117ZM166.385 149.398C166.315 149.311 166.326 149.19 166.414 149.12C166.5 149.05 166.622 149.068 166.692 149.149C166.762 149.236 166.745 149.363 166.663 149.433C166.623 149.462 166.582 149.474 166.535 149.474C166.477 149.474 166.419 149.45 166.385 149.398ZM208.388 149.311C208.388 149.311 208.388 149.311 208.388 149.305C208.295 149.247 208.272 149.126 208.33 149.033C208.394 148.94 208.516 148.917 208.609 148.975C208.695 149.033 208.725 149.161 208.667 149.248C208.627 149.311 208.562 149.34 208.498 149.34C208.458 149.34 208.423 149.329 208.388 149.311ZM235.856 149.166C235.798 149.068 235.833 148.952 235.926 148.894C236.019 148.842 236.141 148.871 236.199 148.963C236.251 149.056 236.222 149.178 236.13 149.236C236.095 149.253 236.06 149.265 236.025 149.265C235.961 149.265 235.892 149.23 235.856 149.166ZM206.747 148.216C206.66 148.152 206.631 148.03 206.695 147.937C206.758 147.851 206.88 147.828 206.973 147.885C207.06 147.949 207.083 148.071 207.025 148.163C206.985 148.221 206.921 148.25 206.857 148.25C206.822 148.25 206.782 148.239 206.747 148.216ZM237.539 148.146C237.481 148.053 237.51 147.932 237.603 147.868C237.695 147.81 237.817 147.839 237.875 147.932C237.933 148.024 237.904 148.146 237.812 148.204C237.783 148.227 237.748 148.239 237.707 148.239C237.643 148.239 237.58 148.203 237.539 148.146ZM167.91 148.157C167.84 148.076 167.851 147.949 167.933 147.879C168.02 147.81 168.148 147.821 168.217 147.903C168.286 147.99 168.275 148.111 168.188 148.18C168.153 148.216 168.107 148.227 168.06 148.227C168.009 148.227 167.95 148.203 167.91 148.157ZM239.191 147.067C239.128 146.975 239.151 146.853 239.238 146.789C239.331 146.725 239.452 146.748 239.516 146.841C239.574 146.928 239.557 147.056 239.464 147.114C239.429 147.137 239.389 147.149 239.354 147.149C239.29 147.149 239.227 147.12 239.191 147.067ZM205.116 147.114C205.024 147.05 205.001 146.929 205.064 146.841C205.123 146.748 205.244 146.725 205.337 146.783C205.43 146.846 205.453 146.968 205.39 147.061C205.355 147.119 205.291 147.148 205.227 147.148C205.192 147.149 205.152 147.137 205.116 147.114ZM169.423 146.894C169.348 146.813 169.36 146.686 169.446 146.616C169.528 146.546 169.655 146.557 169.725 146.639C169.794 146.725 169.783 146.847 169.702 146.917C169.661 146.952 169.62 146.963 169.574 146.963C169.517 146.963 169.459 146.94 169.423 146.894ZM203.481 146.024C203.389 145.961 203.36 145.839 203.423 145.752C203.481 145.659 203.608 145.63 203.696 145.693C203.788 145.752 203.811 145.874 203.754 145.966C203.719 146.024 203.655 146.053 203.592 146.053C203.551 146.053 203.516 146.048 203.481 146.024ZM240.804 145.932C240.735 145.845 240.758 145.723 240.845 145.659C240.931 145.595 241.06 145.613 241.123 145.7C241.187 145.787 241.163 145.914 241.076 145.977C241.042 146.001 241.001 146.013 240.961 146.013C240.903 146.013 240.839 145.99 240.804 145.932ZM170.938 145.636C170.868 145.555 170.88 145.427 170.967 145.358C171.054 145.289 171.175 145.306 171.245 145.387C171.315 145.474 171.303 145.602 171.216 145.665C171.181 145.7 171.134 145.711 171.088 145.711C171.036 145.711 170.978 145.688 170.938 145.636ZM201.828 144.964C201.735 144.906 201.706 144.784 201.765 144.691C201.823 144.598 201.944 144.569 202.037 144.627C202.13 144.685 202.159 144.807 202.101 144.9C202.06 144.964 201.996 144.999 201.933 144.999C201.898 144.998 201.857 144.987 201.828 144.964ZM242.381 144.755C242.312 144.668 242.329 144.54 242.417 144.477C242.503 144.407 242.625 144.424 242.695 144.512C242.759 144.598 242.742 144.72 242.66 144.79C242.66 144.79 242.66 144.79 242.655 144.79C242.62 144.819 242.579 144.83 242.539 144.83C242.475 144.83 242.417 144.801 242.381 144.755ZM172.48 144.419C172.417 144.332 172.434 144.204 172.521 144.14C172.607 144.077 172.729 144.094 172.799 144.181C172.863 144.267 172.845 144.389 172.758 144.459C172.723 144.482 172.683 144.5 172.643 144.5C172.579 144.5 172.521 144.471 172.48 144.419ZM200.14 143.961C200.048 143.908 200.012 143.787 200.071 143.688C200.123 143.595 200.245 143.56 200.338 143.619C200.436 143.671 200.471 143.793 200.413 143.885C200.378 143.948 200.308 143.99 200.239 143.99C200.21 143.99 200.175 143.977 200.14 143.961ZM243.919 143.526C243.849 143.444 243.861 143.317 243.948 143.248C244.035 143.178 244.157 143.19 244.226 143.277C244.296 143.358 244.284 143.485 244.203 143.555C244.163 143.584 244.116 143.601 244.075 143.601C244.018 143.601 243.96 143.578 243.919 143.526ZM174.081 143.271C174.018 143.178 174.041 143.056 174.133 142.993C174.226 142.934 174.348 142.958 174.412 143.051C174.47 143.137 174.447 143.265 174.353 143.323C174.318 143.346 174.284 143.358 174.243 143.358C174.18 143.358 174.116 143.323 174.081 143.271ZM198.418 143.027C198.325 142.981 198.285 142.859 198.337 142.761C198.383 142.662 198.505 142.628 198.604 142.674C198.696 142.726 198.737 142.848 198.69 142.947C198.655 143.01 198.58 143.051 198.51 143.051C198.482 143.051 198.446 143.045 198.418 143.027ZM245.426 142.256C245.357 142.175 245.363 142.048 245.444 141.978H245.45C245.531 141.909 245.653 141.914 245.728 141.995C245.798 142.077 245.786 142.204 245.705 142.273C245.669 142.308 245.624 142.325 245.577 142.325C245.52 142.326 245.468 142.303 245.426 142.256ZM175.746 142.222C175.688 142.129 175.723 142.007 175.821 141.949C175.914 141.896 176.036 141.932 176.088 142.024C176.14 142.123 176.111 142.238 176.013 142.297C176.013 142.297 176.013 142.297 176.018 142.297C175.984 142.314 175.949 142.32 175.92 142.32C175.85 142.32 175.78 142.285 175.746 142.222ZM196.655 142.186C196.556 142.14 196.51 142.024 196.556 141.925C196.597 141.827 196.719 141.78 196.817 141.827C196.916 141.867 196.962 141.984 196.916 142.088C196.887 142.157 196.811 142.204 196.736 142.204C196.706 142.204 196.683 142.198 196.655 142.186ZM194.845 141.451C194.741 141.415 194.689 141.3 194.73 141.195C194.765 141.097 194.881 141.045 194.984 141.08C195.083 141.12 195.135 141.231 195.1 141.335C195.071 141.416 194.996 141.462 194.915 141.462C194.892 141.462 194.868 141.462 194.845 141.451ZM177.486 141.311C177.445 141.213 177.486 141.091 177.584 141.051C177.683 141.004 177.805 141.045 177.851 141.149C177.892 141.248 177.851 141.364 177.747 141.41C177.724 141.422 177.695 141.427 177.665 141.427C177.59 141.427 177.52 141.387 177.486 141.311ZM192.989 140.842C192.884 140.807 192.827 140.703 192.856 140.592C192.885 140.488 193.001 140.43 193.105 140.459C193.21 140.488 193.268 140.598 193.239 140.709C193.21 140.79 193.134 140.848 193.047 140.848C193.03 140.848 193.012 140.848 192.989 140.842ZM179.306 140.569C179.272 140.465 179.33 140.355 179.435 140.32C179.539 140.285 179.649 140.343 179.684 140.448C179.719 140.553 179.661 140.662 179.556 140.698C179.539 140.703 179.516 140.709 179.493 140.709C179.411 140.709 179.336 140.656 179.306 140.569ZM191.098 140.361C190.993 140.338 190.924 140.233 190.947 140.129C190.97 140.019 191.075 139.949 191.185 139.978C191.289 139.996 191.359 140.1 191.336 140.209C191.318 140.302 191.231 140.367 191.138 140.367C191.127 140.367 191.116 140.367 191.098 140.361ZM181.191 140.03C181.168 139.92 181.238 139.816 181.348 139.793C181.452 139.769 181.557 139.839 181.579 139.943C181.603 140.053 181.539 140.158 181.429 140.181C181.417 140.181 181.4 140.187 181.389 140.187C181.296 140.186 181.215 140.123 181.191 140.03ZM189.179 140.025C189.074 140.007 188.993 139.909 189.01 139.798C189.022 139.688 189.126 139.613 189.231 139.63H189.237C189.342 139.642 189.417 139.746 189.405 139.856C189.388 139.949 189.306 140.025 189.208 140.025C189.196 140.025 189.19 140.025 189.179 140.025ZM183.129 139.694C183.117 139.585 183.198 139.491 183.303 139.48C183.413 139.462 183.511 139.543 183.524 139.653C183.535 139.764 183.454 139.857 183.344 139.874C183.338 139.874 183.332 139.874 183.327 139.874C183.228 139.874 183.141 139.798 183.129 139.694ZM187.235 139.821C187.235 139.821 187.235 139.821 187.241 139.821C187.131 139.815 187.044 139.722 187.056 139.613C187.062 139.503 187.154 139.422 187.265 139.427C187.375 139.433 187.456 139.532 187.45 139.642C187.444 139.746 187.357 139.827 187.252 139.827C187.247 139.827 187.241 139.821 187.235 139.821ZM185.09 139.567C185.083 139.456 185.176 139.369 185.287 139.369C185.391 139.363 185.484 139.456 185.484 139.567C185.484 139.676 185.397 139.764 185.287 139.764C185.177 139.764 185.09 139.676 185.09 139.567Z" fill="white"/>
<path d="M146.305 153.073C146.282 153.073 146.253 153.068 146.23 153.056C146.206 153.044 146.183 153.033 146.166 153.01C146.148 152.993 146.131 152.975 146.125 152.947C146.114 152.923 146.108 152.9 146.108 152.871C146.108 152.818 146.132 152.773 146.166 152.732C146.184 152.715 146.207 152.697 146.23 152.691C146.277 152.668 146.335 152.668 146.381 152.691C146.41 152.697 146.427 152.715 146.445 152.732C146.485 152.773 146.503 152.818 146.503 152.871C146.503 152.9 146.503 152.923 146.491 152.947C146.48 152.975 146.469 152.993 146.445 153.01C146.428 153.033 146.405 153.045 146.382 153.056C146.357 153.068 146.334 153.073 146.305 153.073Z" fill="white"/>
</g>
<path d="M178.109 93.7108L176.755 92.2523C174.351 94.4945 171.152 95.88 167.728 95.88C161.992 95.88 157.446 91.9856 156.41 86.6976L154.379 87.231L152.523 87.7185C153.069 90.4906 154.346 93.0157 156.228 95.0429C162.115 101.381 172.55 101.381 179.346 95.0429L178.109 93.7108Z" fill="white"/>
<path d="M181.003 71.9375L179.231 73.5908L178.007 74.7322C180.09 76.9704 181.258 80.0689 181.013 83.4903C180.767 86.9116 179.159 90.0107 176.755 92.2524L177.816 93.3944L179.347 95.043C182.632 91.9788 184.653 87.8235 184.964 83.4903C185.273 79.1611 183.85 75.0012 181.003 71.9375Z" fill="#263238"/>
<path d="M181.003 71.9375C175.116 65.6037 164.681 65.6037 157.886 71.9375C153.469 76.0608 151.419 82.0885 152.523 87.7185L154.819 87.1156L156.41 86.6977C156.212 85.6757 156.144 84.5969 156.224 83.4902C156.714 76.651 162.662 71.1038 169.504 71.1038C172.928 71.1038 175.924 72.4893 178.007 74.7316L179.576 73.269L181.003 71.9375Z" fill="#6A6AF4"/>
<path d="M197.662 93.7114L199.225 92.2529C197.143 90.0106 195.979 86.9122 196.224 83.4908C196.635 77.7582 200.877 72.9351 206.269 71.5212L205.879 69.5294L205.521 67.7097C202.694 68.454 200.063 69.9108 197.89 71.938C191.094 78.2764 190.346 88.7057 196.233 95.0436L197.662 93.7114Z" fill="white"/>
<path d="M219.351 95.043L217.816 93.3897L216.756 92.2483C214.356 94.4906 211.156 95.8801 207.733 95.8801C204.31 95.8801 201.309 94.4946 199.226 92.2524L198.002 93.3944L196.234 95.043C199.08 98.1073 203.114 99.8284 207.45 99.8284C211.78 99.829 216.066 98.1073 219.351 95.043Z" fill="#263238"/>
<path d="M219.351 95.0431C226.143 88.7047 226.891 78.2753 221.008 71.9375C217.178 67.8188 211.263 66.202 205.522 67.7092L205.963 69.9608L206.269 71.5213C207.312 71.2506 208.401 71.1051 209.509 71.1051C216.352 71.1051 221.504 76.6516 221.013 83.4909C220.768 86.9128 219.159 90.0072 216.755 92.2489L218.114 93.7115L219.351 95.0431Z" fill="#6A6AF4"/>
<path opacity="0.3" d="M246.745 68.6088C247.076 68.6088 247.379 68.7369 247.596 68.97C247.814 69.2042 247.921 69.5172 247.897 69.8511L247.18 79.8503C247.129 80.5633 246.483 81.1656 245.771 81.1656H235.766C235.435 81.1656 235.133 81.0369 234.916 80.8045C234.698 80.5703 234.591 80.2572 234.615 79.9233L235.331 69.9242C235.383 69.2111 236.028 68.6088 236.74 68.6088H246.745ZM246.745 68.0975H236.74C235.755 68.0975 234.891 68.9033 234.821 69.8876L234.104 79.8868C234.033 80.8717 234.781 81.6769 235.766 81.6769H245.771C246.756 81.6769 247.62 80.8711 247.691 79.8868L248.408 69.8876C248.478 68.9033 247.73 68.0975 246.745 68.0975Z" fill="#6A6AF4"/>
<path opacity="0.3" d="M245.511 85.8148C245.843 85.8148 246.145 85.9435 246.362 86.176C246.58 86.4102 246.687 86.7227 246.663 87.0566L245.946 97.0557C245.895 97.7688 245.25 98.3711 244.537 98.3711H234.533C234.201 98.3711 233.899 98.2429 233.682 98.0099C233.464 97.7757 233.357 97.4633 233.381 97.1294L234.098 87.1302C234.149 86.4172 234.794 85.8148 235.507 85.8148H245.511ZM245.511 85.303H235.507C234.522 85.303 233.658 86.1088 233.587 87.0931L232.87 97.0923C232.799 98.0772 233.547 98.8824 234.533 98.8824H244.537C245.522 98.8824 246.386 98.0766 246.457 97.0923L247.174 87.0931C247.245 86.1088 246.496 85.303 245.511 85.303Z" fill="#6A6AF4"/>
<path d="M230.864 141.143C231.145 141.143 231.4 141.25 231.581 141.445C231.763 141.64 231.853 141.904 231.832 142.187C231.788 142.802 231.252 143.304 230.636 143.304C230.355 143.304 230.101 143.197 229.919 143.002C229.737 142.806 229.648 142.543 229.668 142.26C229.712 141.644 230.249 141.143 230.864 141.143ZM230.864 140.631C229.985 140.631 229.221 141.343 229.157 142.223C229.094 143.102 229.757 143.815 230.636 143.815C231.515 143.815 232.28 143.102 232.343 142.223C232.406 141.344 231.744 140.631 230.864 140.631Z" fill="#6A6AF4"/>
<path d="M230.992 140.64L230.737 140.622L230.774 140.111L231.029 140.13L230.992 140.64Z" fill="#6A6AF4"/>
<path d="M231.103 139.082L230.848 139.064L230.923 138.018L231.179 138.036L231.103 139.082ZM231.254 136.989L230.999 136.971L231.074 135.924L231.329 135.942L231.254 136.989ZM231.404 134.895L231.149 134.877L231.224 133.83L231.479 133.848L231.404 134.895ZM231.553 132.801L231.298 132.783L231.374 131.736L231.629 131.754L231.553 132.801ZM231.704 130.708L231.449 130.69L231.524 129.643L231.779 129.661L231.704 130.708ZM231.854 128.614L231.6 128.596L231.675 127.548L231.929 127.566L231.854 128.614ZM232.005 126.52L231.75 126.502L231.825 125.455L232.079 125.473L232.005 126.52ZM232.155 124.427L231.9 124.409L231.974 123.361L232.229 123.379L232.155 124.427ZM232.304 122.332L232.05 122.314L232.125 121.267L232.38 121.285L232.304 122.332ZM232.455 120.239L232.199 120.221L232.275 119.173L232.53 119.191L232.455 120.239ZM232.605 118.145L232.35 118.127L232.425 117.08L232.68 117.098L232.605 118.145Z" fill="#6A6AF4"/>
<path d="M232.532 115.517L232.496 116.027L232.751 116.045L232.788 115.535L232.532 115.517Z" fill="#6A6AF4"/>
<path d="M243.475 115.81H151.633C151.115 115.81 150.639 115.606 150.294 115.236C149.948 114.864 149.779 114.374 149.816 113.854L150.269 107.535C150.345 106.479 151.266 105.618 152.324 105.618H244.166C244.684 105.618 245.16 105.822 245.504 106.192C245.85 106.563 246.02 107.054 245.983 107.574L245.53 113.894C245.454 114.95 244.531 115.81 243.475 115.81ZM152.324 106.173C151.552 106.173 150.878 106.802 150.823 107.574L150.37 113.894C150.343 114.258 150.461 114.601 150.701 114.858C150.939 115.114 151.27 115.255 151.633 115.255H243.475C244.247 115.255 244.921 114.627 244.977 113.854L245.43 107.535C245.456 107.17 245.338 106.827 245.098 106.57C244.86 106.315 244.529 106.173 244.167 106.173H152.324Z" fill="#6A6AF4"/>
<path opacity="0.8" fill-rule="evenodd" clip-rule="evenodd" d="M241.503 109.693H154.443C153.97 109.693 153.611 109.306 153.644 108.833C153.678 108.36 154.093 107.973 154.567 107.973H241.627C242.1 107.973 242.459 108.36 242.426 108.833C242.391 109.305 241.976 109.693 241.503 109.693Z" fill="white"/>
<path opacity="0.8" fill-rule="evenodd" clip-rule="evenodd" d="M226.994 113.318H154.183C153.709 113.318 153.35 112.931 153.384 112.459C153.417 111.986 153.833 111.599 154.306 111.599H227.117C227.59 111.599 227.949 111.986 227.916 112.459C227.882 112.931 227.467 113.318 226.994 113.318Z" fill="white"/>
</svg>
