<svg width="694" height="345" viewBox="0 0 694 345" fill="none" xmlns="http://www.w3.org/2000/svg">
<path d="M484.797 157.874C484.797 157.874 473.722 143.191 485.484 135.039C485.484 135.039 493.98 130.592 500.63 131.412C500.63 131.412 490.181 146.685 493.143 148.454C496.104 150.223 503.559 130.596 503.559 130.596C503.559 130.596 522.303 129.952 528.117 133.208C528.117 133.208 511.376 145.249 514.682 146.235C517.988 147.22 535.99 135.5 535.99 135.5C535.99 135.5 553.146 139.534 551.561 150.056C549.976 160.577 543.797 163.471 541.189 163.026C538.58 162.58 523.585 155.756 523.115 157.887C522.647 160.019 531.454 167.629 537.909 168.362C537.909 168.362 524.842 181.083 516.96 176.684C509.078 172.285 508.77 166.073 503.849 163.443C498.929 160.813 494.605 160.549 496.548 163.039C498.492 165.529 507.515 168.395 510.092 173.7C512.669 179.005 515.052 182.623 506.724 180.832C498.397 179.043 485.117 172.038 484.957 164.956C484.797 157.874 484.797 157.874 484.797 157.874Z" fill="#82B378"/>
<path d="M543.023 149.809C543.023 149.809 496.039 145.053 484.797 157.874C484.797 157.874 482.067 164.621 474.597 170.453L473.306 173.391C473.306 173.391 482.005 165.294 484.958 164.956C484.958 164.956 481.432 147.982 543.023 149.809Z" fill="#82B378"/>
<path d="M474.597 170.453C474.597 170.453 464.021 177.299 462.485 190.615L464.309 190.893C464.309 190.893 468.4 177.281 474.573 172.243C480.746 167.206 474.597 170.453 474.597 170.453Z" fill="#82B378"/>
<path d="M430.463 122.772C430.463 122.772 405.908 109.02 417.367 90.3554C417.367 90.3554 426.534 78.895 436.356 75.9482C436.356 75.9482 431.118 103.781 436.356 104.435C441.594 105.09 439.957 73.0013 439.957 73.0013C439.957 73.0013 465.822 60.5585 475.971 61.5409C475.971 61.5409 459.929 88.7184 465.167 88.0634C470.405 87.4085 488.412 59.9036 488.412 59.9036C488.412 59.9036 514.932 54.9919 519.188 70.709C523.444 86.4261 516.569 94.2847 512.64 95.2671C508.711 96.2495 483.502 95.922 484.156 99.1963C484.811 102.471 501.836 107.71 511.331 104.763C511.331 104.763 500.854 130.631 487.103 129.321C473.352 128.011 469.096 119.498 460.584 118.843C452.071 118.188 445.851 120.48 450.107 122.772C454.363 125.064 468.768 123.523 475.644 129.369C482.519 135.215 488.085 138.817 475.317 141.436C462.548 144.056 439.63 142.419 435.047 132.595C430.463 122.772 430.463 122.772 430.463 122.772Z" fill="#A8D29F"/>
<path d="M507.075 75.6211C507.075 75.6211 438.321 97.8869 430.463 122.772C430.463 122.772 430.791 133.905 423.916 146.675V151.587C423.916 151.587 431.118 134.888 435.047 132.596C435.047 132.596 419.659 110.985 507.075 75.6211Z" fill="#82B378"/>
<path d="M423.915 146.675C423.915 146.675 413.312 162.778 419.357 182.38L422.085 181.648C422.085 181.648 419.437 160.057 424.985 149.199C430.532 138.339 423.915 146.675 423.915 146.675Z" fill="#82B378"/>
<path d="M300.975 129.82C300.975 129.82 329.55 117.725 319.254 95.8833C319.254 95.8833 310.597 82.2129 300.191 77.7932C300.191 77.7932 302.559 108.928 296.739 109.011C290.919 109.094 296.601 74.127 296.601 74.127C296.601 74.127 269.765 57.3566 258.524 57.2031C258.524 57.2031 272.811 88.9301 267.15 87.5776C261.488 86.2251 245.088 53.9009 245.088 53.9009C245.088 53.9009 216.622 45.3042 210.053 62.012C203.484 78.7201 210.067 88.165 214.253 89.7176C218.439 91.2706 246.105 93.967 244.991 97.4761C243.877 100.985 224.585 104.663 214.538 100.282C214.538 100.282 222.884 129.9 238.112 130.131C253.339 130.363 259.035 121.549 268.443 121.863C277.85 122.177 284.39 125.443 279.448 127.439C274.506 129.435 258.906 126 250.663 131.573C242.42 137.145 235.885 140.418 249.56 144.836C263.234 149.255 288.548 150.238 294.761 140.029C300.975 129.82 300.975 129.82 300.975 129.82Z" fill="#A8D29F"/>
<path d="M222.733 68.8635C222.733 68.8635 295.379 101.597 300.975 129.821C300.975 129.821 299.267 141.981 305.254 156.809L304.659 162.191C304.659 162.191 298.789 143.018 294.762 140.03C294.762 140.03 314.243 118.212 222.733 68.8635Z" fill="#82B378"/>
<path d="M305.254 156.808C305.254 156.808 314.922 175.74 305.923 196.488L303.022 195.355C303.022 195.355 308.54 172.015 303.777 159.443C299.013 146.871 305.254 156.808 305.254 156.808Z" fill="#82B378"/>
<path d="M242.363 200.009C237.314 192.724 236.751 185.939 236.751 185.939C236.751 185.939 250.723 175.906 242.486 165.355C242.486 165.355 236.134 159.021 229.967 157.904C229.967 157.904 235.053 174.45 231.917 175.206C228.78 175.962 227.578 156.36 227.578 156.36C227.578 156.36 211.017 150.573 204.92 151.865C204.92 151.865 216.523 167.273 213.297 167.234C210.071 167.195 197.252 151.722 197.252 151.722C197.252 151.722 180.808 150.554 179.299 160.391C177.789 170.229 182.503 174.531 184.957 174.859C187.41 175.187 202.699 173.262 202.525 175.296C202.352 177.329 192.37 181.677 186.402 180.536C186.402 180.536 194.535 195.531 202.798 193.794C211.06 192.057 213.062 186.595 218.188 185.615C223.312 184.635 227.248 185.601 224.819 187.284C222.391 188.967 213.536 189.018 209.76 193.039C205.984 197.06 202.85 199.629 210.785 200.346C218.72 201.063 232.527 198.5 234.639 192.22C234.731 191.946 234.819 191.685 234.903 191.434C234.79 191.946 234.639 192.22 234.639 192.22C236.164 192.893 238.757 196.632 240.59 199.517C240.861 200.013 241.278 200.695 241.887 201.615C242.139 202.033 242.341 202.377 242.481 202.616C245.986 209.149 245.869 221.125 245.869 221.125L247.576 221.384C249.905 209.064 242.363 200.009 242.363 200.009Z" fill="#82B378"/>
<path d="M148.975 32.2978C148.837 31.5428 147.063 23.4522 134.549 24.8324C134.549 24.8324 140.778 24.6737 142.227 27.2124C142.227 27.2124 137.575 24.4911 134.335 26.0539C131.094 27.6169 129.964 33.8556 130.228 35.8155C130.491 37.7754 133.293 43.8097 135.526 44.0332C136.372 44.1179 137.304 43.927 138.137 43.6575C137.693 44.6362 137.275 45.7055 136.898 46.8864C133.409 57.8085 139.98 67.034 144.027 65.3221C146.622 64.224 148.054 68.7173 148.054 68.7173L171.184 43.6916C171.184 43.6916 158.666 25.166 148.975 32.2978Z" fill="#2C3A64"/>
<path d="M179.108 333.713L173.482 335.808C173.482 335.808 149.047 301.915 146.039 272.094C145.501 266.77 145.681 261.612 146.843 256.849C146.843 256.849 146.604 255.485 146.186 253.073C145.993 251.947 145.754 250.592 145.483 249.04C144.689 244.488 143.596 238.259 142.346 231.167C139.471 214.846 135.746 193.983 132.853 178.646L134.368 178.159L150.769 172.867L154.159 162.1L166.371 158.885C166.371 158.885 169.1 164.222 171.538 189.435C171.989 192.742 172.397 196.39 172.705 200.345C173.656 212.416 173.724 227.391 171.543 244.511C170.983 248.893 170.275 253.417 169.398 258.066C168.755 261.474 168.659 266.118 168.93 271.451C170.161 295.829 179.108 333.713 179.108 333.713Z" fill="#2B478B"/>
<path d="M172.705 200.345L146.186 253.073C145.993 251.948 145.754 250.593 145.483 249.04C144.689 244.488 143.596 238.259 142.346 231.167C139.471 214.847 135.747 193.984 132.853 178.646L134.368 178.159L150.77 172.867L154.159 162.101L166.372 158.885C166.372 158.885 169.1 164.223 171.539 189.436C171.989 192.743 172.397 196.39 172.705 200.345Z" fill="#233862"/>
<path d="M161.038 165.652L160.425 160.387C150.14 163.119 122.659 152.752 122.659 152.752C122.659 152.752 112.696 161.512 114.003 182.509C114.642 192.758 115.808 236.307 117.026 249.194C117.467 253.864 117.852 257.188 118.01 258.516C118.013 258.522 118.013 258.525 118.013 258.528C118.061 258.933 117.92 259.316 117.714 259.67C115.921 262.714 114.436 265.883 113.218 269.127C101.261 300.992 115.059 340.234 115.059 340.234L118.64 338.791C118.64 338.791 126.492 295.119 132.872 275.826C133.955 272.553 134.993 269.982 135.944 268.445C138.718 263.967 141.292 256.651 143.629 247.949C148.045 231.498 151.6 210.096 153.966 193.577C154.292 193.592 161.038 165.652 161.038 165.652Z" fill="#2B478B"/>
<path d="M177.622 123.448C177.823 123.655 178.019 123.861 178.256 124.053C187.046 132.245 198.885 139.489 205.219 141.085C209.385 142.151 218.571 140.724 226.199 139.154C231.282 138.152 235.708 137.043 237.533 136.609C238.115 136.473 238.439 136.371 238.439 136.371L237.643 131.225C237.643 131.225 233.071 130.864 227.39 130.222C219.477 129.292 209.448 127.864 206.878 126.346C200.918 122.804 190.461 107.95 182.071 98.6109C181.632 98.1014 181.196 97.6125 180.764 97.1325C180.448 96.7814 180.132 96.4377 179.819 96.0998C179.755 96.0332 179.675 95.9227 179.571 95.8653C179.185 95.4949 178.857 95.1499 178.541 94.8476C178.528 94.8096 178.473 94.7825 178.42 94.7509C176.929 93.2532 174.314 91.4352 174.314 91.4352C172.848 90.5995 171.64 90.4377 170.791 91.1507C170.791 91.1507 169.694 92.2221 168.619 94.2467C168.391 94.6699 168.165 95.1358 167.951 95.6437C167.773 95.9218 167.686 96.2161 167.599 96.5132C166.888 98.3816 166.369 100.729 166.462 103.466C166.528 105.539 166.924 107.825 167.843 110.347C169.309 114.484 173.012 119.085 177.622 123.448Z" fill="#FFB27D"/>
<path d="M169.968 101.75C166.988 103.695 163.275 105.265 158.645 106.197C141.285 109.696 135.086 94.931 132.885 84.8532C135.275 83.5734 137.497 83.3393 138.779 83.2226C140.03 83.1106 141.344 83.0498 142.431 83.0268C144.41 81.5976 147.467 75.6071 148.371 66.1975L149.176 66.4381L162.664 70.5423C162.664 70.5423 161.919 74.8463 161.499 78.9223C161.173 82.1119 161.05 85.1653 161.634 85.9301C162.689 86.1904 163.321 86.3582 163.321 86.3582C163.321 86.3582 163.321 86.3628 163.327 86.3711C163.501 86.675 167.262 93.2724 169.968 101.75Z" fill="#FFB27D"/>
<path d="M176.011 112.596C175.931 112.965 175.834 113.327 175.726 113.7C172.679 123.89 170.214 164.625 170.214 164.625C171.829 169.716 142.232 170.759 125.909 168.407C119.974 167.554 115.795 166.251 115.508 164.531C112.587 157.947 119.734 145.65 123.861 139.4C124.38 138.616 124.824 137.79 125.191 136.934C126.124 134.784 126.574 132.443 126.48 130.082C126.356 126.852 126.08 123.716 125.743 120.778C125.111 115.238 124.266 110.401 123.825 106.977C123.825 106.977 123.825 106.977 123.825 106.975C124.683 106.122 125.52 105.329 126.298 104.576C127.485 103.413 128.526 102.339 129.258 101.296C130.061 100.158 130.508 99.0485 130.409 97.8835C130.331 97.0027 130.174 96.1112 129.953 95.2303C129.851 94.8136 129.735 94.3993 129.611 93.9853C128.286 89.6426 125.846 85.8852 125.846 85.8852C130.265 83.3011 138.779 83.2209 138.779 83.2209C138.779 83.2209 138.836 83.6874 138.944 84.4467C139.358 87.5004 140.523 95.3298 141.716 96.6688C143.206 98.339 166.745 103.179 167.565 100.501C168.371 97.8697 163.509 86.7908 163.327 86.371C163.321 86.3627 163.321 86.3572 163.321 86.3572C170.86 88.1489 174.134 90.1754 174.283 90.2941C174.283 90.2941 174.277 90.2941 174.275 90.2914C170.184 93.8748 178.159 102.831 176.011 112.596Z" fill="#FF9843"/>
<path d="M162.665 70.5444C162.665 70.5444 161.918 74.8448 161.5 78.9244C153.821 77.9362 150.453 70.5027 149.175 66.4412L162.665 70.5444Z" fill="#ED985F"/>
<path d="M164.85 74.6659C164.85 74.6659 146.599 73.1418 147.722 61.7894C148.846 50.4368 147.248 42.5945 158.948 43.0874C170.648 43.5803 172.48 48.1363 173.026 52.0168C173.573 55.8975 169.626 74.7696 164.85 74.6659Z" fill="#FFB27D"/>
<path d="M159.663 59.875C159.742 60.5591 160.168 61.0719 160.615 61.0199C161.063 60.9689 161.36 60.3725 161.282 59.6885C161.203 59.0045 160.777 58.4917 160.33 58.5437C159.882 58.5946 159.584 59.191 159.663 59.875Z" fill="#263238"/>
<path d="M163.713 65.4155C163.721 65.3452 164.503 65.3649 165.76 65.4513C166.077 65.4811 166.384 65.4775 166.478 65.276C166.596 65.0662 166.533 64.7056 166.453 64.3146C166.31 63.5045 166.16 62.6563 166.003 61.767C165.394 58.1464 165.018 55.194 165.164 55.1708C165.31 55.1475 165.922 58.0635 166.532 61.6841C166.675 62.5752 166.812 63.4252 166.941 64.2377C166.989 64.6144 167.111 65.0543 166.86 65.4888C166.731 65.7046 166.469 65.8274 166.259 65.8417C166.048 65.8632 165.872 65.8316 165.717 65.8101C164.47 65.6319 163.703 65.4853 163.713 65.4155Z" fill="#263238"/>
<path d="M167.394 58.9842C167.472 59.6682 167.899 60.181 168.346 60.129C168.793 60.078 169.091 59.4817 169.012 58.7976C168.934 58.1136 168.507 57.6008 168.06 57.6528C167.614 57.7048 167.315 58.3001 167.394 58.9842Z" fill="#263238"/>
<path d="M156.992 57.6531C156.924 57.6521 156.856 57.6337 156.794 57.597C156.601 57.4839 156.538 57.2362 156.651 57.0435C157.788 55.1168 159.651 55.0118 159.73 55.0087C159.954 54.9985 160.142 55.1718 160.152 55.3951C160.163 55.6173 159.99 55.8059 159.768 55.8171C159.707 55.8202 158.254 55.917 157.347 57.4553C157.271 57.5848 157.132 57.6562 156.992 57.6531Z" fill="#263238"/>
<path d="M170.418 55.9418C170.287 55.9387 170.16 55.8735 170.084 55.7542C169.125 54.2485 167.671 54.2006 167.609 54.1996C167.387 54.1945 167.209 54.011 167.213 53.7887C167.216 53.5665 167.397 53.3881 167.621 53.3912C167.701 53.3942 169.566 53.433 170.767 55.3199C170.888 55.5085 170.831 55.7583 170.644 55.8786C170.573 55.9234 170.494 55.9428 170.418 55.9418Z" fill="#263238"/>
<path d="M173.116 45.651C170.642 41.9546 168.438 42.4911 167.143 43.398C157.732 36.9248 150.504 44.3782 150.504 44.3782C148.47 52.4007 142.13 56.4785 142.13 56.4785C142.13 56.4785 145.245 58.8628 153.099 57.6604C155.498 57.293 157.752 55.8398 159.729 54.0015C156.11 58.8855 151.518 62.2053 151.518 62.2053C161.087 58.8932 166.033 46.5398 166.533 45.2314C167.546 46.3418 169.521 48.7313 169.976 50.9254C170.596 53.907 170.408 59.8983 172.163 59.8698C172.163 59.8698 176.827 51.1946 173.116 45.651Z" fill="#2C3A64"/>
<path d="M254.544 130.546C252.719 132.286 250.873 136.635 245.252 136.552C241.242 136.519 237.181 136.971 235.215 137.211C234.451 137.345 234.005 137.398 234.005 137.398L233.805 131.029C233.805 131.029 233.886 131.038 234.068 131.007C235.427 130.803 242.323 129.742 245.052 127.932C248.117 125.877 255.282 127.781 255.282 127.781C255.282 127.781 256.382 128.84 254.544 130.546Z" fill="#FFB27D"/>
<path d="M135.877 343.159H107.543C107.543 343.159 106.864 338.84 108.344 335.563C109.762 332.419 111.983 330.99 111.451 327.186C113.251 329.04 116.186 331.116 120.282 330.565C120.784 331.379 123.522 335.734 125.198 336.939C127.05 338.27 135.306 337.795 135.877 343.159Z" fill="#233862"/>
<path d="M196.713 343.159H168.379C168.379 343.159 167.32 338.639 169.18 335.563C170.827 332.842 170.196 331.292 168.976 329.041C170.26 329.566 171.92 330.045 173.748 329.94C175.16 329.859 176.653 329.218 177.962 328.458C179.181 329.848 184.403 335.766 186.035 336.939C187.886 338.27 196.143 337.796 196.713 343.159Z" fill="#233862"/>
<path d="M160.497 68.1008C160.497 68.1008 160.752 69.6034 164.45 69.6071C164.45 69.6071 167.555 69.6105 167.563 67.9769C167.563 67.9769 164.637 66.6305 160.497 68.1008Z" fill="white"/>
<path d="M129.776 140.256C128.656 147.356 123.521 161.602 125.909 168.407C119.974 167.555 115.795 166.251 115.508 164.531C112.587 157.947 119.734 145.65 123.861 139.4C124.38 138.616 124.824 137.79 125.191 136.935C126.124 134.784 126.574 132.443 126.48 130.082C126.356 126.852 126.08 123.716 125.743 120.779C125.743 120.779 130.969 132.711 129.776 140.256Z" fill="#ED7D2B"/>
<path d="M169.883 92.3535C170.081 98.6643 174.644 115.988 175.726 113.701C176.963 111.092 181.754 101.179 184.005 100.814C183.886 100.357 174.677 90.172 174.274 90.2911C174.274 90.2911 171.772 91.0537 169.883 92.3535Z" fill="#FF9843"/>
<path d="M126.438 181.869L121.737 184.999C121.737 184.999 120.548 183.512 118.665 181.135C118.102 180.42 117.8 179.989 117.8 179.989C116.31 178.069 114.578 175.713 112.684 173.159L112.652 173.129C109.478 168.67 105.991 163.599 103.323 159.013C101.469 155.763 100.025 152.754 99.3192 150.388C99.2416 150.151 99.1992 149.943 99.1511 149.674C97.7714 143.674 100.302 131.76 104.329 120.136C104.882 118.529 105.467 116.948 106.026 115.402C108.169 109.701 110.577 104.344 112.995 100.014C114.413 97.4113 115.826 95.1415 117.188 93.448C117.66 92.8419 118.104 92.2692 118.584 91.7824C118.844 91.4881 119.103 91.2042 119.359 90.9338C122.183 91.1723 128.107 92.291 132.503 97.3702C132.428 97.6369 132.35 97.9036 132.27 98.1755C130.492 103.911 127.747 110.948 124.902 117.845C123.354 121.634 121.77 125.393 120.383 128.929C119.503 131.042 118.708 133.059 117.99 134.919C116.637 138.483 115.632 141.448 115.233 143.528C114.963 144.876 115.348 147.413 116.076 150.533C117.324 155.969 119.7 163.289 121.907 169.504C122.81 172.099 123.699 174.512 124.442 176.514C125.63 179.752 126.438 181.869 126.438 181.869Z" fill="#FFB27D"/>
<path d="M128.493 115.317C123.798 108.229 110.341 105.18 110.341 105.18C117.934 81.0836 137.87 83.3179 137.87 83.3179C137.87 83.3179 130.617 108.386 128.493 115.317Z" fill="#FF9843"/>
<path d="M121.737 184.999C121.737 184.999 122.972 186.822 123.11 188.133C123.248 189.445 124.421 193.793 125.94 195.173C127.458 196.553 130.909 199.314 131.392 198.901C131.875 198.486 133.273 195.231 131.977 192.93C131.392 191.892 130.598 188.996 129.551 188.295C128.281 187.443 126.438 181.869 126.438 181.869L121.737 184.999Z" fill="#FFB27D"/>
<path d="M126.457 182.577C126.457 182.577 130.196 184.476 130.702 185.994C131.208 187.512 133.296 190.574 133.082 190.929C132.853 191.308 129.604 189.237 128.499 187.351C127.395 185.464 126.457 182.577 126.457 182.577Z" fill="#FFB27D"/>
<path d="M215.412 164.918L352.303 82.9552C359.853 78.4355 369.276 78.4355 376.825 82.9552L513.716 164.918L513.716 298.507L215.412 283.549V164.918Z" fill="#4A9DF7"/>
<path d="M488.039 105.729H241.089V319.169H488.039V105.729Z" fill="#ECECFE"/>
<path d="M248.626 115.042C248.626 113.64 249.763 112.503 251.165 112.503C252.568 112.503 253.704 113.64 253.704 115.042C253.704 116.445 252.568 117.581 251.165 117.581C249.763 117.581 248.626 116.445 248.626 115.042Z" fill="#8BA7F8"/>
<path d="M475.271 115.042C475.271 113.639 476.408 112.502 477.81 112.502C479.212 112.502 480.349 113.639 480.349 115.042C480.349 116.444 479.212 117.581 477.81 117.581C476.408 117.581 475.271 116.444 475.271 115.042Z" fill="#8BA7F8"/>
<path d="M477.81 114.766H251.165V115.318H477.81V114.766Z" fill="#8BA7F8"/>
<path d="M251.442 114.032H250.889V340.705H251.442V114.032Z" fill="#8BA7F8"/>
<path d="M478.175 114.032H477.623V340.705H478.175V114.032Z" fill="#8BA7F8"/>
<path d="M513.716 164.55V343.158H215.412V164.55L364.564 253.856L513.716 164.55Z" fill="#5982E0"/>
<path d="M215.412 343.16L352.043 245.192C359.528 239.825 369.6 239.825 377.085 245.192L513.716 343.16H215.412Z" fill="#4A9DF7"/>
<path d="M410.098 135.299H320.06C318.752 135.299 317.682 134.23 317.682 132.922C317.682 131.615 318.752 130.545 320.06 130.545H410.098C411.406 130.545 412.476 131.615 412.476 132.922C412.476 134.23 411.406 135.299 410.098 135.299Z" fill="#8BA7F8"/>
<path d="M433.291 144.838H296.867C295.56 144.838 294.49 143.769 294.49 142.461C294.49 141.153 295.56 140.083 296.867 140.083H433.291C434.598 140.083 435.668 141.153 435.668 142.461C435.668 143.769 434.598 144.838 433.291 144.838Z" fill="#8BA7F8"/>
<path d="M415.599 174.424H316.892C315.946 174.424 315.172 173.65 315.172 172.704C315.172 171.758 315.946 170.984 316.892 170.984H415.599C416.545 170.984 417.319 171.758 417.319 172.704C417.319 173.65 416.545 174.424 415.599 174.424Z" fill="#8BA7F8"/>
<path d="M326.804 183.408H298.973C298.027 183.408 297.253 182.634 297.253 181.688C297.253 180.742 298.027 179.968 298.973 179.968H326.804C327.75 179.968 328.523 180.742 328.523 181.688C328.524 182.634 327.75 183.408 326.804 183.408Z" fill="#8BA7F8"/>
<path d="M368.778 183.409H335.154C334.208 183.409 333.434 182.635 333.434 181.688C333.434 180.742 334.208 179.969 335.154 179.969H368.778C369.724 179.969 370.498 180.742 370.498 181.688C370.498 182.635 369.724 183.409 368.778 183.409Z" fill="#8BA7F8"/>
<path d="M433.518 183.409H375.391C374.445 183.409 373.671 182.635 373.671 181.688C373.671 180.742 374.445 179.969 375.391 179.969H433.518C434.464 179.969 435.238 180.742 435.238 181.688C435.238 182.635 434.464 183.409 433.518 183.409Z" fill="#8BA7F8"/>
<path d="M368.999 193.853H314.934C313.988 193.853 313.214 193.08 313.214 192.133C313.214 191.188 313.988 190.414 314.934 190.414H368.999C369.945 190.414 370.719 191.188 370.719 192.133C370.719 193.08 369.945 193.853 368.999 193.853Z" fill="#8BA7F8"/>
<path d="M417.557 193.853H374.974C374.028 193.853 373.254 193.079 373.254 192.133C373.254 191.187 374.028 190.413 374.974 190.413H417.557C418.502 190.413 419.276 191.187 419.276 192.133C419.276 193.079 418.502 193.853 417.557 193.853Z" fill="#8BA7F8"/>
<g opacity="0.5">
<path d="M359.232 18.0762L372.092 46.4515L324.701 67.9346L311.841 39.5594L341.967 43.0056L359.232 18.0762Z" fill="#CDE0FB"/>
<path d="M311.841 39.5594L359.232 18.0762L345.064 41.96C343.946 43.8434 341.78 44.8381 339.623 44.4578L311.841 39.5594Z" fill="#B1CFF2"/>
</g>
<g opacity="0.5">
<path d="M80.6167 203.36L87.3812 221.502L57.0793 232.803L50.3147 214.66L68.8478 218.082L80.6167 203.36Z" fill="#CDE0FB"/>
<path d="M50.3147 214.66L80.6167 203.36L70.813 217.565C70.0397 218.685 68.6542 219.21 67.3331 218.882L50.3147 214.66Z" fill="#B1CFF2"/>
</g>
<g opacity="0.5">
<path d="M599.536 95.373L590.03 130.999L530.529 115.119L540.035 79.4929L565.033 105.246L599.536 95.373Z" fill="#CDE0FB"/>
<path d="M540.036 79.4927L599.536 95.3727L568.653 106.612C566.217 107.498 563.487 106.784 561.798 104.818L540.036 79.4927Z" fill="#B1CFF2"/>
</g>
<path d="M67.5602 283.58H67.5596C66.1216 283.576 64.7263 283.556 63.4123 283.52C63.2598 283.515 63.1398 283.388 63.1438 283.236C63.1478 283.084 63.2702 282.965 63.4273 282.968C64.737 283.004 66.1278 283.024 67.5611 283.027C67.7136 283.028 67.8367 283.152 67.8364 283.304C67.8361 283.456 67.7124 283.58 67.5602 283.58ZM71.7066 283.549C71.5562 283.549 71.4331 283.428 71.4307 283.277C71.4282 283.125 71.5495 282.999 71.702 282.996C73.0279 282.974 74.4214 282.939 75.8434 282.892C76.0024 282.88 76.1236 283.007 76.1285 283.159C76.1334 283.311 76.014 283.439 75.8615 283.444C74.4364 283.491 73.0402 283.526 71.7115 283.549C71.7099 283.549 71.7081 283.549 71.7066 283.549ZM59.2828 283.341C59.2773 283.341 59.2718 283.341 59.2659 283.34C57.8059 283.253 56.413 283.138 55.1266 283.001C54.9747 282.985 54.8652 282.849 54.8814 282.698C54.8977 282.546 55.034 282.436 55.1853 282.452C56.4637 282.589 57.8476 282.702 59.2994 282.79C59.4516 282.799 59.5676 282.93 59.5584 283.082C59.5492 283.228 59.4276 283.341 59.2828 283.341ZM79.9965 283.279C79.8499 283.279 79.7277 283.164 79.721 283.016C79.7142 282.863 79.8314 282.734 79.984 282.727C81.3127 282.666 82.7046 282.593 84.1217 282.512C84.2739 282.508 84.4043 282.619 84.4132 282.771C84.4221 282.924 84.3058 283.054 84.1536 283.063C82.7347 283.145 81.3403 283.217 80.0097 283.279C80.0048 283.279 80.0005 283.279 79.9965 283.279ZM88.2758 282.803C88.1318 282.803 88.0106 282.691 88.0008 282.545C87.9904 282.393 88.1054 282.262 88.2573 282.251C89.617 282.16 90.9949 282.06 92.3905 281.954C92.5424 281.942 92.6749 282.056 92.6866 282.208C92.6983 282.36 92.5844 282.493 92.4322 282.504C91.0354 282.611 89.6554 282.71 88.2944 282.803C88.288 282.803 88.2819 282.803 88.2758 282.803ZM51.0558 282.429C51.0395 282.429 51.0232 282.428 51.0067 282.425C49.4831 282.151 48.1175 281.824 46.9474 281.453C46.802 281.407 46.7219 281.251 46.7679 281.106C46.814 280.961 46.9696 280.88 47.1147 280.927C48.2621 281.291 49.6043 281.612 51.1042 281.881C51.2543 281.908 51.354 282.052 51.3274 282.202C51.3031 282.335 51.1868 282.429 51.0558 282.429ZM96.5436 282.174C96.4015 282.174 96.2809 282.065 96.2687 281.921C96.2558 281.769 96.3687 281.636 96.5206 281.623C97.8831 281.508 99.2594 281.388 100.649 281.261C100.802 281.247 100.935 281.36 100.949 281.511C100.963 281.663 100.851 281.797 100.699 281.811C99.3085 281.938 97.931 282.058 96.5673 282.173C96.5593 282.174 96.5513 282.174 96.5436 282.174ZM104.801 281.424C104.661 281.424 104.541 281.317 104.527 281.175C104.512 281.023 104.623 280.888 104.775 280.873C106.139 280.741 107.514 280.603 108.899 280.461C109.049 280.448 109.186 280.556 109.202 280.707C109.217 280.859 109.107 280.995 108.955 281.011C107.57 281.153 106.194 281.29 104.828 281.423C104.819 281.424 104.81 281.424 104.801 281.424ZM113.049 280.577C112.91 280.577 112.79 280.473 112.775 280.331C112.758 280.179 112.868 280.043 113.019 280.027C114.385 279.88 115.758 279.727 117.139 279.572C117.29 279.556 117.427 279.664 117.444 279.816C117.461 279.967 117.352 280.104 117.201 280.121C115.82 280.277 114.445 280.428 113.079 280.576C113.069 280.577 113.059 280.577 113.049 280.577ZM43.3007 279.714C43.2442 279.714 43.1874 279.696 43.1383 279.661C42.3386 279.078 41.7615 278.418 41.4227 277.701C41.1747 277.177 40.9685 276.652 40.8089 276.14C40.7635 275.994 40.8448 275.84 40.9903 275.794C41.1348 275.75 41.2907 275.83 41.3358 275.976C41.488 276.463 41.6847 276.964 41.9219 277.465C42.2208 278.099 42.7394 278.687 43.4636 279.214C43.587 279.304 43.614 279.477 43.5241 279.6C43.4697 279.674 43.386 279.714 43.3007 279.714ZM121.287 279.649C121.149 279.649 121.03 279.545 121.013 279.405C120.996 279.253 121.104 279.117 121.255 279.099C122.622 278.939 123.994 278.775 125.37 278.608C125.521 278.59 125.659 278.698 125.677 278.849C125.696 279 125.588 279.138 125.436 279.156C124.06 279.323 122.687 279.487 121.32 279.647C121.309 279.648 121.298 279.649 121.287 279.649ZM129.518 278.651C129.38 278.651 129.262 278.549 129.244 278.409C129.225 278.258 129.332 278.12 129.484 278.101C130.846 277.93 132.213 277.757 133.581 277.581C133.732 277.563 133.871 277.668 133.89 277.819C133.909 277.97 133.803 278.108 133.652 278.128C132.282 278.305 130.916 278.478 129.552 278.649C129.541 278.65 129.529 278.651 129.518 278.651ZM137.72 277.595C137.584 277.595 137.465 277.494 137.447 277.355C137.427 277.204 137.533 277.066 137.684 277.046C139.053 276.865 140.423 276.681 141.793 276.496C141.947 276.477 142.084 276.581 142.104 276.732C142.124 276.883 142.019 277.022 141.867 277.043C140.496 277.229 139.125 277.412 137.756 277.593C137.744 277.594 137.732 277.595 137.72 277.595ZM145.947 276.482C145.811 276.482 145.693 276.382 145.674 276.244C145.653 276.093 145.758 275.954 145.909 275.933C147.279 275.743 148.647 275.552 150.014 275.359C150.162 275.336 150.304 275.443 150.326 275.594C150.347 275.745 150.242 275.885 150.091 275.906C148.724 276.099 147.355 276.29 145.985 276.48C145.972 276.481 145.959 276.482 145.947 276.482ZM154.156 275.323C154.021 275.323 153.903 275.224 153.883 275.086C153.861 274.935 153.966 274.795 154.117 274.773C155.487 274.576 156.854 274.377 158.218 274.177C158.368 274.154 158.509 274.26 158.531 274.411C158.553 274.562 158.449 274.702 158.298 274.724C156.934 274.924 155.566 275.123 154.195 275.32C154.182 275.322 154.169 275.323 154.156 275.323ZM162.358 274.121C162.224 274.121 162.106 274.023 162.085 273.885C162.063 273.735 162.167 273.595 162.318 273.572C163.689 273.368 165.056 273.162 166.416 272.956C166.568 272.933 166.707 273.037 166.73 273.188C166.753 273.339 166.649 273.479 166.499 273.502C165.137 273.708 163.77 273.914 162.399 274.118C162.386 274.12 162.372 274.121 162.358 274.121ZM170.555 272.88C170.421 272.88 170.304 272.782 170.283 272.646C170.26 272.495 170.363 272.354 170.514 272.331C171.887 272.12 173.253 271.908 174.61 271.697C174.76 271.674 174.901 271.776 174.925 271.927C174.949 272.077 174.845 272.219 174.694 272.242C173.337 272.454 171.971 272.666 170.597 272.877C170.583 272.879 170.569 272.88 170.555 272.88ZM40.8006 272.251C40.7825 272.251 40.7641 272.25 40.746 272.246C40.5966 272.216 40.4996 272.07 40.53 271.921C40.7951 270.604 41.4174 269.335 42.3798 268.15C42.4758 268.031 42.6495 268.014 42.7682 268.11C42.8864 268.206 42.9045 268.38 42.8085 268.498C41.9032 269.613 41.3186 270.801 41.0713 272.03C41.0446 272.161 40.9292 272.251 40.8006 272.251ZM178.747 271.602C178.613 271.602 178.496 271.506 178.475 271.369C178.451 271.219 178.554 271.078 178.704 271.054C180.079 270.837 181.444 270.619 182.798 270.402C182.947 270.378 183.09 270.48 183.114 270.631C183.138 270.781 183.036 270.924 182.885 270.947C181.531 271.164 180.166 271.382 178.791 271.599C178.776 271.601 178.762 271.602 178.747 271.602ZM186.934 270.291C186.801 270.291 186.684 270.195 186.662 270.06C186.638 269.909 186.74 269.767 186.89 269.743C188.268 269.519 189.632 269.297 190.982 269.075C191.132 269.051 191.274 269.152 191.299 269.303C191.324 269.453 191.222 269.595 191.071 269.62C189.721 269.841 188.357 270.064 186.979 270.288C186.964 270.29 186.949 270.291 186.934 270.291ZM195.117 268.948C194.984 268.948 194.868 268.853 194.845 268.718C194.82 268.567 194.922 268.425 195.072 268.4C196.453 268.17 197.817 267.943 199.161 267.717C199.314 267.691 199.454 267.793 199.479 267.944C199.505 268.094 199.403 268.236 199.253 268.261C197.908 268.487 196.544 268.715 195.163 268.945C195.148 268.947 195.132 268.948 195.117 268.948ZM203.296 267.575C203.164 267.575 203.047 267.479 203.024 267.345C202.999 267.195 203.099 267.052 203.25 267.026C204.637 266.791 205.999 266.559 207.337 266.329C207.487 266.303 207.63 266.404 207.656 266.554C207.682 266.705 207.581 266.847 207.431 266.873C206.093 267.103 204.729 267.336 203.342 267.571C203.327 267.573 203.311 267.575 203.296 267.575ZM211.471 266.172C211.339 266.172 211.222 266.077 211.199 265.943C211.173 265.793 211.274 265.65 211.424 265.624C212.819 265.382 214.181 265.144 215.509 264.912C215.661 264.886 215.802 264.986 215.829 265.136C215.856 265.286 215.755 265.429 215.605 265.455C214.276 265.689 212.913 265.926 211.518 266.168C211.502 266.171 211.486 266.172 211.471 266.172ZM45.6519 265.838C45.5647 265.838 45.4791 265.797 45.4251 265.72C45.338 265.595 45.3683 265.423 45.4935 265.336C46.5363 264.608 47.7545 263.903 49.1136 263.24C49.2505 263.172 49.4159 263.23 49.4828 263.367C49.5497 263.504 49.4926 263.67 49.3557 263.736C48.0221 264.387 46.829 265.077 45.8093 265.789C45.7617 265.822 45.7062 265.838 45.6519 265.838ZM219.643 264.74C219.512 264.74 219.395 264.646 219.372 264.512C219.345 264.362 219.445 264.219 219.595 264.192C221.005 263.943 222.368 263.7 223.681 263.465C223.829 263.438 223.974 263.539 224.001 263.689C224.028 263.839 223.928 263.982 223.778 264.009C222.465 264.244 221.102 264.486 219.692 264.736C219.675 264.739 219.659 264.74 219.643 264.74ZM227.814 263.278C227.683 263.278 227.567 263.185 227.543 263.051C227.515 262.902 227.615 262.758 227.765 262.73C229.207 262.47 230.571 262.222 231.851 261.988C232.001 261.96 232.144 262.06 232.172 262.21C232.199 262.36 232.1 262.504 231.95 262.531C230.669 262.765 229.305 263.013 227.864 263.274C227.847 263.277 227.83 263.278 227.814 263.278ZM53.0507 262.142C52.939 262.142 52.8334 262.074 52.792 261.963C52.7389 261.82 52.8114 261.661 52.9544 261.608C54.1772 261.152 55.5074 260.708 56.9077 260.29C57.0544 260.247 57.2078 260.33 57.2511 260.476C57.2949 260.622 57.2118 260.776 57.0657 260.819C55.6771 261.234 54.3589 261.673 53.147 262.125C53.1154 262.137 53.0829 262.142 53.0507 262.142ZM235.987 261.785C235.856 261.785 235.74 261.692 235.715 261.559C235.688 261.409 235.786 261.265 235.937 261.237C237.494 260.95 238.863 260.694 240.026 260.477C240.175 260.448 240.32 260.547 240.348 260.697C240.376 260.847 240.277 260.991 240.127 261.019C238.964 261.238 237.595 261.493 236.037 261.78C236.02 261.783 236.003 261.785 235.987 261.785ZM244.171 260.249C244.041 260.249 243.925 260.158 243.9 260.025C243.871 259.876 243.97 259.731 244.119 259.703C244.399 259.649 244.559 259.618 244.593 259.612C244.755 259.574 244.93 259.707 244.93 259.881C244.93 260.11 244.904 260.115 244.223 260.245C244.206 260.248 244.188 260.249 244.171 260.249ZM60.9924 259.747C60.8681 259.747 60.7555 259.663 60.7245 259.537C60.6882 259.389 60.7788 259.239 60.927 259.203C62.2174 258.886 63.5839 258.579 64.989 258.291C65.1384 258.261 65.2842 258.357 65.3148 258.507C65.3455 258.656 65.2492 258.802 65.0998 258.832C63.7017 259.119 62.3422 259.424 61.0586 259.739C61.0362 259.745 61.0142 259.747 60.9924 259.747ZM69.1237 258.071C68.9917 258.071 68.8748 257.976 68.8518 257.842C68.826 257.691 68.9267 257.549 69.077 257.523C70.4005 257.295 71.7827 257.076 73.1847 256.873C73.3379 256.85 73.4756 256.956 73.4977 257.106C73.5195 257.258 73.4149 257.397 73.2642 257.42C71.8667 257.622 70.4895 257.84 69.1709 258.067C69.1547 258.07 69.139 258.071 69.1237 258.071ZM77.3403 256.876C77.2025 256.876 77.0834 256.774 77.0666 256.634C77.0481 256.482 77.1562 256.345 77.3075 256.326C78.6681 256.162 80.0585 256.009 81.4412 255.872C81.5919 255.859 81.7281 255.968 81.7432 256.12C81.7579 256.272 81.6471 256.407 81.4955 256.422C80.1171 256.558 78.7304 256.71 77.3741 256.874C77.3624 256.876 77.3514 256.876 77.3403 256.876ZM85.6069 256.059C85.4643 256.059 85.3433 255.949 85.332 255.804C85.3203 255.652 85.4342 255.519 85.5861 255.508C88.1506 255.31 89.7469 255.242 89.7628 255.242C89.9156 255.23 90.0436 255.353 90.05 255.506C90.0565 255.658 89.9381 255.787 89.7858 255.794C89.7702 255.794 88.1824 255.862 85.6284 256.058C85.6213 256.059 85.614 256.059 85.6069 256.059Z" fill="#AFCDFB"/>
<path d="M253.399 274.792L287.405 255.518L256.383 257.351L258.777 262.592L252.369 269.691L253.399 274.792Z" fill="#AFCDFB"/>
<path d="M287.405 255.518L251.769 262.049L225.815 280.077L287.405 255.518Z" fill="white"/>
<path d="M256.383 257.351L287.405 255.518L254.955 246.007L256.383 257.351Z" fill="white"/>
<path d="M437.345 21.5468L475.951 27.6581L450.543 9.76294L449.152 15.3538L439.716 16.9144L437.345 21.5468Z" fill="#AFCDFB"/>
<path d="M475.951 27.6586L444.008 10.5641L412.476 8.49438L475.951 27.6586Z" fill="white"/>
<path d="M450.543 9.76319L475.951 27.6584L456.493 0L450.543 9.76319Z" fill="white"/>
<path d="M554.249 177.989C554.249 177.989 546.377 178.535 540.566 192.713C534.704 207.014 547.814 206.872 543.398 215.982C538.981 225.093 549.754 230.527 553.026 237.986C556.297 245.445 572.78 263.439 574.086 271.646C575.391 279.853 590.048 263.113 590.048 263.113C590.048 263.113 604.946 247.22 599.604 237.986C590.8 222.768 598.427 219.461 598.151 210.961C597.874 202.462 581.743 168.97 554.249 177.989Z" fill="#233862"/>
<path d="M549.974 228.853C549.974 228.853 519.499 242.137 513.71 241.885C507.921 241.632 472.249 231.018 472.249 231.018L473.157 237.155C473.157 237.155 500.686 252.99 510.311 253.888C519.786 254.773 552.186 245.383 555.314 243.401C558.442 241.418 559.065 230.859 549.974 228.853Z" fill="#FFAD76"/>
<path d="M547.515 243.417C550.316 245.36 553.829 246.963 558.237 247.98C574.764 251.799 581.097 237.83 583.476 228.24C581.222 226.95 579.102 226.666 577.877 226.52C576.683 226.379 575.426 226.285 574.386 226.234C572.53 224.812 569.765 218.994 569.153 209.96L568.376 210.169L555.351 213.734C555.351 213.734 555.947 217.875 556.24 221.789C556.466 224.852 556.863 226.63 556.283 227.346C555.267 227.566 554.295 228.859 554.295 228.859C554.295 228.859 554.294 228.864 554.289 228.872C554.114 229.158 550.335 235.373 547.515 243.417Z" fill="#FFB27D"/>
<path d="M555.35 213.737C555.35 213.737 555.949 217.874 556.239 221.792C563.618 221.053 567.043 214.026 568.376 210.172L555.35 213.737Z" fill="#ED985F"/>
<path d="M553.147 217.624C553.147 217.624 570.662 216.658 569.892 205.758C569.122 194.858 570.865 187.392 559.649 187.549C548.433 187.705 546.557 192.018 545.929 195.718C545.301 199.418 548.571 217.595 553.147 217.624Z" fill="#FFB27D"/>
<path d="M557.1 201.32C557.225 201.997 556.968 202.612 556.525 202.693C556.082 202.775 555.623 202.292 555.497 201.615C555.372 200.938 555.63 200.323 556.073 200.242C556.515 200.159 556.976 200.642 557.1 201.32Z" fill="#263238"/>
<path d="M554.85 207.803C554.822 207.738 554.079 207.986 552.903 208.437C552.608 208.559 552.314 208.645 552.165 208.48C551.99 208.314 551.946 207.95 551.907 207.553C551.807 206.737 551.702 205.882 551.592 204.985C551.114 201.345 550.61 198.412 550.463 198.433C550.316 198.453 550.585 201.421 551.062 205.061C551.186 205.955 551.304 206.808 551.418 207.623C551.483 207.997 551.495 208.453 551.862 208.795C552.049 208.964 552.335 209.005 552.54 208.957C552.748 208.915 552.907 208.834 553.049 208.768C554.189 208.232 554.879 207.867 554.85 207.803Z" fill="#263238"/>
<path d="M549.447 202.732C549.573 203.409 549.314 204.025 548.872 204.106C548.43 204.188 547.97 203.705 547.845 203.028C547.72 202.351 547.978 201.736 548.42 201.655C548.862 201.573 549.322 202.055 549.447 202.732Z" fill="#263238"/>
<path d="M559.004 198.413C559.068 198.392 559.128 198.355 559.176 198.302C559.328 198.137 559.315 197.882 559.151 197.73C557.5 196.221 555.688 196.666 555.611 196.687C555.394 196.742 555.265 196.963 555.32 197.18C555.376 197.395 555.596 197.525 555.811 197.471C555.871 197.456 557.288 197.123 558.606 198.328C558.717 198.43 558.87 198.457 559.004 198.413Z" fill="#263238"/>
<path d="M545.665 200.709C545.789 200.668 545.892 200.568 545.929 200.432C546.405 198.711 547.782 198.239 547.84 198.22C548.051 198.151 548.168 197.923 548.099 197.712C548.031 197.5 547.805 197.382 547.593 197.451C547.517 197.477 545.745 198.06 545.149 200.216C545.089 200.432 545.216 200.654 545.43 200.715C545.512 200.736 545.592 200.732 545.665 200.709Z" fill="#263238"/>
<path d="M588.465 279.033C590.047 270.946 595.204 238.637 590.047 228.24C588.195 224.505 580.927 224.168 572.953 224.496C570.471 226.098 561.016 232.152 557.132 231.396C557.091 231.388 557.015 231.371 556.915 231.345C555.086 230.888 554.758 228.453 556.283 227.346C556.286 227.343 551.972 228.114 547.067 229.038C544.297 229.56 536.825 233.426 536.825 233.426C536.825 233.426 540.588 240.224 546.136 242.572C545.193 251.012 546.596 254.736 555.351 274.232C562.749 290.711 554.353 305.548 554.353 305.548C554.353 305.548 597.906 340.569 598.148 322.738C598.331 309.313 586.444 289.369 588.465 279.033Z" fill="#EFCB3A"/>
<path d="M552.194 343.629C549.825 343.361 547.693 342.064 546.369 340.082C546.159 339.768 545.934 339.43 545.696 339.068C540.738 331.563 538.809 308.576 527.659 284.088C524.942 278.126 515.192 277.054 512.534 270.315C512.534 270.315 505.991 248.471 525.058 247.826C544.126 247.182 576.124 308.606 576.63 315.047C577.119 321.288 589.235 347.809 552.194 343.629Z" fill="#233862"/>
<path d="M476.409 343.126H503.548C503.548 343.126 504.562 338.797 502.781 335.851C501.203 333.245 501.808 331.76 502.976 329.604C501.747 330.107 500.156 330.565 498.405 330.465C497.053 330.387 495.624 329.773 494.369 329.045C493.201 330.377 488.2 336.046 486.637 337.169C484.863 338.443 476.955 337.989 476.409 343.126Z" fill="#172B4C"/>
<path d="M585.604 236.709C585.604 236.709 589.136 268.85 566.229 275.584C543.322 282.319 536.819 246.012 555.314 243.401C573.81 240.789 585.604 236.709 585.604 236.709Z" fill="#C1A42D"/>
<path d="M511.914 254.141C510.28 266.394 503.898 305.068 492.64 323.936C489.011 330.019 501.784 333.429 501.853 333.411C503.566 332.962 506.42 330.231 507.736 329.045C516.875 320.807 535.428 297.481 535.428 278.781C535.428 269.662 535.588 252.248 528.958 247.821C524.876 245.096 512.563 249.274 511.914 254.141Z" fill="#233862"/>
<path d="M568.377 343.126C568.377 343.126 567.372 341.726 565.618 339.068C563.531 335.906 561.221 329.684 558.419 321.708C555.475 313.337 551.983 303.036 547.619 292.318C546.272 289.01 544.842 285.662 543.321 282.318C540.605 276.356 533.133 277.18 530.475 270.44C530.475 270.44 520.102 247.077 539.17 246.433C558.237 245.788 594.469 308.931 596.551 315.047C598.83 321.742 609.951 349.54 568.377 343.126Z" fill="#2B478B"/>
<path d="M496.331 343.126H523.47C523.47 343.126 524.484 338.797 522.703 335.851C521.125 333.245 521.73 331.76 522.898 329.604C521.669 330.107 520.079 330.565 518.327 330.465C516.975 330.387 515.545 329.773 514.291 329.045C513.123 330.377 508.122 336.046 506.559 337.169C504.785 338.443 496.877 337.989 496.331 343.126Z" fill="#233862"/>
<path d="M558.419 321.709C555.475 313.337 551.983 303.036 547.619 292.318C548.759 284.199 551.217 277.095 555.351 274.231C555.351 274.231 565.381 305.305 558.419 321.709Z" fill="#23407A"/>
<path d="M527.755 253.272C526.121 265.525 523.82 305.067 512.563 323.935C508.933 330.018 521.707 333.428 521.775 333.41C523.488 332.962 526.342 330.23 527.658 329.044C536.797 320.807 555.35 297.481 555.35 278.78C555.35 269.662 544.65 252.979 538.02 248.553C533.938 245.827 528.405 248.405 527.755 253.272Z" fill="#2B478B"/>
<path d="M494.153 221.139C494.153 221.139 492.764 217.606 490.234 217.836C487.703 218.066 464.723 221.139 464.723 221.139C464.723 221.139 467.398 221.778 468.407 223.534L479.008 254.776H506.198L494.153 221.139Z" fill="#EBF3FA"/>
<path d="M583.476 228.24C583.476 228.24 544.957 242.427 539.169 242.137C535.428 241.948 504.334 231.017 504.334 231.017L501.542 236.298C501.542 236.298 531.807 255.753 540.127 255.657C556.554 255.467 584.271 245.382 587.399 243.4C590.528 241.417 592.567 230.246 583.476 228.24Z" fill="#FFBF94"/>
<path d="M504.334 231.018C504.334 231.018 501.542 226.721 498.763 226.595C495.983 226.469 491.182 228.49 489.54 228.806C487.897 229.122 483.223 230.639 484.612 232.913C486.002 235.187 492.445 235.693 495.225 235.187C498.005 234.682 501.542 236.299 501.542 236.299L504.334 231.018Z" fill="#FFBF94"/>
<path d="M499.519 226.728C499.519 226.728 495.099 224.7 493.836 224.321C492.572 223.941 492.825 224.327 493.204 225.524C493.583 226.721 495.857 227.865 495.857 228.241C495.857 228.617 499.519 226.728 499.519 226.728Z" fill="#FFBF94"/>
<path d="M549.868 211.356C549.868 211.356 551.524 210.701 556.183 211.078C556.183 211.078 555.936 212.897 552.499 213.076C550.553 213.178 549.868 211.356 549.868 211.356Z" fill="white"/>
<path d="M563.63 235.238C563.63 235.238 567.076 246.145 578.908 248.627C578.908 248.627 598.446 242.607 588.718 229.294C588.718 229.294 579.099 222.146 563.63 235.238Z" fill="#EFCB3A"/>
<path d="M464.723 221.139C464.723 221.139 462.169 222.115 464.102 225.429L488.946 222.116C488.946 222.116 488.083 218.273 490.034 217.856L464.723 221.139Z" fill="white"/>
<path d="M473.625 229.293C474.215 226.931 474.179 226.36 472.843 224.918C471.961 223.965 470.611 226.328 469.912 227.754C469.655 227.124 469.219 226.1 469.07 226.049C468.856 225.975 469.368 229.224 469.368 229.224L469.369 229.223C469.355 229.357 469.35 229.493 469.353 229.63L469.352 229.627C469.352 229.627 468.274 234.401 472.97 236.982L472.075 234.35C472.619 234.259 473.027 231.691 473.625 229.293Z" fill="#FFAD76"/>
<path d="M552.481 189.958C552.481 189.958 556.174 188.664 557.962 192.437C559.751 196.21 560.318 205.229 567.488 205.965C574.657 206.701 574.933 190.689 574.933 190.689L556.99 183.603L547.515 189.584L552.481 189.958Z" fill="#233862"/>
<path d="M552.481 189.958C552.481 189.958 548.438 190.044 547.515 193.449C546.592 196.854 548.033 203.204 545.795 203.664C543.556 204.124 541.522 193.081 545.852 189.491C550.181 185.903 552.481 189.958 552.481 189.958Z" fill="#233862"/>
<path d="M235.14 130.839C235.14 130.839 239.187 129.306 239.647 128.248C240.107 127.19 241.441 126.73 243.051 125.993C244.662 125.257 245.628 123.923 245.858 124.107C246.088 124.291 246.134 125.211 245.49 125.902C244.846 126.592 242.118 131.423 241.089 131.976C240.061 132.527 235.14 130.839 235.14 130.839Z" fill="#FFB27D"/>
<path d="M655.055 342.93H629.042C627.648 341.747 630.007 339.061 632.471 338.881C633.542 338.8 634.895 339.024 636.442 339.351C636.799 334.596 638.843 313.22 646.548 314.079C655.211 315.04 646.548 323.492 644.099 328.496C642.285 332.203 640.372 337.518 639.497 340.026C640.201 340.179 640.929 340.328 641.673 340.465C642.821 336.939 647.092 325.08 652.525 325.77C658.904 326.579 656.34 331.335 651.819 334.157C648.502 336.233 644.429 339.183 642.494 340.608C644.133 340.876 645.845 341.056 647.581 341.016C652.037 340.91 654.212 342.223 655.055 342.93Z" fill="#82B378"/>
<path d="M72.0805 343.459C72.0805 343.459 62.193 316.301 55.2505 318.616C48.308 320.93 72.0805 343.459 72.0805 343.459Z" fill="#82B378"/>
<path d="M68.294 343.459C67.4525 343.459 51.6745 327.083 50.6226 331.37C49.5706 335.658 68.294 343.459 68.294 343.459Z" fill="#82B378"/>
<path d="M85.124 343.459C85.124 343.459 78.5985 337.475 70.3367 339.033C62.075 340.591 58.5464 342.297 53.3573 341.116C48.1679 339.936 45.5168 343.459 45.5168 343.459H85.124Z" fill="#82B378"/>
<path d="M285.001 332.615H236.505C232.833 332.615 229.857 329.638 229.857 325.966V314.85C229.857 311.178 232.833 308.201 236.505 308.201H285.001C288.672 308.201 291.648 311.178 291.648 314.85V325.966C291.648 329.638 288.672 332.615 285.001 332.615Z" fill="#DEE5FD"/>
<path d="M275.996 314.271H237.281C236.848 314.271 236.494 313.917 236.494 313.485C236.494 313.052 236.848 312.698 237.281 312.698H275.996C276.429 312.698 276.782 313.052 276.782 313.485C276.782 313.917 276.429 314.271 275.996 314.271Z" fill="#6B93F6"/>
<path d="M244.147 317.661H237.281C236.848 317.661 236.494 317.307 236.494 316.875C236.494 316.442 236.848 316.088 237.281 316.088H244.147C244.579 316.088 244.933 316.442 244.933 316.875C244.933 317.307 244.579 317.661 244.147 317.661Z" fill="#6B93F6"/>
<path d="M265.777 317.661H246.861C246.429 317.661 246.075 317.307 246.075 316.875C246.075 316.442 246.428 316.088 246.861 316.088H265.777C266.209 316.088 266.563 316.442 266.563 316.875C266.563 317.307 266.209 317.661 265.777 317.661Z" fill="#6B93F6"/>
<path d="M275.996 323.941H237.281C236.848 323.941 236.494 323.587 236.494 323.155C236.494 322.722 236.848 322.368 237.281 322.368H275.996C276.429 322.368 276.782 322.722 276.782 323.155C276.782 323.587 276.429 323.941 275.996 323.941Z" fill="#6B93F6"/>
<path d="M251.332 327.331H237.281C236.848 327.331 236.494 326.978 236.494 326.545C236.494 326.113 236.848 325.759 237.281 325.759H251.332C251.765 325.759 252.118 326.112 252.118 326.545C252.118 326.978 251.765 327.331 251.332 327.331Z" fill="#6B93F6"/>
<path d="M268.43 327.331H254.379C253.946 327.331 253.593 326.978 253.593 326.545C253.593 326.113 253.946 325.759 254.379 325.759H268.43C268.863 325.759 269.217 326.112 269.217 326.545C269.217 326.978 268.863 327.331 268.43 327.331Z" fill="#6B93F6"/>
<g clip-path="url(#clip0_2274_24854)">
<path d="M333.611 210.74C334.68 210.74 335.624 210.959 336.441 211.399C337.267 211.839 337.909 212.458 338.366 213.257C338.823 214.047 339.052 214.956 339.052 215.985C339.052 217.014 338.818 217.928 338.352 218.728C337.895 219.527 337.243 220.146 336.397 220.586C335.561 221.026 334.598 221.245 333.509 221.245H329.205V210.74H333.611ZM333.684 219.027C334.199 219.027 334.656 218.902 335.055 218.653C335.454 218.403 335.765 218.048 335.988 217.589C336.212 217.129 336.324 216.604 336.324 216.015C336.324 215.415 336.202 214.886 335.959 214.426C335.726 213.967 335.4 213.612 334.982 213.362C334.564 213.102 334.087 212.973 333.552 212.973H331.875V219.027H333.684Z" fill="#1212FF"/>
<path d="M356.303 210.74H359.206L362.167 216.884L365.114 210.74H368.017V221.245H365.653L365.639 214.591L363.028 220.196H361.306L358.681 214.591V221.245H356.303V210.74Z" fill="#1212FF"/>
<path d="M372.195 210.74H374.865V221.245H372.195V210.74Z" fill="#1212FF"/>
<path d="M379.042 210.74H386.685L386.671 212.928H381.711V215.266H386.291V217.454H381.711V221.245H379.042V210.74Z" fill="#1212FF"/>
<path d="M397.09 221.245L396.39 219.387H391.97L391.255 221.245H388.512L392.903 210.74H395.646L399.934 221.245H397.09ZM392.772 217.289H395.602L394.202 213.542L392.772 217.289Z" fill="#1212FF"/>
<path fill-rule="evenodd" clip-rule="evenodd" d="M347.177 211.504C344.761 211.504 342.801 213.517 342.801 216C342.801 218.483 344.761 220.496 347.177 220.496C349.594 220.496 351.554 218.483 351.554 216C351.554 213.517 349.594 211.504 347.177 211.504ZM341.343 216C341.343 212.689 343.955 210.005 347.177 210.005C350.4 210.005 353.012 212.689 353.012 216C353.012 219.311 350.4 221.995 347.177 221.995C343.955 221.995 341.343 219.311 341.343 216Z" fill="#1212FF"/>
<path d="M347.177 224.243L345.282 220.871H349.072L347.177 224.243Z" fill="#1212FF"/>
<path d="M350.071 215.561L347.396 212.687C347.349 212.639 347.286 212.613 347.221 212.613C347.155 212.613 347.092 212.639 347.045 212.687L344.371 215.561C344.338 215.596 344.316 215.641 344.307 215.689C344.299 215.737 344.304 215.787 344.323 215.832C344.341 215.877 344.373 215.916 344.413 215.943C344.452 215.969 344.499 215.984 344.547 215.984H344.911C344.944 215.984 344.975 215.997 344.997 216.02C345.02 216.044 345.033 216.076 345.033 216.109V218.233C345.033 218.332 345.071 218.428 345.14 218.498C345.208 218.568 345.301 218.608 345.398 218.608H349.044C349.141 218.608 349.234 218.568 349.302 218.498C349.37 218.428 349.409 218.332 349.409 218.233V216.109C349.409 216.076 349.422 216.044 349.444 216.02C349.467 215.997 349.498 215.984 349.53 215.984H349.895C349.943 215.984 349.989 215.969 350.029 215.942C350.069 215.915 350.1 215.877 350.119 215.832C350.137 215.787 350.143 215.737 350.134 215.689C350.126 215.641 350.103 215.596 350.071 215.561Z" fill="#1212FF"/>
</g>
<defs>
<clipPath id="clip0_2274_24854">
<rect width="71.1795" height="14.2376" fill="white" transform="translate(329.205 210.005)"/>
</clipPath>
</defs>
</svg>
