<svg width="374" height="374" viewBox="0 0 374 374" fill="none" xmlns="http://www.w3.org/2000/svg">
<path d="M332.053 236.42H196.855C194.437 236.42 192.47 234.453 192.47 232.035V35.1069C192.47 32.6894 194.437 30.7222 196.855 30.7222H332.053C334.47 30.7222 336.437 32.6887 336.437 35.1069V232.035C336.438 234.453 334.471 236.42 332.053 236.42ZM196.855 30.9092C194.539 30.9092 192.657 32.7926 192.657 35.1069V232.035C192.657 234.35 194.54 236.233 196.855 236.233H332.053C334.368 236.233 336.25 234.35 336.25 232.035V35.1069C336.25 32.7926 334.367 30.9092 332.053 30.9092H196.855Z" fill="#E0E0E0"/>
<path d="M176.149 236.42H40.9502C38.5327 236.42 36.5654 234.453 36.5654 232.035V35.1069C36.5654 32.6894 38.5319 30.7222 40.9502 30.7222H176.149C178.567 30.7222 180.534 32.6887 180.534 35.1069V232.035C180.534 234.453 178.567 236.42 176.149 236.42ZM40.9502 30.9092C38.6359 30.9092 36.7524 32.7926 36.7524 35.1069V232.035C36.7524 234.35 38.6359 236.233 40.9502 236.233H176.149C178.464 236.233 180.347 234.35 180.347 232.035V35.1069C180.347 32.7926 178.463 30.9092 176.149 30.9092H40.9502Z" fill="#E0E0E0"/>
<path d="M374 282.101H0V282.288H374V282.101Z" fill="#E0E0E0"/>
<path d="M50.6633 292.771H38.6504V292.958H50.6633V292.771Z" fill="#E0E0E0"/>
<path d="M167.463 290.743H127.423V290.93H167.463V290.743Z" fill="#E0E0E0"/>
<path d="M78.5271 299.719H51.4121V299.906H78.5271V299.719Z" fill="#E0E0E0"/>
<path d="M315.314 290.646H283.008V290.833H315.314V290.646Z" fill="#E0E0E0"/>
<path d="M326.713 290.646H321.979V290.833H326.713V290.646Z" fill="#E0E0E0"/>
<path d="M276.836 295.306H236.526V295.493H276.836V295.306Z" fill="#E0E0E0"/>
<path d="M52.2736 272.201C52.6626 271.097 53.5086 270.568 54.4914 270.305C55.2581 270.1 55.9201 270.293 56.7205 270.537C57.0915 270.65 57.5612 270.913 58.0025 271.239C57.9083 270.698 57.8829 270.161 57.9479 269.778C58.0886 268.953 58.2112 268.275 58.7378 267.681C59.4125 266.92 60.2638 266.4 61.4254 266.546C62.516 266.682 63.3044 267.691 63.6515 268.735C63.9985 269.778 63.9701 271.075 63.8003 272.111C63.4435 274.284 63.0142 276.027 62.0058 277.717C59.5135 277.801 58.292 277.468 56.1894 276.815C55.1863 276.504 54.015 275.949 53.237 275.172C52.4584 274.394 51.9086 273.239 52.2736 272.201Z" fill="#EBEBEB"/>
<path d="M335.723 162.818L268.363 183.916L282.514 229.096L349.874 207.998L335.723 162.818Z" fill="#EBEBEB"/>
<path d="M268.997 184.229C268.997 184.229 309.724 202.304 310.989 201.909C312.254 201.512 335.396 163.331 335.396 163.331" stroke="#FAFAFA" stroke-width="0.748001" stroke-miterlimit="10" stroke-linecap="round" stroke-linejoin="round"/>
<path d="M282.516 229.076L297.46 196.603" stroke="#FAFAFA" stroke-width="0.748001" stroke-miterlimit="10"/>
<path d="M349.874 207.974L318.895 190.53" stroke="#FAFAFA" stroke-width="0.748001" stroke-miterlimit="10"/>
<path d="M81.8243 199.784L33.7549 176.031L17.8229 208.273L65.8923 232.026L81.8243 199.784Z" fill="#EBEBEB"/>
<path d="M33.9385 176.553C33.9385 176.553 46.8258 207.852 47.7286 208.298C48.6315 208.743 81.3767 199.913 81.3767 199.913" stroke="#FAFAFA" stroke-width="0.748001" stroke-miterlimit="10" stroke-linecap="round" stroke-linejoin="round"/>
<path d="M17.833 208.281L43.0803 198.285" stroke="#FAFAFA" stroke-width="0.748001" stroke-miterlimit="10"/>
<path d="M65.9055 232.032L58.041 206.196" stroke="#FAFAFA" stroke-width="0.748001" stroke-miterlimit="10"/>
<path d="M267.836 67.1984L209.74 61.8369L206.144 100.803L264.239 106.164L267.836 67.1984Z" fill="#EBEBEB"/>
<path d="M210.113 62.2837C210.113 62.2837 235.418 89.0412 236.509 89.1422C237.599 89.2431 267.41 67.4928 267.41 67.4928" stroke="#FAFAFA" stroke-width="0.748001" stroke-miterlimit="10" stroke-linecap="round" stroke-linejoin="round"/>
<path d="M206.141 100.794L227.881 80.7871" stroke="#FAFAFA" stroke-width="0.748001" stroke-miterlimit="10"/>
<path d="M264.234 106.154L246.162 82.9824" stroke="#FAFAFA" stroke-width="0.748001" stroke-miterlimit="10"/>
<path d="M297.004 112.585C298.65 112.188 299.957 112.798 301.049 113.783C301.901 114.552 302.189 115.507 302.523 116.67C302.678 117.209 302.728 117.987 302.68 118.779C303.262 118.239 303.895 117.785 304.409 117.562C305.521 117.083 306.441 116.699 307.576 116.87C309.031 117.089 310.332 117.713 311.07 119.237C311.762 120.669 311.159 122.419 310.165 123.662C309.172 124.904 307.578 125.89 306.187 126.5C303.27 127.778 300.816 128.628 297.972 128.735C295.909 125.776 295.351 124.033 294.488 120.967C294.077 119.505 293.827 117.648 294.157 116.092C294.488 114.535 295.457 112.958 297.004 112.585Z" fill="#EBEBEB"/>
<path d="M60.1379 67.5203C60.5268 66.4162 61.3728 65.8874 62.3557 65.6241C63.1224 65.4192 63.7844 65.6121 64.5847 65.8552C64.9557 65.9682 65.4255 66.2315 65.8668 66.5576C65.7726 66.0168 65.7471 65.479 65.8122 65.0968C65.9521 64.2717 66.0755 63.5933 66.6021 62.9994C67.2768 62.2379 68.128 61.7181 69.2897 61.8639C70.381 62.0008 71.1686 63.0099 71.5157 64.0533C71.8628 65.0975 71.8344 66.3923 71.6646 67.429C71.3078 69.602 70.8784 71.3456 69.8701 73.0346C67.3778 73.1183 66.1563 72.7855 64.0537 72.1325C63.0506 71.8213 61.8792 71.2663 61.1013 70.4899C60.3226 69.7134 59.7728 68.557 60.1379 67.5203Z" fill="#EBEBEB"/>
<path d="M309.585 62.8015C309.974 61.6975 310.82 61.1687 311.803 60.9054C312.57 60.7004 313.232 60.8934 314.032 61.1365C314.403 61.2494 314.873 61.5127 315.314 61.8389C315.22 61.2981 315.194 60.7603 315.259 60.378C315.4 59.553 315.523 58.8745 316.049 58.2806C316.724 57.5192 317.575 56.9993 318.737 57.1452C319.828 57.282 320.616 58.2911 320.963 59.3346C321.31 60.378 321.282 61.6736 321.112 62.7103C320.755 64.8832 320.326 66.6268 319.317 68.3158C316.825 68.3996 315.604 68.0667 313.501 67.4137C312.498 67.1025 311.326 66.5475 310.549 65.7704C309.77 64.9947 309.22 63.8383 309.585 62.8015Z" fill="#EBEBEB"/>
<path d="M341.303 339.986C341.303 342.52 271.352 344.573 185.064 344.573C98.776 344.573 28.8252 342.52 28.8252 339.986C28.8252 337.453 98.7753 335.399 185.064 335.399C271.353 335.399 341.303 337.453 341.303 339.986Z" fill="#F5F5F5"/>
<path d="M281.195 299.842L120.031 284.973C118.015 284.787 116.531 283.001 116.717 280.984L126.911 170.49L209.515 119.196C212.544 117.307 216.452 117.615 219.147 119.956L295.377 186.034L285.18 296.556C284.981 298.56 283.201 300.028 281.195 299.842Z" fill="#0063CB"/>
<path opacity="0.2" d="M281.195 299.842L120.031 284.973C118.015 284.787 116.531 283.001 116.717 280.984L126.911 170.49L209.515 119.196C212.544 117.307 216.452 117.615 219.147 119.956L295.377 186.034L285.18 296.556C284.981 298.56 283.201 300.028 281.195 299.842Z" fill="black"/>
<path d="M295.378 186.034L285.18 296.565C284.992 298.416 283.449 299.831 281.59 299.861L281.225 299.827L120.034 284.955L119.66 284.921C117.845 284.544 116.597 282.872 116.751 281.025L126.949 170.495L194.134 226.643L197.807 229.744L203.703 234.679L210.759 230.939L215.156 228.583L295.378 186.034Z" fill="#0063CB"/>
<path opacity="0.2" d="M285.312 295.122L285.212 296.208C285.097 298.163 283.543 299.725 281.589 299.851L281.224 299.817L120.034 284.946L119.66 284.911C117.77 284.423 116.538 282.605 116.783 280.669L116.884 279.574L194.134 226.634L197.806 229.734L203.703 234.67L210.759 230.93L215.156 228.573L285.312 295.122Z" fill="black"/>
<path d="M280.462 193.945L215.155 228.583L194.649 227.069L140.643 181.939L146.126 122.502L285.864 135.395L280.462 193.945Z" fill="#E8EDFF"/>
<path opacity="0.7" d="M280.462 193.945L215.155 228.583L194.649 227.069L140.643 181.939L146.126 122.502L285.864 135.395L280.462 193.945Z" fill="white"/>
<g clip-path="url(#clip0_675_21235)">
<path d="M164.221 171.087L165.656 157.436L169.108 157.798L171.84 163.882L175.777 158.499L179.229 158.862L177.794 172.513L175.025 172.222L176.054 162.432L172.474 167.222L170.524 167.017L168.019 161.588L166.99 171.378L164.221 171.087ZM186.893 163.138C190.092 163.474 192.028 166.063 191.718 169.008C191.409 171.953 188.977 174.083 185.778 173.747C182.58 173.411 180.644 170.821 180.954 167.877C181.263 164.932 183.695 162.802 186.893 163.138ZM186.063 171.411C187.643 171.577 188.966 170.434 189.144 168.737C189.325 167.021 188.266 165.648 186.686 165.482C185.048 165.31 183.708 166.431 183.528 168.147C183.347 169.863 184.425 171.238 186.063 171.411ZM193.461 174.16L194.494 164.331L196.97 164.591L196.888 165.371C197.641 164.78 198.611 164.369 199.917 164.507C202.043 164.73 203.586 166.371 203.28 169.277L202.665 175.127L200.169 174.865L200.774 169.112C200.911 167.805 200.256 166.908 199.047 166.781C197.799 166.65 197.048 167.419 196.612 168.004L195.937 174.42L193.461 174.16Z" fill="#DEE5FD"/>
<path d="M164.221 171.087L163.955 171.059L163.927 171.325L164.193 171.353L164.221 171.087ZM165.656 157.436L165.684 157.17L165.418 157.142L165.39 157.408L165.656 157.436ZM169.108 157.798L169.351 157.689L169.288 157.549L169.135 157.532L169.108 157.798ZM171.84 163.882L171.596 163.992L171.784 164.411L172.055 164.04L171.84 163.882ZM175.777 158.499L175.805 158.233L175.652 158.217L175.561 158.342L175.777 158.499ZM179.229 158.862L179.495 158.89L179.523 158.624L179.257 158.596L179.229 158.862ZM177.794 172.513L177.766 172.779L178.032 172.807L178.06 172.541L177.794 172.513ZM175.025 172.222L174.759 172.194L174.731 172.46L174.997 172.488L175.025 172.222ZM176.054 162.432L176.32 162.46L176.421 161.494L175.84 162.272L176.054 162.432ZM172.474 167.222L172.447 167.488L172.598 167.504L172.689 167.382L172.474 167.222ZM170.524 167.017L170.282 167.129L170.345 167.267L170.496 167.283L170.524 167.017ZM168.019 161.588L168.262 161.476L167.855 160.594L167.753 161.56L168.019 161.588ZM166.99 171.378L166.962 171.644L167.228 171.672L167.256 171.406L166.99 171.378ZM164.221 171.087L164.487 171.115L165.922 157.464L165.656 157.436L165.39 157.408L163.955 171.059L164.221 171.087ZM165.656 157.436L165.628 157.702L169.08 158.064L169.108 157.798L169.135 157.532L165.684 157.17L165.656 157.436ZM169.108 157.798L168.864 157.908L171.596 163.992L171.84 163.882L172.084 163.773L169.351 157.689L169.108 157.798ZM171.84 163.882L172.055 164.04L175.993 158.657L175.777 158.499L175.561 158.342L171.624 163.724L171.84 163.882ZM175.777 158.499L175.749 158.765L179.201 159.128L179.229 158.862L179.257 158.596L175.805 158.233L175.777 158.499ZM179.229 158.862L178.963 158.834L177.528 172.485L177.794 172.513L178.06 172.541L179.495 158.89L179.229 158.862ZM177.794 172.513L177.822 172.247L175.053 171.956L175.025 172.222L174.997 172.488L177.766 172.779L177.794 172.513ZM175.025 172.222L175.291 172.25L176.32 162.46L176.054 162.432L175.788 162.404L174.759 172.194L175.025 172.222ZM176.054 162.432L175.84 162.272L172.26 167.062L172.474 167.222L172.689 167.382L176.268 162.592L176.054 162.432ZM172.474 167.222L172.502 166.956L170.552 166.751L170.524 167.017L170.496 167.283L172.447 167.488L172.474 167.222ZM170.524 167.017L170.767 166.905L168.262 161.476L168.019 161.588L167.776 161.7L170.282 167.129L170.524 167.017ZM168.019 161.588L167.753 161.56L166.724 171.35L166.99 171.378L167.256 171.406L168.285 161.616L168.019 161.588ZM166.99 171.378L167.018 171.112L164.249 170.821L164.221 171.087L164.193 171.353L166.962 171.644L166.99 171.378ZM186.893 163.138L186.865 163.404C189.914 163.724 191.747 166.179 191.452 168.98L191.718 169.008L191.984 169.036C192.309 165.948 190.27 163.224 186.921 162.872L186.893 163.138ZM191.718 169.008L191.452 168.98C191.158 171.781 188.855 173.801 185.806 173.481L185.778 173.747L185.75 174.013C189.099 174.365 191.66 172.124 191.984 169.036L191.718 169.008ZM185.778 173.747L185.806 173.481C182.758 173.16 180.925 170.706 181.219 167.905L180.954 167.877L180.688 167.849C180.363 170.937 182.402 173.661 185.75 174.013L185.778 173.747ZM180.954 167.877L181.219 167.905C181.514 165.103 183.817 163.083 186.865 163.404L186.893 163.138L186.921 162.872C183.573 162.52 181.012 164.76 180.688 167.849L180.954 167.877ZM186.063 171.411L186.035 171.677C187.778 171.86 189.218 170.592 189.41 168.765L189.144 168.737L188.878 168.71C188.714 170.276 187.508 171.294 186.091 171.145L186.063 171.411ZM189.144 168.737L189.41 168.765C189.604 166.918 188.456 165.399 186.714 165.216L186.686 165.482L186.659 165.748C188.076 165.897 189.045 167.124 188.878 168.71L189.144 168.737ZM186.686 165.482L186.714 165.216C184.92 165.028 183.457 166.266 183.262 168.119L183.528 168.147L183.794 168.175C183.96 166.596 185.177 165.592 186.659 165.748L186.686 165.482ZM183.528 168.147L183.262 168.119C183.067 169.973 184.241 171.488 186.035 171.677L186.063 171.411L186.091 171.145C184.609 170.989 183.628 169.754 183.794 168.175L183.528 168.147ZM193.461 174.16L193.195 174.132L193.167 174.398L193.433 174.426L193.461 174.16ZM194.494 164.331L194.522 164.065L194.256 164.037L194.228 164.303L194.494 164.331ZM196.97 164.591L197.236 164.619L197.264 164.353L196.998 164.325L196.97 164.591ZM196.888 165.371L196.623 165.344L196.556 165.973L197.054 165.582L196.888 165.371ZM202.665 175.127L202.637 175.393L202.903 175.421L202.931 175.155L202.665 175.127ZM200.169 174.865L199.903 174.837L199.875 175.103L200.141 175.131L200.169 174.865ZM196.612 168.004L196.397 167.844L196.354 167.903L196.346 167.976L196.612 168.004ZM195.937 174.42L195.909 174.686L196.175 174.714L196.203 174.448L195.937 174.42ZM193.461 174.16L193.727 174.188L194.76 164.359L194.494 164.331L194.228 164.303L193.195 174.132L193.461 174.16ZM194.494 164.331L194.466 164.597L196.943 164.857L196.97 164.591L196.998 164.325L194.522 164.065L194.494 164.331ZM196.97 164.591L196.705 164.563L196.623 165.344L196.888 165.371L197.154 165.399L197.236 164.619L196.97 164.591ZM196.888 165.371L197.054 165.582C197.76 165.026 198.662 164.644 199.889 164.773L199.917 164.507L199.945 164.241C198.559 164.095 197.521 164.534 196.723 165.161L196.888 165.371ZM199.917 164.507L199.889 164.773C200.89 164.878 201.736 165.314 202.298 166.048C202.861 166.784 203.162 167.848 203.014 169.249L203.28 169.277L203.546 169.305C203.704 167.8 203.386 166.591 202.723 165.723C202.059 164.856 201.07 164.359 199.945 164.241L199.917 164.507ZM203.28 169.277L203.014 169.249L202.399 175.099L202.665 175.127L202.931 175.155L203.546 169.305L203.28 169.277ZM202.665 175.127L202.693 174.861L200.197 174.599L200.169 174.865L200.141 175.131L202.637 175.393L202.665 175.127ZM200.169 174.865L200.435 174.893L201.04 169.14L200.774 169.112L200.508 169.084L199.903 174.837L200.169 174.865ZM200.774 169.112L201.04 169.14C201.114 168.438 200.977 167.815 200.631 167.346C200.282 166.873 199.742 166.586 199.075 166.515L199.047 166.781L199.019 167.047C199.561 167.104 199.954 167.329 200.2 167.663C200.449 168 200.571 168.48 200.508 169.084L200.774 169.112ZM199.047 166.781L199.075 166.515C197.682 166.369 196.85 167.238 196.397 167.844L196.612 168.004L196.826 168.164C197.246 167.601 197.917 166.931 199.019 167.047L199.047 166.781ZM196.612 168.004L196.346 167.976L195.672 174.392L195.937 174.42L196.203 174.448L196.878 168.032L196.612 168.004ZM195.937 174.42L195.965 174.154L193.489 173.894L193.461 174.16L193.433 174.426L195.909 174.686L195.937 174.42Z" fill="#1212FF"/>
<path d="M169.559 174.823C170.971 174.972 172.186 175.384 173.205 176.062C174.237 176.74 175.001 177.624 175.497 178.712C175.994 179.788 176.173 180.986 176.034 182.306C175.895 183.625 175.464 184.766 174.74 185.726C174.029 186.688 173.085 187.392 171.909 187.838C170.746 188.286 169.445 188.434 168.008 188.283L162.327 187.686L163.743 174.212L169.559 174.823ZM168.538 185.463C169.218 185.534 169.838 185.437 170.398 185.172C170.958 184.907 171.417 184.496 171.774 183.937C172.131 183.379 172.35 182.722 172.429 181.966C172.51 181.197 172.421 180.501 172.162 179.877C171.916 179.256 171.533 178.756 171.015 178.377C170.498 177.986 169.887 177.753 169.18 177.679L166.966 177.446L166.15 185.212L168.538 185.463Z" fill="#1212FF"/>
<path d="M199.515 177.972L203.347 178.374L206.427 186.666L211.145 179.194L214.977 179.597L213.561 193.071L210.442 192.743L211.319 184.207L207.117 191.033L204.845 190.795L202.134 183.241L201.237 191.776L198.098 191.446L199.515 177.972Z" fill="#1212FF"/>
<path d="M220.493 180.177L224.017 180.547L222.601 194.021L219.077 193.651L220.493 180.177Z" fill="#1212FF"/>
<path d="M229.53 181.127L239.62 182.187L239.306 184.992L232.759 184.304L232.444 187.302L238.49 187.938L238.196 190.744L232.149 190.109L231.638 194.972L228.114 194.601L229.53 181.127Z" fill="#1212FF"/>
<path d="M251.939 197.105L251.266 194.624L245.431 194.011L244.237 196.295L240.617 195.915L247.829 183.05L251.45 183.43L255.695 197.499L251.939 197.105ZM246.774 191.431L250.509 191.824L249.165 186.824L246.774 191.431Z" fill="#1212FF"/>
<path fill-rule="evenodd" clip-rule="evenodd" d="M187.366 177.686C184.175 177.35 181.317 179.66 180.983 182.845C180.648 186.03 182.963 188.883 186.153 189.219C189.344 189.554 192.202 187.244 192.536 184.059C192.871 180.875 190.556 178.021 187.366 177.686ZM179.057 182.643C179.503 178.396 183.314 175.317 187.568 175.764C191.822 176.211 194.908 180.016 194.462 184.262C194.016 188.508 190.205 191.588 185.951 191.141C181.697 190.694 178.611 186.889 179.057 182.643Z" fill="#1212FF"/>
<path d="M185.647 194.024L183.601 189.436L188.603 189.962L185.647 194.024Z" fill="#1212FF"/>
<path d="M187.246 179.38C187.263 179.382 187.278 179.391 187.289 179.404L190.426 183.454L190.438 183.484C190.439 183.494 190.436 183.505 190.431 183.514C190.426 183.524 190.418 183.532 190.409 183.537C190.399 183.542 190.388 183.543 190.377 183.542L189.896 183.491C189.811 183.483 189.726 183.499 189.651 183.538L189.581 183.585C189.492 183.657 189.437 183.76 189.425 183.873L189.138 186.597C189.132 186.654 189.104 186.707 189.059 186.743C189.015 186.779 188.957 186.796 188.9 186.79L184.087 186.284C184.03 186.278 183.977 186.25 183.941 186.205C183.905 186.161 183.888 186.103 183.894 186.046L184.18 183.322C184.189 183.237 184.172 183.153 184.133 183.078L184.087 183.008L184.027 182.947C183.963 182.894 183.883 182.86 183.799 182.851L183.317 182.8C183.306 182.799 183.295 182.795 183.287 182.788L183.269 182.762L183.269 182.73L183.287 182.704L187.2 179.391C187.213 179.382 187.23 179.379 187.246 179.38Z" fill="#DEE5FD" stroke="#1212FF" stroke-width="0.534786"/>
</g>
<path opacity="0.2" d="M141.107 176.905L195.991 223.615C195.991 223.615 201.127 220.766 205.679 221.85C210.23 222.935 214.661 225.338 214.661 225.338L280.844 189.798L280.461 193.945L215.154 228.583L194.648 227.069L140.642 181.94L141.107 176.905Z" fill="black"/>
<path d="M285.303 295.425L285.208 296.454C285.015 298.539 283.225 300.077 281.208 299.892L120.045 285.022C118.028 284.836 116.549 282.995 116.741 280.911L116.836 279.883L197.981 227.636L199.625 226.579C202.662 224.62 206.567 224.926 209.258 227.334L210.961 228.833L285.303 295.425Z" fill="#0063CB"/>
<path d="M145.882 187.168L151.197 129.562L278.571 141.313L273.391 197.455" stroke="#0063CB" stroke-width="0.748001" stroke-miterlimit="10" stroke-linecap="round" stroke-linejoin="round"/>
<path d="M302.726 299.652C302.252 297.689 301.774 295.705 301.756 293.686C301.738 291.666 302.222 289.578 303.486 288.004C304.502 286.737 305.959 285.874 306.944 284.583C308.596 282.418 308.772 279.26 310.82 277.464C312.186 276.265 314.103 275.943 315.678 275.036C317.275 274.116 318.461 272.632 319.909 271.493C321.357 270.354 323.345 269.554 325.029 270.305C327.143 271.248 327.631 274.11 327.066 276.356C326.502 278.601 325.208 280.635 324.83 282.918C324.568 284.502 324.698 286.304 323.62 287.494C322.484 288.75 320.459 288.773 319.197 289.901C317.856 291.099 317.773 293.118 317.277 294.847C316.468 297.669 314.263 300.055 311.513 301.084C308.762 302.113 305.533 301.76 303.069 300.162" fill="#0063CB"/>
<g opacity="0.4">
<path d="M302.726 299.652C302.252 297.689 301.774 295.705 301.756 293.686C301.738 291.666 302.222 289.578 303.486 288.004C304.502 286.737 305.959 285.874 306.944 284.583C308.596 282.418 308.772 279.26 310.82 277.464C312.186 276.265 314.103 275.943 315.678 275.036C317.275 274.116 318.461 272.632 319.909 271.493C321.357 270.354 323.345 269.554 325.029 270.305C327.143 271.248 327.631 274.11 327.066 276.356C326.502 278.601 325.208 280.635 324.83 282.918C324.568 284.502 324.698 286.304 323.62 287.494C322.484 288.75 320.459 288.773 319.197 289.901C317.856 291.099 317.773 293.118 317.277 294.847C316.468 297.669 314.263 300.055 311.513 301.084C308.762 302.113 305.533 301.76 303.069 300.162" fill="white"/>
</g>
<path d="M303.378 271.948C301.461 271.312 299.526 270.667 297.803 269.613C296.08 268.559 294.565 267.044 293.898 265.137C293.362 263.605 293.401 261.912 292.827 260.393C291.865 257.844 289.279 256.024 288.84 253.335C288.546 251.542 289.288 249.745 289.353 247.929C289.418 246.087 288.787 244.296 288.588 242.464C288.388 240.632 288.762 238.522 290.29 237.492C292.21 236.198 294.896 237.299 296.502 238.967C298.108 240.635 299.148 242.809 300.885 244.338C302.09 245.399 303.688 246.243 304.127 247.787C304.59 249.416 303.538 251.146 303.827 252.814C304.133 254.586 305.802 255.726 307.006 257.062C308.972 259.243 309.828 262.376 309.244 265.255C308.661 268.133 306.652 270.685 303.992 271.929" fill="#0063CB"/>
<g opacity="0.2">
<path d="M303.378 271.948C301.461 271.312 299.526 270.667 297.803 269.613C296.08 268.559 294.565 267.044 293.898 265.137C293.362 263.605 293.401 261.912 292.827 260.393C291.865 257.844 289.279 256.024 288.84 253.335C288.546 251.542 289.288 249.745 289.353 247.929C289.418 246.087 288.787 244.296 288.588 242.464C288.388 240.632 288.762 238.522 290.29 237.492C292.21 236.198 294.896 237.299 296.502 238.967C298.108 240.635 299.148 242.809 300.885 244.338C302.09 245.399 303.688 246.243 304.127 247.787C304.59 249.416 303.538 251.146 303.827 252.814C304.133 254.586 305.802 255.726 307.006 257.062C308.972 259.243 309.828 262.376 309.244 265.255C308.661 268.133 306.652 270.685 303.992 271.929" fill="black"/>
</g>
<path d="M299.947 292.792C298.761 293.78 297.562 294.778 296.183 295.471C294.804 296.165 293.209 296.539 291.703 296.203C290.491 295.933 289.407 295.227 288.189 294.987C286.146 294.585 283.921 295.531 281.998 294.733C280.714 294.2 279.847 292.995 278.693 292.221C277.523 291.436 276.106 291.125 274.835 290.516C273.565 289.908 272.345 288.814 272.292 287.406C272.225 285.638 274.023 284.336 275.754 283.965C277.484 283.594 279.315 283.796 281.009 283.283C282.183 282.928 283.376 282.231 284.555 282.567C285.799 282.923 286.499 284.304 287.699 284.788C288.974 285.303 290.387 284.679 291.739 284.435C293.948 284.037 296.329 284.744 297.963 286.283C299.598 287.821 300.446 290.155 300.182 292.384" fill="#0063CB"/>
<g opacity="0.2">
<path d="M299.947 292.792C298.761 293.78 297.562 294.778 296.183 295.471C294.804 296.165 293.209 296.539 291.703 296.203C290.491 295.933 289.407 295.227 288.189 294.987C286.146 294.585 283.921 295.531 281.998 294.733C280.714 294.2 279.847 292.995 278.693 292.221C277.523 291.436 276.106 291.125 274.835 290.516C273.565 289.908 272.345 288.814 272.292 287.406C272.225 285.638 274.023 284.336 275.754 283.965C277.484 283.594 279.315 283.796 281.009 283.283C282.183 282.928 283.376 282.231 284.555 282.567C285.799 282.923 286.499 284.304 287.699 284.788C288.974 285.303 290.387 284.679 291.739 284.435C293.948 284.037 296.329 284.744 297.963 286.283C299.598 287.821 300.446 290.155 300.182 292.384" fill="black"/>
</g>
<path d="M299.515 286.245C297.477 286.566 295.418 286.889 293.36 286.742C291.303 286.594 289.216 285.93 287.717 284.514C286.511 283.374 285.752 281.82 284.518 280.711C282.449 278.85 279.248 278.411 277.587 276.179C276.479 274.689 276.31 272.71 275.515 271.032C274.71 269.33 273.297 268.001 272.256 266.432C271.215 264.864 270.564 262.773 271.467 261.121C272.602 259.046 275.556 258.785 277.797 259.544C280.037 260.303 282 261.789 284.295 262.361C285.886 262.758 287.732 262.774 288.855 263.969C290.039 265.229 289.896 267.293 290.941 268.671C292.051 270.135 294.1 270.386 295.82 271.033C298.628 272.09 300.876 274.531 301.697 277.417C302.518 280.302 301.894 283.561 300.063 285.938" fill="#0063CB"/>
<g opacity="0.4">
<path d="M299.515 286.245C297.477 286.566 295.418 286.889 293.36 286.742C291.303 286.594 289.216 285.93 287.717 284.514C286.511 283.374 285.752 281.82 284.518 280.711C282.449 278.85 279.248 278.411 277.587 276.179C276.479 274.689 276.31 272.71 275.515 271.032C274.71 269.33 273.297 268.001 272.256 266.432C271.215 264.864 270.564 262.773 271.467 261.121C272.602 259.046 275.556 258.785 277.797 259.544C280.037 260.303 282 261.789 284.295 262.361C285.886 262.758 287.732 262.774 288.855 263.969C290.039 265.229 289.896 267.293 290.941 268.671C292.051 270.135 294.1 270.386 295.82 271.033C298.628 272.09 300.876 274.531 301.697 277.417C302.518 280.302 301.894 283.561 300.063 285.938" fill="white"/>
</g>
<path d="M301.912 274.692C300.98 272.57 300.04 270.425 299.613 268.147C299.186 265.868 299.31 263.412 300.422 261.377C301.316 259.741 302.786 258.472 303.64 256.814C305.07 254.034 304.631 250.43 306.584 247.988C307.887 246.358 309.987 245.608 311.584 244.265C313.204 242.904 314.244 240.989 315.65 239.409C317.057 237.829 319.143 236.525 321.196 237.034C323.775 237.674 324.904 240.81 324.719 243.46C324.534 246.111 323.482 248.669 323.515 251.327C323.539 253.169 324.049 255.18 323.072 256.741C322.041 258.388 319.758 258.823 318.559 260.352C317.285 261.976 317.598 264.274 317.386 266.328C317.041 269.68 315.03 272.82 312.13 274.538C309.229 276.255 305.51 276.508 302.404 275.198" fill="#0063CB"/>
<g opacity="0.4">
<path d="M301.912 274.692C300.98 272.57 300.04 270.425 299.613 268.147C299.186 265.868 299.31 263.412 300.422 261.377C301.316 259.741 302.786 258.472 303.64 256.814C305.07 254.034 304.631 250.43 306.584 247.988C307.887 246.358 309.987 245.608 311.584 244.265C313.204 242.904 314.244 240.989 315.65 239.409C317.057 237.829 319.143 236.525 321.196 237.034C323.775 237.674 324.904 240.81 324.719 243.46C324.534 246.111 323.482 248.669 323.515 251.327C323.539 253.169 324.049 255.18 323.072 256.741C322.041 258.388 319.758 258.823 318.559 260.352C317.285 261.976 317.598 264.274 317.386 266.328C317.041 269.68 315.03 272.82 312.13 274.538C309.229 276.255 305.51 276.508 302.404 275.198" fill="white"/>
</g>
<path d="M299.353 305.846C306.234 295.273 314.186 285.412 322.356 275.817C322.589 275.543 322.194 275.145 321.96 275.421C313.759 285.051 305.775 294.952 298.869 305.563C298.671 305.867 299.156 306.148 299.353 305.846Z" fill="#263238"/>
<path d="M299.392 305.704C298.732 297.601 300.402 289.305 302.492 281.516C304.835 272.787 308.031 264.219 312.168 256.178C314.136 252.352 316.332 248.603 318.995 245.214C319.215 244.934 318.821 244.533 318.598 244.818C313.552 251.239 309.954 258.82 306.946 266.371C303.552 274.886 300.877 283.796 299.5 292.871C298.857 297.105 298.483 301.424 298.832 305.704C298.86 306.062 299.421 306.065 299.392 305.704Z" fill="#263238"/>
<path d="M300.279 285.697C298.177 281.438 294.186 278.723 290.387 276.104C285.843 272.971 281.789 269.453 278.529 264.965C278.319 264.676 277.832 264.955 278.045 265.248C281.114 269.475 284.881 272.958 289.158 275.934C293.17 278.727 297.558 281.449 299.794 285.98C299.954 286.304 300.438 286.02 300.279 285.697Z" fill="#263238"/>
<path d="M317.567 304.668H283.028C283.028 304.668 281.736 327.272 292.638 336.218L288.7 340.909H312.524L308.023 335.981C308.025 335.981 316.996 332.11 317.567 304.668Z" fill="#263238"/>
<g opacity="0.3">
<path d="M294.093 306.676L285.081 306.757C285.543 311.627 286.011 316.529 287.333 321.239C288.654 325.949 290.891 330.508 294.434 333.881C292.152 325.164 293.055 315.627 294.093 306.676Z" fill="white"/>
</g>
<path d="M123.426 71.0575C131.551 64.7892 143.219 66.2935 149.487 74.4183C155.756 82.543 154.251 94.2111 146.126 100.479C139.854 105.319 131.479 105.507 125.097 101.611L119.756 103.227L120.265 97.3527C120.201 97.2719 120.128 97.2009 120.065 97.1186C113.796 88.9946 115.301 77.3265 123.426 71.0575Z" fill="#0063CB"/>
<path d="M148.962 70.1739C144.752 65.8415 138.273 63.8481 132.356 65.0651" stroke="#0063CB" stroke-width="0.374" stroke-miterlimit="10" stroke-linecap="round" stroke-linejoin="round"/>
<path d="M129.661 65.7188C128.747 65.8369 127.858 66.1459 127.069 66.6208" stroke="#0063CB" stroke-width="0.374" stroke-miterlimit="10" stroke-linecap="round" stroke-linejoin="round"/>
<g opacity="0.7">
<path d="M123.426 71.0575C131.551 64.7892 143.219 66.2935 149.487 74.4183C155.756 82.543 154.251 94.2111 146.126 100.479C139.854 105.319 131.479 105.507 125.097 101.611L119.756 103.227L120.265 97.3527C120.201 97.2719 120.128 97.2009 120.065 97.1186C113.796 88.9946 115.301 77.3265 123.426 71.0575Z" fill="white"/>
</g>
<path d="M125.6 79.7134C127.068 78.5301 128.675 78.5211 130.245 78.9931C131.469 79.3611 132.213 80.1861 133.103 81.1982C133.516 81.6672 133.937 82.4264 134.266 83.247C134.595 82.4264 135.015 81.6672 135.428 81.1982C136.319 80.1861 137.063 79.3611 138.287 78.9931C139.856 78.5211 141.464 78.5293 142.932 79.7134C144.312 80.8249 144.537 82.8752 144.128 84.5993C143.72 86.3235 142.584 88.0753 141.474 89.3521C139.144 92.0285 137.079 94.0533 134.266 95.5149C130.779 93.5185 129.387 92.0285 127.058 89.3521C125.947 88.0761 124.812 86.3242 124.403 84.5993C123.995 82.8752 124.22 80.8249 125.6 79.7134Z" fill="#0063CB"/>
<path d="M87.0424 97.1567C85.8628 95.7901 84.0773 94.9673 82.2716 94.959C80.4667 94.9508 78.673 95.7572 77.4814 97.1133C76.6698 98.0371 76.1462 99.1703 75.5875 100.265C74.2463 102.892 72.6403 105.382 70.8025 107.689C69.7553 109.001 68.5996 110.281 67.1186 111.072C64.8821 112.265 62.2185 112.196 59.6842 112.278C57.1507 112.359 54.4093 112.715 52.5954 114.486C52.2289 114.845 51.9013 115.273 51.798 115.774C51.5385 117.036 52.7936 118.145 54.0488 118.431C55.3039 118.718 56.6264 118.499 57.892 118.734C56.8845 119.269 55.9143 119.973 55.3713 120.977C54.8282 121.981 54.8162 123.337 55.5889 124.177C56.1275 124.763 56.9368 125.011 57.7192 125.155C59.768 125.533 61.9148 125.362 63.8783 124.667C62.7428 125.876 61.5191 127.391 61.908 129.004C62.3344 130.773 64.4482 131.525 66.2651 131.61C70.4173 131.805 74.4348 130.081 77.9631 127.882C82.864 124.829 87.3603 120.428 88.563 114.78C89.1158 112.185 88.9483 109.437 89.8519 106.941L87.0424 97.1567Z" fill="#263238"/>
<path d="M88.6891 89.3869C88.1722 88.2634 86.594 88.0846 85.4353 88.5177C83.6035 89.2029 82.2735 91.0602 82.2152 93.0155C82.1568 94.9707 83.3738 96.9043 85.1623 97.6972L85.27 98.5641C83.3955 96.7151 80.8957 95.5115 78.2814 95.1989C76.8266 95.0246 75.2842 95.1376 74.0156 95.8698C72.747 96.6021 71.8277 98.0577 72.0431 99.5066C72.281 101.107 73.8248 102.273 75.4211 102.535C77.0173 102.796 78.642 102.332 80.1484 101.742C81.6549 101.153 83.127 100.428 84.718 100.134C85.2348 100.038 85.849 99.9262 86.0621 99.446C86.1878 99.1618 86.1257 98.8357 86.1175 98.5252C86.0883 97.4025 86.7832 96.4121 87.327 95.4293C88.078 94.0716 88.5807 92.5779 88.8043 91.043C88.8836 90.4872 88.9232 89.8963 88.6891 89.3869Z" fill="#0063CB"/>
<path d="M103.72 94.6103C108.116 97.7324 109.273 102.071 109.125 105.183C108.447 109.373 105.731 112.215 104.478 116.269L95.209 91.4268C97.7993 92.0184 98.9871 91.518 103.72 94.6103Z" fill="#263238"/>
<path d="M98.1919 92.2743C93.8826 90.1163 89.5263 92.3895 86.9793 93.9835C84.1781 96.2245 82.4681 99.5569 82.2819 103.14C82.1846 106.492 82.0672 110.555 84.0487 112.361C85.1579 113.406 86.6554 113.936 88.1746 113.823L105.195 99.0033C103.47 96.2021 101.06 93.8855 98.1919 92.2743Z" fill="#263238"/>
<path d="M98.0207 130.957C96.9496 130.1 94.5462 126.931 94.8103 125.173L96.0512 119.287C96.052 119.219 96.0527 119.159 96.0527 119.099L92.1152 117.022C92.1152 117.022 92.1137 117.02 92.1122 117.019C91.1324 115.998 89.5099 115.963 88.4882 116.942C88.1052 117.29 87.8202 117.144 87.7073 117.649C87.6811 117.76 87.7499 118.475 87.7394 118.589C87.5891 122.522 86.9196 124.999 84.707 126.709L93.5005 136.611C98.3588 133.353 98.6595 131.525 98.0207 130.957Z" fill="#FFA666"/>
<path opacity="0.2" d="M94.8973 124.837C94.916 124.671 94.9781 124.336 95.0207 124.175C95.2878 122.828 95.6146 121.291 96.0649 119.088C96.0544 119.019 96.0552 118.95 96.0672 118.882L91.9367 116.659C90.8843 115.591 89.1669 115.574 88.0942 116.622C87.7083 117 87.8115 117.477 87.6963 118.005C89.3756 121.156 91.6113 123.723 94.7903 125.348C94.7933 125.173 94.8666 125.03 94.8936 124.857L94.8973 124.837Z" fill="black"/>
<path d="M84.7349 104.193C84.6848 111.948 84.4918 115.218 88.0523 119.533C93.414 126.013 102.748 124.595 105.105 117.052C107.171 110.258 106.944 98.7412 99.7398 94.9736C92.5358 91.2051 84.7918 96.4277 84.7349 104.193Z" fill="#FFA666"/>
<path d="M81.1115 110.731C81.8467 112.427 83.2231 113.596 84.5493 114.093C86.5449 114.842 87.9811 111.66 87.5143 109.523C87.094 107.599 85.215 106.143 83.17 106.319C81.1548 106.493 80.2707 108.792 81.1115 110.731Z" fill="#FFA666"/>
<path opacity="0.2" d="M85.4994 110.812C85.5339 110.071 85.2638 109.321 84.7657 108.773C84.2675 108.224 83.5464 107.883 82.8066 107.847" stroke="black" stroke-width="0.374" stroke-miterlimit="10" stroke-linecap="round" stroke-linejoin="round"/>
<path d="M94.1452 107.776C94.0898 108.602 94.4578 109.326 94.9672 109.395C95.4766 109.463 95.9336 108.85 95.989 108.024C96.0443 107.199 95.6763 106.474 95.1669 106.406C94.6583 106.337 94.2013 106.951 94.1452 107.776Z" fill="#263238"/>
<path d="M101.693 108.648C101.642 109.448 102.011 110.152 102.518 110.22C103.025 110.288 103.48 109.696 103.531 108.896C103.583 108.096 103.213 107.391 102.706 107.323C102.199 107.254 101.746 107.848 101.693 108.648Z" fill="#263238"/>
<path d="M93.4412 104.777C93.5392 104.799 93.6424 104.782 93.727 104.72C95.0487 103.749 96.3502 104.291 96.3652 104.297C96.5581 104.378 96.7728 104.288 96.8416 104.09C96.9097 103.892 96.8072 103.664 96.6128 103.58C96.5447 103.552 94.9111 102.869 93.2714 104.075C93.1084 104.196 93.0777 104.437 93.2034 104.616C93.264 104.701 93.35 104.756 93.4412 104.777Z" fill="#263238"/>
<path d="M105.407 105.067C105.488 105.05 105.56 104.999 105.604 104.917C105.694 104.75 105.634 104.516 105.468 104.397C103.808 103.198 102.408 103.807 102.348 103.834C102.181 103.909 102.118 104.125 102.208 104.317C102.297 104.509 102.504 104.603 102.67 104.529C102.725 104.504 103.819 104.051 105.139 105.004C105.225 105.066 105.321 105.085 105.407 105.067Z" fill="#263238"/>
<path d="M100.176 108.016C100.176 108.016 101.059 111.059 102.223 113.025C102.427 113.37 102.226 113.815 101.838 113.909C100.839 114.153 99.7549 113.706 99.7549 113.706L100.176 108.016Z" fill="#E57C35"/>
<path d="M94.7744 106.431L96.6033 106.213C96.6033 106.213 95.4783 107.43 94.7744 106.431Z" fill="#263238"/>
<path d="M102.511 107.32L104.34 107.102C104.34 107.102 103.215 108.319 102.511 107.32Z" fill="#263238"/>
<path d="M99.3633 115.856C98.6998 116.558 97.7948 117.988 97.7948 117.988C97.6504 117.93 97.506 117.871 97.3647 117.805C95.4266 116.96 94.8065 115.928 94.707 115.04C94.6539 114.554 94.7639 114.108 94.8977 113.764C95.0488 113.365 95.2478 113.114 95.2478 113.114C96.0078 114.176 97.7544 115.102 98.7073 115.558C99.1038 115.752 99.3633 115.856 99.3633 115.856Z" fill="#263238"/>
<path d="M98.707 115.557L98.2283 116.174C96.4047 115.374 95.2281 114.567 94.8975 113.763C95.0486 113.364 95.2475 113.113 95.2475 113.113C96.0075 114.175 97.7533 115.101 98.707 115.557Z" fill="white"/>
<path d="M97.3647 117.806C95.4266 116.961 94.8065 115.929 94.707 115.041C95.3563 115.354 96.1043 115.804 96.6735 116.405C97.1104 116.862 97.2951 117.356 97.3647 117.806Z" fill="#F54948"/>
<path d="M87.3639 106.159C87.3639 106.159 91.9386 101.228 92.2004 96.9048C92.2004 96.9048 108.144 93.8485 106.288 107.479C106.288 107.479 110.054 95.7536 97.1664 93.449C84.2791 91.1452 81.1203 107.971 86.8163 114.033C86.841 113.972 84.5334 109.249 87.3639 106.159Z" fill="#263238"/>
<path d="M103.004 95.3126C104.66 96.9964 105.737 99.1641 106.078 101.502C106.029 103.188 103.699 104.34 103.699 104.34L101.001 100.582L100.908 103.812C96.3308 103.176 93.7472 100.661 92.2773 97.0966L94.9694 92.5996C94.9694 92.5996 101.518 93.9475 103.004 95.3126Z" fill="#263238"/>
<path d="M108.059 131.625C108.112 131.571 108.325 131.556 108.649 131.625C109.622 131.835 111.605 132.817 113.306 135.87C115.575 139.938 119.642 155 120.659 153.402C121.675 151.805 124.215 144.047 124.215 144.047L129.523 143.259C129.523 143.259 129.435 162.152 125.132 166.01C120.831 169.867 117.276 167.178 115.25 165.296C113.459 163.635 105.276 145.869 105.265 145.851" fill="#0063CB"/>
<path opacity="0.4" d="M108.059 131.625C108.112 131.571 108.325 131.556 108.649 131.625C109.622 131.835 111.605 132.817 113.306 135.87C115.575 139.938 119.642 155 120.659 153.402C121.675 151.805 124.215 144.047 124.215 144.047L129.523 143.259C129.523 143.259 129.435 162.152 125.132 166.01C120.831 169.867 117.42 167.195 115.25 165.296C113.419 163.695 105.275 145.868 105.265 145.851" fill="white"/>
<path d="M105.789 144.256C104.519 148.066 103.527 151.361 102.723 154.317C100.564 161.723 99.1708 169.33 98.5656 177.019L68.015 173.735C67.2117 151.906 68.015 139.87 68.68 133.878C69.4243 127.498 70.4161 127.279 70.4161 127.279C70.4161 127.279 77.3613 126.744 83.3947 126.912C88.0607 127.157 92.7028 127.738 97.2858 128.648C101.632 129.456 105.913 130.58 110.095 132.012C109.351 133.996 108.676 135.902 108.051 137.677C107.219 140.039 106.465 142.222 105.789 144.256Z" fill="#0063CB"/>
<path opacity="0.4" d="M105.789 144.256C104.519 148.066 103.527 151.361 102.723 154.317C100.564 161.723 99.1708 169.33 98.5656 177.019L68.015 173.735C67.2117 151.906 68.015 139.87 68.68 133.878C69.4243 127.498 70.4161 127.279 70.4161 127.279C70.4161 127.279 77.3613 126.744 83.3947 126.912C88.0607 127.157 92.7028 127.738 97.2858 128.648C101.632 129.456 105.913 130.58 110.095 132.012C109.351 133.996 108.676 135.902 108.051 137.677C107.219 140.039 106.465 142.222 105.789 144.256Z" fill="white"/>
<path opacity="0.2" d="M73.4423 169.395L85.3123 163.254L92.7998 161.908L100.271 164.461L101.465 159.468L88.8878 156.524L67.6797 164.432L68.4037 169.058L73.4423 169.395Z" fill="black"/>
<path d="M120.038 121.502C119.075 121.799 102.005 130.209 105.528 150.699L124.034 150.053C124.034 150.053 122.082 142.94 124.907 138.019C127.732 133.098 136.025 128.359 135.842 128.451C135.66 128.542 120.038 121.502 120.038 121.502Z" fill="#0063CB"/>
<path opacity="0.7" d="M120.038 121.502C119.075 121.799 102.005 130.209 105.528 150.699L124.034 150.053C124.034 150.053 122.082 142.94 124.907 138.019C127.732 133.098 136.025 128.359 135.842 128.451C135.66 128.542 120.038 121.502 120.038 121.502Z" fill="white"/>
<path d="M108.03 153.072L102.955 145.876C102.955 145.876 89.9242 147.384 89.7521 147.776L85.7683 157.08C85.594 157.492 85.787 157.967 86.1984 158.141C86.2141 158.148 86.2305 158.154 86.2463 158.16L102.82 163.774C103.215 163.904 103.646 163.714 103.813 163.333L107.969 153.992C108.062 153.693 108.083 153.378 108.03 153.072Z" fill="#0063CB"/>
<path opacity="0.1" d="M108.068 153.402C105.626 154.327 102.98 154.581 100.406 154.138C96.1274 153.182 89.7529 147.751 89.7529 147.751C89.9242 147.358 102.956 145.851 102.956 145.851L108.031 153.046C108.031 153.046 108.055 153.218 108.068 153.402Z" fill="black"/>
<path opacity="0.1" d="M90.6104 147.997C96.1216 150.673 102.008 152.496 108.067 153.402C108.067 153.402 98.1861 150.117 90.6104 147.997Z" fill="black"/>
<path d="M70.4173 127.279C70.4173 127.279 66.0392 127.875 62.5805 133.965C58.3169 141.472 48.3071 156.53 55.1334 166.435C61.9596 176.34 84.1304 161.003 84.1304 161.003L81.8026 155.113C81.8026 155.113 64.9053 159.618 64.7317 157.971C64.3555 154.4 69.5406 145.178 69.5406 145.178L70.4173 127.279Z" fill="#0063CB"/>
<path d="M82.6167 155.208C82.6167 155.208 83.0655 152.955 84.6573 151.919C86.249 150.883 87.2438 149.632 88.4803 148.943C89.7167 148.254 89.0615 150.049 88.5192 150.933C87.9776 151.817 87.3725 152.824 88.1018 153.124C88.8318 153.424 95.5579 152.536 96.522 153.067C97.487 153.597 96.4435 154.081 96.4435 154.081C96.4435 154.081 98.0831 153.91 98.3277 154.541C98.3913 154.705 98.2731 155.189 97.5386 155.384C95.8855 155.823 92.3684 156.566 92.3684 156.566C92.5696 156.52 96.9761 155.912 97.6478 155.908C98.5259 155.902 98.9433 156.347 98.9299 156.855C98.9112 157.58 93.4732 158.519 93.272 158.719C93.272 158.719 96.3844 158.074 96.991 158.786C97.5969 159.498 95.6603 160.011 93.8659 160.139C92.221 160.257 89.0256 160.917 87.3426 160.874C85.2684 160.821 83.8876 160.319 83.1283 158.527C82.3691 156.736 82.6167 155.208 82.6167 155.208Z" fill="#FFA666"/>
<path opacity="0.4" d="M70.4173 127.279C70.4173 127.279 66.0392 127.875 62.5805 133.965C58.3169 141.472 48.3071 156.53 55.1334 166.435C61.9596 176.34 84.1304 161.003 84.1304 161.003L81.8026 155.113C81.8026 155.113 64.9053 159.618 64.7317 157.971C64.3555 154.4 69.5406 145.178 69.5406 145.178L70.4173 127.279Z" fill="white"/>
<g opacity="0.2">
<path d="M120.264 157.971C121.149 159.117 120.327 154.946 120.499 153.508C120.101 153.407 119.81 152.756 119.51 152.152C119.51 152.152 118.145 155.221 120.264 157.971Z" fill="black"/>
</g>
<path opacity="0.2" d="M121.002 133.577C120.905 133.714 117.896 137.674 118.667 139.585C119.439 141.495 123.424 143.334 123.424 143.334L123.918 140.41L121.002 133.577Z" fill="black"/>
<path d="M128.945 143.286L128.331 139.653C128.331 139.653 129.143 137.459 128.748 136.56C128.002 134.772 123.264 132.567 122.551 132.172C121.838 131.777 118.492 137.097 118.931 138.171C119.37 139.246 124.865 141.715 124.865 141.715V143.909L128.945 143.286Z" fill="#FFA666"/>
<path opacity="0.2" d="M67.773 148.79L67.859 148.635L70.8076 143.334C70.6468 148.375 69.9205 153.002 67.6787 156.524" fill="black"/>
<path d="M76.5 323.391C76.4349 323.752 79.768 334.108 79.768 334.108H87.4933L86.6892 322.707L76.5 323.391Z" fill="#FFA666"/>
<path d="M116.046 321.78C115.981 322.14 119.315 332.497 119.315 332.497H127.04L124.296 316.874L116.046 321.78Z" fill="#FFA666"/>
<path d="M75.0703 126.971C78.3929 132.299 83.9259 135.86 90.1523 136.675C100.461 137.856 104.043 130.126 104.043 130.126C104.043 130.126 90.1523 125.156 75.0703 126.971Z" fill="#FFA666"/>
<path d="M133.216 318.088C133.241 318.137 133.261 318.164 133.275 318.152C133.315 318.116 133.286 318.096 133.216 318.088Z" fill="#263238"/>
<path d="M80.7256 203.715C82.71 205.513 94.9226 289.572 114.719 322.066C114.719 322.066 126.58 318.931 127.814 319.071C126.407 316.315 108.668 231.871 105.988 196.716L80.7256 203.715Z" fill="#263238"/>
<path d="M67.9265 168.754C67.9265 168.754 57.8689 178.441 57.6205 198.163C57.3722 217.886 67.8539 312.314 76.1321 324.88C76.1321 324.88 90.5805 324.717 89.2318 324.88C87.8832 325.043 80.7831 243.187 86.3176 212.429L105.989 196.716C105.012 186.713 102.955 178.23 99.0314 172.37L67.9265 168.754Z" fill="#263238"/>
<path opacity="0.2" d="M85.0211 223.028L84.5723 204.543L88.8882 200.594C88.2449 200.915 89.1859 240.014 88.4656 239.698L85.0211 223.028Z" fill="black"/>
<path d="M88.5069 331.493L85.7947 331.416C85.1813 331.398 84.5949 331.677 84.2029 332.139C82.5117 334.13 81.3844 333.327 79.8032 331.364C78.729 331.213 78.364 332.387 78.2556 332.703L75.7879 339.673C75.5747 340.255 75.8934 340.878 76.4985 341.063C76.6062 341.096 76.7192 341.114 76.8329 341.116C80.1263 341.21 81.6844 341.255 85.7834 341.372L98.3199 341.732C101.738 341.83 102.651 338.568 101.263 338.224C95.016 336.709 90.6447 334.805 88.7979 332.994C88.4545 332.676 88.842 332.457 88.5069 331.493Z" fill="#263238"/>
<path d="M94.2662 333.661C94.5639 333.473 94.7539 333.165 94.7793 332.83C94.8145 332.651 94.7397 332.472 94.5863 332.368C93.7725 331.77 90.2868 333.183 89.8948 333.349C89.8515 333.363 89.8163 333.393 89.7984 333.433C89.7654 333.507 89.8013 333.59 89.8776 333.619C90.6989 333.831 91.5442 333.96 92.3992 334.004C93.0387 334.081 93.6925 333.961 94.2662 333.661ZM94.3582 332.606C94.4247 332.649 94.4554 332.728 94.4345 332.803C94.4053 333.045 94.2684 333.265 94.0597 333.41C93.2549 333.936 91.4103 333.646 90.4214 333.44C91.8666 332.891 93.9094 332.281 94.3582 332.606Z" fill="#0063CB"/>
<path d="M89.9921 333.657C91.0355 333.28 93.2691 331.747 93.207 330.9C93.2002 330.722 93.0806 330.507 92.6243 330.436C90.7775 330.18 89.7819 333.338 89.7729 333.473C89.7512 333.527 89.7647 333.588 89.8081 333.627C89.8425 333.637 89.8791 333.639 89.9143 333.63L89.9921 333.657ZM92.5457 330.695C92.8891 330.739 92.8816 330.857 92.8786 330.899C92.9437 331.417 91.3115 332.698 90.1701 333.223C90.4468 332.487 91.245 330.65 92.4223 330.684L92.5457 330.695Z" fill="#0063CB"/>
<path d="M90.2642 333.542C89.3224 333.637 88.4226 334.144 87.8721 334.89" stroke="#0063CB" stroke-width="0.374" stroke-miterlimit="10" stroke-linecap="round" stroke-linejoin="round"/>
<path d="M91.8736 334.799C90.9318 334.894 90.032 335.401 89.4814 336.147" stroke="#0063CB" stroke-width="0.374" stroke-miterlimit="10" stroke-linecap="round" stroke-linejoin="round"/>
<path d="M93.908 335.876C92.9662 335.971 92.0664 336.479 91.5166 337.224" stroke="#0063CB" stroke-width="0.374" stroke-miterlimit="10" stroke-linecap="round" stroke-linejoin="round"/>
<path d="M127.629 327.045L125.008 327.746C124.415 327.904 123.933 328.339 123.689 328.894C122.636 331.285 121.327 330.837 119.251 329.408C118.178 329.571 118.164 330.8 118.151 331.133L117.777 338.518C117.74 339.137 118.222 339.642 118.855 339.647C118.967 339.648 119.08 339.633 119.19 339.601C122.374 338.751 123.88 338.348 127.842 337.29L139.959 334.053C143.262 333.17 143.206 329.783 141.776 329.85C135.357 330.183 130.624 329.607 128.337 328.399C127.917 328.194 128.226 327.873 127.629 327.045Z" fill="#263238"/>
<path d="M133.769 327.477C134.001 327.213 134.095 326.862 134.023 326.535C134.006 326.353 133.883 326.203 133.706 326.147C132.755 325.807 129.819 328.157 129.491 328.428C129.454 328.453 129.428 328.492 129.423 328.536C129.413 328.616 129.47 328.685 129.553 328.691C130.4 328.66 131.247 328.542 132.079 328.34C132.713 328.231 133.305 327.928 133.769 327.477ZM133.557 326.441C133.633 326.462 133.684 326.529 133.686 326.607C133.727 326.847 133.659 327.098 133.5 327.296C132.879 328.03 131.029 328.279 130.022 328.364C131.25 327.424 133.033 326.257 133.557 326.441Z" fill="#0063CB"/>
<path d="M129.671 328.694C130.564 328.036 132.266 325.928 131.964 325.133C131.907 324.965 131.731 324.793 131.273 324.854C129.43 325.137 129.378 328.448 129.408 328.58C129.403 328.638 129.433 328.691 129.485 328.716C129.521 328.717 129.556 328.707 129.588 328.689L129.671 328.694ZM131.271 325.126C131.613 325.07 131.639 325.185 131.649 325.226C131.859 325.703 130.661 327.397 129.717 328.226C129.772 327.443 130.012 325.454 131.15 325.15L131.271 325.126Z" fill="#0063CB"/>
<path d="M129.9 328.506C129.025 328.866 128.307 329.61 127.993 330.481" stroke="#0063CB" stroke-width="0.374" stroke-miterlimit="10" stroke-linecap="round" stroke-linejoin="round"/>
<path d="M131.802 329.252C130.926 329.612 130.209 330.354 129.896 331.227" stroke="#0063CB" stroke-width="0.374" stroke-miterlimit="10" stroke-linecap="round" stroke-linejoin="round"/>
<path d="M134.058 329.703C133.183 330.063 132.466 330.806 132.151 331.678" stroke="#0063CB" stroke-width="0.374" stroke-miterlimit="10" stroke-linecap="round" stroke-linejoin="round"/>
<defs>
<clipPath id="clip0_675_21235">
<rect width="93.881" height="38.1481" fill="white" transform="translate(165.971 153.025) rotate(6)"/>
</clipPath>
</defs>
</svg>
