<svg width="432" height="216" viewBox="0 0 432 216" fill="none" xmlns="http://www.w3.org/2000/svg">
<g clip-path="url(#clip0_5359_11950)">
<rect width="432" height="216" fill="#F4F6FE"/>
<path d="M279.101 137.958C279.101 137.958 313.189 84.85 297.481 50.887C281.772 16.924 244.28 16.73 231.319 30.9243C223.397 39.6001 225.706 54.0911 206.952 59.6972C195.479 63.1264 187.127 57.6279 170.024 51.665C152.921 45.7021 133.065 58.6652 130.625 79.3636C127.887 102.596 149.033 114.741 160.641 123.103C172.25 131.466 166.37 145.337 171.183 158.326C175.995 171.315 253.615 185.104 279.101 137.958Z" fill="#E6EEFE"/>
<path d="M295.967 79.3636C295.967 79.3636 298.56 49.346 279.101 34.4243C262.366 21.5909 245.637 27.8134 240.371 33.4519C235.106 39.0908 240.867 45.8961 255.412 44.9241C269.956 43.9521 292.013 53.9982 295.967 79.3636Z" fill="white"/>
<path d="M203.292 193.968C213.53 193.968 221.83 192.174 221.83 189.961C221.83 187.748 213.53 185.954 203.292 185.954C193.054 185.954 184.755 187.748 184.755 189.961C184.755 192.174 193.054 193.968 203.292 193.968Z" fill="#D2EDFF"/>
<path d="M269.059 189.961C279.297 189.961 287.597 188.167 287.597 185.954C287.597 183.741 279.297 181.946 269.059 181.946C258.821 181.946 250.521 183.741 250.521 185.954C250.521 188.167 258.821 189.961 269.059 189.961Z" fill="#D2EDFF"/>
<path d="M239.566 185.954C266.132 185.954 287.669 184.159 287.669 181.946C287.669 179.733 266.132 177.939 239.566 177.939C212.999 177.939 191.462 179.733 191.462 181.946C191.462 184.159 212.999 185.954 239.566 185.954Z" fill="#D2EDFF"/>
<path d="M181.169 183.226C207.736 183.226 229.273 181.432 229.273 179.219C229.273 177.006 207.736 175.212 181.169 175.212C154.602 175.212 133.065 177.006 133.065 179.219C133.065 181.432 154.602 183.226 181.169 183.226Z" fill="#D2EDFF"/>
<path d="M169.858 131.04C186.732 131.04 200.411 117.361 200.411 100.487C200.411 83.6134 186.732 69.9344 169.858 69.9344C152.985 69.9344 139.306 83.6134 139.306 100.487C139.306 117.361 152.985 131.04 169.858 131.04Z" fill="#76ADF8"/>
<path d="M169.858 126.951C184.474 126.951 196.322 115.103 196.322 100.487C196.322 85.8716 184.474 74.0233 169.858 74.0233C155.243 74.0233 143.395 85.8716 143.395 100.487C143.395 115.103 155.243 126.951 169.858 126.951Z" fill="#E6FFFF"/>
<path opacity="0.57" d="M179.325 101.517C183.016 95.9399 183.407 85.8885 181.552 80.5348C178.172 78.5489 174.243 77.3915 170.041 77.3583C157.267 77.258 146.83 87.5314 146.73 100.305C146.701 103.999 147.544 107.495 149.06 110.605C149.24 110.63 149.43 110.614 149.598 110.684C158.046 114.206 172.385 112.004 179.325 101.517Z" fill="#FFFAFF"/>
<path d="M169.998 82.6492C170.443 82.6526 170.81 82.2915 170.813 81.8465L170.852 76.8932C170.856 76.4482 170.494 76.0815 170.049 76.078C169.604 76.0746 169.238 76.4357 169.234 76.8807L169.195 81.834C169.192 82.279 169.553 82.6457 169.998 82.6492Z" fill="#ACDAFF"/>
<path d="M169.666 124.896C170.111 124.9 170.478 124.539 170.481 124.094L170.52 119.14C170.523 118.695 170.162 118.329 169.717 118.325C169.272 118.322 168.906 118.683 168.902 119.128L168.863 124.081C168.86 124.526 169.221 124.893 169.666 124.896Z" fill="#ACDAFF"/>
<path d="M187.696 100.627C187.693 101.072 188.054 101.439 188.499 101.442L193.452 101.481C193.897 101.485 194.264 101.124 194.267 100.679C194.271 100.234 193.91 99.8669 193.465 99.8635L188.512 99.8246C188.067 99.8216 187.7 100.182 187.696 100.627Z" fill="#ACDAFF"/>
<path d="M145.449 100.295C145.446 100.74 145.807 101.107 146.252 101.111L151.205 101.15C151.65 101.153 152.017 100.792 152.02 100.347C152.024 99.9019 151.663 99.5352 151.218 99.5317L146.264 99.4928C145.819 99.4894 145.453 99.8505 145.449 100.295Z" fill="#ACDAFF"/>
<path d="M180.862 82.578C181.309 82.578 181.671 82.2159 181.671 81.7693C181.671 81.3226 181.309 80.9606 180.862 80.9606C180.416 80.9606 180.054 81.3226 180.054 81.7693C180.054 82.2159 180.416 82.578 180.862 82.578Z" fill="#ACDAFF"/>
<path d="M158.855 120.014C159.301 120.014 159.663 119.652 159.663 119.205C159.663 118.758 159.301 118.396 158.855 118.396C158.408 118.396 158.046 118.758 158.046 119.205C158.046 119.652 158.408 120.014 158.855 120.014Z" fill="#ACDAFF"/>
<path d="M188.746 90.5875C189.193 90.5875 189.555 90.2254 189.555 89.7788C189.555 89.3322 189.193 88.9701 188.746 88.9701C188.3 88.9701 187.938 89.3322 187.938 89.7788C187.938 90.2254 188.3 90.5875 188.746 90.5875Z" fill="#ACDAFF"/>
<path d="M150.97 112.004C151.416 112.004 151.779 111.642 151.779 111.196C151.779 110.749 151.416 110.387 150.97 110.387C150.523 110.387 150.161 110.749 150.161 111.196C150.161 111.642 150.523 112.004 150.97 112.004Z" fill="#ACDAFF"/>
<path d="M188.576 112.299C189.023 112.299 189.385 111.937 189.385 111.491C189.385 111.044 189.023 110.682 188.576 110.682C188.13 110.682 187.768 111.044 187.768 111.491C187.768 111.937 188.13 112.299 188.576 112.299Z" fill="#ACDAFF"/>
<path d="M151.14 90.2921C151.586 90.2921 151.948 89.93 151.948 89.4834C151.948 89.0367 151.586 88.6747 151.14 88.6747C150.693 88.6747 150.331 89.0367 150.331 89.4834C150.331 89.93 150.693 90.2921 151.14 90.2921Z" fill="#ACDAFF"/>
<path d="M180.567 120.184C181.013 120.184 181.375 119.822 181.375 119.376C181.375 118.929 181.013 118.567 180.567 118.567C180.12 118.567 179.758 118.929 179.758 119.376C179.758 119.822 180.12 120.184 180.567 120.184Z" fill="#ACDAFF"/>
<path d="M159.15 82.4078C159.596 82.4078 159.958 82.0457 159.958 81.5991C159.958 81.1525 159.596 80.7904 159.15 80.7904C158.703 80.7904 158.341 81.1525 158.341 81.5991C158.341 82.0457 158.703 82.4078 159.15 82.4078Z" fill="#ACDAFF"/>
<path d="M178.069 94.4051C180.489 93.4612 191.778 88.6051 191.778 88.6051L191.82 88.6824L191.902 88.8354L191.943 88.9127C191.943 88.9127 181.668 95.6553 179.547 97.1535C177.427 98.6517 169.907 100.995 169.907 100.995L169.77 100.74L169.688 100.587L169.551 100.332C169.551 100.332 175.651 95.3491 178.069 94.4051Z" fill="#FCC63A"/>
<path d="M162.182 102.129C160.331 101.842 151.543 100.903 151.543 100.903L151.542 100.815L151.539 100.641L151.538 100.554C151.538 100.554 160.293 99.3515 162.135 99.0089C163.978 98.6663 169.54 100.082 169.54 100.082L169.544 100.371L169.547 100.545L169.551 100.835C169.551 100.835 164.034 102.416 162.182 102.129Z" fill="#FCC63A"/>
<path d="M169.858 102.105C170.752 102.105 171.476 101.381 171.476 100.487C171.476 99.5938 170.752 98.8695 169.858 98.8695C168.965 98.8695 168.24 99.5938 168.24 100.487C168.24 101.381 168.965 102.105 169.858 102.105Z" fill="#ACDAFF"/>
<path d="M153.798 133.526L146.602 176.633C146.519 177.129 146.902 177.581 147.405 177.581C147.788 177.581 148.12 177.314 148.201 176.94L157.623 133.526H153.798Z" fill="#ACDAFF"/>
<path d="M160.756 130.937L155.685 174.346C155.627 174.845 156.031 175.278 156.534 175.253C156.917 175.234 157.235 174.951 157.298 174.573L164.576 130.749L160.756 130.937Z" fill="#ACDAFF"/>
<path d="M190.505 133.526L197.701 176.633C197.784 177.129 197.402 177.581 196.898 177.581C196.515 177.581 196.184 177.314 196.103 176.94L186.681 133.526H190.505Z" fill="#ACDAFF"/>
<path d="M183.548 130.937L188.619 174.346C188.677 174.845 188.273 175.278 187.77 175.253C187.387 175.234 187.069 174.951 187.007 174.573L179.729 130.749L183.548 130.937Z" fill="#ACDAFF"/>
<path d="M196.595 134.53H148.434C147.339 134.53 146.443 133.634 146.443 132.539C146.443 131.444 147.339 130.548 148.434 130.548H196.595C197.689 130.548 198.585 131.444 198.585 132.539C198.585 133.634 197.689 134.53 196.595 134.53Z" fill="#2099FF"/>
<path d="M149.028 167.79L148.906 167.747C148.92 167.706 150.343 163.623 149.524 158.79C148.768 154.334 145.895 148.308 136.496 144.908L136.54 144.786C140.715 146.296 143.971 148.445 146.216 151.173C148.013 153.357 149.169 155.914 149.653 158.773C150.476 163.638 149.043 167.749 149.028 167.79Z" fill="#6CB7D8"/>
<path d="M137.816 145.349C137.816 145.349 135.345 145.722 134.071 144.585C132.796 143.448 134.967 142.899 137.816 145.349Z" fill="#6CB7D8"/>
<path d="M140.376 146.563C140.376 146.563 139.603 143.294 138.402 142.65C137.2 142.007 137.031 144.336 140.376 146.563Z" fill="#6CB7D8"/>
<path d="M139.985 146.339C139.985 146.339 136.659 145.865 135.621 146.748C134.583 147.631 136.69 148.639 139.985 146.339Z" fill="#6CB7D8"/>
<path d="M142.029 147.592C142.029 147.592 138.703 147.118 137.665 148.001C136.627 148.884 138.734 149.892 142.029 147.592Z" fill="#6CB7D8"/>
<path d="M144.086 149.045C144.086 149.045 140.761 148.571 139.722 149.454C138.685 150.337 140.792 151.345 144.086 149.045Z" fill="#6CB7D8"/>
<path d="M146.078 151.053C146.078 151.053 142.8 150.315 141.695 151.112C140.589 151.909 142.609 153.082 146.078 151.053Z" fill="#6CB7D8"/>
<path d="M147.899 153.719C147.899 153.719 144.853 152.303 143.604 152.848C142.355 153.393 144.08 154.968 147.899 153.719Z" fill="#6CB7D8"/>
<path d="M149.224 156.986C149.224 156.986 146.791 154.669 145.434 154.785C144.076 154.902 145.206 156.946 149.224 156.986Z" fill="#6CB7D8"/>
<path d="M149.803 160.804C149.803 160.804 148.283 157.808 146.964 157.464C145.646 157.12 146.028 159.425 149.803 160.804Z" fill="#6CB7D8"/>
<path d="M149.656 164.554C149.656 164.554 148.866 161.289 147.662 160.651C146.458 160.013 146.3 162.343 149.656 164.554Z" fill="#6CB7D8"/>
<path d="M142.667 147.987C142.667 147.987 142.993 145.113 141.888 143.576C140.782 142.039 140.409 143.802 140.834 144.793C141.259 145.785 142.667 147.987 142.667 147.987Z" fill="#6CB7D8"/>
<path d="M144.344 149.318C144.344 149.318 145.122 146.532 144.273 144.839C143.424 143.147 142.777 144.828 143.04 145.874C143.302 146.92 144.344 149.318 144.344 149.318Z" fill="#6CB7D8"/>
<path d="M145.905 150.886C145.905 150.886 147.306 148.357 146.873 146.513C146.44 144.67 145.421 146.156 145.434 147.234C145.447 148.313 145.905 150.886 145.905 150.886Z" fill="#6CB7D8"/>
<path d="M147.426 152.905C147.426 152.905 148.827 150.375 148.394 148.532C147.96 146.689 146.941 148.174 146.954 149.253C146.968 150.331 147.426 152.905 147.426 152.905Z" fill="#6CB7D8"/>
<path d="M148.752 155.666C148.752 155.666 150.467 153.338 150.275 151.455C150.083 149.571 148.881 150.913 148.755 151.984C148.629 153.056 148.752 155.666 148.752 155.666Z" fill="#6CB7D8"/>
<path d="M149.646 159.333C149.646 159.333 151.772 157.374 151.941 155.488C152.11 153.601 150.675 154.691 150.348 155.719C150.021 156.746 149.646 159.333 149.646 159.333Z" fill="#6CB7D8"/>
<path d="M149.796 162.665C149.796 162.665 152.273 161.172 152.817 159.359C153.362 157.545 151.737 158.324 151.21 159.265C150.683 160.206 149.796 162.665 149.796 162.665Z" fill="#6CB7D8"/>
<path d="M164.983 161.362L165.106 161.319C165.091 161.278 163.668 157.194 164.488 152.362C165.243 147.906 168.117 141.88 177.515 138.48L177.471 138.358C173.296 139.868 170.041 142.017 167.796 144.745C165.999 146.929 164.842 149.486 164.358 152.345C163.535 157.21 164.968 161.321 164.983 161.362Z" fill="#6CB7D8"/>
<path d="M176.195 138.921C176.195 138.921 178.667 139.294 179.941 138.157C181.215 137.02 179.044 136.471 176.195 138.921Z" fill="#6CB7D8"/>
<path d="M173.635 140.135C173.635 140.135 174.408 136.866 175.609 136.222C176.811 135.579 176.98 137.908 173.635 140.135Z" fill="#6CB7D8"/>
<path d="M174.026 139.911C174.026 139.911 177.352 139.437 178.39 140.32C179.428 141.203 177.321 142.211 174.026 139.911Z" fill="#6CB7D8"/>
<path d="M171.983 141.164C171.983 141.164 175.309 140.69 176.347 141.573C177.386 142.456 175.278 143.464 171.983 141.164Z" fill="#6CB7D8"/>
<path d="M169.926 142.617C169.926 142.617 173.252 142.143 174.29 143.026C175.328 143.909 173.221 144.917 169.926 142.617Z" fill="#6CB7D8"/>
<path d="M167.934 144.625C167.934 144.625 171.211 143.886 172.316 144.683C173.422 145.481 171.402 146.654 167.934 144.625Z" fill="#6CB7D8"/>
<path d="M166.112 147.292C166.112 147.292 169.159 145.875 170.408 146.42C171.657 146.965 169.932 148.539 166.112 147.292Z" fill="#6CB7D8"/>
<path d="M164.787 150.558C164.787 150.558 167.22 148.241 168.578 148.357C169.936 148.474 168.806 150.518 164.787 150.558Z" fill="#6CB7D8"/>
<path d="M164.208 154.376C164.208 154.376 165.727 151.38 167.046 151.036C168.365 150.693 167.982 152.996 164.208 154.376Z" fill="#6CB7D8"/>
<path d="M164.355 158.126C164.355 158.126 165.145 154.86 166.349 154.223C167.553 153.585 167.711 155.915 164.355 158.126Z" fill="#6CB7D8"/>
<path d="M171.345 141.558C171.345 141.558 171.018 138.685 172.124 137.148C173.23 135.611 173.602 137.374 173.177 138.365C172.753 139.356 171.345 141.558 171.345 141.558Z" fill="#6CB7D8"/>
<path d="M169.668 142.889C169.668 142.889 168.891 140.104 169.74 138.411C170.588 136.719 171.235 138.4 170.973 139.446C170.71 140.492 169.668 142.889 169.668 142.889Z" fill="#6CB7D8"/>
<path d="M168.107 144.458C168.107 144.458 166.706 141.929 167.139 140.085C167.572 138.242 168.591 139.728 168.578 140.806C168.565 141.885 168.107 144.458 168.107 144.458Z" fill="#6CB7D8"/>
<path d="M166.585 146.477C166.585 146.477 165.184 143.947 165.617 142.104C166.051 140.261 167.07 141.746 167.057 142.825C167.043 143.903 166.585 146.477 166.585 146.477Z" fill="#6CB7D8"/>
<path d="M165.26 149.239C165.26 149.239 163.544 146.911 163.737 145.027C163.929 143.143 165.131 144.485 165.257 145.556C165.383 146.628 165.26 149.239 165.26 149.239Z" fill="#6CB7D8"/>
<path d="M164.366 152.905C164.366 152.905 162.239 150.946 162.07 149.06C161.901 147.174 163.337 148.263 163.663 149.291C163.99 150.319 164.366 152.905 164.366 152.905Z" fill="#6CB7D8"/>
<path d="M164.216 156.237C164.216 156.237 161.739 154.744 161.194 152.931C160.649 151.117 162.274 151.896 162.801 152.837C163.328 153.778 164.216 156.237 164.216 156.237Z" fill="#6CB7D8"/>
<path d="M150.666 155.765C150.666 155.765 147.778 147.217 150.377 144.762C152.976 142.307 149.751 138.823 150.514 136.553C151.279 134.284 154.077 132.935 155.297 137.099C156.518 141.262 156.863 141.391 159.93 141.583C162.997 141.775 162.761 147.95 162.219 150.791C161.676 153.632 164.688 149.144 165.599 152.193C166.511 155.243 162.097 161.531 157.455 164.809C152.814 168.086 147.136 158.765 147.526 156.433C147.916 154.102 149.62 157.223 150.666 155.765Z" fill="#82C4E8"/>
<path d="M151.074 143.841C150.913 144.16 150.687 144.469 150.377 144.762C147.777 147.218 150.665 155.765 150.665 155.765C149.619 157.223 147.916 154.103 147.526 156.434C147.136 158.765 152.813 168.086 157.455 164.809C157.705 164.633 157.953 164.447 158.2 164.254C157.661 156.962 155.199 149.972 151.074 143.841Z" fill="#6CB7D8"/>
<path d="M155.876 165.619C155.83 165.67 155.758 165.697 155.685 165.683C155.574 165.662 155.501 165.554 155.522 165.442C155.544 165.326 157.685 153.632 152.276 136.68C152.242 136.572 152.301 136.456 152.41 136.422C152.518 136.387 152.634 136.447 152.668 136.555C158.111 153.615 155.948 165.403 155.926 165.52C155.918 165.558 155.9 165.592 155.876 165.619Z" fill="#98CFF4"/>
<path d="M153.9 141.708L151.165 139.504C151.076 139.433 151.062 139.304 151.133 139.215C151.205 139.128 151.334 139.113 151.422 139.184L153.789 141.091L155.036 139.001C155.095 138.902 155.221 138.871 155.318 138.93C155.416 138.988 155.448 139.114 155.39 139.212L153.9 141.708Z" fill="#98CFF4"/>
<path d="M160.589 143.384C160.584 143.389 160.58 143.393 160.575 143.398L155.254 148.266L151.026 145.394C150.932 145.33 150.907 145.202 150.971 145.108C151.035 145.013 151.163 144.99 151.257 145.054L155.216 147.743L160.298 143.094C160.381 143.018 160.511 143.023 160.588 143.107C160.66 143.186 160.66 143.306 160.589 143.384Z" fill="#98CFF4"/>
<path d="M161.741 150.171C161.739 150.174 161.737 150.176 161.735 150.178L156.095 155.865L150.527 151.426C150.438 151.355 150.423 151.226 150.494 151.137C150.57 151.047 150.694 151.034 150.783 151.104L156.063 155.313L161.442 149.889C161.522 149.808 161.653 149.808 161.733 149.888C161.812 149.965 161.815 150.091 161.741 150.171Z" fill="#98CFF4"/>
<path d="M164.167 154.18C164.165 154.182 164.163 154.184 164.162 154.186L156.109 162.366L149.207 157.54C149.114 157.474 149.091 157.346 149.156 157.253C149.222 157.161 149.35 157.138 149.442 157.202L156.06 161.83L163.869 153.897C163.948 153.816 164.079 153.815 164.159 153.895C164.238 153.973 164.241 154.098 164.167 154.18Z" fill="#98CFF4"/>
<path d="M149.365 166.753C149.365 166.753 143.055 163.596 143.147 160.801C143.239 158.007 139.53 157.848 138.704 156.167C137.879 154.486 138.691 152.196 141.661 153.837C144.631 155.478 144.894 155.359 146.703 153.777C148.511 152.195 151.78 155.754 153.043 157.631C154.306 159.508 153.508 155.357 155.693 156.549C157.877 157.741 158.889 163.663 158.115 168.039C157.341 172.414 149.056 170.363 147.989 168.854C146.922 167.344 149.587 168.139 149.365 166.753Z" fill="#98CFF4"/>
<path d="M143.027 159.906C143.114 160.172 143.158 160.468 143.147 160.801C143.055 163.596 149.365 166.754 149.365 166.754C149.586 168.139 146.922 167.344 147.989 168.853C149.056 170.363 157.341 172.414 158.115 168.038C158.156 167.803 158.191 167.563 158.223 167.32C153.909 163.567 148.694 161.04 143.027 159.906Z" fill="#82C4E8"/>
<path d="M157.684 169.358C157.686 169.412 157.662 169.465 157.613 169.498C157.54 169.548 157.44 169.528 157.39 169.455C157.339 169.378 152.09 161.705 139.754 155.268C139.675 155.227 139.644 155.13 139.685 155.051C139.726 154.972 139.824 154.942 139.902 154.983C152.317 161.461 157.606 169.198 157.657 169.275C157.674 169.3 157.683 169.329 157.684 169.358Z" fill="#ACDAFF"/>
<path d="M143.423 157.166L140.691 157.448C140.603 157.457 140.523 157.393 140.514 157.304C140.506 157.217 140.57 157.137 140.658 157.128L143.022 156.884L142.564 155.037C142.543 154.95 142.595 154.863 142.682 154.842C142.768 154.821 142.855 154.873 142.877 154.96L143.423 157.166Z" fill="#ACDAFF"/>
<path d="M148.061 154.414C148.061 154.419 148.061 154.424 148.061 154.429L147.785 160.063L143.855 160.795C143.768 160.812 143.684 160.754 143.668 160.667C143.651 160.579 143.709 160.495 143.797 160.479L147.476 159.793L147.739 154.414C147.743 154.325 147.819 154.256 147.908 154.261C147.991 154.265 148.057 154.332 148.061 154.414Z" fill="#ACDAFF"/>
<path d="M152.437 157.549C152.437 157.551 152.437 157.554 152.437 157.557L152.436 163.819L146.899 164.42C146.811 164.429 146.732 164.365 146.722 164.277C146.715 164.186 146.777 164.11 146.865 164.1L152.114 163.531L152.115 157.557C152.115 157.468 152.188 157.396 152.276 157.396C152.363 157.396 152.433 157.464 152.437 157.549Z" fill="#ACDAFF"/>
<path d="M155.991 158.44C155.991 158.442 155.991 158.444 155.991 158.447L156.022 167.423L149.532 168.542C149.444 168.557 149.361 168.499 149.346 168.411C149.332 168.323 149.39 168.24 149.477 168.225L155.7 167.152L155.669 158.448C155.669 158.359 155.74 158.287 155.829 158.286C155.916 158.286 155.987 158.354 155.991 158.44Z" fill="#ACDAFF"/>
<path d="M163.55 165.864C163.55 165.864 171.867 162.365 171.984 158.792C172.102 155.218 176.849 155.327 178.043 153.251C179.237 151.176 178.394 148.186 174.466 150.03C170.539 151.874 170.213 151.7 168.038 149.529C165.863 147.358 161.393 151.625 159.624 153.914C157.855 156.202 159.222 150.973 156.334 152.31C153.446 153.648 151.658 161.119 152.278 166.767C152.897 172.416 163.641 170.495 165.129 168.659C166.617 166.822 163.151 167.613 163.55 165.864Z" fill="#ACDAFF"/>
<path d="M172.212 157.66C172.08 157.991 171.998 158.365 171.984 158.792C171.866 162.365 163.55 165.864 163.55 165.864C163.15 167.613 166.617 166.822 165.129 168.658C163.64 170.495 152.897 172.415 152.277 166.767C152.244 166.464 152.219 166.154 152.199 165.842C158.019 161.415 164.887 158.63 172.212 157.66Z" fill="#98CFF4"/>
<path d="M152.716 168.487C152.708 168.556 152.736 168.627 152.795 168.672C152.885 168.742 153.014 168.725 153.083 168.635C153.155 168.542 160.499 159.192 176.781 152.015C176.885 151.97 176.933 151.848 176.887 151.744C176.841 151.64 176.719 151.593 176.615 151.639C160.23 158.861 152.831 168.289 152.758 168.384C152.733 168.415 152.72 168.451 152.716 168.487Z" fill="#D2EDFF"/>
<path d="M171.938 154.13L175.401 154.719C175.513 154.738 175.62 154.663 175.639 154.55C175.656 154.439 175.582 154.332 175.47 154.313L172.474 153.804L173.213 151.485C173.248 151.375 173.188 151.26 173.08 151.226C172.971 151.191 172.856 151.251 172.821 151.359L171.938 154.13Z" fill="#D2EDFF"/>
<path d="M166.252 150.229C166.252 150.235 166.251 150.242 166.251 150.248L166.129 157.46L171.082 158.725C171.192 158.753 171.304 158.686 171.332 158.576C171.361 158.466 171.293 158.354 171.183 158.326L166.546 157.142L166.662 150.255C166.664 150.142 166.574 150.048 166.46 150.046C166.353 150.044 166.264 150.125 166.252 150.229Z" fill="#D2EDFF"/>
<path d="M160.404 153.862C160.403 153.865 160.403 153.868 160.403 153.871L159.878 161.862L166.892 163.093C167.004 163.112 167.11 163.038 167.13 162.926C167.147 162.81 167.075 162.708 166.963 162.688L160.313 161.52L160.813 153.897C160.821 153.784 160.735 153.686 160.621 153.679C160.512 153.671 160.416 153.753 160.404 153.862Z" fill="#D2EDFF"/>
<path d="M155.794 154.699C155.794 154.701 155.794 154.704 155.793 154.707L154.998 166.158L163.186 168.133C163.297 168.159 163.408 168.091 163.435 167.981C163.46 167.87 163.393 167.759 163.283 167.733L155.433 165.84L156.204 154.735C156.212 154.622 156.126 154.524 156.013 154.516C155.902 154.509 155.806 154.59 155.794 154.699Z" fill="#D2EDFF"/>
<path d="M187.794 155.223C187.794 155.223 190.199 148.105 188.034 146.061C185.87 144.017 188.556 141.116 187.92 139.226C187.284 137.337 184.954 136.214 183.938 139.681C182.922 143.147 182.634 143.255 180.08 143.414C177.527 143.574 177.723 148.715 178.175 151.081C178.626 153.447 176.119 149.71 175.36 152.249C174.601 154.788 178.276 160.023 182.141 162.752C186.006 165.481 190.733 157.72 190.408 155.779C190.083 153.838 188.665 156.437 187.794 155.223Z" fill="#82C4E8"/>
<path d="M187.454 145.295C187.588 145.56 187.775 145.817 188.034 146.062C190.199 148.106 187.794 155.223 187.794 155.223C188.665 156.437 190.083 153.838 190.408 155.779C190.733 157.72 186.006 165.481 182.141 162.753C181.933 162.606 181.727 162.451 181.521 162.291C181.968 156.22 184.019 150.399 187.454 145.295Z" fill="#6CB7D8"/>
<path d="M183.455 163.428C183.494 163.47 183.553 163.492 183.614 163.481C183.707 163.463 183.768 163.373 183.75 163.28C183.732 163.184 181.95 153.447 186.453 139.332C186.482 139.242 186.432 139.146 186.342 139.117C186.252 139.088 186.155 139.138 186.127 139.228C181.595 153.432 183.396 163.247 183.414 163.345C183.42 163.377 183.435 163.405 183.455 163.428Z" fill="#98CFF4"/>
<path d="M185.101 143.519L187.379 141.684C187.452 141.625 187.464 141.516 187.404 141.443C187.345 141.371 187.237 141.358 187.164 141.417L185.193 143.005L184.155 141.264C184.105 141.182 184.001 141.156 183.92 141.205C183.838 141.253 183.812 141.358 183.86 141.44L185.101 143.519Z" fill="#98CFF4"/>
<path d="M179.532 144.914C179.535 144.918 179.539 144.922 179.543 144.926L183.974 148.979L187.494 146.587C187.573 146.534 187.593 146.427 187.54 146.349C187.487 146.27 187.38 146.25 187.302 146.304L184.005 148.543L179.774 144.672C179.704 144.608 179.596 144.614 179.532 144.683C179.472 144.749 179.473 144.85 179.532 144.914Z" fill="#98CFF4"/>
<path d="M178.572 150.566C178.574 150.568 178.575 150.57 178.577 150.571L183.272 155.306L187.909 151.61C187.983 151.551 187.995 151.444 187.936 151.37C187.873 151.295 187.769 151.284 187.695 151.343L183.299 154.847L178.82 150.331C178.754 150.264 178.645 150.263 178.578 150.33C178.513 150.394 178.51 150.498 178.572 150.566Z" fill="#98CFF4"/>
<path d="M176.552 153.903C176.554 153.905 176.555 153.906 176.557 153.908L183.261 160.72L189.008 156.701C189.086 156.647 189.105 156.54 189.051 156.463C188.995 156.386 188.89 156.366 188.812 156.42L183.302 160.273L176.801 153.668C176.734 153.601 176.626 153.6 176.559 153.666C176.493 153.731 176.491 153.835 176.552 153.903Z" fill="#98CFF4"/>
<path d="M178.097 165.146C178.097 165.146 171.788 161.989 171.88 159.194C171.972 156.399 168.262 156.24 167.437 154.559C166.612 152.879 167.423 150.589 170.393 152.23C173.363 153.87 173.626 153.751 175.435 152.17C177.244 150.588 180.512 154.147 181.775 156.023C183.038 157.9 182.241 153.749 184.425 154.941C186.61 156.133 187.621 162.055 186.847 166.431C186.073 170.807 177.789 168.756 176.722 167.246C175.654 165.736 178.319 166.531 178.097 165.146Z" fill="#98CFF4"/>
<path d="M171.76 158.299C171.846 158.565 171.891 158.86 171.879 159.194C171.787 161.989 178.097 165.146 178.097 165.146C178.319 166.532 175.655 165.736 176.722 167.246C177.789 168.755 186.073 170.806 186.847 166.43C186.888 166.195 186.924 165.955 186.955 165.712C182.642 161.959 177.426 159.433 171.76 158.299Z" fill="#82C4E8"/>
<path d="M186.416 167.75C186.418 167.804 186.393 167.858 186.345 167.891C186.271 167.941 186.171 167.921 186.122 167.847C186.07 167.771 180.821 160.098 168.485 153.66C168.406 153.619 168.375 153.522 168.417 153.444C168.458 153.365 168.555 153.334 168.634 153.375C181.048 159.853 186.337 167.591 186.389 167.668C186.406 167.693 186.414 167.721 186.416 167.75Z" fill="#ACDAFF"/>
<path d="M172.154 155.559L169.422 155.84C169.334 155.849 169.255 155.785 169.246 155.697C169.238 155.609 169.301 155.53 169.389 155.521L171.754 155.277L171.296 153.43C171.274 153.343 171.327 153.256 171.413 153.235C171.5 153.213 171.587 153.266 171.608 153.352L172.154 155.559Z" fill="#ACDAFF"/>
<path d="M176.792 152.807C176.792 152.812 176.792 152.817 176.792 152.822L176.516 158.456L172.587 159.188C172.5 159.204 172.415 159.146 172.399 159.059C172.383 158.971 172.441 158.888 172.528 158.872L176.207 158.186L176.471 152.806C176.475 152.718 176.55 152.649 176.639 152.653C176.723 152.658 176.789 152.725 176.792 152.807Z" fill="#ACDAFF"/>
<path d="M181.168 155.942C181.168 155.944 181.168 155.947 181.168 155.949L181.167 162.212L175.631 162.812C175.542 162.822 175.463 162.758 175.454 162.67C175.446 162.578 175.508 162.502 175.596 162.493L180.846 161.924L180.847 155.95C180.847 155.861 180.919 155.789 181.008 155.789C181.094 155.789 181.164 155.856 181.168 155.942Z" fill="#ACDAFF"/>
<path d="M184.723 156.833C184.723 156.835 184.723 156.837 184.723 156.839L184.755 165.816L178.264 166.935C178.176 166.95 178.093 166.891 178.078 166.804C178.064 166.716 178.122 166.633 178.21 166.618L184.433 165.545L184.402 156.84C184.401 156.751 184.473 156.679 184.562 156.679C184.648 156.678 184.719 156.747 184.723 156.833Z" fill="#ACDAFF"/>
<path d="M169.443 166.928C169.443 166.928 163.713 166.183 163.033 163.996C162.353 161.81 159.441 162.684 158.35 161.606C157.26 160.528 157.272 158.539 160.011 159.009C162.749 159.479 162.921 159.317 163.894 157.607C164.868 155.897 168.354 157.771 169.835 158.883C171.317 159.995 169.583 156.998 171.594 157.333C173.605 157.668 175.979 161.977 176.557 165.57C177.135 169.163 170.175 169.804 168.944 168.923C167.713 168.042 169.987 167.94 169.443 166.928Z" fill="#82C4E8"/>
<path d="M162.699 163.336C162.837 163.518 162.952 163.735 163.033 163.996C163.713 166.182 169.443 166.928 169.443 166.928C169.987 167.94 167.712 168.041 168.943 168.922C170.175 169.803 177.135 169.162 176.556 165.569C176.525 165.376 176.488 165.181 176.447 164.984C172.101 163.241 167.387 162.69 162.699 163.336Z" fill="#6CB7D8"/>
<path d="M176.579 166.706C176.595 166.747 176.591 166.796 176.562 166.834C176.518 166.892 176.435 166.904 176.377 166.859C176.317 166.814 170.193 162.29 158.919 160.628C158.847 160.618 158.797 160.551 158.808 160.479C158.818 160.407 158.886 160.357 158.958 160.368C170.302 162.041 176.474 166.603 176.535 166.649C176.556 166.664 176.57 166.684 176.579 166.706Z" fill="#98CFF4"/>
<path d="M162.268 161.11L160.23 162.063C160.164 162.094 160.086 162.066 160.055 161.999C160.025 161.934 160.053 161.855 160.118 161.824L161.881 161L161.03 159.694C160.99 159.633 161.008 159.552 161.069 159.512C161.13 159.472 161.211 159.49 161.251 159.55L162.268 161.11Z" fill="#98CFF4"/>
<path d="M165.115 157.735C165.117 157.739 165.118 157.742 165.119 157.746L166.421 162.178L163.578 163.801C163.515 163.837 163.435 163.816 163.399 163.752C163.362 163.689 163.384 163.609 163.448 163.572L166.11 162.053L164.866 157.82C164.846 157.75 164.886 157.677 164.956 157.657C165.022 157.638 165.091 157.672 165.115 157.735Z" fill="#98CFF4"/>
<path d="M169.344 158.983C169.345 158.985 169.346 158.987 169.346 158.988L171.029 163.833L166.909 165.786C166.843 165.817 166.764 165.789 166.733 165.724C166.703 165.655 166.73 165.579 166.796 165.548L170.703 163.696L169.098 159.075C169.074 159.006 169.11 158.931 169.179 158.907C169.246 158.884 169.318 158.918 169.344 158.983Z" fill="#98CFF4"/>
<path d="M172.333 158.716C172.334 158.717 172.334 158.719 172.335 158.721L174.773 165.656L170.054 168.267C169.99 168.302 169.91 168.279 169.875 168.216C169.84 168.152 169.862 168.072 169.926 168.037L174.451 165.533L172.086 158.808C172.062 158.739 172.099 158.664 172.167 158.64C172.234 158.617 172.307 158.65 172.333 158.716Z" fill="#98CFF4"/>
<path d="M192.282 165.864C192.282 165.864 200.598 162.365 200.716 158.792C200.833 155.218 205.58 155.327 206.774 153.251C207.968 151.176 207.125 148.186 203.198 150.03C199.27 151.874 198.945 151.7 196.77 149.529C194.594 147.358 190.125 151.625 188.356 153.914C186.586 156.202 187.953 150.973 185.065 152.31C182.177 153.648 180.389 161.119 181.009 166.767C181.629 172.416 192.372 170.495 193.861 168.659C195.349 166.822 191.882 167.613 192.282 165.864Z" fill="#ACDAFF"/>
<path d="M200.944 157.66C200.811 157.991 200.73 158.365 200.715 158.792C200.598 162.365 192.281 165.864 192.281 165.864C191.881 167.613 195.348 166.822 193.86 168.658C192.372 170.495 181.628 172.415 181.008 166.767C180.975 166.464 180.95 166.154 180.931 165.842C186.75 161.415 193.618 158.63 200.944 157.66Z" fill="#98CFF4"/>
<path d="M181.448 168.487C181.44 168.556 181.467 168.627 181.526 168.672C181.616 168.742 181.745 168.725 181.815 168.635C181.887 168.542 189.23 159.192 205.513 152.015C205.617 151.97 205.664 151.848 205.618 151.744C205.572 151.64 205.451 151.593 205.347 151.639C188.961 158.861 181.562 168.289 181.489 168.384C181.465 168.415 181.451 168.451 181.448 168.487Z" fill="#D2EDFF"/>
<path d="M200.67 154.13L204.133 154.719C204.245 154.738 204.351 154.663 204.37 154.55C204.388 154.439 204.313 154.332 204.202 154.313L201.205 153.804L201.945 151.485C201.98 151.375 201.92 151.26 201.811 151.226C201.703 151.191 201.587 151.251 201.552 151.359L200.67 154.13Z" fill="#D2EDFF"/>
<path d="M194.984 150.229C194.983 150.235 194.983 150.242 194.983 150.248L194.86 157.46L199.813 158.725C199.923 158.753 200.035 158.686 200.063 158.576C200.092 158.466 200.025 158.354 199.915 158.326L195.277 157.142L195.394 150.255C195.396 150.142 195.305 150.048 195.192 150.046C195.085 150.044 194.996 150.125 194.984 150.229Z" fill="#D2EDFF"/>
<path d="M189.135 153.862C189.135 153.865 189.134 153.868 189.134 153.871L188.609 161.862L195.623 163.093C195.735 163.112 195.842 163.038 195.861 162.926C195.879 162.81 195.806 162.708 195.695 162.688L189.044 161.52L189.545 153.897C189.552 153.784 189.466 153.686 189.353 153.679C189.243 153.671 189.147 153.753 189.135 153.862Z" fill="#D2EDFF"/>
<path d="M184.526 154.699C184.525 154.701 184.525 154.704 184.525 154.707L183.729 166.158L191.918 168.133C192.028 168.159 192.139 168.091 192.166 167.981C192.192 167.87 192.125 167.759 192.014 167.733L184.164 165.84L184.935 154.735C184.943 154.622 184.858 154.524 184.744 154.516C184.634 154.509 184.538 154.59 184.526 154.699Z" fill="#D2EDFF"/>
<path d="M204.954 179.219H143.005L141.45 165.073H206.509L204.954 179.219Z" fill="#CB9F2D"/>
<path d="M205.406 175.107H142.554L142.671 176.177H205.289L205.406 175.107Z" fill="#FCC63A"/>
<path d="M205.823 171.316H142.137L142.365 173.39H205.595L205.823 171.316Z" fill="#FCC63A"/>
<path d="M207.366 164.095H140.478V167.427H207.366V164.095Z" fill="#FCC63A"/>
<path d="M262.457 182.429H209.846C206.122 182.429 200.336 179.63 200.768 175.906L216.837 64.0574C217.269 60.334 220.637 57.3152 224.361 57.3152L273.752 55.3898C279.759 55.3898 283.364 60.3336 282.932 64.0574L269.981 175.687C269.549 179.41 266.18 182.429 262.457 182.429Z" fill="#144182"/>
<path d="M258.58 180.472H205.97C202.246 180.472 199.578 177.453 200.01 173.729L212.961 62.1C213.393 58.3766 216.761 55.3578 220.485 55.3578H273.096C276.819 55.3578 279.488 58.3762 279.056 62.1L266.105 173.729C265.673 177.453 262.304 180.472 258.58 180.472Z" fill="#2099FF"/>
<path d="M258.567 178.131H206.526C203.692 178.131 201.661 175.834 201.99 173L214.816 62.4464C215.145 59.6125 217.709 57.3156 220.542 57.3156H272.584C275.418 57.3156 277.448 59.6129 277.12 62.4464L264.293 173C263.965 175.834 261.401 178.131 258.567 178.131Z" fill="#E8EDFF"/>
<path d="M237.273 175.349H226.426C225.17 175.349 224.261 174.321 224.407 173.066C224.553 171.81 225.699 170.782 226.956 170.782H237.803C239.059 170.782 239.968 171.81 239.822 173.066C239.676 174.321 238.529 175.349 237.273 175.349Z" fill="#2099FF"/>
<path d="M222.891 62.5924C223.621 61.9037 223.716 60.8185 223.102 60.1684C222.489 59.5184 221.4 59.5498 220.67 60.2385C219.94 60.9272 219.846 62.0124 220.459 62.6624C221.073 63.3125 222.162 63.2811 222.891 62.5924Z" fill="#2099FF"/>
<path d="M227.045 62.1246C227.484 61.7097 227.541 61.0559 227.172 60.6642C226.802 60.2726 226.146 60.2914 225.706 60.7064C225.267 61.1213 225.21 61.7751 225.579 62.1668C225.949 62.5584 226.605 62.5396 227.045 62.1246Z" fill="#2099FF"/>
<path d="M262.085 168.172H204.885L216.741 65.9789H273.941L262.085 168.172Z" fill="white"/>
<path d="M266.022 81.7471H221.051C219.67 81.7471 218.68 80.6273 218.84 79.2458L219.749 71.4162C219.909 70.0347 221.159 68.9149 222.54 68.9149H267.51C268.892 68.9149 269.882 70.0347 269.721 71.4162L268.813 79.2458C268.652 80.6273 267.403 81.7471 266.022 81.7471Z" fill="#E6F2FF"/>
<path d="M224.819 82.0717L225.635 75.0401H226.717L229.216 80.1732H228.649L232.289 75.0401H233.371L232.565 82.0717H231.321L231.902 76.9788H232.165L229.079 81.2681H228.492L226.36 76.9788H226.664L226.073 82.0717H224.819ZM236.775 82.142C236.222 82.142 235.743 82.0248 235.339 81.7905C234.936 81.5494 234.633 81.2212 234.432 80.806C234.231 80.3908 234.161 79.9187 234.222 79.3897C234.284 78.8539 234.464 78.3818 234.76 77.9733C235.058 77.5581 235.436 77.2333 235.895 76.9989C236.354 76.7645 236.859 76.6473 237.412 76.6473C237.972 76.6473 238.454 76.7645 238.858 76.9989C239.269 77.2333 239.572 77.5547 239.767 77.9632C239.969 78.3717 240.039 78.8472 239.976 79.3897C239.915 79.9187 239.735 80.3908 239.438 80.806C239.147 81.2212 238.768 81.5494 238.302 81.7905C237.843 82.0248 237.334 82.142 236.775 82.142ZM236.899 81.0672C237.21 81.0672 237.494 81.0002 237.752 80.8663C238.01 80.7324 238.222 80.5382 238.386 80.2837C238.557 80.0292 238.662 79.7312 238.702 79.3897C238.742 79.0414 238.706 78.7434 238.593 78.4956C238.488 78.2412 238.322 78.0469 238.095 77.913C237.867 77.7791 237.602 77.7121 237.299 77.7121C236.989 77.7121 236.704 77.7791 236.446 77.913C236.195 78.0469 235.983 78.2412 235.812 78.4956C235.642 78.7434 235.537 79.0414 235.496 79.3897C235.457 79.7312 235.493 80.0292 235.605 80.2837C235.717 80.5382 235.883 80.7324 236.104 80.8663C236.331 81.0002 236.596 81.0672 236.899 81.0672ZM244.567 76.6473C244.998 76.6473 245.373 76.731 245.691 76.8984C246.015 77.0659 246.255 77.3237 246.41 77.6719C246.566 78.0135 246.612 78.4554 246.549 78.9979L246.193 82.0717H244.929L245.267 79.1586C245.322 78.6831 245.248 78.3282 245.046 78.0938C244.851 77.8594 244.551 77.7422 244.147 77.7422C243.85 77.7422 243.58 77.8025 243.337 77.9231C243.094 78.0436 242.894 78.2244 242.738 78.4655C242.59 78.6999 242.494 78.9979 242.452 79.3595L242.138 82.0717H240.874L241.496 76.7076H242.699L242.532 78.1541L242.37 77.7121C242.599 77.3706 242.902 77.1094 243.28 76.9286C243.666 76.7411 244.095 76.6473 244.567 76.6473ZM250.084 82.142C249.565 82.142 249.109 82.0282 248.718 81.8005C248.334 81.5661 248.047 81.2447 247.859 80.8362C247.67 80.4277 247.608 79.9455 247.673 79.3897C247.737 78.8338 247.911 78.3516 248.194 77.9431C248.478 77.5346 248.838 77.2165 249.276 76.9888C249.72 76.7612 250.202 76.6473 250.721 76.6473C251.173 76.6473 251.566 76.7478 251.9 76.9487C252.234 77.1429 252.483 77.4409 252.645 77.8427C252.808 78.2445 252.852 78.7602 252.779 79.3897C252.707 80.0125 252.546 80.5281 252.297 80.9366C252.048 81.3384 251.733 81.6398 251.352 81.8407C250.972 82.0416 250.549 82.142 250.084 82.142ZM250.36 81.0672C250.663 81.0672 250.941 81.0002 251.192 80.8663C251.451 80.7324 251.665 80.5382 251.836 80.2837C252.014 80.0292 252.123 79.7312 252.162 79.3897C252.203 79.0414 252.163 78.7434 252.044 78.4956C251.932 78.2412 251.762 78.0469 251.535 77.913C251.314 77.7791 251.053 77.7121 250.749 77.7121C250.446 77.7121 250.165 77.7791 249.907 77.913C249.655 78.0469 249.441 78.2412 249.263 78.4956C249.092 78.7434 248.987 79.0414 248.947 79.3897C248.907 79.7312 248.943 80.0292 249.055 80.2837C249.174 80.5382 249.344 80.7324 249.564 80.8663C249.791 81.0002 250.057 81.0672 250.36 81.0672ZM251.882 82.0717L252.029 80.806L252.245 79.3796L252.309 77.9532L252.696 74.6182H253.95L253.085 82.0717H251.882ZM258.076 82.0717L258.202 80.9868L258.158 80.7558L258.378 78.8573C258.421 78.4889 258.342 78.2043 258.143 78.0034C257.945 77.7958 257.62 77.692 257.168 77.692C256.865 77.692 256.559 77.7389 256.252 77.8326C255.951 77.9264 255.69 78.057 255.468 78.2244L255.079 77.3103C255.394 77.0893 255.757 76.9252 256.167 76.8181C256.585 76.7042 257.01 76.6473 257.441 76.6473C258.223 76.6473 258.805 76.8348 259.186 77.2098C259.575 77.5782 259.724 78.1507 259.634 78.9276L259.269 82.0717H258.076ZM256.369 82.142C255.964 82.142 255.618 82.0751 255.33 81.9411C255.043 81.8005 254.829 81.6096 254.689 81.3686C254.556 81.1208 254.507 80.8429 254.543 80.5348C254.578 80.2335 254.68 79.9622 254.85 79.7211C255.026 79.4801 255.287 79.2892 255.634 79.1486C255.981 79.0079 256.427 78.9376 256.973 78.9376H258.541L258.444 79.7714H256.967C256.536 79.7714 256.238 79.8417 256.073 79.9823C255.909 80.1163 255.816 80.2837 255.793 80.4846C255.766 80.7123 255.836 80.8931 256.003 81.027C256.169 81.161 256.414 81.2279 256.738 81.2279C257.048 81.2279 257.332 81.1576 257.592 81.017C257.857 80.8763 258.06 80.6687 258.2 80.3942L258.325 81.1476C258.167 81.4623 257.919 81.7067 257.582 81.8809C257.252 82.055 256.848 82.142 256.369 82.142ZM261.004 84.0908C260.741 84.0908 260.483 84.0473 260.23 83.9602C259.977 83.8732 259.772 83.7526 259.615 83.5986L260.227 82.6744C260.342 82.7883 260.477 82.8787 260.631 82.9457C260.785 83.0126 260.946 83.0461 261.115 83.0461C261.344 83.0461 261.536 82.9892 261.691 82.8753C261.845 82.7615 261.999 82.5706 262.151 82.3028L262.546 81.5996L262.665 81.4489L265.258 76.7076H266.471L263.271 82.5037C263.056 82.9055 262.83 83.2236 262.594 83.458C262.364 83.6923 262.116 83.8564 261.849 83.9502C261.589 84.0439 261.307 84.0908 261.004 84.0908ZM262.328 82.2626L260.535 76.7076H261.85L263.295 81.3384L262.328 82.2626ZM224.064 93.9918L224.821 87.4624L225.328 88.0551H223.255L223.382 86.9602H226.194L225.378 93.9918H224.064ZM227.915 93.9918L228.672 87.4624L229.18 88.0551H227.107L227.234 86.9602H230.045L229.23 93.9918H227.915ZM231.414 94.0621C231.185 94.0621 230.999 93.9851 230.855 93.8311C230.712 93.6704 230.654 93.4695 230.682 93.2284C230.711 92.9739 230.816 92.773 230.995 92.6257C231.174 92.4716 231.379 92.3946 231.608 92.3946C231.837 92.3946 232.024 92.4716 232.168 92.6257C232.312 92.773 232.37 92.9739 232.34 93.2284C232.312 93.4695 232.208 93.6704 232.028 93.8311C231.848 93.9851 231.644 94.0621 231.414 94.0621ZM235.925 94.0923C235.366 94.0923 234.877 93.9516 234.457 93.6704C234.045 93.3891 233.742 92.9806 233.548 92.4449C233.355 91.9024 233.303 91.2461 233.392 90.476C233.481 89.7059 233.685 89.0529 234.003 88.5172C234.323 87.9747 234.721 87.5629 235.198 87.2816C235.683 87.0004 236.205 86.8597 236.764 86.8597C237.331 86.8597 237.82 87.0004 238.232 87.2816C238.645 87.5629 238.947 87.9747 239.141 88.5172C239.341 89.0529 239.397 89.7059 239.308 90.476C239.219 91.2461 239.011 91.9024 238.685 92.4449C238.367 92.9806 237.969 93.3891 237.491 93.6704C237.014 93.9516 236.492 94.0923 235.925 94.0923ZM236.057 92.9572C236.387 92.9572 236.684 92.8701 236.947 92.696C237.211 92.5152 237.431 92.2406 237.609 91.8723C237.793 91.504 237.918 91.0385 237.983 90.476C238.049 89.9068 238.032 89.4413 237.933 89.0797C237.841 88.7114 237.683 88.4402 237.461 88.2661C237.239 88.0852 236.963 87.9948 236.633 87.9948C236.316 87.9948 236.022 88.0852 235.752 88.2661C235.489 88.4402 235.265 88.7114 235.081 89.0797C234.904 89.4413 234.783 89.9068 234.717 90.476C234.651 91.0385 234.665 91.504 234.757 91.8723C234.856 92.2406 235.016 92.5152 235.238 92.696C235.467 92.8701 235.74 92.9572 236.057 92.9572ZM242.73 94.0923C242.17 94.0923 241.681 93.9516 241.262 93.6704C240.849 93.3891 240.546 92.9806 240.352 92.4449C240.159 91.9024 240.107 91.2461 240.196 90.476C240.286 89.7059 240.489 89.0529 240.808 88.5172C241.127 87.9747 241.525 87.5629 242.003 87.2816C242.487 87.0004 243.009 86.8597 243.568 86.8597C244.135 86.8597 244.624 87.0004 245.036 87.2816C245.449 87.5629 245.752 87.9747 245.945 88.5172C246.146 89.0529 246.201 89.7059 246.112 90.476C246.023 91.2461 245.815 91.9024 245.489 92.4449C245.171 92.9806 244.773 93.3891 244.295 93.6704C243.818 93.9516 243.296 94.0923 242.73 94.0923ZM242.861 92.9572C243.192 92.9572 243.488 92.8701 243.751 92.696C244.015 92.5152 244.235 92.2406 244.413 91.8723C244.597 91.504 244.722 91.0385 244.787 90.476C244.853 89.9068 244.837 89.4413 244.737 89.0797C244.645 88.7114 244.487 88.4402 244.265 88.2661C244.043 88.0852 243.767 87.9948 243.437 87.9948C243.12 87.9948 242.826 88.0852 242.556 88.2661C242.293 88.4402 242.069 88.7114 241.885 89.0797C241.708 89.4413 241.587 89.9068 241.521 90.476C241.456 91.0385 241.469 91.504 241.561 91.8723C241.66 92.2406 241.82 92.5152 242.042 92.696C242.271 92.8701 242.544 92.9572 242.861 92.9572ZM221.053 105.912L225.054 98.8803H226.348L228.728 105.912H227.353L225.348 99.5734H225.874L222.408 105.912H221.053ZM222.708 104.285L223.181 103.26H227.003L227.238 104.285H222.708ZM229.629 105.912L230.444 98.8803H231.526L234.025 104.013H233.459L237.098 98.8803H238.18L237.375 105.912H236.131L236.712 100.819H236.974L233.888 105.108H233.302L231.17 100.819H231.473L230.883 105.912H229.629Z" fill="#ACDAFF"/>
<path d="M227.154 95.8128H216.918L218.105 85.577H228.341L227.154 95.8128Z" fill="#E6F2FF"/>
<path d="M240.399 95.8128H230.163L231.351 85.577H241.587L240.399 95.8128Z" fill="#F4F6FE"/>
<path d="M253.644 95.8128H243.408L244.596 85.577H254.832L253.644 95.8128Z" fill="#E6F2FF"/>
<path d="M266.891 95.8128H256.654L257.842 85.577H268.078L266.891 95.8128Z" fill="#E6F2FF"/>
<path d="M225.636 108.902H215.399L216.587 98.6666H226.823L225.636 108.902Z" fill="#E6F2FF"/>
<path d="M238.881 108.902H228.645L229.832 98.6666H240.068L238.881 108.902Z" fill="#E6F2FF"/>
<path d="M252.127 108.902H241.891L243.078 98.6666H253.314L252.127 108.902Z" fill="#E6F2FF"/>
<path d="M265.372 108.902H255.136L256.323 98.6666H266.56L265.372 108.902Z" fill="#E6F2FF"/>
<path d="M224.117 121.992H213.881L215.068 111.756H225.304L224.117 121.992Z" fill="#E6F2FF"/>
<path d="M237.362 121.992H227.126L228.314 111.756H238.549L237.362 121.992Z" fill="#E6F2FF"/>
<path d="M250.608 121.992H240.372L241.56 111.756H251.795L250.608 121.992Z" fill="#E6F2FF"/>
<path d="M263.853 121.992H253.617L254.805 111.756H265.041L263.853 121.992Z" fill="#E6F2FF"/>
<path d="M222.598 135.082H212.362L213.55 124.846H223.786L222.598 135.082Z" fill="#E6F2FF"/>
<path d="M235.843 135.082H225.607L226.795 124.846H237.031L235.843 135.082Z" fill="#E6F2FF"/>
<path d="M249.089 135.082H238.853L240.04 124.846H250.276L249.089 135.082Z" fill="#E6F2FF"/>
<path d="M262.335 135.082H252.099L253.286 124.846H263.522L262.335 135.082Z" fill="#E6F2FF"/>
<path d="M220.077 156.252C220.17 155.45 220.899 154.797 221.702 154.797H230.951C231.82 154.797 232.624 154.298 233.05 153.495C233.475 152.693 233.402 151.812 232.859 151.198L229.268 147.136C228.917 146.737 228.412 146.518 227.849 146.518H216.599C215.981 146.518 215.474 146.126 215.338 145.542L214.862 143.495C214.757 143.044 214.881 142.563 215.203 142.173C215.525 141.784 215.983 141.56 216.461 141.56H231.979C232.364 141.56 232.71 141.709 232.953 141.98L238.762 148.458C238.812 148.173 238.869 147.889 238.928 147.608L233.465 141.516C233.113 141.124 232.612 140.908 232.054 140.908H216.536C215.844 140.908 215.18 141.232 214.714 141.795C214.248 142.36 214.068 143.057 214.22 143.71L214.696 145.757C214.893 146.603 215.627 147.171 216.523 147.171H227.773C228.161 147.171 228.51 147.322 228.752 147.598L232.343 151.66C232.792 152.166 232.705 152.812 232.475 153.246C232.244 153.681 231.742 154.145 231.025 154.145H221.776C220.614 154.145 219.558 155.09 219.423 156.253L219.175 158.398C219.04 159.561 219.876 160.506 221.038 160.506H231.258C232.06 160.506 232.637 161.159 232.541 161.987C232.449 162.789 231.719 163.443 230.917 163.443H210.474L210.398 164.095H230.841C232.004 164.095 233.059 163.149 233.197 161.962C233.332 160.8 232.496 159.854 231.333 159.854H221.114C220.311 159.854 219.734 159.201 219.827 158.398L220.077 156.252Z" fill="#E6F2FF"/>
<path d="M242.562 143.208C242.368 144.872 238.843 149.289 238.843 149.289C238.843 149.289 236.343 144.872 236.536 143.208C236.729 141.544 238.234 140.195 239.898 140.195C241.562 140.195 242.755 141.544 242.562 143.208Z" fill="#ACDAFF"/>
<path d="M240.61 144.183C241.299 143.533 241.388 142.509 240.809 141.896C240.231 141.282 239.203 141.312 238.515 141.962C237.826 142.612 237.737 143.636 238.315 144.249C238.894 144.862 239.921 144.833 240.61 144.183Z" fill="white"/>
<path d="M213.391 165.507C214.467 164.492 214.606 162.892 213.702 161.933C212.797 160.975 211.192 161.021 210.116 162.037C209.039 163.052 208.9 164.653 209.804 165.611C210.709 166.569 212.314 166.523 213.391 165.507Z" fill="#ACDAFF"/>
<path d="M212.599 164.668C213.154 164.144 213.226 163.318 212.759 162.823C212.292 162.329 211.464 162.352 210.908 162.877C210.353 163.401 210.281 164.227 210.748 164.721C211.214 165.216 212.043 165.192 212.599 164.668Z" fill="white"/>
<path d="M187.995 116.925C187.995 116.925 193.373 109.098 194.225 107.235C195.078 105.372 195.17 103.788 193.834 102.82C192.498 101.853 190.035 101.094 187.858 104.161C185.682 107.228 181.658 116.649 181.494 119.597C181.329 122.544 194.658 131.469 195.843 132.045C197.148 131.704 197.702 129.755 197.702 129.755C197.702 129.755 189.096 118.828 187.995 116.925Z" fill="#CB9F2D"/>
<path d="M192.408 181.685C192.408 181.685 192.678 183.232 191.794 185.564C190.91 187.896 190.861 188.632 191.794 189.148C192.726 189.663 193.389 189.81 195.991 189.148C198.593 188.485 201.49 187.037 201.49 187.037C201.49 187.037 198.667 185.245 197.98 184.483C197.293 183.722 195.844 180.998 195.869 180.605C195.893 180.213 192.408 181.685 192.408 181.685Z" fill="#F79E77"/>
<path d="M199.483 185.69C198.436 186.389 197.436 187.151 196.095 186.96C195.019 186.691 194.615 185.614 193.942 184.807C193.478 184.436 192.758 184.321 192.135 184.506C192.047 184.836 191.935 185.19 191.794 185.564C190.91 187.896 190.861 188.632 191.794 189.148C192.726 189.663 193.389 189.81 195.991 189.148C198.593 188.485 201.49 187.037 201.49 187.037C201.49 187.037 200.453 186.379 199.483 185.69Z" fill="#0C2C51"/>
<path d="M223.971 101.138L227.229 102.541C228.31 101.202 229.121 100.193 229.652 100.083C231.031 100.268 231.623 99.6843 231.992 99.213C232.361 98.7421 231.899 98.4721 231.959 98.2916C232.34 97.7308 231.694 97.5105 231.798 97.3779C232.198 96.9105 232.124 96.6573 231.882 96.5294C231.641 96.4016 231.234 96.2828 231.309 96.0478C231.383 95.8127 232.375 95.1864 233.237 94.7781C234.099 94.3699 235.046 93.715 234.522 93.3707C233.997 93.0264 229.101 95.3786 228.185 96.3821C227.269 97.3857 227.504 98.454 226.355 99.5595C225.938 99.9608 225.014 100.554 223.971 101.138Z" fill="#FFB797"/>
<path d="M195.812 181.211C195.812 181.211 196.041 184.385 195.026 186.971C194.012 189.557 194.306 190.702 196.139 191.226C197.972 191.751 198.987 190.506 201.376 190.572C203.766 190.638 206.94 190.375 207.759 188.183C208.577 185.99 204.757 186.97 202.445 186.283C200.132 185.597 201.16 181.538 201.16 181.538L195.812 181.211Z" fill="#FFAE83"/>
<path d="M202.509 186.237C202.302 186.932 204.188 187.665 203.631 188.037C201.613 189.517 199.19 186.96 196.903 186.153C196.437 185.92 195.881 185.912 195.34 186.023C195.251 186.344 195.148 186.661 195.026 186.971C194.012 189.557 194.306 190.702 196.139 191.226C197.972 191.75 198.987 190.506 201.376 190.572C203.766 190.638 208.285 190.185 209.104 187.992C209.913 185.821 204.828 186.883 202.509 186.237Z" fill="#0F3163"/>
<path d="M208.822 186.944C208.809 186.995 208.794 187.048 208.774 187.103C207.955 189.296 203.436 189.749 201.046 189.683C198.657 189.617 197.642 190.861 195.809 190.337C195.18 190.158 194.737 189.902 194.461 189.543C194.54 190.414 195.082 190.924 196.138 191.226C197.971 191.749 198.986 190.505 201.375 190.571C203.764 190.637 208.284 190.184 209.102 187.991C209.29 187.489 209.159 187.161 208.822 186.944Z" fill="#0C2C51"/>
<path d="M199.673 140.494C198.422 139.901 197.581 139.021 197.035 138.046C195.955 136.115 196.041 133.813 196.433 132.638C197.022 130.871 199.379 126.42 199.379 126.42L193.585 125.348C193.585 125.348 190.983 129.84 189.657 133.375C188.332 136.91 189.412 140.641 190.05 143.44C190.688 146.238 192.309 154.241 191.621 157.236C190.934 160.231 189.657 164.797 190.001 168.283C190.345 171.768 192.063 180.066 192.014 181.931C192.594 182.19 193.162 182.278 193.686 182.266C195.25 182.228 196.433 181.293 196.433 181.293C196.433 181.293 196.826 167.006 198.299 160.721C199.771 154.437 201.244 142.752 199.673 140.494Z" fill="#144182"/>
<path d="M199.674 140.494C198.423 139.901 197.582 139.021 197.036 138.046C194.584 136.888 196.294 132.389 196.095 129.611C195.124 132.292 191.411 137.125 196.486 143.146C198.292 144.824 196.529 157.984 194.98 163.919C193.592 168.952 194.199 177.034 194.444 182.177C195.616 181.936 196.433 181.293 196.433 181.293C196.433 181.293 196.826 167.006 198.299 160.721C199.772 154.437 201.245 142.752 199.674 140.494Z" fill="#0F3163"/>
<path d="M208.937 126.354C208.937 126.354 210.639 132.835 210.115 139.773C209.592 146.712 204.944 158.365 204.42 160.918C203.897 163.471 203.177 170.812 202.522 174.113C201.868 177.414 201.54 180.491 201.9 181.342C200.362 182.978 196.27 182.782 195.354 181.342C195.681 174.599 195.518 168.806 196.794 164.256C198.071 159.706 197.285 158.528 197.809 155.681C198.333 152.833 198.856 144.028 199.118 142.981C199.38 141.934 196.762 141.41 195.813 139.708C194.864 138.006 192.9 133.914 198.333 125.568C204.125 125.372 208.937 126.354 208.937 126.354Z" fill="#144182"/>
<path d="M208.936 126.354C208.936 126.354 204.124 125.372 198.331 125.569C198.222 125.736 198.121 125.899 198.019 126.062C202.797 126.123 206.456 126.87 206.456 126.87C206.456 126.87 208.158 133.351 207.634 140.289C207.111 147.228 203.399 158.687 202.876 161.24C202.352 163.793 202.145 170.802 201.49 174.103C200.925 176.949 200.822 180.491 201.035 181.959C201.367 181.793 201.666 181.592 201.899 181.342C201.539 180.491 201.866 177.415 202.521 174.114C203.176 170.813 203.896 163.471 204.42 160.918C204.943 158.365 209.591 146.713 210.115 139.774C210.638 132.835 208.936 126.354 208.936 126.354Z" fill="#164E91"/>
<path d="M205.958 87.2078C205.958 87.2078 206.449 93.0338 205.795 94.8339C205.14 96.6341 204.485 97.9435 204.125 98.3033C203.765 98.6632 202.032 98.0087 201.688 98.3033C201.343 98.598 201.376 101.969 201.376 101.969L196.564 101.773C196.564 101.773 197.121 95.685 197.546 94.0157C197.972 92.3465 205.468 87.0769 205.958 87.2078Z" fill="#FFAE83"/>
<path d="M194.568 101.659C194.568 101.659 198.299 99.7929 201.343 101.266C204.387 102.739 209.15 108.925 209.886 110.103C210.623 111.282 211.114 113.933 209.886 116.338C208.659 118.744 209.101 125.814 209.739 127.041C204.584 128.563 196.581 127.581 192.899 125.961C194.961 122.966 196.041 121.837 194.568 118.548C193.095 115.258 191.328 105.93 194.568 101.659Z" fill="#CB9F2D"/>
<path d="M207.569 116.792C208.796 114.386 208.305 111.735 207.569 110.557C206.832 109.379 202.07 103.193 199.026 101.72C197.974 101.211 196.843 101.105 195.81 101.178C195.053 101.418 194.568 101.659 194.568 101.659C191.328 105.93 193.095 115.258 194.568 118.548C196.041 121.837 194.961 122.966 192.899 125.961C195.997 127.325 202.155 128.236 207.101 127.583C207.208 127.554 207.316 127.526 207.421 127.495C206.783 126.268 206.341 119.198 207.569 116.792Z" fill="#CB9F2D"/>
<path d="M213.372 108.777C213.372 108.777 205.602 103.316 203.749 102.444C201.895 101.572 200.312 101.462 199.33 102.788C198.348 104.114 197.563 106.568 200.607 108.777C203.651 110.987 213.028 115.111 215.974 115.307C218.92 115.504 227.986 102.271 228.575 101.093C228.248 99.7832 226.305 99.2086 226.305 99.2086C226.305 99.2086 215.286 107.697 213.372 108.777Z" fill="#FCC63A"/>
<path d="M200.607 108.778C200.503 108.702 200.414 108.632 200.319 108.559C200.411 108.632 200.506 108.705 200.607 108.778Z" fill="#FF69A6"/>
<path d="M199.14 104.07C200.122 102.744 201.705 102.854 203.559 103.726C205.412 104.598 212.885 109.482 212.885 109.482C214.8 108.402 226.304 99.2084 226.304 99.2084C226.304 99.2084 215.286 107.698 213.371 108.778C213.371 108.778 205.602 103.316 203.749 102.444C201.895 101.572 200.312 101.462 199.33 102.788C198.871 103.408 198.454 104.276 198.453 105.249C198.591 104.849 198.847 104.466 199.14 104.07Z" fill="#FCC63A"/>
<path d="M205.598 84.4585C203.373 82.2328 199.248 81.3818 199.248 81.3818C195.749 80.1934 193.03 83.4766 192.244 86.4224C191.458 89.3682 191.845 92.7957 190.64 96.6664C190.031 98.5529 181.315 112.054 192.742 121.832C195.647 123.267 197.87 123.899 201.01 121.477C197.702 113.612 198.747 106.064 199.414 103.8C200.059 101.612 201.384 101.531 202.601 101.983C202.656 102.004 202.71 102.025 202.767 102.048C202.654 101.827 202.508 101.572 202.334 101.292C201.722 99.4666 202.299 95.6797 203.552 94.3427C205.025 92.7715 205.713 90.2188 205.958 88.353C206.302 90.5622 205.516 91.9369 204.976 92.7227C207.087 91.1027 207.824 86.6842 205.598 84.4585Z" fill="#144182"/>
<path d="M191.583 113.728C190.292 104.696 193.905 95.4058 197.26 86.8902C198.264 84.2801 201.143 83.0765 204.072 83.2783C201.879 81.9257 199.248 81.3818 199.248 81.3818C195.749 80.1934 193.03 83.4766 192.244 86.4224C191.458 89.3682 191.845 92.7957 190.64 96.6664C190.031 98.5529 181.315 112.054 192.742 121.832C195.09 122.993 196.993 123.627 199.295 122.548C198.313 122.373 197.164 121.732 196.92 121.534C194.34 119.728 192.099 116.824 191.583 113.728Z" fill="#0F3163"/>
<path d="M260.826 121.919C260.826 121.919 255.876 107.267 260.331 103.059C264.787 98.8507 259.257 92.8782 260.567 88.9881C261.877 85.0979 266.673 82.7867 268.764 89.9234C270.856 97.06 271.449 97.2808 276.706 97.6095C281.963 97.9383 281.559 108.523 280.629 113.393C279.699 118.263 284.863 110.57 286.424 115.797C287.985 121.024 280.421 131.803 272.464 137.421C264.507 143.038 254.775 127.061 255.444 123.065C256.113 119.069 259.033 124.418 260.826 121.919Z" fill="#82C4E8"/>
<path d="M261.526 101.48C261.25 102.027 260.864 102.556 260.332 103.059C255.876 107.267 260.826 121.919 260.826 121.919C259.033 124.418 256.113 119.069 255.445 123.065C254.776 127.061 264.508 143.038 272.465 137.421C272.892 137.119 273.318 136.8 273.741 136.47C272.818 123.971 268.597 111.99 261.526 101.48Z" fill="#6CB7D8"/>
<path d="M269.758 138.81C269.678 138.898 269.556 138.943 269.431 138.919C269.24 138.882 269.114 138.698 269.151 138.507C269.189 138.307 272.858 118.263 263.587 89.205C263.528 89.0197 263.63 88.8205 263.816 88.7622C264.001 88.7026 264.2 88.8054 264.259 88.9907C273.588 118.232 269.882 138.439 269.843 138.639C269.831 138.706 269.8 138.764 269.758 138.81Z" fill="#98CFF4"/>
<path d="M266.37 97.8239L261.681 94.0456C261.529 93.9238 261.506 93.7018 261.628 93.5501C261.75 93.4011 261.972 93.3747 262.123 93.497L266.18 96.7655L268.318 93.1829C268.419 93.0136 268.634 92.9609 268.801 93.0607C268.969 93.1605 269.023 93.3769 268.924 93.5441L266.37 97.8239Z" fill="#98CFF4"/>
<path d="M277.836 100.697C277.828 100.705 277.82 100.713 277.812 100.72L268.69 109.065L261.442 104.141C261.281 104.032 261.24 103.813 261.349 103.652C261.458 103.489 261.678 103.449 261.839 103.558L268.625 108.169L277.337 100.2C277.48 100.069 277.703 100.078 277.835 100.222C277.958 100.358 277.956 100.564 277.836 100.697Z" fill="#98CFF4"/>
<path d="M279.811 112.331C279.807 112.335 279.804 112.339 279.8 112.343L270.134 122.09L260.589 114.481C260.437 114.36 260.412 114.138 260.533 113.986C260.663 113.832 260.876 113.809 261.028 113.93L270.078 121.144L279.299 111.847C279.436 111.708 279.66 111.707 279.798 111.844C279.932 111.978 279.937 112.193 279.811 112.331Z" fill="#98CFF4"/>
<path d="M283.969 119.202C283.966 119.205 283.963 119.209 283.96 119.212L270.157 133.235L258.326 124.962C258.166 124.85 258.127 124.631 258.238 124.471C258.352 124.313 258.57 124.272 258.729 124.384L270.073 132.316L283.457 118.718C283.594 118.579 283.817 118.577 283.956 118.714C284.09 118.847 284.096 119.063 283.969 119.202Z" fill="#98CFF4"/>
<path d="M258.789 154.459C258.789 154.459 247.973 149.047 248.131 144.257C248.288 139.466 241.93 139.193 240.515 136.312C239.101 133.431 240.492 129.506 245.583 132.318C250.674 135.13 251.124 134.927 254.225 132.215C257.325 129.503 262.928 135.604 265.093 138.821C267.257 142.037 265.89 134.922 269.635 136.966C273.379 139.009 275.113 149.16 273.786 156.66C272.46 164.16 258.259 160.644 256.43 158.057C254.602 155.471 259.169 156.834 258.789 154.459Z" fill="#98CFF4"/>
<path d="M247.926 142.723C248.074 143.178 248.15 143.685 248.131 144.257C247.973 149.047 258.789 154.46 258.789 154.46C259.169 156.834 254.602 155.471 256.431 158.059C258.26 160.646 272.46 164.162 273.787 156.661C273.858 156.259 273.919 155.847 273.973 155.431C266.579 148.996 257.638 144.666 247.926 142.723Z" fill="#82C4E8"/>
<path d="M273.048 158.923C273.052 159.015 273.01 159.108 272.927 159.164C272.8 159.249 272.629 159.215 272.544 159.088C272.456 158.957 263.458 145.804 242.313 134.77C242.177 134.7 242.125 134.533 242.196 134.398C242.266 134.263 242.433 134.211 242.568 134.282C263.848 145.386 272.913 158.648 273.002 158.781C273.031 158.825 273.046 158.874 273.048 158.923Z" fill="#ACDAFF"/>
<path d="M248.603 138.025L243.919 138.508C243.768 138.524 243.632 138.414 243.616 138.262C243.602 138.112 243.711 137.976 243.862 137.96L247.915 137.542L247.13 134.376C247.093 134.226 247.184 134.078 247.331 134.042C247.479 134.005 247.628 134.095 247.665 134.243L248.603 138.025Z" fill="#ACDAFF"/>
<path d="M256.552 133.309C256.552 133.317 256.552 133.326 256.552 133.335L256.08 142.992L249.344 144.247C249.195 144.275 249.05 144.176 249.023 144.026C248.994 143.876 249.093 143.732 249.243 143.705L255.551 142.529L256.002 133.308C256.009 133.156 256.138 133.039 256.291 133.046C256.433 133.053 256.545 133.168 256.552 133.309Z" fill="#ACDAFF"/>
<path d="M264.055 138.682C264.055 138.686 264.055 138.691 264.055 138.695L264.053 149.43L254.563 150.459C254.411 150.475 254.275 150.366 254.259 150.215C254.246 150.057 254.352 149.927 254.503 149.911L263.501 148.935L263.503 138.695C263.503 138.543 263.627 138.419 263.779 138.419C263.927 138.419 264.048 138.536 264.055 138.682Z" fill="#ACDAFF"/>
<path d="M270.146 140.209C270.146 140.213 270.147 140.216 270.147 140.22L270.201 155.607L259.075 157.526C258.925 157.552 258.782 157.451 258.757 157.301C258.732 157.151 258.832 157.008 258.981 156.982L269.648 155.143L269.595 140.222C269.595 140.07 269.717 139.946 269.87 139.946C270.018 139.945 270.14 140.062 270.146 140.209Z" fill="#ACDAFF"/>
<path d="M287.01 147.469C287.01 147.469 296.265 135.078 293.337 129.695C290.408 124.311 297.518 120.351 297.481 116.246C297.444 112.142 293.602 108.455 289.398 114.59C285.194 120.724 284.562 120.75 279.462 119.43C274.363 118.111 271.461 128.298 270.833 133.215C270.205 138.133 267.685 129.218 264.578 133.701C261.471 138.185 265.314 150.781 271.134 158.591C276.953 166.401 291.164 154.235 291.77 150.229C292.376 146.223 287.939 150.401 287.01 147.469Z" fill="#ACDAFF"/>
<path d="M292.691 127.823C292.784 128.428 292.987 129.051 293.337 129.695C296.265 135.078 287.011 147.469 287.011 147.469C287.939 150.401 292.376 146.223 291.77 150.229C291.165 154.235 276.954 166.402 271.134 158.591C270.822 158.172 270.516 157.736 270.216 157.291C274.974 145.696 282.706 135.617 292.691 127.823Z" fill="#98CFF4"/>
<path d="M273.276 160.752C273.325 160.86 273.427 160.942 273.553 160.958C273.747 160.982 273.923 160.845 273.947 160.652C273.973 160.451 276.709 140.257 294.544 115.515C294.658 115.357 294.623 115.136 294.464 115.023C294.306 114.909 294.086 114.944 293.972 115.103C276.025 140.002 273.274 160.361 273.248 160.564C273.239 160.63 273.25 160.695 273.276 160.752Z" fill="#D2EDFF"/>
<path d="M289.222 122.844L294.852 120.708C295.034 120.639 295.125 120.435 295.056 120.253C294.986 120.074 294.783 119.98 294.602 120.049L289.73 121.897L288.81 117.827C288.767 117.635 288.578 117.518 288.389 117.561C288.198 117.603 288.079 117.793 288.122 117.982L289.222 122.844Z" fill="#D2EDFF"/>
<path d="M277.432 122.014C277.436 122.024 277.442 122.034 277.447 122.044L283.527 132.809L291.945 130.379C292.132 130.325 292.24 130.129 292.186 129.942C292.133 129.754 291.936 129.647 291.749 129.701L283.867 131.977L278.06 121.697C277.964 121.528 277.749 121.468 277.58 121.563C277.421 121.654 277.359 121.85 277.432 122.014Z" fill="#D2EDFF"/>
<path d="M271.941 132.461C271.943 132.466 271.945 132.471 271.948 132.475L278.11 144.742L289.546 140.473C289.728 140.404 289.821 140.201 289.753 140.019C289.678 139.832 289.482 139.744 289.299 139.812L278.457 143.86L272.578 132.158C272.491 131.984 272.278 131.914 272.105 132.002C271.935 132.087 271.864 132.29 271.941 132.461Z" fill="#D2EDFF"/>
<path d="M265.855 137.7C265.857 137.705 265.859 137.709 265.861 137.713L274.627 155.329L288.443 151.138C288.629 151.082 288.735 150.885 288.678 150.698C288.62 150.513 288.424 150.407 288.239 150.463L274.993 154.481L266.493 137.399C266.406 137.225 266.194 137.154 266.02 137.241C265.85 137.325 265.778 137.529 265.855 137.7Z" fill="#D2EDFF"/>
<path d="M256.42 159.66H283.667L278 186.634H260.433L256.42 159.66Z" fill="#CB9F2D"/>
<path d="M281.325 170.804H258.078L258.498 173.626H280.733L281.325 170.804Z" fill="#FCC63A"/>
<path d="M280.477 174.844H258.679L258.889 176.254H280.18L280.477 174.844Z" fill="#FCC63A"/>
<path d="M284.433 159.213H255.602V163.046H284.433V159.213Z" fill="#FCC63A"/>
</g>
<defs>
<clipPath id="clip0_5359_11950">
<rect width="432" height="216" fill="white"/>
</clipPath>
</defs>
</svg>
