<svg width="432" height="216" viewBox="0 0 432 216" fill="none" xmlns="http://www.w3.org/2000/svg">
<g clip-path="url(#clip0_5359_11487)">
<rect width="432" height="216" fill="#F4F6FE"/>
<path d="M270.147 74.8279C269.871 69.9415 261.765 69.7383 261.765 69.7383C261.765 69.7383 254.759 76.7081 253.178 76.5753C251.596 76.4423 258.004 69.4468 258.004 69.4468C255.079 68.5274 246.698 70.5796 246.698 70.5796C246.698 70.5796 245.185 80.118 243.685 79.5998C242.185 79.0818 245.455 71.2226 245.455 71.2226C242.383 71.479 238.974 74.2797 238.974 74.2797C234.443 79.0564 240.812 84.6261 240.812 84.6261C240.812 84.6261 240.217 87.9203 237.401 91.2485C237.401 91.2485 237.401 91.2485 237.401 91.2485C237.401 91.2485 236.798 91.8455 236.085 92.926L236.873 93.0924C236.982 92.8949 237.096 92.7056 237.216 92.5264C237.216 92.5248 237.217 92.5238 237.218 92.5232C237.22 92.5205 237.221 92.518 237.223 92.5153C237.303 92.405 237.417 92.2483 237.558 92.0577C237.558 92.0575 237.559 92.0573 237.559 92.0571C237.559 92.0565 237.559 92.0567 237.56 92.0561C237.9 91.636 238.136 91.3224 238.292 91.0928C238.292 91.0922 238.293 91.0914 238.293 91.0907C239.327 89.7644 240.772 88.0574 241.55 87.7996C241.55 87.7996 241.489 87.6586 241.458 87.4027C241.488 87.5293 241.518 87.6611 241.55 87.7996C242.289 90.9732 248.928 92.8784 252.847 92.9013C256.766 92.9242 255.352 91.5193 253.693 89.373C252.034 87.2267 247.7 86.785 246.591 85.8464C245.481 84.908 247.454 84.6205 249.917 85.3417C252.38 86.0631 253.103 88.8312 257.067 90.0707C261.031 91.3102 265.72 84.3539 265.72 84.3539C262.744 84.6306 258.061 82.0324 258.072 81.0287C258.083 80.0251 265.478 81.6875 266.695 81.6428C267.912 81.5982 270.422 79.7143 270.147 74.8279Z" fill="#DFEBFD"/>
<path opacity="0.5" d="M243.633 63.8216C243.633 63.8216 248.513 46.3129 259.296 37.0775C260.729 35.8501 262.915 37.109 262.588 38.9671C262.583 38.9981 262.577 39.0294 262.571 39.0611C261.962 42.2246 249.658 54.0685 243.633 63.8216Z" fill="#AFCDFB"/>
<path opacity="0.5" d="M241.734 68.7569C241.734 68.7569 254.281 47.8663 271.361 40.4045C272.402 39.9494 273.654 40.3655 274.147 41.3892C274.468 42.0559 274.509 43.0263 273.818 44.4252C271.973 48.1554 252.585 58.6804 241.734 68.7569Z" fill="#AFCDFB"/>
<path opacity="0.5" d="M239.755 157.141C239.755 157.141 258.799 147.598 262.245 150.922C265.691 154.246 239.755 157.141 239.755 157.141Z" fill="#AFCDFB"/>
<path opacity="0.5" d="M236.656 158.284C236.656 158.284 262.156 156.046 262.555 161.359C262.955 166.671 236.656 158.284 236.656 158.284Z" fill="#AFCDFB"/>
<path d="M148.774 46.0157C152.026 35.9896 169.02 40.0072 169.02 40.0072C169.02 40.0072 179.792 58.361 183.159 58.9507C186.525 59.5405 177.014 41.4607 177.014 41.4607C183.609 41.1479 199.94 50.0135 199.94 50.0135C199.94 50.0135 197.863 70.7072 201.271 70.4502C204.679 70.1932 202.176 52.0331 202.176 52.0331C208.434 54.2501 213.999 61.9505 213.999 61.9505C220.816 74.3807 204.5 82.4919 204.5 82.4919C204.5 82.4919 203.935 89.679 207.975 98.1533L207.976 98.1535C207.976 98.1535 208.904 99.7271 209.797 102.368L208.065 102.283C207.947 101.812 207.813 101.355 207.661 100.916C207.661 100.913 207.661 100.911 207.658 100.908C207.656 100.902 207.654 100.896 207.652 100.889C207.546 100.616 207.394 100.227 207.205 99.7525C207.205 99.752 207.204 99.7513 207.204 99.7508C207.204 99.7497 207.203 99.7496 207.203 99.7485C206.725 98.6871 206.405 97.9047 206.206 97.3413C206.205 97.3395 206.205 97.3378 206.205 97.3359C204.779 94.0077 202.703 89.6603 201.224 88.6972C201.224 88.6972 201.429 88.4371 201.633 87.9212C201.503 88.1686 201.367 88.4266 201.224 88.6972C197.948 94.9023 183.074 95.2331 174.9 93.1341C166.726 91.0351 170.44 88.8832 175.072 85.3222C179.704 81.7611 188.971 83.2149 191.796 81.8681C194.621 80.5215 190.671 78.8421 185.145 78.9952C179.62 79.1483 176.597 84.5171 167.663 84.9272C158.728 85.3372 152.774 68.2811 152.774 68.2811C158.821 70.4878 169.997 67.6413 170.525 65.5452C171.052 63.449 154.738 62.8603 152.229 62.1005C149.719 61.3407 145.523 56.0417 148.774 46.0157Z" fill="#DFEBFD"/>
<path d="M265.364 121.665C263.745 115.688 253.658 117.556 253.658 117.556C253.658 117.556 246.809 128.014 244.817 128.263C242.824 128.512 248.926 118.178 248.926 118.178C245.066 117.805 235.228 122.536 235.228 122.536C235.228 122.536 235.851 134.738 233.858 134.489C231.866 134.24 233.858 123.657 233.858 123.657C230.122 124.777 226.635 129.135 226.635 129.135C222.277 136.232 231.617 141.461 231.617 141.461C231.617 141.461 231.741 145.694 229.126 150.55L229.126 150.55C229.126 150.55 228.536 151.446 227.936 152.97H228.954C229.037 152.697 229.129 152.433 229.231 152.18C229.231 152.178 229.231 152.177 229.233 152.175C229.234 152.172 229.236 152.168 229.237 152.164C229.307 152.007 229.407 151.783 229.532 151.51C229.532 151.51 229.533 151.51 229.533 151.509C229.533 151.509 229.533 151.509 229.533 151.508C229.844 150.899 230.055 150.449 230.188 150.124C230.188 150.123 230.189 150.122 230.189 150.121C231.121 148.21 232.464 145.719 233.36 145.196C233.36 145.196 233.247 145.038 233.142 144.729C233.211 144.878 233.284 145.033 233.36 145.196C235.103 148.931 243.82 149.554 248.677 148.558C253.534 147.562 251.417 146.192 248.802 143.97C246.186 141.747 240.707 142.333 239.088 141.461C237.469 140.589 239.836 139.718 243.073 139.967C246.311 140.216 247.93 143.453 253.16 143.951C258.39 144.449 262.375 134.613 262.375 134.613C258.764 135.734 252.288 133.742 252.039 132.497C251.79 131.252 261.379 131.376 262.873 131.003C264.368 130.629 266.983 127.641 265.364 121.665Z" fill="#DFEBFD"/>
<path d="M160.827 114.674C164.413 107.88 176.116 112.886 176.116 112.886C176.116 112.886 181.561 127.41 183.905 128.254C186.25 129.098 181.676 114.927 181.676 114.927C186.451 115.525 197.073 123.93 197.073 123.93C197.073 123.93 192.998 138.532 195.478 138.772C197.958 139.013 198.426 125.659 198.426 125.659C202.644 128.032 205.679 134.256 205.679 134.256C209.024 144.034 196.293 147.823 196.293 147.823C196.293 147.823 194.99 152.914 196.835 159.504L196.835 159.504C196.835 159.504 197.305 160.75 197.617 162.758L196.384 162.481C196.357 162.128 196.318 161.784 196.264 161.449C196.265 161.447 196.264 161.445 196.263 161.443C196.262 161.438 196.261 161.433 196.261 161.429C196.219 161.219 196.158 160.921 196.082 160.556C196.081 160.556 196.081 160.556 196.081 160.555C196.081 160.554 196.081 160.554 196.081 160.553C195.87 159.731 195.738 159.129 195.665 158.7C195.665 158.699 195.665 158.697 195.665 158.696C195.057 156.128 194.109 152.747 193.166 151.871C193.166 151.871 193.346 151.709 193.557 151.364C193.433 151.526 193.303 151.694 193.166 151.871C190.039 155.918 179.316 154.3 173.708 151.773C168.1 149.245 171.035 148.163 174.806 146.184C178.577 144.205 185.051 146.405 187.248 145.79C189.445 145.176 186.818 143.477 182.83 142.897C178.843 142.318 176.002 145.796 169.535 144.976C163.067 144.156 160.92 131.164 160.92 131.164C164.987 133.503 173.369 132.853 174.009 131.414C174.65 129.974 163.007 127.516 161.3 126.657C159.593 125.798 157.24 121.469 160.827 114.674Z" fill="#CDE0FB"/>
<path d="M157.546 170.12C155.649 166.009 162.182 162.325 162.182 162.325C162.182 162.325 170.931 164.977 172.165 164.182C173.399 163.387 165.128 160.454 165.128 160.454C167.117 158.434 174.855 156.473 174.855 156.473C174.855 156.473 180.231 163.607 181.232 162.533C182.232 161.459 176.149 156.458 176.149 156.458C178.77 155.334 182.77 156.143 182.77 156.143C188.544 158.078 185.76 165.392 185.76 165.392C185.76 165.392 187.677 167.824 191.422 169.32C191.422 169.32 192.174 169.546 193.225 170.119L192.654 170.597C192.479 170.483 192.304 170.378 192.128 170.284C192.128 170.282 192.126 170.282 192.125 170.282C192.123 170.281 192.12 170.279 192.118 170.278C192.005 170.222 191.843 170.144 191.645 170.05C191.645 170.049 191.645 170.049 191.644 170.049C191.644 170.049 191.644 170.049 191.643 170.049C191.183 169.853 190.854 169.699 190.627 169.58C190.626 169.579 190.626 169.579 190.625 169.578C189.205 168.944 187.283 168.177 186.536 168.304C186.536 168.304 186.524 168.162 186.439 167.94C186.47 168.056 186.502 168.177 186.536 168.304C187.311 171.217 182.714 175.655 179.523 177.374C176.332 179.094 176.877 177.333 177.3 174.859C177.724 172.386 181.072 170.145 181.57 168.896C182.069 167.648 180.334 168.269 178.635 169.928C176.936 171.586 177.547 174.161 174.847 176.894C172.148 179.626 165.298 175.98 165.298 175.98C167.849 174.914 170.545 170.759 170.101 169.944C169.656 169.129 164.338 173.697 163.324 174.188C162.311 174.68 159.442 174.231 157.546 170.12Z" fill="#D9E8FA"/>
<path d="M136.994 144.652C136.994 144.652 139.148 144.9 140.816 144.8C142.901 144.675 145.472 144.623 145.95 145.178C146.426 145.734 146.426 145.734 145.5 146.222C144.779 146.603 141.997 147.829 140.118 147.248C138.239 146.667 135.84 146.785 135.84 146.785L136.994 144.652Z" fill="#FFB27D"/>
<path d="M113.996 124.136C113.996 124.136 118.01 144.012 122.787 145.53C125.145 146.278 135.449 147.68 138.474 147.703C138.474 147.703 139.176 147.06 138.852 144.634C138.852 144.634 127.948 141.352 126.305 139.312C123.86 136.276 126.935 126.278 123.926 123.469C120.918 120.66 116.074 119.664 113.996 124.136Z" fill="#7AA9E2"/>
<path d="M115.904 198.205H116.483C117.063 198.205 117.538 197.73 117.538 197.15V165.067C117.538 164.487 117.063 164.013 116.483 164.013H115.904C115.323 164.013 114.849 164.487 114.849 165.067V197.15C114.849 197.73 115.323 198.205 115.904 198.205Z" fill="#96C1ED"/>
<path d="M104.135 200.453C105.399 197.837 110.318 195.886 116.193 195.886C122.069 195.886 126.988 197.837 128.252 200.453H104.135Z" fill="#96C1ED"/>
<path d="M107.346 191.583H125.041C125.227 191.583 125.379 191.43 125.379 191.245V190.543C125.379 190.357 125.227 190.205 125.041 190.205H107.346C107.16 190.205 107.008 190.357 107.008 190.543V191.245C107.008 191.431 107.16 191.583 107.346 191.583Z" fill="#96C1ED"/>
<path d="M114.628 160.898C115.452 162.295 116.406 163.605 117.388 164.846C120.425 168.679 123.731 171.84 124.307 174.827C124.422 175.422 124.603 176.064 124.841 176.739C125.081 177.424 125.379 178.143 125.722 178.887C127.011 181.686 128.938 184.822 130.862 187.673C134.188 192.601 137.316 196.713 137.316 196.713L143.052 196.468C142.823 195.894 140.321 189.089 136.974 180.774C135.615 177.398 134.17 173.807 132.775 170.345C132.59 169.882 132.404 169.422 132.22 168.966C131.794 167.906 131.374 166.863 130.965 165.847C127.822 158.039 125.319 151.822 125.319 151.822C125.319 151.822 112.759 147.064 111.454 150.147C110.379 152.689 111.255 155.179 114.628 160.898Z" fill="#163560"/>
<path d="M137.495 195.67C137.495 195.67 137.789 200.403 138.704 200.47C138.826 200.479 143.349 200.479 143.349 200.479L149.123 200.446C149.123 200.446 149.085 199.055 147.398 198.761C145.71 198.467 142.885 197.281 141.862 195.051C140.787 192.705 137.495 195.67 137.495 195.67Z" fill="#163560"/>
<path d="M124.212 182.149C124.212 182.149 120.222 184.713 120.609 185.545C120.661 185.656 122.866 189.604 122.866 189.604L125.71 194.628C125.71 194.628 126.906 193.917 126.34 192.301C125.774 190.684 125.433 187.64 126.882 185.66C128.407 183.577 124.212 182.149 124.212 182.149Z" fill="#163560"/>
<path d="M129.831 149.704C129.831 149.704 146.832 161.914 148.689 165.75C150.139 168.747 127.036 187.789 127.036 187.789C127.036 187.789 123.671 184.456 123.231 182.843C123.231 182.843 131.19 171.409 137.495 167.697C139.373 166.592 114.986 163.893 112.346 159.787C109.706 155.682 111.161 150.245 111.161 150.245L129.831 149.704Z" fill="#1C468A"/>
<path d="M102.45 167.686H129.753C131.763 167.686 133.408 166.041 133.408 164.032V163.441C133.408 161.431 131.763 159.787 129.753 159.787H102.45C100.44 159.787 98.7949 161.431 98.7949 163.441V164.032C98.7949 166.041 100.44 167.686 102.45 167.686Z" fill="#EE9849"/>
<path d="M122.32 115.153C123.869 116.112 124.722 117.329 124.722 117.329C120.945 118.306 114.684 114.806 114.684 114.806C114.684 114.806 117.115 113.173 118.015 109.585C118.061 109.404 118.102 109.218 118.139 109.028C118.257 108.423 118.33 107.769 118.344 107.063L120.079 108.617L122.964 111.201C122.964 111.201 122.898 112.273 122.537 114.118C122.475 114.44 122.403 114.785 122.32 115.153Z" fill="#FFB27D"/>
<path d="M130.087 149.039C130.079 149.077 130.067 149.116 130.054 149.156C129.69 150.177 124.192 153.642 120.48 155.018C118.162 155.877 110.121 157.797 109.593 156.144C108.979 154.227 111.226 140.257 110.684 132.982C110.046 124.089 112.509 115.994 115.933 113.352C116.192 113.162 116.704 113.667 118.187 114.371C119.557 115.02 121.071 115.205 122.352 114.925L123.5 115.911C125.089 117.337 126.832 119.286 127.623 122.272C128.107 124.104 128.472 127.003 128.744 130.261C128.848 131.524 128.94 132.842 129.018 134.172C129.14 136.29 129.247 138.427 129.298 140.459C129.3 140.497 129.302 140.536 129.302 140.576L129.304 140.649C129.325 140.855 129.329 141.078 129.33 141.283C129.337 141.488 129.342 141.694 129.347 141.896C129.384 143.485 129.382 144.962 129.437 146.238C129.465 146.879 129.594 147.337 129.731 147.703C129.871 148.075 130.019 148.348 130.081 148.61C130.112 148.75 130.121 148.89 130.087 149.039Z" fill="#B0D4FF"/>
<path d="M122.964 111.201C122.964 111.201 122.899 112.273 122.538 114.118C119.721 113.207 118.443 110.663 118.016 109.584C117.894 109.279 117.842 109.091 117.842 109.091C117.842 109.091 117.951 109.067 118.14 109.027C118.536 108.943 119.281 108.785 120.079 108.616L122.964 111.201Z" fill="#ED975D"/>
<path d="M123.824 112.11C123.824 112.11 117.598 111.952 117.756 108.076C117.914 104.201 117.217 101.571 121.199 101.508C125.182 101.445 125.893 102.955 126.155 104.262C126.417 105.568 125.448 112.051 123.824 112.11Z" fill="#FFB27D"/>
<path d="M125.343 108.068C125.305 108.206 125.155 108.287 125.008 108.251C124.861 108.215 124.772 108.075 124.81 107.937C124.848 107.8 124.998 107.718 125.145 107.754C125.292 107.79 125.38 107.931 125.343 108.068Z" fill="#263238"/>
<path d="M125.629 107.171C125.586 107.204 125.388 107.006 125.07 106.958C124.753 106.905 124.495 107.029 124.466 106.986C124.452 106.966 124.5 106.904 124.612 106.847C124.724 106.79 124.905 106.746 125.103 106.777C125.301 106.809 125.456 106.906 125.54 106.994C125.627 107.084 125.649 107.157 125.629 107.171Z" fill="#263238"/>
<path d="M123.102 107.656C123.064 107.794 122.914 107.876 122.767 107.84C122.62 107.803 122.532 107.663 122.57 107.526C122.608 107.388 122.758 107.306 122.904 107.342C123.052 107.378 123.14 107.519 123.102 107.656Z" fill="#263238"/>
<path d="M123.22 106.777C123.177 106.809 122.978 106.611 122.66 106.563C122.344 106.51 122.085 106.635 122.057 106.591C122.042 106.572 122.09 106.509 122.203 106.452C122.314 106.395 122.496 106.351 122.694 106.383C122.891 106.414 123.047 106.512 123.131 106.6C123.218 106.689 123.24 106.763 123.22 106.777Z" fill="#263238"/>
<path d="M124.017 109.274C124.018 109.256 124.221 109.253 124.547 109.262C124.63 109.267 124.709 109.263 124.731 109.21C124.759 109.156 124.738 109.064 124.713 108.965C124.667 108.76 124.618 108.545 124.567 108.32C124.367 107.403 124.235 106.654 124.272 106.647C124.31 106.639 124.503 107.377 124.703 108.294C124.75 108.52 124.796 108.735 124.838 108.941C124.855 109.037 124.892 109.148 124.832 109.261C124.801 109.317 124.735 109.351 124.681 109.357C124.627 109.364 124.581 109.358 124.54 109.354C124.216 109.322 124.016 109.292 124.017 109.274Z" fill="#263238"/>
<path d="M123.169 109.35C123.215 109.361 123.114 109.658 123.303 109.947C123.492 110.235 123.83 110.298 123.818 110.34C123.816 110.36 123.726 110.377 123.586 110.34C123.45 110.304 123.267 110.204 123.151 110.028C123.035 109.851 123.026 109.659 123.057 109.533C123.089 109.406 123.148 109.342 123.169 109.35Z" fill="#263238"/>
<path d="M123.412 105.711C123.361 105.785 123.117 105.667 122.803 105.618C122.49 105.561 122.215 105.591 122.198 105.505C122.191 105.464 122.257 105.4 122.379 105.35C122.501 105.301 122.679 105.273 122.867 105.304C123.055 105.336 123.211 105.421 123.304 105.507C123.399 105.593 123.435 105.675 123.412 105.711Z" fill="#263238"/>
<path d="M125.784 106.098C125.717 106.16 125.51 106.052 125.247 106.008C124.986 105.955 124.754 105.98 124.714 105.898C124.697 105.859 124.743 105.793 124.851 105.741C124.957 105.689 125.126 105.659 125.306 105.692C125.486 105.726 125.633 105.815 125.713 105.901C125.795 105.989 125.814 106.067 125.784 106.098Z" fill="#263238"/>
<path d="M146.112 145.465L146.653 145.641L151.263 131.457L150.721 131.281L146.112 145.465Z" fill="#1C468A"/>
<path d="M131.009 145.303L146.659 145.638L146.679 144.702L131.029 144.367L131.009 145.303Z" fill="#1C468A"/>
<path d="M116.982 100.873C116.942 100.808 116.837 100.742 116.587 100.684C116.587 100.684 116.811 100.593 117.082 100.635C117.197 100.293 117.494 99.7055 118.124 99.6616C118.124 99.6616 117.769 99.777 117.661 100.142C118.487 99.5482 120.079 99.2913 124.17 100.354C129.562 101.756 127.139 104.937 126.357 105.229C125.575 105.52 123.995 104.06 122.658 103.931C121.32 103.802 120.731 105.663 120.237 105.845C119.744 106.027 120.002 105.596 119.445 105.215C118.888 104.834 118.652 105.827 118.711 106.51C118.77 107.193 117.786 107.906 117.786 107.906C117.786 107.906 117.786 107.906 117.106 106.852C116.426 105.798 116.314 101.823 116.841 101.074C116.888 101.007 116.934 100.94 116.982 100.873Z" fill="#2C3A64"/>
<path d="M129.73 147.702C128.218 147.457 124.484 146.71 121.773 145.013C116.879 141.95 113.995 126.407 113.995 126.407L121.661 136.222L129.336 141.839L129.346 141.895C129.383 143.485 129.381 144.962 129.436 146.238C129.465 146.879 129.593 147.337 129.73 147.702Z" fill="#91B8EF"/>
<path d="M137.016 140.497C137.016 140.497 137.56 140.678 138.194 140.497C138.828 140.316 141.002 139.772 141.365 139.953C141.727 140.134 142.859 141.04 143.131 141.221C143.403 141.402 143.811 142.172 143.811 142.172C143.56 142.355 142.884 141.734 142.544 141.688C142.204 141.643 139.485 142.603 138.737 142.512C137.99 142.421 136.857 142.082 136.857 142.082L137.016 140.497Z" fill="#FFB27D"/>
<path d="M141.526 141.339C141.526 141.381 142.269 142.539 143.012 142.33L142.376 141.459L141.526 141.339Z" fill="#FFB27D"/>
<path d="M138.193 140.497C138.193 140.497 139.129 139.876 139.457 139.557C139.457 139.557 139.607 139.658 139.592 139.796C139.566 140.027 139.274 140.411 139.274 140.411L138.193 140.497Z" fill="#FFB27D"/>
<path d="M121.783 118.662C117.754 115.216 111.707 119.117 113.157 124.216C114.839 130.128 118.084 139.881 121.423 140.828C123.802 141.504 134.145 142.585 137.169 142.514C137.169 142.514 137.73 142.728 137.33 140.313C137.33 140.313 125.989 136.81 124.746 134.505C124.079 133.27 124.97 121.457 121.876 118.743C121.845 118.716 121.814 118.689 121.783 118.662Z" fill="#B0D4FF"/>
<path d="M294.802 111.488C294.802 111.488 302.616 119.588 302.985 122.636C303.354 125.685 299.242 130.444 299.242 130.444L294.802 111.488Z" fill="#ED7D2B"/>
<path d="M291.271 195.434C291.271 195.434 290.996 199.731 290.164 199.791C290.053 199.799 285.947 199.79 285.947 199.79L280.704 199.748C280.704 199.748 280.741 198.485 282.274 198.221C283.807 197.958 286.374 196.887 287.307 194.864C288.288 192.735 291.271 195.434 291.271 195.434Z" fill="#163560"/>
<path d="M302.948 195.46C302.948 195.46 302.672 199.756 301.841 199.816C301.73 199.824 297.623 199.815 297.623 199.815L292.381 199.773C292.381 199.773 292.418 198.511 293.951 198.247C295.484 197.983 298.051 196.912 298.984 194.889C299.965 192.761 302.948 195.46 302.948 195.46Z" fill="#163560"/>
<path d="M285.565 149.24C285.565 149.24 286.917 158.01 291.999 173.585C297.079 189.16 297.762 195.902 297.762 195.902L303.249 195.76C303.249 195.76 303.333 178.75 300.993 170.919C298.653 163.087 300.545 142.702 300.545 142.702L285.565 149.24Z" fill="#163560"/>
<path d="M282.908 143.144C282.908 143.144 282.685 156.356 284.937 172.583C287.188 188.81 286.398 195.694 286.398 195.694L291.874 195.888C291.874 195.888 295.181 179.667 294.261 171.546C293.34 163.424 298.802 143.693 298.802 143.693L282.908 143.144Z" fill="#1C468A"/>
<path d="M293.577 112.249L290.655 114.155L286.44 113.36C286.499 113.02 286.781 111.61 287.037 110.333C287.053 110.258 287.068 110.182 287.083 110.109C287.302 109.022 287.492 108.089 287.492 108.089L291.434 106.36L292.903 105.715C292.9 105.738 292.787 106.921 292.771 107.094C292.489 110.162 293.577 112.249 293.577 112.249Z" fill="#FFB27D"/>
<path d="M287.524 111.27C287.606 111.236 292.605 109.773 293.147 109.953C293.689 110.134 294.009 111.184 294.009 111.184L285.833 113.014C285.833 113.014 286.479 111.708 287.524 111.27Z" fill="#ED7D2B"/>
<path d="M300.904 144.814C300.049 148.675 285.954 149.102 282.329 145.588C281.917 145.188 281.901 143.329 282.062 140.822C282.377 135.925 283.372 128.559 283.418 124.795C283.441 122.977 283.695 121.119 284.031 119.431C284.747 115.835 285.833 113.013 285.833 113.013C285.833 113.013 292.721 110.803 294.009 111.184C300.21 113.021 301.759 140.954 300.904 144.814Z" fill="#F99746"/>
<path d="M282.062 140.822C282.378 135.925 283.373 128.559 283.419 124.795C283.442 122.977 283.695 121.119 284.032 119.431L288.174 118.709C288.174 118.709 292.187 135.251 282.062 140.822Z" fill="#ED7D2B"/>
<path d="M284.32 134C284.32 134 284.601 134.675 284.007 135.126C283.413 135.578 283.027 136.311 283.162 136.848C283.296 137.384 284.595 138.262 285.045 138.122C285.497 137.981 286.415 137.277 286.317 136.994C286.219 136.711 286.94 134.513 285.843 133.664C284.746 132.815 284.32 134 284.32 134Z" fill="#FFB27D"/>
<path d="M288.997 112.029C288.997 112.029 284.957 112.776 281.729 117.51C278.501 122.244 276.376 125.765 276.965 127.475C277.554 129.185 282.945 135.123 283.876 135.125C284.808 135.127 286.312 134.453 286.4 132.929C286.4 132.929 282.609 127.221 283.36 126.369C283.681 126.004 288.307 122.266 288.963 123.96C290.048 126.765 288.997 112.029 288.997 112.029Z" fill="#F99746"/>
<path d="M292.475 107.148C291.607 108.61 288.381 109.87 287.036 110.333C287.051 110.257 287.067 110.182 287.082 110.108C287.301 109.022 287.491 108.088 287.491 108.088L291.433 106.36C292.303 106.35 292.833 106.546 292.475 107.148Z" fill="#FCA56B"/>
<path d="M286.007 107.846C286.007 107.846 292.347 109.838 293.527 105.872C294.707 101.906 296.32 99.4915 292.322 98.0517C288.325 96.6119 287.084 97.8904 286.368 99.1185C285.652 100.347 284.389 107.225 286.007 107.846Z" fill="#FFB27D"/>
<path d="M286.618 98.7368C286.618 98.7368 287.013 103.356 287.969 103.158C288.924 102.959 289.791 102.813 289.648 104.204C289.505 105.596 288.177 107.201 291.121 107.454C294.064 107.706 298.313 100.124 297.508 98.6854C295.183 94.5332 283.257 93.6704 286.618 98.7368Z" fill="#163560"/>
<path d="M218.83 127.086C218.713 127.252 218.214 128.048 218.854 128.946C218.896 129.002 218.923 129.048 218.94 129.087C226.608 133.694 249.609 152.329 249.609 165.464V192.675H180.192V165.453C180.192 152.235 203.507 133.303 211.006 128.946C211.008 128.946 211.008 128.946 211.008 128.946C211.249 128.61 211.328 128.287 211.328 128.007C211.328 127.447 211.008 127.054 211.008 127.054C203.49 122.6 180.193 103.808 180.193 90.5892V63.3788H249.609V90.6C249.609 103.797 226.371 122.69 218.83 127.086Z" fill="#B0D4FF"/>
<path d="M253.59 199.684H175.657V196.33C175.657 194.312 177.294 192.675 179.313 192.675H250.085C252.021 192.675 253.59 194.244 253.59 196.18V199.684Z" fill="#F99746"/>
<path d="M200.062 167.137C199.707 173.228 200.865 186.365 200.76 192.675H180.191V165.454C180.191 152.235 203.506 133.303 211.005 128.946C211.007 128.946 211.007 128.946 211.007 128.946C211.248 128.61 211.327 128.287 211.327 128.007C211.327 127.447 211.007 127.054 211.007 127.054C203.489 122.6 180.192 103.808 180.192 90.5894V63.3788H193.952L203.774 66.0663V87.5852C203.774 87.5852 202.801 93.7836 205.237 99.871C207.672 105.958 212.901 125.49 212.82 128.027C212.74 130.564 200.671 156.697 200.062 167.137Z" fill="#A4C8FC"/>
<path d="M240.614 81.4675C236.405 81.5311 229.17 82.2896 217.466 85.2416C209.453 87.2625 195.635 85.7405 188.328 84.6937C185.764 84.3265 183.471 86.3139 183.471 88.9031V92.0391C183.471 100.68 206.726 119.4 212.876 124.199C213.808 124.926 214.353 126.041 214.353 127.223V175.278C214.353 176.918 213.543 178.447 212.199 179.387C207.362 182.772 199.213 192.675 199.213 192.675H230.034C230.034 192.675 221.769 183.118 217.13 179.57C216.071 178.76 215.447 177.507 215.447 176.174V127.209C215.447 126.034 215.981 124.923 216.898 124.189C222.927 119.361 245.675 100.573 245.675 91.9377V86.4513C245.675 83.6683 243.397 81.4254 240.614 81.4675Z" fill="#739AF0"/>
<path d="M249.955 66.0657H179.162C177.227 66.0657 175.657 64.4967 175.657 62.5613V59.0566H253.59V62.4311C253.59 64.4385 251.963 66.0657 249.955 66.0657Z" fill="#F99746"/>
<path d="M117.188 78.1655L135.449 80.77L123.33 72.5118L122.714 75.1592L118.273 75.9633L117.188 78.1655Z" fill="#9EC3F6"/>
<path d="M135.448 80.77L120.252 72.9367L105.358 72.1876L135.448 80.77Z" fill="#CDE0FB"/>
<path d="M123.33 72.5117L135.448 80.7698L126.067 67.8634L123.33 72.5117Z" fill="#CDE0FB"/>
<path d="M209.821 55.7149C208.195 58.5434 206.151 59.6351 206.151 59.6351H197.646C197.646 59.6351 211.061 53.557 209.821 55.7149Z" fill="#233862"/>
<path d="M203.288 77.5994C203.067 77.8534 203.039 78.1371 203.148 78.4402C203.148 78.4414 203.149 78.4432 203.15 78.4444C203.353 79.0049 204.024 79.6308 204.802 80.2558C204.901 80.3361 204.99 80.4091 205.067 80.4768C205.087 80.4946 205.108 80.5123 205.127 80.5301C205.142 80.544 205.157 80.5582 205.172 80.5714C205.898 81.2404 205.625 81.3938 206.929 82.7513C208.416 84.2984 209.44 84.3262 209.732 84.1854C209.978 84.0652 209.477 83.2448 208.923 82.3225C208.896 82.278 208.869 82.233 208.842 82.1881C208.768 82.0655 208.695 81.941 208.621 81.8178C207.971 80.7079 208.138 80.1871 208.292 78.5355C208.417 77.1932 210.381 71.0369 210.381 71.0369L207.531 70.546C207.531 70.546 206.673 75.4484 205.727 76.2033C205.221 76.6056 204.656 76.6108 204.17 76.9091C204.135 76.9298 204.102 76.9511 204.069 76.9729C203.792 77.1558 203.511 77.3448 203.288 77.5994Z" fill="#FFB27D"/>
<path d="M203.288 77.5994C203.067 77.8534 203.039 78.1371 203.148 78.4402C203.148 78.4414 203.149 78.4432 203.15 78.4444C203.399 79.0043 204.052 79.6271 204.805 80.2501C204.903 80.3317 204.99 80.4066 205.067 80.4768C205.087 80.4946 205.108 80.5123 205.127 80.5301C205.142 80.544 205.157 80.5582 205.172 80.5714C205.898 81.2404 205.625 81.3938 206.929 82.7513C208.416 84.2984 209.44 84.3262 209.732 84.1854C209.978 84.0652 209.477 83.2448 208.923 82.3225C208.633 82.2165 207.289 81.6703 206.272 80.3696C205.376 79.2271 204.779 77.7593 204.169 76.9091C204.135 76.9298 204.101 76.9511 204.068 76.9729C203.792 77.1558 203.511 77.3448 203.288 77.5994Z" fill="#233862"/>
<path d="M226.268 75.8198C226.444 76.6992 227.698 76.5526 229.099 76.2103C230.5 75.8679 230.167 76.2748 232.161 76.0541C234.155 75.8335 234.759 75.0902 234.82 74.7939C234.874 74.5308 233.889 74.4381 232.832 74.3163C232.699 74.3014 232.566 74.2851 232.432 74.2686C231.239 74.119 230.366 73.3492 229.282 72.717C228.255 72.1182 226.723 69.6786 226.723 69.6786L223.989 69.8951C223.989 69.8951 225.424 72.0741 225.979 73.0215C226.305 73.5787 226.288 74.3155 226.247 74.8845C226.226 75.1938 226.206 75.5101 226.268 75.8198Z" fill="#FFB27D"/>
<path d="M229.099 76.2104C230.5 75.8681 230.167 76.275 232.161 76.0543C234.155 75.8337 234.759 75.0903 234.82 74.7941C234.874 74.5309 233.889 74.4383 232.832 74.3165L232.822 74.3369C232.822 74.3369 231.627 75.1846 229.967 75.2242C228.614 75.2571 227.181 74.8695 226.247 74.8847C226.226 75.194 226.206 75.5101 226.268 75.8199C226.444 76.6994 227.698 76.5528 229.099 76.2104Z" fill="#233862"/>
<path d="M215.79 58.3391L213.234 65.216L209.897 74.1952C209.897 74.1952 208.991 74.2826 208.124 74.0332C207.325 73.8024 206.409 73.1987 206.409 73.1987C206.409 73.1987 207.336 63.5576 209.064 58.0233C209.507 56.6027 210.004 55.4537 210.552 54.8068C213.231 51.6406 215.79 58.3391 215.79 58.3391Z" fill="#233862"/>
<path d="M213.191 47.4178C211.516 46.8777 206.74 47.5712 201.942 48.5101L200.938 46.8535L190.575 46.0443C190.575 46.0443 187.155 53.6264 189.027 58.4575C189.302 59.1676 189.983 59.4671 190.915 59.4821C190.916 59.4825 190.916 59.4829 190.916 59.4834C190.916 59.4834 197.1 59.6343 199.103 59.6343C204.257 59.6343 210.01 56.0923 210.754 55.9435C211.973 55.6999 212.46 58.136 213.678 60.6937C214.896 63.2515 225.129 72.0209 225.129 72.0209C225.129 72.0209 226.702 72.0365 227.352 71.7929C228.05 71.531 228.306 71.1906 228.306 71.1906C228.306 71.1906 216.967 48.6358 213.191 47.4178Z" fill="#2B478B"/>
<path d="M199.837 16.4278C199.06 15.9654 198.303 15.8984 197.844 15.9132C197.513 15.9239 197.182 15.8923 196.854 15.8483C192.927 15.3207 190.564 21.0259 190.425 22.7545C190.168 25.9408 188.483 26.4266 186.109 28.4222C181.351 32.4235 182.747 37.073 185.348 38.8006C186.909 39.8372 189.661 38.8004 189.661 38.8004C189.7 38.8277 197.186 34.6163 200.877 32.5846C206.409 31.7984 202.059 17.7507 199.837 16.4278Z" fill="#233862"/>
<path d="M197.784 30.8555C197.8 30.866 195.968 31.4913 194.743 30.9489C193.59 30.4397 192.718 28.5442 192.735 28.5431C193.259 28.5189 193.834 28.0606 194.278 25.0541L194.501 25.1342L198.254 26.4844C198.254 26.4844 197.982 27.6885 197.806 28.8348C197.658 29.7974 197.579 30.7194 197.784 30.8555Z" fill="#FFB27D"/>
<path d="M198.254 26.4843C198.254 26.4843 197.982 27.6884 197.806 28.8347C195.651 28.4467 194.805 26.2993 194.501 25.134L198.254 26.4843Z" fill="#ED975D"/>
<path d="M198.813 27.6793C198.813 27.6793 193.678 26.9902 194.156 23.7995C194.635 20.6089 194.294 18.3711 197.593 18.6761C200.892 18.9812 201.345 20.294 201.444 21.3977C201.544 22.5016 200.161 27.7763 198.813 27.6793Z" fill="#FFB27D"/>
<path d="M200.412 24.267C200.376 24.3983 200.233 24.4764 200.092 24.4419C199.952 24.4074 199.868 24.2732 199.904 24.1419C199.94 24.0105 200.083 23.9322 200.223 23.9667C200.364 24.0012 200.448 24.1356 200.412 24.267Z" fill="#263238"/>
<path d="M200.686 23.4148C200.646 23.4456 200.456 23.2568 200.152 23.2106C199.849 23.1602 199.603 23.2792 199.576 23.2374C199.562 23.2187 199.608 23.159 199.715 23.1046C199.821 23.0501 199.995 23.0081 200.184 23.0382C200.373 23.0685 200.521 23.1616 200.602 23.2458C200.684 23.331 200.706 23.4012 200.686 23.4148Z" fill="#263238"/>
<path d="M197.58 23.8439C197.544 23.9752 197.401 24.0533 197.26 24.0188C197.12 23.9843 197.036 23.8501 197.072 23.7188C197.108 23.5875 197.251 23.5092 197.391 23.5436C197.532 23.5782 197.617 23.7125 197.58 23.8439Z" fill="#263238"/>
<path d="M197.693 23.0078C197.652 23.0386 197.462 22.8499 197.159 22.8037C196.856 22.7533 196.61 22.8723 196.582 22.8307C196.569 22.812 196.614 22.7522 196.722 22.6977C196.828 22.6432 197.001 22.6012 197.19 22.6313C197.379 22.6617 197.528 22.7548 197.609 22.839C197.691 22.9239 197.713 22.9943 197.693 23.0078Z" fill="#263238"/>
<path d="M198.454 25.393C198.456 25.3757 198.649 25.3731 198.961 25.3819C199.04 25.386 199.115 25.3823 199.136 25.3322C199.163 25.2799 199.143 25.1927 199.119 25.0982C199.075 24.9024 199.029 24.6971 198.98 24.482C198.788 23.6061 198.662 22.8905 198.698 22.8834C198.734 22.8764 198.918 23.5807 199.109 24.4568C199.154 24.6724 199.198 24.8781 199.239 25.0749C199.255 25.1661 199.29 25.2721 199.233 25.3803C199.204 25.434 199.14 25.4666 199.088 25.472C199.036 25.4791 198.993 25.4733 198.954 25.4695C198.644 25.4383 198.453 25.41 198.454 25.393Z" fill="#263238"/>
<path d="M197.645 25.466C197.69 25.4763 197.593 25.7605 197.774 26.0358C197.954 26.3116 198.277 26.3714 198.265 26.4119C198.263 26.4308 198.177 26.4465 198.044 26.4112C197.913 26.3775 197.739 26.2818 197.628 26.1134C197.518 25.9449 197.509 25.7607 197.539 25.6411C197.569 25.5192 197.625 25.4585 197.645 25.466Z" fill="#263238"/>
<path d="M197.876 21.9895C197.828 22.0606 197.595 21.9483 197.295 21.9012C196.996 21.8469 196.733 21.8751 196.717 21.793C196.71 21.754 196.773 21.6926 196.89 21.6452C197.006 21.5978 197.177 21.5711 197.356 21.6012C197.536 21.6318 197.684 21.7126 197.774 21.7949C197.864 21.8774 197.898 21.9554 197.876 21.9895Z" fill="#263238"/>
<path d="M200.834 22.3892C200.77 22.4487 200.572 22.346 200.321 22.3037C200.072 22.2527 199.85 22.2774 199.811 22.1988C199.795 22.161 199.839 22.0983 199.942 22.0485C200.044 21.9988 200.205 21.9702 200.377 22.0021C200.549 22.0343 200.69 22.119 200.766 22.2019C200.844 22.2852 200.863 22.3597 200.834 22.3892Z" fill="#263238"/>
<path d="M201.257 19.649C201.257 19.649 197.97 22.4812 195.734 22.7096C193.498 22.9379 192.651 22.2204 192.651 22.2204C192.651 22.2204 193.969 21.1263 194.762 19.3607C194.996 18.8402 195.49 18.4831 196.059 18.434C197.655 18.2964 200.682 18.2334 201.257 19.649Z" fill="#233862"/>
<path d="M199.202 19.3955C199.202 19.3955 200.302 20.4585 200.648 21.2471C200.982 22.0079 201.083 23.8279 200.816 24.5506C200.816 24.5506 202.53 21.2196 201.56 19.6012C200.531 17.8851 199.202 19.3955 199.202 19.3955Z" fill="#233862"/>
<path d="M202.108 38.4183C201.953 48.811 202.065 46.6394 200.928 47.6256C200.654 47.863 199.884 48.0045 198.87 48.0714C195.683 48.2829 190.08 47.758 189.867 47.1689C189.132 45.1313 189.651 44.4982 189.037 41.3783C188.974 41.0465 188.894 40.6875 188.802 40.2963C188.29 38.1535 187.792 37.4245 189.607 33.9822C191.252 30.864 192.962 28.3331 193.115 28.4244C197.456 31.0009 197.807 28.8353 197.807 28.8353C197.807 28.8353 202.184 33.3491 202.108 38.4183Z" fill="white"/>
<path d="M213.234 65.2162L209.897 74.1953C209.897 74.1953 208.991 74.2827 208.124 74.0333C207.325 73.8025 206.409 73.1988 206.409 73.1988C206.409 73.1988 207.336 63.5577 209.064 58.0234L213.234 65.2162Z" fill="#2B478B"/>
<path d="M197.807 28.8348C197.807 28.8348 202.274 29.592 202.798 31.5149C203.323 33.4379 206.409 44.742 206.409 44.742C206.409 44.742 204.138 45.1499 203.089 44.101C202.04 43.0522 199.439 34.3702 199.439 34.3702L197.807 28.8348Z" fill="white"/>
<path d="M198.87 48.0717C195.683 48.2832 190.08 47.7583 189.867 47.1692C189.131 45.1316 189.651 44.4984 189.037 41.3786L190.575 37.0504C190.575 37.0504 190.32 41.8701 191.742 43.1378C193.162 44.4055 197.563 45.5849 198.254 46.6442C198.587 47.1526 198.806 47.6623 198.87 48.0717Z" fill="#EBF3FF"/>
<path d="M195.218 46.0444C195.218 46.0444 198.362 45.3445 198.87 45.6234C199.377 45.9024 200.617 46.9185 200.772 47.272C200.928 47.6257 199.643 47.0036 199.225 46.8917C198.954 46.8191 198.242 47.0665 197.889 47.1841C196.405 47.6786 195.496 47.4243 195.496 47.4243L195.218 46.0444Z" fill="#FFB27D"/>
<path d="M193.112 28.4224C193.112 28.4224 188.89 28.6824 187.428 30.7206C185.371 33.5898 181.289 45.8176 183.628 47.4484C186.263 49.285 195.618 47.9289 195.618 47.9289C195.618 47.9289 195.929 46.4739 195.496 45.7702C195.063 45.0664 188.024 43.9296 187.699 43.605C187.374 43.2801 191.76 37.2711 191.76 36.2967C191.76 35.3222 193.112 28.4224 193.112 28.4224Z" fill="white"/>
<path d="M199.022 46.4988C199.022 46.4988 199.681 47.3484 199.897 47.45C200.113 47.5514 200.253 47.5261 200.253 47.5261L199.809 46.7272L199.022 46.4988Z" fill="#FFB27D"/>
<path d="M198.87 45.6237L200.786 46.5537C200.786 46.5537 200.704 46.6871 200.468 46.6763C200.233 46.6655 199.638 46.448 199.638 46.448L198.87 45.6237Z" fill="#FFB27D"/>
<path d="M199.896 48.7512H215.049L219.608 37.4182H204.478L199.896 48.7512Z" fill="#F99746"/>
<path d="M215.227 48.3097H195.218V48.7512H215.05L215.227 48.3097Z" fill="#ED7D2B"/>
<path d="M211.224 43.0848C211.338 42.6864 211.108 42.3634 210.71 42.3634C210.311 42.3634 209.896 42.6864 209.781 43.0848C209.667 43.4831 209.897 43.806 210.296 43.806C210.694 43.806 211.11 43.4831 211.224 43.0848Z" fill="white"/>
<path d="M309.865 56.3327L313.119 66.7847C313.167 66.9387 313.185 67.0955 313.178 67.2475C313.154 67.8015 312.787 68.3064 312.228 68.4805L294.072 74.1301C293.51 74.3051 292.919 74.0935 292.586 73.6474C292.496 73.5272 292.425 73.39 292.378 73.2389L289.125 62.7913C288.903 62.0763 289.301 61.3181 290.015 61.0959L308.17 55.4463C308.882 55.2248 309.64 55.6202 309.865 56.3327Z" fill="#CDE0FB"/>
<path d="M313.178 67.2477C313.154 67.8017 312.787 68.3066 312.228 68.4806L294.072 74.1303C293.51 74.3053 292.919 74.0937 292.586 73.6476L301.699 64.9545L313.178 67.2477Z" fill="#BED7FB"/>
<path d="M309.865 56.3327L301.917 66.6795L289.292 63.326L289.125 62.7912C288.903 62.0762 289.301 61.318 290.015 61.0959L308.17 55.4462C308.882 55.2249 309.64 55.6203 309.865 56.3327Z" fill="#DFEBFD"/>
<path d="M246.356 18.031L244.077 26.7622C244.043 26.8909 243.988 27.0087 243.917 27.112C243.659 27.4894 243.182 27.6825 242.714 27.5606L227.548 23.6031C227.079 23.4805 226.758 23.0752 226.719 22.6178C226.708 22.4946 226.718 22.3675 226.751 22.2412L229.029 13.5137C229.185 12.9165 229.794 12.5594 230.391 12.715L245.557 16.6725C246.152 16.8276 246.509 17.4344 246.356 18.031Z" fill="#CDE0FB"/>
<path d="M243.917 27.1122C243.659 27.4896 243.182 27.6828 242.714 27.5608L227.548 23.6033C227.078 23.4807 226.758 23.0755 226.719 22.618L236.884 20.506L243.917 27.1122Z" fill="#BED7FB"/>
<path d="M246.356 18.0312L236.285 21.8079L228.912 13.9604L229.029 13.5137C229.185 12.9165 229.794 12.5594 230.39 12.715L245.556 16.6725C246.151 16.8277 246.509 17.4345 246.356 18.0312Z" fill="#DFEBFD"/>
<path d="M366.713 200.503H58.9296C58.7374 200.503 58.5801 200.345 58.5801 200.153V200.034C58.5801 199.842 58.7374 199.685 58.9296 199.685H366.713C366.905 199.685 367.063 199.842 367.063 200.034V200.153C367.063 200.345 366.906 200.503 366.713 200.503Z" fill="#2E3552"/>
</g>
<defs>
<clipPath id="clip0_5359_11487">
<rect width="432" height="216" fill="white"/>
</clipPath>
</defs>
</svg>
