<svg width="466" height="232" viewBox="0 0 466 232" fill="none" xmlns="http://www.w3.org/2000/svg">
<path d="M325.527 106.164C325.527 106.164 318.091 96.2906 325.988 90.8083C325.988 90.8083 331.693 87.8185 336.158 88.3695C336.158 88.3695 329.142 98.6403 331.131 99.8296C333.119 101.019 338.125 87.8207 338.125 87.8207C338.125 87.8207 350.711 87.388 354.615 89.5777C354.615 89.5777 343.374 97.6746 345.594 98.3373C347.814 99 359.901 91.1185 359.901 91.1185C359.901 91.1185 371.421 93.8314 370.357 100.907C369.292 107.982 365.144 109.928 363.392 109.629C361.64 109.329 351.572 104.74 351.257 106.173C350.942 107.606 356.856 112.724 361.19 113.217C361.19 113.217 352.416 121.771 347.123 118.813C341.831 115.855 341.624 111.678 338.32 109.909C335.016 108.141 332.113 107.963 333.418 109.638C334.723 111.312 340.782 113.239 342.512 116.807C344.242 120.374 345.842 122.807 340.25 121.603C334.659 120.399 325.742 115.689 325.634 110.927C325.527 106.165 325.527 106.164 325.527 106.164Z" fill="#82B378"/>
<path d="M364.624 100.741C364.624 100.741 333.076 97.5427 325.527 106.165C325.527 106.165 323.694 110.701 318.678 114.623L317.812 116.599C317.812 116.599 323.652 111.154 325.635 110.927C325.635 110.927 323.268 99.5121 364.624 100.741Z" fill="#82B378"/>
<path d="M318.678 114.623C318.678 114.623 311.576 119.227 310.545 128.181L311.77 128.369C311.77 128.369 314.517 119.215 318.662 115.827C322.807 112.44 318.678 114.623 318.678 114.623Z" fill="#82B378"/>
<path d="M289.043 82.5597C289.043 82.5597 272.555 73.3118 280.249 60.7608C280.249 60.7608 286.405 53.0541 293 51.0724C293 51.0724 289.482 69.7887 293 70.2291C296.517 70.6695 295.418 49.0908 295.418 49.0908C295.418 49.0908 312.785 40.7235 319.6 41.3841C319.6 41.3841 308.828 59.6599 312.345 59.2195C315.863 58.7791 327.954 40.283 327.954 40.283C327.954 40.283 345.761 36.9801 348.619 47.5493C351.477 58.1185 346.86 63.4031 344.222 64.0637C341.584 64.7243 324.656 64.5041 325.096 66.706C325.536 68.9079 336.967 72.4308 343.343 70.4491C343.343 70.4491 336.308 87.8443 327.075 86.9635C317.841 86.0829 314.984 80.3579 309.268 79.9175C303.552 79.477 299.375 81.0183 302.233 82.5597C305.091 84.1012 314.763 83.065 319.38 86.9961C323.997 90.9271 327.734 93.3493 319.161 95.1108C310.587 96.8723 295.198 95.7714 292.121 89.1656C289.043 82.5598 289.043 82.5597 289.043 82.5597Z" fill="#A8D29F"/>
<path d="M340.485 50.8525C340.485 50.8525 294.319 65.8255 289.043 82.5601C289.043 82.5601 289.263 90.0465 284.646 98.6341V101.937C284.646 101.937 289.483 90.7072 292.121 89.1659C292.121 89.1659 281.788 74.6332 340.485 50.8525Z" fill="#82B378"/>
<path d="M284.646 98.6337C284.646 98.6337 277.527 109.462 281.586 122.644L283.417 122.151C283.417 122.151 281.639 107.633 285.364 100.331C289.089 93.0282 284.646 98.6337 284.646 98.6337Z" fill="#82B378"/>
<path d="M202.096 87.2993C202.096 87.2993 221.283 79.166 214.37 64.4781C214.37 64.4781 208.557 55.2853 201.569 52.3132C201.569 52.3132 203.159 73.2505 199.251 73.306C195.343 73.3618 199.159 49.8478 199.159 49.8478C199.159 49.8478 181.139 38.5703 173.591 38.4671C173.591 38.4671 183.184 59.8024 179.383 58.8928C175.582 57.9833 164.569 36.2464 164.569 36.2464C164.569 36.2464 145.455 30.4655 141.044 41.7009C136.634 52.9365 141.053 59.2878 143.864 60.3319C146.676 61.3762 165.252 63.1895 164.504 65.5492C163.756 67.9088 150.802 70.3821 144.056 67.4364C144.056 67.4364 149.66 87.353 159.885 87.5086C170.11 87.6642 173.934 81.7373 180.251 81.9485C186.568 82.1596 190.959 84.3559 187.641 85.698C184.322 87.0401 173.848 84.7305 168.313 88.4779C162.778 92.2254 158.39 94.4261 167.572 97.3973C176.754 100.368 193.751 101.03 197.923 94.1646C202.096 87.2993 202.096 87.2993 202.096 87.2993Z" fill="#A8D29F"/>
<path d="M149.559 46.3081C149.559 46.3081 198.338 68.3203 202.096 87.2995C202.096 87.2995 200.949 95.4769 204.969 105.448L204.569 109.068C204.569 109.068 200.628 96.1743 197.924 94.165C197.924 94.165 211.005 79.4933 149.559 46.3081Z" fill="#82B378"/>
<path d="M204.969 105.447C204.969 105.447 211.46 118.179 205.418 132.131L203.47 131.369C203.47 131.369 207.175 115.674 203.977 107.22C200.778 98.7654 204.969 105.447 204.969 105.447Z" fill="#82B378"/>
<path d="M162.739 134.499C159.348 129.6 158.971 125.038 158.971 125.038C158.971 125.038 168.353 118.29 162.822 111.195C162.822 111.195 158.557 106.936 154.415 106.185C154.415 106.185 157.831 117.311 155.725 117.819C153.618 118.328 152.811 105.147 152.811 105.147C152.811 105.147 141.691 101.255 137.597 102.124C137.597 102.124 145.389 112.485 143.222 112.459C141.056 112.433 132.448 102.028 132.448 102.028C132.448 102.028 121.407 101.242 120.393 107.857C119.38 114.473 122.545 117.366 124.192 117.586C125.84 117.807 136.106 116.513 135.989 117.88C135.873 119.248 129.17 122.171 125.163 121.404C125.163 121.404 130.624 131.487 136.172 130.32C141.72 129.152 143.064 125.479 146.506 124.819C149.947 124.16 152.59 124.81 150.959 125.942C149.329 127.074 143.383 127.108 140.847 129.812C138.312 132.516 136.208 134.243 141.535 134.725C146.863 135.207 156.135 133.484 157.552 129.261C157.614 129.077 157.673 128.901 157.73 128.733C157.654 129.077 157.552 129.261 157.552 129.261C158.576 129.714 160.318 132.228 161.549 134.168C161.731 134.502 162.01 134.96 162.419 135.579C162.589 135.86 162.724 136.091 162.819 136.252C165.172 140.645 165.093 148.699 165.093 148.699L166.239 148.873C167.803 140.588 162.739 134.499 162.739 134.499Z" fill="#82B378"/>
<path d="M100.032 21.7192C99.9392 21.2115 98.7483 15.7709 90.3453 16.6989C90.3453 16.6989 94.5281 16.5923 95.5009 18.2994C95.5009 18.2994 92.377 16.4695 90.2015 17.5204C88.0258 18.5715 87.2665 22.7668 87.4437 24.0847C87.6209 25.4027 89.5023 29.4605 91.0016 29.6108C91.5694 29.6677 92.1954 29.5394 92.7545 29.3582C92.4567 30.0163 92.1757 30.7353 91.9224 31.5295C89.5801 38.8742 93.9922 45.078 96.7096 43.9268C98.4522 43.1883 99.4134 46.21 99.4134 46.21L114.945 29.3811C114.945 29.3811 106.539 16.9233 100.032 21.7192Z" fill="#2C3A64"/>
<path d="M120.266 224.41L116.489 225.819C116.489 225.819 100.081 203.027 98.0614 182.974C97.7004 179.394 97.8208 175.925 98.6011 172.722C98.6011 172.722 98.4408 171.804 98.1599 170.183C98.0303 169.426 97.87 168.514 97.6881 167.47C97.1546 164.409 96.4206 160.221 95.5816 155.451C93.6511 144.477 91.1501 130.447 89.207 120.133L90.2247 119.805L101.238 116.247L103.514 109.007L111.714 106.844C111.714 106.844 113.546 110.434 115.183 127.388C115.486 129.612 115.76 132.065 115.967 134.725C116.605 142.842 116.651 152.912 115.186 164.425C114.81 167.371 114.335 170.414 113.746 173.54C113.315 175.832 113.25 178.955 113.432 182.541C114.258 198.934 120.266 224.41 120.266 224.41Z" fill="#2B478B"/>
<path d="M115.967 134.725L98.1599 170.183C98.0303 169.426 97.87 168.515 97.6881 167.471C97.1546 164.41 96.4207 160.221 95.5816 155.452C93.6511 144.477 91.1501 130.447 89.207 120.133L90.2247 119.806L101.238 116.247L103.514 109.007L111.714 106.845C111.714 106.845 113.546 110.434 115.183 127.389C115.486 129.613 115.76 132.065 115.967 134.725Z" fill="#233862"/>
<path d="M108.133 111.395L107.721 107.854C100.815 109.692 82.3624 102.721 82.3624 102.721C82.3624 102.721 75.6721 108.611 76.5503 122.731C76.9791 129.623 77.7623 158.908 78.5801 167.574C78.876 170.715 79.1348 172.95 79.2405 173.843C79.2428 173.847 79.2428 173.849 79.2428 173.851C79.2751 174.123 79.1801 174.381 79.0419 174.619C77.8377 176.666 76.8406 178.797 76.0226 180.978C67.9942 202.406 77.2591 228.795 77.2591 228.795L79.6633 227.825C79.6633 227.825 84.9357 198.457 89.2197 185.483C89.9471 183.282 90.6441 181.553 91.2829 180.52C93.1454 177.508 94.874 172.589 96.443 166.737C99.4083 155.674 101.795 141.282 103.384 130.174C103.603 130.184 108.133 111.395 108.133 111.395Z" fill="#2B478B"/>
<path d="M119.268 83.0144C119.403 83.1537 119.535 83.2922 119.694 83.4212C125.596 88.9301 133.546 93.8013 137.799 94.8747C140.596 95.5917 146.764 94.6318 151.886 93.5762C155.299 92.9023 158.271 92.1567 159.497 91.8649C159.887 91.7734 160.105 91.7047 160.105 91.7047L159.57 88.2445C159.57 88.2445 156.501 88.0012 152.686 87.5699C147.373 86.9443 140.638 85.9842 138.913 84.9633C134.911 82.5814 127.889 72.5928 122.256 66.3124C121.961 65.9698 121.668 65.6411 121.378 65.3183C121.166 65.0822 120.953 64.851 120.744 64.6238C120.7 64.579 120.647 64.5047 120.577 64.4661C120.318 64.217 120.098 63.9851 119.885 63.7818C119.877 63.7562 119.84 63.738 119.804 63.7168C118.803 62.7096 117.047 61.487 117.047 61.487C116.063 60.9251 115.252 60.8163 114.682 61.2957C114.682 61.2957 113.945 62.0162 113.223 63.3777C113.07 63.6623 112.918 63.9756 112.775 64.3171C112.655 64.5041 112.596 64.702 112.538 64.9018C112.061 66.1583 111.713 67.7367 111.775 69.5774C111.819 70.9711 112.085 72.5086 112.702 74.2046C113.687 76.9866 116.173 80.0807 119.268 83.0144Z" fill="#FFB27D"/>
<path d="M114.129 68.4231C112.127 69.7315 109.634 70.7868 106.525 71.4137C94.8683 73.7669 90.7059 63.8377 89.2285 57.0608C90.8332 56.2002 92.3248 56.0427 93.1861 55.9643C94.026 55.8889 94.9081 55.8481 95.6381 55.8326C96.9668 54.8715 99.0192 50.8431 99.6262 44.5155L100.167 44.6773L109.224 47.4372C109.224 47.4372 108.724 50.3315 108.442 53.0725C108.223 55.2174 108.14 57.2707 108.532 57.785C109.24 57.96 109.665 58.0729 109.665 58.0729C109.665 58.0729 109.665 58.076 109.669 58.0815C109.786 58.2858 112.312 62.7224 114.129 68.4231Z" fill="#FFB27D"/>
<path d="M118.186 75.7165C118.132 75.9652 118.067 76.2083 117.995 76.459C115.949 83.3115 114.293 110.704 114.293 110.704C115.378 114.128 95.5041 114.83 84.544 113.248C80.559 112.674 77.7526 111.798 77.5598 110.641C75.5988 106.213 80.3975 97.9445 83.1687 93.7414C83.5171 93.2141 83.8155 92.6589 84.0621 92.0835C84.6887 90.6372 84.9908 89.0629 84.9277 87.4757C84.8443 85.3035 84.6588 83.1945 84.4328 81.2192C84.0083 77.4932 83.4411 74.2406 83.1448 71.9385C83.1448 71.9385 83.1448 71.9385 83.1448 71.9366C83.7211 71.3631 84.2828 70.8302 84.8055 70.3233C85.6025 69.5418 86.3012 68.8196 86.7925 68.1177C87.3319 67.3529 87.6321 66.6066 87.5654 65.8232C87.5134 65.2309 87.4078 64.6313 87.2596 64.039C87.191 63.7588 87.1133 63.4802 87.0298 63.2017C86.1401 60.2815 84.5016 57.7547 84.5016 57.7547C87.4692 56.017 93.1856 55.9631 93.1856 55.9631C93.1856 55.9631 93.2243 56.2768 93.2967 56.7874C93.5748 58.8409 94.357 64.1059 95.1577 65.0063C96.1587 66.1295 111.964 69.3839 112.514 67.5832C113.056 65.8139 109.791 58.3638 109.669 58.0814C109.665 58.0759 109.665 58.0721 109.665 58.0721C114.727 59.277 116.926 60.6397 117.026 60.7196C117.026 60.7196 117.022 60.7196 117.02 60.7177C114.273 63.1274 119.628 69.1501 118.186 75.7165Z" fill="#FF9843"/>
<path d="M109.225 47.4386C109.225 47.4386 108.723 50.3304 108.443 53.0739C103.286 52.4093 101.025 47.4106 100.167 44.6793L109.225 47.4386Z" fill="#ED985F"/>
<path d="M110.692 50.2101C110.692 50.2101 98.4371 49.1852 99.1917 41.5512C99.9462 33.9169 98.8729 28.6433 106.729 28.9747C114.586 29.3062 115.815 32.3699 116.182 34.9794C116.549 37.5891 113.899 50.2799 110.692 50.2101Z" fill="#FFB27D"/>
<path d="M107.209 40.2638C107.262 40.7238 107.548 41.0686 107.848 41.0337C108.149 40.9994 108.348 40.5984 108.296 40.1384C108.243 39.6784 107.957 39.3336 107.656 39.3685C107.356 39.4028 107.155 39.8038 107.209 40.2638Z" fill="#263238"/>
<path d="M109.929 43.9898C109.934 43.9425 110.459 43.9557 111.303 44.0138C111.516 44.0339 111.722 44.0315 111.786 43.896C111.865 43.7549 111.822 43.5124 111.769 43.2494C111.673 42.7047 111.572 42.1343 111.466 41.5362C111.057 39.1015 110.805 37.1162 110.903 37.1006C111.001 37.0849 111.412 39.0458 111.822 41.4805C111.917 42.0798 112.009 42.6514 112.096 43.1977C112.128 43.451 112.211 43.7469 112.042 44.0391C111.955 44.1842 111.78 44.2668 111.638 44.2764C111.497 44.2908 111.379 44.2696 111.274 44.2551C110.437 44.1353 109.922 44.0367 109.929 43.9898Z" fill="#263238"/>
<path d="M112.4 39.6648C112.453 40.1248 112.739 40.4696 113.039 40.4347C113.34 40.4004 113.54 39.9994 113.487 39.5394C113.434 39.0794 113.147 38.7346 112.848 38.7695C112.548 38.8045 112.347 39.2048 112.4 39.6648Z" fill="#263238"/>
<path d="M105.416 38.7698C105.371 38.7691 105.325 38.7567 105.283 38.7321C105.154 38.656 105.111 38.4894 105.187 38.3598C105.95 37.0642 107.201 36.9936 107.255 36.9915C107.405 36.9846 107.531 37.1012 107.538 37.2513C107.545 37.4008 107.429 37.5276 107.28 37.5351C107.239 37.5372 106.264 37.6023 105.655 38.6368C105.603 38.7238 105.51 38.7718 105.416 38.7698Z" fill="#263238"/>
<path d="M114.43 37.6189C114.343 37.6169 114.257 37.573 114.206 37.4928C113.562 36.4802 112.586 36.448 112.545 36.4473C112.395 36.4439 112.276 36.3205 112.278 36.1711C112.28 36.0216 112.402 35.9017 112.552 35.9037C112.606 35.9058 113.858 35.9318 114.665 37.2007C114.746 37.3276 114.708 37.4955 114.582 37.5764C114.534 37.6066 114.482 37.6196 114.43 37.6189Z" fill="#263238"/>
<path d="M116.243 30.6987C114.581 28.213 113.102 28.5738 112.232 29.1837C105.913 24.8307 101.059 29.8428 101.059 29.8428C99.6935 35.2376 95.4365 37.9798 95.4365 37.9798C95.4365 37.9798 97.5286 39.5832 102.802 38.7746C104.413 38.5275 105.926 37.5503 107.254 36.3141C104.824 39.5985 101.741 41.8309 101.741 41.8309C108.166 39.6036 111.487 31.2964 111.823 30.4166C112.502 31.1633 113.829 32.7701 114.135 34.2456C114.55 36.2505 114.425 40.2795 115.603 40.2603C115.603 40.2603 118.735 34.4266 116.243 30.6987Z" fill="#2C3A64"/>
<path d="M170.919 87.7876C169.693 88.9573 168.454 91.8819 164.68 91.8264C161.987 91.8043 159.26 92.1079 157.94 92.2695C157.427 92.3599 157.128 92.3952 157.128 92.3952L156.993 88.1126C156.993 88.1126 157.047 88.1182 157.17 88.0977C158.082 87.9601 162.713 87.247 164.546 86.0294C166.603 84.6481 171.415 85.9285 171.415 85.9285C171.415 85.9285 172.153 86.6403 170.919 87.7876Z" fill="#FFB27D"/>
<path d="M91.2371 230.762H72.2118C72.2118 230.762 71.7559 227.858 72.7496 225.654C73.7018 223.54 75.1932 222.579 74.8361 220.021C76.045 221.268 78.0154 222.664 80.7658 222.293C81.1027 222.84 82.9413 225.769 84.0669 226.579C85.3105 227.474 90.8543 227.155 91.2371 230.762Z" fill="#233862"/>
<path d="M132.088 230.762H113.062C113.062 230.762 112.351 227.723 113.6 225.654C114.705 223.825 114.282 222.782 113.463 221.268C114.325 221.621 115.44 221.943 116.667 221.873C117.615 221.818 118.617 221.387 119.496 220.876C120.315 221.811 123.821 225.791 124.917 226.58C126.16 227.474 131.705 227.156 132.088 230.762Z" fill="#233862"/>
<path d="M107.769 45.7953C107.769 45.7953 107.94 46.8057 110.423 46.8082C110.423 46.8082 112.508 46.8105 112.513 45.7119C112.513 45.7119 110.548 44.8065 107.769 45.7953Z" fill="white"/>
<path d="M87.1409 94.3171C86.3884 99.0919 82.9408 108.672 84.544 113.248C80.559 112.674 77.7526 111.798 77.5598 110.641C75.5988 106.214 80.3975 97.9447 83.1687 93.7415C83.5171 93.2142 83.8155 92.6591 84.0621 92.0837C84.6887 90.6374 84.9908 89.0631 84.9277 87.4758C84.8443 85.3037 84.6588 83.1946 84.4328 81.2194C84.4328 81.2194 87.9416 89.2432 87.1409 94.3171Z" fill="#ED7D2B"/>
<path d="M114.071 62.1045C114.204 66.3483 117.268 77.9977 117.995 76.46C118.825 74.7055 122.043 68.0392 123.554 67.7938C123.474 67.4863 117.29 60.6375 117.019 60.7176C117.019 60.7176 115.339 61.2305 114.071 62.1045Z" fill="#FF9843"/>
<path d="M84.8994 122.3L81.7431 124.405C81.7431 124.405 80.9446 123.405 79.6799 121.807C79.3022 121.326 79.0997 121.036 79.0997 121.036C78.0991 119.745 76.9361 118.161 75.6642 116.443L75.6428 116.423C73.5112 113.425 71.17 110.014 69.3782 106.931C68.1332 104.745 67.1638 102.722 66.6901 101.131C66.6379 100.971 66.6095 100.832 66.5771 100.651C65.6507 96.616 67.3498 88.6045 70.0542 80.7876C70.4255 79.7068 70.8183 78.6435 71.1935 77.6042C72.6322 73.7702 74.249 70.168 75.8729 67.2562C76.8249 65.5059 77.7739 63.9795 78.6886 62.8407C79.0055 62.4331 79.3037 62.048 79.6259 61.7207C79.8002 61.5228 79.9746 61.3318 80.1464 61.15C82.0421 61.3104 86.0199 62.0626 88.972 65.4782C88.9217 65.6576 88.8691 65.8369 88.8156 66.0198C87.6217 69.8764 85.7784 74.6092 83.8679 79.2465C82.8284 81.7945 81.7649 84.3225 80.8338 86.7002C80.2431 88.1215 79.7088 89.4775 79.2266 90.7285C78.3181 93.125 77.6439 95.1191 77.3758 96.5175C77.1945 97.4239 77.4529 99.1303 77.9417 101.228C78.7799 104.884 80.3749 109.806 81.857 113.986C82.4632 115.731 83.0604 117.353 83.559 118.699C84.3573 120.877 84.8994 122.3 84.8994 122.3Z" fill="#FFB27D"/>
<path d="M86.2791 77.5468C83.1265 72.7802 74.0908 70.7302 74.0908 70.7302C79.1895 54.526 92.5756 56.0285 92.5756 56.0285C92.5756 56.0285 87.7058 72.8861 86.2791 77.5468Z" fill="#FF9843"/>
<path d="M81.7432 124.405C81.7432 124.405 82.5723 125.631 82.665 126.513C82.7578 127.395 83.5455 130.319 84.565 131.247C85.5844 132.175 87.9014 134.032 88.2257 133.754C88.5502 133.475 89.4888 131.286 88.6187 129.739C88.2259 129.041 87.6929 127.093 86.99 126.622C86.137 126.049 84.8996 122.301 84.8996 122.301L81.7432 124.405Z" fill="#FFB27D"/>
<path d="M84.9121 122.777C84.9121 122.777 87.4222 124.053 87.762 125.074C88.102 126.095 89.5044 128.154 89.3607 128.393C89.2068 128.648 87.0248 127.255 86.2832 125.987C85.5416 124.718 84.9121 122.777 84.9121 122.777Z" fill="#FFB27D"/>
<path d="M144.643 110.902L236.561 55.7847C241.63 52.7453 247.957 52.7453 253.026 55.7847L344.945 110.902L344.945 200.735L144.643 190.676V110.902Z" fill="#4A9DF7"/>
<path d="M327.703 71.0994H161.884V214.629H327.703V71.0994Z" fill="#ECECFE"/>
<path d="M166.945 77.3618C166.945 76.4188 167.709 75.6542 168.65 75.6542C169.592 75.6542 170.355 76.4188 170.355 77.3618C170.355 78.3049 169.592 79.0694 168.65 79.0694C167.709 79.0694 166.945 78.3049 166.945 77.3618Z" fill="#8BA7F8"/>
<path d="M319.131 77.3616C319.131 76.4187 319.894 75.6541 320.836 75.6541C321.777 75.6541 322.54 76.4187 322.54 77.3616C322.54 78.3048 321.777 79.0692 320.836 79.0692C319.894 79.0692 319.131 78.3048 319.131 77.3616Z" fill="#8BA7F8"/>
<path d="M320.835 77.1759H168.65V77.5472H320.835V77.1759Z" fill="#8BA7F8"/>
<path d="M168.836 76.6826H168.465V229.112H168.836V76.6826Z" fill="#8BA7F8"/>
<path d="M321.08 76.6826H320.709V229.112H321.08V76.6826Z" fill="#8BA7F8"/>
<path d="M344.945 110.654V230.762H144.643V110.654L244.793 170.709L344.945 110.654Z" fill="#5982E0"/>
<path d="M144.643 230.763L236.386 164.883C241.412 161.274 248.175 161.274 253.201 164.883L344.945 230.763H144.643Z" fill="#4A9DF7"/>
<path d="M275.369 90.984H214.911C214.033 90.984 213.314 90.2647 213.314 89.3854C213.314 88.5062 214.033 87.7867 214.911 87.7867H275.369C276.247 87.7867 276.965 88.5062 276.965 89.3854C276.965 90.2647 276.247 90.984 275.369 90.984Z" fill="#8BA7F8"/>
<path d="M290.941 97.3986H199.337C198.459 97.3986 197.741 96.6792 197.741 95.8C197.741 94.9206 198.459 94.2012 199.337 94.2012H290.941C291.82 94.2012 292.538 94.9206 292.538 95.8C292.538 96.6792 291.82 97.3986 290.941 97.3986Z" fill="#8BA7F8"/>
<path d="M279.062 117.294H212.784C212.149 117.294 211.629 116.774 211.629 116.137C211.629 115.501 212.149 114.981 212.784 114.981H279.062C279.697 114.981 280.217 115.501 280.217 116.137C280.217 116.773 279.697 117.294 279.062 117.294Z" fill="#8BA7F8"/>
<path d="M219.439 123.335H200.751C200.116 123.335 199.597 122.815 199.597 122.179C199.597 121.542 200.116 121.022 200.751 121.022H219.439C220.074 121.022 220.594 121.542 220.594 122.179C220.594 122.815 220.075 123.335 219.439 123.335Z" fill="#8BA7F8"/>
<path d="M247.624 123.336H225.046C224.411 123.336 223.892 122.815 223.892 122.179C223.892 121.543 224.411 121.022 225.046 121.022H247.624C248.259 121.022 248.779 121.543 248.779 122.179C248.779 122.815 248.259 123.336 247.624 123.336Z" fill="#8BA7F8"/>
<path d="M291.095 123.336H252.064C251.429 123.336 250.909 122.815 250.909 122.179C250.909 121.543 251.429 121.022 252.064 121.022H291.095C291.73 121.022 292.25 121.543 292.25 122.179C292.25 122.815 291.73 123.336 291.095 123.336Z" fill="#8BA7F8"/>
<path d="M247.772 130.36H211.469C210.834 130.36 210.314 129.839 210.314 129.203C210.314 128.567 210.834 128.046 211.469 128.046H247.772C248.407 128.046 248.927 128.567 248.927 129.203C248.927 129.839 248.407 130.36 247.772 130.36Z" fill="#8BA7F8"/>
<path d="M280.377 130.359H251.784C251.149 130.359 250.629 129.839 250.629 129.203C250.629 128.567 251.149 128.046 251.784 128.046H280.377C281.012 128.046 281.532 128.567 281.532 129.203C281.532 129.839 281.012 130.359 280.377 130.359Z" fill="#8BA7F8"/>
<g opacity="0.5">
<path d="M241.214 12.1555L249.849 31.2369L218.027 45.6835L209.392 26.6022L229.62 28.9196L241.214 12.1555Z" fill="#CDE0FB"/>
<path d="M209.392 26.6022L241.214 12.1555L231.7 28.2165C230.949 29.4831 229.495 30.1519 228.047 29.8962L209.392 26.6022Z" fill="#B1CFF2"/>
</g>
<g opacity="0.5">
<path d="M54.132 136.752L58.6742 148.952L38.3273 156.552L33.7852 144.351L46.2296 146.652L54.132 136.752Z" fill="#CDE0FB"/>
<path d="M33.7852 144.351L54.1321 136.752L47.5491 146.305C47.0299 147.058 46.0996 147.411 45.2125 147.19L33.7852 144.351Z" fill="#B1CFF2"/>
</g>
<g opacity="0.5">
<path d="M402.57 64.1349L396.188 88.0923L356.234 77.4133L362.617 53.4562L379.403 70.7744L402.57 64.1349Z" fill="#CDE0FB"/>
<path d="M362.617 53.4561L402.57 64.1348L381.833 71.6927C380.197 72.2887 378.364 71.8085 377.23 70.4864L362.617 53.4561Z" fill="#B1CFF2"/>
</g>
<path d="M45.3646 190.697H45.3642C44.3987 190.694 43.4618 190.681 42.5795 190.657C42.4771 190.654 42.3965 190.568 42.3992 190.466C42.4018 190.363 42.484 190.283 42.5895 190.285C43.469 190.31 44.4028 190.323 45.3653 190.326C45.4677 190.326 45.5503 190.409 45.5501 190.512C45.5499 190.614 45.4668 190.697 45.3646 190.697ZM48.1488 190.676C48.0478 190.676 47.9652 190.595 47.9636 190.493C47.9619 190.391 48.0433 190.307 48.1457 190.305C49.0361 190.29 49.9717 190.266 50.9266 190.235C51.0333 190.227 51.1147 190.312 51.118 190.414C51.1213 190.517 51.0411 190.602 50.9387 190.606C49.9818 190.637 49.0443 190.661 48.1521 190.676C48.1511 190.676 48.1498 190.676 48.1488 190.676ZM39.8066 190.537C39.8029 190.537 39.7992 190.537 39.7953 190.536C38.8149 190.477 37.8797 190.4 37.0159 190.308C36.9139 190.297 36.8403 190.206 36.8512 190.104C36.8622 190.002 36.9537 189.928 37.0553 189.939C37.9137 190.031 38.8429 190.107 39.8178 190.166C39.92 190.172 39.9979 190.26 39.9917 190.362C39.9855 190.461 39.9039 190.537 39.8066 190.537ZM53.7153 190.495C53.6168 190.495 53.5348 190.417 53.5302 190.318C53.5257 190.215 53.6044 190.129 53.7068 190.124C54.599 190.083 55.5337 190.033 56.4852 189.979C56.5874 189.976 56.675 190.051 56.681 190.153C56.6869 190.256 56.6088 190.344 56.5066 190.349C55.5539 190.405 54.6176 190.453 53.7241 190.495C53.7208 190.495 53.718 190.495 53.7153 190.495ZM59.2745 190.175C59.1779 190.175 59.0965 190.1 59.0899 190.001C59.0829 189.899 59.1601 189.811 59.2621 189.804C60.1752 189.742 61.1003 189.675 62.0374 189.604C62.1394 189.595 62.2284 189.672 62.2363 189.774C62.2441 189.877 62.1677 189.966 62.0655 189.974C61.1275 190.045 60.2009 190.112 59.2871 190.174C59.2827 190.175 59.2786 190.175 59.2745 190.175ZM34.2824 189.923C34.2715 189.923 34.2606 189.923 34.2495 189.921C33.2264 189.736 32.3095 189.517 31.5238 189.267C31.4261 189.236 31.3724 189.131 31.4033 189.034C31.4342 188.936 31.5387 188.881 31.6361 188.913C32.4065 189.158 33.3078 189.374 34.315 189.555C34.4157 189.573 34.4827 189.669 34.4648 189.77C34.4485 189.86 34.3704 189.923 34.2824 189.923ZM64.8261 189.752C64.7307 189.752 64.6498 189.679 64.6415 189.582C64.6329 189.479 64.7087 189.39 64.8107 189.381C65.7255 189.304 66.6497 189.223 67.5827 189.138C67.6857 189.129 67.7749 189.204 67.7842 189.306C67.7935 189.408 67.7185 189.498 67.6165 189.508C66.6827 189.593 65.7577 189.674 64.842 189.751C64.8367 189.752 64.8313 189.752 64.8261 189.752ZM70.3709 189.248C70.2766 189.248 70.196 189.176 70.1867 189.08C70.1767 188.978 70.2512 188.887 70.3532 188.877C71.2691 188.788 72.1924 188.695 73.1221 188.6C73.2233 188.591 73.315 188.663 73.3255 188.765C73.336 188.868 73.2618 188.959 73.16 188.969C72.2299 189.065 71.3058 189.157 70.3891 189.247C70.3829 189.247 70.3769 189.248 70.3709 189.248ZM75.9088 188.678C75.8154 188.678 75.7351 188.608 75.7248 188.512C75.7138 188.41 75.7874 188.319 75.8892 188.308C76.8061 188.209 77.7282 188.106 78.655 188.002C78.7568 187.991 78.8485 188.064 78.86 188.166C78.8716 188.268 78.7982 188.359 78.6966 188.371C77.7694 188.476 76.8465 188.578 75.9292 188.677C75.9222 188.678 75.9156 188.678 75.9088 188.678ZM29.0751 188.097C29.0372 188.097 28.9991 188.085 28.9661 188.062C28.4291 187.67 28.0416 187.226 27.8141 186.744C27.6476 186.391 27.5091 186.038 27.402 185.694C27.3715 185.596 27.4261 185.492 27.5238 185.462C27.6208 185.432 27.7255 185.486 27.7558 185.584C27.858 185.911 27.99 186.248 28.1493 186.585C28.35 187.011 28.6983 187.407 29.1845 187.761C29.2674 187.822 29.2855 187.938 29.2251 188.021C29.1886 188.071 29.1324 188.097 29.0751 188.097ZM81.4406 188.054C81.3479 188.054 81.2679 187.984 81.2568 187.89C81.2449 187.788 81.3176 187.696 81.4194 187.684C82.3369 187.576 83.2582 187.466 84.1823 187.354C84.2837 187.342 84.3764 187.414 84.3886 187.516C84.4009 187.618 84.3284 187.71 84.2268 187.722C83.3023 187.835 82.3806 187.945 81.4625 188.053C81.4553 188.053 81.4478 188.054 81.4406 188.054ZM86.9671 187.382C86.875 187.382 86.7953 187.314 86.7835 187.22C86.7705 187.118 86.8426 187.026 86.9444 187.013C87.8593 186.898 88.7769 186.781 89.6958 186.663C89.7968 186.651 89.8901 186.722 89.9031 186.823C89.9161 186.925 89.8444 187.018 89.743 187.031C88.8236 187.15 87.9059 187.266 86.9904 187.381C86.9826 187.382 86.9747 187.382 86.9671 187.382ZM92.4748 186.673C92.3833 186.673 92.3036 186.605 92.2912 186.511C92.2778 186.41 92.3491 186.317 92.4505 186.303C93.3697 186.181 94.2897 186.058 95.21 185.933C95.313 185.921 95.4049 185.991 95.4185 186.092C95.4323 186.194 95.3612 186.287 95.2596 186.301C94.339 186.426 93.4185 186.549 92.4992 186.671C92.4911 186.672 92.4829 186.673 92.4748 186.673ZM97.9988 185.924C97.9078 185.924 97.8282 185.857 97.8155 185.764C97.8015 185.662 97.8723 185.569 97.9737 185.555C98.8933 185.427 99.8121 185.299 100.73 185.169C100.83 185.154 100.925 185.225 100.939 185.327C100.953 185.428 100.883 185.522 100.782 185.537C99.8634 185.667 98.9442 185.795 98.0246 185.923C98.0157 185.924 98.0073 185.924 97.9988 185.924ZM103.511 185.144C103.42 185.144 103.341 185.078 103.328 184.985C103.313 184.884 103.383 184.79 103.485 184.775C104.405 184.642 105.323 184.509 106.239 184.374C106.34 184.359 106.434 184.43 106.449 184.531C106.464 184.633 106.394 184.727 106.292 184.742C105.376 184.876 104.458 185.01 103.537 185.143C103.529 185.144 103.52 185.144 103.511 185.144ZM109.019 184.336C108.928 184.336 108.849 184.27 108.835 184.178C108.82 184.077 108.89 183.982 108.991 183.967C109.912 183.83 110.83 183.692 111.743 183.553C111.845 183.538 111.939 183.607 111.954 183.709C111.97 183.81 111.9 183.905 111.799 183.92C110.885 184.059 109.967 184.197 109.046 184.334C109.037 184.336 109.028 184.336 109.019 184.336ZM114.523 183.502C114.433 183.502 114.354 183.436 114.34 183.344C114.324 183.243 114.394 183.148 114.495 183.133C115.417 182.991 116.334 182.848 117.245 182.706C117.346 182.691 117.441 182.76 117.457 182.861C117.473 182.962 117.403 183.057 117.302 183.073C116.391 183.215 115.473 183.358 114.551 183.5C114.542 183.501 114.532 183.502 114.523 183.502ZM27.3964 183.079C27.3842 183.079 27.3719 183.078 27.3597 183.075C27.2594 183.055 27.1943 182.957 27.2147 182.857C27.3927 181.971 27.8106 181.118 28.4567 180.321C28.5212 180.241 28.6379 180.23 28.7176 180.294C28.7969 180.358 28.8091 180.475 28.7446 180.555C28.1368 181.305 27.7442 182.104 27.5782 182.93C27.5602 183.018 27.4827 183.079 27.3964 183.079ZM120.023 182.643C119.934 182.643 119.855 182.578 119.84 182.486C119.825 182.385 119.893 182.29 119.995 182.274C120.918 182.128 121.834 181.982 122.743 181.836C122.844 181.819 122.939 181.888 122.955 181.99C122.972 182.091 122.903 182.186 122.802 182.202C121.893 182.348 120.976 182.494 120.052 182.64C120.043 182.642 120.033 182.643 120.023 182.643ZM125.521 181.761C125.431 181.761 125.353 181.696 125.338 181.605C125.322 181.504 125.39 181.409 125.491 181.392C126.416 181.242 127.332 181.092 128.238 180.943C128.339 180.927 128.435 180.995 128.451 181.096C128.468 181.197 128.4 181.293 128.299 181.31C127.392 181.458 126.476 181.608 125.55 181.759C125.541 181.76 125.531 181.761 125.521 181.761ZM131.015 180.858C130.926 180.858 130.848 180.794 130.833 180.703C130.816 180.602 130.884 180.506 130.985 180.489C131.913 180.335 132.828 180.182 133.731 180.03C133.833 180.013 133.927 180.081 133.944 180.182C133.961 180.283 133.893 180.379 133.792 180.396C132.889 180.548 131.973 180.701 131.046 180.855C131.036 180.857 131.025 180.858 131.015 180.858ZM136.507 179.934C136.418 179.934 136.34 179.87 136.324 179.78C136.307 179.679 136.375 179.583 136.476 179.566C137.407 179.407 138.322 179.251 139.22 179.097C139.321 179.079 139.417 179.147 139.435 179.248C139.452 179.349 139.384 179.445 139.283 179.462C138.385 179.617 137.469 179.773 136.538 179.932C136.528 179.933 136.517 179.934 136.507 179.934ZM141.996 178.991C141.908 178.991 141.829 178.927 141.814 178.837C141.796 178.736 141.864 178.64 141.965 178.622C142.901 178.46 143.816 178.3 144.708 178.143C144.81 178.126 144.905 178.193 144.923 178.294C144.94 178.395 144.873 178.491 144.772 178.509C143.88 178.666 142.965 178.825 142.028 178.988C142.017 178.99 142.007 178.991 141.996 178.991ZM30.6539 178.767C30.5954 178.767 30.5379 178.739 30.5016 178.687C30.4431 178.603 30.4635 178.487 30.5476 178.429C31.2477 177.939 32.0657 177.465 32.9783 177.019C33.0702 176.974 33.1813 177.012 33.2262 177.105C33.2711 177.197 33.2328 177.308 33.1409 177.353C32.2454 177.79 31.4443 178.255 30.7596 178.733C30.7276 178.756 30.6903 178.767 30.6539 178.767ZM147.484 178.028C147.396 178.028 147.317 177.965 147.301 177.875C147.284 177.774 147.351 177.677 147.452 177.66C148.398 177.492 149.313 177.329 150.195 177.171C150.295 177.152 150.392 177.22 150.41 177.321C150.428 177.422 150.361 177.518 150.26 177.537C149.379 177.694 148.463 177.857 147.517 178.025C147.505 178.027 147.495 178.028 147.484 178.028ZM152.97 177.045C152.882 177.045 152.804 176.982 152.788 176.893C152.77 176.792 152.837 176.695 152.938 176.677C153.905 176.501 154.821 176.335 155.681 176.177C155.781 176.158 155.878 176.226 155.896 176.327C155.915 176.427 155.848 176.524 155.747 176.543C154.888 176.7 153.972 176.867 153.004 177.042C152.992 177.044 152.981 177.045 152.97 177.045ZM35.622 176.281C35.547 176.281 35.4761 176.235 35.4483 176.16C35.4126 176.064 35.4612 175.957 35.5573 175.921C36.3784 175.615 37.2716 175.317 38.2118 175.036C38.3103 175.006 38.4133 175.062 38.4424 175.161C38.4718 175.259 38.416 175.362 38.3179 175.392C37.3855 175.67 36.5003 175.966 35.6866 176.269C35.6654 176.277 35.6436 176.281 35.622 176.281ZM158.458 176.041C158.37 176.041 158.292 175.978 158.276 175.889C158.257 175.788 158.323 175.691 158.424 175.673C159.47 175.479 160.389 175.307 161.17 175.161C161.27 175.142 161.367 175.208 161.386 175.309C161.405 175.41 161.339 175.507 161.238 175.526C160.457 175.673 159.538 175.844 158.492 176.038C158.48 176.04 158.469 176.041 158.458 176.041ZM163.954 175.008C163.866 175.008 163.789 174.947 163.772 174.858C163.752 174.757 163.818 174.66 163.919 174.64C164.107 174.605 164.214 174.584 164.236 174.579C164.345 174.554 164.463 174.644 164.463 174.76C164.463 174.914 164.445 174.918 163.988 175.005C163.977 175.007 163.965 175.008 163.954 175.008ZM40.9545 174.67C40.8711 174.67 40.7955 174.614 40.7747 174.529C40.7503 174.429 40.8111 174.329 40.9107 174.305C41.7771 174.092 42.6947 173.885 43.6382 173.692C43.7385 173.671 43.8364 173.736 43.857 173.836C43.8776 173.937 43.8129 174.035 43.7125 174.055C42.7738 174.248 41.861 174.453 40.999 174.665C40.984 174.669 40.9692 174.67 40.9545 174.67ZM46.4145 173.543C46.3259 173.543 46.2474 173.479 46.2319 173.389C46.2146 173.288 46.2822 173.192 46.3831 173.175C47.2718 173.021 48.1999 172.874 49.1414 172.738C49.2442 172.722 49.3367 172.793 49.3515 172.895C49.3661 172.996 49.2959 173.09 49.1947 173.105C48.2564 173.241 47.3316 173.388 46.4462 173.541C46.4353 173.542 46.4248 173.543 46.4145 173.543ZM51.9317 172.74C51.8392 172.74 51.7592 172.671 51.7479 172.577C51.7355 172.475 51.8081 172.382 51.9096 172.37C52.8233 172.259 53.7569 172.157 54.6853 172.065C54.7865 172.056 54.878 172.129 54.8881 172.231C54.898 172.333 54.8236 172.424 54.7218 172.434C53.7962 172.526 52.8651 172.628 51.9544 172.739C51.9465 172.74 51.9391 172.74 51.9317 172.74ZM57.4825 172.19C57.3867 172.19 57.3055 172.116 57.2979 172.019C57.29 171.917 57.3665 171.827 57.4685 171.819C59.1904 171.687 60.2623 171.641 60.273 171.641C60.3756 171.633 60.4616 171.716 60.4659 171.818C60.4702 171.921 60.3907 172.007 60.2885 172.012C60.278 172.012 59.2119 172.058 57.4969 172.19C57.4922 172.19 57.4872 172.19 57.4825 172.19Z" fill="#AFCDFB"/>
<path d="M170.15 184.788L192.984 171.827L172.153 173.059L173.761 176.583L169.458 181.358L170.15 184.788Z" fill="#AFCDFB"/>
<path d="M192.984 171.827L169.055 176.219L151.628 188.342L192.984 171.827Z" fill="white"/>
<path d="M172.153 173.059L192.983 171.826L171.194 165.431L172.153 173.059Z" fill="white"/>
<path d="M293.664 14.4894L319.587 18.599L302.526 6.56519L301.592 10.3248L295.257 11.3743L293.664 14.4894Z" fill="#AFCDFB"/>
<path d="M319.587 18.5994L298.138 7.10398L276.965 5.71216L319.587 18.5994Z" fill="white"/>
<path d="M302.525 6.56539L319.586 18.5992L306.521 0L302.525 6.56539Z" fill="white"/>
<path d="M372.161 119.691C372.161 119.691 366.875 120.058 362.973 129.592C359.037 139.209 367.84 139.114 364.875 145.24C361.909 151.367 369.143 155.021 371.34 160.037C373.536 165.053 384.604 177.153 385.481 182.672C386.358 188.191 396.199 176.934 396.199 176.934C396.199 176.934 406.202 166.246 402.616 160.037C396.704 149.803 401.825 147.579 401.64 141.863C401.454 136.148 390.622 113.626 372.161 119.691Z" fill="#233862"/>
<path d="M369.291 153.895C369.291 153.895 348.828 162.829 344.941 162.658C341.053 162.489 317.101 155.351 317.101 155.351L317.71 159.478C317.71 159.478 336.196 170.127 342.658 170.731C349.021 171.325 370.776 165.011 372.877 163.678C374.977 162.345 375.395 155.244 369.291 153.895Z" fill="#FFAD76"/>
<path d="M367.64 163.689C369.52 164.996 371.879 166.074 374.839 166.758C385.936 169.326 390.189 159.932 391.786 153.483C390.273 152.616 388.849 152.425 388.026 152.326C387.225 152.232 386.381 152.169 385.682 152.134C384.436 151.178 382.579 147.266 382.169 141.191L381.647 141.331L372.901 143.729C372.901 143.729 373.301 146.513 373.498 149.145C373.65 151.205 373.916 152.4 373.527 152.882C372.844 153.03 372.192 153.9 372.192 153.9C372.192 153.9 372.192 153.903 372.188 153.908C372.07 154.101 369.533 158.28 367.64 163.689Z" fill="#FFB27D"/>
<path d="M372.9 143.73C372.9 143.73 373.303 146.512 373.497 149.147C378.452 148.65 380.752 143.924 381.647 141.333L372.9 143.73Z" fill="#ED985F"/>
<path d="M371.421 146.344C371.421 146.344 383.182 145.694 382.665 138.364C382.148 131.035 383.318 126.014 375.787 126.12C368.256 126.225 366.996 129.125 366.574 131.613C366.153 134.101 368.348 146.324 371.421 146.344Z" fill="#FFB27D"/>
<path d="M374.076 135.38C374.16 135.835 373.987 136.249 373.689 136.303C373.392 136.359 373.084 136.034 373 135.579C372.916 135.123 373.088 134.71 373.386 134.655C373.683 134.6 373.992 134.924 374.076 135.38Z" fill="#263238"/>
<path d="M372.565 139.74C372.546 139.696 372.047 139.863 371.257 140.166C371.06 140.248 370.862 140.306 370.762 140.195C370.645 140.083 370.615 139.839 370.589 139.572C370.521 139.023 370.451 138.448 370.377 137.845C370.057 135.397 369.718 133.425 369.619 133.438C369.521 133.452 369.701 135.448 370.021 137.896C370.105 138.497 370.184 139.07 370.261 139.618C370.304 139.87 370.312 140.177 370.558 140.407C370.684 140.52 370.876 140.548 371.014 140.515C371.154 140.488 371.26 140.433 371.356 140.388C372.121 140.028 372.585 139.783 372.565 139.74Z" fill="#263238"/>
<path d="M368.937 136.33C369.021 136.785 368.848 137.199 368.551 137.254C368.254 137.309 367.945 136.984 367.861 136.529C367.777 136.074 367.95 135.66 368.247 135.605C368.544 135.551 368.853 135.875 368.937 136.33Z" fill="#263238"/>
<path d="M375.354 133.425C375.397 133.412 375.437 133.386 375.47 133.35C375.572 133.24 375.563 133.068 375.453 132.966C374.344 131.951 373.128 132.251 373.076 132.264C372.931 132.302 372.844 132.45 372.881 132.596C372.918 132.741 373.066 132.828 373.211 132.792C373.25 132.782 374.202 132.558 375.087 133.368C375.161 133.436 375.265 133.455 375.354 133.425Z" fill="#263238"/>
<path d="M366.397 134.969C366.48 134.941 366.549 134.874 366.574 134.783C366.894 133.626 367.818 133.309 367.857 133.296C367.999 133.249 368.078 133.096 368.031 132.954C367.986 132.811 367.834 132.732 367.691 132.778C367.64 132.796 366.451 133.188 366.05 134.638C366.01 134.783 366.095 134.933 366.239 134.973C366.294 134.988 366.348 134.985 366.397 134.969Z" fill="#263238"/>
<path d="M395.137 187.64C396.199 182.201 399.662 160.474 396.199 153.483C394.955 150.971 390.075 150.745 384.72 150.965C383.054 152.043 376.706 156.114 374.098 155.605C374.07 155.6 374.019 155.588 373.951 155.571C372.724 155.264 372.503 153.626 373.527 152.882C373.529 152.88 370.632 153.398 367.339 154.019C365.479 154.37 360.462 156.97 360.462 156.97C360.462 156.97 362.988 161.542 366.714 163.12C366.081 168.797 367.022 171.301 372.901 184.411C377.869 195.493 372.231 205.47 372.231 205.47C372.231 205.47 401.476 229.02 401.638 217.029C401.761 208.002 393.779 194.59 395.137 187.64Z" fill="#EFCB3A"/>
<path d="M370.781 231.078C369.19 230.898 367.759 230.026 366.87 228.693C366.728 228.481 366.578 228.254 366.418 228.011C363.089 222.964 361.794 207.506 354.306 191.039C352.482 187.03 345.935 186.309 344.151 181.777C344.151 181.777 339.757 167.087 352.56 166.654C365.364 166.221 386.849 207.526 387.189 211.858C387.517 216.054 395.653 233.889 370.781 231.078Z" fill="#233862"/>
<path d="M319.894 230.74H338.117C338.117 230.74 338.798 227.829 337.602 225.848C336.542 224.095 336.948 223.096 337.733 221.646C336.907 221.985 335.839 222.293 334.663 222.225C333.756 222.173 332.796 221.76 331.953 221.271C331.169 222.166 327.811 225.978 326.762 226.734C325.57 227.591 320.26 227.285 319.894 230.74Z" fill="#172B4C"/>
<path d="M393.216 159.178C393.216 159.178 395.587 180.791 380.206 185.32C364.824 189.849 360.457 165.434 372.877 163.678C385.296 161.922 393.216 159.178 393.216 159.178Z" fill="#C1A42D"/>
<path d="M343.735 170.9C342.637 179.14 338.352 205.147 330.793 217.835C328.356 221.925 336.933 224.218 336.979 224.206C338.13 223.905 340.046 222.068 340.929 221.27C347.066 215.731 359.524 200.045 359.524 187.47C359.524 181.338 359.631 169.627 355.179 166.651C352.438 164.818 344.17 167.628 343.735 170.9Z" fill="#233862"/>
<path d="M381.648 230.74C381.648 230.74 380.973 229.798 379.795 228.011C378.394 225.885 376.843 221.701 374.961 216.337C372.985 210.707 370.64 203.78 367.71 196.573C366.805 194.349 365.845 192.097 364.824 189.849C363 185.839 357.983 186.394 356.198 181.861C356.198 181.861 349.233 166.15 362.036 165.717C374.84 165.283 399.168 207.745 400.566 211.857C402.096 216.359 409.564 235.053 381.648 230.74Z" fill="#2B478B"/>
<path d="M333.271 230.74H351.494C351.494 230.74 352.175 227.829 350.978 225.848C349.919 224.095 350.325 223.096 351.11 221.646C350.284 221.985 349.216 222.293 348.04 222.225C347.132 222.173 346.172 221.76 345.33 221.271C344.546 222.166 341.188 225.978 340.138 226.734C338.947 227.591 333.637 227.285 333.271 230.74Z" fill="#233862"/>
<path d="M374.961 216.338C372.984 210.708 370.639 203.781 367.709 196.573C368.474 191.113 370.125 186.336 372.901 184.411C372.901 184.411 379.635 205.307 374.961 216.338Z" fill="#23407A"/>
<path d="M354.372 170.316C353.274 178.556 351.729 205.147 344.17 217.835C341.733 221.925 350.31 224.218 350.356 224.206C351.507 223.905 353.423 222.068 354.306 221.27C360.443 215.731 372.9 200.045 372.9 187.47C372.9 181.338 365.716 170.119 361.264 167.143C358.523 165.31 354.808 167.044 354.372 170.316Z" fill="#2B478B"/>
<path d="M331.809 148.708C331.809 148.708 330.876 146.332 329.177 146.487C327.478 146.641 312.047 148.708 312.047 148.708C312.047 148.708 313.843 149.138 314.521 150.319L321.639 171.327H339.896L331.809 148.708Z" fill="#EBF3FA"/>
<path d="M391.787 153.483C391.787 153.483 365.922 163.023 362.036 162.828C359.524 162.701 338.645 155.351 338.645 155.351L336.771 158.902C336.771 158.902 357.092 171.984 362.679 171.92C373.709 171.792 392.32 165.011 394.421 163.677C396.521 162.344 397.891 154.832 391.787 153.483Z" fill="#FFBF94"/>
<path d="M338.645 155.351C338.645 155.351 336.77 152.462 334.904 152.377C333.038 152.292 329.814 153.651 328.711 153.864C327.608 154.076 324.469 155.096 325.402 156.625C326.335 158.155 330.662 158.495 332.529 158.155C334.395 157.815 336.771 158.902 336.771 158.902L338.645 155.351Z" fill="#FFBF94"/>
<path d="M335.412 152.466C335.412 152.466 332.444 151.103 331.595 150.847C330.747 150.592 330.917 150.852 331.171 151.657C331.425 152.462 332.952 153.231 332.952 153.484C332.952 153.737 335.412 152.466 335.412 152.466Z" fill="#FFBF94"/>
<path d="M369.22 142.129C369.22 142.129 370.332 141.689 373.46 141.942C373.46 141.942 373.294 143.165 370.987 143.286C369.68 143.354 369.22 142.129 369.22 142.129Z" fill="white"/>
<path d="M378.46 158.189C378.46 158.189 380.774 165.523 388.718 167.192C388.718 167.192 401.838 163.144 395.305 154.192C395.305 154.192 388.847 149.385 378.46 158.189Z" fill="#EFCB3A"/>
<path d="M312.047 148.708C312.047 148.708 310.332 149.364 311.63 151.592L328.312 149.364C328.312 149.364 327.733 146.781 329.043 146.5L312.047 148.708Z" fill="white"/>
<path d="M318.024 154.191C318.42 152.603 318.396 152.219 317.499 151.249C316.907 150.608 316 152.197 315.531 153.156C315.359 152.732 315.066 152.044 314.966 152.009C314.822 151.96 315.166 154.144 315.166 154.144L315.166 154.144C315.157 154.234 315.153 154.325 315.156 154.417L315.155 154.416C315.155 154.416 314.431 157.626 317.585 159.362L316.983 157.592C317.349 157.531 317.622 155.804 318.024 154.191Z" fill="#FFAD76"/>
<path d="M370.974 127.74C370.974 127.74 373.454 126.87 374.655 129.407C375.855 131.944 376.236 138.009 381.051 138.504C385.864 138.999 386.05 128.231 386.05 128.231L374.002 123.466L367.64 127.489L370.974 127.74Z" fill="#233862"/>
<path d="M370.974 127.739C370.974 127.739 368.259 127.797 367.639 130.087C367.02 132.377 367.987 136.647 366.484 136.956C364.981 137.266 363.615 129.84 366.522 127.426C369.429 125.013 370.974 127.739 370.974 127.739Z" fill="#233862"/>
<path d="M157.89 87.9845C157.89 87.9845 160.607 86.9539 160.916 86.2423C161.224 85.5307 162.12 85.2211 163.202 84.726C164.283 84.2309 164.932 83.3335 165.086 83.4576C165.241 83.5814 165.271 84.2001 164.839 84.6643C164.407 85.1284 162.575 88.3773 161.884 88.7488C161.193 89.1196 157.89 87.9845 157.89 87.9845Z" fill="#FFB27D"/>
<path d="M439.849 230.608H422.383C421.447 229.812 423.03 228.007 424.685 227.885C425.404 227.831 426.312 227.982 427.351 228.201C427.591 225.004 428.964 210.629 434.137 211.207C439.954 211.853 434.137 217.537 432.493 220.902C431.275 223.394 429.99 226.969 429.403 228.655C429.875 228.758 430.364 228.858 430.863 228.95C431.634 226.579 434.503 218.604 438.151 219.069C442.434 219.613 440.712 222.811 437.676 224.708C435.449 226.104 432.714 228.088 431.415 229.047C432.516 229.227 433.665 229.348 434.831 229.321C437.823 229.25 439.283 230.133 439.849 230.608Z" fill="#82B378"/>
<path d="M48.4001 230.964C48.4001 230.964 41.7609 212.701 37.0992 214.258C32.4375 215.814 48.4001 230.964 48.4001 230.964Z" fill="#82B378"/>
<path d="M45.8574 230.964C45.2924 230.964 34.6979 219.951 33.9916 222.834C33.2852 225.718 45.8574 230.964 45.8574 230.964Z" fill="#82B378"/>
<path d="M57.1584 230.964C57.1584 230.964 52.7768 226.94 47.2293 227.987C41.6818 229.035 39.3124 230.182 35.8281 229.388C32.3436 228.595 30.5635 230.964 30.5635 230.964H57.1584Z" fill="#82B378"/>
<path d="M191.369 223.672H158.806C156.34 223.672 154.342 221.67 154.342 219.201V211.725C154.342 209.256 156.34 207.254 158.806 207.254H191.369C193.834 207.254 195.833 209.256 195.833 211.725V219.201C195.833 221.67 193.834 223.672 191.369 223.672Z" fill="#DEE5FD"/>
<path d="M185.323 211.336H159.327C159.036 211.336 158.799 211.098 158.799 210.808C158.799 210.517 159.036 210.279 159.327 210.279H185.323C185.613 210.279 185.851 210.517 185.851 210.808C185.851 211.098 185.614 211.336 185.323 211.336Z" fill="#6B93F6"/>
<path d="M163.937 213.616H159.327C159.036 213.616 158.799 213.378 158.799 213.087C158.799 212.796 159.036 212.558 159.327 212.558H163.937C164.227 212.558 164.465 212.796 164.465 213.087C164.465 213.378 164.228 213.616 163.937 213.616Z" fill="#6B93F6"/>
<path d="M178.461 213.616H165.759C165.469 213.616 165.231 213.378 165.231 213.087C165.231 212.796 165.469 212.558 165.759 212.558H178.461C178.751 212.558 178.989 212.796 178.989 213.087C178.988 213.378 178.751 213.616 178.461 213.616Z" fill="#6B93F6"/>
<path d="M185.323 217.839H159.327C159.036 217.839 158.799 217.601 158.799 217.31C158.799 217.019 159.036 216.781 159.327 216.781H185.323C185.613 216.781 185.851 217.019 185.851 217.31C185.851 217.601 185.614 217.839 185.323 217.839Z" fill="#6B93F6"/>
<path d="M168.762 220.119H159.327C159.036 220.119 158.799 219.881 158.799 219.59C158.799 219.299 159.036 219.061 159.327 219.061H168.762C169.052 219.061 169.29 219.299 169.29 219.59C169.29 219.881 169.053 220.119 168.762 220.119Z" fill="#6B93F6"/>
<path d="M180.242 220.119H170.807C170.517 220.119 170.279 219.881 170.279 219.59C170.279 219.299 170.517 219.061 170.807 219.061H180.242C180.533 219.061 180.77 219.299 180.77 219.59C180.77 219.881 180.533 220.119 180.242 220.119Z" fill="#6B93F6"/>
<g clip-path="url(#clip0_2468_150892)">
<path d="M224.01 141.715C224.728 141.715 225.362 141.863 225.91 142.158C226.465 142.454 226.896 142.87 227.203 143.408C227.51 143.939 227.663 144.55 227.663 145.242C227.663 145.934 227.507 146.549 227.193 147.086C226.886 147.624 226.449 148.04 225.881 148.336C225.319 148.632 224.673 148.78 223.941 148.78H221.052V141.715H224.01ZM224.059 147.288C224.405 147.288 224.712 147.204 224.98 147.036C225.247 146.868 225.456 146.63 225.606 146.32C225.757 146.011 225.832 145.659 225.832 145.262C225.832 144.859 225.75 144.503 225.587 144.194C225.43 143.885 225.211 143.646 224.931 143.478C224.65 143.304 224.33 143.216 223.971 143.216H222.844V147.288H224.059Z" fill="#1212FF"/>
<path d="M239.247 141.715H241.196L243.185 145.847L245.163 141.715H247.112V148.78H245.526L245.516 144.305L243.763 148.074H242.607L240.844 144.305V148.78H239.247V141.715Z" fill="#1212FF"/>
<path d="M249.918 141.715H251.71V148.78H249.918V141.715Z" fill="#1212FF"/>
<path d="M254.516 141.715H259.648L259.638 143.186H256.308V144.758H259.384V146.23H256.308V148.78H254.516V141.715Z" fill="#1212FF"/>
<path d="M266.634 148.78L266.164 147.53H263.196L262.716 148.78H260.875L263.823 141.715H265.665L268.544 148.78H266.634ZM263.735 146.119H265.635L264.695 143.599L263.735 146.119Z" fill="#1212FF"/>
<path fill-rule="evenodd" clip-rule="evenodd" d="M233.119 142.229C231.496 142.229 230.181 143.582 230.181 145.252C230.181 146.922 231.496 148.276 233.119 148.276C234.742 148.276 236.058 146.922 236.058 145.252C236.058 143.582 234.742 142.229 233.119 142.229ZM229.201 145.252C229.201 143.026 230.955 141.221 233.119 141.221C235.283 141.221 237.037 143.026 237.037 145.252C237.037 147.479 235.283 149.283 233.119 149.283C230.955 149.283 229.201 147.479 229.201 145.252Z" fill="#1212FF"/>
<path d="M233.119 150.795L231.847 148.528H234.391L233.119 150.795Z" fill="#1212FF"/>
<path d="M235.062 144.957L233.266 143.024C233.235 142.992 233.193 142.974 233.149 142.974C233.104 142.974 233.062 142.992 233.031 143.024L231.235 144.957C231.213 144.98 231.198 145.01 231.192 145.043C231.186 145.075 231.19 145.109 231.203 145.139C231.215 145.169 231.236 145.195 231.263 145.213C231.29 145.232 231.321 145.241 231.353 145.241H231.598C231.62 145.241 231.64 145.25 231.656 145.266C231.671 145.282 231.679 145.303 231.679 145.325V146.754C231.679 146.821 231.705 146.885 231.751 146.932C231.797 146.979 231.859 147.006 231.924 147.006H234.373C234.438 147.006 234.5 146.979 234.546 146.932C234.592 146.885 234.618 146.821 234.618 146.754V145.325C234.618 145.303 234.626 145.282 234.642 145.266C234.657 145.25 234.678 145.241 234.699 145.241H234.944C234.976 145.241 235.007 145.231 235.034 145.213C235.061 145.195 235.082 145.169 235.094 145.139C235.107 145.109 235.111 145.075 235.105 145.043C235.099 145.011 235.084 144.98 235.062 144.957Z" fill="#1212FF"/>
</g>
<defs>
<clipPath id="clip0_2468_150892">
<rect width="47.7949" height="9.5743" fill="white" transform="translate(221.052 141.221)"/>
</clipPath>
</defs>
</svg>
