<svg width="188" height="188" viewBox="0 0 188 188" fill="none" xmlns="http://www.w3.org/2000/svg">
<path d="M94.2642 171.559C138.032 171.559 173.513 150.876 173.513 125.362C173.513 99.8475 138.032 79.1643 94.2642 79.1643C50.4964 79.1643 15.0156 99.8475 15.0156 125.362C15.0156 150.876 50.4964 171.559 94.2642 171.559Z" fill="#F0F0F0"/>
<path d="M34.0798 141.811L20.4102 133.843C19.6396 133.393 19.6396 132.665 20.4102 132.216L99.9215 85.8655C100.692 85.4162 101.942 85.4162 102.713 85.8655L116.383 93.8339C117.153 94.2832 117.153 95.0117 116.383 95.4606L36.8709 141.811C36.1 142.261 34.8507 142.261 34.0798 141.811Z" fill="#E0E0E0"/>
<path d="M92.8384 145.108L60.0085 125.971L101.036 102.099L133.827 121.214L92.8384 145.108Z" fill="#E0E0E0"/>
<path d="M138.166 153.642C146.738 153.642 153.686 149.591 153.686 144.594C153.686 139.598 146.738 135.547 138.166 135.547C129.594 135.547 122.645 139.598 122.645 144.594C122.645 149.591 129.594 153.642 138.166 153.642Z" fill="#E0E0E0"/>
<path d="M158.99 133.7C160.673 134.681 160.673 136.271 158.99 137.251C157.308 138.232 154.58 138.232 152.898 137.251C151.215 136.271 151.215 134.68 152.898 133.7C154.58 132.719 157.308 132.719 158.99 133.7Z" fill="#E0E0E0"/>
<path d="M83.2152 127.609L94.9666 120.749C96.1778 120.043 96.7832 119.117 96.7836 118.192C96.7836 117.266 96.7886 116.541 96.7886 116.541L84.596 109.6C83.9499 109.223 83.4261 108.307 83.4261 107.554V92.925L62.9006 104.9L62.8999 119.529C62.8999 120.282 63.4236 121.198 64.0698 121.575L74.4417 127.609C76.8648 129.022 80.7928 129.022 83.2152 127.609Z" fill="#6A6AF4"/>
<g opacity="0.6">
<path d="M83.2152 127.609L94.9666 120.749C96.1778 120.043 96.7832 119.117 96.7836 118.192C96.7836 117.266 96.7886 116.541 96.7886 116.541L84.596 109.6C83.9499 109.223 83.4261 108.307 83.4261 107.554V92.925L62.9006 104.9L62.8999 119.529C62.8999 120.282 63.4236 121.198 64.0698 121.575L74.4417 127.609C76.8648 129.022 80.7928 129.022 83.2152 127.609Z" fill="black"/>
</g>
<path opacity="0.3" d="M67.8285 122.119V123.763L64.0667 121.574C63.4249 121.199 62.8982 120.285 62.8982 119.528V104.901L66.8087 102.623C66.8897 103.626 66.9775 104.662 67.0586 105.672L64.3166 107.274V118.703C64.3166 119.46 64.8366 120.374 65.4851 120.749L67.8285 122.119Z" fill="black"/>
<path d="M64.3162 118.706C64.3162 119.459 64.8399 120.375 65.486 120.752L74.4405 125.96C76.8633 127.372 80.7916 127.373 83.2144 125.961L94.9718 119.101C97.3949 117.689 97.3953 115.4 94.9725 113.987L86.0123 108.776C85.3661 108.399 84.8424 107.483 84.8424 106.73L84.8421 95.2998L64.3162 107.275V118.706Z" fill="#6A6AF4"/>
<path opacity="0.3" d="M64.3162 118.706C64.3162 119.459 64.8399 120.375 65.486 120.752L74.4405 125.96C76.8633 127.372 80.7916 127.373 83.2144 125.961L94.9718 119.101C97.3949 117.689 97.3953 115.4 94.9725 113.987L86.0123 108.776C85.3661 108.399 84.8424 107.483 84.8424 106.73L84.8421 95.2998L64.3162 107.275V118.706Z" fill="black"/>
<path opacity="0.5" d="M88.3945 110.166V110.165L86.0118 108.775C85.3656 108.399 84.8419 107.483 84.8419 106.73V95.2993L64.3157 107.275V118.706C64.3157 119.459 64.8394 120.375 65.4855 120.752L67.8269 122.117L88.3945 110.166Z" fill="black"/>
<path d="M96.7864 116.543C96.7864 116.543 96.7864 117.265 96.7864 118.193C96.7864 119.12 96.1786 120.041 94.9697 120.75L83.2164 127.607C82.0546 128.289 80.5487 128.63 79.0291 128.657V127.013C80.5487 126.993 82.0546 126.638 83.2164 125.963L94.9697 119.1C96.1786 118.398 96.7864 117.47 96.7864 116.543Z" fill="#6A6AF4"/>
<path opacity="0.5" d="M96.7864 116.543C96.7864 116.543 96.7864 117.265 96.7864 118.193C96.7864 119.12 96.1786 120.041 94.9697 120.75L83.2164 127.607C82.0546 128.289 80.5487 128.63 79.0291 128.657V127.013C80.5487 126.993 82.0546 126.638 83.2164 125.963L94.9697 119.1C96.1786 118.398 96.7864 117.47 96.7864 116.543Z" fill="black"/>
<path d="M31.3595 132.914C32.1169 133.355 33.386 133.332 34.1936 132.861C44.2847 126.979 103.483 92.4701 113.573 86.5887C114.381 86.118 115.035 84.9731 115.035 84.0317V19.1949C115.035 18.2535 114.421 17.1321 113.663 16.6906C112.906 16.2491 111.637 16.2725 110.829 16.7436L31.4509 63.0158C30.6434 63.4865 29.9888 64.6314 29.9888 65.5731L29.9878 130.41C29.9878 131.351 30.602 132.472 31.3595 132.914Z" fill="#6A6AF4"/>
<path d="M34.1941 132.859L113.573 86.5871C114.381 86.1164 115.035 84.9715 115.035 84.0298V19.1929C115.035 18.2515 114.381 17.8698 113.573 18.3405L34.1951 64.6128C33.3875 65.0835 32.7329 66.2283 32.7329 67.17L32.7319 132.007C32.7319 132.948 33.3865 133.33 34.1941 132.859Z" fill="#6A6AF4"/>
<path opacity="0.5" d="M34.1941 132.859L113.573 86.5871C114.381 86.1164 115.035 84.9715 115.035 84.0298V19.1929C115.035 18.2515 114.381 17.8698 113.573 18.3405L34.1951 64.6128C33.3875 65.0835 32.7329 66.2283 32.7329 67.17L32.7319 132.007C32.7319 132.948 33.3865 133.33 34.1941 132.859Z" fill="black"/>
<path d="M33.9786 134.544C33.1683 134.906 32.0473 134.892 31.3581 134.49C30.6016 134.046 29.9871 132.928 29.9871 131.98V126.077L32.729 127.679V133.583C32.7294 134.442 33.2696 134.831 33.9786 134.544Z" fill="#6A6AF4"/>
<path opacity="0.5" d="M33.9786 134.544C33.1683 134.906 32.0473 134.892 31.3581 134.49C30.6016 134.046 29.9871 132.928 29.9871 131.98V126.077L32.729 127.679V133.583C32.7294 134.442 33.2696 134.831 33.9786 134.544Z" fill="black"/>
<path d="M32.7292 127.68L32.7316 133.581C32.7316 134.522 33.3865 134.904 34.1938 134.433L113.573 88.1615C114.38 87.6908 115.035 86.546 115.035 85.6042V79.6902L32.7292 127.68Z" fill="#6A6AF4"/>
<path opacity="0.3" d="M32.7319 127.667V133.58C32.7319 134.522 33.3868 134.904 34.1941 134.433L113.573 88.161C114.381 87.6903 115.035 86.5455 115.035 85.6037V79.6897L32.7319 127.667Z" fill="black"/>
<path d="M35.4744 120.273L35.475 68.0897C35.475 67.5249 35.8679 66.8379 36.3523 66.5553L111.413 22.8C111.897 22.5174 112.29 22.7466 112.29 23.3114L112.292 75.496C112.292 76.0608 111.9 76.7478 111.415 77.0304L36.3516 120.784C35.8672 121.067 35.4744 120.838 35.4744 120.273Z" fill="#6A6AF4"/>
<path d="M35.4744 120.273L35.475 68.0897C35.475 67.5249 35.8679 66.8379 36.3523 66.5553L111.413 22.8C111.897 22.5174 112.29 22.7466 112.29 23.3114L112.292 75.496C112.292 76.0608 111.9 76.7478 111.415 77.0304L36.3516 120.784C35.8672 121.067 35.4744 120.838 35.4744 120.273Z" fill="#263238"/>
<path opacity="0.7" d="M33.1618 65.71C32.8984 66.1736 32.7363 66.6986 32.7295 67.1693V127.68L29.9875 126.077L29.9892 65.5735C29.9892 65.1031 30.1564 64.5781 30.4198 64.1145L33.1618 65.71Z" fill="black"/>
<path opacity="0.3" d="M115.02 18.9509C114.917 18.1898 114.308 17.9141 113.571 18.34L34.1947 64.6146C33.7935 64.8486 33.4305 65.2466 33.1608 65.7109L30.4185 64.112C30.6849 63.6545 31.0478 63.2497 31.4524 63.0157L110.83 16.7441C111.639 16.2727 112.904 16.2483 113.665 16.6918C114.356 17.0932 114.927 18.0676 115.02 18.9509Z" fill="black"/>
<path d="M41.6033 78.0792C41.2263 77.8591 40.9202 77.3008 40.9202 76.8318L40.9192 71.092C40.9192 70.623 41.2461 70.0528 41.6484 69.8185L116.363 26.2597C116.766 26.0254 117.397 26.0135 117.775 26.2336C118.152 26.4536 118.458 27.0119 118.456 27.4803L118.457 33.2207C118.458 33.6901 118.132 34.2596 117.73 34.494L43.0144 78.0524C42.6121 78.2867 41.9807 78.2989 41.6033 78.0792Z" fill="#6A6AF4"/>
<path opacity="0.4" d="M118.449 27.361C118.399 26.9806 118.093 26.8413 117.73 27.0553L43.0145 70.6134C42.8161 70.7322 42.6344 70.9326 42.4999 71.1636L41.1343 70.3655C41.2688 70.1345 41.4471 69.9369 41.6489 69.818L116.364 26.2603C116.764 26.0259 117.397 26.0123 117.773 26.2331C118.12 26.4372 118.406 26.9191 118.449 27.361Z" fill="white"/>
<path d="M43.0145 124.774C43.0045 124.777 42.8295 124.91 42.4424 124.949C42.1427 124.979 41.8302 124.933 41.6049 124.801C41.2248 124.58 40.9221 124.023 40.9221 123.554L40.9187 79.8L42.2877 80.5981V124.349C42.2877 124.682 42.4532 124.874 42.692 124.874C42.726 124.874 42.8561 124.864 43.0145 124.774Z" fill="#F0F0F0"/>
<path opacity="0.1" d="M42.4996 71.1638C42.3684 71.3914 42.2877 71.6529 42.2877 71.8872V80.5983L40.9187 79.8002L40.9194 71.0918C40.9194 71.0613 40.9207 71.0337 40.9231 71.0032C40.9288 70.9342 40.9375 70.8819 40.9513 70.8208C40.9883 70.668 41.0506 70.5056 41.134 70.3657L42.4996 71.1638Z" fill="black"/>
<path d="M118.456 27.4793L118.457 31.4086L64.8745 62.6493C64.4743 62.8836 64.148 62.6934 64.148 62.2247V60.7372C64.148 60.2686 63.8217 60.0784 63.4181 60.3127L45.7492 70.6132C45.3456 70.8475 45.0193 71.4181 45.0193 71.8867V73.3742C45.0193 73.8429 44.693 74.4134 44.2928 74.6478L42.2881 75.816V71.8867C42.2881 71.4181 42.6144 70.8475 43.0146 70.6132L117.73 27.0548C118.13 26.8208 118.456 27.0106 118.456 27.4793Z" fill="#6A6AF4"/>
<path d="M42.6908 124.705C42.4789 124.705 42.4561 124.457 42.4561 124.35V75.915L44.3767 74.796C44.6111 74.6588 44.8015 74.0471 45.1795 72.6846C45.3787 71.9667 45.68 70.8813 45.8361 70.7597L63.1834 60.6467C63.3314 60.7248 63.6577 61.3042 63.8551 61.655C64.2793 62.4086 64.5332 62.8348 64.8205 62.8348C64.8696 62.8348 64.9164 62.8222 64.9591 62.7971L118.289 31.7039V79.9425C118.289 80.3514 117.995 80.8672 117.646 81.0693L42.9303 124.628C42.8435 124.678 42.7611 124.705 42.6908 124.705Z" fill="#FAFAFA"/>
<path d="M118.121 31.9976V36.1912V79.9421C118.121 80.2916 117.86 80.7494 117.562 80.9223L42.8459 124.481C42.7622 124.53 42.7097 124.535 42.6909 124.535C42.6249 124.535 42.6243 124.357 42.6243 124.349V76.0128L44.4614 74.9424C44.7521 74.7722 44.9337 74.2006 45.3417 72.7301C45.5237 72.0747 45.7965 71.0915 45.9438 70.8928L63.1609 60.8556C63.3096 61.0288 63.5538 61.4628 63.7089 61.7385C64.1771 62.5703 64.4391 63.0043 64.8202 63.0043C64.8982 63.0043 64.9752 62.9832 65.0425 62.9438L118.121 31.9976ZM118.457 31.4094L64.8747 62.6501C64.8575 62.6599 64.8393 62.665 64.8205 62.665C64.4135 62.665 63.5871 60.4711 63.1774 60.4711C63.1582 60.4711 63.1401 60.4759 63.1229 60.4861L45.7497 70.6143C45.3461 70.8487 44.6935 74.4146 44.2933 74.6489L42.2886 75.8172V124.35C42.2886 124.682 42.4531 124.875 42.6915 124.875C42.7891 124.875 42.8991 124.843 43.0154 124.775L117.731 81.217C118.134 80.9827 118.457 80.4115 118.457 79.9428V36.1912V31.4094H118.457Z" fill="#E0E0E0"/>
<path d="M55.0684 97.0359L65.0256 91.2312C65.2936 91.075 65.5109 91.2017 65.5109 91.5141V108.443C65.5109 108.755 65.2936 109.135 65.0256 109.292L55.0684 115.096C54.8003 115.252 54.583 115.126 54.583 114.813V97.8849C54.5827 97.5721 54.8003 97.1921 55.0684 97.0359Z" fill="#F0F0F0"/>
<path d="M56.8895 98.0973L63.2043 94.4162C63.4724 94.26 63.6897 94.3711 63.6897 94.6642C63.6897 94.9572 63.4724 95.3216 63.2043 95.4782L56.8892 99.1593C56.6211 99.3155 56.4038 99.2044 56.4038 98.9114C56.4041 98.6179 56.6214 98.2535 56.8895 98.0973Z" fill="#E0E0E0"/>
<path d="M56.4038 100.844V101.227C56.4038 101.414 56.5343 101.49 56.6951 101.396L57.0237 101.205C57.1845 101.111 57.315 100.883 57.315 100.695V100.313C57.315 100.125 57.1845 100.049 57.0237 100.143L56.6954 100.334C56.5343 100.428 56.4038 100.656 56.4038 100.844Z" fill="#6A6AF4"/>
<path d="M58.2256 99.9734C58.2256 100.266 58.4429 100.378 58.711 100.221L63.2044 97.6019C63.4724 97.4457 63.6897 97.0813 63.6897 96.7882C63.6897 96.4951 63.4724 96.384 63.2044 96.5403L58.711 99.1597C58.4429 99.3156 58.2256 99.68 58.2256 99.9734Z" fill="#E0E0E0"/>
<path d="M56.4038 102.969V103.352C56.4038 103.54 56.5343 103.616 56.6951 103.522L57.0237 103.33C57.1845 103.237 57.315 103.008 57.315 102.821V102.438C57.315 102.251 57.1845 102.175 57.0237 102.268L56.6954 102.46C56.5343 102.554 56.4038 102.782 56.4038 102.969Z" fill="#6A6AF4"/>
<path d="M58.2256 102.099C58.2256 102.392 58.4429 102.503 58.711 102.347L63.2044 99.7274C63.4724 99.5712 63.6897 99.2067 63.6897 98.9137C63.6897 98.6206 63.4724 98.5095 63.2044 98.6657L58.711 101.285C58.4429 101.441 58.2256 101.806 58.2256 102.099Z" fill="#E0E0E0"/>
<path d="M56.4038 105.091V105.474C56.4038 105.662 56.5343 105.738 56.6951 105.644L57.0237 105.452C57.1845 105.359 57.315 105.131 57.315 104.943V104.56C57.315 104.373 57.1845 104.297 57.0237 104.39L56.6954 104.582C56.5343 104.676 56.4038 104.904 56.4038 105.091Z" fill="#6A6AF4"/>
<path d="M58.2256 104.221C58.2256 104.515 58.4429 104.626 58.711 104.469L63.2044 101.85C63.4724 101.694 63.6897 101.329 63.6897 101.036C63.6897 100.743 63.4724 100.632 63.2044 100.788L58.711 103.408C58.4429 103.564 58.2256 103.928 58.2256 104.221Z" fill="#E0E0E0"/>
<path d="M56.4038 107.213V107.596C56.4038 107.783 56.5343 107.859 56.6951 107.765L57.0237 107.574C57.1845 107.48 57.315 107.252 57.315 107.064V106.682C57.315 106.494 57.1845 106.418 57.0237 106.512L56.6954 106.703C56.5343 106.797 56.4038 107.025 56.4038 107.213Z" fill="#6A6AF4"/>
<path d="M58.2256 106.342C58.2256 106.635 58.4429 106.746 58.711 106.59L63.2044 103.971C63.4724 103.815 63.6897 103.45 63.6897 103.157C63.6897 102.864 63.4724 102.753 63.2044 102.909L58.711 105.528C58.4429 105.685 58.2256 106.049 58.2256 106.342Z" fill="#E0E0E0"/>
<path d="M56.8512 109.798L63.166 106.117C63.434 105.961 63.6513 106.072 63.6513 106.365C63.6513 106.658 63.434 107.022 63.166 107.179L56.8508 110.86C56.5828 111.016 56.3655 110.905 56.3655 110.612C56.3655 110.319 56.5831 109.954 56.8512 109.798Z" fill="#E0E0E0"/>
<path d="M56.365 112.544V112.927C56.365 113.115 56.4955 113.191 56.6563 113.097L56.9849 112.905C57.1457 112.812 57.2762 112.583 57.2762 112.396V112.013C57.2762 111.826 57.1457 111.75 56.9849 111.843L56.6566 112.035C56.4952 112.129 56.365 112.357 56.365 112.544Z" fill="#6A6AF4"/>
<path d="M58.1863 111.674C58.1863 111.967 58.4036 112.078 58.6716 111.922L63.165 109.302C63.4331 109.146 63.6504 108.782 63.6504 108.489C63.6504 108.196 63.4331 108.084 63.165 108.241L58.6716 110.86C58.4036 111.016 58.1863 111.381 58.1863 111.674Z" fill="#E0E0E0"/>
<path d="M115.041 29.9438C115.547 29.6486 115.957 29.8881 115.957 30.478C115.957 31.0679 115.547 31.7855 115.041 32.0806C114.535 32.3757 114.125 32.1366 114.125 31.5464C114.125 30.9565 114.535 30.2389 115.041 29.9438Z" fill="white"/>
<path d="M111.742 31.8642C112.249 31.569 112.659 31.8085 112.659 32.3984C112.659 32.9883 112.248 33.7059 111.742 34.001C111.236 34.2961 110.826 34.0567 110.826 33.4668C110.826 32.8766 111.236 32.159 111.742 31.8642Z" fill="white"/>
<path d="M108.443 33.7851C108.949 33.4899 109.359 33.7294 109.359 34.3193C109.359 34.9092 108.949 35.6268 108.443 35.9219C107.937 36.217 107.527 35.9776 107.527 35.3877C107.527 34.7975 107.937 34.0799 108.443 33.7851Z" fill="white"/>
<path d="M118.457 31.4094V36.1912L42.2883 80.5986V75.8169L43.7855 74.9413C44.1857 74.707 44.3203 74.3508 44.512 73.6678L45.0196 71.8875C45.1797 71.2695 45.3458 70.8483 45.7495 70.614L63.1227 60.4857C63.5263 60.2514 63.8411 60.2256 64.1482 60.7381L64.7712 61.8795C64.9995 62.2782 65.1139 62.5125 65.5142 62.2782L118.457 31.4094Z" fill="#E6E6E6"/>
<path d="M42.2884 75.8172V80.5989L40.9194 79.8005V75.0225L42.2884 75.8172Z" fill="#E0E0E0"/>
<path opacity="0.5" d="M45.6281 76.1613L44.4848 76.8277L44.9207 75.9813C44.9591 75.907 44.9628 75.8146 44.9295 75.7745C44.8962 75.7341 44.838 75.7626 44.8 75.8367L44.1797 77.0413C44.179 77.0426 44.1787 77.0443 44.178 77.046C44.1713 77.0599 44.1659 77.0752 44.1616 77.0905C44.1599 77.0956 44.1575 77.1 44.1565 77.1051C44.1515 77.1258 44.1484 77.1469 44.1484 77.1673C44.1484 77.188 44.1515 77.2053 44.1565 77.2202C44.1579 77.224 44.1602 77.2257 44.1616 77.2291C44.1663 77.2393 44.1713 77.2484 44.178 77.2542C44.1787 77.2549 44.179 77.2562 44.1797 77.2569L44.8 77.7382C44.8175 77.7517 44.839 77.7507 44.8605 77.7382C44.8861 77.7232 44.9116 77.692 44.9298 77.6488C44.9634 77.5697 44.9594 77.4817 44.9211 77.4522L44.4851 77.1139L45.6284 76.4476C45.6792 76.4181 45.7202 76.3301 45.7202 76.251C45.7202 76.1719 45.6789 76.1314 45.6281 76.1613Z" fill="#455A64"/>
<path opacity="0.5" d="M46.5834 75.6046L47.7267 74.9383L47.2907 74.6C47.2524 74.5705 47.2484 74.4822 47.282 74.4034C47.3153 74.3243 47.3735 74.2849 47.4115 74.3141L48.0317 74.7956C48.0324 74.7963 48.0327 74.7977 48.0334 74.7984C48.0401 74.8041 48.0455 74.8133 48.0499 74.8235C48.0516 74.8265 48.0536 74.8286 48.0549 74.8323C48.06 74.8469 48.063 74.8646 48.063 74.8853C48.063 74.906 48.06 74.9271 48.0549 74.9474C48.0536 74.9525 48.0512 74.9573 48.0499 74.9621C48.0452 74.9777 48.0401 74.9926 48.0334 75.0065C48.0327 75.0079 48.0324 75.0096 48.0317 75.0113L47.4115 76.2159C47.394 76.2499 47.3725 76.274 47.3509 76.2865C47.3254 76.3015 47.2998 76.2998 47.2817 76.2781C47.248 76.238 47.2521 76.1456 47.2904 76.0712L47.7263 75.2249L46.583 75.8912C46.5322 75.9208 46.4912 75.8807 46.4912 75.8019C46.4912 75.7224 46.5326 75.6345 46.5834 75.6046Z" fill="#455A64"/>
<path opacity="0.5" d="M50.3335 72.2808C50.3264 72.2112 50.2666 72.22 50.236 72.2954L50.0792 72.6819C49.8121 72.6527 49.4886 72.9159 49.2703 73.3829C48.9871 73.9881 48.9871 74.7043 49.2703 74.9794C49.4119 75.1169 49.5979 75.1186 49.7839 75.01C49.9699 74.9016 50.1556 74.6833 50.2972 74.3807C50.3332 74.3039 50.3332 74.2132 50.2972 74.1786C50.2612 74.1436 50.203 74.1776 50.167 74.2543C49.9554 74.7057 49.6117 74.9067 49.4001 74.7013C49.1885 74.4958 49.1885 73.9609 49.4001 73.5092C49.5505 73.1876 49.7671 72.9974 49.9558 72.9859L49.8377 73.2773C49.8071 73.353 49.835 73.4233 49.8831 73.3917L50.3493 73.0844C50.3819 73.063 50.4061 73.0028 50.4014 72.9553L50.3335 72.2808Z" fill="#455A64"/>
<path opacity="0.5" d="M62.6207 62.6682L63.0374 61.7774C63.0865 61.6721 63.0865 61.5482 63.0374 61.5003C62.988 61.4524 62.9082 61.4989 62.8591 61.6042L62.4424 62.495L62.0256 62.0902C61.9765 62.0423 61.8965 62.0888 61.8474 62.1941C61.7983 62.2994 61.7983 62.4234 61.8474 62.4712L62.2641 62.8761L61.8474 63.7669C61.7983 63.8721 61.7983 63.9961 61.8474 64.044C61.8719 64.0678 61.9042 64.0681 61.9365 64.0494C61.9688 64.0307 62.0011 63.9927 62.0256 63.9401L62.4424 63.0493L62.8591 63.4541C62.8837 63.4779 62.916 63.4782 62.9483 63.4595C62.9806 63.4408 63.0129 63.4028 63.0374 63.3502C63.0865 63.2449 63.0865 63.1209 63.0374 63.073L62.6207 62.6682Z" fill="#455A64"/>
<path d="M51.8506 73.3755V71.8877C51.8506 71.4187 52.1765 70.8485 52.5788 70.6141L113.631 35.0376C114.033 34.8033 114.359 34.9932 114.359 35.4622V36.95C114.359 37.419 114.033 37.9892 113.631 38.2236L52.5788 73.8C52.1765 74.0347 51.8506 73.8445 51.8506 73.3755Z" fill="#FAFAFA"/>
<path d="M113.206 35.8238L113.397 36.234C113.409 36.2598 113.432 36.269 113.459 36.2588L113.887 36.0931C113.955 36.0669 113.982 36.1634 113.933 36.2564L113.623 36.8429C113.604 36.88 113.595 36.9221 113.599 36.9554L113.672 37.4862C113.684 37.5704 113.613 37.6815 113.552 37.6736L113.17 37.6258C113.146 37.6227 113.117 37.6397 113.093 37.6706L112.71 38.1644C112.649 38.2428 112.579 38.2146 112.59 38.1168L112.663 37.5008C112.668 37.4621 112.659 37.4301 112.639 37.4159L112.33 37.19C112.281 37.1544 112.308 37.026 112.376 36.973L112.804 36.6402C112.83 36.6191 112.854 36.5828 112.866 36.5427L113.058 35.9094C113.087 35.8098 113.175 35.7586 113.206 35.8238Z" stroke="#E0E0E0" stroke-width="0.684466" stroke-miterlimit="10"/>
<g opacity="0.5">
<path d="M115.218 34.8564C115.13 34.8564 115.046 34.8109 114.999 34.729C114.93 34.6071 114.971 34.4515 115.091 34.3812L117.141 33.1865C117.262 33.1162 117.416 33.158 117.486 33.2795C117.555 33.4015 117.514 33.557 117.393 33.6276L115.344 34.8224C115.304 34.8452 115.26 34.8564 115.218 34.8564Z" fill="#455A64"/>
<path d="M115.218 36.051C115.13 36.051 115.046 36.0055 114.999 35.9236C114.93 35.8017 114.971 35.6462 115.091 35.5759L117.141 34.3811C117.262 34.3101 117.416 34.3526 117.486 34.4742C117.555 34.5961 117.514 34.7516 117.393 34.8219L115.344 36.0167C115.304 36.0398 115.26 36.051 115.218 36.051Z" fill="#455A64"/>
<path d="M115.218 37.2463C115.13 37.2463 115.046 37.2008 114.999 37.119C114.93 36.997 114.971 36.8415 115.091 36.7712L117.141 35.5764C117.262 35.5055 117.416 35.5479 117.486 35.6695C117.555 35.7914 117.514 35.947 117.393 36.0173L115.344 37.212C115.304 37.2351 115.26 37.2463 115.218 37.2463Z" fill="#455A64"/>
</g>
<path d="M42.2879 80.5986L42.2849 85.3736L118.448 40.9753L118.457 36.1912L42.2879 80.5986Z" fill="#455A64"/>
<path d="M50.8191 77.5533V78.4767C50.8191 78.6656 50.9516 78.7426 51.1134 78.6482L62.557 71.9728V70.363L51.1134 77.0385C50.9516 77.1329 50.8191 77.3648 50.8191 77.5533Z" fill="#FAFAFA"/>
<path d="M64.1042 69.4613C64.2667 69.3665 64.3985 69.4433 64.3985 69.6328V70.5562C64.3985 70.7457 64.2667 70.9763 64.1042 71.071L62.5576 71.9727V70.3629L64.1042 69.4613Z" fill="#6A6AF4"/>
<path d="M63.9897 70.7276L63.8172 70.6733C63.835 70.5992 63.8447 70.5232 63.8447 70.4488C63.8447 70.2705 63.7876 70.135 63.6877 70.0769C63.6133 70.0338 63.5239 70.0379 63.4361 70.0891C63.2427 70.2019 63.0913 70.5198 63.0913 70.8135C63.0913 70.9918 63.1485 71.1273 63.2487 71.1854C63.2827 71.2051 63.3197 71.215 63.358 71.215C63.4041 71.215 63.4522 71.201 63.5 71.1732C63.616 71.1053 63.7166 70.963 63.7785 70.7966L63.9514 70.8509C63.9578 70.8529 63.9642 70.854 63.9705 70.854C63.9978 70.854 64.023 70.8363 64.0318 70.8084C64.0422 70.7745 64.0234 70.7385 63.9897 70.7276ZM63.4361 71.0615C63.3883 71.0893 63.3466 71.0937 63.3126 71.0737C63.2551 71.0401 63.2195 70.9406 63.2195 70.8135C63.2195 70.5704 63.3479 70.2899 63.5003 70.2009C63.5286 70.1846 63.5545 70.1764 63.5777 70.1764C63.5942 70.1764 63.6096 70.1805 63.6238 70.1887C63.6813 70.2223 63.7169 70.3218 63.7169 70.4488C63.7169 70.6923 63.5881 70.9728 63.4361 71.0615Z" fill="#FAFAFA"/>
<path d="M48.8231 78.3786L48.041 78.8343C47.8803 78.9281 47.7498 79.1563 47.7498 79.3438V80.2573C47.7498 80.4448 47.8803 80.5209 48.041 80.4271L48.8231 79.9714C48.9839 79.8776 49.1144 79.6494 49.1144 79.4619V78.548C49.1144 78.3606 48.9839 78.2848 48.8231 78.3786Z" fill="#FAFAFA"/>
<path d="M75.9429 62.1799C75.3664 62.5161 74.8992 63.3332 74.8992 64.0056C74.8992 64.6777 75.3667 64.9504 75.9432 64.6142C76.5197 64.278 76.9876 63.4609 76.9869 62.7885C76.9863 62.1164 76.5191 61.8437 75.9429 62.1799Z" fill="#6A6AF4"/>
<path d="M75.8212 63.2524C75.7879 63.2524 75.7567 63.2442 75.7287 63.2279C75.6638 63.1902 75.6282 63.1152 75.6282 63.017C75.6282 62.8374 75.7489 62.6261 75.903 62.5365C75.9867 62.4875 76.0688 62.4811 76.1341 62.5188C76.199 62.5568 76.2346 62.6315 76.2346 62.7297C76.2346 62.9093 76.1139 63.1206 75.9598 63.2102C75.9121 63.2381 75.865 63.2524 75.8212 63.2524Z" fill="white"/>
<path d="M76.355 63.3224C76.2524 63.2623 76.1219 63.2725 75.9877 63.3509L75.836 63.4389C75.5726 63.5927 75.3665 63.9537 75.3665 64.2608V64.3691C75.5151 64.4526 75.7183 64.4384 75.943 64.3076C76.1673 64.1772 76.3708 63.9541 76.5195 63.698V63.6719C76.5192 63.5102 76.4596 63.3832 76.355 63.3224Z" fill="white"/>
<path d="M78.3309 61.3625L85.4802 57.1948C85.7698 57.026 86.0046 57.154 86.0046 57.4807C86.0046 57.8074 85.7698 58.2092 85.4802 58.378L78.3313 62.5457C78.0417 62.7145 77.8069 62.5865 77.8069 62.2598C77.8069 61.9331 78.0413 61.5313 78.3309 61.3625Z" fill="#E0E0E0"/>
<path d="M89.2435 55.0106L93.6781 52.4003C93.9677 52.2316 94.2024 52.3596 94.2024 52.6863C94.2024 53.013 93.9677 53.4148 93.6784 53.5836L89.2439 56.1938C88.9543 56.3626 88.7195 56.2346 88.7195 55.9079C88.7195 55.5812 88.9539 55.1794 89.2435 55.0106Z" fill="#E0E0E0"/>
<path d="M97.4503 50.2495L100.509 48.4553C100.799 48.2865 101.034 48.4145 101.034 48.7412C101.034 49.0679 100.799 49.4697 100.51 49.6385L97.4506 51.4327C97.161 51.6014 96.9263 51.4734 96.9263 51.1467C96.9263 50.8197 97.1607 50.4182 97.4503 50.2495Z" fill="#E0E0E0"/>
<path d="M87.3715 57.6283C87.3019 57.6283 87.2454 57.5712 87.2454 57.5009V55.9081C87.2454 55.8378 87.3019 55.7808 87.3715 55.7808C87.4411 55.7808 87.4976 55.8378 87.4976 55.9081V57.5009C87.4976 57.5712 87.4411 57.6283 87.3715 57.6283Z" fill="#263238"/>
<path d="M95.569 52.8494C95.4994 52.8494 95.4429 52.7924 95.4429 52.7221V51.1293C95.4429 51.059 95.4994 51.002 95.569 51.002C95.6386 51.002 95.6951 51.059 95.6951 51.1293V52.7221C95.6951 52.7924 95.6386 52.8494 95.569 52.8494Z" fill="#263238"/>
<path d="M102.4 48.867C102.331 48.867 102.274 48.81 102.274 48.7397V47.1469C102.274 47.0766 102.331 47.0195 102.4 47.0195C102.47 47.0195 102.526 47.0766 102.526 47.1469V48.7397C102.526 48.81 102.47 48.867 102.4 48.867Z" fill="#263238"/>
<path d="M105.028 46.4107V46.1179C105.028 45.7837 104.827 45.6302 104.579 45.7749C104.331 45.9196 104.129 46.3078 104.129 46.6419V46.9038C104.129 47.0685 104.073 47.2556 103.978 47.4149L103.977 47.4159C103.955 47.457 103.941 47.5052 103.941 47.5497C103.941 47.634 103.991 47.6727 104.054 47.636L105.104 47.024C105.166 46.9877 105.217 46.8899 105.217 46.8056C105.217 46.7635 105.204 46.733 105.184 46.7173C105.183 46.717 105.183 46.7167 105.182 46.7163C105.089 46.6739 105.028 46.5683 105.028 46.4107Z" fill="#6A6AF4"/>
<path d="M104.794 47.2952C104.794 47.4555 104.697 47.6419 104.578 47.7115C104.459 47.7808 104.362 47.7071 104.362 47.5468L104.794 47.2952Z" fill="#6A6AF4"/>
<path d="M106.948 45.1269C106.91 45.1269 106.875 45.1177 106.843 45.0994C106.77 45.0566 106.73 44.972 106.73 44.8613C106.73 44.6585 106.866 44.4201 107.04 44.3189C107.134 44.2636 107.227 44.2568 107.301 44.2992C107.374 44.342 107.414 44.4266 107.414 44.5373C107.414 44.74 107.278 44.9785 107.104 45.0797C107.05 45.1109 106.997 45.1269 106.948 45.1269Z" fill="#6A6AF4"/>
<path d="M107.551 45.2062C107.435 45.1386 107.288 45.1498 107.136 45.2384L106.965 45.3376C106.668 45.5112 106.435 45.9187 106.435 46.2651V46.3874C106.602 46.4814 106.831 46.4655 107.085 46.3177C107.338 46.1707 107.568 45.919 107.736 45.6297V45.6001C107.736 45.4181 107.669 45.2748 107.551 45.2062Z" fill="#6A6AF4"/>
<path d="M107.781 44.3402C107.744 44.3402 107.709 44.3311 107.677 44.3127C107.603 44.2699 107.563 44.1854 107.563 44.0747C107.563 43.8719 107.699 43.6335 107.873 43.5323C107.968 43.4769 108.06 43.4702 108.134 43.5126C108.207 43.5554 108.248 43.64 108.248 43.7507C108.248 43.9534 108.111 44.1918 107.938 44.293C107.884 44.3243 107.831 44.3402 107.781 44.3402Z" fill="#6A6AF4"/>
<path d="M108.385 44.4195C108.267 44.3516 108.123 44.3618 107.968 44.4501L107.8 44.552C107.615 44.6573 107.457 44.8542 107.366 45.0682C107.5 45.0037 107.631 45.0003 107.732 45.0614C107.85 45.1293 107.917 45.272 107.917 45.4554V45.4825V45.5301C108.173 45.384 108.402 45.1327 108.57 44.8441V44.8135C108.57 44.6301 108.503 44.4875 108.385 44.4195Z" fill="#6A6AF4"/>
<path d="M110.462 42.2462C109.989 42.5216 109.606 43.1934 109.606 43.747C109.606 43.9847 109.68 44.1572 109.798 44.2601L109.691 44.7723C109.677 44.8378 109.72 44.8646 109.762 44.8164L110.146 44.362C110.244 44.3505 110.35 44.3155 110.462 44.2506C110.934 43.9752 111.317 43.3034 111.317 42.7499C111.317 42.1963 110.934 41.9711 110.462 42.2462Z" fill="#6A6AF4"/>
<path d="M114.576 39.828C114.651 39.7842 114.721 39.7591 114.788 39.753C114.854 39.7465 114.912 39.7577 114.961 39.7866C115.01 39.8155 115.048 39.8606 115.076 39.9225C115.104 39.9843 115.118 40.0617 115.118 40.1554C115.118 40.2301 115.11 40.3004 115.094 40.3663C115.078 40.4319 115.058 40.4947 115.033 40.5548C115.009 40.6153 114.982 40.672 114.952 40.7256C114.923 40.7793 114.894 40.8319 114.867 40.8832C114.839 40.9345 114.814 40.9861 114.793 41.0374C114.77 41.0887 114.755 41.1396 114.747 41.1902C114.743 41.2154 114.737 41.2391 114.728 41.2609C114.719 41.2826 114.708 41.2975 114.693 41.306L114.448 41.449C114.433 41.4578 114.42 41.4568 114.41 41.4466C114.399 41.4361 114.393 41.4195 114.393 41.3967C114.393 41.3281 114.402 41.2612 114.42 41.1967C114.438 41.1318 114.461 41.0697 114.488 41.0092C114.514 40.9488 114.544 40.8907 114.575 40.835C114.607 40.779 114.636 40.7263 114.662 40.6761C114.689 40.6261 114.712 40.5782 114.73 40.5321C114.748 40.4859 114.757 40.4424 114.757 40.4006C114.757 40.3402 114.742 40.3015 114.713 40.2841C114.683 40.2668 114.638 40.2763 114.576 40.3123C114.516 40.3476 114.473 40.3867 114.447 40.4302C114.42 40.4733 114.401 40.5154 114.389 40.5555C114.377 40.5959 114.367 40.6326 114.358 40.6659C114.349 40.6991 114.332 40.7229 114.307 40.7379L114.061 40.8808C114.05 40.888 114.039 40.8876 114.03 40.8802C114.022 40.8727 114.017 40.8588 114.017 40.8377C114.019 40.764 114.032 40.6798 114.057 40.5847C114.083 40.4896 114.119 40.3945 114.167 40.2991C114.215 40.2037 114.273 40.114 114.341 40.0308C114.409 39.9469 114.487 39.8797 114.576 39.828ZM114.751 41.8593C114.751 41.882 114.745 41.9051 114.734 41.9279C114.724 41.9506 114.711 41.9666 114.696 41.9751L114.443 42.1228C114.428 42.1313 114.416 42.1303 114.405 42.1201C114.394 42.1099 114.389 42.0933 114.389 42.0702V41.7547C114.389 41.7319 114.394 41.7088 114.405 41.6857C114.416 41.663 114.428 41.6473 114.443 41.6385L114.696 41.4908C114.711 41.4823 114.724 41.483 114.734 41.4935C114.746 41.504 114.751 41.5207 114.751 41.5434V41.8593Z" fill="#6A6AF4"/>
<path d="M54.5818 80.6516V94.8787C54.5818 95.3477 54.9077 95.5375 55.31 95.3032L105.434 66.0771C105.837 65.8428 106.163 65.2726 106.163 64.8036V50.5762C106.163 50.1072 105.837 49.9173 105.434 50.1517L55.3103 79.3781C54.9081 79.6124 54.5818 80.1826 54.5818 80.6516Z" fill="#6A6AF4"/>
<path opacity="0.7" d="M54.5818 80.6516V94.8787C54.5818 95.3477 54.9077 95.5375 55.31 95.3032L105.434 66.0771C105.837 65.8428 106.163 65.2726 106.163 64.8036V50.5762C106.163 50.1072 105.837 49.9173 105.434 50.1517L55.3103 79.3781C54.9081 79.6124 54.5818 80.1826 54.5818 80.6516Z" fill="white"/>
<path d="M58.6803 82.7234C57.1714 83.6037 55.9478 85.7429 55.9478 87.5028C55.9481 89.2623 57.1714 89.9755 58.6807 89.0959C60.1899 88.216 61.4146 86.0764 61.4132 84.3165C61.4119 82.557 60.1882 81.8438 58.6803 82.7234Z" fill="#6A6AF4"/>
<path d="M58.3618 85.5301C58.2744 85.5301 58.193 85.5091 58.1193 85.4663C57.9495 85.3671 57.856 85.1711 57.856 84.9144C57.856 84.4444 58.1718 83.8915 58.5754 83.6561C58.7947 83.5278 59.0093 83.5111 59.1802 83.6103C59.3501 83.7095 59.4436 83.9054 59.4436 84.1625C59.4436 84.6325 59.1277 85.1854 58.7244 85.4208C58.5996 85.4931 58.4762 85.5301 58.3618 85.5301Z" fill="white"/>
<path d="M59.7601 85.7129C59.4917 85.556 59.1503 85.5825 58.7982 85.7876L58.4013 86.0182C57.7121 86.421 57.1719 87.3661 57.1719 88.1693V88.4529C57.561 88.6712 58.0925 88.6339 58.6808 88.2915C59.2677 87.9502 59.8005 87.3664 60.1897 86.6957V86.6271C60.1897 86.2046 60.0339 85.8721 59.7601 85.7129Z" fill="white"/>
<path d="M63.3043 82.1427L69.092 78.7687C69.3816 78.5999 69.6163 78.7062 69.6163 79.0057C69.6163 79.3053 69.3816 79.6853 69.092 79.8541L63.3039 83.2292C63.0143 83.398 62.7795 83.2917 62.7795 82.9914C62.7799 82.6916 63.0147 82.3115 63.3043 82.1427Z" fill="#455A64"/>
<path d="M63.0881 84.4022L66.4911 82.4182C66.6613 82.319 66.7995 82.3815 66.7995 82.5578C66.7995 82.734 66.6616 82.9575 66.4914 83.0567L63.0881 85.041C62.9179 85.1402 62.7797 85.0777 62.78 84.9015C62.78 84.7249 62.9179 84.5014 63.0881 84.4022Z" fill="#455A64"/>
<path d="M55.3102 95.3228L105.435 66.0967C105.837 65.8624 106.163 65.2922 106.163 64.8232V62.4924L54.582 92.5607V94.898C54.582 95.3673 54.908 95.5575 55.3102 95.3228Z" fill="#F5F5F5"/>
<path d="M68.2443 87.0942C68.1747 87.0942 68.1182 87.0371 68.1182 86.9668V85.3737C68.1182 85.3034 68.1747 85.2463 68.2443 85.2463C68.3139 85.2463 68.3704 85.3034 68.3704 85.3737V86.9668C68.3704 87.0371 68.3139 87.0942 68.2443 87.0942Z" fill="#EBEBEB"/>
<path d="M62.1316 89.1918L66.5661 86.5815C66.8557 86.4127 67.0905 86.5407 67.0905 86.8675C67.0905 87.1942 66.8561 87.5959 66.5661 87.7647L62.1316 90.375C61.842 90.5438 61.6072 90.4157 61.6072 90.089C61.6075 89.7623 61.842 89.3605 62.1316 89.1918Z" fill="#E0E0E0"/>
<path d="M76.2526 82.3953C76.183 82.3953 76.1265 82.3383 76.1265 82.268V80.6752C76.1265 80.6049 76.183 80.5479 76.2526 80.5479C76.3222 80.5479 76.3787 80.6049 76.3787 80.6752V82.268C76.3787 82.3383 76.3222 82.3953 76.2526 82.3953Z" fill="#EBEBEB"/>
<path d="M70.1399 84.493L74.5744 81.8828C74.864 81.714 75.0988 81.842 75.0988 82.1687C75.0988 82.4954 74.864 82.8972 74.5744 83.066L70.1399 85.6762C69.8503 85.845 69.6155 85.717 69.6155 85.3903C69.6158 85.0636 69.8503 84.6618 70.1399 84.493Z" fill="#E0E0E0"/>
<path d="M84.2611 77.6966C84.1915 77.6966 84.135 77.6396 84.135 77.5693V75.9765C84.135 75.9062 84.1915 75.8491 84.2611 75.8491C84.3308 75.8491 84.3873 75.9062 84.3873 75.9765V77.5693C84.3873 77.6396 84.3308 77.6966 84.2611 77.6966Z" fill="#EBEBEB"/>
<path d="M78.1484 79.7943L82.5829 77.184C82.8726 77.0152 83.1073 77.1433 83.1073 77.47C83.1073 77.7967 82.8726 78.1985 82.5829 78.3672L78.1484 80.9775C77.8588 81.1463 77.624 81.0183 77.624 80.6916C77.624 80.3652 77.8588 79.9634 78.1484 79.7943Z" fill="#E0E0E0"/>
<path d="M92.2692 72.9979C92.1996 72.9979 92.1431 72.9408 92.1431 72.8705V71.2777C92.1431 71.2074 92.1996 71.1504 92.2692 71.1504C92.3388 71.1504 92.3953 71.2074 92.3953 71.2777V72.8705C92.3953 72.9408 92.3388 72.9979 92.2692 72.9979Z" fill="#EBEBEB"/>
<path d="M86.1566 75.0958L90.5911 72.4856C90.8808 72.3168 91.1155 72.4448 91.1155 72.7715C91.1155 73.0982 90.8808 73.5 90.5915 73.6688L86.1569 76.279C85.8673 76.4478 85.6326 76.3198 85.6326 75.9931C85.6322 75.6664 85.867 75.2646 86.1566 75.0958Z" fill="#E0E0E0"/>
<path d="M94.1649 70.3971L98.5995 67.7868C98.8891 67.618 99.1238 67.7461 99.1238 68.0728C99.1238 68.3995 98.8894 68.8012 98.5998 68.97L94.1653 71.5803C93.8756 71.7491 93.6409 71.6211 93.6409 71.2943C93.6405 70.9676 93.8753 70.5659 94.1649 70.3971Z" fill="#E0E0E0"/>
<path d="M52.8212 142.994L57.293 140.393C57.293 140.393 60.0673 132.147 59.3647 124.554C58.4918 115.116 54.0788 111.8 51.4848 112.853C48.8908 113.906 49.428 117.665 52.1753 122.707C54.3543 126.706 54.3593 135.917 52.8212 142.994Z" fill="#6A6AF4"/>
<path opacity="0.1" d="M52.8212 142.994L57.293 140.393C57.293 140.393 60.0673 132.147 59.3647 124.554C58.4918 115.116 54.0788 111.8 51.4848 112.853C48.8908 113.906 49.428 117.665 52.1753 122.707C54.3543 126.706 54.3593 135.917 52.8212 142.994Z" fill="black"/>
<path d="M54.9702 141.959C55.0553 141.959 55.135 141.904 55.1629 141.818C58.0421 132.917 58.1622 120.416 52.7139 114.78C52.6359 114.699 52.5077 114.697 52.4273 114.777C52.3473 114.856 52.3456 114.985 52.424 115.066C57.5672 120.386 57.6594 132.781 54.7771 141.69C54.7425 141.798 54.8007 141.914 54.9069 141.949C54.9281 141.956 54.9497 141.959 54.9702 141.959Z" fill="white"/>
<path d="M44.7891 147.676C44.3262 147.944 43.372 147.357 43.0064 147.11C42.3808 146.686 41.8739 146.085 41.5368 145.406C41.145 144.616 41.0461 143.769 41.1689 142.896C41.2324 142.442 41.3582 142.001 41.4833 141.561C41.6065 141.129 41.7292 140.697 41.8523 140.265C41.9738 139.838 42.0962 139.398 42.0407 138.958C41.9283 138.071 41.149 137.45 40.4406 136.915C39.6573 136.322 38.8416 135.541 38.846 134.474C38.8493 133.65 39.2718 132.886 39.777 132.24C40.2822 131.593 40.8819 131.022 41.3387 130.34C41.6673 129.849 41.924 129.273 41.8705 128.683C41.8372 128.316 41.6868 127.97 41.5129 127.647C41.1399 126.952 40.6475 126.315 40.3902 125.569C40.1329 124.822 40.1695 123.894 40.7464 123.36C41.22 122.922 41.9236 122.861 42.5647 122.903C43.1577 122.943 43.7373 123.213 44.2559 123.504C45.9337 124.447 46.8913 126.453 48.6717 127.178C49.3585 127.457 50.1109 127.519 50.8267 127.71C51.5425 127.901 52.2724 128.27 52.604 128.938C53.2576 130.256 52.0446 131.881 52.5041 133.28C52.9108 134.518 54.1021 134.992 54.7715 136.107C55.0641 136.595 55.1317 137.159 55.0847 137.728C55.0046 138.69 54.865 139.396 54.4079 140.467C54.0298 141.351 52.9192 142.934 52.9192 142.934C52.8913 142.962 44.86 147.635 44.7891 147.676Z" fill="#6A6AF4"/>
<path d="M49.5855 145.06C49.6753 145.06 49.7533 144.992 49.7647 144.9C50.6292 137.984 47.3598 128.656 42.4769 124.105C42.4036 124.038 42.2892 124.041 42.2212 124.116C42.1536 124.19 42.158 124.306 42.2317 124.374C47.0389 128.854 50.2572 138.041 49.4059 144.854C49.3934 144.954 49.4634 145.045 49.5626 145.058C49.5703 145.059 49.5781 145.06 49.5855 145.06Z" fill="white"/>
<path d="M48.7499 136.211C48.8051 136.211 48.8596 136.186 48.8949 136.137C48.9551 136.057 48.9386 135.942 48.8589 135.882C46.1643 133.841 42.0466 134.197 41.8727 134.213C41.7732 134.222 41.7002 134.311 41.7093 134.411C41.7183 134.512 41.8092 134.584 41.906 134.576C41.9474 134.572 46.0597 134.218 48.6419 136.174C48.6739 136.199 48.7122 136.211 48.7499 136.211Z" fill="white"/>
<path d="M48.3439 134.515C48.4408 134.515 48.5209 134.437 48.5246 134.339C48.647 131.171 51.0173 129.257 51.0412 129.238C51.1199 129.176 51.1333 129.061 51.0718 128.982C51.0099 128.903 50.8965 128.889 50.8178 128.95C50.7149 129.032 48.2918 130.983 48.163 134.325C48.1593 134.426 48.237 134.511 48.3365 134.514C48.3392 134.514 48.3416 134.515 48.3439 134.515Z" fill="white"/>
<path d="M92.8386 141.923C86.7949 138.4 82.6692 132.289 81.6298 125.322L79.2454 109.337C78.3268 103.18 74.9908 97.6563 69.9902 94.0126L66.8782 91.7454L66.8785 93.5378L68.5657 94.7669C73.5559 98.4021 76.8895 103.91 77.8169 110.052L80.2474 126.147C81.2972 133.098 85.4186 139.191 91.4498 142.707L92.8383 143.516L92.8386 141.923Z" fill="#EBEBEB"/>
<path d="M92.8387 141.727C86.8515 138.203 82.829 132.22 81.796 125.297L79.4116 109.312C78.492 103.149 75.0941 97.5227 70.0884 93.8752L67.187 91.7612L105.124 69.6462L108.148 71.8493C113.08 75.4434 116.429 80.9883 117.335 87.0616L119.72 103.046C120.758 110.008 124.775 116.033 130.76 119.621L92.8387 141.727Z" fill="#FAFAFA"/>
<path d="M105.114 69.8482L108.05 71.9871C112.946 75.5547 116.27 81.0585 117.169 87.087L119.553 103.072C120.585 109.988 124.537 115.987 130.429 119.618L92.8389 141.53C86.9423 138.026 82.9823 132.111 81.9621 125.271L79.5777 109.287C78.6514 103.079 75.2286 97.4112 70.1866 93.7373L67.4961 91.777L105.114 69.8482ZM105.135 69.4441L66.8782 91.7451L69.9902 94.0124C74.9908 97.6561 78.3268 103.18 79.2454 109.337L81.6298 125.322C82.6692 132.289 86.7946 138.399 92.8383 141.923L131.095 119.622C125.051 116.098 120.925 109.988 119.886 103.021L117.502 87.036C116.583 80.8789 113.247 75.3551 108.246 71.7113L105.135 69.4441Z" fill="#E0E0E0"/>
<path d="M92.8384 141.923L131.095 119.622L131.094 121.215L92.8384 143.516V141.923Z" fill="#F5F5F5"/>
<path d="M74.0281 90.5455C72.6944 91.1187 72.5515 92.2968 73.7102 93.1771C74.8693 94.0574 76.8901 94.3067 78.2245 93.7334C79.5588 93.1605 79.7028 91.982 78.542 91.1017C77.3819 90.2218 75.3607 89.9729 74.0281 90.5455Z" fill="#6A6AF4"/>
<path d="M75.4717 91.978C75.3611 91.9858 75.244 91.9824 75.1223 91.9674C74.8417 91.9328 74.5942 91.8428 74.425 91.7144C74.1152 91.4791 74.1519 91.1748 74.5088 91.0216L74.5084 91.0213C74.7022 90.9377 74.9635 90.9109 75.2454 90.9452C75.5259 90.9798 75.7738 91.0698 75.9426 91.1982C76.2524 91.4336 76.2154 91.7379 75.8592 91.891C75.7489 91.9389 75.6167 91.9681 75.4717 91.978Z" fill="white"/>
<path d="M77.3657 91.9463C76.9221 91.8913 76.5067 91.9348 76.1952 92.0683L75.8437 92.2184C75.2352 92.4805 75.1723 93.0008 75.7014 93.4029L75.8881 93.5449C76.5255 93.6199 77.2638 93.5989 77.7906 93.3924C78.3667 93.1669 78.7213 92.9085 78.7731 92.5386L78.512 92.3658C78.2339 92.1545 77.8178 92.0017 77.3657 91.9463Z" fill="white"/>
<path d="M80.2372 88.0399L91.4719 81.4908C91.8742 81.2565 92.515 81.2755 92.8809 81.5642C92.9149 81.591 92.9492 81.6185 92.9838 81.646C93.3474 81.9377 93.3064 82.3772 92.9045 82.6122L81.6802 89.1766C81.2782 89.4116 80.6721 89.3484 80.3089 89.0564C80.2695 89.0248 80.2298 88.9932 80.1901 88.962C79.8238 88.6746 79.8349 88.2746 80.2372 88.0399Z" fill="#455A64"/>
<path d="M82.7071 90.6822L88.3297 87.4046C88.5308 87.2874 88.5578 87.0612 88.3896 86.8993L88.2873 86.8008C88.1195 86.6388 87.8208 86.6035 87.6203 86.722L82.028 90.024C81.8276 90.1426 81.801 90.3698 81.9685 90.5321L82.0391 90.6007C82.2073 90.7627 82.506 90.7994 82.7071 90.6822Z" fill="#455A64"/>
<path opacity="0.2" d="M79.0319 96.9064L109.354 79.2298C109.757 78.9955 110.307 79.1106 110.57 79.4975C110.59 79.528 110.611 79.5586 110.631 79.5892C110.892 79.9773 110.764 80.4912 110.362 80.7258L80.0322 98.4156C79.6303 98.6503 79.1079 98.5158 78.8506 98.1252C78.8291 98.0923 78.8072 98.0593 78.7854 98.0267C78.526 97.6379 78.6296 97.141 79.0319 96.9064Z" fill="black"/>
<path opacity="0.2" d="M80.871 99.9244L111.218 82.2333C111.62 81.999 112.123 82.144 112.323 82.5675C112.339 82.6008 112.354 82.6341 112.37 82.6673C112.567 83.0915 112.389 83.6315 111.987 83.8662L81.6352 101.573C81.2333 101.808 80.7631 101.646 80.567 101.221C80.5498 101.184 80.5327 101.147 80.5152 101.11C80.3167 100.687 80.4687 100.159 80.871 99.9244Z" fill="black"/>
<path opacity="0.2" d="M82.237 103.201L112.608 85.498C113.011 85.2636 113.462 85.4324 113.594 85.8821C113.608 85.9316 113.623 85.9816 113.637 86.0322C113.767 86.4825 113.535 87.0405 113.133 87.2752L82.7537 104.992C82.3514 105.227 81.9363 105.048 81.8092 104.597C81.7937 104.542 81.7783 104.488 81.7628 104.434C81.6323 103.984 81.8351 103.435 82.237 103.201Z" fill="black"/>
<path opacity="0.2" d="M83.1156 106.774L100.769 96.4818C101.171 96.2475 101.554 96.4329 101.624 96.8965L101.66 97.1342C101.731 97.5978 101.462 98.1636 101.06 98.3982L83.4045 108.702C83.0025 108.937 82.6204 108.751 82.5512 108.288C82.5387 108.205 82.5263 108.122 82.5138 108.038C82.4445 107.574 82.7133 107.008 83.1156 106.774Z" fill="black"/>
<path d="M119.617 116.46L90.7273 133.304C89.9231 133.773 88.7966 133.561 88.2887 132.775C86.4616 129.95 85.2416 126.429 84.6291 122.216L83.4737 114.474C83.3355 113.547 83.8754 112.415 84.6796 111.946L113.62 95.074C114.424 94.605 115.189 94.9768 115.327 95.904L116.482 103.649C116.945 107.646 118.151 111.172 120.106 114.222C120.611 115.009 120.422 115.991 119.617 116.46Z" fill="#6A6AF4"/>
<path opacity="0.7" d="M119.617 116.46L90.7273 133.304C89.9231 133.773 88.7966 133.561 88.2887 132.775C86.4616 129.95 85.2416 126.429 84.6291 122.216L83.4737 114.474C83.3355 113.547 83.8754 112.415 84.6796 111.946L113.62 95.074C114.424 94.605 115.189 94.9768 115.327 95.904L116.482 103.649C116.945 107.646 118.151 111.172 120.106 114.222C120.611 115.009 120.422 115.991 119.617 116.46Z" fill="white"/>
<path d="M90.7273 133.305L119.617 116.46C120.421 115.991 120.611 115.01 120.106 114.223C119.167 112.759 118.406 111.181 117.812 109.498L108.85 106.943L104.87 115.858L109.192 119.368L94.111 111.354L86.396 129.058C86.9315 130.406 87.5595 131.649 88.2887 132.777C88.7966 133.561 89.923 133.773 90.7273 133.305Z" fill="#6A6AF4"/>
<path d="M102.842 105.052C103.905 104.433 104.918 104.946 105.105 106.199C105.292 107.452 104.582 108.97 103.519 109.589C102.456 110.209 101.443 109.695 101.256 108.443C101.069 107.189 101.779 105.672 102.842 105.052Z" fill="#6A6AF4"/>
<path d="M111.615 126.441C111.522 126.447 111.425 126.445 111.323 126.432C111.089 126.403 110.882 126.328 110.74 126.221C110.482 126.024 110.512 125.77 110.81 125.642H110.81C110.972 125.572 111.19 125.549 111.426 125.578C111.66 125.607 111.867 125.682 112.008 125.79C112.267 125.986 112.237 126.241 111.939 126.368C111.847 126.408 111.736 126.433 111.615 126.441Z" fill="#6A6AF4"/>
<path d="M113.198 126.414C112.827 126.369 112.48 126.405 112.22 126.516L111.926 126.642C111.418 126.861 111.365 127.296 111.807 127.632L111.963 127.75C112.496 127.813 113.113 127.795 113.553 127.623C114.035 127.434 114.33 127.218 114.374 126.91L114.156 126.765C113.923 126.588 113.576 126.461 113.198 126.414Z" fill="#6A6AF4"/>
<path d="M113.751 125.136L112.67 125.189L112.375 125.446C112.326 125.489 112.328 125.567 112.379 125.608L112.674 125.841L113.772 125.797L113.751 125.136ZM112.597 125.597C112.553 125.597 112.518 125.562 112.518 125.517C112.518 125.473 112.553 125.438 112.597 125.438C112.641 125.438 112.676 125.473 112.676 125.517C112.676 125.562 112.641 125.597 112.597 125.597Z" fill="#6A6AF4"/>
<path d="M119.36 123.201C119.347 123.367 119.149 123.507 119.032 123.575C118.824 123.698 118.558 123.783 118.271 123.823C118.008 123.521 118.498 122.977 119.36 123.201Z" fill="#6A6AF4"/>
<path d="M119.402 122.13C118.608 121.468 117.364 121.223 116.487 121.73C115.61 122.236 115.442 123.304 116.245 123.969C117.048 124.633 118.487 124.644 119.355 124.134C120.222 123.624 120.196 122.791 119.402 122.13ZM118.071 121.989C118.211 121.91 118.407 121.947 118.521 122.059C118.635 122.172 118.621 122.322 118.482 122.403C118.343 122.484 118.128 122.466 118.014 122.35C117.9 122.235 117.931 122.067 118.071 121.989ZM116.476 123.223C116.362 123.108 116.394 122.94 116.534 122.862C116.673 122.783 116.87 122.82 116.984 122.932C117.098 123.045 117.084 123.195 116.945 123.276C116.805 123.357 116.59 123.339 116.476 123.223ZM119.116 123.72C118.796 123.908 118.354 124.015 117.903 124.015C117.508 124.015 117.138 123.935 116.843 123.789L119.101 122.499C119.389 122.739 119.544 123 119.526 123.215C119.507 123.444 119.293 123.616 119.116 123.72Z" fill="#6A6AF4"/>
<path d="M124.145 119.147C124.075 119.03 123.976 118.916 123.847 118.808C123.292 118.346 122.422 118.174 121.809 118.529C121.196 118.883 121.079 119.629 121.64 120.093C121.708 120.147 121.785 120.196 121.865 120.243C121.868 120.245 121.871 120.247 121.875 120.248C122.878 120.828 124.718 120.901 124.718 120.901C124.718 120.901 124.725 119.94 124.145 119.147ZM123.27 119.787C122.98 119.957 122.499 119.954 122.231 119.732C121.962 119.51 122.018 119.152 122.312 118.983C122.605 118.814 123.021 118.896 123.287 119.117C123.552 119.338 123.56 119.616 123.27 119.787Z" fill="#6A6AF4"/>
<path d="M160.689 122.732L156.363 135.477C156.237 135.847 155.717 135.845 155.594 135.474L151.324 122.628L160.689 122.732Z" fill="#FFA8A7"/>
<path d="M155.594 135.474C155.717 135.846 156.237 135.847 156.363 135.476L157.207 132.988C156.465 133.39 155.562 133.34 154.869 132.857L154.68 132.726L155.594 135.474Z" fill="#263238"/>
<path d="M151.487 65.7942L151.485 67.0412L151.475 68.5461L151.323 122.626C152.312 123.769 153.779 124.349 155.266 124.5C157.531 124.738 159.853 123.989 160.683 122.731L160.833 68.6829L160.841 65.8064C160.734 67.6689 151.405 67.6634 151.487 65.7942Z" fill="#6A6AF4"/>
<path d="M151.459 70.5414L151.456 73.3262C151.429 74.1335 153.132 74.6548 155.098 74.8375C157.709 75.0871 160.782 74.3729 160.821 73.3031L160.826 71.2505L160.816 70.5166C160.778 71.5864 157.703 72.3026 155.093 72.053C153.209 71.8754 151.56 71.3813 151.466 70.6283L151.466 70.6202C151.457 70.5954 151.456 70.5706 151.459 70.5414Z" fill="#EBEBEB"/>
<path d="M151.464 71.2361C151.397 73.1108 160.756 73.087 160.823 71.2123L160.835 68.4248C160.767 70.2995 151.41 70.3229 151.477 68.4482L151.464 71.2361Z" fill="#6A6AF4"/>
<path d="M151.487 65.7942L151.475 68.5461C151.396 70.3861 160.426 70.4401 160.834 68.6833C160.845 68.6537 160.848 68.6164 160.85 68.5787L160.841 65.8068C160.734 67.6689 151.405 67.6634 151.487 65.7942Z" fill="#EBEBEB"/>
<path d="M160.886 54.0029C160.886 53.9832 160.886 53.9058 160.886 53.8861C160.886 52.5433 158.791 51.4548 156.207 51.4548C153.623 51.4548 151.528 52.5433 151.528 53.8861V55.1522L151.487 65.7943C151.451 66.5938 153.134 67.1198 155.084 67.3114C157.695 67.5691 160.783 66.8733 160.841 65.8069C160.846 65.8025 160.846 65.8025 160.845 65.7943L160.886 54.0794C160.886 54.062 160.886 54.0118 160.886 54.0029Z" fill="#F28F8F"/>
<path opacity="0.2" d="M156.207 56.3181C158.791 56.3181 160.885 55.2296 160.885 53.8869C160.885 52.5441 158.791 51.4556 156.207 51.4556C153.623 51.4556 151.528 52.5441 151.528 53.8869C151.528 55.2296 153.623 56.3181 156.207 56.3181Z" fill="white"/>
<path opacity="0.1" d="M160.834 68.6839L160.885 54.0034C160.822 55.1537 158.882 56.2408 156.764 56.3179L156.613 124.544L156.362 135.477L160.689 122.732H160.682L160.682 122.732L160.834 68.6839Z" fill="black"/>
<path d="M145.701 80.0524C147.479 79.7915 149.674 81.1425 151.201 83.3099C152.728 85.477 158.049 90.7505 158.632 92.4285C159.057 93.6528 158.807 95.9496 156.302 94.872C153.876 93.8284 146.146 86.1695 146.146 86.1695L145.701 80.0524Z" fill="#B16668"/>
<path d="M144.85 80.0527C144.85 80.0527 145.977 79.815 146.592 79.8564C147.206 79.8982 148.589 80.2667 150.012 81.6655C151.434 83.0644 155.127 87.5863 155.127 87.5863C155.127 87.5863 155.292 88.8545 154.055 90.2706C152.817 91.6868 151.662 91.6868 151.662 91.6868L146.175 87.1004L144.85 80.0527Z" fill="#37474F"/>
<path d="M156.903 89.9404L160.79 84.2213L160.802 80.0203C160.802 80.0203 161.663 80.3113 162.006 81.6653C162.348 83.0194 162.776 84.5952 162.605 85.7509C162.434 86.9066 159.732 93.8839 158.279 94.8719C156.82 95.8629 156.903 89.9404 156.903 89.9404Z" fill="#B16668"/>
<path d="M139.345 78.1554L140.104 82.9894L144.85 82.7334L144.169 77.1155L139.345 78.1554Z" fill="#B16668"/>
<path d="M136.153 72.2241C136.153 72.2241 135.022 73.9575 135.15 74.1276C135.279 74.2978 136.112 74.4516 136.112 74.4516L136.153 72.2241Z" fill="#9A4A4D"/>
<path d="M139.294 67.4294C137.005 67.9171 136.344 68.9332 136.128 72.6051C135.903 76.4421 136.291 77.648 136.79 78.1649C137.127 78.5134 139 78.5765 139.944 78.3137C141.127 77.9846 143.799 77.0282 145.051 75.0982C146.523 72.8275 146.909 69.75 145.334 68.4876C143.116 66.7108 140.226 67.2311 139.294 67.4294Z" fill="#B16668"/>
<path d="M139.387 78.4206C139.387 78.4206 140.028 78.3065 140.593 78.1133C140.593 78.1133 140.262 78.5667 139.443 78.7823L139.387 78.4206Z" fill="#9A4A4D"/>
<path d="M135.983 68.5939C136.281 68.7722 136.621 68.9006 136.979 69.0052C137.538 69.1682 137.453 69.3805 137.532 69.8957C137.601 70.3545 137.819 70.8018 138.161 71.1156C138.378 71.3142 138.54 71.3326 138.613 71.6382C138.686 71.9452 138.623 72.2876 138.626 72.5993C138.633 73.2361 139.036 73.7207 139.232 72.8669C139.232 72.8669 139.594 71.4487 140.778 71.627C141.97 71.8067 142.066 73.1526 141.502 74.2098C141.158 74.853 140.238 74.6846 140.238 74.6846C140.238 74.6846 140.03 76.4522 141.475 77.9003C141.475 77.9003 142.653 78.7827 144.488 77.8671C145.557 76.4583 145.978 75.7136 146.592 74.637C147.413 73.195 148.121 71.4243 147.842 69.7276C147.739 69.104 147.484 68.5033 147.046 68.0444C146.727 67.7113 146.751 67.6478 146.664 67.1954C146.591 66.8178 146.389 66.4632 146.092 66.2207C145.632 65.8465 144.964 65.7548 144.423 65.9925C144.422 65.4009 143.926 64.8911 143.36 64.7376C142.794 64.5841 142.186 64.7261 141.654 64.975C141.349 64.4211 140.754 64.0418 140.127 64.002C139.501 63.9623 138.863 64.2639 138.492 64.7753C138.336 64.4968 138.016 64.3416 137.7 64.3131C137.384 64.2846 137.068 64.3651 136.766 64.4629C136.516 64.5441 136.267 64.6385 136.041 64.7736C135.205 65.2725 134.762 66.3583 135.007 67.3061C135.166 67.9218 135.523 68.3182 135.983 68.5939Z" fill="#263238"/>
<path d="M146.702 68.2109L148.072 67.3955C147.849 67.0135 147.361 66.8865 146.983 67.1116C146.605 67.3368 146.479 67.8289 146.702 68.2109Z" fill="#263238"/>
<path d="M147.98 140.001C147.99 140.104 148 140.208 148.01 140.312C148.05 140.721 148.09 141.135 148.041 141.544C148.008 141.828 147.926 142.212 147.665 142.368C147.399 142.527 147.072 142.647 146.771 142.721C146.087 142.887 145.335 142.828 144.699 142.516C144.161 142.252 143.74 141.839 143.156 141.674C142.56 141.506 141.941 141.44 141.327 141.369C141.055 141.338 140.78 141.305 140.518 141.22C140.316 141.153 140.125 141.056 139.936 140.955C139.301 140.618 138.675 140.232 138.208 139.682C137.907 139.327 137.679 138.898 137.59 138.437C137.537 138.165 137.428 137.38 137.877 137.4C140.079 137.5 142.26 137.976 144.464 137.95C144.607 137.949 144.751 137.945 144.892 137.968C145.166 138.013 145.409 138.156 145.632 138.317C145.892 138.505 145.986 138.511 146.307 138.484C146.693 138.451 147.07 138.401 147.45 138.501C147.61 138.543 147.782 138.616 147.844 138.77C147.866 138.823 147.871 138.881 147.877 138.938C147.911 139.293 147.946 139.647 147.98 140.001Z" fill="#263238"/>
<path d="M147.755 137.337L147.641 139.013C147.534 139.652 145.38 140.042 144.937 138.913L144.726 137.012L147.755 137.337Z" fill="#B16668"/>
<path d="M139.558 143.966C139.558 143.966 139.822 144.838 139.957 145.599C140.065 146.203 140.216 147.213 139.997 147.661C139.778 148.109 138.958 148.383 137.696 148.344C136.879 148.319 135.592 148.851 134.709 149.323C133.797 149.81 131.918 149.969 130.968 149.835C129.848 149.676 128.699 148.992 128.528 148.518C128.357 148.045 128.609 147.563 131.281 146.484C131.306 146.474 134.987 145.357 136.3 143.959L139.558 143.966Z" fill="#263238"/>
<path d="M139.583 142.89C139.583 142.89 139.562 143.629 139.557 144.051C139.551 144.473 139.043 145.091 137.766 145.016C136.869 144.963 136.248 144.705 136.3 143.959L136.324 142.883L139.583 142.89Z" fill="#B16668"/>
<path d="M148.623 124.465C148.245 121.202 147.961 119.333 147.961 119.333C147.961 119.333 148.027 114.789 148.29 110.552C148.575 105.976 148.511 100.213 148.623 99.0726C148.623 99.0726 134.061 95.9322 133.943 101.234C133.805 107.395 134.212 120.141 134.298 121.8C134.419 124.13 134.424 126.553 134.816 130.334C135.203 134.066 136.323 142.884 136.323 142.884C137.975 143.835 139.582 142.89 139.582 142.89C139.582 142.89 140.849 132.326 140.8 129.639C140.741 126.359 140.248 123.831 140.248 123.831L141.395 111.873C141.395 111.873 141.845 115.57 141.966 117.9C142.087 120.23 142.404 121.652 142.974 125.988C143.469 129.75 144.725 137.689 144.725 137.689C146.377 138.64 147.821 137.564 147.821 137.564C147.821 137.564 149.002 127.728 148.623 124.465Z" fill="#6A6AF4"/>
<path opacity="0.3" d="M148.623 124.465C148.245 121.202 147.961 119.333 147.961 119.333C147.961 119.333 148.027 114.789 148.29 110.552C148.575 105.976 148.511 100.213 148.623 99.0726C148.623 99.0726 134.061 95.9322 133.943 101.234C133.805 107.395 134.212 120.141 134.298 121.8C134.419 124.13 134.424 126.553 134.816 130.334C135.203 134.066 136.323 142.884 136.323 142.884C137.975 143.835 139.582 142.89 139.582 142.89C139.582 142.89 140.849 132.326 140.8 129.639C140.741 126.359 140.248 123.831 140.248 123.831L141.395 111.873C141.395 111.873 141.845 115.57 141.966 117.9C142.087 120.23 142.404 121.652 142.974 125.988C143.469 129.75 144.725 137.689 144.725 137.689C146.377 138.64 147.821 137.564 147.821 137.564C147.821 137.564 149.002 127.728 148.623 124.465Z" fill="black"/>
<path opacity="0.15" d="M146.934 106.31C146.934 106.31 145.924 107.991 142.863 109.223L142.012 112.11L141.919 117.183C141.802 115.548 141.623 113.763 141.395 111.872L141.74 108.897C141.74 108.897 145.12 107.863 146.934 106.31Z" fill="black"/>
<path d="M149.184 83.1802C148.599 81.0786 147.225 80.1505 145.701 80.0523C145.313 80.0275 144.526 80.0612 144.526 80.0612C144.634 80.9513 141.917 81.5796 139.803 81.0773C139.166 81.2461 138.112 81.4875 137.581 81.6655C136.062 82.1746 134.241 84.092 134.005 89.0935C134.005 89.0935 133.763 99.844 133.838 102.967C137.588 104.565 141.208 104.764 143.394 104.334C147.944 103.438 148.692 101.469 148.692 101.469C148.692 101.469 148.649 98.7372 148.479 94.3809C149.251 88.1857 149.437 84.0913 149.184 83.1802Z" fill="#455A64"/>
<path d="M131.443 100.997C132.318 101.624 132.702 102.299 132.772 103.389C132.835 104.365 132.834 105.426 133.288 106.311C133.363 106.457 133.758 106.786 133.915 106.74L133.918 105.491C134.17 105.168 134.858 104.565 135.037 104.196C135.335 103.58 134.987 102.825 135.166 102.163C135.245 101.875 135.391 101.649 135.394 101.34C135.402 100.613 135.2 99.9229 134.637 99.4573C133.977 98.9116 133.372 98.233 132.77 97.6217C131.991 96.8294 130.908 95.6649 130.128 94.8722L135.365 89.8001C135.968 89.2166 136.474 88.5415 136.859 87.7937C137.714 86.1306 138.888 83.2133 137.581 81.666C135.714 81.666 134.653 81.9547 132.747 84.1999C131.103 86.137 125.85 92.4881 125.176 93.565C124.501 94.6419 124.113 95.3775 125.408 96.573C126.311 97.4067 127.588 98.306 128.711 99.1214C129.592 99.7606 130.557 100.363 131.443 100.997Z" fill="#B16668"/>
<path d="M130.128 94.8726C130.128 94.8726 129.411 95.5963 128.522 95.9834C128.522 95.9834 129.74 95.8265 130.491 95.2448L130.128 94.8726Z" fill="#9A4A4D"/>
<path d="M138.166 81.4946C138.166 81.4946 137.038 81.4171 135.905 81.6657C134.772 81.9143 134.01 82.4961 132.044 84.7389C130.077 86.9813 128.701 88.821 128.701 88.821C128.701 88.821 128.135 90.0871 129.713 91.5172C131.292 92.9473 132.708 92.7021 132.708 92.7021L137.119 88.3707C137.119 88.3707 140.264 85.0391 138.166 81.4946Z" fill="#37474F"/>
</svg>
