<svg width="335" height="224" viewBox="0 0 335 224" fill="none" xmlns="http://www.w3.org/2000/svg">
<path d="M210.572 51.3176C210.552 51.2369 210.529 51.1605 210.51 51.0786C201.38 11.5035 132.49 19.6825 132.49 19.6825C114.801 21.277 101.665 25.1952 91.9253 29.9679C76.5442 37.5053 66.4091 51.3075 64.435 66.8159C63.2795 75.8924 58.5421 89.488 43.2917 94.3996C13.587 103.967 24.0144 125.82 26.9263 133.474C29.4624 140.14 43.7909 148.027 22.9223 165.276C2.05382 182.524 25.1062 212.062 25.1062 212.062L210.572 212.324V51.3176Z" fill="#ECF4FA"/>
<path d="M299.971 102.528V212.45L310.133 212.464C317.436 212.477 326.923 136.192 299.971 102.528Z" fill="#ECF4FA"/>
<g opacity="0.5">
<path d="M210.572 213.635H299.972V23.4556H210.572L210.572 213.635Z" fill="#9BC1F9"/>
<path d="M296.813 26.2241V212.569L214.372 212.963L213.766 26.2241H296.813Z" fill="#C5DDF9"/>
<path d="M261.418 212.326H251.556L218.756 26.2241H228.618L261.418 212.326Z" fill="white"/>
<path d="M248.217 26.2241H268.544L296.814 185.18V210.653H281.017L248.217 26.2241Z" fill="white"/>
</g>
<path d="M208.252 25.3213C208.157 25.4471 208.013 25.6219 207.803 25.8629C207.801 25.8664 207.798 25.8698 207.795 25.8733C207.803 25.9019 210.458 35.0229 208.367 35.7155C206.45 36.3507 206.289 29.6634 207.066 26.8604C206.641 27.4833 206.261 28.1374 205.946 28.821C205.407 29.9895 205.038 31.497 204.795 33.1779C205.185 33.7835 207.565 37.5892 206.373 38.3723C205.406 39.0076 204.772 36.5057 204.598 34.8527C204.458 36.3467 204.397 37.926 204.39 39.494C205.679 39.7935 209.569 40.8534 209.642 42.7472C209.724 44.8635 206.38 44.2393 204.392 40.3141C204.403 41.8733 204.463 43.4031 204.546 44.8076C205.473 45.6001 209.28 49.008 208.666 50.9771C208.045 52.9715 205.656 50.6871 204.649 46.3308C204.836 48.8253 205.073 50.7192 205.178 51.3173C205.213 51.5144 205.252 51.7679 205.293 52.0665C205.308 52.1758 205.324 52.2915 205.34 52.4123C205.34 52.4123 211.259 59.9797 209.564 61.7219C208.362 62.9571 206.563 57.9018 205.618 54.8545C205.945 58.0897 206.232 62.3093 205.958 63.6108L205.937 63.6066C206.146 66.524 206.289 71.8281 204.595 72.096C202.252 72.4665 204.595 66.5384 204.595 66.5384C204.595 66.5384 201.736 67.6211 201.471 66.5384C201.028 64.7258 205.033 62.1733 205.679 61.7751C205.672 60.164 205.517 57.8804 205.324 55.8068C205.109 60.2531 203.938 61.5753 203.482 61.7218C202.917 61.9031 201.754 60.8152 202.153 57.3782C202.462 54.7079 204.186 52.9812 204.94 52.3435C204.888 51.964 204.839 51.637 204.793 51.3781C204.692 50.8044 204.471 49.0455 204.288 46.7065C203.83 50.3628 202.746 53.3541 201.769 51.5014C200.817 49.6953 203.304 46.2399 204.177 45.1176C204.076 43.4869 204.005 41.6741 204.004 39.8331C203.278 41.6406 200.091 45.0389 199.693 43.0942C199.302 41.1818 203.258 39.192 204.012 38.8319C204.034 37.2561 204.114 35.6815 204.277 34.2035C203.393 35.6934 200.694 38.7457 200.374 37.0981C200.008 35.2169 204.532 32.3291 204.532 32.3291C204.532 32.3291 204.535 32.3319 204.539 32.3363C204.782 30.9371 205.123 29.6814 205.588 28.6728C205.889 28.0203 206.247 27.3941 206.646 26.796C204.974 27.8723 202.415 28.8295 202.518 27.7065C202.63 26.4877 206.565 25.5019 207.82 25.218C207.863 25.1594 207.892 25.1349 207.91 25.1356C208.36 24.6107 208.833 24.1152 209.316 23.6494H209.864C209.311 24.1672 208.766 24.7252 208.252 25.3213Z" fill="#327F6B"/>
<path d="M211.658 28.4946C210.41 29.1622 210.867 25.8294 211.282 23.6492H212.502C212.727 25.4716 212.781 27.8942 211.658 28.4946Z" fill="#327F6B"/>
<path d="M210.025 28.3074C208.366 28.087 209.857 25.7109 212.195 23.6492H214.643C213.409 25.7946 211.532 28.5074 210.025 28.3074Z" fill="#327F6B"/>
<path d="M216.656 23.6492H219.166C220.453 25.172 221.425 27.0472 220.55 28.729C219.315 31.1036 217.65 26.8408 216.656 23.6492Z" fill="#327F6B"/>
<path d="M215.121 23.6492H215.537C215.43 24.3539 215.314 25.1358 215.194 25.9821C216.198 27.8626 221.329 37.7859 218.884 39.9148C216.18 42.2691 215.217 30.2166 215.217 30.2166L215.075 26.822C214.666 29.75 214.213 33.3198 213.857 37.0051C214.787 37.7319 218.633 40.9348 217.032 43.0423C215.543 45.0026 214.228 39.5823 213.803 37.572C213.575 40.0101 213.391 42.4866 213.293 44.8502C214.275 45.2834 218.419 47.2385 217.282 48.9457C216.181 50.599 213.895 46.9298 213.257 45.8344C213.21 47.2833 213.199 48.6801 213.233 49.9888C214.306 50.4673 219.108 52.6966 217.921 53.7596C216.588 54.9543 213.847 51.7557 213.847 51.7557C213.847 51.7557 215.995 59.944 213.66 59.0657C211.325 58.1873 212.885 51.2649 212.81 51.0892L212.85 50.8663C212.805 49.7904 212.793 48.6459 212.808 47.4544C212.375 48.5083 211.537 50.2639 211.033 49.508C210.439 48.6187 212.252 46.8041 212.833 46.2584C212.877 44.6344 212.967 42.9404 213.088 41.2283C212.245 43.2492 210.483 46.1686 209.589 44.7995C208.585 43.264 212.357 39.2925 213.323 38.3159C213.548 35.8001 213.824 33.3086 214.109 31.0053C212.923 33.9496 209.059 40.179 207.811 38.0529C206.511 35.8391 213.209 28.9038 214.561 27.539C214.76 26.0858 214.951 24.771 215.121 23.6492Z" fill="#3C8F7C"/>
<path d="M228.657 25.821C227.644 28.3844 225.643 32.707 223.678 32.6568C221.028 32.5889 224.811 26.9811 228.712 24.3669C228.719 24.1854 228.726 24.0164 228.733 23.8577C229.369 23.9741 230.001 24.0987 230.612 24.292C232.835 25.7611 236.602 28.8338 235.445 31.8748C234.082 35.4587 230.481 26.9303 229.404 24.2158C229.351 25.486 229.283 27.3559 229.231 29.6121C230.82 31.9242 237.449 41.9233 235.068 44.5191C232.371 47.46 229.708 34.1638 229.708 34.1638L229.201 31.0217C229.14 34.2252 229.118 38.037 229.204 41.9497C230.503 42.7668 234.877 45.7614 233.42 48.219C232.093 50.4593 230.059 45.2689 229.226 42.8697C229.296 45.5078 229.418 48.1733 229.613 50.7121C230.94 51.1432 235.486 52.7853 234.478 54.7577C233.516 56.6401 230.709 53.2462 229.715 51.9426C229.854 53.5144 230.023 55.0258 230.228 56.4381C231.683 56.9132 236.971 58.7519 235.825 60.0381C234.499 61.5259 231.027 58.2926 231.027 58.2926C231.027 58.2926 234.499 67.1483 231.784 66.4485C229.392 65.8318 229.746 59.6338 229.791 58.0426C229.568 56.7584 229.379 55.3712 229.221 53.9142C228.856 55.1428 228.211 56.8494 227.599 56.1261C226.862 55.2554 228.417 53.2054 229.071 52.4169C228.91 50.6697 228.788 48.8439 228.696 46.9928C227.98 49.3196 226.493 52.4118 225.37 51.0588C224.096 49.5246 227.474 44.9355 228.561 43.5384C228.48 40.8083 228.456 38.0954 228.465 35.5676C227.393 39.1236 224.109 45.8984 222.501 43.7633C220.808 41.5153 226.961 33.3847 228.509 31.4079C228.547 29.2327 228.604 27.3203 228.657 25.821Z" fill="#3C8F7C"/>
<path d="M225.922 30.0529C224.5 31.6322 223.031 26.4523 222.381 23.7412C222.359 25.6005 222.335 28.0898 222.32 30.9726C223.197 31.827 225.916 34.6708 225.536 36.7775C225.169 38.8222 223.072 34.5623 222.311 32.9221C222.306 34.4281 222.304 36.0172 222.306 37.6616C223.405 38.5676 226.059 41.0244 224.793 42.6925C223.767 44.043 222.836 41.3675 222.309 39.3265C222.315 41.1985 222.326 43.1267 222.345 45.0716C223.673 46.0804 227.367 49.2003 226.019 51.7919C224.822 54.0918 223.162 49.2343 222.36 46.474C222.385 48.5472 222.418 50.6279 222.464 52.6687C223.192 53.8253 225.848 58.2566 224.394 59.2114C223.608 59.7277 222.993 58.6415 222.588 57.2327C222.65 59.1361 222.726 60.9663 222.816 62.6799C223.785 63.2886 227.787 65.9344 227.322 67.8374C227.031 69.0257 223.893 67.8374 223.893 67.8374C223.893 67.8374 226.464 74.3435 223.893 73.937C222.07 73.6487 222.186 68.0466 222.407 64.8102C222.369 64.2149 222.333 63.6017 222.299 62.9718C221.919 64.327 221.274 65.308 220.545 64.4792C219.261 63.0216 221.638 59.5621 222.115 58.8988C222.048 57.1174 221.993 55.2581 221.948 53.3591C220.961 55.1817 217.208 59.5339 216.778 57.3196C216.364 55.1911 220.793 52.0658 221.904 51.3194C221.867 49.4294 221.839 47.5149 221.819 45.6126C221.107 47.0531 218.675 51.6661 216.861 51.4251C214.757 51.1455 218.479 46.8781 221.816 45.2857C221.797 43.4202 221.785 41.5688 221.779 39.7664C221.772 39.8137 221.765 39.8602 221.757 39.9106C221.557 41.1335 219.315 45.7496 218.316 44.2211C217.317 42.6926 221.757 38.3895 221.757 38.3895C221.757 38.3895 221.764 38.401 221.775 38.4278C221.771 36.6866 221.773 35.0009 221.778 33.4037C221.071 35.0969 218.602 38.854 217.812 37.5938C217.061 36.3974 220.577 32.8435 221.784 31.6789C221.795 29.3676 221.811 27.286 221.829 25.5497C220.991 27.2905 218.451 32.0831 217.674 30.3465C216.847 28.4958 220.904 24.9371 221.844 24.1462C221.846 23.9756 221.847 23.8102 221.849 23.6492H223.866C225.359 25.7426 227.1 28.7443 225.922 30.0529Z" fill="#327F6B"/>
<path d="M302.171 25.3213C302.266 25.4471 302.409 25.6219 302.619 25.8629C302.622 25.8664 302.625 25.8698 302.628 25.8733C302.619 25.9019 299.965 35.0229 302.055 35.7155C303.972 36.3507 304.134 29.6634 303.357 26.8604C303.782 27.4833 304.162 28.1374 304.477 28.821C305.016 29.9895 305.384 31.497 305.628 33.1779C305.238 33.7835 302.857 37.5892 304.049 38.3723C305.017 39.0076 305.65 36.5057 305.825 34.8527C305.965 36.3467 306.025 37.926 306.032 39.494C304.744 39.7935 300.854 40.8534 300.781 42.7472C300.699 44.8635 304.043 44.2393 306.031 40.3141C306.02 41.8733 305.96 43.4031 305.876 44.8076C304.95 45.6001 301.142 49.008 301.756 50.9771C302.378 52.9715 304.766 50.6871 305.774 46.3308C305.587 48.8253 305.349 50.7192 305.244 51.3173C305.21 51.5144 305.171 51.7679 305.129 52.0665C305.114 52.1758 305.099 52.2915 305.083 52.4123C305.083 52.4123 299.164 59.9797 300.859 61.7219C302.061 62.9571 303.859 57.9018 304.805 54.8545C304.477 58.0897 304.19 62.3093 304.464 63.6108L304.486 63.6066C304.277 66.524 304.133 71.8281 305.827 72.096C308.17 72.4665 305.827 66.5384 305.827 66.5384C305.827 66.5384 308.687 67.6211 308.951 66.5384C309.395 64.7258 305.389 62.1733 304.743 61.7751C304.751 60.164 304.905 57.8804 305.098 55.8068C305.314 60.2531 306.485 61.5753 306.941 61.7218C307.506 61.9031 308.669 60.8152 308.27 57.3782C307.96 54.7079 306.237 52.9812 305.483 52.3435C305.535 51.964 305.584 51.637 305.629 51.3781C305.73 50.8044 305.952 49.0455 306.135 46.7065C306.593 50.3628 307.676 53.3541 308.653 51.5014C309.606 49.6953 307.118 46.2399 306.246 45.1176C306.347 43.4869 306.418 41.6741 306.418 39.8331C307.145 41.6406 310.332 45.0389 310.729 43.0942C311.121 41.1818 307.165 39.192 306.411 38.8319C306.388 37.2561 306.308 35.6815 306.145 34.2035C307.03 35.6934 309.728 38.7457 310.049 37.0981C310.414 35.2169 305.891 32.3291 305.891 32.3291C305.891 32.3291 305.888 32.3319 305.884 32.3363C305.64 30.9371 305.3 29.6814 304.835 28.6728C304.534 28.0203 304.176 27.3941 303.777 26.796C305.449 27.8723 308.007 28.8295 307.904 27.7065C307.793 26.4877 303.857 25.5019 302.602 25.218C302.559 25.1594 302.531 25.1349 302.512 25.1356C302.063 24.6107 301.589 24.1152 301.107 23.6494H300.558C301.112 24.1672 301.657 24.7252 302.171 25.3213Z" fill="#327F6B"/>
<path d="M298.765 28.4946C300.014 29.1622 299.557 25.8294 299.142 23.6492H297.922C297.697 25.4716 297.643 27.8942 298.765 28.4946Z" fill="#327F6B"/>
<path d="M300.398 28.3074C302.056 28.087 300.565 25.7109 298.228 23.6492H295.779C297.014 25.7946 298.891 28.5074 300.398 28.3074Z" fill="#327F6B"/>
<path d="M293.766 23.6492H291.256C289.969 25.172 288.997 27.0472 289.872 28.729C291.107 31.1036 292.772 26.8408 293.766 23.6492Z" fill="#327F6B"/>
<path d="M295.301 23.6492H294.885C294.992 24.3539 295.108 25.1358 295.228 25.9821C294.224 27.8626 289.093 37.7859 291.538 39.9148C294.242 42.2691 295.204 30.2166 295.204 30.2166L295.347 26.822C295.756 29.75 296.208 33.3198 296.565 37.0051C295.635 37.7319 291.789 40.9348 293.39 43.0423C294.878 45.0026 296.194 39.5823 296.619 37.572C296.847 40.0101 297.03 42.4866 297.129 44.8502C296.147 45.2834 292.003 47.2385 293.14 48.9457C294.241 50.599 296.527 46.9298 297.166 45.8344C297.212 47.2833 297.223 48.6801 297.189 49.9888C296.117 50.4673 291.314 52.6966 292.501 53.7596C293.834 54.9543 296.575 51.7557 296.575 51.7557C296.575 51.7557 294.427 59.944 296.762 59.0657C299.098 58.1872 297.538 51.2649 297.612 51.0892L297.572 50.8663C297.617 49.7904 297.629 48.6459 297.614 47.4544C298.047 48.5083 298.885 50.2639 299.389 49.508C299.983 48.6187 298.17 46.8041 297.589 46.2584C297.545 44.6344 297.455 42.9404 297.334 41.2283C298.177 43.2492 299.939 46.1686 300.833 44.7995C301.837 43.264 298.066 39.2925 297.099 38.3159C296.874 35.8001 296.598 33.3086 296.313 31.0053C297.499 33.9496 301.363 40.179 302.611 38.0529C303.911 35.8391 297.213 28.9038 295.861 27.539C295.662 26.0858 295.47 24.771 295.301 23.6492Z" fill="#3C8F7C"/>
<path d="M281.767 25.821C282.779 28.3844 284.781 32.707 286.745 32.6568C289.395 32.5889 285.613 26.9811 281.712 24.3669C281.704 24.1854 281.697 24.0164 281.69 23.8577C281.054 23.9741 280.422 24.0987 279.812 24.292C277.588 25.7611 273.822 28.8338 274.978 31.8748C276.341 35.4587 279.942 26.9303 281.02 24.2158C281.072 25.486 281.14 27.3559 281.193 29.6121C279.604 31.9242 272.975 41.9233 275.355 44.5191C278.053 47.46 280.715 34.1638 280.715 34.1638L281.223 31.0217C281.283 34.2252 281.306 38.037 281.219 41.9497C279.92 42.7668 275.546 45.7614 277.003 48.219C278.331 50.4593 280.364 45.2689 281.197 42.8697C281.127 45.5078 281.005 48.1733 280.81 50.7121C279.483 51.1432 274.938 52.7853 275.945 54.7577C276.907 56.6401 279.714 53.2462 280.709 51.9426C280.57 53.5144 280.401 55.0258 280.195 56.4381C278.74 56.9132 273.453 58.7519 274.599 60.0381C275.924 61.5259 279.396 58.2926 279.396 58.2926C279.396 58.2926 275.925 67.1483 278.639 66.4485C281.032 65.8318 280.678 59.6338 280.632 58.0426C280.856 56.7584 281.044 55.3712 281.202 53.9142C281.567 55.1428 282.212 56.8494 282.825 56.1261C283.562 55.2554 282.007 53.2054 281.352 52.4169C281.513 50.6697 281.636 48.8439 281.727 46.9928C282.443 49.3196 283.93 52.4118 285.054 51.0588C286.327 49.5246 282.949 44.9355 281.862 43.5384C281.943 40.8083 281.968 38.0954 281.958 35.5676C283.031 39.1236 286.314 45.8984 287.922 43.7633C289.615 41.5153 283.462 33.3847 281.914 31.4079C281.876 29.2327 281.82 27.3203 281.767 25.821Z" fill="#3C8F7C"/>
<path d="M284.502 30.0529C285.924 31.6322 287.393 26.4523 288.043 23.7412C288.065 25.6005 288.089 28.0898 288.104 30.9726C287.226 31.827 284.508 34.6708 284.887 36.7775C285.255 38.8222 287.352 34.5623 288.112 32.9221C288.117 34.4281 288.12 36.0172 288.118 37.6616C287.019 38.5676 284.364 41.0244 285.631 42.6925C286.656 44.043 287.588 41.3675 288.114 39.3265C288.109 41.1985 288.097 43.1267 288.078 45.0716C286.75 46.0804 283.057 49.2003 284.405 51.7919C285.601 54.0918 287.261 49.2343 288.063 46.474C288.039 48.5472 288.005 50.6279 287.96 52.6687C287.231 53.8253 284.575 58.2566 286.029 59.2114C286.815 59.7277 287.431 58.6415 287.836 57.2327C287.773 59.1361 287.698 60.9663 287.608 62.6799C286.639 63.2886 282.637 65.9344 283.102 67.8374C283.392 69.0257 286.531 67.8374 286.531 67.8374C286.531 67.8374 283.959 74.3435 286.531 73.937C288.354 73.6487 288.238 68.0466 288.016 64.8102C288.054 64.2149 288.09 63.6017 288.124 62.9718C288.504 64.327 289.149 65.308 289.879 64.4792C291.162 63.0216 288.786 59.5621 288.308 58.8988C288.376 57.1174 288.431 55.2581 288.476 53.3591C289.462 55.1817 293.215 59.5339 293.645 57.3196C294.059 55.1911 289.631 52.0658 288.519 51.3194C288.557 49.4294 288.584 47.5149 288.604 45.6126C289.317 47.0531 291.748 51.6661 293.562 51.4251C295.666 51.1455 291.945 46.8781 288.608 45.2857C288.627 43.4202 288.639 41.5688 288.645 39.7664C288.652 39.8137 288.658 39.8602 288.667 39.9106C288.867 41.1335 291.108 45.7496 292.107 44.2211C293.106 42.6926 288.667 38.3895 288.667 38.3895C288.667 38.3895 288.659 38.401 288.648 38.4278C288.652 36.6866 288.65 35.0009 288.646 33.4037C289.352 35.0969 291.821 38.854 292.612 37.5938C293.362 36.3974 289.846 32.8435 288.639 31.6789C288.629 29.3676 288.612 27.286 288.595 25.5497C289.433 27.2905 291.973 32.0831 292.749 30.3465C293.576 28.4958 289.52 24.9371 288.58 24.1462C288.578 23.9756 288.576 23.8102 288.574 23.6492H286.558C285.064 25.7426 283.324 28.7443 284.502 30.0529Z" fill="#327F6B"/>
<path d="M236.545 23.0151H235H201.629V24.6816H235H236.545H309.317V23.0151H236.545Z" fill="#13375B"/>
<path d="M240.549 50.6125H240.832V25.2031C243.679 27.0912 246.859 28.2698 250.287 28.7073C253.1 29.0662 256.084 28.9299 259.158 28.3021C263.673 27.3796 267.07 25.6472 267.937 25.1777V35.5647H268.22V24.703L268.004 24.829C267.968 24.8504 264.273 26.9838 259.089 28.0412C254.315 29.0151 247.262 29.2492 240.773 24.8341L240.549 24.6816L240.549 50.6125Z" fill="#184655"/>
<path d="M268.079 33.7256C269.509 33.7256 270.669 34.8259 270.669 36.1833V41.4258H265.488V36.1833C265.488 34.8259 266.648 33.7256 268.079 33.7256Z" fill="#F47458"/>
<path d="M240.692 49.6536C242.122 49.6536 243.282 50.7539 243.282 52.1113V57.3538H238.102V52.1113C238.102 50.7539 239.261 49.6536 240.692 49.6536Z" fill="#F47458"/>
<path d="M238.321 93.725C240.937 92.6618 243.864 91.5837 246.545 92.4871C248.234 93.056 249.533 94.3301 250.767 95.5628C252.12 96.9143 253.558 98.4522 253.592 100.316C253.605 101.074 253.378 101.816 253.129 102.536C252.643 103.938 252.05 105.332 251.093 106.495C249.54 108.38 247.155 109.498 244.726 110.141C242.577 110.711 242.044 110.51 239.815 110.418C238.31 110.357 235.924 108.087 234.947 107C233.395 105.271 233.53 97.7796 235.168 95.8909C235.601 95.3917 236.222 94.9049 236.911 94.4556C237.357 94.1645 237.82 93.9011 238.295 93.6623C238.304 93.6849 238.313 93.7063 238.321 93.725Z" fill="#13375B"/>
<path d="M209.102 128.674C208.911 128.149 211.596 127.736 211.741 127.207C211.886 126.677 208.355 126.625 208.23 126.159C208 125.301 212.101 125.991 212.022 125.59C211.942 125.189 207.751 124.28 208.207 123.593C208.663 122.907 212.449 124.967 212.566 124.5C212.682 124.034 208.863 122.886 208.935 121.863C208.974 121.316 215.201 124.611 215.926 124.316C216.651 124.021 215.158 121.446 215.736 121.066C216.313 120.687 217.946 126.298 218.343 126.486C218.739 126.674 227.153 131.267 230.149 132.003C230.517 131.051 233.153 126.005 233.478 125.105C235.156 126.247 237.107 126.502 238.84 127.543C237.571 130.531 233.221 137.884 232.342 138.256C229.669 139.392 219.375 131.234 217.319 129.836C215.262 128.438 214.08 128.885 212.687 128.441C211.294 127.997 209.292 129.198 209.102 128.674Z" fill="#F48C7F"/>
<path d="M256.431 168.211L255.484 167.458C258.952 163.607 260.858 156.268 260.998 146.236C261.104 138.589 260.138 132.028 260.128 131.963L261.357 131.8C261.367 131.866 262.345 138.502 262.239 146.236C262.176 150.79 261.756 154.833 260.989 158.254C260.02 162.579 258.486 165.929 256.431 168.211Z" fill="#13375B"/>
<path d="M252.165 118.533C252.744 118.533 275.031 117.299 275.417 120.047C275.803 122.795 276.575 144.229 272.714 144.962C268.852 145.695 250.123 142.397 250.123 142.397L252.165 118.533Z" fill="#F47458"/>
<path d="M237.232 131.042C237.232 131.042 242.923 127.132 244.644 124.331C246.364 121.531 243.472 123.354 240.518 122.617C239.399 122.338 239.682 116.174 237.567 118.178C234.098 121.465 231.264 127.993 231.264 127.993L237.232 131.042Z" fill="#466EB6"/>
<path d="M245.744 115.35C245.744 115.35 251.745 114.236 254.483 116.387C257.221 118.538 253.896 137.662 253.899 140.832C253.902 144.002 255.779 152.959 255.779 152.959C255.779 152.959 237.593 155.952 234.704 151.193C234.704 151.193 233.882 133.061 234.005 130.781C234.127 128.501 236.823 119.176 237.569 118.178C238.314 117.179 245.744 115.35 245.744 115.35Z" fill="#86B1F2"/>
<path d="M245.781 106.623C245.781 106.623 245.812 106.792 245.869 107.079C246.141 108.456 247.189 113.024 247.897 114.28C248.753 115.797 244.968 120.637 241.325 120.047C240.241 119.871 242.242 115.599 242.146 115.147C241.962 114.281 241.712 113.099 241.457 111.888C241.313 111.204 241.167 110.511 241.03 109.86C240.64 108.009 240.322 106.495 240.322 106.495L245.781 106.623Z" fill="#F7A491"/>
<path d="M245.869 107.079C245.813 106.791 245.781 106.623 245.781 106.623L240.322 106.495C240.322 106.495 240.64 108.009 241.03 109.86C241.166 110.507 241.311 111.196 241.454 111.876C242.297 111.76 243.178 111.375 244.061 110.65C245.023 109.859 245.654 108.909 246.035 107.895C245.967 107.571 245.911 107.292 245.869 107.079Z" fill="#F47458"/>
<path d="M242.107 94.9805C242.107 94.9805 244.68 94.7015 246.292 96.6588C247.905 98.616 249.643 104.669 245.637 107.959C241.631 111.25 237.673 107.525 237.086 103.576C236.499 99.6264 236.271 94.838 242.107 94.9805Z" fill="#F7A491"/>
<path d="M242.97 101.694C242.997 102.026 242.833 102.309 242.604 102.325C242.375 102.342 242.168 102.086 242.141 101.754C242.114 101.421 242.278 101.139 242.508 101.122C242.737 101.105 242.944 101.361 242.97 101.694Z" fill="#263238"/>
<path d="M241.475 104.698C241.465 104.665 241.074 104.747 240.453 104.903C240.297 104.946 240.143 104.973 240.076 104.886C239.997 104.797 239.994 104.619 239.996 104.426C239.989 104.028 239.982 103.611 239.975 103.174C239.93 101.398 239.833 99.9607 239.757 99.963C239.682 99.9654 239.657 101.407 239.702 103.184C239.717 103.62 239.73 104.037 239.744 104.435C239.756 104.618 239.737 104.838 239.905 105.022C239.991 105.112 240.134 105.147 240.241 105.134C240.349 105.125 240.434 105.094 240.509 105.069C241.117 104.87 241.487 104.73 241.475 104.698Z" fill="#263238"/>
<path d="M239.01 101.98C239.036 102.312 238.872 102.595 238.643 102.611C238.414 102.628 238.207 102.372 238.18 102.039C238.154 101.707 238.318 101.424 238.547 101.408C238.775 101.392 238.983 101.647 239.01 101.98Z" fill="#263238"/>
<path d="M244.092 100.393C244.126 100.386 244.158 100.371 244.186 100.348C244.272 100.277 244.279 100.153 244.204 100.072C243.448 99.2606 242.504 99.3817 242.464 99.3875C242.351 99.4031 242.273 99.5028 242.29 99.6098C242.306 99.7164 242.411 99.7902 242.523 99.7751C242.554 99.771 243.291 99.6837 243.895 100.331C243.946 100.386 244.022 100.407 244.092 100.393Z" fill="#263238"/>
<path d="M237.199 100.812C237.264 100.798 237.322 100.755 237.348 100.692C237.683 99.8883 238.408 99.7321 238.438 99.726C238.549 99.7032 238.621 99.5996 238.597 99.4944C238.574 99.389 238.466 99.3209 238.354 99.3429C238.314 99.3517 237.384 99.5412 236.964 100.548C236.922 100.649 236.974 100.762 237.08 100.802C237.12 100.817 237.161 100.819 237.199 100.812Z" fill="#263238"/>
<path d="M241.82 94.3335C241.82 94.3335 245.258 100.089 247.717 100.355C250.175 100.621 250.498 103.68 250.498 103.68C250.498 103.68 249.619 96.6322 247.185 95.2732C244.751 93.9142 241.82 94.3335 241.82 94.3335Z" fill="#13375B"/>
<path d="M219.137 137.058L235.947 133.217C235.947 133.217 241.892 125.72 247.617 119.255C249.379 120.828 250.392 123.278 252.166 124.834L239.568 138.494C239.113 138.986 238.459 139.276 237.766 139.292L219.869 139.696L219.137 137.058Z" fill="#F7A491"/>
<path d="M245.712 132.703C245.712 132.703 253.705 126.518 255.426 123.717C257.146 120.917 255.87 116.225 252.916 115.488C249.962 114.751 240.322 127.429 240.322 127.429L245.712 132.703Z" fill="#466EB6"/>
<path d="M239.414 106.029L242.117 105.748C242.117 105.748 242.167 106.719 240.982 106.875C239.538 107.066 239.414 106.029 239.414 106.029Z" fill="white"/>
<path d="M207.704 138.652C207.527 138.396 207.97 137.963 208.301 137.638C208.669 137.278 210.893 136.374 211.272 136.265C211.65 136.157 214.892 136.586 216.133 136.969C217.374 137.351 218.192 137.194 218.192 137.194C218.517 137.131 219.006 137.048 219.386 136.974L220.164 139.695C217.251 139.661 214.204 139.865 213.928 139.858C213.053 139.837 211.449 138.976 211.077 138.849C210.705 138.723 209.952 138.823 209.445 139.046C208.939 139.269 207.464 139.8 207.217 139.676C206.97 139.553 207.704 138.652 207.704 138.652Z" fill="#F7A491"/>
<path d="M246.885 101.818C246.657 102.835 247.089 103.784 247.849 103.937C248.609 104.091 249.41 103.391 249.638 102.373C249.866 101.356 249.435 100.407 248.675 100.254C247.914 100.1 247.113 100.801 246.885 101.818Z" fill="#F7A491"/>
<path d="M245.088 91.1354C245.259 90.555 245.505 89.966 245.983 89.5688C246.731 88.9473 247.99 88.9926 248.686 89.6661C248.961 89.9318 249.155 90.278 249.485 90.4788C250.23 90.9319 251.378 90.4861 252.01 91.0727C252.209 91.2571 252.313 91.5118 252.444 91.7448C252.901 92.5604 253.724 93.1547 254.152 93.9846C254.492 94.6434 254.552 95.4272 254.318 96.1261C254.053 96.9167 253.431 97.5709 252.694 98.0162C251.956 98.4616 251.106 98.7142 250.249 98.8824C249.832 98.9645 249.393 99.027 248.983 98.9171C248.53 98.7962 248.168 98.4822 247.824 98.1782C247.286 97.7032 246.725 97.1936 246.523 96.5231C246.448 96.272 246.413 95.9849 246.205 95.8143C245.842 95.5169 245.28 95.7183 244.941 95.3451C244.691 95.0709 244.751 94.7516 244.741 94.4083C244.706 93.2925 244.769 92.2173 245.088 91.1354Z" fill="#13375B"/>
<path d="M223.938 196.599C223.938 196.599 229.458 202.822 229.494 203.364C229.531 203.905 229.275 209.816 228.618 210.357C227.962 210.899 226.033 211.283 226.653 211.892C227.122 212.352 230.727 212.254 233.116 212.13C233.814 212.094 234.689 206.862 234.965 206.093C235.366 204.976 236.342 202.46 235.977 201.682C235.799 201.302 234.949 200.523 233.751 199.795C232.491 199.03 227.671 192.724 227.671 192.724L223.938 196.599Z" fill="#F48C7F"/>
<path d="M233.674 199.758C233.674 199.758 229.967 209.571 228.516 210.045C228.131 210.171 226.282 210.49 225.933 211.259C225.828 211.49 225.933 212.264 225.933 212.264H233.66C233.66 212.264 234.637 207.94 235.023 206.04C235.023 206.04 237.068 201.399 236.841 200.977C236.614 200.555 233.674 199.758 233.674 199.758Z" fill="#466EB6"/>
<path d="M190.873 199.588C190.873 199.588 186.365 205.555 186.762 207.443C186.974 208.454 187.92 209.777 187.377 210.728C186.835 211.679 186.214 211.917 186.214 211.917L172.152 212.13C171.386 212.141 171.893 211.679 172.51 211.253C173.521 210.555 174.337 210.094 177.566 208.628C177.777 208.533 178.543 208.075 178.82 207.917C179.521 207.515 180.225 206.883 180.832 206.249C181.841 205.195 186.281 196.599 186.281 196.599L190.873 199.588Z" fill="#F7A491"/>
<path d="M178.821 207.916C182.54 208.811 185.289 208.203 186.827 207.621C187.224 208.675 187.749 209.998 187.471 210.761C187.129 211.696 186.643 211.907 186.214 211.917C182.817 212.001 173.771 212.115 171.181 212.147C170.819 212.151 170.619 211.754 170.852 211.494C171.494 210.774 178.544 208.075 178.821 207.916Z" fill="#466EB6"/>
<path d="M207.178 162.775C207.178 162.775 212.76 168.765 214.184 169.714C215.607 170.663 229.27 194.319 229.27 194.319L224.403 197.66C224.403 197.66 212.192 183.344 206.457 175.687C201.608 169.213 203.394 169.623 200.543 165.682C198.973 163.512 199.329 160.578 201.399 158.818C201.657 158.599 201.936 158.371 202.241 158.132C206.461 154.825 235.393 151.102 235.393 151.102L253.898 152.806C253.898 152.806 238.779 162.775 238.215 163.04C237.65 163.306 217.336 166.091 216.912 166.091C216.489 166.091 207.178 162.775 207.178 162.775Z" fill="#EAB054"/>
<path d="M255.778 152.959C255.778 152.959 258.953 161.913 254.191 166.091C249.43 170.269 221.145 169.805 211.834 169.805C211.834 169.805 208.025 179.621 207.602 181.212C207.178 182.804 188.698 203.364 188.698 203.364L183.619 200.313C183.619 200.313 203.511 163.969 205.062 162.377C206.614 160.785 228.763 154.418 234.265 152.959C239.767 151.5 255.778 152.959 255.778 152.959Z" fill="#F7CC7F"/>
<path d="M169.256 118.773H197.113C197.85 118.773 198.514 119.192 198.794 119.833L207.371 139.503H222.729C223.159 139.503 223.507 139.83 223.507 140.234C223.507 140.637 223.159 140.964 222.729 140.964H179.019C177.818 140.964 176.728 140.301 176.236 139.27L167.599 121.18C167.059 120.051 167.939 118.773 169.256 118.773Z" fill="#184655"/>
<path d="M184.254 130.227C184.442 131.111 185.261 131.701 186.084 131.547C186.907 131.392 187.422 130.55 187.234 129.667C187.045 128.783 186.226 128.192 185.403 128.347C184.58 128.502 184.066 129.344 184.254 130.227Z" fill="white"/>
<path d="M102.631 212.569H100.508L105.033 175.254H107.156L102.631 212.569Z" fill="#355389"/>
<path d="M126.597 212.569H128.72L124.195 175.254H122.072L126.597 212.569Z" fill="#355389"/>
<path d="M66.6678 212.569H64.5449L69.0698 175.254H71.1927L66.6678 212.569Z" fill="#355389"/>
<path d="M90.6325 212.569H92.7553L88.2304 175.254H86.1074L90.6325 212.569Z" fill="#355389"/>
<path d="M101.024 179.309H72.0683C68.6745 179.309 65.6417 176.699 65.2943 173.479L60.5092 129.132C60.1617 125.912 62.6312 123.302 66.025 123.302H94.981C98.3747 123.302 101.408 125.912 101.755 129.132L106.54 173.479C106.888 176.699 104.418 179.309 101.024 179.309Z" fill="#EAB054"/>
<path d="M109.065 179.309H80.1094C76.7155 179.309 73.6827 176.699 73.3353 173.479L68.5502 129.132C68.2028 125.912 70.6722 123.302 74.066 123.302H103.022C106.416 123.302 109.449 125.912 109.796 129.132L114.581 173.479C114.929 176.699 112.459 179.309 109.065 179.309Z" fill="#F7CC7F"/>
<path d="M112.945 181.354H71.9021C68.7218 181.354 65.8796 178.908 65.554 175.89C65.2284 172.873 67.5427 170.427 70.723 170.427H111.766C114.946 170.427 117.788 172.873 118.114 175.89C118.439 178.908 116.125 181.354 112.945 181.354Z" fill="#EAB054"/>
<path d="M123.191 181.354H82.1481C78.9678 181.354 76.1257 178.908 75.8001 175.89C75.4745 172.873 77.7888 170.427 80.9691 170.427H122.012C125.192 170.427 128.034 172.873 128.36 175.89C128.685 178.908 126.371 181.354 123.191 181.354Z" fill="#F7CC7F"/>
<path d="M131.04 136.508C131.23 135.983 128.545 135.57 128.401 135.041C128.256 134.511 131.787 134.459 131.911 133.993C132.141 133.135 128.04 133.825 128.12 133.424C128.199 133.023 132.391 132.114 131.935 131.427C131.479 130.741 127.692 132.801 127.575 132.334C127.459 131.868 131.279 130.72 131.206 129.697C131.168 129.15 124.94 132.445 124.215 132.15C123.491 131.855 124.983 129.28 124.406 128.9C123.828 128.521 122.195 134.132 121.798 134.32C121.403 134.508 112.989 139.101 109.992 139.837C109.624 138.885 106.988 133.839 106.664 132.939C104.985 134.081 103.034 134.336 101.301 135.377C102.57 138.365 106.921 145.718 107.799 146.09C110.472 147.226 120.766 139.068 122.822 137.67C124.879 136.272 126.061 136.719 127.454 136.275C128.848 135.831 130.849 137.032 131.04 136.508Z" fill="#F48C7F"/>
<path d="M104.911 112.713C105.036 109.864 104.594 107.05 103.25 104.398C102.094 102.116 99.2342 100.821 96.6262 100.818C88.3445 100.808 87.2915 111.19 82.0196 115.194C80.4088 116.418 78.6083 117.415 77.084 118.734C71.4557 123.607 73.991 132.627 79.159 136.899C82.7454 139.863 88.3819 141.548 92.8021 139.23C95.1094 138.021 96.861 136.01 98.1089 133.807C99.8799 130.68 101.022 127.072 102.281 123.739C103.622 120.192 104.745 116.5 104.911 112.713Z" fill="#13375B"/>
<path d="M101.814 138.935C101.814 138.935 95.6292 132.918 94.0378 130.304C92.4462 127.689 95.1216 129.391 97.8544 128.703C98.8893 128.443 98.6275 122.689 100.584 124.559C103.793 127.628 107.828 132.993 107.828 132.993L101.814 138.935Z" fill="#96D9C9"/>
<path d="M93.0211 121.919C93.0211 121.919 87.4703 120.88 84.9374 122.888C82.4044 124.896 85.4801 142.747 85.4775 145.707C85.4748 148.667 83.7383 157.028 83.7383 157.028C83.7383 157.028 100.562 159.822 103.234 155.379C103.234 155.379 103.994 138.453 103.881 136.325C103.768 134.196 101.274 125.491 100.584 124.559C99.8946 123.627 93.0211 121.919 93.0211 121.919Z" fill="#50BFA5"/>
<path d="M92.987 113.773C92.987 113.773 92.9577 113.93 92.9053 114.198C92.6536 115.484 91.684 119.748 91.0292 120.92C90.2377 122.337 93.7388 126.855 97.1085 126.304C98.1116 126.14 96.2607 122.152 96.3496 121.73C96.5199 120.921 96.7509 119.818 96.9871 118.687C97.1205 118.049 97.2555 117.402 97.3822 116.794C97.7426 115.067 98.0366 113.654 98.0366 113.654L92.987 113.773Z" fill="#F7A491"/>
<path d="M92.9032 114.198C92.9557 113.93 92.9848 113.773 92.9848 113.773L98.0344 113.654C98.0344 113.654 97.7403 115.067 97.3801 116.795C97.254 117.399 97.1197 118.042 96.9872 118.677C96.2077 118.568 95.393 118.209 94.5763 117.532C93.6859 116.794 93.1023 115.907 92.75 114.96C92.8122 114.658 92.8641 114.398 92.9032 114.198Z" fill="#F47458"/>
<path d="M96.3852 102.905C96.3852 102.905 94.0052 102.644 92.5133 104.471C91.0213 106.298 89.4134 111.949 93.1195 115.021C96.8255 118.092 100.487 114.615 101.03 110.928C101.573 107.242 101.784 102.772 96.3852 102.905Z" fill="#F7A491"/>
<path d="M94.8214 108.505C94.7802 108.832 94.9293 109.117 95.1548 109.143C95.3801 109.168 95.5955 108.924 95.6368 108.597C95.678 108.271 95.5288 107.985 95.3034 107.96C95.0781 107.934 94.8622 108.178 94.8214 108.505Z" fill="#263238"/>
<path d="M96.1617 111.529C96.1737 111.497 96.5551 111.593 97.1613 111.772C97.3132 111.821 97.4639 111.853 97.5338 111.77C97.6161 111.685 97.6269 111.51 97.6336 111.32C97.6578 110.927 97.683 110.516 97.7095 110.086C97.8328 108.335 97.9924 106.921 98.0667 106.926C98.1413 106.931 98.1016 108.355 97.9787 110.105C97.9447 110.536 97.9128 110.946 97.8815 111.338C97.861 111.518 97.87 111.736 97.6963 111.911C97.6075 111.997 97.4652 112.025 97.3603 112.008C97.2544 111.995 97.1719 111.961 97.0981 111.934C96.5079 111.713 96.1489 111.56 96.1617 111.529Z" fill="#263238"/>
<path d="M98.7158 108.945C98.6746 109.272 98.8242 109.558 99.0492 109.583C99.2745 109.609 99.4899 109.364 99.5311 109.037C99.5724 108.711 99.4227 108.425 99.1978 108.4C98.9728 108.375 98.757 108.619 98.7158 108.945Z" fill="#263238"/>
<path d="M93.769 107.177C93.7362 107.169 93.7048 107.153 93.6786 107.129C93.5974 107.055 93.5952 106.933 93.6732 106.856C94.4549 106.086 95.3807 106.243 95.42 106.25C95.5306 106.27 95.6029 106.372 95.5819 106.477C95.561 106.581 95.4545 106.65 95.3443 106.63C95.314 106.625 94.5905 106.509 93.9665 107.124C93.9139 107.176 93.8376 107.194 93.769 107.177Z" fill="#263238"/>
<path d="M100.553 107.865C100.49 107.849 100.435 107.805 100.412 107.741C100.117 106.935 99.4094 106.752 99.3795 106.745C99.2712 106.718 99.2051 106.613 99.233 106.51C99.2604 106.407 99.3701 106.344 99.4792 106.37C99.5183 106.381 100.428 106.605 100.797 107.615C100.834 107.716 100.778 107.826 100.672 107.861C100.631 107.874 100.591 107.874 100.553 107.865Z" fill="#263238"/>
<path d="M102.127 110.874C101.684 111.688 100.942 112.139 100.468 111.881C99.9946 111.623 99.9692 110.754 100.412 109.939C100.854 109.125 101.596 108.674 102.07 108.932C102.544 109.19 102.569 110.06 102.127 110.874Z" fill="#F7A491"/>
<path d="M96.6508 102.301C96.6508 102.301 93.4711 107.674 91.1965 107.922C88.9218 108.17 88.623 111.025 88.623 111.025C88.623 111.025 89.4364 104.447 91.6882 103.178C93.94 101.909 96.6508 102.301 96.6508 102.301Z" fill="#13375B"/>
<path d="M91.7935 109.272C91.9786 110.226 91.6065 111.101 90.9625 111.227C90.3185 111.352 89.6466 110.68 89.4616 109.726C89.2765 108.772 89.6486 107.896 90.2926 107.771C90.9365 107.646 91.6085 108.318 91.7935 109.272Z" fill="#F7A491"/>
<path d="M113.192 197.765C113.192 197.765 108.085 203.575 108.052 204.08C108.018 204.586 108.254 210.103 108.862 210.609C109.469 211.114 111.253 211.473 110.68 212.041C110.246 212.471 106.911 212.379 104.701 212.264C104.056 212.23 103.247 207.346 102.991 206.628C102.62 205.585 101.717 203.237 102.055 202.51C102.219 202.156 103.006 201.428 104.114 200.749C105.28 200.034 109.739 194.148 109.739 194.148L113.192 197.765Z" fill="#F48C7F"/>
<path d="M104.186 200.715C104.186 200.715 107.615 209.875 108.957 210.317C109.314 210.435 111.024 210.733 111.347 211.45C111.444 211.666 111.347 212.388 111.347 212.388H104.199C104.199 212.388 103.296 208.352 102.938 206.579C102.938 206.579 101.046 202.246 101.257 201.852C101.467 201.458 104.186 200.715 104.186 200.715Z" fill="#F7CC7F"/>
<path d="M143.781 200.556C143.781 200.556 147.951 206.126 147.585 207.888C147.388 208.832 146.513 210.067 147.015 210.955C147.517 211.843 148.091 212.065 148.091 212.065L161.099 212.263C161.808 212.274 161.34 211.843 160.768 211.445C159.833 210.794 159.078 210.363 156.091 208.995C155.896 208.906 155.187 208.479 154.931 208.331C154.282 207.955 153.631 207.365 153.07 206.774C152.136 205.789 148.029 197.765 148.029 197.765L143.781 200.556Z" fill="#F7A491"/>
<path d="M154.929 208.329C151.489 209.165 148.946 208.597 147.523 208.054C147.156 209.038 146.67 210.273 146.928 210.986C147.244 211.858 147.693 212.055 148.091 212.065C151.233 212.143 159.601 212.249 161.997 212.279C162.332 212.283 162.517 211.913 162.301 211.67C161.707 210.998 155.186 208.478 154.929 208.329Z" fill="#F7CC7F"/>
<path d="M128.696 166.191C128.696 166.191 123.532 171.783 122.215 172.668C120.898 173.554 108.259 195.637 108.259 195.637L112.762 198.756C112.762 198.756 124.058 185.392 129.363 178.244C133.848 172.2 132.196 172.583 134.834 168.904C136.286 166.879 135.957 164.14 134.042 162.497C133.803 162.293 133.545 162.079 133.263 161.857C129.359 158.769 102.595 155.294 102.595 155.294L85.4766 156.885C85.4766 156.885 99.4629 166.191 99.985 166.438C100.507 166.686 119.3 169.286 119.691 169.286C120.083 169.286 128.696 166.191 128.696 166.191Z" fill="#13375B"/>
<path d="M83.7381 157.028C83.7381 157.028 80.8018 165.386 85.2062 169.286C89.6108 173.187 115.777 172.753 124.39 172.753C124.39 172.753 127.914 181.916 128.305 183.402C128.697 184.888 145.793 204.081 145.793 204.081L150.491 201.233C150.491 201.233 132.09 167.305 130.654 165.819C129.219 164.333 108.729 158.39 103.64 157.028C98.5502 155.666 83.7381 157.028 83.7381 157.028Z" fill="#355389"/>
<path d="M98.3238 113.076L95.1524 112.851C95.1524 112.851 95.1356 113.999 96.5273 114.136C98.2242 114.303 98.3238 113.076 98.3238 113.076Z" fill="white"/>
<path d="M117.573 139.052C117.763 138.528 115.078 138.114 114.933 137.585C114.789 137.056 118.32 137.003 118.444 136.537C118.674 135.679 114.573 136.369 114.653 135.968C114.732 135.567 118.924 134.658 118.468 133.972C118.012 133.285 114.225 135.345 114.108 134.879C113.992 134.412 117.812 133.264 117.739 132.241C117.701 131.694 111.473 134.989 110.748 134.694C110.024 134.399 111.516 131.824 110.939 131.444C110.361 131.065 108.728 136.676 108.331 136.864C107.936 137.052 99.5218 141.645 96.5251 142.381C96.1574 141.429 93.5214 136.384 93.1969 135.483C91.5181 136.625 89.5671 136.88 87.834 137.922C89.1033 140.91 93.4537 148.262 94.3319 148.635C97.0055 149.77 107.3 141.612 109.355 140.215C111.412 138.816 112.594 139.263 113.988 138.819C115.38 138.375 117.382 139.576 117.573 139.052Z" fill="#F7A491"/>
<path d="M87.0301 138.724C87.0301 138.724 83.3876 131.063 82.8346 128.09C82.2815 125.116 84.9698 121.384 87.7857 121.625C90.6017 121.865 94.8235 135.093 94.8235 135.093L87.0301 138.724Z" fill="#96D9C9"/>
<path d="M143.941 212.33H228.934V141.979H143.941V212.33Z" fill="#76ADF8"/>
<path d="M277.808 143.052H228.863V212.404H277.808V143.052Z" fill="#E6EEFE"/>
<path opacity="0.5" d="M143.808 155.79L277.807 155.79V143.052L143.808 143.052V155.79Z" fill="#A9C8FB"/>
<path opacity="0.5" d="M224.157 212.404H228.863V143.052H224.157V212.404Z" fill="#A9C8FB"/>
<path d="M137.96 143.052L283.342 143.052V140.905L137.96 140.905V143.052Z" fill="#465F9D"/>
<path d="M254.914 202.417H255.304C255.433 201.171 255.685 199.795 256.135 198.355C257.835 192.909 257.092 192.205 259.961 188.801C262.831 185.397 263.043 178.338 263.043 178.338C263.043 178.338 264.425 170.321 263.043 166.791C261.662 163.262 261.555 159.732 258.208 156.001C258.208 156.001 257.57 160.993 256.773 163.262C255.976 165.531 255.219 167.699 255.81 173.144C256.401 178.59 256.768 179.044 256.903 180.456C257.038 181.867 256.826 187.818 257.145 188.801C257.464 189.783 255.285 196.59 255.125 199.515C255.077 200.393 254.991 201.395 254.914 202.417Z" fill="#215E4B"/>
<path d="M256.136 202.417C256.69 201.205 257.664 200.001 259.371 199.278C263.835 197.387 266.846 197.429 268.918 192.891C270.991 188.354 270.991 182.152 271.708 180.866C271.708 180.866 269.795 180.564 267.882 183.816C265.969 187.068 264.671 189.488 263.567 191.379C262.462 193.27 260.868 192.74 259.512 194.177C258.377 195.382 257.328 198.183 256.93 199.605C256.8 200.067 256.612 200.512 256.364 200.927C256.138 201.306 255.872 201.766 255.713 202.093C255.677 202.166 255.642 202.278 255.607 202.417H256.136V202.417Z" fill="#3C8F7C"/>
<path d="M243.541 180.909C243.222 184.792 245.826 184.489 245.933 186.96C246.039 189.43 249.44 193.615 251.016 196.59C251.835 198.137 252.138 200.503 252.239 202.417H253.505C253.016 197.572 250.944 194.2 249.706 191.498C248.111 188.019 247.872 186.43 249.227 183.708C250.582 180.985 248.59 173.951 250.519 170.815C252.448 167.68 251.459 162.758 251.016 160.867C250.572 158.976 251.061 157.69 251.459 155.697C251.858 153.703 251.016 150.808 251.016 150.808C250.944 153.278 248.962 156.657 247.527 158.825C246.092 160.993 243.382 166.892 243.701 169.565C244.019 172.237 243.86 172.439 243.86 172.439C242.85 176.018 243.86 177.027 243.541 180.909Z" fill="#215E4B"/>
<path d="M251.137 199.262C251.3 199.726 251.822 200.909 252.299 202.417H253.076C252.722 200.497 252.113 198.27 251.084 196.993C249.011 194.422 244.866 193.313 244.388 191.447C243.91 189.581 244.441 183.985 241.412 180.859C241.412 180.859 241.837 184.339 241.412 185.271C240.987 186.203 237.373 190.539 239.499 194.17C241.625 197.8 246.407 197.346 247.895 198.153C249.383 198.96 250.871 198.506 251.137 199.262Z" fill="#3C8F7C"/>
<path d="M249.223 182.519C249.17 186.251 252.253 187.662 252.199 189.73C252.146 191.797 252.837 194.015 253.422 195.679C253.792 196.733 253.587 199.665 253.521 202.417H254.377C254.592 200.395 254.828 197.477 254.75 196.184C254.644 194.419 255.494 193.007 255.601 189.931C255.707 186.856 256.398 184.083 254.963 180.2C253.528 176.318 253.794 171.679 247.789 167.393C247.789 167.393 246.726 171.931 247.523 174.402C248.32 176.872 249.277 178.788 249.223 182.519Z" fill="#3C8F7C"/>
<path d="M249.223 182.519C249.17 186.251 252.252 187.662 252.199 189.73C252.146 191.797 252.837 194.015 253.422 195.679C253.792 196.733 253.587 199.665 253.521 202.417H253.876C253.924 201.842 253.971 201.481 253.971 201.481L254.148 194.523C254.148 194.523 253.794 189.078 253.156 184.64C252.518 180.203 247.789 167.393 247.789 167.393C247.789 167.393 246.726 171.931 247.523 174.402C248.32 176.872 249.277 178.788 249.223 182.519Z" fill="#327F6B"/>
<path d="M255.308 199.233H254.734H247.077C246.514 199.233 246.099 199.733 246.229 200.253L249.23 212.258C249.323 212.631 249.674 212.895 250.077 212.895H254.734H255.308H259.965C260.368 212.895 260.719 212.631 260.813 212.258L263.813 200.253C263.943 199.733 263.528 199.233 262.965 199.233H255.308Z" fill="#F47458"/>
<path d="M166.042 113.695C167.505 113.695 168.691 112.57 168.691 111.182C168.691 109.793 167.505 108.668 166.042 108.668C164.579 108.668 163.393 109.793 163.393 111.182C163.393 112.57 164.579 113.695 166.042 113.695Z" fill="#F7CC7F"/>
<path d="M158.671 139.576H159.368C159.445 139.576 159.508 139.517 159.508 139.443V136.735C159.508 136.662 159.445 136.603 159.368 136.603H158.671C158.594 136.603 158.531 136.662 158.531 136.735V139.443C158.531 139.517 158.594 139.576 158.671 139.576Z" fill="#B75742"/>
<path d="M153.89 105.333C154.706 104.319 155.622 103.758 156.611 103.667C158.137 103.527 159.352 104.535 159.365 104.545L159.973 103.895C159.911 103.843 158.442 102.626 156.523 102.802C155.27 102.917 154.139 103.591 153.162 104.806L153.89 105.333Z" fill="#50BFA5"/>
<path d="M160.824 103.077L164.998 107.037C165.19 107.219 165.19 107.514 164.998 107.697L163.259 109.347C163.067 109.529 162.756 109.529 162.564 109.347L158.39 105.387C158.198 105.205 158.198 104.909 158.39 104.727L160.129 103.077C160.321 102.895 160.632 102.895 160.824 103.077Z" fill="#B75742"/>
<path d="M170.155 106.634L161.249 115.085C158.789 112.751 158.789 108.968 161.249 106.634C163.708 104.301 167.696 104.301 170.155 106.634Z" fill="#F47458"/>
<path d="M143.262 121.432L152.193 104.17L154.981 105.468L146.049 122.73L143.262 121.432ZM152.63 105.384L144.541 121.018L145.613 121.517L153.701 105.883L152.63 105.384Z" fill="#B75742"/>
<path d="M142.645 122.529L145.583 121.577L152.133 139.775L149.194 140.727L142.645 122.529ZM144.988 122.728L143.858 123.094L149.79 139.576L150.919 139.21L144.988 122.728Z" fill="#B75742"/>
<path d="M160.774 115.72L161.26 116.18C161.313 116.231 161.4 116.231 161.453 116.18L171.311 106.827C171.365 106.776 171.365 106.694 171.311 106.643L170.826 106.183C170.772 106.132 170.686 106.132 170.632 106.183L160.774 115.536C160.721 115.587 160.721 115.669 160.774 115.72Z" fill="#96D9C9"/>
<path d="M144.499 124.534C145.749 124.534 146.763 123.573 146.763 122.386C146.763 121.2 145.749 120.238 144.499 120.238C143.248 120.238 142.234 121.2 142.234 122.386C142.234 123.573 143.248 124.534 144.499 124.534Z" fill="#F47458"/>
<path d="M164.952 138.021H145.665C145.176 138.021 144.779 138.397 144.779 138.861V140.964H165.838V138.861C165.838 138.397 165.441 138.021 164.952 138.021Z" fill="#50BFA5"/>
<path d="M141.127 77.157C150.252 77.157 157.649 70.1441 157.649 61.4933C157.649 52.8425 150.252 45.8296 141.127 45.8296C132.003 45.8296 124.605 52.8425 124.605 61.4933C124.605 70.1441 132.003 77.157 141.127 77.157Z" fill="#355389"/>
<path d="M141.126 75.2907C149.163 75.2907 155.679 69.1133 155.679 61.4931C155.679 53.8729 149.163 47.6956 141.126 47.6956C133.088 47.6956 126.572 53.8729 126.572 61.4931C126.572 69.1133 133.088 75.2907 141.126 75.2907Z" fill="white"/>
<path d="M128.031 61.2716V61.5986H132.521V61.2716H128.031Z" fill="#C5DDF9"/>
<path d="M149.764 61.2713V61.5984H154.253V61.2713H149.764Z" fill="#C5DDF9"/>
<path d="M141.282 49.1692H140.938V53.4254H141.282V49.1692Z" fill="#C5DDF9"/>
<path d="M141.282 69.6899H140.938V73.9462H141.282V69.6899Z" fill="#C5DDF9"/>
<path d="M141.532 61.4931C141.532 61.7054 141.35 61.8776 141.126 61.8776C140.902 61.8776 140.721 61.7054 140.721 61.4931C140.721 61.2809 140.902 61.1086 141.126 61.1086C141.35 61.1086 141.532 61.2807 141.532 61.4931Z" fill="#B0C1EC"/>
<path d="M141.126 61.665C141.08 61.665 141.033 61.6482 140.998 61.6146L133.711 54.7061C133.641 54.639 133.641 54.5302 133.711 54.463C133.782 54.3958 133.897 54.3958 133.968 54.463L141.255 61.3715C141.325 61.4386 141.325 61.5474 141.255 61.6145C141.219 61.6482 141.173 61.665 141.126 61.665Z" fill="#B0C1EC"/>
<path d="M143.469 68.475C143.439 68.4607 143.415 68.4354 143.403 68.4026L141.048 61.6575C141.025 61.5919 141.062 61.5213 141.131 61.4995C141.2 61.4778 141.275 61.5134 141.298 61.5789L143.653 68.324C143.676 68.3896 143.639 68.4602 143.57 68.482C143.535 68.4929 143.499 68.4893 143.469 68.475Z" fill="#B0C1EC"/>
<path d="M314.155 211.854H18.0918V213.936H314.155V211.854Z" fill="#13375B"/>
</svg>
