<svg width="118" height="118" viewBox="0 0 118 118" fill="none" xmlns="http://www.w3.org/2000/svg">
<path d="M104.765 74.5924H62.109C61.3463 74.5924 60.7256 73.9717 60.7256 73.209V11.0765C60.7256 10.3138 61.3463 9.69312 62.109 9.69312H104.765C105.528 9.69312 106.149 10.3136 106.149 11.0765V73.209C106.149 73.9717 105.528 74.5924 104.765 74.5924ZM62.109 9.75212C61.3786 9.75212 60.7846 10.3464 60.7846 11.0765V73.209C60.7846 73.9394 61.3788 74.5334 62.109 74.5334H104.765C105.495 74.5334 106.09 73.9392 106.09 73.209V11.0765C106.09 10.3464 105.495 9.75212 104.765 9.75212H62.109Z" fill="#E0E0E0"/>
<path d="M55.5763 74.5924H12.9201C12.1573 74.5924 11.5366 73.9717 11.5366 73.209V11.0765C11.5366 10.3138 12.1571 9.69312 12.9201 9.69312H55.5763C56.3391 9.69312 56.9598 10.3136 56.9598 11.0765V73.209C56.9598 73.9717 56.3391 74.5924 55.5763 74.5924ZM12.9201 9.75212C12.1899 9.75212 11.5956 10.3464 11.5956 11.0765V73.209C11.5956 73.9394 12.1899 74.5334 12.9201 74.5334H55.5763C56.3068 74.5334 56.9008 73.9392 56.9008 73.209V11.0765C56.9008 10.3464 56.3065 9.75212 55.5763 9.75212H12.9201Z" fill="#E0E0E0"/>
<path d="M118 89.0049H0V89.0639H118V89.0049Z" fill="#E0E0E0"/>
<path d="M15.9845 92.3713H12.1943V92.4303H15.9845V92.3713Z" fill="#E0E0E0"/>
<path d="M52.8362 91.7317H40.2031V91.7907H52.8362V91.7317Z" fill="#E0E0E0"/>
<path d="M24.7757 94.5637H16.2207V94.6227H24.7757V94.5637Z" fill="#E0E0E0"/>
<path d="M99.4839 91.7009H89.291V91.7599H99.4839V91.7009Z" fill="#E0E0E0"/>
<path d="M103.081 91.7009H101.587V91.7599H103.081V91.7009Z" fill="#E0E0E0"/>
<path d="M87.344 93.1714H74.626V93.2304H87.344V93.1714Z" fill="#E0E0E0"/>
<path d="M16.4925 85.8815C16.6152 85.5332 16.8821 85.3663 17.1922 85.2832C17.4341 85.2186 17.643 85.2795 17.8955 85.3564C18.0125 85.392 18.1608 85.4751 18.3 85.578C18.2703 85.4074 18.2622 85.2377 18.2828 85.1171C18.3271 84.8568 18.3658 84.6427 18.532 84.4554C18.7449 84.2151 19.0134 84.0511 19.3799 84.0971C19.724 84.1403 19.9728 84.4587 20.0823 84.7879C20.1918 85.1171 20.1828 85.5261 20.1292 85.8529C20.0167 86.5385 19.8812 87.0886 19.5631 87.6218C18.7767 87.6482 18.3913 87.5432 17.7279 87.3371C17.4115 87.239 17.0419 87.0639 16.7964 86.8187C16.5508 86.5735 16.3773 86.2088 16.4925 85.8815Z" fill="#EBEBEB"/>
<path d="M105.923 51.3702L84.6704 58.0269L89.1353 72.2818L110.388 65.6252L105.923 51.3702Z" fill="#EBEBEB"/>
<path d="M84.8706 58.1256C84.8706 58.1256 97.7203 63.8285 98.1194 63.7037C98.5185 63.5786 105.82 51.532 105.82 51.532" stroke="#FAFAFA" stroke-width="0.236" stroke-miterlimit="10" stroke-linecap="round" stroke-linejoin="round"/>
<path d="M89.1357 72.2753L93.8508 62.0298" stroke="#FAFAFA" stroke-width="0.236" stroke-miterlimit="10"/>
<path d="M110.388 65.6175L100.614 60.1138" stroke="#FAFAFA" stroke-width="0.236" stroke-miterlimit="10"/>
<path d="M25.8159 63.0332L10.6499 55.5391L5.62333 65.7113L20.7893 73.2055L25.8159 63.0332Z" fill="#EBEBEB"/>
<path d="M10.708 55.7039C10.708 55.7039 14.7741 65.5788 15.0589 65.7195C15.3438 65.8601 25.6751 63.0739 25.6751 63.0739" stroke="#FAFAFA" stroke-width="0.236" stroke-miterlimit="10" stroke-linecap="round" stroke-linejoin="round"/>
<path d="M5.62646 65.7142L13.5922 62.5603" stroke="#FAFAFA" stroke-width="0.236" stroke-miterlimit="10"/>
<path d="M20.7938 73.2078L18.3125 65.0564" stroke="#FAFAFA" stroke-width="0.236" stroke-miterlimit="10"/>
<path d="M84.5044 21.2016L66.1743 19.51L65.0397 31.8044L83.3698 33.4961L84.5044 21.2016Z" fill="#EBEBEB"/>
<path d="M66.2925 19.6509C66.2925 19.6509 74.2764 28.0931 74.6204 28.1249C74.9645 28.1568 84.3701 21.2944 84.3701 21.2944" stroke="#FAFAFA" stroke-width="0.236" stroke-miterlimit="10" stroke-linecap="round" stroke-linejoin="round"/>
<path d="M65.0391 31.8011L71.8984 25.4888" stroke="#FAFAFA" stroke-width="0.236" stroke-miterlimit="10"/>
<path d="M83.3678 33.4922L77.666 26.1814" stroke="#FAFAFA" stroke-width="0.236" stroke-miterlimit="10"/>
<path d="M93.7073 35.5214C94.2268 35.3961 94.6393 35.5887 94.9838 35.8995C95.2526 36.1419 95.3433 36.4432 95.4488 36.8102C95.4976 36.9804 95.5134 37.2256 95.4983 37.4755C95.6819 37.3053 95.8816 37.1618 96.044 37.0918C96.3946 36.9405 96.6849 36.8194 97.0429 36.8732C97.502 36.9424 97.9126 37.1392 98.1453 37.6202C98.3638 38.0719 98.1734 38.6241 97.86 39.0161C97.5466 39.4081 97.0437 39.7191 96.6047 39.9115C95.6843 40.3148 94.9102 40.5831 94.0129 40.6166C93.3621 39.6833 93.186 39.1334 92.9136 38.166C92.7838 37.7046 92.7053 37.1187 92.8093 36.6278C92.9137 36.1367 93.2195 35.6389 93.7073 35.5214Z" fill="#EBEBEB"/>
<path d="M18.9739 21.3031C19.0966 20.9548 19.3635 20.7879 19.6737 20.7049C19.9156 20.6402 20.1244 20.7011 20.3769 20.7778C20.494 20.8134 20.6422 20.8965 20.7814 20.9994C20.7517 20.8288 20.7437 20.6591 20.7642 20.5385C20.8083 20.2782 20.8473 20.0641 21.0134 19.8767C21.2263 19.6365 21.4949 19.4725 21.8614 19.5185C22.2057 19.5617 22.4542 19.88 22.5637 20.2093C22.6732 20.5387 22.6642 20.9472 22.6107 21.2743C22.4981 21.9599 22.3626 22.51 22.0445 23.0429C21.2582 23.0693 20.8728 22.9643 20.2094 22.7583C19.8929 22.6601 19.5233 22.485 19.2779 22.24C19.0322 21.9951 18.8587 21.6302 18.9739 21.3031Z" fill="#EBEBEB"/>
<path d="M97.6765 19.8144C97.7993 19.466 98.0662 19.2992 98.3763 19.2161C98.6182 19.1514 98.8271 19.2123 99.0796 19.289C99.1966 19.3247 99.3448 19.4077 99.4841 19.5106C99.4543 19.34 99.4463 19.1703 99.4668 19.0497C99.5112 18.7894 99.5499 18.5754 99.7161 18.388C99.9289 18.1477 100.198 17.9837 100.564 18.0297C100.908 18.0729 101.157 18.3913 101.266 18.7205C101.376 19.0497 101.367 19.4585 101.313 19.7856C101.201 20.4711 101.065 21.0213 100.747 21.5541C99.9608 21.5806 99.5754 21.4756 98.912 21.2695C98.5955 21.1714 98.226 20.9962 97.9805 20.751C97.7348 20.5063 97.5614 20.1414 97.6765 19.8144Z" fill="#EBEBEB"/>
<path d="M107.684 107.268C107.684 108.068 85.6137 108.715 58.3892 108.715C31.1647 108.715 9.09473 108.068 9.09473 107.268C9.09473 106.469 31.1645 105.821 58.3892 105.821C85.6139 105.821 107.684 106.469 107.684 107.268Z" fill="#F5F5F5"/>
<path d="M88.7193 94.6026L37.871 89.9112C37.2348 89.8524 36.7665 89.2891 36.8253 88.6528L40.0417 53.7911L66.1037 37.6072C67.0595 37.0113 68.2924 37.1085 69.1429 37.847L93.1939 58.6952L89.9767 93.5656C89.9137 94.1981 89.3523 94.6612 88.7193 94.6026Z" fill="#0063CB"/>
<path opacity="0.2" d="M88.7193 94.6026L37.871 89.9112C37.2348 89.8524 36.7665 89.2891 36.8253 88.6528L40.0417 53.7911L66.1037 37.6072C67.0595 37.0113 68.2924 37.1085 69.1429 37.847L93.1939 58.6952L89.9767 93.5656C89.9137 94.1981 89.3523 94.6612 88.7193 94.6026Z" fill="black"/>
<path d="M93.1941 58.6951L89.9767 93.5684C89.9174 94.1522 89.4306 94.599 88.8439 94.6082L88.7287 94.5976L37.8719 89.9054L37.7539 89.8946C37.1814 89.7756 36.7875 89.2482 36.8361 88.6655L40.0535 53.7922L61.251 71.5076L62.4097 72.4858L64.2701 74.0429L66.4963 72.8629L67.8835 72.1195L93.1941 58.6951Z" fill="#0063CB"/>
<path opacity="0.2" d="M90.0184 93.1135L89.9868 93.4562C89.9507 94.0729 89.4603 94.5659 88.8439 94.6055L88.7287 94.5949L37.8719 89.9027L37.7539 89.8919C37.1575 89.7378 36.7688 89.1643 36.8462 88.5533L36.8781 88.2078L61.251 71.5049L62.4097 72.4831L64.2701 74.0402L66.4963 72.8602L67.8835 72.1168L90.0184 93.1135Z" fill="black"/>
<path d="M88.4881 61.1912L67.8834 72.1197L61.4135 71.642L44.374 57.4032L46.1041 38.6504L90.1925 42.7181L88.4881 61.1912Z" fill="#E8EDFF"/>
<path opacity="0.7" d="M88.4881 61.1912L67.8834 72.1197L61.4135 71.642L44.374 57.4032L46.1041 38.6504L90.1925 42.7181L88.4881 61.1912Z" fill="white"/>
<g clip-path="url(#clip0_4568_21620)">
<path d="M51.8821 53.323L52.3348 49.016L53.4239 49.1305L54.2859 51.05L55.5281 49.3517L56.6172 49.4661L56.1645 53.7731L55.2908 53.6813L55.6154 50.5926L54.4862 52.1037L53.8709 52.039L53.0805 50.3261L52.7558 53.4148L51.8821 53.323ZM59.0355 50.8152C60.0445 50.9212 60.6554 51.7381 60.5577 52.6672C60.4601 53.5963 59.6927 54.2684 58.6837 54.1623C57.6746 54.0562 57.0637 53.2393 57.1614 52.3102C57.259 51.3812 58.0264 50.7091 59.0355 50.8152ZM58.7736 53.4253C59.2719 53.4776 59.6893 53.1172 59.7456 52.5819C59.8025 52.0404 59.4685 51.6072 58.9702 51.5548C58.4533 51.5005 58.0305 51.8542 57.9735 52.3956C57.9166 52.9371 58.2567 53.3709 58.7736 53.4253ZM61.1075 54.2926L61.4334 51.1916L62.2148 51.2737L62.189 51.5199C62.4263 51.3333 62.7323 51.2037 63.1445 51.247C63.8152 51.3175 64.302 51.8353 64.2056 52.752L64.0116 54.5979L63.2241 54.5151L63.4148 52.7C63.4582 52.2878 63.2515 52.0048 62.87 51.9647C62.4763 51.9233 62.2393 52.1659 62.1017 52.3505L61.8889 54.3748L61.1075 54.2926Z" fill="#DEE5FD"/>
<path d="M51.8821 53.323L51.7982 53.3142L51.7894 53.3981L51.8733 53.4069L51.8821 53.323ZM52.3348 49.016L52.3436 48.9321L52.2597 48.9233L52.2509 49.0072L52.3348 49.016ZM53.4239 49.1305L53.5008 49.0959L53.4809 49.0517L53.4327 49.0466L53.4239 49.1305ZM54.2859 51.05L54.2089 51.0846L54.2683 51.2169L54.354 51.0998L54.2859 51.05ZM55.5281 49.3517L55.537 49.2678L55.4887 49.2627L55.46 49.3019L55.5281 49.3517ZM56.6172 49.4661L56.7011 49.4749L56.7099 49.391L56.626 49.3822L56.6172 49.4661ZM56.1645 53.7731L56.1557 53.857L56.2396 53.8658L56.2484 53.7819L56.1645 53.7731ZM55.2908 53.6813L55.2069 53.6725L55.1981 53.7564L55.282 53.7652L55.2908 53.6813ZM55.6154 50.5926L55.6993 50.6014L55.7314 50.2965L55.5479 50.5421L55.6154 50.5926ZM54.4862 52.1037L54.4773 52.1876L54.525 52.1926L54.5537 52.1542L54.4862 52.1037ZM53.8709 52.039L53.7943 52.0744L53.8144 52.1179L53.8621 52.123L53.8709 52.039ZM53.0805 50.3261L53.1571 50.2908L53.0286 50.0124L52.9966 50.3173L53.0805 50.3261ZM52.7558 53.4148L52.747 53.4987L52.8309 53.5076L52.8397 53.4237L52.7558 53.4148ZM51.8821 53.323L51.966 53.3318L52.4187 49.0249L52.3348 49.016L52.2509 49.0072L51.7982 53.3142L51.8821 53.323ZM52.3348 49.016L52.326 49.0999L53.415 49.2144L53.4239 49.1305L53.4327 49.0466L52.3436 48.9321L52.3348 49.016ZM53.4239 49.1305L53.3469 49.1651L54.2089 51.0846L54.2859 51.05L54.3628 51.0155L53.5008 49.0959L53.4239 49.1305ZM54.2859 51.05L54.354 51.0998L55.5962 49.4015L55.5281 49.3517L55.46 49.3019L54.2178 51.0002L54.2859 51.05ZM55.5281 49.3517L55.5193 49.4356L56.6084 49.55L56.6172 49.4661L56.626 49.3822L55.537 49.2678L55.5281 49.3517ZM56.6172 49.4661L56.5333 49.4573L56.0806 53.7643L56.1645 53.7731L56.2484 53.7819L56.7011 49.4749L56.6172 49.4661ZM56.1645 53.7731L56.1733 53.6892L55.2996 53.5974L55.2908 53.6813L55.282 53.7652L56.1557 53.857L56.1645 53.7731ZM55.2908 53.6813L55.3747 53.6901L55.6993 50.6014L55.6154 50.5926L55.5315 50.5837L55.2069 53.6725L55.2908 53.6813ZM55.6154 50.5926L55.5479 50.5421L54.4186 52.0532L54.4862 52.1037L54.5537 52.1542L55.683 50.6431L55.6154 50.5926ZM54.4862 52.1037L54.495 52.0198L53.8797 51.9551L53.8709 52.039L53.8621 52.123L54.4773 52.1876L54.4862 52.1037ZM53.8709 52.039L53.9475 52.0037L53.1571 50.2908L53.0805 50.3261L53.0039 50.3615L53.7943 52.0744L53.8709 52.039ZM53.0805 50.3261L52.9966 50.3173L52.6719 53.406L52.7558 53.4148L52.8397 53.4237L53.1644 50.3349L53.0805 50.3261ZM52.7558 53.4148L52.7647 53.3309L51.891 53.2391L51.8821 53.323L51.8733 53.4069L52.747 53.4987L52.7558 53.4148ZM59.0355 50.8152L59.0266 50.8991C59.9884 51.0001 60.5667 51.7746 60.4738 52.6584L60.5577 52.6672L60.6416 52.676C60.7441 51.7016 60.1007 50.8423 59.0443 50.7313L59.0355 50.8152ZM60.5577 52.6672L60.4738 52.6584C60.3809 53.5422 59.6542 54.1795 58.6925 54.0784L58.6837 54.1623L58.6748 54.2462C59.7312 54.3572 60.5392 53.6504 60.6416 52.676L60.5577 52.6672ZM58.6837 54.1623L58.6925 54.0784C57.7308 53.9773 57.1524 53.2028 57.2453 52.3191L57.1614 52.3102L57.0775 52.3014C56.9751 53.2758 57.6184 54.1352 58.6748 54.2462L58.6837 54.1623ZM57.1614 52.3102L57.2453 52.3191C57.3382 51.4353 58.0649 50.798 59.0266 50.8991L59.0355 50.8152L59.0443 50.7313C57.9879 50.6202 57.1799 51.327 57.0775 52.3014L57.1614 52.3102ZM58.7736 53.4253L58.7647 53.5092C59.3146 53.567 59.7689 53.1669 59.8295 52.5907L59.7456 52.5819L59.6617 52.573C59.6097 53.0674 59.2292 53.3883 58.7824 53.3414L58.7736 53.4253ZM59.7456 52.5819L59.8295 52.5907C59.8907 52.0079 59.5285 51.5287 58.979 51.4709L58.9702 51.5548L58.9613 51.6387C59.4086 51.6857 59.7142 52.0729 59.6617 52.573L59.7456 52.5819ZM58.9702 51.5548L58.979 51.4709C58.4128 51.4114 57.9511 51.802 57.8896 52.3868L57.9735 52.3956L58.0574 52.4044C58.1098 51.9063 58.4938 51.5896 58.9613 51.6387L58.9702 51.5548ZM57.9735 52.3956L57.8896 52.3868C57.8282 52.9716 58.1986 53.4497 58.7647 53.5092L58.7736 53.4253L58.7824 53.3414C58.3148 53.2922 58.0051 52.9026 58.0574 52.4044L57.9735 52.3956ZM61.1075 54.2926L61.0236 54.2838L61.0148 54.3677L61.0987 54.3765L61.1075 54.2926ZM61.4334 51.1916L61.4422 51.1077L61.3583 51.0989L61.3495 51.1828L61.4334 51.1916ZM62.2148 51.2737L62.2987 51.2826L62.3076 51.1987L62.2237 51.1898L62.2148 51.2737ZM62.189 51.5199L62.1051 51.511L62.0842 51.7095L62.2411 51.5862L62.189 51.5199ZM64.0116 54.5979L64.0028 54.6818L64.0867 54.6906L64.0955 54.6067L64.0116 54.5979ZM63.2241 54.5151L63.1402 54.5063L63.1313 54.5902L63.2152 54.599L63.2241 54.5151ZM62.1017 52.3505L62.034 52.3001L62.0202 52.3186L62.0178 52.3417L62.1017 52.3505ZM61.8889 54.3748L61.8801 54.4587L61.964 54.4675L61.9728 54.3836L61.8889 54.3748ZM61.1075 54.2926L61.1914 54.3015L61.5173 51.2004L61.4334 51.1916L61.3495 51.1828L61.0236 54.2838L61.1075 54.2926ZM61.4334 51.1916L61.4246 51.2755L62.206 51.3576L62.2148 51.2737L62.2237 51.1898L61.4422 51.1077L61.4334 51.1916ZM62.2148 51.2737L62.1309 51.2649L62.1051 51.511L62.189 51.5199L62.2729 51.5287L62.2987 51.2826L62.2148 51.2737ZM62.189 51.5199L62.2411 51.5862C62.4639 51.411 62.7486 51.2903 63.1357 51.3309L63.1445 51.247L63.1534 51.1631C62.716 51.1172 62.3887 51.2556 62.1368 51.4535L62.189 51.5199ZM63.1445 51.247L63.1357 51.3309C63.4514 51.3641 63.7183 51.5016 63.8957 51.7334C64.0733 51.9655 64.1682 52.3012 64.1217 52.7432L64.2056 52.752L64.2895 52.7608C64.3394 52.2861 64.2391 51.9045 64.0297 51.6309C63.8202 51.3571 63.5083 51.2004 63.1534 51.1631L63.1445 51.247ZM64.2056 52.752L64.1217 52.7432L63.9277 54.5891L64.0116 54.5979L64.0955 54.6067L64.2895 52.7608L64.2056 52.752ZM64.0116 54.5979L64.0204 54.514L63.2329 54.4312L63.2241 54.5151L63.2152 54.599L64.0028 54.6818L64.0116 54.5979ZM63.2241 54.5151L63.308 54.5239L63.4987 52.7088L63.4148 52.7L63.3309 52.6912L63.1402 54.5063L63.2241 54.5151ZM63.4148 52.7L63.4987 52.7088C63.522 52.4872 63.479 52.2909 63.3696 52.1427C63.2595 51.9935 63.0894 51.9029 62.8789 51.8808L62.87 51.9647L62.8612 52.0486C63.0321 52.0666 63.1561 52.1375 63.2339 52.2429C63.3124 52.3493 63.351 52.5006 63.3309 52.6912L63.4148 52.7ZM62.87 51.9647L62.8789 51.8808C62.4392 51.8346 62.1767 52.1086 62.034 52.3001L62.1017 52.3505L62.1693 52.4009C62.3018 52.2232 62.5134 52.012 62.8612 52.0486L62.87 51.9647ZM62.1017 52.3505L62.0178 52.3417L61.805 54.366L61.8889 54.3748L61.9728 54.3836L62.1856 52.3593L62.1017 52.3505ZM61.8889 54.3748L61.8977 54.2909L61.1163 54.2087L61.1075 54.2926L61.0987 54.3765L61.8801 54.4587L61.8889 54.3748Z" fill="#1212FF"/>
<path d="M53.5164 54.9795C53.962 55.0263 54.3455 55.1565 54.667 55.3702C54.9926 55.5843 55.2336 55.863 55.39 56.2065C55.5467 56.5459 55.6033 56.9238 55.5595 57.3402C55.5157 57.7567 55.3796 58.1164 55.1512 58.4194C54.9269 58.7228 54.6291 58.945 54.2581 59.0858C53.891 59.2271 53.4807 59.2739 53.0271 59.2262L51.2348 59.0379L51.6816 54.7866L53.5164 54.9795ZM53.1943 58.3363C53.409 58.3589 53.6047 58.3284 53.7814 58.2447C53.958 58.1611 54.1027 58.0312 54.2154 57.855C54.3281 57.6788 54.397 57.4715 54.4221 57.2329C54.4476 56.9904 54.4195 56.7708 54.3378 56.5741C54.2601 56.3779 54.1395 56.2202 53.976 56.1008C53.8129 55.9774 53.6199 55.9039 53.3972 55.8805L52.6985 55.8071L52.441 58.2572L53.1943 58.3363Z" fill="#1212FF"/>
<path d="M62.9673 55.9729L64.1763 56.1L65.1483 58.7161L66.6369 56.3586L67.8459 56.4857L67.3991 60.7369L66.4148 60.6335L66.6918 57.9402L65.3659 60.094L64.649 60.0186L63.7938 57.6356L63.5108 60.3282L62.5205 60.2241L62.9673 55.9729Z" fill="#1212FF"/>
<path d="M69.5864 56.6685L70.6982 56.7853L70.2514 61.0366L69.1396 60.9197L69.5864 56.6685Z" fill="#1212FF"/>
<path d="M72.438 56.9683L75.6215 57.3029L75.5224 58.1876L73.4567 57.9705L73.3573 58.9166L75.265 59.1171L75.1719 60.0025L73.2642 59.802L73.103 61.3364L71.9912 61.2195L72.438 56.9683Z" fill="#1212FF"/>
<path d="M79.5078 62.0095L79.2954 61.2269L77.4544 61.0334L77.0777 61.7541L75.9355 61.6341L78.2111 57.575L79.3533 57.6951L80.6926 62.134L79.5078 62.0095ZM77.8779 60.2195L79.0564 60.3433L78.6326 58.7659L77.8779 60.2195Z" fill="#1212FF"/>
<path fill-rule="evenodd" clip-rule="evenodd" d="M59.134 55.8826C58.1274 55.7768 57.2258 56.5056 57.1202 57.5104C57.0146 58.5152 57.745 59.4155 58.7516 59.5213C59.7582 59.6271 60.6598 58.8984 60.7654 57.8935C60.871 56.8887 60.1406 55.9884 59.134 55.8826ZM56.5126 57.4466C56.6534 56.1068 57.8556 55.1351 59.1977 55.2762C60.5399 55.4172 61.5138 56.6177 61.373 57.9574C61.2322 59.2972 60.03 60.2688 58.6878 60.1278C57.3457 59.9867 56.3718 58.7863 56.5126 57.4466Z" fill="#1212FF"/>
<path d="M58.5921 61.0375L57.9463 59.5901L59.5247 59.756L58.5921 61.0375Z" fill="#1212FF"/>
<path d="M59.0963 56.4168C59.1016 56.4173 59.1068 56.4201 59.1103 56.4241L60.1003 57.7026C60.1022 57.7052 60.1039 57.7084 60.1042 57.7119C60.1044 57.7152 60.1029 57.7184 60.1012 57.7214C60.0996 57.7243 60.0976 57.7269 60.0946 57.7285C60.0916 57.7301 60.088 57.7308 60.0846 57.7304L59.9331 57.7145C59.9153 57.7126 59.8973 57.7148 59.8805 57.7198L59.8337 57.7443C59.8059 57.7668 59.7878 57.7989 59.784 57.8343L59.6935 58.6948C59.6915 58.7126 59.683 58.7291 59.6691 58.7404C59.6551 58.7517 59.6366 58.7566 59.6185 58.7547L58.0995 58.595C58.0817 58.5931 58.0653 58.5845 58.054 58.5706C58.0427 58.5567 58.0368 58.5387 58.0386 58.5209L58.129 57.6604C58.1308 57.6426 58.1298 57.6247 58.1247 57.6079L58.1001 57.5621L58.0594 57.5284C58.044 57.5199 58.027 57.5142 58.0091 57.5123L57.8566 57.4962C57.8533 57.4958 57.8497 57.4944 57.8472 57.4923C57.8447 57.4902 57.8431 57.487 57.8422 57.4839C57.8412 57.4807 57.8413 57.4773 57.8422 57.4741L57.847 57.4658L59.0812 56.4211C59.0853 56.4178 59.091 56.4163 59.0963 56.4168Z" fill="#DEE5FD" stroke="#1212FF" stroke-width="0.168729"/>
</g>
<path opacity="0.2" d="M44.5203 55.8152L61.8366 70.5524C61.8366 70.5524 63.4572 69.6535 64.8933 69.9957C66.3293 70.3379 67.7272 71.0959 67.7272 71.0959L88.6084 59.8829L88.4876 61.1915L67.8829 72.1199L61.413 71.6423L44.3735 57.4037L44.5203 55.8152Z" fill="black"/>
<path d="M90.0153 93.209L89.9853 93.5335C89.9247 94.1912 89.3597 94.6766 88.7234 94.6181L37.8751 89.9267C37.2389 89.8679 36.7723 89.2871 36.8329 88.6296L36.8629 88.3051L62.4647 71.8208L62.9834 71.4873C63.9415 70.8694 65.1737 70.966 66.0226 71.7257L66.56 72.1986L90.0153 93.209Z" fill="#0063CB"/>
<path d="M46.0269 59.053L47.7039 40.8777L87.8914 44.5855L86.2571 62.2985" stroke="#0063CB" stroke-width="0.236" stroke-miterlimit="10" stroke-linecap="round" stroke-linejoin="round"/>
<path d="M95.5123 94.5426C95.3624 93.9233 95.2119 93.2974 95.2062 92.6602C95.2005 92.023 95.353 91.3643 95.7518 90.8676C96.0726 90.468 96.5321 90.1957 96.8429 89.7883C97.3642 89.1051 97.4197 88.1087 98.0658 87.5421C98.497 87.1638 99.1016 87.0623 99.5986 86.776C100.102 86.4857 100.477 86.0178 100.933 85.6583C101.39 85.2989 102.018 85.0464 102.549 85.2833C103.216 85.5809 103.37 86.4841 103.192 87.1926C103.014 87.901 102.605 88.5425 102.486 89.263C102.404 89.7626 102.445 90.3314 102.104 90.7068C101.746 91.1029 101.107 91.1102 100.709 91.4661C100.286 91.8441 100.26 92.4811 100.103 93.0265C99.8479 93.9171 99.1521 94.6698 98.2844 94.9945C97.4166 95.3192 96.3978 95.2078 95.6204 94.7035" fill="#0063CB"/>
<g opacity="0.4">
<path d="M95.5123 94.5426C95.3624 93.9233 95.2119 93.2974 95.2062 92.6602C95.2005 92.023 95.353 91.3643 95.7518 90.8676C96.0726 90.468 96.5321 90.1957 96.8429 89.7883C97.3642 89.1051 97.4197 88.1087 98.0658 87.5421C98.497 87.1638 99.1016 87.0623 99.5986 86.776C100.102 86.4857 100.477 86.0178 100.933 85.6583C101.39 85.2989 102.018 85.0464 102.549 85.2833C103.216 85.5809 103.37 86.4841 103.192 87.1926C103.014 87.901 102.605 88.5425 102.486 89.263C102.404 89.7626 102.445 90.3314 102.104 90.7068C101.746 91.1029 101.107 91.1102 100.709 91.4661C100.286 91.8441 100.26 92.4811 100.103 93.0265C99.8479 93.9171 99.1521 94.6698 98.2844 94.9945C97.4166 95.3192 96.3978 95.2078 95.6204 94.7035" fill="white"/>
</g>
<path d="M95.7177 85.8021C95.113 85.6013 94.5023 85.3978 93.9588 85.0653C93.4153 84.7328 92.9371 84.2547 92.7268 83.6531C92.5576 83.1695 92.5699 82.6355 92.3889 82.1561C92.0854 81.3521 91.2693 80.7777 91.1308 79.9295C91.0383 79.3635 91.2724 78.7967 91.2927 78.2237C91.3132 77.6426 91.1143 77.0774 91.0512 76.4995C90.9882 75.9215 91.1062 75.2557 91.5884 74.9308C92.1942 74.5225 93.0417 74.8699 93.5484 75.3962C94.055 75.9224 94.3831 76.6083 94.9313 77.0909C95.3115 77.4255 95.8156 77.6917 95.9541 78.1791C96.1002 78.6928 95.7682 79.2387 95.8593 79.765C95.956 80.3241 96.4825 80.6837 96.8623 81.1052C97.4827 81.7934 97.7527 82.782 97.5686 83.6901C97.3845 84.5983 96.7509 85.4035 95.9114 85.796" fill="#0063CB"/>
<g opacity="0.2">
<path d="M95.7177 85.8021C95.113 85.6013 94.5023 85.3978 93.9588 85.0653C93.4153 84.7328 92.9371 84.2547 92.7268 83.6531C92.5576 83.1695 92.5699 82.6355 92.3889 82.1561C92.0854 81.3521 91.2693 80.7777 91.1308 79.9295C91.0383 79.3635 91.2724 78.7967 91.2927 78.2237C91.3132 77.6426 91.1143 77.0774 91.0512 76.4995C90.9882 75.9215 91.1062 75.2557 91.5884 74.9308C92.1942 74.5225 93.0417 74.8699 93.5484 75.3962C94.055 75.9224 94.3831 76.6083 94.9313 77.0909C95.3115 77.4255 95.8156 77.6917 95.9541 78.1791C96.1002 78.6928 95.7682 79.2387 95.8593 79.765C95.956 80.3241 96.4825 80.6837 96.8623 81.1052C97.4827 81.7934 97.7527 82.782 97.5686 83.6901C97.3845 84.5983 96.7509 85.4035 95.9114 85.796" fill="black"/>
</g>
<path d="M94.6356 92.3781C94.2616 92.6899 93.8833 93.0047 93.4481 93.2235C93.0131 93.4425 92.5098 93.5605 92.0344 93.4545C91.6521 93.3693 91.3102 93.1463 90.926 93.0708C90.2814 92.9438 89.5793 93.2423 88.9726 92.9905C88.5676 92.8225 88.2938 92.4421 87.9299 92.198C87.5608 91.9505 87.1136 91.8521 86.7126 91.66C86.3119 91.4681 85.927 91.1231 85.9102 90.6789C85.889 90.121 86.4566 89.7104 87.0025 89.5933C87.5483 89.4763 88.126 89.5397 88.6606 89.3781C89.0311 89.266 89.4073 89.046 89.7795 89.1522C90.1719 89.2643 90.3928 89.7 90.7714 89.8529C91.1735 90.0153 91.6193 89.8184 92.046 89.7415C92.7429 89.616 93.4941 89.839 94.0098 90.3244C94.5254 90.8099 94.7931 91.5462 94.7097 92.2495" fill="#0063CB"/>
<g opacity="0.2">
<path d="M94.6356 92.3781C94.2616 92.6899 93.8833 93.0047 93.4481 93.2235C93.0131 93.4425 92.5098 93.5605 92.0344 93.4545C91.6521 93.3693 91.3102 93.1463 90.926 93.0708C90.2814 92.9438 89.5793 93.2423 88.9726 92.9905C88.5676 92.8225 88.2938 92.4421 87.9299 92.198C87.5608 91.9505 87.1136 91.8521 86.7126 91.66C86.3119 91.4681 85.927 91.1231 85.9102 90.6789C85.889 90.121 86.4566 89.7104 87.0025 89.5933C87.5483 89.4763 88.126 89.5397 88.6606 89.3781C89.0311 89.266 89.4073 89.046 89.7795 89.1522C90.1719 89.2643 90.3928 89.7 90.7714 89.8529C91.1735 90.0153 91.6193 89.8184 92.046 89.7415C92.7429 89.616 93.4941 89.839 94.0098 90.3244C94.5254 90.8099 94.7931 91.5462 94.7097 92.2495" fill="black"/>
</g>
<path d="M94.4995 90.3126C93.8566 90.414 93.2069 90.516 92.5577 90.4695C91.9084 90.4228 91.2502 90.2134 90.7771 89.7665C90.3966 89.4068 90.1571 88.9166 89.7679 88.5666C89.1151 87.9795 88.1051 87.8412 87.5811 87.1367C87.2316 86.6666 87.1781 86.0424 86.9274 85.5128C86.6735 84.9759 86.2274 84.5565 85.8992 84.0616C85.5707 83.5667 85.3653 82.9071 85.6502 82.386C86.0082 81.7314 86.9404 81.6488 87.6472 81.8883C88.354 82.1278 88.9735 82.5965 89.6976 82.7771C90.1996 82.9024 90.782 82.9073 91.1362 83.2845C91.5098 83.6821 91.4648 84.3333 91.7945 84.768C92.1447 85.2298 92.7911 85.3091 93.3336 85.5133C94.2196 85.8467 94.9288 86.6168 95.1879 87.5273C95.447 88.4378 95.25 89.466 94.6725 90.2158" fill="#0063CB"/>
<g opacity="0.4">
<path d="M94.4995 90.3126C93.8566 90.414 93.2069 90.516 92.5577 90.4695C91.9084 90.4228 91.2502 90.2134 90.7771 89.7665C90.3966 89.4068 90.1571 88.9166 89.7679 88.5666C89.1151 87.9795 88.1051 87.8412 87.5811 87.1367C87.2316 86.6666 87.1781 86.0424 86.9274 85.5128C86.6735 84.9759 86.2274 84.5565 85.8992 84.0616C85.5707 83.5667 85.3653 82.9071 85.6502 82.386C86.0082 81.7314 86.9404 81.6488 87.6472 81.8883C88.354 82.1278 88.9735 82.5965 89.6976 82.7771C90.1996 82.9024 90.782 82.9073 91.1362 83.2845C91.5098 83.6821 91.4648 84.3333 91.7945 84.768C92.1447 85.2298 92.7911 85.3091 93.3336 85.5133C94.2196 85.8467 94.9288 86.6168 95.1879 87.5273C95.447 88.4378 95.25 89.466 94.6725 90.2158" fill="white"/>
</g>
<path d="M95.2557 86.6677C94.9616 85.9982 94.665 85.3213 94.5302 84.6025C94.3955 83.8836 94.4346 83.1086 94.7853 82.4667C95.0674 81.9506 95.5313 81.5501 95.8006 81.0271C96.2518 80.1499 96.1135 79.0128 96.7295 78.2423C97.1406 77.728 97.8033 77.4913 98.3072 77.0677C98.8181 76.6382 99.1464 76.034 99.5901 75.5356C100.034 75.0372 100.692 74.6256 101.34 74.7863C102.153 74.9881 102.51 75.9774 102.451 76.8138C102.393 77.6502 102.061 78.4573 102.072 79.2958C102.079 79.8771 102.24 80.5114 101.932 81.004C101.606 81.5236 100.886 81.6608 100.508 82.1431C100.106 82.6557 100.205 83.3807 100.138 84.0285C100.029 85.0863 99.3944 86.077 98.4794 86.6189C97.5642 87.1607 96.3906 87.2405 95.4107 86.8273" fill="#0063CB"/>
<g opacity="0.4">
<path d="M95.2557 86.6677C94.9616 85.9982 94.665 85.3213 94.5302 84.6025C94.3955 83.8836 94.4346 83.1086 94.7853 82.4667C95.0674 81.9506 95.5313 81.5501 95.8006 81.0271C96.2518 80.1499 96.1135 79.0128 96.7295 78.2423C97.1406 77.728 97.8033 77.4913 98.3072 77.0677C98.8181 76.6382 99.1464 76.034 99.5901 75.5356C100.034 75.0372 100.692 74.6256 101.34 74.7863C102.153 74.9881 102.51 75.9774 102.451 76.8138C102.393 77.6502 102.061 78.4573 102.072 79.2958C102.079 79.8771 102.24 80.5114 101.932 81.004C101.606 81.5236 100.886 81.6608 100.508 82.1431C100.106 82.6557 100.205 83.3807 100.138 84.0285C100.029 85.0863 99.3944 86.077 98.4794 86.6189C97.5642 87.1607 96.3906 87.2405 95.4107 86.8273" fill="white"/>
</g>
<path d="M94.4482 96.497C96.6191 93.1611 99.1281 90.0497 101.706 87.0226C101.779 86.9362 101.655 86.8106 101.581 86.8975C98.9933 89.936 96.4745 93.0597 94.2955 96.4078C94.2329 96.5036 94.3861 96.5924 94.4482 96.497Z" fill="#263238"/>
<path d="M94.4605 96.4524C94.2524 93.8958 94.7791 91.2783 95.4388 88.8208C96.1779 86.0667 97.1863 83.3636 98.4917 80.8263C99.1126 79.6194 99.8052 78.4363 100.645 77.3673C100.715 77.2788 100.591 77.1525 100.52 77.2422C98.928 79.2682 97.7931 81.6601 96.8439 84.0423C95.7732 86.7289 94.929 89.5401 94.4945 92.4033C94.2918 93.7393 94.1738 95.102 94.2838 96.4521C94.2927 96.5652 94.4697 96.5661 94.4605 96.4524Z" fill="#263238"/>
<path d="M94.7402 90.1397C94.077 88.7962 92.8177 87.9395 91.6191 87.113C90.1856 86.1247 88.9065 85.0148 87.878 83.5988C87.8117 83.5074 87.658 83.5957 87.7251 83.688C88.6936 85.0216 89.8819 86.1204 91.2313 87.0595C92.4972 87.9407 93.8816 88.7995 94.5872 90.2292C94.6377 90.3314 94.7904 90.2417 94.7402 90.1397Z" fill="#263238"/>
<path d="M100.194 96.1252H89.2972C89.2972 96.1252 88.8896 103.257 92.3293 106.079L91.0868 107.559H98.6034L97.1834 106.005C97.1838 106.005 100.014 104.783 100.194 96.1252Z" fill="#263238"/>
<g opacity="0.3">
<path d="M92.7886 96.7588L89.9453 96.7843C90.0912 98.3209 90.2387 99.8674 90.6557 101.353C91.0725 102.84 91.7783 104.278 92.8963 105.342C92.1762 102.592 92.4611 99.5828 92.7886 96.7588Z" fill="white"/>
</g>
<path d="M38.9418 22.4192C41.5052 20.4415 45.1866 20.9161 47.1643 23.4795C49.1422 26.0429 48.6674 29.7243 46.1039 31.702C44.1248 33.2289 41.4826 33.2881 39.469 32.0591L37.7838 32.5688L37.9445 30.7155C37.9242 30.69 37.9013 30.6676 37.8812 30.6416C35.9036 28.0784 36.3784 24.3971 38.9418 22.4192Z" fill="#0063CB"/>
<path d="M46.9985 22.1405C45.6703 20.7736 43.626 20.1446 41.7593 20.5286" stroke="#0063CB" stroke-width="0.118" stroke-miterlimit="10" stroke-linecap="round" stroke-linejoin="round"/>
<path d="M40.909 20.7349C40.6207 20.7722 40.3403 20.8696 40.0913 21.0195" stroke="#0063CB" stroke-width="0.118" stroke-miterlimit="10" stroke-linecap="round" stroke-linejoin="round"/>
<g opacity="0.7">
<path d="M38.9418 22.4192C41.5052 20.4415 45.1866 20.9161 47.1643 23.4795C49.1422 26.0429 48.6674 29.7243 46.1039 31.702C44.1248 33.2289 41.4826 33.2881 39.469 32.0591L37.7838 32.5688L37.9445 30.7155C37.9242 30.69 37.9013 30.6676 37.8812 30.6416C35.9036 28.0784 36.3784 24.3971 38.9418 22.4192Z" fill="white"/>
</g>
<path d="M39.6274 25.1502C40.0907 24.7768 40.5978 24.774 41.093 24.9229C41.4793 25.039 41.7139 25.2993 41.995 25.6186C42.1252 25.7666 42.2579 26.0061 42.3617 26.265C42.4656 26.0061 42.5982 25.7666 42.7285 25.6186C43.0095 25.2993 43.2441 25.039 43.6304 24.9229C44.1256 24.774 44.6327 24.7766 45.096 25.1502C45.5312 25.5009 45.6022 26.1477 45.4734 26.6917C45.3445 27.2357 44.9863 27.7884 44.6358 28.1913C43.9009 29.0357 43.2493 29.6745 42.3617 30.1357C41.2617 29.5058 40.8225 29.0357 40.0876 28.1913C39.7372 27.7887 39.3789 27.2359 39.2501 26.6917C39.1212 26.1477 39.1922 25.5009 39.6274 25.1502Z" fill="#0063CB"/>
<path d="M27.4627 30.6538C27.0906 30.2227 26.5272 29.9631 25.9575 29.9605C25.388 29.9579 24.8221 30.2123 24.4462 30.6401C24.1901 30.9316 24.0249 31.2891 23.8486 31.6347C23.4255 32.4632 22.9188 33.2491 22.3389 33.9767C22.0085 34.3909 21.6439 34.7947 21.1766 35.0441C20.471 35.4206 19.6306 35.3989 18.831 35.4246C18.0317 35.4503 17.1668 35.5626 16.5945 36.1215C16.4788 36.2345 16.3754 36.3695 16.3429 36.5279C16.261 36.9258 16.657 37.2758 17.053 37.3661C17.449 37.4565 17.8663 37.3874 18.2656 37.4615C17.9477 37.6305 17.6416 37.8525 17.4702 38.1693C17.2989 38.486 17.2951 38.9141 17.5389 39.1791C17.7088 39.3639 17.9642 39.442 18.2111 39.4876C18.8575 39.6067 19.5348 39.5529 20.1543 39.3334C19.796 39.7151 19.4099 40.193 19.5327 40.702C19.6672 41.2599 20.3341 41.4973 20.9074 41.5242C22.2174 41.5856 23.4849 41.0416 24.5982 40.348C26.1444 39.3847 27.563 37.9963 27.9425 36.2142C28.1169 35.3953 28.0641 34.5282 28.3491 33.741L27.4627 30.6538Z" fill="#263238"/>
<path d="M27.9821 28.2025C27.819 27.8481 27.321 27.7917 26.9555 27.9283C26.3775 28.1445 25.9579 28.7305 25.9395 29.3474C25.9211 29.9643 26.305 30.5743 26.8693 30.8245L26.9033 31.098C26.3119 30.5146 25.5232 30.1349 24.6984 30.0363C24.2393 29.9813 23.7527 30.0169 23.3524 30.248C22.9522 30.479 22.6621 30.9383 22.7301 31.3954C22.8052 31.9002 23.2923 32.2681 23.7959 32.3507C24.2995 32.4333 24.8121 32.2868 25.2874 32.1008C25.7627 31.9148 26.2272 31.6861 26.7291 31.5934C26.8922 31.5632 27.086 31.5278 27.1532 31.3763C27.1929 31.2866 27.1733 31.1837 27.1707 31.0858C27.1615 30.7315 27.3807 30.4191 27.5523 30.109C27.7892 29.6806 27.9478 29.2093 28.0184 28.7251C28.0434 28.5497 28.0559 28.3633 27.9821 28.2025Z" fill="#0063CB"/>
<path d="M32.7245 29.8504C34.1115 30.8354 34.4763 32.2042 34.4296 33.1862C34.2158 34.5081 33.3589 35.4049 32.9636 36.684L30.0391 28.8459C30.8563 29.0326 31.2311 28.8747 32.7245 29.8504Z" fill="#263238"/>
<path d="M30.9801 29.1134C29.6205 28.4326 28.246 29.1498 27.4424 29.6527C26.5586 30.3598 26.0191 31.4111 25.9604 32.5416C25.9297 33.5991 25.8926 34.8813 26.5178 35.451C26.8678 35.7807 27.3402 35.948 27.8196 35.9121L33.1897 31.2365C32.6455 30.3527 31.8851 29.6218 30.9801 29.1134Z" fill="#263238"/>
<path d="M30.9266 41.3181C30.5887 41.0476 29.8304 40.0479 29.9137 39.4931L30.3052 37.636C30.3055 37.6148 30.3057 37.5959 30.3057 37.5768L29.0634 36.9216C29.0634 36.9216 29.0629 36.9209 29.0625 36.9207C28.7533 36.5983 28.2414 36.5875 27.9191 36.8964C27.7982 37.0061 27.7083 36.9599 27.6727 37.1194C27.6644 37.1543 27.6861 37.38 27.6828 37.4158C27.6354 38.6567 27.4242 39.4384 26.7261 39.9778L29.5005 43.102C31.0333 42.074 31.1282 41.4975 30.9266 41.3181Z" fill="#FFA666"/>
<path opacity="0.2" d="M29.9404 39.3874C29.9463 39.335 29.9659 39.2293 29.9794 39.1785C30.0636 38.7535 30.1668 38.2685 30.3088 37.5735C30.3055 37.5518 30.3058 37.5298 30.3095 37.5084L29.0063 36.807C28.6743 36.47 28.1324 36.4648 27.794 36.7954C27.6722 36.9148 27.7048 37.0652 27.6685 37.2318C28.1983 38.226 28.9037 39.0358 29.9067 39.5486C29.9076 39.4934 29.9308 39.4483 29.9392 39.3935L29.9404 39.3874Z" fill="black"/>
<path d="M26.7345 32.8737C26.7187 35.3206 26.6578 36.3524 27.7812 37.7136C29.4728 39.7583 32.4177 39.3109 33.1615 36.9308C33.8134 34.7875 33.7416 31.1538 31.4687 29.965C29.1958 28.7761 26.7525 30.4238 26.7345 32.8737Z" fill="#FFA666"/>
<path d="M25.5916 34.9368C25.8236 35.4718 26.2578 35.8407 26.6762 35.9976C27.3059 36.2338 27.759 35.2299 27.6117 34.5556C27.4791 33.9487 26.8863 33.4892 26.241 33.5449C25.6053 33.5998 25.3263 34.3251 25.5916 34.9368Z" fill="#FFA666"/>
<path opacity="0.2" d="M26.9756 34.9621C26.9864 34.7285 26.9012 34.4918 26.7441 34.3188C26.5869 34.1456 26.3594 34.0382 26.126 34.0266" stroke="black" stroke-width="0.118" stroke-miterlimit="10" stroke-linecap="round" stroke-linejoin="round"/>
<path d="M29.7034 34.0043C29.6859 34.2648 29.802 34.4933 29.9628 34.515C30.1235 34.5367 30.2677 34.3432 30.2851 34.0826C30.3026 33.8223 30.1865 33.5937 30.0258 33.5719C29.8653 33.5505 29.7211 33.744 29.7034 34.0043Z" fill="#263238"/>
<path d="M32.085 34.2795C32.0687 34.5318 32.1853 34.7541 32.3453 34.7756C32.5053 34.7971 32.6486 34.6102 32.6649 34.3576C32.6812 34.1054 32.5646 33.8831 32.4046 33.8616C32.2446 33.8399 32.1015 34.027 32.085 34.2795Z" fill="#263238"/>
<path d="M29.4818 33.0581C29.5127 33.0652 29.5453 33.0598 29.5719 33.0402C29.989 32.7339 30.3996 32.9047 30.4043 32.9068C30.4652 32.9323 30.5329 32.904 30.5546 32.8415C30.5761 32.7789 30.5438 32.707 30.4824 32.6805C30.461 32.6716 29.9455 32.4563 29.4282 32.8368C29.3768 32.8748 29.3671 32.951 29.4067 33.0074C29.4259 33.0341 29.453 33.0515 29.4818 33.0581Z" fill="#263238"/>
<path d="M33.2572 33.1495C33.2826 33.1441 33.3053 33.128 33.3192 33.1023C33.3478 33.0495 33.3287 32.9758 33.2765 32.9383C32.7526 32.56 32.3108 32.7521 32.2919 32.7606C32.2393 32.7842 32.2195 32.8524 32.2478 32.9131C32.2759 32.9735 32.3412 33.0032 32.3936 32.9798C32.4109 32.972 32.7561 32.829 33.1727 33.1297C33.1996 33.1493 33.23 33.1554 33.2572 33.1495Z" fill="#263238"/>
<path d="M31.6065 34.0801C31.6065 34.0801 31.8852 35.0401 32.2524 35.6606C32.3166 35.7691 32.2531 35.9096 32.1309 35.9393C31.8158 36.0162 31.4736 35.8753 31.4736 35.8753L31.6065 34.0801Z" fill="#E57C35"/>
<path d="M29.9019 33.5801L30.4789 33.5112C30.4789 33.5112 30.1239 33.8952 29.9019 33.5801Z" fill="#263238"/>
<path d="M32.3428 33.8607L32.9198 33.7917C32.9198 33.7917 32.5648 34.176 32.3428 33.8607Z" fill="#263238"/>
<path d="M31.3499 36.5537C31.1405 36.7753 30.855 37.2265 30.855 37.2265C30.8094 37.2081 30.7639 37.1894 30.7193 37.1687C30.1078 36.9022 29.9122 36.5766 29.8808 36.2964C29.864 36.143 29.8987 36.0024 29.941 35.8938C29.9886 35.7678 30.0514 35.6887 30.0514 35.6887C30.2912 36.0236 30.8422 36.316 31.1429 36.4597C31.268 36.5211 31.3499 36.5537 31.3499 36.5537Z" fill="#263238"/>
<path d="M31.1429 36.4595L30.9918 36.6542C30.4165 36.4019 30.0452 36.147 29.9409 35.8936C29.9886 35.7675 30.0514 35.6885 30.0514 35.6885C30.2911 36.0234 30.842 36.3158 31.1429 36.4595Z" fill="white"/>
<path d="M30.7194 37.1689C30.1079 36.9024 29.9122 36.5768 29.8809 36.2966C30.0857 36.3955 30.3217 36.5374 30.5013 36.7271C30.6391 36.8713 30.6974 37.0271 30.7194 37.1689Z" fill="#F54948"/>
<path d="M27.564 33.4942C27.564 33.4942 29.0074 31.9385 29.09 30.5745C29.09 30.5745 34.1203 29.6102 33.5346 33.9106C33.5346 33.9106 34.7228 30.2113 30.6568 29.4841C26.5908 28.7573 25.5941 34.0658 27.3913 35.9784C27.3991 35.9593 26.671 34.4692 27.564 33.4942Z" fill="#263238"/>
<path d="M32.4985 30.072C33.021 30.6033 33.3608 31.2872 33.4685 32.0247C33.4531 32.5566 32.7177 32.9203 32.7177 32.9203L31.8667 31.7344L31.8372 32.7537C30.3931 32.5529 29.578 31.7594 29.1143 30.6349L29.9636 29.2161C29.9636 29.2161 32.0298 29.6413 32.4985 30.072Z" fill="#263238"/>
<path d="M34.0931 41.5291C34.1099 41.5121 34.1769 41.5071 34.2791 41.5291C34.5861 41.5951 35.2118 41.9053 35.7487 42.8684C36.4644 44.1517 37.7476 48.9041 38.0683 48.4C38.389 47.8959 39.1905 45.4483 39.1905 45.4483L40.8651 45.1998C40.8651 45.1998 40.8373 51.1607 39.4798 52.3777C38.1226 53.5948 37.0011 52.7461 36.3618 52.1526C35.7968 51.6284 33.215 46.023 33.2114 46.0173" fill="#0063CB"/>
<path opacity="0.4" d="M34.0931 41.5291C34.1099 41.5121 34.1769 41.5071 34.2791 41.5291C34.5861 41.5951 35.2118 41.9053 35.7487 42.8684C36.4644 44.1517 37.7476 48.9041 38.0683 48.4C38.389 47.8959 39.1905 45.4483 39.1905 45.4483L40.8651 45.1998C40.8651 45.1998 40.8373 51.1607 39.4798 52.3777C38.1226 53.5948 37.0464 52.7516 36.3618 52.1526C35.7841 51.6473 33.2147 46.0227 33.2114 46.0173" fill="white"/>
<path d="M33.3771 45.5142C32.9764 46.7164 32.6635 47.7557 32.4098 48.6886C31.7287 51.025 31.289 53.4252 31.0981 55.8512L21.4591 54.815C21.2057 47.9278 21.4591 44.1305 21.6689 42.2397C21.9038 40.2269 22.2167 40.1579 22.2167 40.1579C22.2167 40.1579 24.408 39.989 26.3115 40.0421C27.7837 40.1195 29.2483 40.3026 30.6943 40.5898C32.0655 40.8447 33.4163 41.1994 34.7358 41.6511C34.501 42.2772 34.2881 42.8783 34.0908 43.4386C33.8281 44.1836 33.5903 44.8725 33.3771 45.5142Z" fill="#0063CB"/>
<path opacity="0.4" d="M33.3771 45.5142C32.9764 46.7164 32.6635 47.7557 32.4098 48.6886C31.7287 51.025 31.289 53.4252 31.0981 55.8512L21.4591 54.815C21.2057 47.9278 21.4591 44.1305 21.6689 42.2397C21.9038 40.2269 22.2167 40.1579 22.2167 40.1579C22.2167 40.1579 24.408 39.989 26.3115 40.0421C27.7837 40.1195 29.2483 40.3026 30.6943 40.5898C32.0655 40.8447 33.4163 41.1994 34.7358 41.6511C34.501 42.2772 34.2881 42.8783 34.0908 43.4386C33.8281 44.1836 33.5903 44.8725 33.3771 45.5142Z" fill="white"/>
<path opacity="0.2" d="M23.1717 53.4456L26.9167 51.5081L29.2791 51.0835L31.6363 51.889L32.0129 50.3137L28.0448 49.3848L21.3535 51.8798L21.582 53.3394L23.1717 53.4456Z" fill="black"/>
<path d="M37.8728 38.3352C37.5691 38.4287 32.1833 41.0822 33.2949 47.547L39.1338 47.3431C39.1338 47.3431 38.5178 45.099 39.4092 43.5463C40.3006 41.9937 42.9169 40.4986 42.8593 40.5274C42.8017 40.5562 37.8728 38.3352 37.8728 38.3352Z" fill="#0063CB"/>
<path opacity="0.7" d="M37.8728 38.3352C37.5691 38.4287 32.1833 41.0822 33.2949 47.547L39.1338 47.3431C39.1338 47.3431 38.5178 45.099 39.4092 43.5463C40.3006 41.9937 42.9169 40.4986 42.8593 40.5274C42.8017 40.5562 37.8728 38.3352 37.8728 38.3352Z" fill="white"/>
<path d="M34.0846 48.2957L32.4833 46.0254C32.4833 46.0254 28.372 46.5012 28.3177 46.6248L27.0608 49.5604C27.0058 49.6902 27.0667 49.8401 27.1965 49.8951C27.2014 49.8972 27.2066 49.8991 27.2116 49.901L32.4409 51.6724C32.5655 51.7135 32.7012 51.6533 32.754 51.5332L34.0653 48.586C34.0945 48.4918 34.1011 48.3925 34.0846 48.2957Z" fill="#0063CB"/>
<path opacity="0.1" d="M34.0963 48.4C33.3258 48.6917 32.4911 48.7719 31.679 48.632C30.3291 48.3304 28.3179 46.6168 28.3179 46.6168C28.3719 46.4929 32.4835 46.0173 32.4835 46.0173L34.0848 48.2877C34.0848 48.2877 34.0923 48.3419 34.0963 48.4Z" fill="black"/>
<path opacity="0.1" d="M28.5884 46.6943C30.3272 47.5387 32.1843 48.1139 34.0961 48.3999C34.0961 48.3999 30.9786 47.3634 28.5884 46.6943Z" fill="black"/>
<path d="M22.2171 40.158C22.2171 40.158 20.8358 40.3458 19.7445 42.2673C18.3993 44.6358 15.2412 49.3867 17.3949 52.5119C19.5486 55.637 26.5437 50.798 26.5437 50.798L25.8093 48.9398C25.8093 48.9398 20.478 50.3609 20.4233 49.8415C20.3046 48.7146 21.9405 45.8052 21.9405 45.8052L22.2171 40.158Z" fill="#0063CB"/>
<path d="M26.0664 48.9694C26.0664 48.9694 26.208 48.2586 26.7102 47.9317C27.2124 47.6049 27.5263 47.2103 27.9164 46.9929C28.3065 46.7756 28.0997 47.3417 27.9286 47.6207C27.7578 47.8996 27.5669 48.2175 27.797 48.3119C28.0273 48.4066 30.1494 48.1267 30.4536 48.294C30.7581 48.4613 30.4288 48.614 30.4288 48.614C30.4288 48.614 30.9461 48.56 31.0233 48.7591C31.0434 48.8108 31.0061 48.9635 30.7743 49.0251C30.2528 49.1637 29.1431 49.398 29.1431 49.398C29.2066 49.3834 30.5969 49.1917 30.8088 49.1903C31.0859 49.1884 31.2175 49.3289 31.2133 49.4893C31.2074 49.718 29.4917 50.0142 29.4282 50.0772C29.4282 50.0772 30.4102 49.8738 30.6016 50.0984C30.7927 50.3231 30.1817 50.485 29.6156 50.5254C29.0966 50.5624 28.0884 50.7708 27.5574 50.7571C26.903 50.7404 26.4673 50.582 26.2278 50.0168C25.9883 49.4518 26.0664 48.9694 26.0664 48.9694Z" fill="#FFA666"/>
<path opacity="0.4" d="M22.2171 40.158C22.2171 40.158 20.8358 40.3458 19.7445 42.2673C18.3993 44.6358 15.2412 49.3867 17.3949 52.5119C19.5486 55.637 26.5437 50.798 26.5437 50.798L25.8093 48.9398C25.8093 48.9398 20.478 50.3609 20.4233 49.8415C20.3046 48.7146 21.9405 45.8052 21.9405 45.8052L22.2171 40.158Z" fill="white"/>
<g opacity="0.2">
<path d="M37.9444 49.8412C38.2234 50.203 37.9642 48.8868 38.0185 48.4332C37.8927 48.4014 37.8009 48.1961 37.7065 48.0054C37.7065 48.0054 37.2756 48.9737 37.9444 49.8412Z" fill="black"/>
</g>
<path opacity="0.2" d="M38.1773 42.1448C38.1466 42.188 37.1974 43.4376 37.4407 44.0403C37.684 44.6431 38.9415 45.2232 38.9415 45.2232L39.0972 44.3006L38.1773 42.1448Z" fill="black"/>
<path d="M40.6833 45.2079L40.4895 44.0617C40.4895 44.0617 40.7456 43.3695 40.621 43.0858C40.3857 42.5218 38.8906 41.826 38.6657 41.7014C38.4408 41.5768 37.3852 43.2552 37.5237 43.5944C37.6622 43.9335 39.3959 44.7123 39.3959 44.7123V45.4045L40.6833 45.2079Z" fill="#FFA666"/>
<path opacity="0.2" d="M21.3828 46.9445L21.4099 46.8957L22.3402 45.2234C22.2895 46.8136 22.0603 48.2735 21.353 49.3848" fill="black"/>
<path d="M24.1365 102.033C24.116 102.146 25.1676 105.414 25.1676 105.414H27.605L27.3513 101.817L24.1365 102.033Z" fill="#FFA666"/>
<path d="M36.6136 101.524C36.593 101.638 37.6449 104.906 37.6449 104.906H40.0823L39.2164 99.9763L36.6136 101.524Z" fill="#FFA666"/>
<path d="M23.6851 40.0607C24.7334 41.7417 26.4791 42.865 28.4435 43.1223C31.6961 43.4949 32.8263 41.0561 32.8263 41.0561C32.8263 41.0561 28.4435 39.4879 23.6851 40.0607Z" fill="#FFA666"/>
<path d="M42.0308 100.359C42.0388 100.375 42.0452 100.383 42.0494 100.38C42.0622 100.368 42.0529 100.362 42.0308 100.359Z" fill="#263238"/>
<path d="M25.4697 64.2737C26.0958 64.841 29.949 91.3622 36.195 101.615C36.195 101.615 39.937 100.625 40.3264 100.669C39.8825 99.8 34.2857 73.1572 33.4402 62.0657L25.4697 64.2737Z" fill="#263238"/>
<path d="M21.4312 53.2434C21.4312 53.2434 18.2579 56.2996 18.1796 62.5222C18.1012 68.7448 21.4083 98.5377 24.0201 102.502C24.0201 102.502 28.5787 102.451 28.1532 102.502C27.7277 102.554 25.4876 76.7275 27.2337 67.0232L33.4401 62.0656C33.1318 58.9098 32.4828 56.2333 31.245 54.3845L21.4312 53.2434Z" fill="#263238"/>
<path opacity="0.2" d="M26.8247 70.3674L26.6831 64.5354L28.0448 63.2893C27.8419 63.3908 28.1388 75.7267 27.9115 75.6271L26.8247 70.3674Z" fill="black"/>
<path d="M27.9245 104.589L27.0687 104.564C26.8752 104.559 26.6902 104.647 26.5665 104.792C26.0329 105.421 25.6773 105.167 25.1784 104.548C24.8395 104.5 24.7243 104.871 24.6901 104.97L23.9115 107.17C23.8443 107.353 23.9448 107.55 24.1357 107.608C24.1697 107.619 24.2053 107.624 24.2412 107.625C25.2803 107.654 25.7719 107.669 27.0652 107.706L31.0205 107.819C32.0988 107.85 32.387 106.821 31.949 106.712C29.9781 106.234 28.5989 105.634 28.0163 105.062C27.9079 104.962 28.0302 104.893 27.9245 104.589Z" fill="#263238"/>
<path d="M29.7421 105.273C29.836 105.214 29.896 105.116 29.904 105.011C29.9151 104.954 29.8915 104.898 29.8431 104.865C29.5863 104.676 28.4866 105.122 28.3629 105.174C28.3492 105.179 28.3381 105.188 28.3325 105.201C28.3221 105.224 28.3334 105.25 28.3575 105.26C28.6166 105.326 28.8833 105.367 29.153 105.381C29.3548 105.406 29.5611 105.368 29.7421 105.273ZM29.7711 104.94C29.7921 104.954 29.8018 104.978 29.7952 105.002C29.786 105.078 29.7428 105.148 29.677 105.194C29.423 105.36 28.8411 105.268 28.5291 105.203C28.985 105.03 29.6295 104.837 29.7711 104.94Z" fill="#0063CB"/>
<path d="M28.3932 105.271C28.7224 105.153 29.4271 104.669 29.4075 104.402C29.4054 104.346 29.3676 104.278 29.2237 104.255C28.641 104.174 28.3268 105.171 28.324 105.214C28.3172 105.231 28.3214 105.25 28.3351 105.262C28.346 105.265 28.3575 105.266 28.3686 105.263L28.3932 105.271ZM29.1989 104.337C29.3072 104.351 29.3048 104.388 29.3039 104.401C29.3244 104.565 28.8095 104.969 28.4493 105.134C28.5367 104.902 28.7885 104.323 29.1599 104.333L29.1989 104.337Z" fill="#0063CB"/>
<path d="M28.4789 105.235C28.1817 105.265 27.8978 105.425 27.7241 105.661" stroke="#0063CB" stroke-width="0.118" stroke-miterlimit="10" stroke-linecap="round" stroke-linejoin="round"/>
<path d="M28.9871 105.632C28.69 105.662 28.4061 105.822 28.2324 106.057" stroke="#0063CB" stroke-width="0.118" stroke-miterlimit="10" stroke-linecap="round" stroke-linejoin="round"/>
<path d="M29.6285 105.972C29.3314 106.002 29.0475 106.162 28.874 106.397" stroke="#0063CB" stroke-width="0.118" stroke-miterlimit="10" stroke-linecap="round" stroke-linejoin="round"/>
<path d="M40.2682 103.186L39.4412 103.407C39.2541 103.457 39.1021 103.594 39.0249 103.769C38.6929 104.523 38.2796 104.382 37.6247 103.931C37.2863 103.983 37.2818 104.371 37.2776 104.476L37.1598 106.806C37.148 107.001 37.3002 107.16 37.4999 107.162C37.5353 107.162 37.5709 107.157 37.6056 107.147C38.61 106.879 39.0851 106.752 40.3352 106.418L44.1582 105.397C45.2003 105.118 45.1826 104.05 44.7316 104.071C42.7063 104.176 41.2131 103.994 40.4914 103.613C40.3588 103.548 40.4563 103.447 40.2682 103.186Z" fill="#263238"/>
<path d="M42.205 103.322C42.2782 103.238 42.3079 103.128 42.2853 103.024C42.2799 102.967 42.2409 102.92 42.1852 102.902C41.8853 102.795 40.9587 103.536 40.8554 103.622C40.8436 103.63 40.8355 103.642 40.8339 103.656C40.8306 103.681 40.8488 103.703 40.8747 103.705C41.1421 103.695 41.4095 103.658 41.6719 103.594C41.8718 103.559 42.0587 103.464 42.205 103.322ZM42.138 102.995C42.1621 103.002 42.1784 103.023 42.1788 103.047C42.1918 103.123 42.1704 103.202 42.1201 103.264C41.9242 103.496 41.3406 103.575 41.0227 103.602C41.4102 103.305 41.9728 102.937 42.138 102.995Z" fill="#0063CB"/>
<path d="M40.9125 103.706C41.1943 103.498 41.7312 102.833 41.6361 102.583C41.6181 102.529 41.5624 102.475 41.418 102.494C40.8365 102.584 40.8202 103.628 40.8297 103.67C40.828 103.688 40.8374 103.705 40.854 103.713C40.8653 103.713 40.8764 103.71 40.8863 103.704L40.9125 103.706ZM41.4175 102.58C41.5251 102.562 41.5336 102.599 41.5367 102.612C41.603 102.762 41.225 103.297 40.9271 103.558C40.9444 103.311 41.0201 102.684 41.3793 102.588L41.4175 102.58Z" fill="#0063CB"/>
<path d="M40.9844 103.647C40.7083 103.76 40.4817 103.995 40.3828 104.27" stroke="#0063CB" stroke-width="0.118" stroke-miterlimit="10" stroke-linecap="round" stroke-linejoin="round"/>
<path d="M41.5845 103.882C41.3081 103.995 41.0818 104.23 40.9829 104.505" stroke="#0063CB" stroke-width="0.118" stroke-miterlimit="10" stroke-linecap="round" stroke-linejoin="round"/>
<path d="M42.2964 104.024C42.0203 104.138 41.7939 104.372 41.6948 104.647" stroke="#0063CB" stroke-width="0.118" stroke-miterlimit="10" stroke-linecap="round" stroke-linejoin="round"/>
<defs>
<clipPath id="clip0_4568_21620">
<rect width="29.6202" height="12.036" fill="white" transform="translate(52.3652 48.2808) rotate(6)"/>
</clipPath>
</defs>
</svg>
