<svg width="293" height="195" viewBox="0 0 293 195" fill="none" xmlns="http://www.w3.org/2000/svg">
<rect width="292.326" height="195" fill="white"/>
<path d="M253.192 97.8522C242.447 90.1059 229.571 86.3579 217.717 80.7472C206.317 75.3512 198.205 66.6813 188.005 59.537C171.338 47.863 152.074 39.1099 132.469 33.7678C112.645 28.3659 88.4279 25.374 70.3574 37.3477C61.4694 43.2369 54.2359 52.3706 51.2886 62.6851C47.7816 74.9584 51.2136 87.4984 52.8957 99.7639C54.2625 109.731 47.8676 115.229 40.333 120.892C22.6912 134.152 23.1812 158.146 34.0823 175.345H261.132C274.615 150.904 280.544 117.571 253.192 97.8522Z" fill="#F6F5F5"/>
<path d="M35.2159 107.52C39.8637 107.52 43.6314 103.75 43.6314 99.0993C43.6314 94.4487 39.8637 90.6787 35.2159 90.6787C30.5681 90.6787 26.8003 94.4487 26.8003 99.0993C26.8003 103.75 30.5681 107.52 35.2159 107.52Z" fill="#F6F5F5"/>
<path d="M234.49 69.7553C241.36 69.7553 246.929 64.1825 246.929 57.3081C246.929 50.4337 241.36 44.8608 234.49 44.8608C227.619 44.8608 222.05 50.4337 222.05 57.3081C222.05 64.1825 227.619 69.7553 234.49 69.7553Z" fill="#F6F5F5"/>
<path d="M40.4079 77.4825C40.7295 75.4477 39.3417 73.5374 37.3081 73.2156C35.2746 72.8938 33.3653 74.2824 33.0437 76.3172C32.7221 78.352 34.1099 80.2623 36.1435 80.5841C38.1771 80.9059 40.0863 79.5173 40.4079 77.4825Z" fill="#F6F5F5"/>
<path d="M245.562 82.415C247.464 81.6266 248.368 79.4445 247.58 77.5412C246.792 75.6378 244.611 74.734 242.709 75.5224C240.807 76.3108 239.903 78.4929 240.691 80.3962C241.479 82.2996 243.66 83.2034 245.562 82.415Z" fill="#F6F5F5"/>
<path d="M26.518 174.766C15.7206 165.548 15.6214 149.42 20.3127 137.526C25.5364 124.282 37.7806 113.38 53.9061 107.616C54.2978 107.477 54.6892 107.339 55.0815 107.202L55.2268 107.621C54.8358 107.757 54.4452 107.895 54.0549 108.033C38.0499 113.754 25.9014 124.564 20.7247 137.689C16.091 149.436 16.1743 165.353 26.8056 174.429L26.518 174.766Z" fill="#DADADA"/>
<path d="M253.775 175.282L253.381 175.079C261.355 159.569 266.079 143.928 267.04 129.847C267.988 115.965 265.236 104.514 259.081 96.7343C253.496 89.6739 242.382 82.3654 221.15 87.6435L221.044 87.2133C242.502 81.879 253.762 89.2968 259.428 96.4593C265.653 104.327 268.438 115.883 267.482 129.877C266.516 144.018 261.777 159.719 253.775 175.282Z" fill="#DADADA"/>
<path d="M76.2531 51.2897L75.824 51.1798C75.8538 51.0633 76.5818 48.2856 79.0157 44.613C81.258 41.23 85.4325 36.44 92.5872 32.8319C100.781 28.7 111.094 26.9471 123.24 27.6209C138.439 28.4649 156.563 33.1346 177.109 41.5009L176.942 41.9112C156.442 33.5637 138.365 28.9046 123.216 28.0635C111.146 27.3929 100.91 29.131 92.7867 33.2277C85.7186 36.7918 81.5976 41.5195 79.3849 44.8579C76.9919 48.4685 76.2603 51.262 76.2531 51.2897Z" fill="#DADADA"/>
<path d="M232.635 54.4347V165.941C232.635 167.497 231.373 168.76 229.818 168.76H71.4367C69.882 168.76 68.6196 167.497 68.6196 165.941V54.4347C68.6196 52.8791 69.882 51.616 71.4367 51.616H229.818C231.373 51.616 232.635 52.8791 232.635 54.4347Z" fill="#D3DFFF"/>
<path d="M227.653 60.9358H73.6013V154.381H227.653V60.9358Z" fill="white"/>
<path d="M227.874 154.603H73.3799V60.7141H227.874V154.603ZM73.8229 154.159H227.431V61.1573H73.8229V154.159Z" fill="#8BA7F8"/>
<path d="M227.653 55.1252H73.6013V60.9359H227.653V55.1252Z" fill="white"/>
<path d="M227.874 61.1574H73.3799V54.9036H227.874V61.1574ZM73.8229 60.7142H227.431V55.3468H73.8229V60.7142Z" fill="#8BA7F8"/>
<path d="M80.8426 59.3729C80.1029 59.3729 79.501 58.7707 79.501 58.0306C79.501 57.2902 80.1029 56.688 80.8426 56.688C81.5824 56.688 82.1843 57.2902 82.1843 58.0306C82.1843 58.7707 81.5824 59.3729 80.8426 59.3729ZM80.8426 57.1312C80.3471 57.1312 79.9439 57.5346 79.9439 58.0306C79.9439 58.5264 80.3471 58.9297 80.8426 58.9297C81.3382 58.9297 81.7414 58.5264 81.7414 58.0306C81.7415 57.5346 81.3383 57.1312 80.8426 57.1312Z" fill="#8BA7F8"/>
<path d="M85.323 59.3729C84.5833 59.3729 83.9814 58.7707 83.9814 58.0306C83.9814 57.2902 84.5833 56.688 85.323 56.688C86.0627 56.688 86.6646 57.2902 86.6646 58.0306C86.6646 58.7707 86.0627 59.3729 85.323 59.3729ZM85.323 57.1312C84.8275 57.1312 84.4244 57.5346 84.4244 58.0306C84.4244 58.5264 84.8275 58.9297 85.323 58.9297C85.8185 58.9297 86.2216 58.5264 86.2216 58.0306C86.2216 57.5346 85.8185 57.1312 85.323 57.1312Z" fill="#8BA7F8"/>
<path d="M89.8037 59.3729C89.0641 59.3729 88.4622 58.7707 88.4622 58.0306C88.4622 57.2902 89.0641 56.688 89.8037 56.688C90.5434 56.688 91.1453 57.2902 91.1453 58.0306C91.1453 58.7707 90.5434 59.3729 89.8037 59.3729ZM89.8037 57.1312C89.3082 57.1312 88.9051 57.5346 88.9051 58.0306C88.9051 58.5264 89.3082 58.9297 89.8037 58.9297C90.2992 58.9297 90.7023 58.5264 90.7023 58.0306C90.7023 57.5346 90.2992 57.1312 89.8037 57.1312Z" fill="#8BA7F8"/>
<path d="M240.722 167.001H60.5327V175.362H240.722V167.001Z" fill="#D3DFFF"/>
<path d="M240.97 175.611H60.2837V166.752H240.97V175.611ZM60.7811 175.114H240.473V167.25H60.7811V175.114Z" fill="#8BA7F8"/>
<path d="M158.56 163.03H142.694C141.704 163.03 140.894 162.219 140.894 161.229V160.153C140.894 159.163 141.704 158.352 142.694 158.352H158.56C159.55 158.352 160.36 159.163 160.36 160.153V161.229C160.36 162.219 159.55 163.03 158.56 163.03Z" fill="white"/>
<path d="M158.315 163.251H142.939C141.689 163.251 140.672 162.234 140.672 160.983V160.399C140.672 159.148 141.689 158.13 142.939 158.13H158.315C159.565 158.13 160.582 159.148 160.582 160.399V160.983C160.582 162.234 159.565 163.251 158.315 163.251ZM142.939 158.574C141.933 158.574 141.115 159.393 141.115 160.399V160.983C141.115 161.989 141.933 162.808 142.939 162.808H158.315C159.32 162.808 160.139 161.989 160.139 160.983V160.399C160.139 159.392 159.32 158.574 158.315 158.574H142.939Z" fill="#8BA7F8"/>
<path d="M205.814 102.135H95.4395C91.4508 102.135 88.2056 98.888 88.2056 94.897V94.4133C88.2056 90.4222 91.4508 87.175 95.4395 87.175H205.814C209.803 87.175 213.048 90.4222 213.048 94.4133V94.897C213.048 98.888 209.803 102.135 205.814 102.135ZM95.4395 87.6183C91.695 87.6183 88.6485 90.6665 88.6485 94.4134V94.8971C88.6485 98.6438 91.695 101.692 95.4395 101.692H205.814C209.559 101.692 212.605 98.6439 212.605 94.8971V94.4134C212.605 90.6666 209.559 87.6183 205.814 87.6183H95.4395Z" fill="#8BA7F8"/>
<path d="M108.542 97.3594H95.1957C93.9711 97.3594 92.969 96.3568 92.969 95.1313V94.1788C92.969 92.9534 93.971 91.9507 95.1957 91.9507H108.542C109.767 91.9507 110.769 92.9533 110.769 94.1788V95.1313C110.769 96.3568 109.767 97.3594 108.542 97.3594Z" fill="#D3DFFF"/>
<path d="M130.167 97.3595H118.5C117.259 97.3595 116.244 96.3437 116.244 95.102V94.2084C116.244 92.9668 117.259 91.9509 118.5 91.9509H130.167C131.408 91.9509 132.424 92.9668 132.424 94.2084V95.102C132.424 96.3437 131.408 97.3595 130.167 97.3595Z" fill="#D3DFFF"/>
<path d="M155.032 97.3594H139.311C138.003 97.3594 136.933 96.2885 136.933 94.9796V94.3305C136.933 93.0216 138.003 91.9507 139.311 91.9507H155.032C156.34 91.9507 157.41 93.0216 157.41 94.3305V94.9796C157.41 96.2886 156.34 97.3594 155.032 97.3594Z" fill="#D3DFFF"/>
<path d="M189.531 97.3301H166.171C164.863 97.3301 163.793 96.2593 163.793 94.9503V94.3012C163.793 92.9923 164.863 91.9214 166.171 91.9214H189.531C190.839 91.9214 191.909 92.9923 191.909 94.3012V94.9503C191.909 96.2593 190.839 97.3301 189.531 97.3301Z" fill="#D3DFFF"/>
<path d="M169.229 75.9429H132.024V79.841H169.229V75.9429Z" fill="#8BA7F8"/>
<path d="M144.758 125.865H138.166V138.495H144.758V125.865Z" fill="#ADC3FF"/>
<path d="M158.355 118.352H151.762V138.495H158.355V118.352Z" fill="#D3DFFF"/>
<path d="M171.951 113.928H165.359V138.495H171.951V113.928Z" fill="#ADC3FF"/>
<path d="M185.548 124.618H178.956V138.495H185.548V124.618Z" fill="#D3DFFF"/>
<path d="M199.145 116.602H192.552V138.495H199.145V116.602Z" fill="#ADC3FF"/>
<path d="M212.742 108.285H206.149V138.495H212.742V108.285Z" fill="#D3DFFF"/>
<path d="M123.669 107.518H86.4646V109.895H123.669V107.518Z" fill="#E5ECFF"/>
<path d="M123.669 114.191H86.4644V138.495H123.669V114.191Z" fill="#E5ECFF"/>
<path d="M106.752 123.225C105.351 122.672 103.91 123.107 102.882 124.112C101.945 125.029 101.813 126.324 101.372 127.481C102.283 127.73 103.102 128.27 104.095 128.115C105.386 127.914 105.42 126.709 106.151 125.889C106.778 125.186 107.528 124.733 108.424 124.612C108.039 124.045 107.569 123.548 106.752 123.225Z" fill="#8BA7F8"/>
<path d="M117.289 121.965C116.02 122.241 114.687 122.692 113.782 123.618C113.004 124.413 113.032 125.798 112.467 126.635C113.105 127.06 113.824 127.259 114.523 126.88C115.208 126.51 115.624 125.677 116.363 125.313C116.956 125.021 117.809 124.836 118.455 124.721C118.604 124.694 118.756 124.677 118.907 124.656V121.702C118.365 121.764 117.825 121.848 117.289 121.965Z" fill="#8BA7F8"/>
<path d="M118.455 124.721C117.809 124.836 116.956 125.021 116.363 125.313C115.624 125.677 115.208 126.51 114.523 126.88C113.824 127.259 113.105 127.06 112.467 126.635C112.215 126.467 111.976 126.266 111.756 126.048C110.882 125.187 110.609 124.7 109.228 124.589C108.947 124.566 108.68 124.578 108.424 124.612C107.527 124.733 106.777 125.186 106.151 125.889C105.419 126.709 105.385 127.914 104.095 128.115C103.102 128.27 102.283 127.73 101.372 127.481C101.008 127.382 100.631 127.327 100.221 127.383C99.2599 127.516 98.652 128.093 97.9821 128.531C97.5156 128.835 97.0194 129.073 96.352 129.044C94.8625 128.978 92.9415 128.12 91.2258 128.064V134.702H118.907V124.656C118.756 124.677 118.604 124.694 118.455 124.721Z" fill="#ADC3FF"/>
<path d="M97.9822 128.531C97.8733 128.435 97.7699 128.332 97.6772 128.217C96.9918 127.367 96.9368 126.286 96.1784 125.488C94.702 123.935 92.6857 124.549 91.2261 125.871V128.064C92.9417 128.119 94.8627 128.978 96.3522 129.044C97.0196 129.073 97.5158 128.835 97.9822 128.531Z" fill="#8BA7F8"/>
<path d="M58.0134 112.727L50.9399 114.114L52.5544 103.706L56.9039 103.795C56.8761 103.978 56.8484 104.156 56.8318 104.339C56.6709 105.738 56.7541 107.142 56.9316 108.397C57.2866 110.861 58.0134 112.727 58.0134 112.727Z" fill="#F9B384"/>
<path d="M56.9313 108.396C54.2128 107.114 53.2031 104.422 53.2031 104.422L56.8314 104.339C56.6705 105.737 56.7538 107.142 56.9313 108.396Z" fill="#102048"/>
<path d="M58.4272 97.7827C58.7046 98.7542 60.2765 104.907 57.4101 105.601C54.5438 106.294 51.585 103.658 51.585 103.658L52.5559 97.7365L56.7167 96.4875L58.4272 97.7827Z" fill="#F9B384"/>
<path d="M54.771 100.94C54.7978 101.174 54.9437 101.35 55.0968 101.332C55.2499 101.314 55.3518 101.11 55.3249 100.876C55.2981 100.642 55.1523 100.467 54.9991 100.484C54.846 100.502 54.7438 100.706 54.771 100.94Z" fill="#263238"/>
<path d="M57.4164 100.635C57.4433 100.869 57.5894 101.045 57.7422 101.027C57.8953 101.01 57.9972 100.806 57.9703 100.571C57.9435 100.337 57.7973 100.162 57.6445 100.18C57.4917 100.197 57.3895 100.401 57.4164 100.635Z" fill="#263238"/>
<path d="M55.9291 103.8C55.0249 103.783 54.5407 103.212 54.5184 103.186C54.4939 103.156 54.4981 103.113 54.5274 103.088C54.5567 103.064 54.6003 103.068 54.6248 103.097C54.6303 103.104 55.1958 103.766 56.22 103.648C56.258 103.644 56.2922 103.671 56.2967 103.708C56.3013 103.746 56.2737 103.781 56.236 103.785C56.1289 103.798 56.0267 103.802 55.9291 103.8Z" fill="#263238"/>
<path d="M53.8564 100.18C53.8334 100.179 53.81 100.173 53.7887 100.161C53.7228 100.122 53.7012 100.037 53.7399 99.9711C54.1289 99.3118 54.7665 99.2759 54.7937 99.2748C54.8701 99.2713 54.9347 99.3306 54.9382 99.407C54.9416 99.4831 54.8827 99.5476 54.8066 99.5514C54.7857 99.5525 54.2886 99.5856 53.9782 100.112C53.952 100.156 53.9046 100.181 53.8564 100.18Z" fill="#263238"/>
<path d="M58.4517 99.594C58.4071 99.593 58.3635 99.5706 58.3377 99.5298C58.0094 99.0146 57.5116 98.9982 57.4907 98.9978C57.4147 98.9961 57.3536 98.9333 57.355 98.8573C57.3561 98.7812 57.4181 98.7202 57.4945 98.7212C57.5221 98.7223 58.1601 98.7355 58.5714 99.3812C58.6126 99.4457 58.5934 99.5312 58.5292 99.5724C58.5048 99.5877 58.4779 99.5943 58.4517 99.594Z" fill="#263238"/>
<path d="M54.6309 101.131C54.6309 101.131 55.3763 96.21 58.4276 97.7828C58.3187 97.7266 58.1603 97.2353 58.0924 97.1241C57.7843 96.6194 57.3888 96.1609 56.9108 95.8104C55.1742 94.5368 52.2466 94.9998 50.8456 96.4644C49.4664 97.9063 49.4243 100.469 50.1347 102.332C50.2496 102.633 50.3951 102.923 50.5693 103.194C50.7276 103.44 50.9153 103.645 51.1265 103.848C51.3079 104.023 52.6692 105.096 52.6834 104.271C52.718 102.258 54.6309 101.131 54.6309 101.131Z" fill="#EB5D60"/>
<path d="M55.303 102.262C55.822 101.837 55.8165 100.972 55.2907 100.328C54.7648 99.6848 53.9178 99.5076 53.3988 99.9324C52.8797 100.357 52.8853 101.223 53.4111 101.866C53.937 102.51 54.784 102.687 55.303 102.262Z" fill="#F9B384"/>
<path d="M59.0048 101.98C59.3616 101.98 59.6508 101.666 59.6508 101.279C59.6508 100.891 59.3616 100.577 59.0048 100.577C58.6481 100.577 58.3589 100.891 58.3589 101.279C58.3589 101.666 58.6481 101.98 59.0048 101.98Z" fill="#F9B384"/>
<path d="M49.736 152.878L41.3218 156.486C41.3218 156.486 48.2565 174.157 50.2907 175.267C52.3249 176.377 51.3078 166.57 52.6948 163.61L54.4516 156.671L49.736 152.878Z" fill="#102048"/>
<path d="M49.0766 162.92L49.0151 163.805L52.6673 164.059L52.7288 163.175L49.0766 162.92Z" fill="white"/>
<path d="M47.6089 151.582L52.6944 163.61C52.6944 163.61 72.4816 153.248 77.3822 143.811L69.6153 133.634L47.6089 151.582Z" fill="#6A6AF4"/>
<path d="M74.1462 161.297C74.1462 161.297 83.3926 161.667 87.6459 154.358L78.2146 152.97L74.1462 161.297Z" fill="#102048"/>
<path d="M88.609 162.56L78.178 166.247L77.3364 163.269L75.8083 157.875L84.503 153.758L85.1142 155.07L88.609 162.56Z" fill="#F9B384"/>
<path d="M101.793 175.36L90.3734 166.339L88.6105 162.562L78.1787 166.246L80.7571 175.36H101.793Z" fill="#102048"/>
<path d="M90.0192 166.073L87.6614 169.08L88.3582 169.627L90.716 166.621L90.0192 166.073Z" fill="white"/>
<path d="M85.1142 155.07L77.3364 163.269L75.8083 157.875L84.503 153.758L85.1142 155.07Z" fill="#E28B6D"/>
<path d="M87.6478 154.356C82.7313 155.597 78.2356 157.915 74.1474 161.297L67.1182 142.794C67.1182 142.794 52.9357 156.32 44.4669 154.082C36.419 151.954 39.9314 138.628 39.9314 138.628C50.9824 130.885 68.5621 120.488 76.2646 128.722C76.3045 128.758 76.3355 128.789 76.3665 128.824C77.9433 130.557 79.7238 133.983 81.3981 137.777C84.7377 145.333 87.6478 154.356 87.6478 154.356Z" fill="#6A6AF4"/>
<path d="M81.3982 137.777C73.7356 139.581 65.8516 131.062 65.8516 131.062L73.7711 128.461L76.2647 128.722C76.3045 128.758 76.3355 128.789 76.3665 128.824C77.9434 130.557 79.724 133.983 81.3982 137.777Z" fill="#5B4DAD"/>
<path d="M73.9406 161.375L67.0305 143.186C65.5321 144.611 57.3783 152.076 48.7814 154.343L48.6685 153.915C58.0257 151.447 66.8738 142.724 66.9621 142.636L67.2041 142.396L74.3545 161.218L73.9406 161.375Z" fill="#5B4DAD"/>
<path d="M51.3279 108.863L48.2231 118.905L44.0462 132.414C44.0462 132.414 40.9989 133.509 38.3103 133.167C35.9362 132.866 33.8411 131.439 34.4081 127.127C35.6572 117.62 51.3279 108.863 51.3279 108.863Z" fill="#FBC343"/>
<path d="M48.2228 118.906L44.046 132.414C44.046 132.414 40.9987 133.509 38.3101 133.167C40.5646 119.3 48.0235 113.392 48.0235 113.392L48.2228 118.906Z" fill="#E49B31"/>
<path d="M81.7038 118.804L79.3918 127.614L71.5874 120.248L74.6835 115.054L78.8691 117.288L81.7038 118.804Z" fill="#FBC343"/>
<path d="M74.7012 115.063L77.663 110.327L83.647 107.775L81.6863 118.821L74.7012 115.063Z" fill="#F9B384"/>
<path d="M103.775 106C102.203 105.623 100.785 105.685 99.5051 106.155C98.6592 106.465 97.8707 106.957 97.1443 107.622L94.252 100.912C95.2575 100.735 96.1743 100.433 97.0025 99.9945C98.2028 99.3607 99.2039 98.4434 99.9834 97.198L103.775 106Z" fill="#1F3C88"/>
<path d="M97.1509 107.616L94.261 100.908L51.6802 121.133L53.219 124.705L97.1509 107.616L94.261 100.908L97.1509 107.616Z" fill="#1F3C88"/>
<path d="M103.775 106C102.203 105.623 100.785 105.685 99.5052 106.155L97.0027 99.9945C98.203 99.3607 99.204 98.4434 99.9835 97.198L103.775 106Z" fill="#102048"/>
<path d="M136.936 109.51C145.819 100.622 145.819 86.2105 136.936 77.3219C128.053 68.4334 113.651 68.4334 104.767 77.3219C95.8841 86.2105 95.8841 100.622 104.767 109.51C113.651 118.399 128.053 118.399 136.936 109.51Z" fill="#1F3C88"/>
<path d="M134.252 106.824C141.653 99.4192 141.653 87.4128 134.252 80.0076C126.852 72.6023 114.852 72.6023 107.451 80.0076C100.051 87.4128 100.051 99.4192 107.451 106.824C114.852 114.23 126.852 114.23 134.252 106.824Z" fill="white"/>
<path d="M103.577 85.6235H138.125C138.05 85.4575 137.976 85.2912 137.897 85.1284H103.813C103.733 85.2929 103.652 85.4568 103.577 85.6235Z" fill="#8BA7F8"/>
<path d="M138.068 101.342H103.643C103.719 101.507 103.793 101.674 103.873 101.837H137.829C137.91 101.672 137.991 101.508 138.068 101.342Z" fill="#8BA7F8"/>
<path d="M106.701 93.6751V93.2899C106.701 91.7346 105.429 90.4622 103.874 90.4622H102.136C101.823 92.4375 101.818 94.475 102.154 96.5029H103.874C105.429 96.5029 106.701 95.2304 106.701 93.6751Z" fill="#D3DFFF"/>
<path d="M115.679 90.4622C114.104 90.4622 112.816 91.7515 112.816 93.3274V93.6376C112.816 95.2135 114.104 96.5029 115.679 96.5029H128.022C129.597 96.5029 130.886 95.2135 130.886 93.6376V93.3274C130.886 91.7515 129.597 90.4622 128.022 90.4622H115.679Z" fill="#D3DFFF"/>
<path d="M139.577 90.4622H138.941C137.281 90.4622 135.922 91.8213 135.922 93.4825C135.922 95.1437 137.281 96.5029 138.941 96.5029H139.549C139.876 94.5292 139.898 92.4917 139.577 90.4622Z" fill="#D3DFFF"/>
<path d="M81.7038 118.804L78.8691 117.288L80.5965 113.534C80.5965 113.534 83.0016 109.186 84.2019 109.373C85.4023 109.554 81.7038 118.804 81.7038 118.804Z" fill="#F9B384"/>
<path d="M71.5889 120.248L71.0004 121.236C69.8298 119.627 67.2501 116.196 64.0046 113.47C61.0864 111.022 57.127 107.214 53.6708 107.742C44.417 109.146 39.9326 138.628 39.9326 138.628L63.8768 129.956L69.2407 134.137C70.4074 135.047 71.8745 135.481 73.348 135.354C75.8233 135.141 77.8955 133.39 78.5198 130.983L79.3933 127.617L71.5889 120.248Z" fill="#FBC343"/>
<path d="M57.5246 124.024L57.231 124.356L63.7271 130.116L64.0207 129.784L57.5246 124.024Z" fill="#E49B31"/>
<path d="M70.5358 120.325L70.1743 120.58L74.0868 126.12L74.4482 125.865L70.5358 120.325Z" fill="#E49B31"/>
<path d="M192.847 63.0303C192.847 63.0303 191.727 66.5386 188.903 68.0978C186.078 69.6571 182.329 71.3138 183.595 71.8497C184.861 72.3857 188.245 72.0446 188.245 72.0446C188.245 72.0446 181.695 77.1122 183.546 77.6482C185.396 78.1841 189.877 74.5296 189.877 74.5296C189.877 74.5296 189.268 75.8939 190.193 76.1863C191.118 76.4786 192.896 76.1376 192.896 76.1376C192.896 76.1376 192.652 77.1121 194.503 76.8684C196.354 76.6248 201.175 70.7776 201.175 70.7776L201.515 65.4177L192.847 63.0303Z" fill="#E28B6D"/>
<path d="M187.15 32.9171C187.15 32.9171 194.454 31.0167 205.411 37.8872C215.271 44.0698 215.93 50.1662 211.255 57.7676C206.58 65.3689 201.175 70.7776 201.175 70.7776L192.847 63.0301L200.152 51.628L187.15 32.9171Z" fill="#3A6BEA"/>
<path d="M184.569 34.0867C184.569 34.0867 174.245 39.6415 168.985 51.6282H205.021L195.087 35.8408L184.569 34.0867Z" fill="#3A6BEA"/>
<path d="M174.403 51.5794C174.403 51.5794 177.946 52.2006 179.187 51.5794C180.429 50.9581 176.485 49.1674 173.088 48.3269C169.691 47.4863 165.71 45.988 162.423 50.6657C159.136 55.3435 159.465 55.6723 160.524 55.5993C161.583 55.5262 164.103 52.3834 164.103 52.3834C164.103 52.3834 161.401 55.782 162.679 56.1474C163.957 56.5129 167.025 51.8717 167.025 51.8717C167.025 51.8717 164.396 55.6358 165.747 56.0743C167.098 56.5129 170.02 51.9082 170.02 51.9082C170.02 51.9082 167.062 56.5494 168.851 56.4398C170.016 56.3685 171.35 54.3323 172.141 52.9182C172.6 52.0958 173.461 51.5794 174.403 51.5794Z" fill="#E28B6D"/>
<path d="M187.09 39.1898C185.686 39.1898 184.578 38.5874 184.558 38.5757L184.773 38.1888C184.92 38.2697 188.387 40.1447 190.625 36.656L190.998 36.8954C189.835 38.7086 188.344 39.1898 187.09 39.1898Z" fill="#102048"/>
<path d="M193.033 63.1511L192.661 62.9092L202.082 48.427L198.469 42.786L198.842 42.5466L202.61 48.4287L193.033 63.1511Z" fill="#102048"/>
<path d="M189.214 34.5475C188.619 36.6671 185.785 37.1124 184.479 35.3411L184.131 34.8717L181.882 31.8229L184.198 28.8079L184.421 28.5176L184.948 28.9095L185.33 29.1951L189.378 32.2246C189.461 33.1634 189.388 33.928 189.214 34.5475Z" fill="#E28B6D"/>
<path d="M184.131 34.8717L181.882 31.8229L184.199 28.8079L184.948 28.9095L185.306 28.9578C185.306 28.9578 185.316 29.0401 185.33 29.1949C185.388 29.979 185.466 32.5729 184.131 34.8717Z" fill="#102048"/>
<path d="M175.473 27.0239C175.473 27.0239 180.489 36.0375 184.099 32.2667C186.839 29.4033 184.905 25.4511 184.905 25.4511L182.245 22.8701L176.32 24.6446L175.473 27.0239Z" fill="#E28B6D"/>
<path d="M181.584 28.4696C181.708 28.6701 181.702 28.8981 181.571 28.979C181.439 29.0601 181.233 28.9629 181.109 28.7624C180.985 28.562 180.991 28.3339 181.123 28.2531C181.254 28.172 181.46 28.269 181.584 28.4696Z" fill="#263238"/>
<path d="M179.318 29.8682C179.441 30.0687 179.435 30.297 179.304 30.3776C179.173 30.4587 178.967 30.3615 178.843 30.1611C178.719 29.9606 178.725 29.7323 178.856 29.6517C178.987 29.5711 179.194 29.6678 179.318 29.8682Z" fill="#263238"/>
<path d="M182.445 31.4327C183.145 30.8592 183.172 30.1115 183.173 30.0766C183.174 30.0385 183.143 30.0068 183.105 30.0058C183.067 30.0047 183.035 30.035 183.034 30.0729C183.034 30.0815 183 30.9516 182.123 31.4931C182.09 31.5133 182.08 31.5559 182.1 31.5883C182.12 31.6209 182.163 31.6307 182.195 31.6109C182.287 31.5545 182.37 31.4948 182.445 31.4327Z" fill="#263238"/>
<path d="M181.831 27.3062C181.849 27.2917 181.864 27.2723 181.872 27.2492C181.9 27.178 181.865 27.0981 181.794 27.0703C181.08 26.7933 180.557 27.1599 180.535 27.1759C180.473 27.2205 180.459 27.307 180.503 27.3692C180.548 27.431 180.634 27.4452 180.696 27.4012C180.713 27.389 181.124 27.1073 181.694 27.3284C181.742 27.347 181.794 27.3368 181.831 27.3062Z" fill="#263238"/>
<path d="M177.86 29.6911C177.895 29.6626 177.915 29.6181 177.91 29.5701C177.849 28.9622 178.23 28.6412 178.246 28.6279C178.304 28.5795 178.314 28.4924 178.265 28.4335C178.217 28.3745 178.131 28.365 178.072 28.4131C178.051 28.431 177.558 28.8364 177.635 29.5981C177.642 29.6742 177.71 29.7295 177.786 29.7221C177.815 29.719 177.84 29.7076 177.86 29.6911Z" fill="#263238"/>
<path d="M183.212 27.4675C183.212 27.4675 181.519 24.7755 179.675 26.0459C177.831 27.3162 175.665 30.7341 173.136 28.758C171.376 27.3826 172.572 23.4749 174.899 23.8076C174.899 23.8076 177.469 18.8774 181.882 20.178C186.295 21.4786 184.603 24.11 186.96 24.5033C189.318 24.8965 196.954 25.4451 195.684 33.5209C195.684 33.5209 192.417 32.6484 189.691 32.9531C186.282 33.3339 183.978 27.7094 183.978 27.7094C183.756 27.7699 183.212 27.4675 183.212 27.4675Z" fill="#FBC343"/>
<path d="M183.635 28.9797C184.37 28.9797 184.965 28.2078 184.965 27.2556C184.965 26.3034 184.37 25.5315 183.635 25.5315C182.9 25.5315 182.305 26.3034 182.305 27.2556C182.305 28.2078 182.9 28.9797 183.635 28.9797Z" fill="#E28B6D"/>
<path d="M279.121 175.012H12.0361V175.677H279.121V175.012Z" fill="#102048"/>
<path d="M235.382 151.063H217.112V161.7H235.382V151.063Z" fill="#1F3C88"/>
<path d="M237.508 175.324L247.243 180.217L243.932 167.549L239.65 166.725L235.166 168.328L237.508 175.324Z" fill="#102048"/>
<path d="M239.652 166.726L237.508 175.324C237.508 175.324 228.264 174.105 219.206 172.093C215.03 171.171 210.893 170.077 207.721 168.853C206.051 168.211 204.647 167.533 203.646 166.828C196.608 161.864 199.12 150.434 211.057 152.389C215.681 153.147 220.668 155.207 225.168 157.543C227.219 158.602 229.163 159.724 230.926 160.801C236.073 163.938 239.652 166.726 239.652 166.726Z" fill="#3A6BEA"/>
<path opacity="0.3" d="M230.926 160.8L219.206 172.093C215.03 171.171 210.893 170.076 207.721 168.853L225.168 157.543C227.219 158.602 229.163 159.723 230.926 160.8Z" fill="#102048"/>
<path d="M206.825 168.28L195.04 175.126L212.383 175.054L213.496 168.475L206.825 168.28Z" fill="#102048"/>
<path d="M217.149 166.769L213.496 168.475L212.383 175.054L212.62 175.053L219.876 175.15L222.408 171.983L217.149 166.769Z" fill="#F9B384"/>
<path d="M217.148 166.769C217.148 166.769 230.978 153.223 242.958 150.007C254.064 147.026 257.373 158.193 251.139 163.748C244.906 169.303 219.875 175.15 219.875 175.15L217.148 166.769Z" fill="#3A6BEA"/>
<path d="M219.929 175.365L219.821 174.935C228.411 172.765 237.237 170.409 243.605 167.884L243.768 168.296C237.376 170.83 228.533 173.191 219.929 175.365Z" fill="#102048"/>
<path d="M225.505 113.484C224.261 113.586 223.087 113.892 222.052 114.629C221.187 115.245 220.525 116.097 220.099 117.067C219.44 118.571 219.592 120.251 219.086 121.792C218.599 123.276 217.406 124.041 216.295 125.033C215.225 125.988 214.455 127.567 214.837 129.018C214.942 129.42 215.138 129.793 215.397 130.118C215.596 130.366 216.202 131.083 216.544 131.085C216.544 131.085 235.354 131.168 235.354 131.168C235.354 131.168 238.85 127.892 234.827 124.061C233.711 122.998 232.46 121.905 231.892 120.412C231.541 119.489 231.365 118.517 231.101 117.57C230.764 116.362 230.022 115.129 229.02 114.363C228.011 113.59 226.747 113.383 225.505 113.484Z" fill="#102048"/>
<path d="M223.924 114.623C223.924 114.623 220.789 112.235 223.896 111.153C226.272 110.325 228.501 111.264 227.087 114.345L223.924 114.623Z" fill="#102048"/>
<path d="M224.745 126.594C224.745 126.594 207.068 129.591 203.562 141.797C200.055 154.003 221.393 154.794 221.393 154.794C221.393 154.794 242.349 154.076 246.074 150.714C249.8 147.351 251.699 130.322 226.79 126.74L224.745 126.594Z" fill="#EB5D60"/>
<path d="M225.884 133.27C225.77 133.27 225.656 133.265 225.542 133.256C224.271 133.152 223.265 132.495 222.709 131.406L223.103 131.204C223.587 132.152 224.466 132.724 225.578 132.814C226.939 132.929 228.407 132.295 229.15 131.284L229.507 131.547C228.74 132.59 227.289 133.27 225.884 133.27Z" fill="#AB4446"/>
<path d="M209.842 140.698L209.564 141.043L218.81 148.523L219.089 148.178L209.842 140.698Z" fill="#AB4446"/>
<path d="M241.554 140.882L233.125 148.182L233.415 148.517L241.844 141.217L241.554 140.882Z" fill="#AB4446"/>
<path d="M234.919 155.611H216.52C215.901 155.611 215.4 155.109 215.4 154.49V141.651C215.4 141.032 215.901 140.53 216.52 140.53H234.919C235.537 140.53 236.039 141.032 236.039 141.651V154.49C236.039 155.109 235.537 155.611 234.919 155.611Z" fill="white"/>
<path d="M223.775 122.813L223.294 127.393C223.202 128.271 223.55 129.137 224.218 129.692C225.131 130.45 226.431 130.459 227.354 129.712L227.396 129.678C228.097 129.11 228.455 128.203 228.336 127.292L227.742 122.732L223.775 122.813Z" fill="#F9B384"/>
<path d="M223.688 123.756C225.089 126.504 226.67 126.559 227.877 123.825L225.394 123.506L223.688 123.756Z" fill="#102048"/>
<path d="M225.819 124.755C227.669 124.755 229.169 122.791 229.169 120.369C229.169 117.946 227.669 115.983 225.819 115.983C223.969 115.983 222.469 117.946 222.469 120.369C222.469 122.791 223.969 124.755 225.819 124.755Z" fill="#F9B384"/>
<path d="M224.234 120.67C224.259 120.887 224.394 121.051 224.537 121.034C224.679 121.018 224.774 120.828 224.749 120.61C224.724 120.392 224.588 120.229 224.446 120.246C224.303 120.262 224.208 120.452 224.234 120.67Z" fill="#263238"/>
<path d="M225.524 122.435C225.526 122.412 225.775 122.418 226.176 122.446C226.277 122.455 226.374 122.454 226.405 122.39C226.442 122.323 226.422 122.208 226.397 122.084C226.351 121.826 226.303 121.556 226.253 121.272C226.059 120.119 225.939 119.179 225.986 119.171C226.033 119.164 226.228 120.093 226.422 121.246C226.467 121.53 226.511 121.801 226.552 122.059C226.567 122.179 226.606 122.319 226.526 122.458C226.485 122.527 226.402 122.566 226.335 122.57C226.268 122.577 226.212 122.567 226.162 122.56C225.765 122.503 225.521 122.457 225.524 122.435Z" fill="#263238"/>
<path d="M225.671 123.489C226.546 123.718 227.167 123.301 227.196 123.281C227.227 123.26 227.235 123.217 227.214 123.185C227.192 123.154 227.149 123.146 227.118 123.167C227.11 123.172 226.386 123.656 225.433 123.264C225.397 123.249 225.357 123.266 225.342 123.301C225.328 123.336 225.345 123.377 225.38 123.391C225.479 123.433 225.577 123.465 225.671 123.489Z" fill="#263238"/>
<path d="M226.696 120.386C226.721 120.604 226.857 120.767 226.999 120.751C227.142 120.734 227.237 120.544 227.212 120.326C227.187 120.109 227.051 119.945 226.908 119.962C226.766 119.978 226.671 120.168 226.696 120.386Z" fill="#263238"/>
<path d="M223.383 119.962C223.361 119.962 223.339 119.956 223.32 119.944C223.258 119.908 223.238 119.829 223.274 119.768C223.636 119.154 224.23 119.121 224.255 119.12C224.326 119.117 224.386 119.172 224.39 119.243C224.393 119.314 224.338 119.374 224.267 119.377C224.248 119.378 223.785 119.409 223.496 119.899C223.472 119.94 223.427 119.963 223.383 119.962Z" fill="#263238"/>
<path d="M227.659 119.417C227.618 119.416 227.577 119.395 227.553 119.357C227.248 118.878 226.784 118.862 226.765 118.862C226.694 118.86 226.637 118.802 226.638 118.731C226.639 118.66 226.697 118.604 226.768 118.605C226.794 118.605 227.388 118.618 227.771 119.219C227.809 119.279 227.791 119.358 227.731 119.397C227.709 119.411 227.684 119.417 227.659 119.417Z" fill="#263238"/>
<path d="M229.722 119.647C229.722 119.647 226.365 119.592 225.255 116.871C225.255 116.871 223.452 117.51 222.98 119.841L221.704 120.286L221.677 116.621L224.506 114.817L227.031 114.872L229.251 116.732L229.722 119.647Z" fill="#102048"/>
<path d="M223.45 120.016C223.824 120.737 223.631 121.579 223.019 121.897C222.407 122.215 221.608 121.887 221.234 121.166C220.86 120.445 221.053 119.602 221.665 119.285C222.277 118.967 223.077 119.294 223.45 120.016Z" fill="#F9B384"/>
<path d="M228.309 120.016C227.935 120.737 228.128 121.579 228.74 121.897C229.352 122.215 230.151 121.887 230.525 121.166C230.899 120.445 230.706 119.602 230.094 119.285C229.482 118.967 228.682 119.294 228.309 120.016Z" fill="#F9B384"/>
</svg>
