<svg width="195" height="195" viewBox="0 0 195 195" fill="none" xmlns="http://www.w3.org/2000/svg">
<path d="M173.353 118.246C158.285 171.436 117.092 171.53 86.6929 170.852C48.9007 170.009 14.6299 137.973 14.6299 97.0835C14.6299 56.1939 32.4466 23.2007 82.624 23.2007C132.801 23.2007 195.419 40.3521 173.353 118.246Z" fill="#DEE5FD"/>
<path d="M137.986 41.6666C137.986 41.6666 132.224 50.9685 134.316 52.4938C136.408 54.0191 143.758 57.914 144.66 57.1629C146.352 55.753 149.977 48.07 149.463 46.5253C148.671 44.1388 138.777 40.2365 137.986 41.6666Z" fill="white"/>
<path d="M144.304 57.5158C142.141 57.5162 135.502 53.6985 134.154 52.7153C131.925 51.0902 137.132 42.5254 137.751 41.5266C137.955 41.1666 138.463 41.0297 139.298 41.1058C142.325 41.3854 149.035 44.3642 149.724 46.4382C150.286 48.1308 146.595 55.909 144.836 57.3738C144.719 57.4713 144.537 57.5158 144.304 57.5158ZM138.88 41.6342C138.472 41.6342 138.274 41.7153 138.227 41.7992L138.22 41.8109C136.044 45.324 133.104 51.2699 134.478 52.2719C137.116 54.1961 143.847 57.462 144.484 56.9519C146.216 55.51 149.655 47.9725 149.203 46.6114C148.633 44.8942 142.274 41.9322 139.247 41.6525C139.11 41.6401 138.988 41.6342 138.88 41.6342Z" fill="#DEE5FD"/>
<path d="M146.769 46.8493C146.336 46.9959 139.903 51.2887 139.903 51.2887C139.903 51.2887 138.611 46.6703 138.598 46.54C138.598 46.54 137.182 46.6824 136.947 47.0544C136.712 47.4265 138.056 53.0277 139.194 53.2652C140.333 53.5027 147.85 48.3886 147.85 48.3886L146.769 46.8493Z" fill="#DEE5FD"/>
<path d="M141.395 94.4531C141.395 94.4531 136.153 83.6271 139.465 84.9063C142.777 86.1855 148.094 90.3991 148.094 90.3991L153.953 87.0736C155.218 86.3552 156.703 87.5759 156.243 88.9565L154.369 94.5775C154.369 94.5775 164.941 103.634 161.725 103.319C158.51 103.004 150.754 102.245 150.754 102.245C150.754 102.245 152.859 113.91 150.073 111.154C147.287 108.399 143.469 100.577 143.469 100.577C143.469 100.577 129.798 101.721 133.633 99.6136C137.468 97.5064 141.395 94.4531 141.395 94.4531Z" fill="white"/>
<path d="M34.966 48.6507C35.0011 49.3655 35.8606 63.8615 35.8606 63.8615C35.8606 63.8615 21.3655 63.8615 25.6602 67.2615C29.9549 70.6615 35.8606 76.0302 35.8606 76.0302C35.8606 76.0302 27.1913 84.262 30.3628 84.262C33.5343 84.262 42.6611 82.6513 42.6611 82.6513C42.6611 82.6513 45.8821 99.6518 47.8508 94.82C49.8191 89.9883 51.4298 82.6513 51.4298 82.6513C51.4298 82.6513 75.4094 81.5776 70.5777 79.7879C65.746 77.9982 55.3665 72.1673 55.3665 72.1673C55.3665 72.1673 66.2826 53.303 62.7036 53.84C59.1245 54.3767 48.0427 62.0717 48.0427 62.0717C48.0427 62.0717 34.888 47.0642 34.966 48.6507Z" fill="white"/>
<path d="M96.5697 119.039C96.6048 119.754 97.4644 134.251 97.4644 134.251C97.4644 134.251 82.9693 134.251 87.264 137.651C91.5586 141.051 97.4644 146.419 97.4644 146.419C97.4644 146.419 88.7951 154.651 91.9666 154.651C95.1381 154.651 104.265 153.04 104.265 153.04C104.265 153.04 107.486 170.041 109.455 165.209C111.423 160.377 113.034 153.04 113.034 153.04C113.034 153.04 137.013 151.967 132.181 150.177C127.35 148.387 116.97 142.556 116.97 142.556C116.97 142.556 127.886 123.692 124.307 124.229C120.728 124.766 109.646 132.461 109.646 132.461C109.646 132.461 96.4917 117.453 96.5697 119.039Z" fill="white"/>
<path d="M33.8242 134.016L36.1006 127.084L38.6859 134.016C38.6859 134.016 43.8507 134.895 43.9108 135.376C43.9697 135.847 38.9675 137.322 38.9675 137.322C38.9675 137.322 36.8682 144.043 36.1006 142.521C35.3331 140.998 34.5886 137.629 34.5886 137.629C34.5886 137.629 28.085 136.278 28.085 135.615C28.0846 134.897 33.8242 134.016 33.8242 134.016Z" fill="white"/>
<path d="M105.476 35.3475L107.169 30.1909L109.092 35.3475C109.092 35.3475 112.934 36.0011 112.979 36.3592C113.023 36.7094 109.302 37.8064 109.302 37.8064C109.302 37.8064 107.74 42.8062 107.169 41.6741C106.598 40.5419 106.044 38.035 106.044 38.035C106.044 38.035 101.206 37.03 101.206 36.5366C101.206 36.0019 105.476 35.3475 105.476 35.3475Z" fill="white"/>
<path d="M100.583 76.9964L102.276 71.8398L104.2 76.9964C104.2 76.9964 108.041 77.6501 108.086 78.0081C108.13 78.3583 104.409 79.455 104.409 79.455C104.409 79.455 102.847 84.4548 102.276 83.3226C101.705 82.1904 101.152 79.6835 101.152 79.6835C101.152 79.6835 96.3137 78.6785 96.3137 78.1851C96.3137 77.6512 100.583 76.9964 100.583 76.9964Z" fill="white"/>
<path d="M166.975 87.6248L168.668 82.4683L170.591 87.6248C170.591 87.6248 174.433 88.2785 174.478 88.6365C174.522 88.9867 170.801 90.0834 170.801 90.0834C170.801 90.0834 169.239 95.0832 168.668 93.951C168.097 92.8189 167.544 90.3119 167.544 90.3119C167.544 90.3119 162.706 89.3069 162.706 88.8136C162.705 88.2797 166.975 87.6248 166.975 87.6248Z" fill="white"/>
<path d="M54.3194 42.5238L55.2632 39.6499L56.3353 42.5238C56.3353 42.5238 58.4768 42.8881 58.5018 43.0878C58.5264 43.2831 56.4523 43.8943 56.4523 43.8943C56.4523 43.8943 55.5819 46.6812 55.2636 46.0498C54.9454 45.4188 54.6369 44.0214 54.6369 44.0214C54.6369 44.0214 51.9404 43.461 51.9404 43.1864C51.9396 42.8885 54.3194 42.5238 54.3194 42.5238Z" fill="white"/>
<path d="M149.833 120.329C149.833 120.329 150.461 130.556 152.885 130.591C155.309 130.625 163.035 129.626 163.318 128.564C163.849 126.57 162.462 118.737 161.234 117.834C159.337 116.439 149.664 118.808 149.833 120.329Z" fill="white"/>
<path d="M158.398 119.283C158.146 119.63 154.317 128.139 154.317 128.139L155.67 128.958C156.456 127.936 160.057 119.875 160.057 119.875L158.398 119.283Z" fill="#DEE5FD"/>
<path d="M152.604 122.064C152.899 122.375 160.563 127.696 160.563 127.696L161.617 126.517C160.756 125.557 153.49 120.541 153.49 120.541L152.604 122.064Z" fill="#DEE5FD"/>
<path d="M70.8435 42.5213C70.8435 42.5213 69.9079 58.1985 73.5899 58.6989C77.2719 59.1993 89.2114 59.1065 89.8381 57.5426C91.0143 54.6082 90.3529 42.4336 88.6509 40.8322C86.0227 38.3589 70.8669 40.1759 70.8435 42.5213Z" fill="white"/>
<path d="M79.5976 59.238C77.006 59.238 74.6579 59.1206 73.553 58.9709C71.8775 58.7431 70.871 55.8723 70.5621 50.4381C70.3417 46.5611 70.5586 42.6942 70.5691 42.5113C70.5788 41.9673 71.1007 41.4825 72.1638 41.0297C74.0725 40.2162 77.5754 39.5824 81.0874 39.4155C82.9352 39.3285 87.3921 39.27 88.8394 40.6319C90.3838 42.0851 91.5441 54.0249 90.0929 57.6445C89.6038 58.866 84.2148 59.238 79.5976 59.238ZM82.8315 39.926C79.082 39.926 74.5611 40.605 72.3791 41.5352C71.245 42.0184 71.1198 42.3877 71.1182 42.5242L71.1178 42.5378C70.862 46.8278 70.814 58.0446 73.6271 58.4268C79.6534 59.2451 89.2267 58.3317 89.5835 57.4405C90.7949 54.4188 89.9782 42.4579 88.4635 41.0324C87.6296 40.2482 85.4133 39.926 82.8315 39.926Z" fill="#DEE5FD"/>
<path d="M85.4693 43.0791C85.0228 43.5592 79.8248 53.3673 79.8248 53.3673C79.8248 53.3673 75.0442 48.4151 74.9393 48.2591C74.9393 48.2591 73.2479 49.4045 73.2046 50.0348C73.1613 50.6654 78.6775 56.8227 80.2776 56.3465C81.8778 55.8703 87.8846 44.2858 87.8846 44.2858L85.4693 43.0791Z" fill="#DEE5FD"/>
<path d="M149.564 47.0572C152.411 45.2371 156.917 45.3759 160.967 46.5452C164.885 47.5681 170.182 49.7225 172.914 51.2536C175.831 52.8885 178.533 55.2375 179.571 58.4164C180.98 62.7266 179.232 67.3899 177.25 71.4685C175.662 74.7371 173.537 78.2284 170.025 79.1597C167.759 79.7603 165.365 79.1499 163.115 78.49C161.266 77.9479 159.428 77.3688 157.6 76.7577C155.019 78.85 149.595 80.8729 149.429 79.7603C149.28 78.7572 151.669 76.8341 152.154 74.8233C151.611 74.6185 151.069 74.411 150.528 74.2004C147.938 73.1907 145.256 72.0231 143.55 69.8278C141.555 67.2612 141.267 63.7375 141.696 60.5149C142.403 55.1973 145.045 49.9471 149.564 47.0572Z" fill="#4A9DF7"/>
<path d="M170.349 57.6486C169.547 57.9095 157.589 65.6881 157.589 65.6881C157.589 65.6881 155.306 57.1416 155.285 56.9014C155.285 56.9014 152.67 57.1334 152.228 57.8148C151.787 58.4961 154.144 68.8556 156.239 69.3186C158.334 69.7815 172.31 60.5112 172.31 60.5112L170.349 57.6486Z" fill="#F5F5FE"/>
<path d="M140.263 97.6065C139.646 94.8878 129.983 93.8543 119.512 92.1531C109.041 90.452 100.713 92.244 100.713 92.244C100.713 92.244 118.671 134.314 124.179 139.984C129.686 145.655 147.644 146.166 147.644 146.166C147.644 146.166 141.487 103.008 140.263 97.6065Z" fill="#4A9DF7"/>
<g opacity="0.3">
<path d="M105.528 102.497C105.694 102.375 105.869 102.246 106.052 102.111C106.434 102.173 106.813 102.234 107.176 102.293C107.77 103.839 105.463 104.117 105.528 102.497ZM109.588 110.747C110.006 110.85 110.29 110.597 110.662 110.392C110.798 108.102 107.988 109.478 109.588 110.747ZM112.772 116.467C112.71 116.741 112.657 116.975 112.604 117.21C112.813 117.437 113.011 117.651 113.231 117.888C114.096 117.517 114.821 116.862 113.763 116.253C113.409 116.33 113.082 116.4 112.772 116.467ZM117.173 119.806C117.014 119.891 116.888 119.958 116.776 120.017C116.524 119.944 116.539 119.533 116.112 119.643C116.08 122.509 118.885 120.948 117.173 119.806ZM114.33 120.664C114.203 120.428 114.112 120.173 113.941 119.973C113.264 119.912 113.04 119.911 112.858 120.183L113.408 121.324C113.782 121.398 114.152 121.217 114.33 120.664ZM116.136 116.994C116.352 117.864 117.395 117.948 117.723 117.406C117.534 117.066 117.344 116.725 117.153 116.383C116.73 116.295 116.273 116.483 116.136 116.994ZM115.597 122.971C115.621 122.656 116.053 122.52 116 122.075C115.423 121.274 114.615 121.283 114.341 122.315C114.754 122.535 114.92 123.158 115.597 122.971ZM122.303 126.514C122.478 126.544 122.622 126.523 122.743 126.473C122.514 126.058 122.282 125.635 122.044 125.202C121.61 125.565 121.508 126.741 122.303 126.514ZM118.081 119.265C118.27 119.452 118.551 119.471 118.824 119.384C118.629 119.034 118.433 118.681 118.236 118.327C118.036 118.552 117.943 118.886 118.081 119.265ZM102.612 94.97C101.49 95.8451 102.137 96.702 103.381 96.122C104.213 95.787 103.353 94.8674 102.612 94.97ZM107.038 106.647C107.356 105.928 106.533 105.613 105.923 105.807L106.574 107.156C106.764 107.1 106.935 106.945 107.038 106.647ZM122.834 129.88C123.088 129.524 123.085 129.184 122.969 128.836C122.572 128.772 122.219 128.715 121.871 128.658C121.032 129.43 121.895 130.495 122.834 129.88ZM116.098 124.108C116.355 124.262 116.441 124.444 116.578 124.658C116.92 124.901 117.542 124.53 117.703 124.206C117.975 122.896 116.397 123.033 116.098 124.108ZM111.623 112.517C112.775 112.244 112.417 110.623 111.389 110.891C110.768 111.424 110.846 112.24 111.623 112.517ZM123.56 131.668C123.736 131.727 123.917 131.789 124.085 131.846C124.55 131.623 124.55 131.623 124.877 131.239C124.906 130.577 124.351 130.535 123.959 130.332C123.228 130.736 123.17 130.932 123.56 131.668ZM115.777 119.436C116.28 118.824 116.182 118.141 115.548 118.185C115.153 118.401 114.528 118.103 114.408 118.672C114.685 119.414 114.981 119.627 115.777 119.436ZM119.295 122.562C119.619 121.977 119.362 121.617 118.807 121.447C118.205 121.54 118.154 121.98 118.031 122.393C118.099 123.062 119.227 123.394 119.295 122.562ZM127.496 135.477C127.44 135.305 127.262 134.924 126.974 134.353C126.934 134.434 126.888 134.537 126.828 134.673C126.989 135.082 127.217 135.409 127.496 135.477ZM113.372 112.595C113.162 112.851 112.937 113.126 112.739 113.367C112.834 113.95 113.254 114.105 113.759 114.307C113.953 113.924 114.127 113.581 114.307 113.227C114.06 112.92 113.822 112.651 113.372 112.595ZM114.793 112.157C114.72 112.025 114.646 111.893 114.572 111.762C114.537 111.825 114.5 111.889 114.458 111.959C114.568 112.043 114.684 112.098 114.793 112.157ZM123.944 133.947C123.905 133.949 123.87 133.957 123.835 133.965C124.116 134.118 124.392 134.265 124.658 134.405C124.533 134.161 124.288 133.964 123.944 133.947ZM109.213 103.02C109.385 103.33 109.655 103.471 109.945 103.535C109.949 103.534 109.953 103.532 109.956 103.53C109.767 103.193 109.58 102.86 109.395 102.532C109.319 102.663 109.255 102.823 109.213 103.02ZM107.093 99.2455C106.979 99.0357 106.853 98.8048 106.739 98.595C105.917 98.5002 105.688 98.8509 105.512 99.4912C105.984 100.233 106.962 100.164 107.093 99.2455ZM103.518 99.5513C103.586 98.8013 103.125 98.3914 102.485 98.68L103.106 99.9674C103.268 99.9 103.415 99.7693 103.518 99.5513ZM111.896 118.188L112.269 118.961C112.304 118.799 112.316 118.62 112.361 118.435C112.188 118.313 112.037 118.24 111.896 118.188ZM126.06 133.745C126.172 133.579 126.287 133.409 126.4 133.24C126.214 132.885 126.008 132.495 125.782 132.071C125.743 132.039 125.705 132.005 125.67 131.963C125.158 132.544 125.024 133.771 126.06 133.745ZM102.966 93.121C103.223 92.8238 103.441 92.5703 103.647 92.3312C103.463 92.0056 103.364 91.8301 103.364 91.8301L102.127 91.9931C102.252 92.3067 102.366 92.5949 102.494 92.9135C102.609 92.9642 102.762 93.0313 102.966 93.121ZM115.025 115.921C115.469 115.779 115.971 115.851 116.058 115.252C115.528 114.618 115.303 114.227 114.516 114.73C114.418 115.236 114.59 115.622 115.025 115.921ZM103.872 97.4804C103.734 98.1769 104.727 98.3509 105.153 97.9929C105.072 97.7534 105.243 97.5873 105.312 97.388C105.309 96.5655 103.856 96.6384 103.872 97.4804ZM109 111.685C108.963 111.173 108.696 110.943 108.391 110.922L108.893 111.963C108.946 111.884 108.985 111.793 109 111.685ZM112.527 115.017C111.777 114.573 111.777 114.573 111.178 114.703C110.82 115.048 111.017 115.381 111.198 115.794C111.839 115.789 112.808 115.99 112.527 115.017ZM118.216 125.29C117.582 126.24 119.009 127.129 119.508 125.976C119.466 125.223 118.856 124.827 118.216 125.29ZM103.895 100.781C104.016 101.052 104.141 101.335 104.266 101.616C104.612 101.616 104.926 101.616 105.255 101.616C105.331 101.422 105.401 101.245 105.482 101.039C105.207 100.748 104.973 100.501 104.744 100.258C104.363 100.289 104.051 100.385 103.895 100.781ZM123.15 132.818C122.711 132.211 122.185 131.953 121.577 132.517C121.584 132.591 121.596 132.662 121.612 132.729C122.015 132.958 122.427 133.189 122.838 133.418C122.969 133.294 123.081 133.101 123.15 132.818ZM118.069 129.419C118.334 129.771 118.492 129.982 118.661 130.208C119.213 130.079 119.213 130.079 119.448 129.235C119.228 128.578 118.042 128.609 118.069 129.419ZM103.854 94.1073C104.282 94.6673 104.673 94.7539 104.944 94.6275C104.674 94.149 104.436 93.7263 104.229 93.3608C104.103 93.61 103.98 93.8561 103.854 94.1073ZM112.547 108.36C112.261 108.072 112.197 107.651 111.747 107.548C110.777 107.78 110.772 108.717 111.738 108.968C112.098 108.882 112.304 108.652 112.547 108.36ZM107.462 104.565C107.565 104.769 107.649 104.934 107.77 105.172C110.012 105.615 108.101 102.4 107.462 104.565ZM100.967 93.2559C100.608 93.293 100.584 93.6978 100.507 94.0328C100.222 94.3787 100.844 94.617 101.094 94.5659C102.279 94.7262 101.841 93.0239 100.967 93.2559ZM120.438 130.525C120.314 130.949 119.735 130.839 119.676 131.312C119.882 131.798 120.359 131.708 120.75 131.846C121.075 131.565 121.439 131.341 121.144 130.902C121.062 130.611 120.692 130.153 120.438 130.525ZM110.759 106.312C110.62 106.256 110.472 106.195 110.327 106.135C110.316 106.035 110.307 105.944 110.293 105.819C110.052 105.789 109.826 105.739 109.597 105.67C109.325 105.937 109.299 106.277 109.206 106.556C109.576 107.382 110.48 107.127 110.759 106.312ZM110.743 113.551C110.611 112.6 109.898 112.802 109.495 113.211L109.94 114.136C110.041 114.133 110.146 114.128 110.272 114.11C110.426 113.927 110.581 113.744 110.743 113.551ZM116.311 127.165C116.362 127.274 116.379 127.387 116.388 127.501L116.763 128.279C118.205 128.186 117.612 126.177 116.311 127.165ZM120.517 124.693C122.072 124.961 120.901 122.644 119.839 123.722C119.761 124.379 120.126 124.405 120.517 124.693ZM100.017 92.2712L99.4312 92.3484L99.6223 92.745C99.9058 92.6307 100.024 92.4591 100.017 92.2712ZM120.165 127.077C119.466 128.165 120.749 128.899 121.271 127.654C120.931 126.961 120.931 126.961 120.165 127.077ZM115.913 125.988C115.538 125.678 115.807 125.244 115.445 124.962C115.365 124.991 115.284 125.019 115.204 125.047L115.817 126.319C115.917 126.266 115.969 126.169 115.913 125.988ZM113.819 110.416C113.608 110.039 113.399 109.665 113.19 109.292C113.109 109.34 113.025 109.409 112.939 109.501C112.357 110.164 113.207 110.627 113.819 110.416ZM107.553 100.772C107.692 101.112 107.817 101.418 107.941 101.724C108.482 101.795 108.618 101.797 108.798 101.469C108.624 101.16 108.453 100.856 108.285 100.557C108.037 100.51 107.771 100.566 107.553 100.772ZM108.635 108.675C109.042 108.062 108.869 108.036 108.505 107.728C107.179 106.995 107.472 109.112 108.635 108.675Z" fill="#421B36"/>
</g>
<path d="M112.24 96.4281C112.24 96.4281 104.532 106.392 112.819 106.93C121.105 107.469 139.515 96.1119 127.517 93.4095C115.518 90.7076 112.24 96.4281 112.24 96.4281Z" fill="#F5F5FE"/>
<path d="M113.392 96.9001C113.392 96.9001 108.334 105.512 114.074 105.936C119.815 106.361 133.885 97.1162 127.516 93.4089C121.148 89.7023 113.392 96.9001 113.392 96.9001Z" fill="#FFBFBF"/>
<path d="M25.4252 93.9758C25.4252 93.9758 57.0432 181.309 62.3086 179.597C74.867 175.515 125.381 154.404 125.225 149.834C124.94 141.455 89.2752 68.1723 87.5221 65.7792C85.8502 63.4962 24.6175 90.7396 25.4252 93.9758Z" fill="#4A9DF7"/>
<path d="M27.73 95.7263C27.73 95.7263 57.5049 178.448 62.7703 176.737C75.3287 172.655 125.088 153.3 121.647 145.654C118.206 138.008 88.5766 72.5892 86.8236 70.1958C85.1513 67.9135 26.9223 92.4901 27.73 95.7263Z" fill="white"/>
<path d="M62.5415 177.058C61.3403 177.058 57.748 174.179 43.02 136.974C35.0094 116.738 27.546 96.0261 27.4715 95.8194L27.4633 95.7929C27.3545 95.3565 27.0234 94.0289 42.7115 86.6747C51.1266 82.7299 61.8672 78.1505 70.7416 74.7247C86.1291 68.7846 86.794 69.6918 87.0448 70.0338C88.8189 72.4557 118.576 138.162 121.898 145.542C122.185 146.18 122.153 146.904 121.803 147.694C117.927 156.448 73.7859 173.445 62.8554 176.998C62.7708 177.025 62.6694 177.058 62.5415 177.058ZM27.9957 95.6545C28.2737 96.4263 35.6365 116.831 43.5309 136.773C58.0725 173.507 61.7677 176.767 62.6854 176.476C73.5687 172.938 117.498 156.06 121.301 147.471C121.589 146.821 121.62 146.264 121.396 145.767C118.078 138.392 88.3489 72.7435 86.6017 70.3583C84.7687 69.019 42.5949 86.0043 30.4059 93.6542C28.0616 95.1252 27.9937 95.5967 27.9957 95.6545Z" fill="#421B36"/>
<path d="M27.1254 95.1729C27.1254 95.1729 58.7302 174.824 63.9956 173.112C76.554 169.03 127.487 150.08 124.046 142.434C120.605 134.788 88.7454 70.3575 86.9923 67.9641C85.3204 65.6818 26.3177 91.9366 27.1254 95.1729Z" fill="white"/>
<path d="M63.7593 173.435C62.5445 173.435 58.8586 170.622 43.3346 134.894C34.8712 115.416 26.9496 95.4734 26.8704 95.2745L26.8591 95.2398C26.4176 93.4699 38.5778 87.3544 48.8566 82.5359C60.7949 76.9398 85.8778 65.9781 87.2139 67.8025C88.9085 70.1164 120.63 134.175 124.296 142.322C124.576 142.944 124.547 143.645 124.21 144.407C120.237 153.381 72.6685 170.582 64.0807 173.374C63.9949 173.402 63.8919 173.435 63.7593 173.435ZM27.3914 95.0994C27.7304 95.9523 35.5229 115.539 43.8385 134.676C59.2026 170.035 62.9965 173.145 63.911 172.851C78.0138 168.267 120.11 152.31 123.708 144.184C123.983 143.563 124.012 143.028 123.796 142.547C120.133 134.408 88.4596 70.4323 86.7709 68.127C84.9753 66.8848 43.1521 84.6193 30.2455 92.7601C27.5053 94.4882 27.393 95.0276 27.3914 95.0994Z" fill="#421B36"/>
<path d="M72.1207 116.788C80.7276 112.653 89.3419 108.53 97.8701 104.234C98.2648 104.035 97.9177 103.443 97.5238 103.641C88.9956 107.938 80.3813 112.061 71.7744 116.196C71.3762 116.387 71.7241 116.979 72.1207 116.788Z" fill="#421B36"/>
<path d="M74.0559 121.289C82.9779 117.688 91.6496 113.493 100.194 109.079C100.587 108.876 100.24 108.283 99.8477 108.486C91.3563 112.872 82.74 117.049 73.8737 120.627C73.4689 120.79 73.6456 121.454 74.0559 121.289Z" fill="#421B36"/>
<path d="M82.8546 141.485C91.4615 137.349 100.076 133.226 108.604 128.93C108.999 128.731 108.652 128.139 108.258 128.337C99.7295 132.634 91.1152 136.757 82.5083 140.892C82.1101 141.083 82.458 141.675 82.8546 141.485Z" fill="#421B36"/>
<path d="M84.7898 145.985C93.7118 142.385 102.383 138.189 110.928 133.775C111.321 133.572 110.974 132.98 110.582 133.182C102.091 137.568 93.4739 141.745 84.6076 145.323C84.2028 145.486 84.3795 146.15 84.7898 145.985Z" fill="#421B36"/>
<path d="M87.0042 150.483C94.8198 146.809 102.636 143.136 110.451 139.462C110.851 139.274 110.503 138.683 110.105 138.87C102.289 142.543 94.4735 146.216 86.6579 149.89C86.2581 150.078 86.6064 150.669 87.0042 150.483Z" fill="#421B36"/>
<path d="M47.3318 124.15C47.3318 124.15 52.796 140.074 56.65 139.068C60.504 138.063 72.3027 133.103 72.2863 131.297C72.2559 127.908 66.6364 116.109 64.2968 115.215C60.683 113.835 46.3989 121.815 47.3318 124.15Z" fill="white"/>
<path d="M56.2991 139.387C54.633 139.387 52.6167 136.942 50.2982 132.105C48.4979 128.349 47.136 124.424 47.074 124.245C46.865 123.71 47.1828 123.023 48.0459 122.147C51.2225 118.921 61.366 113.801 64.3943 114.959C66.0768 115.601 68.6543 120.664 69.4043 122.2C70.9635 125.394 72.5441 129.445 72.5609 131.294C72.5804 133.488 59.9323 138.495 56.7195 139.333C56.5822 139.369 56.4418 139.387 56.2991 139.387ZM63.238 115.324C59.593 115.324 51.1714 119.755 48.4375 122.532C47.5026 123.482 47.5311 123.909 47.5869 124.048L47.5916 124.061C49.0884 128.423 53.6295 139.558 56.5803 138.802C61.1846 137.6 72.0243 132.715 72.0114 131.299C71.9802 127.806 66.2842 116.268 64.1981 115.471C63.9368 115.371 63.6124 115.324 63.238 115.324Z" fill="#4A9DF7"/>
<g opacity="0.3">
<path d="M68.4577 83.5281C68.3773 83.1763 68.5185 82.8304 69.0614 82.8752C69.0614 82.7278 69.0614 82.58 69.0614 82.4326C69.2252 82.4614 69.389 82.4895 69.5965 82.5254C69.6527 82.5905 69.6991 82.6619 69.7408 82.7352C69.3231 82.9965 68.8945 83.2613 68.4577 83.5281ZM69.0614 79.0415C68.7003 79.1831 68.4561 79.4171 68.4187 79.7915C68.5844 80.0746 68.7954 80.1437 69.0614 80.0735C69.0614 80.1718 69.0614 80.2704 69.0614 80.3687C70.1854 80.3929 69.8527 79.3582 69.0614 79.0415ZM75.7538 75.6302C75.6512 75.9348 75.5545 76.2242 75.4562 76.5155C76.4059 77.8715 77.7791 76.1528 76.4414 75.3779C76.1594 75.4816 75.9554 75.5569 75.7538 75.6302ZM70.6784 80.8675C70.4697 81.1308 70.3387 81.4088 70.2552 81.6768C70.3402 81.9521 70.5005 82.0718 70.6834 82.1389C71.0684 81.8932 71.442 81.6514 71.8035 81.4139C71.6151 81.0017 71.1358 80.942 70.6784 80.8675ZM72.8249 78.9889C72.6042 79.1102 72.3955 79.2233 72.2095 79.3247C72.1151 80.24 72.3877 80.6869 73.1615 80.4838C73.2882 80.1862 73.5846 79.9186 73.4579 79.492C73.2582 79.3329 73.0531 79.1698 72.8249 78.9889ZM71.8082 71.0805C71.5948 70.1398 70.5598 70.0318 70.2743 70.9806C70.8691 71.7715 71.1709 71.7907 71.8082 71.0805ZM73.4236 72.1927C73.1205 72.1627 72.8596 72.137 72.5706 72.1089C72.4298 72.5001 72.0761 72.7969 72.2071 73.2376C72.9306 73.4341 73.7586 73.2543 73.4236 72.1927ZM73.6576 78.0365C74.3681 79.1106 75.0651 78.5178 75.4188 77.5463C75.0756 77.4671 74.7866 77.4 74.5093 77.3365C74.2706 77.8165 74.2706 77.8165 73.6576 78.0365ZM73.3674 75.9418C72.9088 75.4223 72.5121 75.8435 72.1748 76.2565C72.5117 77.0993 72.8081 76.8833 73.4657 76.6598C73.787 76.4765 73.5835 76.1177 73.3674 75.9418ZM70.1047 77.9437C70.4833 78.1161 70.6397 78.2658 70.7657 78.6769C72.7801 78.4951 70.9463 76.604 70.1047 77.9437ZM71.8093 74.5803C71.4494 74.11 70.4081 74.0043 70.1889 74.6104C70.5235 75.145 71.5601 75.1353 71.8093 74.5803ZM74.6216 73.8432C74.5592 73.9594 74.5035 74.0636 74.4301 74.2001C72.899 74.1712 74.6595 75.2492 75.4352 74.5335C75.177 74.2215 75.0557 73.8288 74.6216 73.8432ZM68.8286 72.1307C68.7213 72.447 68.6125 72.7668 68.5131 73.0589C68.7116 73.5351 68.7159 73.534 69.0614 73.5862C69.0614 73.4879 69.0614 73.39 69.0614 73.2918C69.2743 73.3475 69.4842 73.3686 69.6597 73.2629C70.1051 72.5804 69.8363 72.215 69.0614 72.2598C69.0614 72.2107 69.0614 72.1612 69.0614 72.1124C68.9881 72.1183 68.9155 72.1237 68.8286 72.1307ZM68.4011 75.8853C68.7131 76.3357 68.7131 76.3357 68.7826 76.7983C68.8738 76.8084 68.9678 76.8193 69.0614 76.8298C69.3235 76.909 69.5041 76.7253 69.692 76.659C69.7712 76.4258 69.8383 76.2253 69.903 76.0339C69.692 75.7281 69.3711 75.624 69.0614 75.5031C69.0614 75.5522 69.0614 75.6013 69.0614 75.6505C68.7763 75.4816 68.5127 75.5627 68.4011 75.8853ZM48.4604 91.0656C49.3317 90.295 47.9144 89.1379 47.1656 89.9229C46.5986 90.8901 47.5962 91.7575 48.4604 91.0656ZM46.7733 92.7021C46.8739 92.1916 46.7671 91.7879 46.3852 91.4186C45.9832 91.4545 45.6228 91.4864 45.2386 91.5211C44.95 92.6007 45.8431 93.5803 46.7733 92.7021ZM48.6847 87.659C48.4253 86.5713 49.0135 85.9855 47.3372 86.2004C46.7456 87.2428 47.5884 88.1461 48.6847 87.659ZM44.4528 93.1381C44.3452 93.1451 44.2519 93.1689 44.1661 93.1989C44.4703 93.553 44.8046 93.8483 45.1704 94.0616C45.1833 93.6369 44.9356 93.1919 44.4528 93.1381ZM48.9565 82.2239C49.7248 82.4759 50.371 82.1311 50.3441 81.4517C49.8707 81.7154 49.4074 81.9732 48.9565 82.2239ZM50.4939 92.2863C50.4951 91.8722 49.8937 91.3035 49.4861 91.3499C49.0696 91.4513 49.2018 91.9404 48.9292 92.1615C48.8598 92.2185 48.8656 92.4669 48.9304 92.5699C49.3153 93.2695 50.4767 93.163 50.4939 92.2863ZM67.3914 77.1415C66.3942 77.5276 66.2873 78.6032 67.3871 78.9011C68.4475 78.632 68.2845 77.5876 67.3914 77.1415ZM44.4742 91.3066C44.7172 90.9342 45.5596 90.6132 45.0331 90.0941C44.5788 89.6702 43.7551 89.4787 43.4404 90.1725C43.7149 90.6394 43.7871 91.3098 44.4742 91.3066ZM46.9897 88.6683C46.8057 88.1309 46.3767 88.0384 46.0432 87.7814C45.3892 88.2483 45.0417 88.9132 45.7347 89.5177C46.4644 89.664 46.5448 88.9382 46.9897 88.6683ZM65.3642 78.978C64.9395 79.1952 65.0245 79.7478 64.6575 80.0044C65.7581 81.605 67.4507 79.4744 65.3642 78.978ZM55.0998 87.8006C55.3451 87.6332 55.56 87.4874 55.7905 87.3306C55.709 86.9765 55.6501 86.7218 55.5908 86.4648C55.3646 86.3178 55.1458 86.1758 54.9422 86.0444C54.4824 86.2846 54.0129 86.7663 54.2824 87.3103C54.6455 87.2526 54.8568 87.5365 55.0998 87.8006ZM47.8789 93.1303C47.5884 93.4559 47.0779 93.6065 47.0451 94.0776C47.0822 94.1556 47.1294 94.2231 47.1812 94.2862C47.602 94.1829 48.1102 94.0203 48.6917 93.8069C48.6843 93.775 48.6808 93.7449 48.6703 93.7114C48.3836 93.5012 48.1317 93.3163 47.8789 93.1303ZM43.2992 85.3755C42.9591 85.5651 42.6611 85.7316 42.4108 85.8712C42.878 86.1797 43.2048 85.8213 43.2992 85.3755ZM54.9372 78.9561C53.1143 79.5337 55.2628 81.5898 55.8073 79.7974C55.5331 79.4717 55.2792 79.1831 54.9372 78.9561ZM47.1227 83.626C47.464 84.3194 48.2923 84.0222 48.7143 83.5347C48.657 83.0897 48.3906 82.8132 48.0899 82.7056C47.7565 82.8912 47.4308 83.0726 47.1149 83.2485C47.0986 83.3596 47.0974 83.484 47.1227 83.626ZM58.4632 87.7651C59.4354 87.299 59.4729 86.8435 58.5856 86.1625C57.4152 86.2331 57.5599 87.3985 58.4632 87.7651ZM42.0949 87.9846C42.0508 88.1617 42.0087 88.3313 41.9814 88.5053C42.0492 88.7521 42.1261 89.0115 42.2099 89.2779C43.8038 89.5333 43.8183 87.5506 42.0949 87.9846ZM50.2864 88.2974C49.8781 87.7943 49.2689 87.8735 48.9499 88.4214C49.0419 88.8832 49.1472 89.3005 49.568 89.5185C49.8028 89.5021 49.9323 89.4101 50.1667 89.3278C50.1214 88.9214 50.4264 88.6324 50.2864 88.2974ZM53.2621 85.8314C53.4985 85.583 53.8327 85.5374 53.9629 85.2422C53.6443 83.2446 51.1109 85.5296 53.2621 85.8314ZM49.9612 85.973C50.7224 84.8958 50.0583 84.1732 48.9054 84.7738C48.696 85.5877 49.2163 85.909 49.9612 85.973ZM46.7284 84.6915C46.5732 84.5912 46.3919 84.475 46.2382 84.376C43.7707 85.3954 47.1851 86.9281 46.7284 84.6915ZM62.4837 82.6518C61.5793 82.4482 61.2306 83.1042 61.5496 83.8963C62.4958 84.4863 63.0523 83.4403 62.4837 82.6518ZM50.7197 83.6112C51.153 84.227 51.9466 84.2465 52.1951 83.4614C52.0379 82.5149 50.1889 82.5667 50.7197 83.6112ZM55.0475 82.5554C54.5234 82.7653 54.5234 82.7653 54.2387 83.3019C54.732 85.0947 56.4878 83.4072 55.0475 82.5554ZM51.5457 91.16C51.9424 90.9549 52.0239 90.6035 52.2356 90.3406C52.0921 90.1078 51.9673 89.905 51.8566 89.7252C50.8215 89.8239 50.3356 89.9537 50.9872 90.9779C51.1772 91.0258 51.3562 91.0847 51.5457 91.16ZM52.3312 92.2497C52.3324 92.2543 52.3351 92.2571 52.3363 92.2618C52.7017 92.0925 53.0769 91.9154 53.4614 91.7314C53.087 91.362 52.479 91.5395 52.3312 92.2497ZM63.4216 75.0904C64.5191 75.2964 64.6252 74.5234 64.0936 73.8311C63.798 73.9938 63.4992 74.1587 63.1939 74.3272C63.1942 74.5932 63.2797 74.8837 63.4216 75.0904ZM60.9151 84.9095C60.5859 84.6751 60.5859 84.6751 60.0481 84.5706C59.7147 84.8147 59.375 85.0627 59.5325 85.624C60.3812 86.0927 60.7002 85.9227 60.9151 84.9095ZM43.9938 87.5989C44.833 87.4874 44.9465 87.3961 45.1392 86.6898C44.9282 86.2031 44.4251 86.3763 44.0378 86.1852C43.6861 86.5034 43.6662 86.8166 43.9708 87.1504C44.0562 87.2943 43.7687 87.4609 43.9938 87.5989ZM59.8913 88.0903C59.5306 88.1531 59.4491 88.393 59.5177 88.6398C59.8324 88.471 60.148 88.3005 60.4642 88.1285C60.2915 88.0474 60.0926 88.0197 59.8913 88.0903ZM51.0286 86.1926C50.8835 86.6274 50.6288 86.9929 50.9128 87.3961C51.2283 87.3817 51.4712 87.4449 51.7088 87.6247C52.1705 87.2159 52.1678 87.2171 51.9385 86.7901C51.8129 86.3084 51.5555 86.0674 51.0286 86.1926ZM59.5243 81.4209C59.6612 81.8488 59.6094 82.337 60.1651 82.4302C61.7337 82.0902 60.3866 80.4479 59.5243 81.4209ZM66.7167 81.5024C66.4195 82.7497 68.4647 81.9045 68.0494 81.2614C67.5876 80.9221 66.627 80.5181 66.7167 81.5024ZM66.2195 73.0745C66.1906 72.9427 66.166 72.8206 66.1391 72.7056C65.8283 72.8764 65.5069 73.0531 65.1782 73.2337C65.3884 73.3627 65.7425 73.3296 66.2195 73.0745ZM41.6089 86.9515C41.6545 86.8099 41.6276 86.6949 41.5364 86.5783C41.5535 86.6727 41.5781 86.8002 41.6089 86.9515ZM56.7518 84.429C56.7308 84.3065 56.6696 84.2488 56.5611 84.2839C56.5058 84.3015 56.4231 84.3966 56.4348 84.4302C56.5198 85.0085 55.5869 85.0276 56.2355 85.6903C56.5182 85.6903 56.8064 85.6903 57.1017 85.6903C57.2612 85.4543 57.4102 85.2359 57.5697 85.0003C57.3766 84.4345 56.7647 85.0429 56.7518 84.429ZM65.5296 82.6693C65.0881 82.7536 64.6392 83.2871 64.8829 83.7461C65.5136 83.9953 65.9219 83.9844 66.2113 83.298C66.1103 82.9002 65.8646 82.7348 65.5296 82.6693ZM67.6945 73.7956C67.3563 73.7839 67.0537 73.734 66.9698 74.1065C66.3802 74.3475 66.6212 74.6739 66.978 75.0986C68.0037 75.2999 67.9721 74.5624 67.6945 73.7956ZM62.6884 79.9456C62.4712 79.492 62.4712 79.492 62.0344 79.2755C61.3772 79.4023 60.9728 79.609 61.5699 80.3469C61.7941 80.4139 62.0461 80.4896 62.3296 80.575C62.4626 80.341 62.5808 80.1335 62.6884 79.9456ZM53.4684 89.2962C53.4415 89.2069 53.4142 89.1168 53.369 88.9651C55.2039 88.1258 52.3792 87.8423 52.4419 88.992C52.5309 89.3247 53.2372 89.6035 53.4684 89.2962ZM54.3997 89.9245C54.2055 90.3695 54.5136 90.7057 54.5191 91.1425C54.5596 91.1534 54.594 91.1553 54.6318 91.1623C54.9005 91.0301 55.1719 90.8948 55.4469 90.7571C55.5791 90.2696 55.1731 89.5864 54.3997 89.9245ZM62.4954 75.8463C61.7224 75.7211 61.0091 76.1411 61.55 76.9418C61.8031 76.9652 62.0636 76.9886 62.3277 77.0131C62.4704 76.8158 62.5964 76.6423 62.72 76.4718C62.6486 76.2745 62.5847 76.0939 62.4954 75.8463ZM57.4304 77.8782C57.3715 77.7736 57.3068 77.6917 57.2401 77.6212C56.8536 77.8357 56.4667 78.0502 56.0799 78.2647C56.0994 78.3781 56.1388 78.4975 56.2043 78.6199C56.714 78.6476 57.1418 78.375 57.4304 77.8782ZM60.389 77.1961C60.2326 77.1446 60.0091 77.2514 59.96 77.4901C59.9097 77.9031 59.5435 77.8232 59.3769 78.0954C59.6277 78.1707 59.7681 78.3419 59.9206 78.5314C60.6737 79.0938 61.1815 77.4141 60.389 77.1961ZM58.9573 83.8608C58.9881 83.5866 59.0166 83.3288 59.0489 83.0437C57.2904 82.2349 57.4035 84.5647 58.9573 83.8608ZM53.8818 81.7154C53.571 81.364 53.0987 81.387 52.8386 81.043C52.5976 81.1631 52.4283 81.3574 52.2614 81.6011C52.7777 82.3308 53.4598 82.6564 53.8818 81.7154ZM57.0155 89.0891C57.4035 88.6921 57.1403 88.3824 57.0334 88.0763C55.631 87.7463 55.558 89.4471 57.0155 89.0891ZM66.1255 76.5588C66.5596 75.9052 65.7608 75.5861 65.195 75.7117C64.4984 76.5237 65.4769 77.0553 66.1255 76.5588ZM63.4037 77.6485C63.0878 77.971 63.2005 78.5977 63.7001 78.6301C65.0643 78.4261 64.3272 77.0588 63.4037 77.6485ZM63.4009 82.1475C65.8607 81.7325 63.2719 79.9955 63.1248 81.8998C63.211 81.9771 63.3159 82.0711 63.4009 82.1475ZM57.6028 79.8204C57.9718 80.3976 57.9094 80.2439 58.7833 80.1503C59.618 79.1492 57.907 79.0493 57.6028 79.8204ZM64.6224 85.2663C64.2449 84.6295 63.7133 84.3607 63.1993 85.0826C63.3729 85.927 64.2235 85.8014 64.6224 85.2663ZM61.9096 86.3283C61.5832 86.404 61.3679 86.5721 61.2926 86.9332C61.4467 87.1875 61.6596 87.3138 61.871 87.3556C62.1292 87.2124 62.3873 87.0681 62.6451 86.9234C62.6381 86.7253 62.4373 86.4991 61.9096 86.3283ZM57.2698 81.605C56.8174 81.0469 56.6949 80.9919 56.1594 81.0922C56.1001 81.2673 56.0393 81.4486 55.9621 81.6772C56.2838 81.908 56.5802 82.1619 56.9281 82.112C57.0381 81.9482 57.157 81.7719 57.2698 81.605Z" fill="#421B36"/>
</g>
<path d="M45.998 89.3359C45.3182 89.3359 40.4537 82.3642 42.7189 80.0987C44.9844 77.8332 69.318 65.8934 71.0761 67.717C72.9505 69.6612 74.7675 76.4234 74.7675 76.4234L45.998 89.3359Z" fill="#4A9DF7"/>
<path d="M58.4631 146.9C58.4631 146.9 63.9274 162.823 67.7814 161.818C71.6354 160.812 83.4341 155.852 83.4177 154.046C83.3873 150.658 77.7678 138.858 75.4281 137.964C71.814 136.585 57.5299 144.565 58.4631 146.9Z" fill="white"/>
<path d="M67.4304 162.137C65.7644 162.137 63.748 159.692 61.4295 154.854C59.6293 151.098 58.2674 147.174 58.2054 146.995C57.9963 146.46 58.3142 145.774 59.1773 144.897C62.3538 141.671 72.4969 136.551 75.5257 137.709C77.2081 138.351 79.7856 143.414 80.5356 144.95C82.0952 148.144 83.6755 152.195 83.6923 154.044C83.7122 156.238 71.0637 161.245 67.8505 162.083C67.7132 162.119 67.5732 162.137 67.4304 162.137ZM74.3693 138.074C70.7244 138.074 62.3027 142.505 59.5688 145.282C58.634 146.232 58.6625 146.659 58.7182 146.798L58.7229 146.811C60.2197 151.173 64.7613 162.312 67.7116 161.552C72.3163 160.351 83.1556 155.466 83.1428 154.049C83.1116 150.556 77.416 139.018 75.3295 138.221C75.0678 138.121 74.7433 138.074 74.3693 138.074Z" fill="#4A9DF7"/>
<path d="M35.5874 100.427C35.5874 100.427 41.0517 116.351 44.9056 115.345C48.7596 114.34 60.5583 109.38 60.5419 107.574C60.5115 104.186 54.892 92.3861 52.5524 91.4922C48.9386 90.1124 34.6545 98.0925 35.5874 100.427Z" fill="white"/>
<path d="M44.5551 115.665C42.8887 115.665 40.8728 113.22 38.5542 108.382C36.754 104.626 35.3921 100.702 35.3301 100.523C35.121 99.9873 35.4393 99.3005 36.3024 98.4242C39.4793 95.1981 49.6209 90.0802 52.6504 91.2361C54.3328 91.8788 56.9103 96.941 57.6603 98.4776C59.2195 101.672 60.8006 105.723 60.817 107.572C60.8365 109.765 48.1884 114.773 44.9752 115.611C44.8379 115.647 44.6979 115.665 44.5551 115.665ZM51.4932 91.6019C47.8487 91.6019 39.4278 96.0327 36.6935 98.8091C35.7583 99.7592 35.7868 100.186 35.8425 100.325L35.8472 100.338C37.2945 104.555 41.5794 115.117 44.5364 115.118C44.6382 115.118 44.7381 115.105 44.8363 115.08C49.4403 113.879 60.2799 108.993 60.2675 107.577C60.2363 104.084 54.5403 92.5457 52.4542 91.749C52.1925 91.6487 51.8676 91.6019 51.4932 91.6019Z" fill="#4A9DF7"/>
<path d="M50.3142 95.0176C50.0673 95.6759 48.9129 107.518 48.9129 107.518C48.9129 107.518 42.1546 104.558 41.9869 104.446C41.9869 104.446 40.7771 106.271 40.9912 106.914C41.2053 107.556 49.1843 111.412 50.5766 110.287C51.9689 109.163 53.2006 95.2293 53.2006 95.2293L50.3142 95.0176Z" fill="#4A9DF7"/>
<path d="M73.6997 140.3C73.4528 140.958 72.2984 152.8 72.2984 152.8C72.2984 152.8 65.5401 149.84 65.3724 149.728C65.3724 149.728 64.1626 151.554 64.3767 152.196C64.5908 152.839 72.5698 156.694 73.9621 155.569C75.3544 154.445 76.5861 140.512 76.5861 140.512L73.6997 140.3Z" fill="#4A9DF7"/>
<path d="M60.5992 92.2587C69.2061 88.1231 77.8205 84.0004 86.3486 79.7042C86.7433 79.5053 86.3962 78.9129 86.0023 79.1114C77.4741 83.4076 68.8598 87.5307 60.2529 91.6659C59.8547 91.8574 60.2026 92.4494 60.5992 92.2587Z" fill="#421B36"/>
<path d="M62.5344 96.759C71.4564 93.1585 80.1281 88.9629 88.6726 84.5489C89.0653 84.3461 88.7186 83.7537 88.3263 83.9561C79.8348 88.3424 71.2185 92.5189 62.3523 96.0968C61.9474 96.2602 62.1241 96.9244 62.5344 96.759Z" fill="#421B36"/>
<path d="M65.5331 101.071C73.0874 97.5209 80.6417 93.9704 88.196 90.4198C88.5954 90.2322 88.2475 89.6402 87.8497 89.827C80.2954 93.3776 72.7411 96.9281 65.1868 100.479C64.7874 100.667 65.1353 101.259 65.5331 101.071Z" fill="#421B36"/>
<path d="M48.29 79.5114C48.29 79.5114 43.8378 76.5287 44.9235 73.7051C46.0093 70.8815 63.1673 63.7176 64.4703 65.5623C65.7733 67.4066 67.4023 72.9898 67.4023 72.9898L48.8329 79.5114" fill="#4A9DF7"/>
<path d="M44.433 74.0186C45.2083 76.9876 47.374 79.4731 49.4648 81.6255C49.5447 81.7078 49.6871 81.7538 49.7986 81.7137C55.2957 79.7368 60.7931 77.7598 66.2902 75.7829C67.0616 75.5056 67.833 75.228 68.6044 74.9507C68.7717 74.8906 68.9063 74.7155 68.8443 74.5283C67.7843 71.3373 66.3865 68.2743 64.667 65.3848C64.4412 65.0053 63.8476 65.3504 64.0742 65.7311C65.7645 68.5707 67.1404 71.5745 68.1825 74.7104C68.2624 74.5697 68.3424 74.4289 68.4223 74.2885C62.9253 76.2654 57.4278 78.2423 51.9308 80.2192C51.1593 80.4965 50.3879 80.7742 49.6165 81.0514C49.7277 81.0807 49.8392 81.1103 49.9503 81.1396C47.9411 79.0706 45.8409 76.6905 45.0952 73.8353C44.9837 73.409 44.3215 73.59 44.433 74.0186Z" fill="#421B36"/>
<path d="M45.8839 89.7353C55.4572 85.3111 65.0309 80.887 74.6043 76.4628C75.0048 76.2776 74.6565 75.6859 74.2579 75.87C64.6842 80.2942 55.1109 84.7184 45.5376 89.1425C45.1366 89.3278 45.4849 89.9198 45.8839 89.7353Z" fill="#421B36"/>
<path d="M51.3941 75.4133C51.4007 75.3911 51.4023 75.3681 51.405 75.3455C51.4077 75.3244 51.4124 75.3014 51.4124 75.2792C51.412 75.2343 51.4062 75.1887 51.3941 75.1454C51.3824 75.1037 51.3644 75.0631 51.3438 75.0253C51.3399 75.0186 51.336 75.012 51.3317 75.0062C51.3106 74.9769 51.2888 74.9473 51.265 74.9204C51.2361 74.888 51.1967 74.8615 51.1632 74.8373C51.1293 74.8127 51.0805 74.7963 51.045 74.7823C51.038 74.7796 51.031 74.7768 51.024 74.7749C50.9885 74.7655 50.9506 74.7632 50.9144 74.7589C50.8691 74.7538 50.8212 74.7647 50.7779 74.7722C50.7198 74.7885 50.6691 74.8178 50.6265 74.8603C50.584 74.9032 50.5544 74.9535 50.5384 75.0116C50.5197 75.1009 50.5201 75.1466 50.5376 75.2351C50.5458 75.2764 50.5638 75.3178 50.5879 75.3525C50.6051 75.3774 50.6289 75.4121 50.6538 75.4359C50.6566 75.4383 50.6593 75.4406 50.662 75.443C50.6866 75.4632 50.7127 75.4843 50.7393 75.5022C50.7751 75.5268 50.8188 75.5416 50.8594 75.5557C50.9011 75.5701 50.9545 75.5736 50.9943 75.5779C51.0099 75.5795 51.0259 75.5798 51.0415 75.5783C51.0828 75.574 51.1332 75.5713 51.1749 75.5564C51.2607 75.526 51.2919 75.5069 51.3609 75.4492C51.3941 75.4215 51.4221 75.3848 51.4413 75.3462C51.4526 75.3236 51.4756 75.278 51.4826 75.2437C51.483 75.2413 51.4834 75.2394 51.4838 75.237C51.4884 75.207 51.4947 75.1715 51.4966 75.1411C51.497 75.136 51.497 75.1313 51.4966 75.1263C51.4927 75.1567 51.4884 75.1871 51.4845 75.2175C51.497 75.1789 51.5033 75.1364 51.5001 75.0959C51.4935 75.0104 51.4845 74.9734 51.4452 74.897C51.4112 74.831 51.343 74.7675 51.2794 74.7312C51.2451 74.7117 51.2076 74.6953 51.1694 74.6852C51.1667 74.6844 51.1636 74.684 51.1608 74.6832C51.1312 74.6774 51.0953 74.6735 51.0653 74.6704C51.0594 74.6696 51.0536 74.6692 51.0477 74.6696C50.9658 74.6739 50.9218 74.6867 50.8496 74.7218C50.8442 74.7246 50.8395 74.7269 50.8348 74.7304C50.8106 74.7472 50.7825 74.7683 50.7607 74.7878C50.7584 74.7897 50.7564 74.792 50.7545 74.7944C50.7209 74.8256 50.6975 74.8622 50.6835 74.9048C50.662 74.9457 50.6523 74.9898 50.6538 75.037C50.6519 75.0842 50.662 75.1282 50.6835 75.1692C50.6975 75.2117 50.7209 75.2487 50.7545 75.2795C50.7775 75.2975 50.8009 75.3154 50.8239 75.3334C50.8773 75.3646 50.935 75.3802 50.997 75.3802C51.0275 75.3763 51.0579 75.372 51.0883 75.3681C51.1464 75.3517 51.1971 75.3224 51.2396 75.2799C51.2431 75.276 51.2466 75.2729 51.2505 75.2694C51.2275 75.2873 51.2041 75.3053 51.1811 75.3232C51.1858 75.3197 51.1909 75.317 51.1959 75.3146C51.1686 75.3263 51.1413 75.3377 51.114 75.3494C51.1203 75.347 51.1265 75.3455 51.1332 75.3443C51.1027 75.3482 51.0723 75.3525 51.0419 75.3564C51.0497 75.3556 51.0571 75.3556 51.0649 75.3568C51.0345 75.3529 51.0041 75.3486 50.9736 75.3447C50.9838 75.3462 50.9931 75.349 51.0025 75.3529C50.9752 75.3412 50.9479 75.3299 50.9206 75.3182C50.93 75.3224 50.9385 75.3275 50.9467 75.3338C50.9237 75.3158 50.9003 75.2979 50.8773 75.2799C50.8843 75.2854 50.891 75.2916 50.8964 75.2987C50.8785 75.2756 50.8605 75.2522 50.8426 75.2292C50.8473 75.2355 50.8512 75.2421 50.8547 75.2491C50.843 75.2218 50.8317 75.1945 50.82 75.1672C50.8227 75.1735 50.8243 75.1797 50.8254 75.1863C50.8215 75.1559 50.8173 75.1255 50.8134 75.0951C50.8141 75.1009 50.8141 75.1064 50.8134 75.1122C50.8173 75.0818 50.8215 75.0514 50.8254 75.021C50.8204 75.0572 50.8102 75.0896 50.8098 75.1294C50.8098 75.1349 50.8098 75.1407 50.8091 75.1462C50.813 75.1157 50.8173 75.0853 50.8212 75.0549C50.82 75.0639 50.8176 75.0721 50.8145 75.0803C50.8262 75.053 50.8375 75.0257 50.8492 74.9984C50.8461 75.0054 50.8422 75.0116 50.8375 75.0179C50.8555 74.9948 50.8734 74.9714 50.8914 74.9484C50.8863 74.9551 50.8804 74.9605 50.8738 74.9656C50.8968 74.9477 50.9202 74.9297 50.9432 74.9118C50.9346 74.918 50.9253 74.9235 50.9155 74.9274C50.9428 74.9157 50.9701 74.9044 50.9974 74.8927C50.9842 74.8981 50.9701 74.9016 50.9561 74.9036C50.9865 74.8997 51.0169 74.8954 51.0474 74.8915C51.0286 74.8938 51.0095 74.8938 50.9908 74.8915C51.0212 74.8954 51.0516 74.8997 51.0821 74.9036C51.0641 74.9012 51.047 74.8966 51.0302 74.8895C51.0575 74.9009 51.0848 74.9126 51.1121 74.9243C51.1004 74.9192 51.0895 74.9129 51.0797 74.9055C51.1027 74.9235 51.1261 74.9414 51.1491 74.9594C51.1413 74.9531 51.1343 74.9465 51.1285 74.9387C51.1464 74.9617 51.1644 74.9851 51.1823 75.0081C51.1776 75.0019 51.1741 74.9956 51.171 74.9886C51.1823 75.0159 51.194 75.0432 51.2057 75.0705C51.2026 75.0627 51.2002 75.0545 51.1991 75.0463C51.2034 75.0767 51.2073 75.1072 51.2115 75.1376C51.2108 75.1294 51.2108 75.1208 51.2119 75.1126C51.208 75.143 51.2037 75.1735 51.1998 75.2039C51.2002 75.2008 51.201 75.1973 51.2014 75.1941C51.1215 75.2741 51.0415 75.354 50.9616 75.434C50.9643 75.4336 50.9666 75.4332 50.9694 75.4328C50.9389 75.4367 50.9085 75.441 50.8781 75.4449C50.8906 75.4433 50.9031 75.4437 50.9155 75.4453C50.8851 75.4414 50.8547 75.4371 50.8243 75.4332C50.8379 75.4352 50.8512 75.4391 50.8637 75.4441C50.8364 75.4324 50.8091 75.4211 50.7818 75.4094C50.797 75.416 50.811 75.4242 50.8239 75.4344C50.8009 75.4164 50.7775 75.3985 50.7545 75.3806C50.7677 75.3911 50.779 75.4028 50.7896 75.4157C50.7716 75.3926 50.7537 75.3692 50.7357 75.3462C50.7459 75.3595 50.7541 75.3735 50.7607 75.3887C50.749 75.3614 50.7377 75.3341 50.726 75.3068C50.7318 75.3209 50.7361 75.3353 50.7381 75.3501C50.7342 75.3197 50.7299 75.2893 50.726 75.2589C50.7279 75.2725 50.7279 75.2862 50.7264 75.2998C50.7303 75.2694 50.7346 75.239 50.7385 75.2086C50.7373 75.216 50.7357 75.2234 50.7334 75.2308C50.719 75.2764 50.717 75.3221 50.7272 75.3677C50.7291 75.4133 50.7428 75.4558 50.7677 75.4952C50.7892 75.5354 50.8188 75.5674 50.8563 75.5915C50.8894 75.622 50.9284 75.6422 50.9729 75.6532C51.0033 75.6571 51.0337 75.6614 51.0641 75.6653C51.1261 75.6653 51.1839 75.6497 51.2373 75.6185C51.2603 75.6005 51.2837 75.5826 51.3067 75.5646C51.3484 75.5217 51.3777 75.4714 51.3941 75.4133Z" fill="#421B36"/>
<path d="M60.9581 70.1679C60.9488 70.164 60.9394 70.1609 60.9296 70.1586C60.9254 70.1574 60.9207 70.157 60.9164 70.1562C60.8828 70.1508 60.8481 70.1449 60.8138 70.143C60.8045 70.1422 60.7951 70.1426 60.7861 70.1438C60.7483 70.1473 60.7085 70.1508 60.6715 70.1605C60.6488 70.1664 60.627 70.1773 60.6059 70.1863C60.5845 70.1952 60.5619 70.2034 60.5416 70.2151C60.5334 70.2198 60.5256 70.2253 60.5178 70.2311C60.4878 70.2534 60.4566 70.2756 60.4289 70.3013C60.3942 70.3337 60.3661 70.3743 60.3388 70.4125C60.3271 70.4289 60.3174 70.4464 60.3092 70.4643C60.2901 70.5069 60.2674 70.5521 60.2573 70.5985C60.2491 70.6363 60.2448 70.6761 60.2409 70.7143C60.2401 70.7237 60.2394 70.7331 60.2394 70.7428C60.2401 70.7904 60.2456 70.8395 60.2596 70.8852C60.2709 70.9206 60.2869 70.9557 60.3029 70.9893C60.3072 70.9979 60.3119 71.0057 60.3174 71.0135C60.3388 71.0435 60.361 71.0759 60.3875 71.102C60.3907 71.1055 60.3946 71.1086 60.3981 71.1117C60.4195 71.1305 60.4854 71.1757 60.4706 71.1679C60.4979 71.1796 60.5252 71.1909 60.5525 71.2026C60.5829 71.2069 60.6134 71.2108 60.6438 71.2151C60.6703 71.2155 60.7136 71.2065 60.7397 71.2022C60.7428 71.2018 60.7464 71.2014 60.7495 71.2007C60.7549 71.1995 60.7604 71.1979 60.7658 71.1964C60.7974 71.1862 60.8286 71.171 60.8591 71.1578C60.8649 71.155 60.8708 71.1527 60.8766 71.1496C60.9215 71.125 60.9651 71.0922 60.9979 71.0529C61.0232 71.0228 61.0498 70.9916 61.07 70.9573C61.0903 70.923 61.1048 70.8836 61.1184 70.8469C61.1367 70.7978 61.1438 70.7416 61.143 70.6894C61.143 70.6827 61.1422 70.6765 61.1414 70.6703C61.1375 70.6363 61.1344 70.6008 61.127 70.5669C61.1258 70.5615 61.1243 70.556 61.1223 70.5505C61.111 70.5189 61.097 70.4858 61.0825 70.4558C61.0708 70.4312 61.0533 70.4113 61.0365 70.3899C61.0193 70.3676 61.0049 70.3466 60.9839 70.3286C60.9133 70.2682 60.8606 70.237 60.7717 70.2066C60.76 70.2027 60.7479 70.1999 60.7354 70.198C60.7019 70.1925 60.6496 70.182 60.6095 70.1843C60.574 70.1863 60.5373 70.1921 60.5022 70.1984C60.496 70.1995 60.4901 70.2007 60.4843 70.2023C60.4437 70.2132 60.4047 70.2311 60.368 70.251C60.3279 70.2725 60.2959 70.3021 60.2717 70.3395C60.2413 70.3727 60.221 70.4117 60.2101 70.4562C60.1957 70.5018 60.1937 70.5474 60.2039 70.593C60.2058 70.6387 60.2195 70.6812 60.2444 70.7206C60.2916 70.7939 60.3622 70.8582 60.4496 70.8781C60.48 70.882 60.5104 70.8863 60.5408 70.8906C60.6028 70.8902 60.6606 70.8746 60.714 70.8438C60.7194 70.8407 60.7249 70.8384 60.7308 70.8356C60.7035 70.8473 60.6761 70.8586 60.6488 70.8703C60.6617 70.8653 60.675 70.8621 60.689 70.8602C60.6586 70.8645 60.6282 70.8684 60.5978 70.8723C60.6134 70.8707 60.6286 70.8707 60.6438 70.8727C60.6134 70.8688 60.5829 70.8645 60.5525 70.8606C60.5697 70.8633 60.5861 70.8676 60.6017 70.8742C60.5744 70.8625 60.5471 70.8512 60.5198 70.8395C60.5354 70.8465 60.5502 70.8551 60.5638 70.8657C60.5408 70.8477 60.5174 70.8298 60.4944 70.8118C60.5053 70.8204 60.5151 70.8302 60.5237 70.8411C60.5057 70.8181 60.4878 70.7947 60.4698 70.7717C60.4784 70.7826 60.4854 70.7947 60.4909 70.8072C60.4796 70.7799 60.4679 70.7526 60.4562 70.7253C60.4609 70.7373 60.4644 70.7494 60.4663 70.7623C60.4624 70.7319 60.4581 70.7015 60.4542 70.671C60.4562 70.6855 60.4562 70.6999 60.4542 70.7143C60.4581 70.6839 60.4624 70.6535 60.4663 70.6231C60.464 70.6391 60.4597 70.6547 60.4535 70.6699C60.4648 70.6426 60.4765 70.6153 60.4882 70.588C60.4815 70.6032 60.4733 70.6168 60.464 70.6301C60.4819 70.6071 60.4999 70.5837 60.5178 70.5607C60.5077 70.5735 60.4964 70.5852 60.4839 70.5954C60.5069 70.5774 60.5303 70.5595 60.5533 70.5416C60.5404 70.5513 60.5268 70.5595 60.5116 70.5657C60.5389 70.554 60.5662 70.5427 60.5935 70.531C60.5814 70.5357 60.5689 70.5392 60.556 70.5408C60.5865 70.5369 60.6169 70.5326 60.6473 70.5287C60.6457 70.5291 60.6442 70.5291 60.6426 70.5291C60.7233 70.5626 60.8045 70.5962 60.8852 70.6297C60.875 70.6211 60.8657 70.6118 60.8575 70.6016C60.8754 70.6246 60.8934 70.648 60.9113 70.671C60.9031 70.6601 60.8965 70.648 60.891 70.6356C60.9027 70.6629 60.9141 70.6902 60.9258 70.7175C60.9203 70.7038 60.9168 70.6894 60.9144 70.6749C60.9183 70.7054 60.9226 70.7358 60.9265 70.7662C60.9242 70.7475 60.9246 70.7288 60.9269 70.7097C60.923 70.7401 60.9187 70.7705 60.9148 70.8009C60.9183 70.7775 60.9246 70.7549 60.9339 70.7331C60.9222 70.7604 60.9109 70.7877 60.8992 70.815C60.9094 70.7916 60.9222 70.7701 60.9378 70.7498C60.9199 70.7728 60.902 70.7962 60.884 70.8192C60.8981 70.8017 60.9133 70.7857 60.9308 70.7721C60.9078 70.79 60.8844 70.8079 60.8614 70.8259C60.8766 70.8142 60.8926 70.8044 60.9101 70.797C60.8828 70.8087 60.8556 70.82 60.8283 70.8317C60.8431 70.8255 60.8587 70.8216 60.8747 70.8192C60.8442 70.8231 60.8138 70.8274 60.7834 70.8313C60.797 70.8298 60.8107 70.8298 60.8244 70.8317C60.7939 70.8278 60.7635 70.8235 60.7331 70.8192C60.7475 70.8216 60.7612 70.8255 60.7748 70.8309C60.8204 70.8454 60.8661 70.8473 60.9117 70.8372C60.9573 70.8352 60.9999 70.8216 61.0392 70.7966C61.0794 70.7752 61.1114 70.7455 61.1356 70.7081C61.166 70.6749 61.1863 70.6359 61.1972 70.5915C61.2011 70.5611 61.2054 70.5306 61.2093 70.5002C61.2089 70.4382 61.1933 70.3805 61.1625 70.3271C61.1445 70.3041 61.1266 70.2807 61.1087 70.2576C61.0665 70.2136 61.0162 70.1839 60.9581 70.1679Z" fill="#421B36"/>
<path d="M25.2839 106.25C25.2839 106.25 23.0055 104.255 23.0211 102.417C23.0414 100.037 26.1149 94.443 28.4869 94.0588C30.8589 93.6747 31.7376 96.5232 30.981 97.5832C30.2244 98.6429 27.8828 100.86 27.4374 102.073C27.0338 103.171 27.6933 103.602 27.6933 103.602C27.6933 103.602 32.0753 98.7236 34.5136 99.5578C36.9523 100.392 35.9051 102.525 35.9051 102.525C35.9051 102.525 39.6433 103.479 37.3528 107.219C37.3528 107.219 38.4623 108.89 37.6909 110.612C36.9195 112.335 33.9809 115.033 33.9809 115.033C33.9809 115.033 35.108 118.451 34.6513 118.817C33.1264 120.037 27.5443 116.87 28.0259 114.501C28.0259 114.501 26.0876 112.571 26.292 110.727L26.4987 109.85C26.4987 109.85 24.3631 108.032 25.2839 106.25Z" fill="#FFBFBF"/>
<path d="M37.5335 107.171C36.8131 106.463 35.8186 106.751 35.0577 107.23C34.089 107.84 33.1717 108.551 32.3032 109.295C30.5708 110.779 29.1009 112.513 27.7827 114.368C27.5756 114.659 28.0654 114.924 28.2706 114.635C29.3914 113.058 30.6316 111.568 32.0563 110.256C32.7805 109.588 33.5469 108.969 34.3452 108.393C35.0468 107.888 36.3143 106.752 37.1517 107.575C37.4067 107.826 37.7889 107.422 37.5335 107.171Z" fill="#421B36"/>
<path d="M26.5634 110.063C27.9241 108.544 29.3472 107.083 30.8355 105.688C31.5663 105.003 32.3104 104.33 33.0733 103.68C33.7293 103.121 34.6621 102.331 35.5806 102.721C35.9074 102.859 36.1773 102.372 35.8473 102.233C35.09 101.912 34.3501 102.116 33.6704 102.533C32.7624 103.088 31.9766 103.89 31.1927 104.603C29.4279 106.208 27.7505 107.905 26.159 109.682C25.9207 109.948 26.3235 110.331 26.5634 110.063Z" fill="#421B36"/>
<path d="M25.5877 106.5C26.2737 105.038 27.3388 103.78 28.6769 102.873C28.9721 102.673 28.682 102.198 28.3844 102.4C26.9699 103.358 25.826 104.686 25.1002 106.233C24.9485 106.556 25.4352 106.825 25.5877 106.5Z" fill="#421B36"/>
<path d="M26.358 95.7077C26.7176 96.322 27.4539 96.7065 28.1657 96.6121C28.8993 96.515 29.5127 95.9784 29.7159 95.2682C29.8146 94.923 29.2744 94.79 29.1762 95.1336C29.0404 95.6086 28.6111 95.9971 28.1165 96.0614C27.6033 96.1281 27.0897 95.8571 26.8311 95.4156C26.6505 95.1067 26.1767 95.3984 26.358 95.7077Z" fill="#421B36"/>
<path d="M32.6047 109.485C33.373 110.204 34.4903 110.501 35.5113 110.228C36.5339 109.954 37.342 109.124 37.6466 108.121C37.7507 107.777 37.2106 107.645 37.1068 107.986C36.8584 108.806 36.1849 109.472 35.3549 109.694C34.5231 109.917 33.6105 109.664 32.9865 109.081C32.7252 108.836 32.3422 109.24 32.6047 109.485Z" fill="#421B36"/>
<path d="M31.4252 104.704C32.1374 105.512 33.3694 105.602 34.312 105.181C35.4352 104.679 36.0896 103.538 36.4843 102.426C36.6044 102.088 36.0635 101.957 35.9445 102.291C35.6138 103.223 35.0666 104.196 34.1447 104.649C33.3853 105.021 32.3858 104.957 31.807 104.3C31.5707 104.032 31.19 104.437 31.4252 104.704Z" fill="#421B36"/>
<path d="M30.7251 101.544C31.3733 102.014 32.2184 102.177 32.9973 101.996C33.7956 101.81 34.4843 101.242 34.847 100.512C35.0062 100.192 34.5187 99.9238 34.3591 100.245C34.0569 100.854 33.5066 101.308 32.8409 101.462C32.1966 101.613 31.5211 101.44 30.9919 101.056C30.8694 100.967 30.6814 101.048 30.6144 101.167C30.5336 101.311 30.6042 101.457 30.7251 101.544Z" fill="#421B36"/>
<path d="M93.5492 103.995L69.8637 126.127L69.5392 126.429L69.5049 126.463C69.5049 126.463 67.7924 127.191 66.0971 127.817C64.7543 128.306 63.4287 128.733 62.9794 128.681C62.4502 128.624 62.9735 127.048 63.6451 125.484C64.2711 124.038 65.0164 122.599 65.1755 122.36C65.1868 122.338 65.2153 122.309 65.255 122.269C65.312 122.201 65.4087 122.087 65.5511 121.945C68.2253 119.168 84.1728 104.103 89.2591 99.4258C90.7099 98.0943 93.0484 98.3677 94.078 100.04C94.0951 100.063 94.1065 100.086 94.1178 100.109C94.8693 101.366 94.6131 102.982 93.5492 103.995Z" fill="#4A9DF7"/>
<path d="M67.1739 123.076C73.2111 117.13 79.5876 111.543 85.7172 105.695C87.3252 104.161 88.9149 102.608 90.4678 101.018C90.7767 100.702 90.292 100.216 89.9823 100.532C84.1428 106.509 77.8506 112.025 71.7564 117.735C70.0494 119.335 68.3552 120.948 66.6884 122.59C66.3732 122.901 66.8588 123.386 67.1739 123.076Z" fill="white"/>
<path d="M69.5212 124.419C76.9655 117.089 84.9921 110.365 92.296 102.891C92.6049 102.574 92.1201 102.089 91.8104 102.405C84.5065 109.879 76.4799 116.603 69.0356 123.933C68.7209 124.244 69.206 124.729 69.5212 124.419Z" fill="white"/>
<path d="M69.8613 126.129L69.5372 126.431C69.5372 126.431 64.0241 128.769 63.0113 128.65C61.9985 128.536 64.8716 122.824 65.2074 122.329C65.2472 122.272 65.3611 122.141 65.5487 121.948C66.9995 122.266 68.9736 123.25 69.8613 126.129Z" fill="#F5F5FE"/>
<path d="M66.0975 127.817C64.7548 128.306 63.4292 128.733 62.9799 128.681C62.4506 128.625 62.974 127.049 63.6456 125.484C63.6515 125.484 63.6569 125.484 63.6628 125.489C64.2603 125.592 65.7282 126.076 66.0921 127.793C66.0975 127.8 66.0975 127.811 66.0975 127.817Z" fill="#4A9DF7"/>
<path d="M65.7543 122.279C67.3475 122.943 68.6399 124.31 69.228 125.93C69.2912 126.105 69.4613 126.222 69.6504 126.17C69.8185 126.124 69.9538 125.923 69.8903 125.748C69.2117 123.878 67.7706 122.381 65.9372 121.617C65.766 121.546 65.5597 121.694 65.5148 121.857C65.4602 122.055 65.5827 122.207 65.7543 122.279Z" fill="#421B36"/>
<path d="M89.0746 100.339C90.6678 101.003 91.9603 102.371 92.5484 103.991C92.6116 104.165 92.7816 104.282 92.9707 104.23C93.1388 104.184 93.2742 103.983 93.2106 103.808C92.5316 101.939 91.0909 100.442 89.2576 99.6776C89.0863 99.6062 88.88 99.7544 88.8352 99.9174C88.7806 100.115 88.9027 100.268 89.0746 100.339Z" fill="#421B36"/>
<path d="M72.2875 116.421C70.6722 117.636 68.283 116.602 68.2124 114.582C68.2117 114.561 68.2113 114.54 68.2109 114.519C68.189 113.101 70.2424 110.459 75.7457 107.761C79.4764 105.932 86.6048 110.424 86.6048 110.424L112.24 130.977L102.14 138.913L96.4406 130.688C94.2711 131.449 91.871 130.64 90.5746 128.742C90.2973 128.336 90.0715 128.063 89.9701 128.072C89.5836 128.104 85.5421 130.966 83.0496 126.7C83.0496 126.7 78.3337 126.118 78.6574 122.979C78.6574 122.979 75.3096 122.478 76.4219 119.469C77.5342 116.46 81.7852 113.774 81.7852 113.774C81.7852 113.774 78.1726 112.518 76.7597 113.023C75.7145 113.397 74.1014 115.056 72.2875 116.421Z" fill="#FFBFBF"/>
<path d="M83.8397 126.423C84.3904 124.257 85.8533 122.397 87.8259 121.347C88.2159 121.139 87.8696 120.547 87.4796 120.754C85.3584 121.884 83.7699 123.912 83.1779 126.241C83.0687 126.669 83.7305 126.852 83.8397 126.423Z" fill="#421B36"/>
<path d="M89.6627 128.104C90.5391 127.841 91.1837 127.051 91.2637 126.14C91.3425 125.242 90.7762 124.32 89.9544 123.962C89.7848 123.888 89.5863 123.912 89.4849 124.085C89.3999 124.23 89.4373 124.48 89.6081 124.555C90.213 124.818 90.6202 125.422 90.5808 126.09C90.5445 126.71 90.0648 127.267 89.4798 127.442C89.0582 127.568 89.238 128.231 89.6627 128.104Z" fill="#421B36"/>
<path d="M79.0945 123.264C80.0496 120.705 82.0441 118.611 84.5268 117.488C84.9285 117.306 84.5803 116.714 84.1805 116.895C81.5305 118.094 79.4482 120.361 78.4327 123.081C78.2779 123.496 78.9409 123.674 79.0945 123.264Z" fill="#421B36"/>
<path d="M69.8894 116.729C70.6569 116.19 71.1546 115.361 71.2489 114.425C71.3429 113.49 70.958 112.533 70.2853 111.888C69.9662 111.582 69.4803 112.067 69.7997 112.373C70.8944 113.423 70.8004 115.252 69.5431 116.137C69.1843 116.389 69.5267 116.984 69.8894 116.729Z" fill="#421B36"/>
<path d="M79.5531 115.967C80.8358 114.664 82.3763 113.622 84.0736 112.938C84.2468 112.868 84.3646 112.71 84.3135 112.516C84.2702 112.352 84.0631 112.207 83.8911 112.276C82.0807 113.006 80.4376 114.089 79.0676 115.482C78.7575 115.797 79.2427 116.282 79.5531 115.967Z" fill="#421B36"/>
<path d="M138.28 95.8934C140.266 96.5428 145.372 98.687 148.946 107.771C152.091 115.763 156.424 148.606 150.787 157.056C147.615 161.812 138.843 163.602 134.669 163.101C130.494 162.601 98.9551 151.497 99.0003 143.482C99.0455 135.466 108.149 125.017 108.149 125.017L132.412 138.023C132.412 138.023 130.797 123.776 129.127 115.927C127.457 108.079 128.693 92.7586 138.28 95.8934Z" fill="#4A9DF7"/>
<path d="M120.235 131.741C119.99 132.411 112.24 155.068 112.24 155.068C112.24 155.068 130.975 162.843 132.281 162.543C135.911 161.708 135.087 139.567 135.087 139.567L120.235 131.741Z" fill="#F5F5FE"/>
<path d="M128.658 112.46C132.012 107.177 136.269 102.706 141.847 99.7885C142.215 99.5958 141.892 99.0654 141.525 99.2374C135.78 101.928 131.551 106.939 128.32 112.263C128.189 112.479 128.523 112.672 128.658 112.46Z" fill="#421B36"/>
<path d="M107.809 125.777C117.695 130.854 127.608 135.951 137.609 140.796C137.952 140.962 138.254 140.459 137.911 140.28C128.048 135.154 118.036 130.249 108.056 125.355C107.776 125.217 107.528 125.632 107.809 125.777Z" fill="#421B36"/>
<path d="M132.347 138.044C134.955 137.668 137.538 137.134 140.157 136.777C140.541 136.725 140.437 136.117 140.067 136.115C137.496 136.101 134.514 136.552 132.157 137.592C131.877 137.716 132.097 138.08 132.347 138.044Z" fill="#421B36"/>
<path d="M142.647 137.022C143.071 137.022 143.072 136.363 142.647 136.363C142.223 136.363 142.222 137.022 142.647 137.022Z" fill="#421B36"/>
<path d="M129.021 119.434C130.07 125.689 131.136 131.945 132.327 138.175C132.418 138.655 133.14 138.449 133.056 137.974C131.958 131.734 130.736 125.515 129.497 119.302C129.435 118.988 128.969 119.124 129.021 119.434Z" fill="#421B36"/>
<path d="M138.627 67.1714C138.224 65.7689 136.617 64.9574 136.255 63.544C136.063 62.7983 136.256 62.0047 136.139 61.2438C135.931 59.8803 134.741 58.8316 133.438 58.3808C132.134 57.9299 130.72 57.9647 129.341 58.0048C129.362 54.7085 127.046 51.8194 124.372 49.892C123.003 48.9053 121.473 48.0754 119.804 47.8278C118.134 47.5805 116.306 47.9896 115.12 49.1889C113.67 47.7314 111.534 46.9885 109.493 47.2315C107.451 47.4744 105.549 48.6979 104.482 50.4544C102.387 49.2384 99.387 49.9853 98.1066 52.0413C96.8263 54.0978 97.4799 57.1195 99.4958 58.4627C98.0244 59.1686 97.4218 61.1049 97.907 62.6634C98.3921 64.2214 99.7427 65.3903 101.237 66.0466C102.731 66.703 104.376 66.9194 105.994 67.1293L125.939 89.4782C131.651 85.969 135.868 76.1328 137.929 72.6446C138.67 71.3912 139.03 68.5707 138.627 67.1714Z" fill="#421B36"/>
<path d="M128.263 58.8323C130.698 56.7922 133.234 55.843 136.232 54.9565C136.599 54.8477 136.551 54.2174 136.137 54.2588C133.085 54.563 130.116 56.4287 128.077 58.6467C127.962 58.773 128.135 58.94 128.263 58.8323Z" fill="#421B36"/>
<path d="M127.274 59.6794C128.805 57.2052 129.918 54.9268 130.515 52.0443C130.624 51.5182 129.795 51.3111 129.72 51.8255C129.342 54.4358 128.506 57.3316 127.136 59.599C127.082 59.6872 127.22 59.7667 127.274 59.6794Z" fill="#421B36"/>
<path d="M130.105 66.0773C128.645 62.6769 126.125 60.2433 123.133 58.8187C117.299 56.0411 109.703 57.1292 104.9 62.4265C104.7 62.6555 104.499 62.8774 104.32 63.1137C102.781 65.0395 101.55 67.5519 100.569 70.7659C100.211 71.9683 99.8821 73.2713 99.5884 74.6741C99.5311 74.9175 99.4811 75.1682 99.4308 75.4186C99.3236 75.9841 99.2233 76.5282 99.173 77.0578C97.5194 89.5136 110.06 93.969 112.881 94.419L117.08 102.647L128.384 95.8375C128.384 95.8375 125.852 89.7281 125.938 89.4777C125.945 89.4707 125.945 89.4633 125.952 89.4563C126.21 88.7621 126.768 87.2516 127.42 85.3043C127.42 85.2973 127.427 85.2899 127.427 85.2829C127.57 84.8391 127.728 84.3738 127.878 83.8871C127.95 83.6652 128.021 83.4503 128.085 83.2354C128.386 82.2619 128.687 81.2456 128.973 80.193C129.095 79.7851 129.202 79.3841 129.302 78.9688C129.317 78.9259 129.324 78.8686 129.345 78.8257C129.603 77.8089 129.846 76.7926 130.061 75.7907C130.075 75.7045 130.097 75.6187 130.104 75.5399C130.161 75.2965 130.204 75.0532 130.247 74.8243C130.483 73.6075 130.648 72.4336 130.74 71.331C130.885 69.6778 130.749 67.5878 130.105 66.0773Z" fill="#FFBFBF"/>
<path d="M112.56 94.1826C113.967 96.9349 115.22 99.785 116.801 102.446C117.019 102.814 117.526 102.492 117.361 102.119C116.109 99.2901 114.29 96.7414 112.867 94.0032C112.761 93.8004 112.456 93.9795 112.56 94.1826Z" fill="#421B36"/>
<path d="M107.732 68.7852C107.597 69.3468 107.899 69.901 108.405 70.0227C108.912 70.1443 109.432 69.7875 109.567 69.2255C109.702 68.6639 109.4 68.1097 108.894 67.988C108.387 67.8667 107.867 68.2236 107.732 68.7852Z" fill="#421B36"/>
<path d="M117.646 70.653C117.511 71.2146 117.812 71.7688 118.318 71.8905C118.825 72.0121 119.345 71.6553 119.48 71.0933C119.615 70.5313 119.314 69.9775 118.807 69.8558C118.301 69.7342 117.781 70.091 117.646 70.653Z" fill="#421B36"/>
<path d="M124.18 66.8801C123.4 66.1122 122.235 65.5342 121.21 65.191C120.172 64.8435 119.175 64.9281 118.12 64.7897C117.545 64.7144 117.402 63.9399 117.998 63.7515C120.494 62.9617 123.09 64.6805 124.607 66.4678C124.852 66.7576 124.454 67.1507 124.18 66.8801Z" fill="#421B36"/>
<path d="M108.085 62.1808C110.245 60.6929 113.143 61.7576 113.855 64.238C114.863 67.7539 112.209 72.3329 109.708 74.6202C109.267 75.0235 108.444 74.4451 108.851 73.935C110.361 72.0466 111.89 70.1555 112.582 67.7851C113.059 66.1537 113.274 64.4057 111.869 63.2381C110.91 62.4421 109.479 62.2896 108.253 62.5988C107.991 62.6648 107.88 62.3219 108.085 62.1808Z" fill="#421B36"/>
<path d="M109.254 94.5921C109.269 94.5925 109.277 94.6003 109.293 94.6007C110.212 94.7571 111.157 94.8363 112.094 94.8054C113.94 94.7434 115.753 94.2669 117.249 93.1827C117.455 93.0376 117.653 92.8851 117.843 92.7162C117.883 92.678 117.829 92.63 117.79 92.6448C115.121 93.7556 112.242 93.995 109.395 93.6725C109.317 93.6635 109.254 93.6702 109.191 93.7002C108.845 93.8503 108.81 94.5141 109.254 94.5921Z" fill="#421B36"/>
<path d="M110.399 78.0189C112.348 78.0212 113.874 77.8079 115.281 76.354C115.936 75.6766 116.905 76.7081 116.289 77.3972C114.851 79.0056 112.058 79.7189 110.348 78.1371C110.302 78.0946 110.341 78.0189 110.399 78.0189Z" fill="#421B36"/>
<path d="M129.152 75.783C130.822 75.1164 132.923 75.774 133.557 76.5329C134.191 77.2919 134.456 78.3074 134.462 79.2965C134.473 80.9403 133.746 82.631 132.383 83.5498C131.02 84.469 128.095 84.4359 126.896 83.3107L129.152 75.783Z" fill="#FFBFBF"/>
<path d="M131.763 80.399C131.532 80.1494 130.931 79.9033 130.612 79.8246C130.089 79.6951 129.711 79.8764 129.269 80.1338C128.792 80.4123 128.321 79.754 128.701 79.3702C129.205 78.862 130.036 78.6854 130.721 78.8702C131.049 78.9592 131.391 79.1448 131.619 79.4026C131.877 79.6959 131.843 79.9603 131.917 80.3121C131.935 80.3986 131.827 80.4692 131.763 80.399Z" fill="#421B36"/>
<path d="M122.967 57.5677C125.865 57.0365 130.077 59.4639 132.066 61.6377L131.083 70.6779C131.065 71.8822 130.888 73.1848 130.505 74.5931C130.505 74.5931 129.189 78.8625 127.573 78.4011C126.353 78.0524 127.127 69.8839 127.127 69.8839C126.126 68.7954 122.918 71.3799 123.139 58.5556C123.139 58.5556 123.268 58.6125 123.482 58.7217L122.967 57.5677Z" fill="#421B36"/>
<path d="M123.858 58.6068C123.852 58.592 123.851 58.5752 123.845 58.5608C123.855 58.5424 123.868 58.5257 123.878 58.5073L123.858 58.6068Z" fill="#421B36"/>
<path d="M123.504 60.3693L123.858 58.6069C124.096 59.2083 124.008 59.9672 123.504 60.3693Z" fill="#421B36"/>
<path d="M103.776 59.4039C102.457 58.7588 100.874 58.785 99.8136 59.8996C98.7485 61.0197 98.8912 62.6932 99.7964 63.8597C100.074 64.2173 99.6233 64.7134 99.2836 64.3725C97.9353 63.0192 97.8687 60.8879 99.1833 59.4761C100.44 58.1271 102.526 58.028 103.851 59.306C103.904 59.3575 103.837 59.4339 103.776 59.4039Z" fill="#421B36"/>
<path d="M101.81 62.1078C103.768 63.2439 106.185 63.5598 108.369 62.965C110.553 62.3703 112.476 60.8719 113.588 58.8997C117.062 60.5849 121.337 60.5088 124.748 58.7004C123.459 57.4239 121.736 56.6494 119.964 56.259C118.192 55.8686 116.361 55.8397 114.547 55.8885C112.274 55.9497 109.975 56.1365 107.822 56.8697C105.669 57.6033 103.654 58.9344 102.468 60.875C102.618 60.8941 102.767 60.9133 102.917 60.9324" fill="#421B36"/>
<path d="M115.818 49.9077C114.815 46.886 111.736 44.9372 108.54 45.2952C104.758 45.7187 102.235 49.3032 102.339 52.9427C102.356 53.5472 103.29 53.5511 103.281 52.9427C103.232 49.6878 105.378 46.6532 108.72 46.1844C111.645 45.7741 114.259 47.5147 115.729 49.9452C115.756 49.9916 115.836 49.9619 115.818 49.9077Z" fill="#421B36"/>
</svg>
