<svg width="229" height="64" viewBox="0 0 229 64" fill="none" xmlns="http://www.w3.org/2000/svg">
<path d="M97.855 26.3747C97.855 23.6822 95.9679 21.6227 93.3999 21.6227H87.8966V31.1295H93.3999C95.9665 31.1295 97.855 29.0672 97.855 26.3747ZM106.241 26.3747C106.241 33.4 100.632 39.0519 93.3999 39.0519H87.8966V50.6714H79.5105V13.7003H93.3999C100.632 13.7003 106.241 19.3494 106.241 26.3747ZM183.06 50.6714V13.7003H191.447V50.6714H183.06ZM155.32 31.6726H161.61C163.917 31.6726 165.803 29.4947 165.803 26.647C165.803 23.7993 163.917 21.6227 161.61 21.6227H155.32V31.6726ZM155.32 39.0682V50.6714H146.934V13.7003H161.61C163.263 13.6963 164.9 14.0215 166.428 14.6571C167.956 15.2927 169.344 16.2263 170.513 17.4041C171.682 18.582 172.608 19.9809 173.239 21.5206C173.87 23.0603 174.193 24.7104 174.189 26.3761C174.189 30.9172 171.583 35.3602 167.533 37.2796L175.237 50.6714H166.223L159.615 39.0682H155.32ZM119.573 37.0618C120.959 37.4198 122.412 37.609 123.909 37.609C125.408 37.609 126.862 37.4198 128.248 37.0618L123.91 23.3664L119.573 37.0618ZM117.319 44.1729L115.259 50.6714H106.087L118.564 13.7003H129.257L141.728 50.6714H132.556L130.501 44.1729C128.394 44.7174 126.185 45.0046 123.909 45.0046C121.634 45.0046 119.425 44.7174 117.319 44.1729ZM212.741 21.1993C210.485 21.1993 208.81 22.2461 208.81 23.9994C208.81 26.3516 211.091 27.3317 216.793 29.0318C224.126 31.218 227.206 34.3611 227.206 40.0551C227.206 47.2561 221.42 51.4105 213.58 51.4105C203.594 51.4105 199.45 43.8108 198.903 42.2726L206.039 38.5033C207.632 41.3524 210.271 43.1778 213.58 43.1778C216.542 43.1778 218.821 42.3502 218.821 40.1613C218.821 37.0168 213.779 36.3771 211.221 35.4596C208.661 34.5435 200.424 32.9413 200.424 24.2104C200.424 16.9373 206.535 12.9598 212.741 12.9598C221.57 12.9598 224.998 18.9887 226.157 21.3041L219.16 25.0176C217.894 23.1772 216.396 21.1993 212.741 21.1993ZM66.2992 37.6335C66.6275 37.6376 66.672 38.6462 65.6413 41.4395C61.1633 53.5627 50.651 62.1412 35.1689 62.1412C16.5083 62.1412 3.63061 48.8555 1.79751 32.6459C1.78933 32.5652 1.80062 32.4837 1.83041 32.4083C1.86021 32.333 1.90763 32.266 1.96865 32.213C2.02966 32.1601 2.10246 32.1228 2.18086 32.1043C2.25925 32.0859 2.34091 32.0867 2.4189 32.1069L23.5016 36.7392C23.5556 36.8807 26.9976 47.0532 36.8804 47.0532C46.8321 47.0532 53.2932 36.8086 53.2932 25.5321C53.2932 14.2638 46.3174 9.524 44.1871 7.86193C38.2756 10.8394 32.3647 13.8182 26.4546 16.7984C36.0334 22.7089 37.7639 33.2054 35.3567 40.4159C34.6785 42.4495 33.972 42.6306 34.0977 41.5457C34.9325 34.2903 31.9363 21.4961 14.2631 17.3729C14.1954 17.3569 14.1342 17.3201 14.0881 17.2675C14.0421 17.2149 14.0134 17.1492 14.0061 17.0794C13.9989 17.0097 14.0133 16.9394 14.0475 16.8783C14.0817 16.8172 14.1339 16.7683 14.197 16.7385L46.1 1.85889C53.2189 7.11734 58.1225 13.8201 58.1225 25.5335C58.1225 38.551 49.4055 51.1397 36.8818 51.1397C25.0429 51.1397 20.5581 40.7521 20.4987 40.6241L8.78005 38.4162C8.92324 38.9335 14.3347 57.9717 37.2965 57.8002C48.8314 57.7144 59.7179 51.4704 65.6238 38.4339C65.8885 37.8513 66.075 37.6308 66.3019 37.6335H66.2992Z" fill="#071F32"/>
</svg>
