<svg width="165" height="49" viewBox="0 0 165 49" fill="none" xmlns="http://www.w3.org/2000/svg">
<g clip-path="url(#clip0_2468_150986)">
<path d="M133.521 5.50724H127.773C127.749 5.5057 127.725 5.50931 127.702 5.51781C127.68 5.52632 127.659 5.53953 127.642 5.55657C127.625 5.57361 127.612 5.59409 127.604 5.61663C127.595 5.63918 127.591 5.66328 127.593 5.68733V9.10803C127.591 9.13207 127.595 9.15617 127.604 9.17872C127.612 9.20127 127.625 9.22174 127.642 9.23878C127.659 9.25582 127.68 9.26903 127.702 9.27754C127.725 9.28605 127.749 9.28965 127.773 9.28811H129.533C129.557 9.28738 129.581 9.29154 129.603 9.30034C129.625 9.30913 129.645 9.32237 129.662 9.33924C129.679 9.35611 129.692 9.37625 129.701 9.39843C129.709 9.4206 129.714 9.44435 129.713 9.46819V18.2241C129.714 18.2479 129.709 18.2716 129.701 18.2938C129.692 18.316 129.679 18.3361 129.662 18.353C129.645 18.3699 129.625 18.3831 129.603 18.3919C129.581 18.4007 129.557 18.4049 129.533 18.4041H127.737C127.713 18.4026 127.689 18.4062 127.666 18.4147C127.644 18.4232 127.623 18.4364 127.606 18.4535C127.589 18.4705 127.576 18.491 127.568 18.5135C127.559 18.5361 127.556 18.5602 127.557 18.5842V22.0058C127.557 22.0296 127.561 22.0534 127.569 22.0756C127.578 22.0977 127.591 22.1179 127.608 22.1348C127.625 22.1516 127.645 22.1649 127.667 22.1737C127.689 22.1824 127.713 22.1866 127.737 22.1859H135.677C135.7 22.1866 135.724 22.1824 135.746 22.1737C135.768 22.1649 135.788 22.1516 135.805 22.1348C135.822 22.1179 135.835 22.0977 135.844 22.0756C135.853 22.0534 135.857 22.0296 135.856 22.0058V18.5842C135.857 18.5604 135.853 18.5366 135.844 18.5145C135.835 18.4923 135.822 18.4721 135.805 18.4553C135.788 18.4384 135.768 18.4252 135.746 18.4164C135.724 18.4076 135.7 18.4034 135.677 18.4041H133.88C133.856 18.4049 133.833 18.4007 133.811 18.3919C133.789 18.3831 133.768 18.3699 133.752 18.353C133.735 18.3361 133.722 18.316 133.713 18.2938C133.704 18.2716 133.7 18.2479 133.701 18.2241V5.69082C133.701 5.66698 133.697 5.64324 133.688 5.62106C133.68 5.59888 133.666 5.57874 133.65 5.56187C133.633 5.545 133.613 5.53176 133.591 5.52297C133.568 5.51417 133.545 5.51001 133.521 5.51074M78.6003 5.50724H72.852C72.8282 5.50652 72.8045 5.51068 72.7824 5.51947C72.7603 5.52826 72.7402 5.5415 72.7233 5.55837C72.7065 5.57524 72.6933 5.59538 72.6845 5.61756C72.6758 5.63974 72.6716 5.66348 72.6723 5.68733V9.10803C72.6716 9.13187 72.6758 9.15561 72.6845 9.17779C72.6933 9.19997 72.7065 9.22011 72.7233 9.23698C72.7402 9.25385 72.7603 9.26709 72.7824 9.27588C72.8045 9.28467 72.8282 9.28884 72.852 9.28811H74.6126C74.6364 9.28738 74.66 9.29154 74.6822 9.30034C74.7043 9.30913 74.7244 9.32237 74.7412 9.33924C74.758 9.35611 74.7712 9.37625 74.78 9.39843C74.7888 9.4206 74.7929 9.44435 74.7922 9.46819V14.7632C74.7922 17.1042 73.6429 18.8325 71.3434 18.8325C68.9366 18.8325 68.2181 17.1759 68.2181 14.8348V5.69082C68.2193 5.66669 68.2155 5.64257 68.2069 5.61997C68.1984 5.59738 68.1853 5.57681 68.1684 5.55956C68.1515 5.54231 68.1312 5.52876 68.1089 5.51975C68.0865 5.51075 68.0625 5.50649 68.0384 5.50724H62.5447C62.5207 5.5057 62.4967 5.50931 62.4742 5.51781C62.4517 5.52632 62.4313 5.53953 62.4143 5.55657C62.3973 5.57361 62.3841 5.59409 62.3756 5.61663C62.3671 5.63918 62.3635 5.66328 62.3651 5.68733V9.10803C62.3635 9.13207 62.3671 9.15617 62.3756 9.17872C62.3841 9.20127 62.3973 9.22174 62.4143 9.23878C62.4313 9.25582 62.4517 9.26903 62.4742 9.27754C62.4967 9.28605 62.5207 9.28965 62.5447 9.28811H64.0533C64.0771 9.28738 64.1008 9.29154 64.1229 9.30034C64.145 9.30913 64.1651 9.32237 64.1819 9.33924C64.1988 9.35611 64.212 9.37625 64.2207 9.39843C64.2295 9.4206 64.2337 9.44435 64.2329 9.46819V15.5875C64.2329 19.6577 66.0642 22.5391 70.3048 22.5391C72.136 22.5391 73.826 21.8546 74.9038 20.6657C75.0111 20.5581 75.1192 20.594 75.1192 20.7382V21.9988C75.1185 22.0227 75.1227 22.0464 75.1314 22.0686C75.1402 22.0907 75.1534 22.1109 75.1702 22.1278C75.187 22.1446 75.2071 22.1579 75.2293 22.1667C75.2514 22.1755 75.2751 22.1796 75.2989 22.1789H80.2563C80.2801 22.1796 80.3038 22.1755 80.3259 22.1667C80.348 22.1579 80.3681 22.1446 80.3849 22.1278C80.4017 22.1109 80.415 22.0907 80.4237 22.0686C80.4325 22.0464 80.4366 22.0227 80.4359 21.9988V18.5842C80.4375 18.5602 80.4339 18.5361 80.4254 18.5135C80.4169 18.491 80.4037 18.4705 80.3867 18.4535C80.3697 18.4364 80.3493 18.4232 80.3268 18.4147C80.3043 18.4062 80.2803 18.4026 80.2563 18.4041H78.9596C78.9358 18.4049 78.9121 18.4007 78.89 18.3919C78.8679 18.3831 78.8478 18.3699 78.831 18.353C78.8141 18.3361 78.8009 18.316 78.7922 18.2938C78.7834 18.2716 78.7792 18.2479 78.78 18.2241V5.69082C78.782 5.66649 78.7788 5.64201 78.7706 5.61903C78.7623 5.59606 78.7492 5.57514 78.7322 5.55771C78.7151 5.54028 78.6945 5.52675 78.6717 5.51804C78.649 5.50933 78.6246 5.50565 78.6003 5.50724ZM144.694 18.6559C141.964 18.6559 139.985 16.7476 139.985 13.9021C139.985 11.0566 141.925 9.03984 144.763 9.03984C147.601 9.03984 149.577 10.9849 149.577 13.722C149.577 16.4591 147.422 18.6559 144.694 18.6559ZM149.29 7.34741C148.069 5.94259 146.308 5.15058 144.188 5.15058C139.087 5.15058 135.817 9.11152 135.817 13.9021C135.817 18.6926 139.015 22.546 144.009 22.546C146.276 22.546 148.068 21.8257 149.29 20.4567C149.398 20.3492 149.505 20.3851 149.505 20.5293V22.0058C149.504 22.0296 149.508 22.0534 149.517 22.0756C149.526 22.0977 149.539 22.1179 149.556 22.1348C149.573 22.1516 149.593 22.1649 149.615 22.1737C149.637 22.1824 149.661 22.1866 149.685 22.1859H155.253C155.277 22.1866 155.301 22.1824 155.323 22.1737C155.345 22.1649 155.365 22.1516 155.382 22.1348C155.399 22.1179 155.412 22.0977 155.421 22.0756C155.43 22.0534 155.434 22.0296 155.433 22.0058V18.5842C155.435 18.5602 155.431 18.5361 155.423 18.5135C155.414 18.491 155.401 18.4705 155.384 18.4535C155.367 18.4364 155.346 18.4232 155.324 18.4147C155.301 18.4062 155.277 18.4026 155.253 18.4041H153.745C153.721 18.4049 153.697 18.4007 153.675 18.3919C153.653 18.3831 153.633 18.3699 153.616 18.353C153.599 18.3361 153.586 18.316 153.577 18.2938C153.569 18.2716 153.564 18.2479 153.565 18.2241V9.47169C153.564 9.44784 153.569 9.4241 153.577 9.40192C153.586 9.37975 153.599 9.3596 153.616 9.34273C153.633 9.32586 153.653 9.31263 153.675 9.30383C153.697 9.29504 153.721 9.29088 153.745 9.2916H155.253C155.277 9.29315 155.301 9.28954 155.324 9.28104C155.346 9.27253 155.367 9.25932 155.384 9.24228C155.401 9.22524 155.414 9.20476 155.423 9.18222C155.431 9.15967 155.435 9.13557 155.433 9.11152V5.69082C155.435 5.66678 155.431 5.64268 155.423 5.62013C155.414 5.59758 155.401 5.57711 155.384 5.56007C155.367 5.54303 155.346 5.52981 155.324 5.52131C155.301 5.5128 155.277 5.5092 155.253 5.51074H149.685C149.661 5.51001 149.637 5.51417 149.615 5.52297C149.593 5.53176 149.573 5.545 149.556 5.56187C149.539 5.57874 149.526 5.59888 149.517 5.62106C149.508 5.64324 149.504 5.66698 149.505 5.69082V7.27485C149.505 7.41909 149.398 7.45494 149.29 7.34741ZM104.022 18.7993C101.221 18.7993 99.139 16.71 99.139 13.757C99.139 10.9115 101.223 8.89472 104.022 8.89472C106.821 8.89472 108.906 10.9115 108.906 13.757C108.906 16.71 106.822 18.7993 104.022 18.7993ZM118.609 18.7993C115.914 18.7993 113.938 16.71 113.938 13.757C113.938 10.9115 115.878 8.89472 118.573 8.89472C120.441 8.89472 121.878 9.90354 122.525 11.4517C122.545 11.4924 122.576 11.5272 122.613 11.5524C122.651 11.5777 122.695 11.5927 122.74 11.596H126.082C126.106 11.5967 126.129 11.5925 126.151 11.5837C126.173 11.5749 126.194 11.5617 126.21 11.5448C126.227 11.528 126.24 11.5078 126.249 11.4856C126.258 11.4635 126.262 11.4397 126.261 11.4159V5.69082C126.262 5.66698 126.258 5.64324 126.249 5.62106C126.24 5.59888 126.227 5.57874 126.21 5.56187C126.194 5.545 126.173 5.53176 126.151 5.52297C126.129 5.51417 126.106 5.51001 126.082 5.51074H122.991C122.968 5.51001 122.944 5.51417 122.922 5.52297C122.9 5.53176 122.88 5.545 122.863 5.56187C122.846 5.57874 122.833 5.59888 122.824 5.62106C122.815 5.64324 122.811 5.66698 122.812 5.69082V6.55627C122.812 6.70051 122.704 6.73635 122.596 6.62883C121.591 5.72841 120.01 5.15232 118.178 5.15232C115.375 5.15232 112.968 6.62883 111.496 8.93319C111.484 8.95736 111.467 8.97784 111.444 8.9922C111.422 9.00656 111.396 9.01419 111.369 9.01419C111.343 9.01419 111.317 9.00656 111.295 8.9922C111.272 8.97784 111.255 8.95736 111.243 8.93319C109.699 6.62883 107.076 5.15232 104.022 5.15232C98.9567 5.15232 95.0405 8.93319 95.0405 13.7596C95.0405 18.6935 98.9567 22.5478 104.022 22.5478C107.112 22.5478 109.735 21.0346 111.279 18.6577C111.352 18.5501 111.423 18.5501 111.496 18.6577C113.004 21.0346 115.555 22.5478 118.609 22.5478C122.956 22.5478 125.686 20.1001 126.656 16.5692C126.656 16.425 126.584 16.3524 126.477 16.3524H122.489C122.444 16.3555 122.4 16.3704 122.362 16.3957C122.324 16.421 122.293 16.4558 122.273 16.4967C121.662 17.9373 120.405 18.8019 118.61 18.8019M89.1997 12.103L87.6554 11.7428C86.1102 11.3827 85.5355 10.9141 85.5355 10.0819C85.5355 9.24964 86.2183 8.64121 87.3319 8.64121C88.5178 8.64121 89.416 9.3257 89.6314 10.5496C89.6419 10.5995 89.6689 10.6443 89.708 10.677C89.747 10.7097 89.7959 10.7282 89.8468 10.7296H93.4805C93.5044 10.7312 93.5285 10.7276 93.551 10.7191C93.5735 10.7106 93.5939 10.6974 93.6109 10.6803C93.6279 10.6633 93.6411 10.6428 93.6496 10.6203C93.658 10.5977 93.6616 10.5736 93.6601 10.5496V5.69082C93.6622 5.66649 93.659 5.64201 93.6507 5.61903C93.6425 5.59606 93.6294 5.57514 93.6123 5.55771C93.5952 5.54028 93.5746 5.52675 93.5519 5.51804C93.5291 5.50933 93.5048 5.50565 93.4805 5.50724H90.7144C90.6904 5.5057 90.6664 5.50931 90.6439 5.51781C90.6214 5.52632 90.601 5.53953 90.584 5.55657C90.567 5.57361 90.5538 5.59409 90.5453 5.61663C90.5368 5.63918 90.5332 5.66328 90.5348 5.68733V6.40766C90.5348 6.55103 90.4267 6.5825 90.3194 6.47934C89.382 5.50724 88.1611 5.15058 86.7223 5.15058C83.7043 5.15058 81.2966 7.09477 81.2966 10.2646C81.2966 13.4702 83.2369 14.7666 85.9314 15.3427L87.9798 15.7746C89.7037 16.1348 90.4214 16.5308 90.4214 17.5396C90.4214 18.5484 89.7386 19.1245 88.5536 19.1245C87.2603 19.1245 86.0387 18.4041 85.6079 16.9276C85.5712 16.8192 85.5355 16.7834 85.4282 16.7834H81.8721C81.8482 16.7819 81.8241 16.7855 81.8016 16.794C81.7791 16.8025 81.7587 16.8157 81.7417 16.8327C81.7247 16.8498 81.7115 16.8702 81.703 16.8928C81.6946 16.9153 81.691 16.9394 81.6925 16.9635V22.0058C81.6918 22.0296 81.6959 22.0534 81.7047 22.0756C81.7135 22.0977 81.7267 22.1179 81.7435 22.1348C81.7603 22.1516 81.7804 22.1649 81.8026 22.1737C81.8247 22.1824 81.8484 22.1866 81.8721 22.1859H84.6382C84.662 22.1866 84.6857 22.1824 84.7078 22.1737C84.7299 22.1649 84.75 22.1516 84.7668 22.1348C84.7836 22.1179 84.7969 22.0977 84.8056 22.0756C84.8144 22.0534 84.8185 22.0296 84.8178 22.0058V21.1412C84.8178 20.997 84.926 20.9611 85.0332 21.0695C86.0038 22.0416 87.3327 22.546 89.2006 22.546C92.0783 22.546 94.5199 20.8851 94.5199 17.3953C94.5199 14.0822 92.5082 12.8574 89.2006 12.1012M61.4634 11.7411C61.4634 7.6324 59.4517 5.15058 55.4639 5.15058C53.3083 5.15058 51.3323 6.26691 50.2545 7.88766C50.183 7.99518 50.0748 7.99518 50.0033 7.85094C49.0685 6.05099 47.5957 5.15058 45.4043 5.15058C43.3568 5.15058 41.7034 5.90675 40.521 7.42346C40.4129 7.56771 40.3056 7.49515 40.3056 7.35178V5.69082C40.3068 5.66646 40.303 5.64211 40.2943 5.61933C40.2856 5.59655 40.2722 5.57585 40.255 5.55856C40.2379 5.54127 40.2173 5.52777 40.1946 5.51893C40.1719 5.5101 40.1477 5.50611 40.1233 5.50724H34.8808C34.8568 5.5057 34.8327 5.50931 34.8102 5.51781C34.7878 5.52632 34.7673 5.53953 34.7503 5.55657C34.7333 5.57361 34.7202 5.59409 34.7117 5.61663C34.7032 5.63918 34.6996 5.66328 34.7011 5.68733V9.10803C34.6996 9.13207 34.7032 9.15617 34.7117 9.17872C34.7202 9.20127 34.7333 9.22174 34.7503 9.23878C34.7673 9.25582 34.7878 9.26903 34.8102 9.27754C34.8327 9.28605 34.8568 9.28965 34.8808 9.28811H36.4609C36.4847 9.28738 36.5083 9.29154 36.5305 9.30034C36.5526 9.30913 36.5727 9.32237 36.5895 9.33924C36.6063 9.35611 36.6195 9.37625 36.6283 9.39843C36.6371 9.4206 36.6412 9.44435 36.6405 9.46819V18.2241C36.6412 18.2479 36.6371 18.2716 36.6283 18.2938C36.6195 18.316 36.6063 18.3361 36.5895 18.353C36.5727 18.3699 36.5526 18.3831 36.5305 18.3919C36.5083 18.4007 36.4847 18.4049 36.4609 18.4041H34.8808C34.8568 18.4026 34.8327 18.4062 34.8102 18.4147C34.7878 18.4232 34.7673 18.4364 34.7503 18.4535C34.7333 18.4705 34.7202 18.491 34.7117 18.5135C34.7032 18.5361 34.6996 18.5602 34.7011 18.5842V22.0058C34.7004 22.0296 34.7046 22.0534 34.7133 22.0756C34.7221 22.0977 34.7353 22.1179 34.7521 22.1348C34.769 22.1516 34.7891 22.1649 34.8112 22.1737C34.8333 22.1824 34.857 22.1866 34.8808 22.1859H43.0001C43.0239 22.1866 43.0476 22.1824 43.0697 22.1737C43.0919 22.1649 43.1119 22.1516 43.1288 22.1348C43.1456 22.1179 43.1588 22.0977 43.1676 22.0756C43.1763 22.0534 43.1805 22.0296 43.1798 22.0058V18.5842C43.1805 18.5604 43.1763 18.5366 43.1676 18.5145C43.1588 18.4923 43.1456 18.4721 43.1288 18.4553C43.1119 18.4384 43.0919 18.4252 43.0697 18.4164C43.0476 18.4076 43.0239 18.4034 43.0001 18.4041H40.8105C40.7867 18.4049 40.763 18.4007 40.7409 18.3919C40.7188 18.3831 40.6987 18.3699 40.6819 18.353C40.665 18.3361 40.6518 18.316 40.6431 18.2938C40.6343 18.2716 40.6301 18.2479 40.6309 18.2241V12.8915C40.6309 10.5872 42.1037 9.10977 44.187 9.10977C46.4542 9.10977 47.0646 10.7707 47.0646 12.9999V18.2223C47.0653 18.2462 47.0612 18.2699 47.0524 18.2921C47.0437 18.3143 47.0304 18.3344 47.0136 18.3513C46.9968 18.3681 46.9767 18.3814 46.9546 18.3902C46.9325 18.399 46.9088 18.4031 46.885 18.4024H44.6858C44.662 18.4017 44.6383 18.4058 44.6162 18.4146C44.594 18.4234 44.5739 18.4367 44.5571 18.4535C44.5403 18.4704 44.5271 18.4905 44.5183 18.5127C44.5095 18.5349 44.5054 18.5586 44.5061 18.5825V22.0041C44.5054 22.0279 44.5095 22.0516 44.5183 22.0738C44.5271 22.096 44.5403 22.1161 44.5571 22.133C44.5739 22.1499 44.594 22.1631 44.6162 22.1719C44.6383 22.1807 44.662 22.1849 44.6858 22.1841H53.4164C53.4402 22.1849 53.4639 22.1807 53.486 22.1719C53.5081 22.1631 53.5282 22.1499 53.545 22.133C53.5619 22.1161 53.5751 22.096 53.5838 22.0738C53.5926 22.0516 53.5968 22.0279 53.596 22.0041V18.5842C53.5968 18.5604 53.5926 18.5366 53.5838 18.5145C53.5751 18.4923 53.5619 18.4721 53.545 18.4553C53.5282 18.4384 53.5081 18.4252 53.486 18.4164C53.4639 18.4076 53.4402 18.4034 53.4164 18.4041H51.2242C51.2004 18.4049 51.1767 18.4007 51.1546 18.3919C51.1324 18.3831 51.1123 18.3699 51.0955 18.353C51.0787 18.3361 51.0655 18.316 51.0567 18.2938C51.0479 18.2716 51.0438 18.2479 51.0445 18.2241V12.8915C51.0445 10.5872 52.5182 9.10977 54.6015 9.10977C56.8687 9.10977 57.4791 10.7707 57.4791 12.9999V18.2223C57.4799 18.2462 57.4757 18.2699 57.4669 18.2921C57.4582 18.3143 57.445 18.3344 57.4281 18.3513C57.4113 18.3681 57.3912 18.3814 57.3691 18.3902C57.347 18.399 57.3233 18.4031 57.2995 18.4024H55.1046C55.0807 18.4009 55.0566 18.4045 55.0341 18.413C55.0116 18.4215 54.9912 18.4347 54.9742 18.4517C54.9572 18.4688 54.944 18.4892 54.9355 18.5118C54.9271 18.5343 54.9235 18.5584 54.925 18.5825V22.0041C54.9243 22.0279 54.9284 22.0516 54.9372 22.0738C54.946 22.096 54.9592 22.1161 54.976 22.133C54.9928 22.1499 55.0129 22.1631 55.035 22.1719C55.0572 22.1807 55.0809 22.1849 55.1046 22.1841H63.1883C63.212 22.1849 63.2357 22.1807 63.2578 22.1719C63.28 22.1631 63.3001 22.1499 63.3169 22.133C63.3337 22.1161 63.3469 22.096 63.3557 22.0738C63.3645 22.0516 63.3686 22.0279 63.3679 22.0041V18.5842C63.3686 18.5604 63.3645 18.5366 63.3557 18.5145C63.3469 18.4923 63.3337 18.4721 63.3169 18.4553C63.3001 18.4384 63.28 18.4252 63.2578 18.4164C63.2357 18.4076 63.212 18.4034 63.1883 18.4041H61.643C61.6193 18.4049 61.5956 18.4007 61.5734 18.3919C61.5513 18.3831 61.5312 18.3699 61.5144 18.353C61.4976 18.3361 61.4844 18.316 61.4756 18.2938C61.4668 18.2716 61.4627 18.2479 61.4634 18.2241V11.7411ZM22.6629 18.6559C19.9326 18.6559 17.954 16.7476 17.954 13.9021C17.954 11.0566 19.8942 9.03984 22.7318 9.03984C25.5693 9.03984 27.5462 10.9849 27.5462 13.722C27.5462 16.4591 25.3906 18.6559 22.6629 18.6559ZM27.2611 7.34741C26.0402 5.94259 24.2796 5.15058 22.1598 5.15058C17.0584 5.15058 13.7884 9.11152 13.7884 13.9021C13.7884 18.6926 16.9861 22.546 21.9792 22.546C24.2465 22.546 26.0394 21.8257 27.2602 20.4567C27.3683 20.3492 27.4765 20.3851 27.4765 20.5293V22.0058C27.4757 22.0296 27.4799 22.0534 27.4886 22.0756C27.4974 22.0977 27.5106 22.1179 27.5275 22.1348C27.5443 22.1516 27.5644 22.1649 27.5865 22.1737C27.6086 22.1824 27.6323 22.1866 27.6561 22.1859H33.2239C33.2477 22.1866 33.2714 22.1824 33.2935 22.1737C33.3156 22.1649 33.3357 22.1516 33.3526 22.1348C33.3694 22.1179 33.3826 22.0977 33.3914 22.0756C33.4001 22.0534 33.4043 22.0296 33.4036 22.0058V18.5842C33.4043 18.5604 33.4001 18.5366 33.3914 18.5145C33.3826 18.4923 33.3694 18.4721 33.3526 18.4553C33.3357 18.4384 33.3156 18.4252 33.2935 18.4164C33.2714 18.4076 33.2477 18.4034 33.2239 18.4041H31.7162C31.6924 18.4049 31.6687 18.4007 31.6466 18.3919C31.6245 18.3831 31.6044 18.3699 31.5876 18.353C31.5707 18.3361 31.5575 18.316 31.5488 18.2938C31.54 18.2716 31.5359 18.2479 31.5366 18.2241V9.47169C31.5359 9.44784 31.54 9.4241 31.5488 9.40192C31.5575 9.37975 31.5707 9.3596 31.5876 9.34273C31.6044 9.32586 31.6245 9.31263 31.6466 9.30383C31.6687 9.29504 31.6924 9.29088 31.7162 9.2916H33.2239C33.2477 9.29233 33.2714 9.28817 33.2935 9.27938C33.3156 9.27059 33.3357 9.25735 33.3526 9.24048C33.3694 9.22361 33.3826 9.20347 33.3914 9.18129C33.4001 9.15911 33.4043 9.13537 33.4036 9.11152V5.69082C33.4048 5.66669 33.401 5.64257 33.3924 5.61997C33.3839 5.59738 33.3708 5.57681 33.3539 5.55956C33.337 5.54231 33.3167 5.52876 33.2944 5.51975C33.272 5.51075 33.248 5.50649 33.2239 5.50724H27.657C27.633 5.5057 27.6089 5.50931 27.5864 5.51781C27.5639 5.52632 27.5435 5.53953 27.5265 5.55657C27.5095 5.57361 27.4964 5.59409 27.4879 5.61663C27.4794 5.63918 27.4758 5.66328 27.4773 5.68733V7.27485C27.4773 7.41909 27.3692 7.45494 27.2611 7.34741ZM7.90224 12.1012L6.35702 11.7411C4.81267 11.3809 4.23801 10.9124 4.23801 10.0801C4.23801 9.2479 4.91993 8.63946 6.03437 8.63946C7.21945 8.63946 8.11763 9.32395 8.33302 10.5478C8.3437 10.5976 8.37072 10.6424 8.40975 10.6751C8.44879 10.7077 8.4976 10.7263 8.5484 10.7279H12.1777C12.2015 10.7286 12.2252 10.7245 12.2473 10.7157C12.2695 10.7069 12.2896 10.6936 12.3064 10.6768C12.3232 10.6599 12.3364 10.6398 12.3452 10.6176C12.354 10.5954 12.3581 10.5717 12.3574 10.5478V5.69082C12.3586 5.66684 12.3549 5.64287 12.3464 5.6204C12.338 5.59793 12.325 5.57744 12.3083 5.56022C12.2916 5.54299 12.2716 5.5294 12.2494 5.52029C12.2272 5.51117 12.2034 5.50673 12.1795 5.50724H9.41258C9.38879 5.50652 9.36511 5.51068 9.34298 5.51947C9.32086 5.52826 9.30077 5.5415 9.28394 5.55837C9.26711 5.57524 9.25391 5.59538 9.24514 5.61756C9.23637 5.63974 9.23221 5.66348 9.23294 5.68733V6.40766C9.23294 6.55103 9.12568 6.5825 9.01755 6.47934C8.08362 5.50724 6.86192 5.15058 5.42483 5.15058C2.40677 5.15058 0 7.09477 0 10.2646C0 13.4702 1.94024 14.7666 4.63478 15.3427L6.68228 15.7746C8.40714 16.1348 9.12394 16.5308 9.12394 17.5396C9.12394 18.5484 8.44115 19.1245 7.2552 19.1245C5.962 19.1245 4.7403 18.4041 4.30952 16.9276C4.27289 16.8192 4.23976 16.7843 4.13163 16.7843H0.574661C0.550874 16.7835 0.527191 16.7877 0.505068 16.7965C0.482946 16.8053 0.462853 16.8185 0.446025 16.8354C0.429198 16.8523 0.415992 16.8724 0.407221 16.8946C0.39845 16.9168 0.3943 16.9405 0.395025 16.9644V22.0067C0.3943 22.0305 0.39845 22.0543 0.407221 22.0764C0.415992 22.0986 0.429198 22.1188 0.446025 22.1356C0.462853 22.1525 0.482946 22.1657 0.505068 22.1745C0.527191 22.1833 0.550874 22.1875 0.574661 22.1868H3.34158C3.36536 22.1875 3.38905 22.1833 3.41117 22.1745C3.43329 22.1657 3.45339 22.1525 3.47021 22.1356C3.48704 22.1188 3.50025 22.0986 3.50902 22.0764C3.51779 22.0543 3.52194 22.0305 3.52121 22.0067V21.1421C3.52121 20.9979 3.62847 20.962 3.7366 21.0704C4.7089 22.0416 6.03612 22.546 7.90398 22.546C10.7816 22.546 13.2233 20.8851 13.2233 17.3953C13.2233 14.0822 11.2116 12.8574 7.90398 12.1012M162.7 -0.000141678H156.952C156.928 -0.000868455 156.905 0.0032926 156.883 0.0120854C156.86 0.0208782 156.84 0.0341166 156.823 0.0509859C156.807 0.0678552 156.793 0.0879985 156.785 0.110176C156.776 0.132353 156.772 0.156095 156.772 0.179941V3.56567C156.772 3.58952 156.776 3.61326 156.785 3.63544C156.793 3.65761 156.807 3.67776 156.823 3.69463C156.84 3.7115 156.86 3.72474 156.883 3.73353C156.905 3.74232 156.928 3.74648 156.952 3.74575H158.713C158.737 3.74421 158.761 3.74782 158.783 3.75632C158.806 3.76483 158.826 3.77804 158.843 3.79508C158.86 3.81212 158.873 3.8326 158.882 3.85514C158.89 3.87769 158.894 3.90179 158.892 3.92584V18.2241C158.893 18.2479 158.889 18.2716 158.88 18.2938C158.871 18.316 158.858 18.3361 158.841 18.353C158.825 18.3699 158.804 18.3831 158.782 18.3919C158.76 18.4007 158.737 18.4049 158.713 18.4041H156.952C156.928 18.4034 156.905 18.4076 156.883 18.4164C156.86 18.4252 156.84 18.4384 156.823 18.4553C156.807 18.4721 156.793 18.4923 156.785 18.5145C156.776 18.5366 156.772 18.5604 156.772 18.5842V22.0058C156.772 22.0296 156.776 22.0534 156.785 22.0756C156.793 22.0977 156.807 22.1179 156.823 22.1348C156.84 22.1516 156.86 22.1649 156.883 22.1737C156.905 22.1824 156.928 22.1866 156.952 22.1859H164.82C164.844 22.1866 164.868 22.1824 164.89 22.1737C164.912 22.1649 164.932 22.1516 164.949 22.1348C164.966 22.1179 164.979 22.0977 164.988 22.0756C164.997 22.0534 165.001 22.0296 165 22.0058V18.5842C165.001 18.5604 164.997 18.5366 164.988 18.5145C164.979 18.4923 164.966 18.4721 164.949 18.4553C164.932 18.4384 164.912 18.4252 164.89 18.4164C164.868 18.4076 164.844 18.4034 164.82 18.4041H163.06C163.036 18.4049 163.012 18.4007 162.99 18.3919C162.968 18.3831 162.948 18.3699 162.931 18.353C162.914 18.3361 162.901 18.316 162.892 18.2938C162.884 18.2716 162.879 18.2479 162.88 18.2241V0.179941C162.882 0.155893 162.878 0.131792 162.87 0.109246C162.861 0.086699 162.848 0.0662238 162.831 0.0491842C162.814 0.0321447 162.793 0.018932 162.771 0.0104267C162.749 0.0019213 162.724 -0.0016815 162.7 -0.000141678ZM133.521 -0.000141678H129.893C129.869 -0.0016815 129.844 0.0019213 129.822 0.0104267C129.799 0.018932 129.779 0.0321447 129.762 0.0491842C129.745 0.0662238 129.732 0.086699 129.723 0.109246C129.715 0.131792 129.711 0.155893 129.713 0.179941V4.03336C129.711 4.05741 129.715 4.08151 129.723 4.10406C129.732 4.1266 129.745 4.14708 129.762 4.16412C129.779 4.18116 129.799 4.19437 129.822 4.20288C129.844 4.21138 129.869 4.21499 129.893 4.21345H133.521C133.545 4.21417 133.568 4.21001 133.591 4.20122C133.613 4.19243 133.633 4.17919 133.65 4.16232C133.666 4.14545 133.68 4.12531 133.688 4.10313C133.697 4.08095 133.701 4.05721 133.701 4.03336V0.179941C133.701 0.156095 133.697 0.132353 133.688 0.110176C133.68 0.0879985 133.666 0.0678552 133.65 0.0509859C133.633 0.0341166 133.613 0.0208782 133.591 0.0120854C133.568 0.0032926 133.545 -0.000868455 133.521 -0.000141678ZM149.3 32.288H144.953C144.929 32.2873 144.906 32.2914 144.884 32.3002C144.861 32.309 144.841 32.3223 144.824 32.3391C144.808 32.356 144.794 32.3761 144.786 32.3983C144.777 32.4205 144.773 32.4442 144.773 32.4681V33.9455C144.773 33.9693 144.777 33.993 144.786 34.0152C144.794 34.0374 144.808 34.0575 144.824 34.0744C144.841 34.0913 144.861 34.1045 144.884 34.1133C144.906 34.1221 144.929 34.1263 144.953 34.1255H147.252C147.276 34.124 147.3 34.1276 147.322 34.1361C147.345 34.1446 147.365 34.1578 147.382 34.1749C147.399 34.1919 147.412 34.2124 147.421 34.2349C147.429 34.2575 147.433 34.2816 147.431 34.3056V46.6229C147.432 46.6468 147.428 46.6705 147.419 46.6927C147.41 46.7149 147.397 46.735 147.38 46.7519C147.364 46.7688 147.344 46.782 147.321 46.7908C147.299 46.7996 147.276 46.8038 147.252 46.803H144.701C144.677 46.8023 144.654 46.8065 144.632 46.8152C144.609 46.824 144.589 46.8373 144.572 46.8541C144.556 46.871 144.542 46.8912 144.534 46.9133C144.525 46.9355 144.521 46.9593 144.521 46.9831V48.4596C144.521 48.4835 144.525 48.5072 144.534 48.5294C144.542 48.5516 144.556 48.5717 144.572 48.5886C144.589 48.6054 144.609 48.6187 144.632 48.6275C144.654 48.6363 144.677 48.6404 144.701 48.6397H151.922C151.946 48.6404 151.97 48.6363 151.992 48.6275C152.014 48.6187 152.034 48.6054 152.051 48.5886C152.068 48.5717 152.081 48.5516 152.09 48.5294C152.099 48.5072 152.103 48.4835 152.102 48.4596V46.9831C152.103 46.9591 152.1 46.935 152.091 46.9124C152.083 46.8899 152.07 46.8694 152.053 46.8523C152.036 46.8353 152.015 46.8221 151.993 46.8136C151.97 46.8051 151.946 46.8015 151.922 46.803H149.655C149.631 46.8038 149.608 46.7996 149.585 46.7908C149.563 46.782 149.543 46.7688 149.526 46.7519C149.51 46.735 149.496 46.7149 149.488 46.6927C149.479 46.6705 149.475 46.6468 149.475 46.6229V32.4681C149.476 32.4442 149.472 32.4205 149.463 32.3983C149.454 32.3761 149.441 32.356 149.424 32.3391C149.408 32.3223 149.388 32.309 149.365 32.3002C149.343 32.2914 149.32 32.2873 149.296 32.288M138.41 35.0976V32.4681C138.41 32.4442 138.406 32.4205 138.397 32.3983C138.389 32.3761 138.375 32.356 138.359 32.3391C138.342 32.3223 138.322 32.309 138.299 32.3002C138.277 32.2914 138.254 32.2873 138.23 32.288H133.919C133.895 32.2873 133.871 32.2914 133.849 32.3002C133.827 32.309 133.807 32.3223 133.79 32.3391C133.773 32.356 133.76 32.3761 133.751 32.3983C133.742 32.4205 133.738 32.4442 133.739 32.4681V33.9455C133.738 33.9693 133.742 33.993 133.751 34.0152C133.76 34.0374 133.773 34.0575 133.79 34.0744C133.807 34.0913 133.827 34.1045 133.849 34.1133C133.871 34.1221 133.895 34.1263 133.919 34.1255H136.255C136.279 34.1248 136.302 34.129 136.324 34.1378C136.346 34.1466 136.367 34.1598 136.383 34.1767C136.4 34.1935 136.413 34.2137 136.422 34.2359C136.431 34.258 136.435 34.2818 136.434 34.3056V46.6229C136.435 46.6468 136.431 46.6705 136.422 46.6927C136.413 46.7149 136.4 46.735 136.383 46.7519C136.367 46.7688 136.346 46.782 136.324 46.7908C136.302 46.7996 136.279 46.8038 136.255 46.803H133.919C133.895 46.8023 133.871 46.8065 133.849 46.8152C133.827 46.824 133.807 46.8373 133.79 46.8541C133.773 46.871 133.76 46.8912 133.751 46.9133C133.742 46.9355 133.738 46.9593 133.739 46.9831V48.4596C133.738 48.4835 133.742 48.5072 133.751 48.5294C133.76 48.5516 133.773 48.5717 133.79 48.5886C133.807 48.6054 133.827 48.6187 133.849 48.6275C133.871 48.6363 133.895 48.6404 133.919 48.6397H141.104C141.128 48.6404 141.152 48.6363 141.174 48.6275C141.196 48.6187 141.216 48.6054 141.233 48.5886C141.25 48.5717 141.263 48.5516 141.271 48.5294C141.28 48.5072 141.284 48.4835 141.284 48.4596V46.9831C141.285 46.9591 141.282 46.935 141.273 46.9124C141.265 46.8899 141.251 46.8694 141.234 46.8523C141.217 46.8353 141.197 46.8221 141.175 46.8136C141.152 46.8051 141.128 46.8015 141.104 46.803H138.589C138.565 46.8038 138.542 46.7996 138.52 46.7908C138.497 46.782 138.477 46.7688 138.461 46.7519C138.444 46.735 138.43 46.7149 138.422 46.6927C138.413 46.6705 138.409 46.6468 138.41 46.6229V39.9599C138.41 36.5383 139.955 34.3773 143.332 34.0154C143.356 34.0161 143.38 34.012 143.402 34.0032C143.424 33.9944 143.444 33.9811 143.461 33.9643C143.478 33.9474 143.491 33.9273 143.499 33.9051C143.508 33.8829 143.512 33.8592 143.512 33.8353V32.288C143.512 32.2642 143.508 32.2404 143.499 32.2182C143.491 32.1961 143.478 32.1759 143.461 32.159C143.444 32.1422 143.424 32.1289 143.402 32.1201C143.38 32.1114 143.356 32.1072 143.332 32.1079C141.32 32.2522 139.452 33.1526 138.553 35.1335C138.518 35.2419 138.41 35.206 138.41 35.0976ZM160.253 39.6714L158.564 39.3112C156.265 38.8068 155.187 37.979 155.187 36.3224C155.187 34.6291 156.553 33.7287 158.313 33.7287C160.145 33.7287 161.906 34.7733 162.481 37.2945C162.493 37.3406 162.522 37.3807 162.561 37.4073C162.601 37.4338 162.649 37.445 162.696 37.4387H164.097C164.121 37.4394 164.145 37.4353 164.167 37.4265C164.189 37.4177 164.209 37.4045 164.226 37.3876C164.243 37.3707 164.256 37.3506 164.265 37.3284C164.274 37.3062 164.278 37.2825 164.277 37.2586V32.4681C164.278 32.4442 164.274 32.4205 164.265 32.3983C164.256 32.3761 164.243 32.356 164.226 32.3391C164.209 32.3223 164.189 32.309 164.167 32.3002C164.145 32.2914 164.121 32.2873 164.097 32.288H162.806C162.782 32.2873 162.759 32.2914 162.736 32.3002C162.714 32.309 162.694 32.3223 162.677 32.3391C162.661 32.356 162.647 32.3761 162.639 32.3983C162.63 32.4205 162.626 32.4442 162.626 32.4681V33.7654C162.626 33.8729 162.518 33.9087 162.447 33.8012C161.512 32.4681 159.895 31.9278 158.348 31.9278C155.366 31.9278 153.175 33.6211 153.175 36.5383C153.175 39.3112 155.079 40.647 158.025 41.1846L159.821 41.5081C161.617 41.8324 162.983 42.5527 162.983 44.3535C162.983 46.1544 161.905 47.2384 159.821 47.2384C157.558 47.2384 155.977 45.9778 155.223 43.6726C155.186 43.565 155.151 43.5283 155.043 43.5283H153.606C153.582 43.5276 153.559 43.5317 153.537 43.5405C153.514 43.5493 153.494 43.5626 153.478 43.5794C153.461 43.5963 153.448 43.6165 153.439 43.6386C153.43 43.6608 153.426 43.6846 153.427 43.7084V48.4631C153.426 48.487 153.43 48.5107 153.439 48.5329C153.448 48.555 153.461 48.5752 153.478 48.5921C153.494 48.6089 153.514 48.6222 153.537 48.631C153.559 48.6398 153.582 48.6439 153.606 48.6432H154.935C154.959 48.6439 154.983 48.6398 155.005 48.631C155.027 48.6222 155.047 48.6089 155.064 48.5921C155.081 48.5752 155.094 48.555 155.103 48.5329C155.111 48.5107 155.116 48.487 155.115 48.4631V46.9438C155.115 46.8004 155.223 46.7637 155.294 46.8721C156.228 48.3127 157.736 48.9972 159.75 48.9972C163.055 48.9972 164.995 47.0163 164.995 44.2067C164.995 41.4338 163.414 40.3533 160.252 39.6688M121.308 47.1238C117.931 47.1238 115.128 44.2792 115.128 40.4975C115.128 36.7158 117.931 33.7986 121.308 33.7986C125.259 33.7986 127.848 36.5357 127.848 40.4617C127.848 44.3876 125.261 47.1238 121.308 47.1238ZM127.631 35.2349C126.194 32.9297 123.969 31.9208 121.272 31.9208C116.563 31.9208 113.081 35.7384 113.081 40.4931C113.081 45.2137 116.569 48.9929 121.272 48.9929C123.966 48.9929 126.194 47.9841 127.667 45.6788C127.739 45.5713 127.847 45.5713 127.847 45.7155V48.4526C127.846 48.4765 127.85 48.5002 127.859 48.5224C127.868 48.5446 127.881 48.5647 127.898 48.5816C127.915 48.5984 127.935 48.6117 127.957 48.6205C127.979 48.6293 128.003 48.6334 128.026 48.6327H132.265C132.289 48.6334 132.313 48.6293 132.335 48.6205C132.357 48.6117 132.377 48.5984 132.394 48.5816C132.411 48.5647 132.424 48.5446 132.433 48.5224C132.441 48.5002 132.446 48.4765 132.445 48.4526V46.9831C132.446 46.9591 132.443 46.935 132.434 46.9124C132.426 46.8899 132.413 46.8694 132.396 46.8523C132.379 46.8353 132.358 46.8221 132.336 46.8136C132.313 46.8051 132.289 46.8015 132.265 46.803H130.002C129.979 46.8038 129.955 46.7996 129.933 46.7908C129.911 46.782 129.891 46.7688 129.874 46.7519C129.857 46.735 129.844 46.7149 129.835 46.6927C129.826 46.6705 129.822 46.6468 129.823 46.6229V34.3056C129.821 34.2816 129.825 34.2575 129.833 34.2349C129.842 34.2124 129.855 34.1919 129.872 34.1749C129.889 34.1578 129.909 34.1446 129.932 34.1361C129.954 34.1276 129.978 34.124 130.002 34.1255H132.265C132.289 34.1263 132.313 34.1221 132.335 34.1133C132.357 34.1045 132.377 34.0913 132.394 34.0744C132.411 34.0575 132.424 34.0374 132.433 34.0152C132.441 33.993 132.446 33.9693 132.445 33.9455V32.4681C132.446 32.4442 132.441 32.4205 132.433 32.3983C132.424 32.3761 132.411 32.356 132.394 32.3391C132.377 32.3223 132.357 32.309 132.335 32.3002C132.313 32.2914 132.289 32.2873 132.265 32.288H128.026C128.003 32.2873 127.979 32.2914 127.957 32.3002C127.935 32.309 127.915 32.3223 127.898 32.3391C127.881 32.356 127.868 32.3761 127.859 32.3983C127.85 32.4205 127.846 32.4442 127.847 32.4681V35.1693C127.847 35.3494 127.739 35.3861 127.631 35.2419M149.295 26.5262H147.606C147.582 26.5255 147.558 26.5297 147.536 26.5385C147.514 26.5472 147.494 26.5605 147.477 26.5774C147.46 26.5942 147.447 26.6144 147.438 26.6365C147.43 26.6587 147.425 26.6825 147.426 26.7063V29.5151C147.425 29.5389 147.43 29.5627 147.438 29.5848C147.447 29.607 147.46 29.6272 147.477 29.644C147.494 29.6609 147.514 29.6741 147.536 29.6829C147.558 29.6917 147.582 29.6959 147.606 29.6952H149.295C149.319 29.6959 149.342 29.6917 149.365 29.6829C149.387 29.6741 149.407 29.6609 149.424 29.644C149.44 29.6272 149.454 29.607 149.462 29.5848C149.471 29.5627 149.475 29.5389 149.475 29.5151V26.7063C149.475 26.6825 149.471 26.6587 149.462 26.6365C149.454 26.6144 149.44 26.5942 149.424 26.5774C149.407 26.5605 149.387 26.5472 149.365 26.5385C149.342 26.5297 149.319 26.5255 149.295 26.5262ZM105.689 37.7989H101.881C101.857 37.7996 101.833 37.7954 101.811 37.7867C101.789 37.7779 101.769 37.7646 101.752 37.7478C101.735 37.7309 101.722 37.7107 101.713 37.6886C101.704 37.6664 101.7 37.6426 101.701 37.6188V28.6863C101.7 28.6625 101.704 28.6388 101.713 28.6166C101.722 28.5944 101.735 28.5743 101.752 28.5574C101.769 28.5405 101.789 28.5273 101.811 28.5185C101.833 28.5097 101.857 28.5055 101.881 28.5063H105.653C108.814 28.5063 111.147 30.1996 111.147 33.1167C111.147 36.1056 109.063 37.7989 105.686 37.7989M105.686 26.4537H96.8133C96.7895 26.4529 96.7659 26.4571 96.7437 26.4659C96.7216 26.4747 96.7015 26.4879 96.6847 26.5048C96.6679 26.5217 96.6547 26.5418 96.6459 26.564C96.6371 26.5862 96.633 26.6099 96.6337 26.6338V28.3236C96.6321 28.3476 96.6357 28.3717 96.6442 28.3943C96.6527 28.4168 96.6659 28.4373 96.6829 28.4543C96.6999 28.4714 96.7203 28.4846 96.7428 28.4931C96.7653 28.5016 96.7893 28.5052 96.8133 28.5036H99.255C99.2788 28.5029 99.3024 28.5071 99.3246 28.5159C99.3467 28.5247 99.3668 28.5379 99.3836 28.5548C99.4004 28.5716 99.4136 28.5918 99.4224 28.614C99.4312 28.6361 99.4353 28.6599 99.4346 28.6837V46.4035C99.4361 46.4276 99.4325 46.4517 99.4241 46.4742C99.4156 46.4968 99.4024 46.5172 99.3854 46.5343C99.3684 46.5513 99.348 46.5645 99.3255 46.573C99.303 46.5815 99.279 46.5851 99.255 46.5836H96.8133C96.7895 46.5829 96.7659 46.587 96.7437 46.5958C96.7216 46.6046 96.7015 46.6179 96.6847 46.6347C96.6679 46.6516 96.6547 46.6717 96.6459 46.6939C96.6371 46.7161 96.633 46.7398 96.6337 46.7637V48.457C96.633 48.4808 96.6371 48.5046 96.6459 48.5267C96.6547 48.5489 96.6679 48.5691 96.6847 48.5859C96.7015 48.6028 96.7216 48.616 96.7437 48.6248C96.7659 48.6336 96.7895 48.6378 96.8133 48.6371H104.322C104.346 48.6378 104.37 48.6336 104.392 48.6248C104.414 48.616 104.434 48.6028 104.451 48.5859C104.468 48.5691 104.481 48.5489 104.49 48.5267C104.498 48.5046 104.503 48.4808 104.502 48.457V46.7689C104.503 46.7451 104.498 46.7213 104.49 46.6992C104.481 46.677 104.468 46.6568 104.451 46.64C104.434 46.6231 104.414 46.6099 104.392 46.6011C104.37 46.5923 104.346 46.5881 104.322 46.5888H101.881C101.857 46.5904 101.833 46.5868 101.81 46.5783C101.788 46.5698 101.767 46.5566 101.75 46.5395C101.733 46.5225 101.72 46.502 101.712 46.4795C101.703 46.4569 101.699 46.4328 101.701 46.4088V40.0316C101.7 40.0077 101.704 39.984 101.713 39.9618C101.722 39.9396 101.735 39.9195 101.752 39.9026C101.769 39.8857 101.789 39.8725 101.811 39.8637C101.833 39.8549 101.857 39.8507 101.881 39.8515H105.904C110.359 39.8515 113.377 37.3303 113.377 33.0809C113.377 28.939 110.251 26.4537 105.689 26.4537" fill="#0C469C"/>
</g>
<defs>
<clipPath id="clip0_2468_150986">
<rect width="165" height="49" fill="white"/>
</clipPath>
</defs>
</svg>
