<svg width="399" height="298" viewBox="0 0 399 298" fill="none" xmlns="http://www.w3.org/2000/svg">
<path d="M399 261.302H0V261.501H399V261.302Z" fill="#EBEBEB"/>
<path d="M68.2937 268.902H41.8623V269.101H68.2937V268.902Z" fill="#EBEBEB"/>
<path d="M180.792 266.736H136.57V266.936H180.792V266.736Z" fill="#EBEBEB"/>
<path d="M87.9334 273.642H72.6182V273.841H87.9334V273.642Z" fill="#EBEBEB"/>
<path d="M342.065 268.802H307.597V269.002H342.065V268.802Z" fill="#EBEBEB"/>
<path d="M354.224 268.802H349.17V269.002H354.224V268.802Z" fill="#EBEBEB"/>
<path d="M258.593 271.603H221.216V271.802H258.593V271.603Z" fill="#EBEBEB"/>
<path d="M189.137 225.713H35.0442C32.5329 225.713 30.4893 223.669 30.4893 221.158V4.55498C30.4893 2.04368 32.5329 0 35.0442 0H189.137C191.648 0 193.691 2.04368 193.691 4.55498V221.158C193.691 223.669 191.648 225.713 189.137 225.713ZM35.0442 0.200298C32.6423 0.200298 30.6888 2.1538 30.6888 4.55578V221.159C30.6888 223.56 32.6423 225.514 35.0442 225.514H189.137C191.538 225.514 193.492 223.56 193.492 221.159V4.55498C193.492 2.1538 191.538 0.1995 189.137 0.1995L35.0442 0.200298Z" fill="#EBEBEB"/>
<path d="M361.741 225.713H207.649C205.138 225.713 203.095 223.669 203.095 221.158V4.55498C203.095 2.04368 205.138 0 207.649 0H361.741C364.253 0 366.296 2.04368 366.296 4.55498V221.158C366.297 223.669 364.253 225.713 361.741 225.713ZM207.649 0.200298C205.248 0.200298 203.294 2.1538 203.294 4.55578V221.159C203.294 223.56 205.248 225.514 207.649 225.514H361.741C364.143 225.514 366.097 223.56 366.097 221.159V4.55498C366.097 2.1538 364.143 0.1995 361.741 0.1995L207.649 0.200298Z" fill="#EBEBEB"/>
<path d="M237.677 15.5146H83.6167V126.111H237.677V15.5146Z" fill="#FAFAFA"/>
<path d="M228.909 126.111L189.724 15.5146H160.317L199.502 126.111H228.909Z" fill="white"/>
<path d="M149.835 126.111L110.649 15.5146H99.9229L139.109 126.111H149.835Z" fill="white"/>
<path d="M76.2711 11.7114H245.023C245.399 11.7114 245.707 12.0195 245.707 12.3961C245.707 12.7728 245.399 13.0808 245.023 13.0808H76.2711C75.8945 13.0808 75.5864 12.7728 75.5864 12.3961C75.5864 12.0195 75.8945 11.7114 76.2711 11.7114Z" fill="#E0E0E0"/>
<path d="M161.56 15.2769H159.734V126.349H161.56V15.2769Z" fill="#F0F0F0"/>
<path d="M159.734 15.2769H158.821V126.349H159.734V15.2769Z" fill="#E0E0E0"/>
<path d="M82.5522 69.8998V71.7256L238.742 71.7256V69.8998L82.5522 69.8998Z" fill="#F0F0F0"/>
<path d="M82.5522 125.35V16.275V14.4492H84.3773H236.916H238.742V16.275V125.35V127.176H236.916H84.3773H82.5522V125.35ZM236.916 125.35V16.275H84.3773V125.35H236.916Z" fill="#F0F0F0"/>
<path d="M82.5521 14.4492H81.6392V127.176H82.5521V14.4492Z" fill="#E0E0E0"/>
<path opacity="0.5" d="M105.2 10.0381V139.918H72.2271L78.2743 10.0381H105.2Z" fill="#EBEBEB"/>
<path opacity="0.5" d="M215.182 10.0381V139.918H248.155L242.108 10.0381H215.182Z" fill="#EBEBEB"/>
<path d="M61.9912 155.479H49.4155V257.488H61.9912V155.479Z" fill="#F0F0F0"/>
<path d="M190.384 257.488H51.8301V261.302H190.384V257.488Z" fill="#F0F0F0"/>
<path d="M61.9919 257.488H192.799V155.479H61.9919V257.488Z" fill="#F5F5F5"/>
<path d="M60.6864 152.151H47.833V155.48H60.6864V152.151Z" fill="#F0F0F0"/>
<path d="M60.6868 155.479L194.381 155.479V152.151L60.6868 152.151V155.479Z" fill="#FAFAFA"/>
<path d="M188.277 212.885H66.5132V162.467H188.277V212.885ZM67.3575 212.04H187.432V163.311H67.3575V212.04Z" fill="#E0E0E0"/>
<path d="M188.277 250.5H66.5132V217.933H188.277V250.5ZM67.3575 249.656H187.432V218.778H67.3575V249.656Z" fill="#E0E0E0"/>
<path d="M170.756 165.597H84.0336C83.4199 165.597 82.918 165.095 82.918 164.481V164.004C82.918 163.39 83.4199 162.888 84.0336 162.888H170.756C171.37 162.888 171.872 163.39 171.872 164.004V164.481C171.872 165.095 171.37 165.597 170.756 165.597Z" fill="#E0E0E0"/>
<path d="M170.756 221.063H84.0336C83.4199 221.063 82.918 220.561 82.918 219.947V219.471C82.918 218.857 83.4199 218.355 84.0336 218.355H170.756C171.37 218.355 171.872 218.857 171.872 219.471V219.947C171.872 220.561 171.37 221.063 170.756 221.063Z" fill="#E0E0E0"/>
<path d="M277.591 256.408H350.75V33.1944H277.591V256.408Z" fill="#F0F0F0"/>
<path d="M277.591 33.1938H275.27V256.407H277.591V33.1938Z" fill="#E0E0E0"/>
<path d="M289.461 247.893H338.88V41.709H289.461V247.893Z" fill="#FAFAFA"/>
<path d="M199.5 297.342C284.951 297.342 354.223 293.297 354.223 288.306C354.223 283.316 284.951 279.271 199.5 279.271C114.048 279.271 44.7764 283.316 44.7764 288.306C44.7764 293.297 114.048 297.342 199.5 297.342Z" fill="#F5F5F5"/>
<path d="M114.398 281.359L120.646 278.989L116.821 263.89L110.573 266.26L114.398 281.359Z" fill="#B55B52"/>
<path d="M67.4526 281.481H74.1351L75.1358 266.006H68.4533L67.4526 281.481Z" fill="#B55B52"/>
<path d="M74.8041 280.707H66.6565C66.3836 280.707 66.1562 280.896 66.1099 281.163L65.0853 287.103C64.9791 287.719 65.4922 288.302 66.1227 288.291C68.7417 288.246 70.6465 288.092 73.9479 288.092C75.9788 288.092 82.1146 288.303 84.9196 288.303C87.6631 288.303 87.9528 285.53 86.7925 285.278C81.5879 284.152 77.6306 282.599 75.9085 281.117C75.5981 280.85 75.2031 280.707 74.8041 280.707Z" fill="#263238"/>
<path d="M120.328 278.282L113.505 280.87C113.25 280.967 113.096 281.229 113.135 281.499L114.007 287.521C114.097 288.145 114.742 288.525 115.328 288.292C117.774 287.317 119.849 286.079 122.963 284.961C126.604 283.654 130.219 282.256 133.166 280.379C135.479 278.905 134.505 276.115 133.414 276.552C128.448 278.546 127.23 279.201 122.018 278.199C121.451 278.09 120.867 278.078 120.328 278.282Z" fill="#263238"/>
<path d="M102.7 77.8369C104.804 81.5524 107.019 85.3828 109.252 89.0887C111.483 92.8114 113.777 96.4902 116.21 99.9391C116.799 100.813 117.452 101.648 118.04 102.457C118.284 102.818 118.387 102.922 118.559 103.059C118.733 103.186 119.141 103.302 119.771 103.248C120.394 103.205 121.185 103.023 122.003 102.719C123.657 102.115 125.426 101.126 127.157 100.019C128.017 99.4531 128.891 98.8706 129.746 98.2505C130.589 97.6385 131.463 96.9538 132.242 96.3529L135.989 99.6894C135.271 100.735 134.569 101.623 133.796 102.541C133.034 103.448 132.241 104.341 131.379 105.183C130.525 106.035 129.619 106.857 128.635 107.633C127.655 108.414 126.604 109.162 125.419 109.822C124.233 110.478 122.926 111.09 121.362 111.473C119.817 111.843 117.932 111.987 115.972 111.457C114.004 110.955 112.23 109.697 111.054 108.352C110.253 107.423 109.471 106.556 108.74 105.638C105.777 102.008 103.162 98.2514 100.681 94.4281C98.214 90.5778 95.9342 86.7234 93.7764 82.6273L102.7 77.8369Z" fill="#B65B52"/>
<path d="M90.8476 78.1441C89.0458 84.2736 101.73 100.984 101.73 100.984L114.52 92.7547C114.52 92.7547 110.761 84.2289 105.657 77.7268C100.417 71.0515 92.8251 71.417 90.8476 78.1441Z" fill="#6A6AF4"/>
<path opacity="0.2" d="M90.8476 78.1441C89.0458 84.2736 101.73 100.984 101.73 100.984L114.52 92.7547C114.52 92.7547 110.761 84.2289 105.657 77.7268C100.417 71.0515 92.8251 71.417 90.8476 78.1441Z" fill="black"/>
<path opacity="0.2" d="M98.6442 85.3394C101.275 86.463 105.146 92.7983 107.16 97.4938L101.732 100.982C101.732 100.982 96.8455 94.5468 93.5737 88.1947C95.2886 86.3138 97.2533 84.7489 98.6442 85.3394Z" fill="black"/>
<path d="M131.455 98.4365L133.798 91.8745L140.448 95.0482C140.448 95.0482 139.068 100.901 134.201 100.891L131.455 98.4365Z" fill="#B55B52"/>
<path d="M139.716 87.5522L142.53 90.6628L140.449 95.0487L133.798 91.8742L139.716 87.5522Z" fill="#B55B52"/>
<path opacity="0.2" d="M116.82 263.895L118.794 271.677L112.543 274.048L110.57 266.265L116.82 263.895Z" fill="black"/>
<path opacity="0.2" d="M68.4516 266.01H75.1373L74.6178 273.987H67.9321L68.4516 266.01Z" fill="black"/>
<path d="M61.0605 75.4331C68.2585 100.817 67.0807 127.75 67.5299 133.222C72.7672 133.034 92.4946 132.291 103.248 131.884C109.316 94.0465 98.4197 72.9873 98.4197 72.9873C98.4197 72.9873 96.1279 72.542 93.0109 72.222C92.0333 72.1222 90.9792 72.0337 89.8811 71.9762C89.2746 71.9395 88.6586 71.9203 88.0337 71.9076C84.0015 71.8413 77.4164 72.4821 72.8797 73.0367C71.9301 73.1549 70.9621 73.2977 70.0277 73.4501C69.1594 73.5985 68.308 73.7557 67.506 73.9161C63.8679 74.6415 61.0605 75.4331 61.0605 75.4331Z" fill="#6A6AF4"/>
<path opacity="0.2" d="M61.0605 75.4331C68.2585 100.817 67.0807 127.75 67.5299 133.222C72.7672 133.034 92.4946 132.291 103.248 131.884C109.316 94.0465 98.4197 72.9873 98.4197 72.9873C98.4197 72.9873 96.1279 72.542 93.0109 72.222C92.0333 72.1222 90.9792 72.0337 89.8811 71.9762C89.2746 71.9395 88.6586 71.9203 88.0337 71.9076C84.0015 71.8413 77.4164 72.4821 72.8797 73.0367C71.9301 73.1549 70.9621 73.2977 70.0277 73.4501C69.1594 73.5985 68.308 73.7557 67.506 73.9161C63.8679 74.6415 61.0605 75.4331 61.0605 75.4331Z" fill="black"/>
<path opacity="0.2" d="M68.665 86.3228C69.3058 88.7782 68.5732 99.9845 66.0092 102.748C65.6597 99.1602 65.1937 95.4136 64.5776 91.584L68.665 86.3228Z" fill="black"/>
<path d="M73.1137 55.8623C74.432 60.6663 76.0512 69.5281 72.8823 73.0345C75.728 75.4708 79.4179 78.2566 85.2226 78.0291C91.0264 77.8017 89.7193 73.8955 88.0339 71.9077C82.5014 71.0139 82.341 66.9697 83.0065 63.1113L73.1137 55.8623Z" fill="#B55B52"/>
<path d="M85.3698 77.2036L86.424 77.917L82.5776 79.0366L83.5688 77.2563L85.3698 77.2036Z" fill="#6A6AF4"/>
<path d="M86.8217 76.8291L86.4243 77.9168L90.2866 79.0364L90.0257 76.9703L86.8217 76.8291Z" fill="#6A6AF4"/>
<path d="M70.5727 72.6669L72.0929 71.904C72.5868 71.6558 73.1765 71.7029 73.6202 72.0325C75.2162 73.2183 79.4624 76.0161 85.37 77.2035C82.3176 78.6607 83.0725 82.5685 83.0725 82.5685C83.0725 82.5685 73.3768 79.3709 70.2639 73.5822C70.0859 73.251 70.2367 72.8361 70.5727 72.6669Z" fill="white"/>
<path d="M89.7286 71.6605L87.4998 71.3254C87.2412 71.2863 87.0649 71.5751 87.2157 71.789C87.9945 72.8926 89.2865 75.3337 86.8223 76.83C89.8746 78.2871 90.8242 81.8526 90.8242 81.8526C90.8242 81.8526 94.7975 77.5641 90.1651 71.9079C90.0566 71.7754 89.8978 71.6861 89.7286 71.6605Z" fill="white"/>
<path opacity="0.2" d="M77.147 58.8213L83.0019 63.1082C82.8415 64.0219 82.7322 64.9436 82.7346 65.8325C80.6351 65.6873 77.613 63.6197 77.2308 61.4611C77.0401 60.3846 77.0082 59.3392 77.147 58.8213Z" fill="black"/>
<path d="M90.0681 46.0118C89.8007 48.33 87.5751 50.3298 86.1339 50.8294L84.3408 40.7275C88.3715 37.8866 90.4439 42.7528 90.0681 46.0118Z" fill="#263238"/>
<path d="M71.0948 48.7967C72.2567 55.3259 72.6047 59.2066 76.3146 62.1991C81.895 66.7006 89.6651 62.7537 90.4783 56.009C91.21 49.9378 89.1871 40.2796 82.4488 38.4043C75.8102 36.557 69.933 42.2675 71.0948 48.7967Z" fill="#B55B52"/>
<path d="M72.3359 53.1994C75.3603 54.8065 76.6922 51.194 76.7185 49.7305C76.7592 47.3971 75.749 44.8395 74.5456 43.9027C80.3837 43.8684 91.9348 43.6138 89.0213 38.0525C86.1078 32.4905 80.2728 33.1265 75.8742 36.1677C73.5497 37.7748 66.0325 36.3759 67.8958 40.7115C63.9761 42.7935 67.3755 50.5636 72.3359 53.1994Z" fill="#263238"/>
<path d="M68.5364 40.353C68.5364 40.353 67.2492 40.4727 65.6548 39.373C66.1144 41.4383 68.2052 41.4862 68.2052 41.4862L68.5364 40.353Z" fill="#263238"/>
<path d="M68.6394 54.1675C69.4278 55.7723 70.8842 56.8631 72.2823 57.3156C74.3858 57.9955 74.8678 56.0667 74.3571 54.0358C73.8974 52.2076 72.9071 49.7187 70.7605 49.9229C68.6458 50.124 67.7377 52.3321 68.6394 54.1675Z" fill="#B55B52"/>
<path d="M111.029 202.531C108.314 182.317 103.248 131.886 103.248 131.886L79.7676 132.767C79.7676 132.767 90.8422 183.165 94.8506 203.598C98.8589 224.032 110.006 273.354 110.006 273.354L120.588 269.346C120.588 269.346 113.856 223.548 111.029 202.531Z" fill="#263238"/>
<path opacity="0.2" d="M88.5342 146.354C87.069 146.721 84.7548 147.62 83.3145 149.027C85.5289 159.217 88.4264 172.629 90.9154 184.45C92.6135 174.209 92.6638 154.888 88.5342 146.354Z" fill="black"/>
<path d="M90.579 132.362C90.579 132.362 85.5971 187.069 83.3148 206.516C80.8155 227.811 77.6953 272.442 77.6953 272.442H65.4564C65.4564 272.442 64.9489 232.969 66.5401 212.124C68.3523 188.379 67.5328 133.228 67.5328 133.228L90.579 132.362Z" fill="#263238"/>
<path d="M79.3216 272.707H64.9097L64.6064 268.401L80.6973 268.121L79.3216 272.707Z" fill="#6A6AF4"/>
<path d="M122.009 269.089L109.402 273.87L107.857 269.797L121.869 264.238L122.009 269.089Z" fill="#6A6AF4"/>
<path d="M81.2815 49.4855C81.343 50.0209 81.6765 50.4223 82.0268 50.3816C82.3772 50.3417 82.6102 49.8749 82.5487 49.3394C82.4873 48.804 82.1537 48.4026 81.8034 48.4433C81.4531 48.4832 81.2193 48.95 81.2815 49.4855Z" fill="#263238"/>
<path d="M87.3335 48.7882C87.395 49.3237 87.7293 49.725 88.0789 49.6843C88.4292 49.6444 88.6622 49.1776 88.6008 48.6422C88.5393 48.1067 88.2049 47.7053 87.8554 47.746C87.5059 47.7867 87.2721 48.2527 87.3335 48.7882Z" fill="#263238"/>
<path d="M85.4395 49.2764C85.4395 49.2764 87.0131 52.225 88.5253 53.5608C87.6802 54.5543 86.0228 54.3357 86.0228 54.3357L85.4395 49.2764Z" fill="#A02724"/>
<path d="M83.9305 56.0285C81.8621 55.9886 80.7545 54.6838 80.7034 54.6224C80.6475 54.5554 80.6571 54.4556 80.7241 54.3998C80.7912 54.3439 80.8909 54.3535 80.9468 54.4197C80.9596 54.4349 82.2531 55.9495 84.596 55.6797C84.683 55.6702 84.7612 55.7324 84.7716 55.8186C84.782 55.9056 84.7189 55.9838 84.6328 55.9942C84.3878 56.0229 84.154 56.0333 83.9305 56.0285Z" fill="#263238"/>
<path d="M79.1898 47.7456C79.1372 47.7448 79.0837 47.7305 79.035 47.7017C78.8842 47.6132 78.8347 47.4193 78.9233 47.2684C79.8131 45.7602 81.2718 45.678 81.3341 45.6756C81.5088 45.6676 81.6565 45.8033 81.6644 45.9781C81.6724 46.152 81.5376 46.2997 81.3636 46.3084C81.3157 46.3108 80.1786 46.3866 79.4683 47.5908C79.4085 47.6922 79.3 47.748 79.1898 47.7456Z" fill="#263238"/>
<path d="M89.7009 46.4058C89.5987 46.4034 89.499 46.3523 89.4399 46.259C88.689 45.0803 87.5503 45.0428 87.5024 45.042C87.3284 45.038 87.1888 44.8944 87.1919 44.7204C87.1943 44.5465 87.3364 44.4068 87.5111 44.4092C87.5742 44.4116 89.0337 44.4419 89.9746 45.919C90.0687 46.0667 90.0248 46.2622 89.878 46.3563C89.8222 46.3914 89.7607 46.4066 89.7009 46.4058Z" fill="#263238"/>
<path d="M77.0719 281.875C76.4542 281.875 75.7807 281.746 75.3115 281.634C75.2485 281.619 75.199 281.569 75.1862 281.506C75.1726 281.443 75.1982 281.38 75.2509 281.346C75.4871 281.194 77.577 279.87 78.3343 280.25C78.4516 280.309 78.5985 280.434 78.628 280.698C78.6679 281.052 78.5713 281.333 78.3423 281.534C78.0518 281.788 77.5802 281.875 77.0719 281.875ZM75.7592 281.413C76.9051 281.64 77.7757 281.598 78.126 281.292C78.2801 281.157 78.3407 280.97 78.3128 280.717C78.2992 280.595 78.2473 280.553 78.2034 280.532C77.8092 280.334 76.6098 280.906 75.7592 281.413Z" fill="#6A6AF4"/>
<path d="M75.348 281.639C75.3177 281.639 75.2873 281.63 75.2602 281.614C75.2099 281.582 75.1796 281.527 75.1812 281.468C75.1836 281.387 75.2474 279.459 75.9928 278.824C76.1867 278.659 76.4101 278.59 76.6567 278.62C77.0374 278.667 77.1483 278.9 77.181 279.035C77.3598 279.781 76.0949 281.244 75.4222 281.62C75.3999 281.633 75.3743 281.639 75.348 281.639ZM76.5626 278.931C76.4325 278.931 76.3152 278.976 76.2058 279.07C75.7278 279.477 75.5706 280.6 75.5204 281.163C76.1819 280.642 76.9783 279.536 76.873 279.095C76.8634 279.055 76.8411 278.961 76.6344 278.935C76.6104 278.932 76.5865 278.931 76.5626 278.931Z" fill="#6A6AF4"/>
<path d="M121.27 278.913C121.211 278.915 121.156 278.884 121.126 278.831C121.093 278.772 121.102 278.699 121.147 278.649C121.375 278.394 123.404 276.169 124.323 276.304C124.5 276.33 124.637 276.434 124.716 276.605C124.85 276.891 124.849 277.169 124.712 277.43C124.258 278.296 122.373 278.73 121.291 278.911C121.284 278.912 121.277 278.913 121.27 278.913ZM124.215 276.614C123.682 276.63 122.517 277.666 121.705 278.513C123.172 278.22 124.178 277.77 124.433 277.283C124.523 277.112 124.522 276.934 124.431 276.739C124.396 276.664 124.349 276.628 124.277 276.617C124.258 276.614 124.238 276.613 124.215 276.614Z" fill="#6A6AF4"/>
<path d="M121.27 278.913C121.254 278.914 121.239 278.912 121.224 278.907C121.17 278.893 121.127 278.851 121.112 278.797C121.093 278.722 120.622 276.975 121.17 276.022C121.337 275.731 121.581 275.541 121.894 275.457C122.317 275.344 122.513 275.506 122.602 275.661C122.985 276.324 122.003 278.242 121.377 278.867C121.348 278.895 121.31 278.912 121.27 278.913ZM122.139 275.736C122.096 275.738 122.042 275.745 121.976 275.763C121.744 275.825 121.57 275.961 121.444 276.179C121.085 276.806 121.244 277.897 121.35 278.418C121.945 277.664 122.558 276.217 122.328 275.819C122.314 275.795 122.278 275.732 122.139 275.736Z" fill="#6A6AF4"/>
<path d="M68.4079 84.88C66.4034 89.0104 64.3605 93.2725 62.3798 97.4692C61.3975 99.5799 60.412 101.685 59.4815 103.799L58.097 106.968L57.4354 108.553L57.2695 108.949L57.1537 109.244C57.0724 109.432 57.0197 109.624 56.9487 109.813C56.4738 111.337 56.3454 112.938 56.6869 114.667C56.9989 116.395 57.7578 118.207 58.7912 119.976C59.8278 121.745 61.1318 123.476 62.5913 125.119C63.3159 125.947 64.0772 126.76 64.876 127.539C65.275 127.928 65.682 128.311 66.0961 128.683C66.4927 129.055 66.9436 129.453 67.2971 129.759L64.635 134.012C63.3973 133.383 62.3647 132.766 61.289 132.054C60.2284 131.355 59.1886 130.617 58.1816 129.82C56.1786 128.216 54.2841 126.399 52.6059 124.269C50.9365 122.143 49.4698 119.674 48.5744 116.799C47.6911 113.942 47.4652 110.641 48.1882 107.561C48.2848 107.182 48.3702 106.795 48.4875 106.423L48.7955 105.433L49.3613 103.674C49.7539 102.515 50.1433 101.349 50.5742 100.21C51.4121 97.9169 52.2891 95.6522 53.2324 93.4209C55.0973 88.9322 57.1154 84.6039 59.3961 80.2563L68.4079 84.88Z" fill="#B65B52"/>
<path d="M61.0623 75.4341C54.9656 77.3437 48.9702 98.0159 48.9702 98.0159L63.0765 104.19C63.0765 104.19 67.6402 94.1998 70.264 86.3707C73.1217 77.8432 68.4478 73.1215 61.0623 75.4341Z" fill="#6A6AF4"/>
<path opacity="0.2" d="M61.0623 75.4341C54.9656 77.3437 48.9702 98.0159 48.9702 98.0159L63.0765 104.19C63.0765 104.19 67.6402 94.1998 70.264 86.3707C73.1217 77.8432 68.4478 73.1215 61.0623 75.4341Z" fill="black"/>
<path d="M65.8056 128.448L71.6398 131.916L65.9652 137.565C65.9652 137.565 61.0368 133.775 62.5067 130.804L65.8056 128.448Z" fill="#B55B52"/>
<path d="M75.5349 137.447L69.6832 141.546L65.9653 137.566L71.6399 131.917L75.5349 137.447Z" fill="#B55B52"/>
<path d="M357.806 126.946L357.527 130.793L358.324 130.851L358.603 127.004L357.806 126.946Z" fill="#6A6AF4"/>
<path d="M358.885 112.409L358.077 123.56L358.874 123.618L359.682 112.467L358.885 112.409Z" fill="#6A6AF4"/>
<path d="M337.015 237.81H141.555C135.583 237.81 131.046 232.924 131.475 226.951L141.816 82.6751C142.244 76.7029 147.481 71.8159 153.453 71.8159H348.913C354.885 71.8159 359.422 76.7021 358.993 82.6751L348.652 226.951C348.224 232.924 342.987 237.81 337.015 237.81Z" fill="#6A6AF4"/>
<path d="M291.548 288.306H228.104L216.795 209.908H280.24L291.548 288.306Z" fill="#6A6AF4"/>
<path d="M281.474 283.635H212.843L211.48 288.306H280.111L281.474 283.635Z" fill="#6A6AF4"/>
<path d="M283.589 247.65L221.752 244.271L216.795 209.908H278.145L283.589 247.65Z" fill="#263238"/>
<path d="M334.808 237.81H139.349C133.376 237.81 128.84 232.924 129.268 226.951L139.61 82.6751C140.037 76.7029 145.275 71.8159 151.247 71.8159H346.706C352.679 71.8159 357.215 76.7021 356.787 82.6751L346.446 226.951C346.017 232.924 340.781 237.81 334.808 237.81Z" fill="#263238"/>
<path d="M356.309 84.093L350.368 166.856L351.129 166.911L357.07 84.1476L356.309 84.093Z" fill="white"/>
<path d="M349.854 174.053L347.8 202.71L348.561 202.765L350.615 174.108L349.854 174.053Z" fill="white"/>
<path d="M334.395 235.11H140.149C135.5 235.11 131.97 231.307 132.302 226.658L142.602 82.9685C142.936 78.3194 147.012 74.5161 151.66 74.5161H345.906C350.555 74.5161 354.086 78.3194 353.753 82.9685L343.453 226.658C343.12 231.306 339.044 235.11 334.395 235.11Z" fill="white"/>
<path opacity="0.2" d="M334.395 235.11H140.149C135.5 235.11 131.97 231.307 132.302 226.658L142.602 82.9685C142.936 78.3194 147.012 74.5161 151.66 74.5161H345.906C350.555 74.5161 354.086 78.3194 353.753 82.9685L343.453 226.658C343.12 231.306 339.044 235.11 334.395 235.11Z" fill="#6A6AF4"/>
<path opacity="0.5" d="M189.975 228.742H144.61C142.365 228.742 140.658 226.904 140.82 224.658L150.832 84.9691C150.993 82.7235 152.962 80.8857 155.208 80.8857H200.572C202.818 80.8857 204.524 82.7235 204.364 84.9691L194.351 224.658C194.19 226.904 192.22 228.742 189.975 228.742Z" fill="white"/>
<path opacity="0.4" d="M188.218 100.577H164.74C162.717 100.577 161.18 98.9221 161.325 96.8984L161.583 93.2986C161.728 91.2757 163.502 89.6206 165.525 89.6206H189.004C191.026 89.6206 192.563 91.2757 192.418 93.2986L192.16 96.8984C192.015 98.9221 190.241 100.577 188.218 100.577Z" fill="#6A6AF4"/>
<path d="M173.29 157.083H137.446C133.917 157.083 131.236 154.195 131.489 150.665L134.059 114.821C134.312 111.292 137.406 108.404 140.936 108.404H176.78C180.309 108.404 182.991 111.292 182.737 114.821L180.167 150.665C179.914 154.195 176.82 157.083 173.29 157.083Z" fill="#6A6AF4"/>
<path d="M178.429 127.695C177.084 127.695 175.904 128.795 175.808 130.141L175.435 135.345C175.338 136.691 176.361 137.791 177.705 137.791H181.344C181.679 137.791 181.971 137.52 181.995 137.185L182.631 128.302C182.655 127.967 182.403 127.696 182.068 127.696H178.429V127.695Z" fill="white"/>
<path d="M164.599 117.525H142.005C141.466 117.525 141.056 117.084 141.095 116.544C141.133 116.005 141.606 115.563 142.146 115.563H164.74C165.279 115.563 165.688 116.005 165.65 116.544C165.611 117.084 165.138 117.525 164.599 117.525Z" fill="white"/>
<path d="M164.241 122.517H141.647C141.107 122.517 140.698 122.075 140.736 121.536C140.775 120.996 141.248 120.555 141.787 120.555H164.381C164.921 120.555 165.33 120.996 165.292 121.536C165.253 122.076 164.78 122.517 164.241 122.517Z" fill="white"/>
<path d="M156.076 127.509H141.289C140.75 127.509 140.341 127.068 140.379 126.528C140.417 125.989 140.89 125.547 141.43 125.547H156.217C156.756 125.547 157.166 125.989 157.127 126.528C157.088 127.068 156.616 127.509 156.076 127.509Z" fill="white"/>
<path opacity="0.5" d="M164.657 151.291H142.799C140.492 151.291 138.739 149.403 138.904 147.096L139.727 135.612C139.892 133.305 141.915 131.417 144.223 131.417H166.082C168.389 131.417 170.141 133.305 169.976 135.612L169.153 147.096C168.988 149.403 166.965 151.291 164.657 151.291Z" fill="white"/>
<path opacity="0.4" d="M185.066 170.507H157.868C156.867 170.507 156.108 169.689 156.18 168.689C156.251 167.688 157.128 166.87 158.129 166.87H185.326C186.327 166.87 187.087 167.689 187.015 168.689C186.943 169.689 186.066 170.507 185.066 170.507Z" fill="#6A6AF4"/>
<path opacity="0.8" d="M179.584 177.647H162.326C161.325 177.647 160.565 176.828 160.637 175.828C160.709 174.827 161.586 174.009 162.587 174.009H179.845C180.846 174.009 181.605 174.828 181.533 175.828C181.462 176.829 180.585 177.647 179.584 177.647Z" fill="white"/>
<path opacity="0.4" d="M183.653 190.208H156.455C155.455 190.208 154.695 189.389 154.767 188.389C154.839 187.388 155.716 186.57 156.716 186.57H183.914C184.915 186.57 185.674 187.389 185.602 188.389C185.531 189.39 184.654 190.208 183.653 190.208Z" fill="#6A6AF4"/>
<path opacity="0.8" d="M178.172 197.347H160.914C159.913 197.347 159.154 196.528 159.225 195.528C159.297 194.527 160.174 193.709 161.175 193.709H178.433C179.434 193.709 180.194 194.528 180.122 195.528C180.049 196.529 179.172 197.347 178.172 197.347Z" fill="white"/>
<path opacity="0.4" d="M182.241 209.908H155.044C154.043 209.908 153.283 209.089 153.355 208.089C153.427 207.088 154.304 206.271 155.305 206.271H182.502C183.503 206.271 184.263 207.089 184.191 208.089C184.119 209.09 183.242 209.908 182.241 209.908Z" fill="#6A6AF4"/>
<path opacity="0.8" d="M176.76 217.047H159.501C158.501 217.047 157.741 216.228 157.813 215.228C157.885 214.228 158.762 213.41 159.762 213.41H177.021C178.021 213.41 178.781 214.228 178.709 215.228C178.637 216.229 177.76 217.047 176.76 217.047Z" fill="white"/>
<path opacity="0.5" d="M336.503 187.78C337.682 185.982 340.384 186.742 340.235 188.825L337.618 225.334C337.483 227.215 336.064 228.743 334.451 228.743H202.912C201.299 228.743 200.098 227.215 200.233 225.334L201.787 203.643C201.997 200.717 204.974 198.611 207.711 199.464C215.125 201.775 221.477 200.417 227.381 197.49C240.008 191.221 250.573 177.769 265.09 177.769C265.647 177.769 266.195 177.783 266.728 177.818C288.322 179.121 294.901 205.943 311.63 205.943C316.574 205.943 321.088 203.809 325.017 200.766C329.831 197.043 333.762 191.961 336.503 187.78Z" fill="#6A6AF4"/>
<path opacity="0.5" d="M339.232 202.822L337.618 225.334C337.483 227.214 336.064 228.743 334.451 228.743H202.912C201.299 228.743 200.098 227.214 200.233 225.334L203.439 180.599C203.659 177.535 207.674 176.246 209.3 178.726C213.497 185.128 219.955 193.398 227.381 197.49C230.227 199.054 233.209 200.004 236.266 200.004C246.894 200.004 255.933 187.397 266.728 177.817C273.347 171.943 280.625 167.202 289.331 167.202C307.504 167.202 310.184 196.728 325.017 200.765C327.877 201.547 331.186 201.378 335.147 199.863C337.27 199.054 339.391 200.604 339.232 202.822Z" fill="#6A6AF4"/>
<g opacity="0.8">
<path d="M339.877 194.096C339.804 194.096 339.741 194.064 339.685 194.016C339.661 193.992 339.637 193.96 339.629 193.928C339.613 193.896 339.605 193.857 339.605 193.825C339.605 193.745 339.637 193.681 339.686 193.633C339.782 193.529 339.965 193.521 340.069 193.633C340.125 193.682 340.15 193.753 340.15 193.825C340.15 193.857 340.142 193.896 340.133 193.928C340.117 193.96 340.093 193.992 340.069 194.016C340.02 194.064 339.949 194.096 339.877 194.096Z" fill="white"/>
<path d="M211.981 212.792C211.83 212.792 211.71 212.673 211.71 212.521C211.71 212.377 211.83 212.258 211.981 212.258V212.25C212.134 212.25 212.253 212.377 212.253 212.521C212.253 212.672 212.134 212.801 211.981 212.801C211.981 212.801 211.981 212.801 211.981 212.792ZM209.244 212.641C209.244 212.641 209.244 212.641 209.252 212.641C209.101 212.633 208.989 212.498 209.005 212.346C209.021 212.194 209.155 212.091 209.308 212.107C209.459 212.123 209.562 212.258 209.547 212.402C209.531 212.546 209.412 212.649 209.276 212.649C209.268 212.649 209.259 212.649 209.244 212.641ZM214.407 212.402C214.391 212.25 214.495 212.115 214.647 212.099C214.798 212.082 214.934 212.186 214.95 212.338C214.966 212.489 214.863 212.625 214.71 212.641C214.702 212.641 214.687 212.641 214.678 212.641C214.543 212.641 214.423 212.538 214.407 212.402ZM206.547 212.226C206.402 212.194 206.307 212.05 206.331 211.899C206.362 211.755 206.507 211.659 206.658 211.683C206.801 211.715 206.897 211.859 206.874 212.01C206.842 212.138 206.73 212.226 206.602 212.226C206.587 212.226 206.563 212.226 206.547 212.226ZM217.072 211.955C217.033 211.803 217.121 211.66 217.272 211.62C217.416 211.588 217.559 211.676 217.599 211.819C217.639 211.963 217.543 212.115 217.4 212.155C217.4 212.155 217.4 212.155 217.4 212.147C217.376 212.155 217.352 212.155 217.336 212.155C217.208 212.155 217.096 212.075 217.072 211.955ZM304.35 212.067C304.199 212.067 304.078 211.947 304.078 211.795C304.078 211.643 304.206 211.523 304.35 211.523C304.502 211.523 304.621 211.643 304.621 211.795C304.62 211.947 304.501 212.067 304.35 212.067ZM306.784 211.684C306.768 211.532 306.879 211.396 307.024 211.389C307.175 211.365 307.31 211.476 307.327 211.628C307.343 211.78 307.231 211.915 307.08 211.931C307.072 211.931 307.064 211.931 307.057 211.931C306.918 211.93 306.8 211.827 306.784 211.684ZM301.621 211.899C301.477 211.882 301.365 211.748 301.389 211.595C301.406 211.444 301.541 211.341 301.692 211.356C301.844 211.38 301.948 211.515 301.932 211.659C301.909 211.803 301.796 211.906 301.66 211.906C301.644 211.907 301.636 211.907 301.621 211.899ZM203.897 211.572C203.754 211.531 203.666 211.381 203.706 211.237C203.755 211.092 203.897 211.005 204.05 211.045C204.194 211.093 204.273 211.237 204.233 211.389C204.201 211.508 204.09 211.58 203.97 211.58C203.945 211.58 203.921 211.58 203.897 211.572ZM309.465 211.309C309.433 211.157 309.529 211.013 309.68 210.99C309.825 210.958 309.968 211.053 310 211.205C310.031 211.349 309.936 211.491 309.784 211.523C309.767 211.523 309.752 211.531 309.735 211.531C309.608 211.531 309.489 211.436 309.465 211.309ZM298.938 211.404C298.787 211.373 298.699 211.228 298.739 211.077C298.771 210.933 298.915 210.846 299.066 210.878C299.211 210.91 299.298 211.061 299.266 211.205C299.234 211.332 299.122 211.412 299.002 211.412C298.979 211.412 298.955 211.412 298.938 211.404ZM219.658 211.181C219.602 211.037 219.675 210.878 219.818 210.83C219.953 210.775 220.113 210.846 220.168 210.982C220.217 211.125 220.152 211.285 220.009 211.332C219.977 211.349 219.945 211.356 219.913 211.356C219.802 211.357 219.698 211.285 219.658 211.181ZM312.105 210.71C312.066 210.559 312.146 210.407 312.297 210.366C312.441 210.326 312.592 210.415 312.632 210.558C312.672 210.702 312.584 210.853 312.441 210.893C312.417 210.902 312.393 210.91 312.369 210.91C312.25 210.91 312.137 210.829 312.105 210.71ZM296.322 210.614C296.177 210.566 296.106 210.407 296.154 210.271C296.209 210.127 296.362 210.055 296.505 210.104C296.65 210.159 296.722 210.311 296.673 210.454C296.633 210.566 296.522 210.63 296.41 210.63C296.377 210.63 296.345 210.63 296.322 210.614ZM222.14 210.104C222.068 209.976 222.124 209.808 222.259 209.736C222.394 209.673 222.554 209.728 222.626 209.864C222.69 209.991 222.642 210.159 222.507 210.223C222.467 210.247 222.426 210.255 222.379 210.255C222.283 210.255 222.188 210.199 222.14 210.104ZM314.699 209.912C314.644 209.768 314.723 209.617 314.859 209.568L314.867 209.56C315.003 209.512 315.162 209.592 315.21 209.728C315.258 209.872 315.187 210.031 315.043 210.079C315.011 210.087 314.987 210.095 314.955 210.095C314.843 210.095 314.74 210.024 314.699 209.912ZM293.8 209.577C293.664 209.521 293.601 209.354 293.664 209.218C293.728 209.082 293.888 209.026 294.024 209.082C294.167 209.146 294.223 209.306 294.159 209.449C294.111 209.545 294.015 209.609 293.912 209.609C293.872 209.609 293.832 209.6 293.8 209.577ZM317.229 208.955C317.174 208.819 317.237 208.659 317.38 208.603C317.516 208.54 317.675 208.603 317.731 208.748C317.795 208.884 317.731 209.043 317.587 209.107C317.555 209.123 317.515 209.123 317.483 209.123C317.373 209.122 317.277 209.058 317.229 208.955ZM224.502 208.795C224.421 208.667 224.462 208.492 224.589 208.412C224.716 208.331 224.884 208.371 224.965 208.499C225.044 208.627 225.005 208.794 224.877 208.875C224.837 208.907 224.781 208.923 224.733 208.923C224.645 208.923 224.557 208.875 224.502 208.795ZM291.366 208.356C291.231 208.284 291.183 208.117 291.254 207.981C291.326 207.853 291.494 207.805 291.63 207.877C291.756 207.949 291.805 208.109 291.733 208.244C291.685 208.331 291.589 208.388 291.494 208.388C291.453 208.388 291.406 208.371 291.366 208.356ZM319.711 207.861C319.647 207.726 319.703 207.566 319.839 207.502C319.975 207.438 320.142 207.494 320.206 207.63C320.27 207.766 320.206 207.925 320.07 207.989C320.07 207.989 320.07 207.989 320.078 207.997C320.038 208.013 319.998 208.021 319.959 208.021C319.854 208.021 319.759 207.965 319.711 207.861ZM226.751 207.295C226.664 207.167 226.696 206.999 226.815 206.913C226.935 206.825 227.11 206.849 227.198 206.968C227.285 207.087 227.254 207.263 227.134 207.351C227.086 207.383 227.031 207.406 226.975 207.406C226.887 207.406 226.808 207.367 226.751 207.295ZM289.012 206.992C289.012 206.992 289.012 206.992 289.012 206.984C288.884 206.912 288.845 206.743 288.924 206.616C288.996 206.481 289.164 206.44 289.291 206.521C289.427 206.6 289.468 206.768 289.387 206.896C289.331 206.984 289.244 207.031 289.156 207.031C289.108 207.031 289.052 207.015 289.012 206.992ZM322.137 206.648C322.065 206.521 322.113 206.353 322.249 206.281C322.377 206.209 322.544 206.265 322.617 206.393C322.689 206.529 322.64 206.688 322.504 206.768C322.464 206.785 322.417 206.8 322.377 206.8C322.28 206.8 322.185 206.743 322.137 206.648ZM228.923 205.659C228.827 205.539 228.842 205.372 228.963 205.276C229.082 205.18 229.25 205.204 229.346 205.317C229.441 205.435 229.418 205.611 229.306 205.707C229.251 205.747 229.194 205.763 229.13 205.763C229.05 205.763 228.971 205.731 228.923 205.659ZM286.714 205.539C286.714 205.539 286.714 205.539 286.714 205.531C286.586 205.451 286.554 205.284 286.634 205.156C286.722 205.028 286.889 204.997 287.017 205.076C287.136 205.156 287.177 205.332 287.097 205.452C287.042 205.539 286.953 205.579 286.866 205.579C286.81 205.578 286.762 205.563 286.714 205.539ZM324.506 205.34C324.427 205.204 324.474 205.044 324.602 204.965C324.73 204.893 324.897 204.933 324.978 205.06C325.05 205.188 325.01 205.356 324.882 205.435C324.834 205.459 324.786 205.475 324.738 205.475C324.651 205.475 324.555 205.427 324.506 205.34ZM284.456 204.031C284.336 203.943 284.296 203.776 284.384 203.648C284.471 203.529 284.638 203.497 284.767 203.576C284.886 203.664 284.918 203.831 284.839 203.959C284.784 204.039 284.695 204.079 284.607 204.079C284.559 204.079 284.503 204.063 284.456 204.031ZM326.821 203.935C326.742 203.808 326.781 203.64 326.909 203.552C327.036 203.472 327.204 203.512 327.284 203.64C327.364 203.768 327.324 203.935 327.196 204.015C327.157 204.047 327.109 204.063 327.053 204.063C326.964 204.063 326.877 204.014 326.821 203.935ZM231.021 203.95C230.926 203.839 230.941 203.664 231.053 203.568C231.173 203.472 231.349 203.488 231.444 203.6C231.539 203.72 231.524 203.887 231.404 203.982C231.356 204.031 231.292 204.046 231.228 204.046C231.157 204.046 231.077 204.014 231.021 203.95ZM329.095 202.45C329.008 202.323 329.04 202.155 329.159 202.067C329.286 201.979 329.454 202.011 329.542 202.139C329.622 202.259 329.598 202.434 329.47 202.514C329.422 202.546 329.366 202.563 329.318 202.563C329.231 202.563 329.144 202.523 329.095 202.45ZM282.212 202.514C282.085 202.427 282.054 202.259 282.141 202.139C282.221 202.011 282.388 201.979 282.516 202.059C282.643 202.146 282.675 202.314 282.588 202.441C282.54 202.522 282.453 202.561 282.365 202.561C282.317 202.563 282.261 202.547 282.212 202.514ZM233.103 202.212C233 202.1 233.016 201.925 233.135 201.828C233.248 201.733 233.423 201.748 233.518 201.86C233.614 201.979 233.598 202.147 233.486 202.243C233.431 202.291 233.375 202.306 233.311 202.306C233.232 202.307 233.152 202.275 233.103 202.212ZM279.963 201.015C279.835 200.928 279.795 200.759 279.882 200.639C279.963 200.512 280.138 200.472 280.258 200.559C280.385 200.639 280.417 200.807 280.338 200.935C280.29 201.014 280.202 201.054 280.114 201.054C280.059 201.054 280.011 201.046 279.963 201.015ZM331.314 200.887C331.218 200.767 331.25 200.6 331.37 200.512C331.489 200.424 331.665 200.448 331.752 200.568C331.84 200.687 331.808 200.863 331.688 200.95C331.64 200.982 331.585 200.999 331.53 200.999C331.45 200.999 331.362 200.967 331.314 200.887ZM235.187 200.48C235.091 200.368 235.107 200.193 235.227 200.098C235.347 200.002 235.514 200.025 235.61 200.138C235.706 200.256 235.69 200.433 235.57 200.52C235.521 200.568 235.458 200.584 235.394 200.584C235.323 200.584 235.243 200.552 235.187 200.48ZM277.688 199.554C277.56 199.474 277.52 199.307 277.601 199.179C277.681 199.051 277.848 199.012 277.976 199.091C278.103 199.171 278.143 199.339 278.064 199.467C278.008 199.554 277.919 199.603 277.832 199.603C277.784 199.602 277.728 199.586 277.688 199.554ZM333.484 199.267C333.389 199.147 333.412 198.972 333.533 198.884C333.651 198.788 333.819 198.812 333.916 198.933C334.003 199.051 333.979 199.219 333.868 199.315C333.868 199.315 333.868 199.315 333.86 199.315C333.812 199.355 333.756 199.371 333.7 199.371C333.612 199.371 333.533 199.331 333.484 199.267ZM237.31 198.804C237.222 198.684 237.246 198.509 237.366 198.421C237.484 198.334 237.652 198.357 237.748 198.477C237.836 198.596 237.812 198.763 237.692 198.86C237.644 198.892 237.588 198.916 237.533 198.916C237.445 198.916 237.366 198.876 237.31 198.804ZM275.366 198.174C275.239 198.102 275.19 197.934 275.271 197.798C275.342 197.671 275.51 197.622 275.638 197.703C275.773 197.775 275.82 197.942 275.741 198.07C275.693 198.157 275.597 198.214 275.502 198.214C275.462 198.214 275.414 198.197 275.366 198.174ZM335.599 197.575C335.504 197.463 335.52 197.288 335.639 197.192C335.759 197.096 335.927 197.112 336.022 197.232C336.118 197.344 336.102 197.519 335.99 197.615C335.935 197.655 335.871 197.679 335.814 197.679C335.735 197.679 335.655 197.647 335.599 197.575ZM239.512 197.224C239.425 197.096 239.456 196.929 239.584 196.841C239.712 196.76 239.879 196.793 239.967 196.921C240.047 197.04 240.015 197.216 239.886 197.296C239.839 197.328 239.791 197.344 239.735 197.344C239.648 197.344 239.56 197.296 239.512 197.224ZM272.996 196.889C272.869 196.825 272.813 196.657 272.885 196.522C272.948 196.386 273.116 196.339 273.252 196.402C273.379 196.475 273.435 196.642 273.371 196.778C273.323 196.865 273.22 196.922 273.123 196.922C273.084 196.921 273.035 196.913 272.996 196.889ZM337.673 195.828C337.578 195.716 337.586 195.541 337.697 195.444H337.705C337.818 195.349 337.985 195.357 338.088 195.468C338.184 195.58 338.168 195.755 338.056 195.851C338.008 195.899 337.945 195.922 337.881 195.922C337.802 195.923 337.73 195.891 337.673 195.828ZM241.802 195.78C241.723 195.652 241.771 195.484 241.906 195.404C242.034 195.332 242.201 195.381 242.273 195.508C242.345 195.644 242.305 195.803 242.17 195.883C242.17 195.883 242.17 195.883 242.178 195.883C242.13 195.907 242.082 195.915 242.042 195.915C241.946 195.915 241.85 195.867 241.802 195.78ZM270.57 195.731C270.435 195.667 270.371 195.508 270.435 195.372C270.491 195.236 270.658 195.172 270.794 195.236C270.929 195.292 270.993 195.452 270.929 195.595C270.89 195.691 270.786 195.755 270.682 195.755C270.641 195.756 270.609 195.748 270.57 195.731ZM268.081 194.718C267.937 194.67 267.865 194.511 267.922 194.367C267.97 194.231 268.129 194.16 268.272 194.208C268.408 194.263 268.48 194.416 268.432 194.559C268.392 194.67 268.288 194.734 268.176 194.734C268.144 194.733 268.112 194.733 268.081 194.718ZM244.196 194.527C244.141 194.391 244.196 194.224 244.332 194.168C244.468 194.104 244.635 194.16 244.699 194.303C244.755 194.439 244.699 194.599 244.556 194.662C244.524 194.679 244.484 194.686 244.443 194.686C244.34 194.686 244.244 194.63 244.196 194.527ZM265.527 193.88C265.383 193.832 265.304 193.689 265.343 193.536C265.383 193.393 265.543 193.314 265.687 193.354C265.831 193.394 265.91 193.545 265.87 193.697C265.83 193.809 265.726 193.888 265.607 193.888C265.583 193.888 265.559 193.888 265.527 193.88ZM246.701 193.505C246.653 193.362 246.733 193.21 246.878 193.162C247.021 193.114 247.173 193.194 247.221 193.338C247.269 193.482 247.189 193.633 247.045 193.682C247.021 193.69 246.989 193.698 246.958 193.698C246.846 193.697 246.742 193.625 246.701 193.505ZM262.925 193.218C262.781 193.186 262.685 193.042 262.717 192.899C262.749 192.748 262.893 192.651 263.044 192.691C263.188 192.715 263.284 192.859 263.252 193.01C263.228 193.137 263.108 193.226 262.981 193.226C262.965 193.226 262.949 193.226 262.925 193.218ZM249.295 192.763C249.263 192.612 249.359 192.468 249.51 192.436C249.654 192.404 249.798 192.5 249.829 192.643C249.861 192.795 249.774 192.939 249.621 192.971C249.605 192.971 249.581 192.979 249.566 192.979C249.439 192.978 249.328 192.891 249.295 192.763ZM260.284 192.755C260.14 192.731 260.029 192.596 260.053 192.443C260.069 192.292 260.212 192.189 260.356 192.212H260.364C260.508 192.229 260.612 192.371 260.595 192.524C260.572 192.651 260.46 192.755 260.324 192.755C260.308 192.755 260.3 192.755 260.284 192.755ZM251.961 192.3C251.944 192.15 252.056 192.021 252.2 192.005C252.351 191.981 252.487 192.093 252.504 192.244C252.52 192.396 252.408 192.525 252.256 192.549C252.248 192.549 252.24 192.549 252.233 192.549C252.097 192.548 251.977 192.443 251.961 192.3ZM257.61 192.475C257.61 192.475 257.61 192.475 257.619 192.475C257.466 192.467 257.347 192.339 257.363 192.189C257.371 192.037 257.499 191.925 257.651 191.933C257.802 191.941 257.914 192.077 257.905 192.229C257.897 192.372 257.778 192.484 257.634 192.484C257.627 192.484 257.619 192.475 257.61 192.475ZM254.658 192.125C254.649 191.973 254.777 191.853 254.93 191.853C255.073 191.845 255.201 191.972 255.201 192.125C255.201 192.276 255.081 192.396 254.93 192.396C254.778 192.396 254.658 192.276 254.658 192.125Z" fill="white"/>
<path d="M201.296 210.718C201.264 210.718 201.224 210.71 201.192 210.694C201.16 210.678 201.128 210.662 201.104 210.63C201.08 210.607 201.057 210.583 201.049 210.543C201.033 210.512 201.025 210.48 201.025 210.44C201.025 210.367 201.057 210.304 201.105 210.248C201.129 210.224 201.161 210.2 201.193 210.192C201.257 210.16 201.337 210.16 201.4 210.192C201.44 210.2 201.464 210.224 201.488 210.248C201.543 210.304 201.568 210.367 201.568 210.44C201.568 210.48 201.568 210.512 201.552 210.543C201.536 210.583 201.521 210.607 201.489 210.63C201.465 210.662 201.433 210.679 201.401 210.694C201.368 210.71 201.336 210.718 201.296 210.718Z" fill="white"/>
</g>
<path d="M245.055 129L243.191 126.993C239.883 130.079 235.482 131.987 230.771 131.987C222.88 131.987 216.624 126.626 215.2 119.346L212.405 120.08L209.852 120.751C210.602 124.568 212.359 128.044 214.949 130.834C223.049 139.559 237.406 139.559 246.756 130.834L245.055 129Z" fill="white"/>
<path d="M249.036 99.0273L246.598 101.303L244.914 102.875C247.779 105.956 249.387 110.221 249.049 114.931C248.711 119.64 246.499 123.907 243.191 126.992L244.65 128.565L246.757 130.834C251.277 126.616 254.057 120.896 254.485 114.931C254.911 108.971 252.952 103.245 249.036 99.0273Z" fill="#263238"/>
<path d="M249.036 99.0275C240.937 90.3085 226.579 90.3085 217.23 99.0275C211.153 104.704 208.333 113.001 209.851 120.751L213.01 119.922L215.199 119.346C214.927 117.939 214.833 116.454 214.943 114.931C215.618 105.516 223.8 97.88 233.215 97.88C237.925 97.88 242.048 99.7872 244.914 102.874L247.072 100.86L249.036 99.0275Z" fill="#6A6AF4"/>
<path d="M271.956 129.002L274.107 126.994C271.242 123.907 269.64 119.642 269.977 114.932C270.543 107.041 276.38 100.401 283.799 98.4549L283.261 95.7129L282.769 93.208C278.88 94.2326 275.26 96.238 272.269 99.0286C262.919 107.754 261.89 122.111 269.989 130.835L271.956 129.002Z" fill="white"/>
<path d="M301.798 130.834L299.685 128.559L298.227 126.987C294.924 130.074 290.522 131.987 285.812 131.987C281.102 131.987 276.973 130.08 274.108 126.993L272.423 128.565L269.992 130.834C273.907 135.053 279.458 137.422 285.423 137.422C291.38 137.423 297.277 135.053 301.798 130.834Z" fill="#263238"/>
<path d="M301.798 130.834C311.141 122.109 312.171 107.752 304.077 99.0277C298.807 93.3579 290.669 91.1323 282.77 93.2071L283.377 96.3065L283.799 98.4547C285.233 98.0821 286.731 97.8818 288.255 97.8818C297.67 97.8818 304.759 105.517 304.084 114.932C303.746 119.642 301.533 123.902 298.226 126.988L300.095 129.001L301.798 130.834Z" fill="#6A6AF4"/>
<path opacity="0.3" d="M339.487 94.4455C339.944 94.4455 340.359 94.6219 340.658 94.9427C340.958 95.2651 341.105 95.696 341.072 96.1556L340.086 109.92C340.015 110.902 339.127 111.731 338.147 111.731H324.383C323.926 111.731 323.51 111.554 323.212 111.234C322.912 110.911 322.765 110.481 322.798 110.021L323.784 96.2562C323.854 95.2747 324.743 94.4455 325.722 94.4455H339.487ZM339.487 93.7417H325.722C324.367 93.7417 323.178 94.8509 323.081 96.2059L322.095 109.971C321.997 111.326 323.027 112.435 324.383 112.435H338.147C339.503 112.435 340.691 111.326 340.789 109.971L341.775 96.2059C341.872 94.8509 340.843 93.7417 339.487 93.7417Z" fill="#6A6AF4"/>
<path opacity="0.3" d="M337.79 118.131C338.246 118.131 338.662 118.308 338.961 118.628C339.261 118.95 339.407 119.381 339.375 119.84L338.388 133.605C338.318 134.586 337.43 135.416 336.45 135.416H322.685C322.229 135.416 321.813 135.239 321.515 134.918C321.215 134.596 321.068 134.166 321.101 133.706L322.087 119.942C322.157 118.96 323.045 118.131 324.025 118.131H337.79ZM337.79 117.426H324.025C322.67 117.426 321.481 118.535 321.385 119.89L320.397 133.655C320.3 135.011 321.33 136.119 322.685 136.119H336.45C337.805 136.119 338.994 135.01 339.091 133.655L340.078 119.89C340.175 118.535 339.145 117.426 337.79 117.426Z" fill="#6A6AF4"/>
<path d="M317.638 194.294C318.024 194.294 318.375 194.442 318.624 194.71C318.875 194.979 318.998 195.342 318.97 195.732C318.909 196.579 318.171 197.269 317.324 197.269C316.937 197.269 316.587 197.122 316.337 196.854C316.087 196.585 315.964 196.222 315.992 195.833C316.053 194.984 316.791 194.294 317.638 194.294ZM317.638 193.59C316.427 193.59 315.376 194.571 315.289 195.781C315.202 196.992 316.114 197.972 317.324 197.972C318.533 197.972 319.585 196.992 319.672 195.781C319.759 194.571 318.849 193.59 317.638 193.59Z" fill="#6A6AF4"/>
<path d="M317.814 193.601L317.462 193.577L317.513 192.875L317.864 192.9L317.814 193.601Z" fill="#6A6AF4"/>
<path d="M317.967 191.458L317.616 191.433L317.719 189.992L318.071 190.017L317.967 191.458ZM318.174 188.576L317.823 188.552L317.927 187.11L318.278 187.134L318.174 188.576ZM318.38 185.693L318.029 185.669L318.133 184.227L318.483 184.252L318.38 185.693ZM318.586 182.812L318.235 182.787L318.339 181.345L318.69 181.37L318.586 182.812ZM318.793 179.929L318.442 179.905L318.546 178.463L318.896 178.488L318.793 179.929ZM319 177.047L318.65 177.022L318.753 175.58L319.103 175.605L319 177.047ZM319.207 174.165L318.857 174.14L318.96 172.699L319.31 172.723L319.207 174.165ZM319.414 171.283L319.062 171.258L319.165 169.816L319.516 169.841L319.414 171.283ZM319.619 168.4L319.269 168.375L319.373 166.934L319.724 166.959L319.619 168.4ZM319.826 165.518L319.475 165.493L319.579 164.051L319.929 164.076L319.826 165.518ZM320.033 162.636L319.682 162.611L319.785 161.17L320.137 161.195L320.033 162.636Z" fill="#6A6AF4"/>
<path d="M319.933 159.018L319.883 159.72L320.234 159.745L320.284 159.043L319.933 159.018Z" fill="#6A6AF4"/>
<path d="M334.988 159.422H208.627C207.914 159.422 207.26 159.141 206.785 158.631C206.308 158.119 206.075 157.445 206.127 156.729L206.75 148.03C206.854 146.576 208.122 145.392 209.577 145.392H335.94C336.652 145.392 337.306 145.672 337.78 146.181C338.257 146.693 338.491 147.368 338.439 148.085L337.816 156.784C337.711 158.238 336.442 159.422 334.988 159.422ZM209.578 146.156C208.515 146.156 207.588 147.021 207.512 148.085L206.889 156.784C206.853 157.285 207.015 157.757 207.344 158.111C207.672 158.463 208.128 158.658 208.627 158.658H334.988C336.051 158.658 336.978 157.793 337.055 156.729L337.678 148.03C337.714 147.528 337.552 147.056 337.222 146.702C336.894 146.35 336.439 146.156 335.94 146.156H209.578Z" fill="#6A6AF4"/>
<path opacity="0.8" fill-rule="evenodd" clip-rule="evenodd" d="M332.275 151.001H212.492C211.841 151.001 211.347 150.468 211.394 149.817C211.44 149.166 212.011 148.634 212.662 148.634H332.445C333.097 148.634 333.591 149.166 333.544 149.817C333.497 150.468 332.926 151.001 332.275 151.001Z" fill="white"/>
<path opacity="0.8" fill-rule="evenodd" clip-rule="evenodd" d="M312.313 155.992H212.135C211.483 155.992 210.989 155.459 211.036 154.808C211.082 154.157 211.653 153.625 212.305 153.625H312.482C313.133 153.625 313.627 154.158 313.581 154.808C313.535 155.459 312.964 155.992 312.313 155.992Z" fill="white"/>
</svg>
