<svg width="500" height="500" viewBox="0 0 500 500" fill="none" xmlns="http://www.w3.org/2000/svg">
<path d="M113.342 354.719C113.342 354.719 117.083 341.938 125.187 342.874C133.292 343.809 134.539 347.55 141.396 344.744C148.254 341.939 150.748 332.899 161.97 335.081C173.192 337.263 174.439 349.732 187.22 348.797C200.001 347.862 204.365 347.55 209.04 354.72H113.342V354.719Z" fill="#D8EAF2"/>
<path d="M147.396 88.2179C147.396 88.2179 152.523 76.8809 166.523 80.2609C180.364 83.6019 186.326 63.7789 198.651 65.0539C210.976 66.3289 206.557 77.7109 222.282 80.2609C238.007 82.8109 242.558 76.6069 249.182 88.2179H147.396Z" fill="#D8EAF2"/>
<path d="M293.87 137.963C293.87 137.963 298.997 126.626 312.997 130.005C326.838 133.346 332.8 113.523 345.125 114.798C357.45 116.073 353.031 127.455 368.756 130.005C384.481 132.555 389.032 126.351 395.655 137.963H293.87Z" fill="#D8EAF2"/>
<path d="M67.427 280.184C56.681 266.091 52.357 248.028 56.074 230.7C59.189 216.182 67.437 203.589 87.972 211.289C137.117 229.717 158.846 213.464 166.011 187.738C173.176 162.011 182.814 101.568 227.068 109.8C271.323 118.032 274.004 200.477 314.229 190.898C354.453 181.319 393.316 175.153 419.262 202.978C445.207 230.803 463.392 289.656 438.957 320.763C414.522 351.87 361.562 325.023 340.845 364.994C320.129 404.965 233.228 406.815 227.068 364.205C220.908 321.595 175.218 291.516 135.313 312.575C108.999 326.462 82.454 299.891 67.427 280.184Z" fill="#D8EAF2"/>
<path d="M125.972 449.138C169.223 449.138 204.284 445.46 204.284 440.924C204.284 436.388 169.223 432.71 125.972 432.71C82.7215 432.71 47.66 436.388 47.66 440.924C47.66 445.46 82.7215 449.138 125.972 449.138Z" fill="#D8EAF2"/>
<path d="M163.49 159.55C163.47 159.69 163.46 160.01 163.32 160.39L153.2 195.2C152.01 199.29 148.33 202.15 144.08 202.3C143.96 202.3 143.84 202.31 143.72 202.31C139.61 202.31 135.91 199.75 134.47 195.87L132.78 191.32L131.42 187.65L117.67 150.56C115.78 145.45 118.38 139.77 123.49 137.88C128.6 135.98 134.28 138.59 136.17 143.7L141.75 158.75L142.57 160.96L142.59 161.01L144.34 155C144.92 152.99 146.78 151.59 148.87 151.66C151.32 151.75 154.14 152.64 156.52 153.66C158.68 154.58 163.92 156.03 163.49 159.55Z" fill="#00C2C4"/>
<path d="M132.78 191.32L131.42 187.65C131.39 178.73 132.41 168.92 132.47 168.31C132.51 167.95 132.83 167.7 133.18 167.74C133.53 167.77 133.79 168.09 133.75 168.44C133.73 168.61 132.38 181.64 132.78 191.32Z" fill="#009496"/>
<path d="M144.758 150.716C144.758 150.716 142.891 153.225 143.188 155.579C143.188 155.579 160.014 160.987 163.639 161.772C163.639 161.772 165.257 159.068 164.821 156.756C164.821 156.756 154.964 151 144.758 150.716Z" fill="#009496"/>
<path d="M137.603 177.983C137.659 177.996 137.712 178.004 137.766 178.004C138.065 178.004 138.337 177.801 138.414 177.497L142.572 160.955L141.751 158.744L139.927 166.003L139.018 169.624L137.122 177.174C137.029 177.53 137.246 177.893 137.603 177.983Z" fill="#009496"/>
<path d="M136.045 173.365C136.255 173.365 136.461 173.266 136.591 173.081L141.087 166.673C141.299 166.372 141.226 165.956 140.924 165.744C140.623 165.533 140.207 165.605 139.995 165.907L135.499 172.315C135.287 172.616 135.36 173.032 135.662 173.244C135.779 173.326 135.913 173.365 136.045 173.365Z" fill="#009496"/>
<path d="M160.154 156.015L162.18 144.001C162.18 144.001 159.019 142.987 153.531 142.44C153.531 142.44 151.411 147.246 149.528 153.184C153.029 154.719 157.97 156.244 160.154 156.015Z" fill="#FDBB92"/>
<path d="M166.81 135.426C166.81 135.426 163.374 135.066 160.044 135.891C160.968 135.412 161.752 134.963 162.307 134.407C166.748 129.958 171.17 129.044 171.545 130.237C171.922 131.427 166.81 135.426 166.81 135.426Z" fill="#FD9676"/>
<path d="M167.88 137.488C167.88 137.488 172.236 135.255 173.912 132.313C175.588 129.371 181.972 125.375 180.229 123.678C178.759 122.246 170.672 131.396 167.012 133.142C163.153 134.982 167.88 137.488 167.88 137.488Z" fill="#FD9676"/>
<path d="M164.885 135.305C164.885 135.305 172.061 133.447 174.388 130.798C176.715 128.149 182.629 125.356 182.597 124.055C182.565 122.754 178.004 124.326 174.573 127.169C171.142 130.013 164.885 135.305 164.885 135.305Z" fill="#FDBB92"/>
<path d="M159.015 145.788C158.113 145.76 157.327 145.637 156.643 145.448C155.839 145.223 155.163 144.827 154.629 144.316C153.102 142.852 152.733 140.464 153.767 138.575C153.771 138.57 153.773 138.563 153.777 138.558C154.27 137.825 154.987 137.103 155.94 136.426C155.985 136.395 156.029 136.363 156.076 136.331C156.257 136.21 156.437 136.093 156.616 135.979C160.42 133.638 166.033 133.689 166.033 133.689C166.033 133.689 173.495 129.446 176.679 127.591C179.864 125.738 184.813 123.929 184.374 125.559C183.935 127.19 176.638 131.848 173.713 136.216C170.789 140.584 159.015 145.788 159.015 145.788Z" fill="#FDBB92"/>
<path d="M174.363 428.416C172.171 424.88 152.517 406.029 152.517 406.029C152.517 406.029 148.499 409.178 148.693 412.646C148.878 415.948 148.739 433.329 148.788 435.16H151.173L152.517 427.23C152.517 427.23 157.951 435.923 162.03 438.9C166.109 441.877 179.894 441.342 183.201 440.901C186.508 440.46 176.555 431.952 174.363 428.416Z" fill="#181818"/>
<path d="M150.163 397.425L152.773 405.18C152.773 405.18 151.67 407.716 152.773 411.464C153.875 415.212 159.608 421.056 162.034 425.576C164.46 430.096 172.838 433.183 175.043 432.191C177.248 431.199 170.854 423.592 168.979 419.623C167.105 415.654 165.615 411.493 164.238 408.378C163.014 405.609 159.951 396.917 159.951 396.917L150.163 397.425Z" fill="#FDBB92"/>
<path d="M96.9221 404.315C96.9221 404.315 101.387 406.134 101.552 412.418C101.717 418.702 101.552 434.908 101.552 434.908H99.2731L98.0371 429.193C98.0371 429.193 97.2511 435.405 94.1091 439.374C90.9671 443.343 84.1871 443.508 79.7221 442.847C75.2571 442.186 78.5641 433.917 80.3831 429.287C82.2021 424.657 86.0081 413.577 86.0081 413.577L96.9221 404.315Z" fill="#181818"/>
<path d="M95.7411 395.329C95.7411 395.329 95.5991 402.992 96.9221 404.315C98.2451 405.638 100.064 409.938 98.7411 415.229C97.4181 420.521 96.5361 428.238 93.4491 431.546C90.3621 434.853 82.3141 434.964 81.6531 432.318C80.9911 429.672 85.7321 419.86 85.9531 414.789C86.1731 409.718 87.0551 396.047 87.0551 396.047L95.7411 395.329Z" fill="#FDBB92"/>
<path d="M70.14 253.873C70.14 253.873 68.305 243.883 70.14 237.409L132.856 236.331C132.856 236.331 134.25 256.073 135.647 263.571C135.647 263.571 86.973 265.787 70.14 253.873Z" fill="#2A83EC"/>
<path d="M98.0761 271.54C97.1241 294.187 95.8331 329.271 96.8361 332.668C98.2781 337.564 98.7881 358.227 98.7671 370.558C98.7591 375.457 98.0241 392.872 98.0921 400.906L85.2221 401.741C82.6391 382.19 76.4611 348.43 75.6101 339.912C75.3851 337.661 75.1081 334.205 74.7991 329.936C74.7551 329.381 74.7131 328.806 74.6711 328.23C73.5251 312.05 71.9781 285.918 70.9631 268.314C70.6441 262.787 70.3791 258.1 70.1941 254.829C70.0161 251.66 69.9141 249.818 69.9141 249.818L98.9271 252.398C98.9271 252.398 98.8981 253.023 98.8431 254.167C98.7061 257.129 98.4131 263.564 98.0761 271.54Z" fill="#2A83EC"/>
<path d="M98.842 254.167C98.706 257.129 98.413 263.564 98.075 271.54C89.693 271.582 80.526 270.708 70.962 268.313C70.643 262.786 70.378 258.099 70.193 254.828L98.842 254.167Z" fill="#0063CB"/>
<path d="M85.209 329.659C85.284 330.096 84.996 330.512 84.558 330.587C83.406 330.779 82.275 330.864 81.198 330.864C78.702 330.864 76.462 330.427 74.798 329.936C74.755 329.381 74.713 328.805 74.67 328.229C76.878 328.912 80.462 329.669 84.292 329.008C84.729 328.934 85.134 329.222 85.209 329.659Z" fill="#0063CB"/>
<path d="M95.053 396.917H96.386C95.762 347.407 92.836 333.82 92.564 332.606L94.71 261.773C94.721 261.405 94.432 261.097 94.064 261.086C93.697 261.069 93.389 261.364 93.377 261.732L91.228 332.65C91.226 332.708 91.232 332.766 91.245 332.823C91.279 332.964 94.423 346.623 95.053 396.917Z" fill="#0063CB"/>
<path d="M162.684 401.74C157.613 402.622 154.305 401.913 149.194 402.509C144.782 389.231 134.233 362.348 131.813 356.091C127.1 343.909 126.48 326.758 126.48 326.758L107.641 271.094L101.886 254.095L101.221 252.13L132.859 248.589L133.746 253.357L135.936 265.107L146.545 322.032L146.833 323.61L162.684 401.74Z" fill="#2A83EC"/>
<path d="M135.937 265.108C129.976 267.186 120.013 270.015 107.641 271.095L101.886 254.096L133.746 253.358L135.937 265.108Z" fill="#0063CB"/>
<path d="M147.203 398.248L148.148 404.16L164.004 403.253L163.534 396.954L147.203 398.248Z" fill="#0063CB"/>
<path d="M146.832 323.611C145.616 323.782 144.496 323.835 143.525 323.835C141.456 323.835 140.058 323.579 139.93 323.558C139.493 323.473 139.215 323.057 139.301 322.619C139.376 322.182 139.802 321.894 140.229 321.979C140.272 321.99 143.013 322.491 146.544 322.032L146.832 323.611Z" fill="#0063CB"/>
<path d="M151.548 399.466L150.238 399.726C138.54 365.83 136.29 358.26 134.24 351.95C130.85 341.51 130.5 325.62 130.48 324.12L108.17 261.98C108.05 261.63 108.23 261.25 108.57 261.12C108.92 261 109.3 261.18 109.43 261.53L131.77 323.77C131.8 323.84 131.81 323.92 131.81 323.99C131.81 324.16 132.03 340.82 135.51 351.53C137.58 357.9 139.85 365.55 151.548 399.466Z" fill="#0063CB"/>
<path d="M82.828 396.598L83.773 402.51L99.628 401.603V395.267L82.828 396.598Z" fill="#0063CB"/>
<path d="M131.396 264.362C131.357 264.367 131.318 264.373 131.278 264.378C123.673 265.485 115.961 266.503 108.226 267.1C107.784 267.134 107.339 267.168 106.894 267.197C98.711 267.778 90.505 267.864 82.382 267.066C79.718 266.804 77.062 266.443 74.432 265.962C68.557 264.889 64.595 259.334 65.548 253.438C66.443 247.903 67.029 242.659 67.414 237.729C67.471 236.996 67.526 236.271 67.574 235.554C67.964 229.799 68.089 224.5 68.131 219.685C68.134 219.277 68.136 218.871 68.139 218.471C68.139 218.29 68.142 218.11 68.142 217.932C68.145 217.657 68.145 217.385 68.145 217.116C68.148 216.933 68.148 216.752 68.148 216.574C68.148 216.2 68.151 215.833 68.148 215.467C68.153 214.342 68.151 213.248 68.153 212.185V211.905C68.156 208.231 68.171 204.941 68.318 202.058C68.323 201.927 68.329 201.799 68.339 201.671C68.373 201.072 68.402 200.478 68.431 199.892C68.457 199.324 68.486 198.761 68.507 198.207C68.567 196.645 68.609 195.14 68.633 193.703C68.649 192.494 68.649 191.337 68.63 190.238C68.607 189.019 68.565 187.875 68.494 186.818C68.468 186.467 68.444 186.106 68.416 185.735C68.374 185.172 68.327 184.589 68.277 183.99C68.248 183.626 68.217 183.26 68.18 182.886C68.164 182.724 68.151 182.559 68.135 182.391C68.132 182.349 68.127 182.31 68.125 182.271C68.104 182.041 68.083 181.81 68.062 181.577C68.038 181.349 68.018 181.122 67.994 180.891C67.957 180.491 67.918 180.082 67.874 179.672C67.686 177.749 67.466 175.731 67.241 173.664C67.168 173.015 67.097 172.358 67.024 171.699C66.909 170.678 66.791 169.647 66.679 168.622C66.6 167.957 66.527 167.295 66.451 166.633C65.318 156.66 64.25 147.114 64.63 144.083C65.287 138.836 90.697 124.988 90.697 124.988L105.948 124.509C105.948 124.509 127.566 133.215 131.366 138.415C134.381 142.539 133.632 152.07 132.714 164.118C132.659 164.822 132.607 165.531 132.552 166.251C132.426 167.939 132.298 169.671 132.183 171.438C132.157 171.851 132.128 172.267 132.102 172.686C132.084 172.95 132.068 173.217 132.055 173.484C132.037 173.756 132.021 174.028 132.005 174.303C131.992 174.554 131.976 174.803 131.963 175.054C131.947 175.326 131.934 175.598 131.921 175.873C131.895 176.375 131.869 176.878 131.848 177.385C131.827 177.804 131.809 178.225 131.793 178.646C131.788 178.722 131.785 178.8 131.785 178.876C131.772 179.148 131.761 179.42 131.754 179.692L131.746 179.901C131.736 180.257 131.722 180.621 131.712 180.979C131.699 181.411 131.689 181.84 131.678 182.269C131.673 182.468 131.67 182.672 131.668 182.873C131.663 183.051 131.66 183.234 131.657 183.415C131.657 183.506 131.654 183.595 131.654 183.69C131.649 183.939 131.646 184.187 131.644 184.441C131.641 184.865 131.639 185.294 131.639 185.734V186.184C131.639 187.474 131.652 188.827 131.678 190.237C131.696 191.362 131.725 192.519 131.757 193.702C131.794 194.982 131.835 196.29 131.888 197.622C131.893 197.816 131.901 198.009 131.909 198.205C131.927 198.718 131.948 199.234 131.969 199.754C131.998 200.387 132.027 201.029 132.053 201.67C132.121 203.23 132.27 205.001 132.48 206.954C132.506 207.208 132.535 207.464 132.566 207.723C132.613 208.139 132.66 208.563 132.718 208.995C132.749 209.265 132.781 209.534 132.818 209.809C132.923 210.625 133.035 211.471 133.158 212.337C133.168 212.413 133.179 212.489 133.189 212.565C133.239 212.911 133.291 213.259 133.341 213.612C133.467 214.476 133.603 215.36 133.744 216.263C133.93 217.448 134.129 218.665 134.338 219.908C134.375 220.125 134.414 220.348 134.451 220.57C136.081 230.163 138.321 241.144 140.501 251.193C141.84 257.388 137.669 263.446 131.396 264.362Z" fill="#00C2C4"/>
<path d="M119.625 215.95C119.598 215.95 119.57 215.948 119.542 215.945C107.948 214.443 97.149 207.386 90.131 201.731C82.548 195.621 77.617 189.778 77.568 189.719C77.34 189.447 77.375 189.042 77.647 188.814C77.919 188.586 78.324 188.621 78.552 188.893C78.744 189.122 98.06 211.866 119.707 214.671C120.059 214.717 120.307 215.039 120.262 215.39C120.22 215.714 119.943 215.95 119.625 215.95Z" fill="#009496"/>
<path d="M108.227 267.095C107.785 267.129 107.34 267.163 106.895 267.192C110.009 243.59 103.459 162.237 101.899 143.704C102.153 144.063 102.401 144.429 102.647 144.803C102.647 144.803 102.854 144.164 103.165 143.134C104.687 160.952 111.349 242.538 108.227 267.095Z" fill="#009496"/>
<path d="M107.284 157.935C107.935 157.935 108.462 157.408 108.462 156.757C108.462 156.106 107.935 155.579 107.284 155.579C106.633 155.579 106.106 156.106 106.106 156.757C106.106 157.408 106.633 157.935 107.284 157.935Z" fill="#009496"/>
<path d="M108.692 172.961C109.343 172.961 109.87 172.434 109.87 171.783C109.87 171.132 109.343 170.605 108.692 170.605C108.041 170.605 107.514 171.132 107.514 171.783C107.514 172.434 108.041 172.961 108.692 172.961Z" fill="#009496"/>
<path d="M109.847 188.021C110.498 188.021 111.025 187.494 111.025 186.843C111.025 186.192 110.498 185.665 109.847 185.665C109.196 185.665 108.669 186.192 108.669 186.843C108.669 187.494 109.196 188.021 109.847 188.021Z" fill="#009496"/>
<path d="M110.75 203.114C111.4 203.114 111.928 202.587 111.928 201.936C111.928 201.285 111.4 200.758 110.75 200.758C110.099 200.758 109.572 201.285 109.572 201.936C109.572 202.587 110.099 203.114 110.75 203.114Z" fill="#009496"/>
<path d="M111.4 218.239C112.051 218.239 112.578 217.712 112.578 217.061C112.578 216.41 112.051 215.883 111.4 215.883C110.749 215.883 110.222 216.41 110.222 217.061C110.222 217.712 110.749 218.239 111.4 218.239Z" fill="#009496"/>
<path d="M111.795 233.398C112.446 233.398 112.973 232.871 112.973 232.22C112.973 231.569 112.446 231.042 111.795 231.042C111.144 231.042 110.617 231.569 110.617 232.22C110.617 232.871 111.144 233.398 111.795 233.398Z" fill="#009496"/>
<path d="M111.936 248.59C112.587 248.59 113.114 248.063 113.114 247.412C113.114 246.761 112.587 246.234 111.936 246.234C111.285 246.234 110.758 246.761 110.758 247.412C110.758 248.063 111.285 248.59 111.936 248.59Z" fill="#009496"/>
<path d="M97.119 152.613C97.115 152.613 97.11 152.613 97.106 152.613C96.874 152.608 96.662 152.481 96.548 152.279C94.402 148.449 82.786 134.33 82.669 134.188C82.439 133.909 82.479 133.497 82.758 133.267C83.037 133.037 83.449 133.077 83.679 133.356C84.129 133.902 94.049 145.96 97.144 150.746C98.611 148.74 100.32 147.736 102.238 147.773C102.599 147.779 102.887 148.077 102.881 148.438C102.875 148.799 102.583 149.098 102.216 149.081C100.516 149.048 99.025 150.106 97.676 152.302C97.558 152.495 97.346 152.613 97.119 152.613Z" fill="#009496"/>
<path d="M108.384 150.716C108.218 150.716 108.056 150.653 107.933 150.536C105.557 148.275 103.162 148.985 103.138 148.992C102.793 149.099 102.426 148.906 102.319 148.561C102.212 148.216 102.405 147.849 102.75 147.742C102.867 147.706 105.407 146.953 108.076 148.945L114.896 129.11C115.014 128.768 115.386 128.587 115.728 128.704C116.07 128.822 116.251 129.194 116.134 129.535L109.003 150.274C108.931 150.485 108.756 150.644 108.54 150.697C108.488 150.71 108.436 150.716 108.384 150.716Z" fill="#009496"/>
<path d="M88.1321 130.882C88.1321 130.882 96.2841 135.127 102.648 144.807C102.648 144.807 106.913 131.608 105.985 128.502C105.985 128.502 92.1301 125.636 88.1321 130.882Z" fill="#FDBB92"/>
<path d="M112.99 253.095C100.593 253.095 85.324 247.139 84.598 246.853C84.256 246.718 84.087 246.331 84.222 245.988C84.357 245.645 84.744 245.477 85.087 245.612C85.285 245.69 105.022 253.388 117.496 251.44C117.862 251.384 118.201 251.632 118.257 251.996C118.314 252.36 118.065 252.701 117.701 252.758C116.207 252.992 114.623 253.095 112.99 253.095Z" fill="#009496"/>
<path d="M71.096 168.373L67.237 173.661C67.165 173.01 67.093 172.354 67.021 171.696L70.019 167.589C70.235 167.29 70.654 167.226 70.95 167.442C71.248 167.658 71.312 168.077 71.096 168.373Z" fill="#009496"/>
<path d="M63.1831 228.15C63.1831 228.15 63.6371 231.604 62.3301 234.668C61.0231 237.732 63.9791 238.693 64.6171 235.041C65.1551 231.963 63.1831 228.15 63.1831 228.15Z" fill="#FD9676"/>
<path d="M66.681 209.97C66.681 209.97 68.259 207.947 71.014 209.751C73.769 211.555 75.366 216.198 74.131 217.296C72.897 218.393 71.124 213.724 69.47 214.195C67.816 214.666 69.661 224.227 69.968 226.921C70.275 229.615 69.484 240.081 67.167 238.897C64.85 237.713 65.675 235.305 64.072 230.756C62.433 226.105 60.644 221.919 59.765 219.269C58.235 214.65 66.681 209.97 66.681 209.97Z" fill="#FDBB92"/>
<path d="M60.233 218.239C60.233 218.239 45.055 209.435 40.519 205.167L50.289 197.108L66.681 209.97C66.681 209.97 67.735 220.012 60.233 218.239Z" fill="#FDBB92"/>
<path d="M62.702 225.801C62.702 225.801 64.318 232.383 63.683 235.348C62.995 238.563 65.062 240.691 66.488 235.528C67.914 230.365 62.702 225.801 62.702 225.801Z" fill="#FDBB92"/>
<path d="M75.516 143.045C74.297 142.079 71.675 138.958 67.35 140.606C65.858 141.174 64.577 142.186 63.6 143.449L30.394 186.407C27.391 190.38 27.82 195.967 31.394 199.434L43.348 212.898C48.315 207.931 53.282 202.964 58.249 197.997L52.176 192.104L51.472 191.421L51.395 191.346L51.827 190.775L52.192 190.29L77.429 157.867C80.714 153.517 79.787 146.428 75.516 143.045Z" fill="#00C2C4"/>
<path d="M56.395 194.396L40.519 210.97L43.921 214.459L60.058 198.758L56.395 194.396Z" fill="#009496"/>
<path d="M52.176 192.102L42.096 192.233H42.088C41.723 192.233 41.427 191.94 41.421 191.574C41.416 191.206 41.712 190.905 42.08 190.899L50.214 190.795L51.827 190.774L51.395 191.345L51.472 191.42L52.176 192.102Z" fill="#009496"/>
<path d="M51.827 190.774L51.395 191.345L51.472 191.42L50.213 190.796L44.917 188.159C44.586 187.996 44.453 187.596 44.616 187.266C44.781 186.935 45.181 186.802 45.512 186.967L52.192 190.29L51.827 190.774Z" fill="#009496"/>
<path d="M103.33 86.723C103.33 86.723 109.418 101.871 105.741 112.815C102.064 123.759 97.258 127.307 105.191 129.351C113.124 131.395 119.173 132.925 125.336 135.203C132.776 137.953 121.871 98.593 116.43 85.691C110.862 72.491 93.927 73.449 93.927 73.449L103.33 86.723Z" fill="#181818"/>
<path d="M115.936 96.5319C115.936 96.5319 120.333 80.2239 106.724 74.8909C93.1151 69.5569 81.2691 76.8909 79.1351 85.6909C77.0021 94.4909 82.9821 99.1769 82.9821 99.1769L115.936 96.5319Z" fill="#181818"/>
<path d="M99.282 132.065C103.049 132.529 104.257 130.709 105.189 129.351L104.968 122.753L104.84 118.905L104.848 118.334L103.157 118.398L90.357 116.691L89.861 124.731L89.625 128.544C91.425 129.798 93.806 131.39 99.282 132.065Z" fill="#FDBB92"/>
<path d="M104.968 122.753C101.421 125.036 93.805 125.377 89.861 124.732C89.848 124.732 89.837 124.729 89.824 124.727L90.357 116.692L103.157 118.399L104.848 118.335L104.84 118.906L104.968 122.753Z" fill="#181818"/>
<path d="M111.41 97.3039C111.41 97.3039 118.38 94.0979 117.912 100.75C117.397 108.073 111.294 106.928 110.227 106.617L111.41 97.3039Z" fill="#FD9676"/>
<path d="M107.935 109.86C107.935 112.617 110.178 114.86 112.935 114.86C115.692 114.86 117.935 112.617 117.935 109.86C117.935 107.508 116.3 105.534 114.111 105.004C114.108 105.009 114.106 105.015 114.103 105.023C113.77 105.166 113.736 105.445 113.748 105.74C115.676 106.119 117.135 107.823 117.135 109.86C117.135 112.175 115.252 114.06 112.935 114.06C110.62 114.06 108.735 112.175 108.735 109.86C108.735 108.815 109.119 107.857 109.754 107.124C109.919 106.935 110.101 106.759 110.295 106.601C110.079 106.457 109.868 106.284 109.674 106.078C109.495 106.23 109.325 106.398 109.17 106.577C108.401 107.455 107.935 108.604 107.935 109.86Z" fill="white"/>
<path d="M113.248 104.015C113.234 104.015 113.22 104.014 113.205 104.013C112.986 103.99 112.826 103.793 112.85 103.573C113.194 100.327 115.333 98.9009 115.424 98.8419C115.609 98.7219 115.857 98.7739 115.978 98.9589C116.098 99.1439 116.046 99.3909 115.861 99.5119C115.781 99.5649 113.948 100.808 113.646 103.658C113.623 103.862 113.45 104.015 113.248 104.015Z" fill="#FD7764"/>
<path d="M115.658 102.311C115.544 102.311 115.43 102.262 115.351 102.168C115.337 102.152 114.734 101.452 114.036 101.548C113.818 101.579 113.615 101.425 113.585 101.207C113.555 100.988 113.708 100.786 113.927 100.756C115.065 100.598 115.929 101.612 115.965 101.655C116.107 101.824 116.084 102.077 115.914 102.218C115.839 102.28 115.748 102.311 115.658 102.311Z" fill="#FD7764"/>
<path d="M103.879 120.857C98.144 122.415 91.091 120.552 86.705 113.426C85.989 112.263 85.209 110.841 84.68 109.112C84.606 108.871 84.535 108.624 84.466 108.372C82.331 100.607 82.654 89.033 82.654 89.033C86.37 81.175 96.939 81.543 103.053 81.633C109.17 81.723 115.605 83.797 115.277 95.825C114.945 108.022 109.149 119.425 103.879 120.857Z" fill="#FDBB92"/>
<path d="M105.985 100.404C105.977 101.548 106.486 102.479 107.124 102.484C107.764 102.489 108.289 101.564 108.297 100.42C108.3 99.969 108.222 99.553 108.089 99.212C109.233 99.268 109.614 98.559 109.614 98.559C108.875 98.658 107.889 98.492 107.422 98.399C107.257 98.364 107.155 98.34 107.155 98.34C106.519 98.334 105.993 99.257 105.985 100.404Z" fill="#181818"/>
<path d="M107.156 98.34C107.156 98.34 107.257 98.364 107.423 98.399C107.337 98.361 107.249 98.34 107.156 98.34Z" fill="#181818"/>
<path d="M113.786 105.268C113.791 105.968 112.371 106.546 110.614 106.559C108.857 106.572 107.428 106.015 107.423 105.315C107.418 104.615 108.838 104.037 110.596 104.024C112.352 104.011 113.781 104.568 113.786 105.268Z" fill="#FD9676"/>
<path d="M94.4961 105.409C94.5011 106.109 93.0811 106.687 91.3231 106.7C89.5661 106.713 88.1371 106.156 88.1321 105.456C88.1271 104.756 89.5471 104.178 91.3041 104.165C93.0621 104.152 94.4911 104.709 94.4961 105.409Z" fill="#FD9676"/>
<path d="M84.6531 100.052C84.6471 99.0869 84.1051 98.2089 83.2491 97.7629C81.1301 96.6579 78.4511 96.2529 77.5591 98.9709C75.9051 104.017 81.1241 109.668 84.7031 108.286L84.6531 100.052Z" fill="#FDBB92"/>
<path d="M86.5891 107.689C86.5281 107.766 86.4661 107.841 86.4021 107.91C86.2151 108.118 86.0211 108.299 85.8181 108.457C85.4471 108.748 85.0581 108.958 84.6791 109.113C84.6041 108.87 84.5321 108.625 84.4661 108.372C84.7381 108.263 85.0131 108.121 85.2771 107.935C85.4931 107.791 85.7041 107.618 85.8981 107.412C85.9751 107.329 86.0531 107.241 86.1251 107.151C86.2421 106.996 86.4451 106.996 86.5731 107.148C86.7011 107.297 86.7121 107.543 86.5891 107.689Z" fill="#FD9676"/>
<path d="M82.561 105.27C82.362 105.27 82.19 105.122 82.165 104.919C81.769 101.739 79.506 100.347 79.483 100.334C79.294 100.22 79.232 99.9749 79.345 99.7859C79.458 99.5969 79.702 99.5339 79.892 99.6469C79.999 99.7099 82.512 101.238 82.959 104.821C82.986 105.04 82.831 105.24 82.611 105.267C82.594 105.269 82.578 105.27 82.561 105.27Z" fill="#FD9676"/>
<path d="M79.7061 103.427C79.6131 103.427 79.5211 103.395 79.4451 103.33C79.2781 103.186 79.2591 102.935 79.4021 102.767C79.4431 102.72 80.4131 101.606 81.7101 101.751C81.9291 101.776 82.0871 101.974 82.0631 102.193C82.0381 102.412 81.8391 102.57 81.6211 102.546C80.7491 102.449 80.0171 103.28 80.0091 103.288C79.9301 103.38 79.8181 103.427 79.7061 103.427Z" fill="#FD9676"/>
<path d="M87.6371 111.193C87.6371 113.95 85.3941 116.193 82.6371 116.193C79.8801 116.193 77.6371 113.95 77.6371 111.193C77.6371 108.841 79.2721 106.867 81.4611 106.337C81.4641 106.342 81.4661 106.348 81.4691 106.356C81.8031 106.499 81.8361 106.778 81.8241 107.073C79.8961 107.452 78.4371 109.156 78.4371 111.193C78.4371 113.508 80.3201 115.393 82.6371 115.393C84.9521 115.393 86.8371 113.508 86.8371 111.193C86.8371 110.148 86.4531 109.19 85.8181 108.457C85.6531 108.268 85.4711 108.092 85.2771 107.934C85.4931 107.79 85.7041 107.617 85.8981 107.411C86.0771 107.563 86.2471 107.731 86.4021 107.91C87.1701 108.788 87.6371 109.937 87.6371 111.193Z" fill="white"/>
<path d="M102.039 107.361C101.91 107.361 101.784 107.299 101.706 107.184C101.583 107.001 101.632 106.752 101.815 106.629C102.722 106.02 103.578 105.283 103.705 105.006C103.406 104.143 102.017 100.121 102.017 100.121L102.773 99.86C102.773 99.86 104.235 104.094 104.482 104.805C104.552 105.005 104.763 105.615 102.261 107.293C102.193 107.339 102.115 107.361 102.039 107.361Z" fill="#FD9676"/>
<path d="M95.8641 100.404C95.8721 101.548 95.3631 102.479 94.7251 102.484C94.0851 102.489 93.5601 101.564 93.5521 100.42C93.5491 99.969 93.6271 99.553 93.7601 99.212C92.6161 99.268 92.2351 98.559 92.2351 98.559C92.9741 98.658 93.9601 98.492 94.4271 98.399C94.5921 98.364 94.6941 98.34 94.6941 98.34C95.3311 98.334 95.8561 99.257 95.8641 100.404Z" fill="#181818"/>
<path d="M94.693 98.34C94.693 98.34 94.592 98.364 94.426 98.399C94.512 98.361 94.6 98.34 94.693 98.34Z" fill="#181818"/>
<path d="M107.673 110.513C107.144 111.847 106.255 113.242 104.752 114.079C104.61 114.159 104.461 114.234 104.306 114.304C103.429 114.699 102.371 114.913 101.087 114.849C100.032 114.798 99.1321 114.409 98.3731 113.834C98.2251 113.722 98.0791 113.603 97.9401 113.478C97.0341 112.659 96.3531 111.587 95.8661 110.6L107.673 110.513Z" fill="white"/>
<path d="M101.652 117.01C100.356 117.01 99.522 116.548 99.486 116.528C99.294 116.419 99.226 116.175 99.334 115.983C99.442 115.791 99.685 115.723 99.878 115.83C99.893 115.838 100.638 116.238 101.777 116.208C102.937 116.177 103.662 115.799 103.67 115.795C103.865 115.692 104.107 115.765 104.211 115.959C104.315 116.153 104.243 116.395 104.049 116.499C104.014 116.518 103.162 116.971 101.799 117.007C101.749 117.009 101.7 117.01 101.652 117.01Z" fill="#FD9676"/>
<path d="M111.577 96.251C111.067 96.123 110.513 96.05 109.979 96.027C109.441 96.005 108.908 96.036 108.393 96.12C107.877 96.197 107.383 96.345 106.923 96.54C106.456 96.72 106.047 97.002 105.658 97.281L105.618 97.31C105.196 97.613 104.609 97.516 104.306 97.095C104.003 96.673 104.1 96.086 104.521 95.784C104.569 95.749 104.625 95.718 104.677 95.693C105.265 95.423 105.863 95.184 106.485 95.075C107.101 94.951 107.721 94.9 108.328 94.931C108.935 94.956 109.528 95.042 110.102 95.183C110.678 95.328 111.224 95.512 111.768 95.773C111.897 95.835 111.951 95.989 111.889 96.118C111.835 96.231 111.71 96.287 111.593 96.257L111.577 96.251Z" fill="#181818"/>
<path d="M89.8141 96.061C90.4181 95.744 91.0311 95.513 91.6771 95.326C92.3211 95.143 92.9891 95.021 93.6731 94.969C94.3561 94.909 95.0571 94.941 95.7551 95.056C96.4591 95.153 97.1401 95.396 97.8101 95.674C98.2891 95.872 98.5161 96.421 98.3181 96.9C98.1201 97.379 97.5711 97.606 97.0921 97.408C97.0441 97.388 96.9991 97.365 96.9571 97.339L96.9061 97.307C96.4341 97.011 95.9401 96.716 95.3881 96.541C94.8441 96.349 94.2641 96.214 93.6661 96.162C93.0691 96.103 92.4561 96.103 91.8421 96.166C91.2331 96.23 90.6061 96.35 90.0301 96.533L90.0121 96.539C89.8761 96.582 89.7311 96.507 89.6871 96.371C89.6491 96.247 89.7051 96.118 89.8141 96.061Z" fill="#181818"/>
<path d="M87.637 87.3799C87.637 87.3799 96.469 96.297 113.537 93.247C122.72 91.606 112.559 78.402 98.692 79.646C84.824 80.891 87.637 87.3799 87.637 87.3799Z" fill="#181818"/>
<path d="M83.1711 84.476C83.1711 84.476 78.6921 93.1 71.5801 85.484C64.4691 77.869 76.8051 64.002 85.5711 64.713C94.3371 65.424 92.2351 79.564 92.2351 79.564L83.1711 84.476Z" fill="#181818"/>
<path d="M76.458 89.972C74.318 89.972 71.797 89.208 69.858 86.347C65.282 79.592 72.711 72.205 72.786 72.131C72.939 71.982 73.182 71.985 73.331 72.137C73.48 72.289 73.477 72.533 73.325 72.682C73.254 72.751 66.282 79.695 70.496 85.915C74.256 91.464 80.254 88.417 80.507 88.285C80.696 88.187 80.929 88.26 81.027 88.448C81.125 88.637 81.052 88.869 80.864 88.968C80.828 88.986 78.889 89.972 76.458 89.972Z" fill="#181818"/>
<path d="M94.9441 106.349C91.9461 106.419 89.4501 104.037 89.3811 101.039C89.3111 98.0409 91.6931 95.5449 94.6911 95.4749C97.6891 95.4049 100.184 97.7869 100.255 100.785C100.323 103.783 97.9411 106.279 94.9441 106.349ZM94.7101 96.3229C92.1801 96.3819 90.1691 98.4889 90.2281 101.019C90.2871 103.55 92.3941 105.56 94.9241 105.501C97.4551 105.442 99.4651 103.335 99.4061 100.805C99.3471 98.2739 97.2401 96.2629 94.7101 96.3229Z" fill="white"/>
<path d="M89.6401 99.532C89.6191 99.517 87.2751 97.994 84.0301 98.165L83.4491 97.377C87.1011 97.239 90.0041 98.811 90.0991 98.877L89.6401 99.532Z" fill="white"/>
<path d="M109.804 106.002C106.806 106.072 104.31 103.69 104.24 100.692C104.17 97.6939 106.552 95.1979 109.55 95.1289C112.548 95.0589 115.043 97.441 115.114 100.439C115.184 103.436 112.802 105.932 109.804 106.002ZM109.57 95.9759C107.039 96.0349 105.029 98.1419 105.088 100.672C105.147 103.202 107.254 105.213 109.785 105.154C112.316 105.095 114.326 102.988 114.267 100.458C114.207 97.9279 112.101 95.9169 109.57 95.9759Z" fill="white"/>
<path d="M104.511 99.4639C104.501 99.4509 103.463 98.1129 102.139 98.1439C100.828 98.1739 99.9501 99.5549 99.9411 99.5689L99.2211 99.1219C99.2661 99.0489 100.345 97.3379 102.119 97.2959C103.881 97.2549 105.134 98.8829 105.187 98.9519L104.511 99.4639Z" fill="white"/>
<path d="M92.234 86.723C92.234 86.723 86.146 101.871 89.823 112.815C93.5 123.759 97.756 132.272 89.823 134.316C81.89 136.36 77.38 134.988 70.568 139.052C63.756 143.116 73.693 98.593 79.134 85.692C84.702 72.492 101.637 73.45 101.637 73.45L92.234 86.723Z" fill="#181818"/>
<path d="M69.4591 138.876C69.3511 138.876 69.2441 138.831 69.1681 138.743C69.0381 138.594 65.9931 134.981 66.6371 126.339C67.2731 117.802 76.8661 91.493 77.2751 90.377C77.3481 90.177 77.57 90.075 77.769 90.148C77.969 90.221 78.0721 90.442 77.9991 90.642C77.8991 90.914 68.0341 117.966 67.4061 126.396C66.7861 134.721 69.7211 138.203 69.7501 138.237C69.8901 138.398 69.8731 138.641 69.7121 138.781C69.6391 138.845 69.5491 138.876 69.4591 138.876Z" fill="#181818"/>
<path d="M419.942 449.138C459.562 449.138 491.68 445.46 491.68 440.924C491.68 436.388 459.562 432.71 419.942 432.71C380.322 432.71 348.204 436.388 348.204 440.924C348.204 445.46 380.322 449.138 419.942 449.138Z" fill="#D8EAF2"/>
<path d="M422.61 226.282C422.61 226.282 421.787 229.667 422.757 232.854C423.727 236.041 420.685 236.679 420.443 232.979C420.239 229.861 422.61 226.282 422.61 226.282Z" fill="#FD9676"/>
<path d="M421.088 207.831C421.088 207.831 419.737 205.65 416.804 207.147C413.87 208.644 411.784 213.089 412.893 214.313C414.002 215.537 416.267 211.085 417.86 211.732C419.454 212.379 416.591 221.685 415.995 224.33C415.399 226.975 415.06 237.465 417.491 236.537C419.922 235.609 419.361 233.127 421.444 228.777C423.574 224.329 425.802 220.36 426.961 217.82C428.982 213.393 421.088 207.831 421.088 207.831Z" fill="#FDBB92"/>
<path d="M426.609 216.745C426.609 216.745 442.646 209.625 447.615 205.87L438.769 196.807L421.088 207.831C421.088 207.831 418.96 217.702 426.609 216.745Z" fill="#FDBB92"/>
<path d="M423.341 223.998C423.341 223.998 421.026 230.367 421.338 233.384C421.677 236.655 419.392 238.547 418.53 233.261C417.668 227.975 423.341 223.998 423.341 223.998Z" fill="#FDBB92"/>
<path d="M419.505 140.344C420.821 139.515 421.216 134.282 425.338 136.385C426.76 137.11 430.473 140.667 431.308 142.027L459.7 188.309C462.258 192.582 461.23 198.091 457.304 201.153L443.971 213.253C439.567 207.78 435.163 202.308 430.759 196.835L437.431 191.629L438.204 191.026L438.289 190.96L437.921 190.346L437.61 189.824L416.008 154.874C413.21 150.195 414.895 143.248 419.505 140.344Z" fill="#181818"/>
<path d="M432.99 193.454L446.991 211.639L443.233 214.742L428.879 197.396L432.99 193.454Z" fill="#464648"/>
<path d="M437.431 191.628L447.439 192.842L447.447 192.843C447.81 192.882 448.136 192.623 448.181 192.26C448.226 191.895 447.964 191.563 447.599 191.518L439.524 190.539L437.922 190.344L438.29 190.958L438.205 191.024L437.431 191.628Z" fill="#464648"/>
<path d="M437.921 190.345L438.289 190.959L438.204 191.025L439.523 190.54L445.072 188.488C445.418 188.362 445.594 187.978 445.468 187.632C445.339 187.285 444.956 187.11 444.609 187.239L437.61 189.824L437.921 190.345Z" fill="#464648"/>
<path d="M423.196 166.065C423.019 166.622 422.842 167.177 422.669 167.727C420.627 174.252 418.916 180.387 419.114 184.438C419.664 195.669 422.009 220.508 422.009 220.508C404.756 231.174 372.259 218.299 372.259 218.299C375.357 206.277 376.228 197.098 374.44 183.683C374.026 180.585 373.099 176.937 372.023 173.071C371.882 172.565 371.738 172.056 371.592 171.543C368.049 159.014 363.5 144.718 370.074 139.593C376.388 134.671 381.711 131.447 385.909 129.538C387.622 128.755 388.676 128.326 388.676 128.326L403.216 128.978C403.216 128.978 404.362 129.086 406.155 129.361C411.891 130.237 424.839 134.257 427.888 138.797C430.813 143.153 426.718 154.96 423.196 166.065Z" fill="#181818"/>
<path d="M379.1 164.067L376.279 167.656L375.154 169.087L372.022 173.071C371.881 172.565 371.737 172.056 371.591 171.543L374.286 168.116C374.301 168.093 374.319 168.072 374.335 168.054L378.093 163.276C378.311 162.996 378.715 162.947 378.992 163.165C379.272 163.386 379.321 163.789 379.1 164.067Z" fill="#464648"/>
<path d="M374.815 169.123C374.495 169.123 374.218 168.884 374.178 168.558C374.135 168.206 374.386 167.886 374.738 167.843L380.146 167.187C380.496 167.146 380.818 167.395 380.861 167.747C380.904 168.099 380.653 168.419 380.301 168.462L374.893 169.118C374.867 169.121 374.841 169.123 374.815 169.123Z" fill="#464648"/>
<path d="M423.196 166.065C423.019 166.622 422.842 167.177 422.669 167.727L421.726 166.096L420.619 164.174L418.592 160.657C418.415 160.349 418.523 159.956 418.828 159.778C419.136 159.601 419.529 159.706 419.707 160.014L423.196 166.065Z" fill="#464648"/>
<path d="M422.182 166.24C422.092 166.24 422.001 166.221 421.915 166.181L417.719 164.254C417.397 164.106 417.255 163.725 417.403 163.402C417.551 163.08 417.932 162.938 418.254 163.086L422.45 165.013C422.772 165.161 422.914 165.542 422.766 165.865C422.658 166.101 422.426 166.24 422.182 166.24Z" fill="#464648"/>
<path d="M398.891 162.692C399.542 162.692 400.069 162.165 400.069 161.514C400.069 160.863 399.542 160.336 398.891 160.336C398.241 160.336 397.713 160.863 397.713 161.514C397.713 162.165 398.241 162.692 398.891 162.692Z" fill="#464648"/>
<path d="M398.729 171.961C399.38 171.961 399.907 171.434 399.907 170.783C399.907 170.132 399.38 169.605 398.729 169.605C398.079 169.605 397.551 170.132 397.551 170.783C397.551 171.434 398.079 171.961 398.729 171.961Z" fill="#464648"/>
<path d="M398.566 181.229C399.217 181.229 399.744 180.702 399.744 180.051C399.744 179.4 399.217 178.873 398.566 178.873C397.916 178.873 397.388 179.4 397.388 180.051C397.388 180.702 397.916 181.229 398.566 181.229Z" fill="#464648"/>
<path d="M398.404 190.498C399.055 190.498 399.582 189.971 399.582 189.32C399.582 188.669 399.055 188.142 398.404 188.142C397.753 188.142 397.226 188.669 397.226 189.32C397.226 189.971 397.753 190.498 398.404 190.498Z" fill="#464648"/>
<path d="M398.241 199.767C398.892 199.767 399.419 199.239 399.419 198.589C399.419 197.938 398.892 197.411 398.241 197.411C397.591 197.411 397.063 197.938 397.063 198.589C397.063 199.239 397.591 199.767 398.241 199.767Z" fill="#464648"/>
<path d="M398.079 209.035C398.73 209.035 399.257 208.508 399.257 207.857C399.257 207.206 398.73 206.679 398.079 206.679C397.429 206.679 396.901 207.206 396.901 207.857C396.901 208.508 397.429 209.035 398.079 209.035Z" fill="#464648"/>
<path d="M385.907 129.537C383.029 130.246 380.451 131.706 378.256 133.324L385.58 141.577H390.179L387.974 146.13L398.892 156.862L398.79 145.868L385.907 129.537Z" fill="#464648"/>
<path d="M406.154 129.359C409.713 129.341 412.459 130.067 415.99 131.609L412.178 141.577H407.579L409.784 146.13L398.866 156.862L398.79 145.868C402.391 139.274 405.186 133.446 406.154 129.359Z" fill="#464648"/>
<path d="M406.15 129.36C406.07 130.3 405.78 131.43 405.37 132.65C403.46 138.29 398.79 145.87 398.79 145.87L388.69 133.07V133.06C388.68 133.05 388.68 133.05 388.68 133.05L385.91 129.54C387.62 128.75 388.68 128.33 388.68 128.33L403.21 128.98C403.21 128.98 404.36 129.08 406.15 129.36Z" fill="#FDBB92"/>
<path d="M405.37 132.65C403.46 138.29 398.79 145.87 398.79 145.87L388.69 133.07V133.06C389.09 133.24 398.95 137.74 405.37 132.65Z" fill="white"/>
<path d="M386.533 113.897C386.533 116.631 384.309 118.854 381.576 118.854C378.842 118.854 376.619 116.63 376.619 113.897C376.619 111.565 378.24 109.609 380.41 109.082C380.413 109.087 380.415 109.093 380.418 109.101C380.749 109.243 380.782 109.519 380.77 109.812C378.858 110.187 377.412 111.877 377.412 113.897C377.412 116.192 379.279 118.061 381.576 118.061C383.871 118.061 385.74 116.192 385.74 113.897C385.74 112.861 385.359 111.911 384.73 111.184C384.566 110.996 384.386 110.822 384.193 110.666C384.407 110.523 384.616 110.351 384.809 110.148C384.986 110.299 385.155 110.465 385.309 110.642C386.071 111.512 386.533 112.652 386.533 113.897Z" fill="white"/>
<path d="M391.978 77.4199C391.978 77.4199 388.498 87.0709 378.582 88.8999C377.459 89.1069 376.46 89.0649 375.586 88.8189C368.732 86.9089 369.604 72.6539 380.032 69.4909C387.833 67.1229 390.541 71.3829 391.481 74.5209C391.957 76.1139 391.978 77.4199 391.978 77.4199Z" fill="#181818"/>
<path d="M391.978 77.4199C391.978 77.4199 388.498 87.0709 378.582 88.8999C377.459 89.1069 376.46 89.0649 375.586 88.8189C377.072 84.3809 381.21 75.9879 391.481 74.5199C391.957 76.1139 391.978 77.4199 391.978 77.4199Z" fill="#00C2C4"/>
<path d="M414.59 99.3619C414.59 99.3619 418.949 83.1939 405.457 77.9059C391.964 72.6179 380.22 79.8889 378.105 88.6139C375.99 97.3389 381.919 101.984 381.919 101.984L414.59 99.3619Z" fill="#181818"/>
<path d="M403.936 131.899C399.349 134.08 393.397 134.498 388.456 131.88L388.739 127.319L389.231 119.348L401.922 121.04L403.598 120.977L403.59 121.543L403.717 125.358L403.936 131.899Z" fill="#FDBB92"/>
<path d="M403.716 125.358C400.2 127.621 392.649 127.96 388.738 127.32C388.725 127.32 388.714 127.317 388.701 127.315L389.23 119.349L401.921 121.041L403.597 120.978L403.589 121.544L403.716 125.358Z" fill="#181818"/>
<path d="M412.116 100.127C412.116 100.127 419.026 96.9489 418.562 103.543C418.051 110.803 412.001 109.668 410.943 109.36L412.116 100.127Z" fill="#FD9676"/>
<path d="M416.102 107.823C416.102 108.158 415.83 108.43 415.495 108.43C415.16 108.43 414.888 108.158 414.888 107.823C414.888 107.488 415.16 107.216 415.495 107.216C415.83 107.216 416.102 107.488 416.102 107.823Z" fill="white"/>
<path d="M413.938 106.78C413.924 106.78 413.91 106.779 413.896 106.778C413.678 106.755 413.52 106.56 413.544 106.342C413.885 103.124 416.005 101.71 416.095 101.652C416.278 101.533 416.524 101.584 416.644 101.768C416.763 101.951 416.711 102.196 416.529 102.316C416.449 102.369 414.632 103.601 414.333 106.426C414.31 106.629 414.138 106.78 413.938 106.78Z" fill="#FD7764"/>
<path d="M416.327 105.09C416.214 105.09 416.101 105.042 416.023 104.948C416.01 104.932 415.411 104.238 414.72 104.333C414.504 104.364 414.303 104.211 414.273 103.994C414.243 103.777 414.395 103.577 414.612 103.547C415.74 103.39 416.596 104.395 416.632 104.439C416.772 104.607 416.75 104.857 416.582 104.998C416.506 105.06 416.416 105.09 416.327 105.09Z" fill="#FD7764"/>
<path d="M408.67 91.4559C408.67 91.4559 414.579 93.7709 413.478 100.32C412.376 106.87 408.244 119.421 413.061 124.591C413.061 124.591 412.326 117.964 414.665 108.84C415.592 105.227 415.807 102.24 415.979 96.7359C416.181 90.2669 413.565 83.9909 407.606 84.2869C401.647 84.5809 408.67 91.4559 408.67 91.4559Z" fill="#181818"/>
<path d="M402.636 123.477C396.95 125.021 389.958 123.175 385.609 116.11C384.899 114.957 384.125 113.548 383.601 111.833C383.528 111.594 383.457 111.349 383.389 111.099C381.272 103.401 381.593 91.9259 381.593 91.9259C385.277 84.1359 395.755 84.4999 401.817 84.5889C407.882 84.6789 414.261 86.7349 413.936 98.6589C413.607 110.752 407.861 122.059 402.636 123.477Z" fill="#FDBB92"/>
<path d="M404.724 103.2C404.716 104.334 405.221 105.257 405.853 105.262C406.488 105.267 407.008 104.35 407.016 103.216C407.019 102.769 406.942 102.357 406.81 102.018C407.944 102.074 408.322 101.37 408.322 101.37C407.59 101.468 406.611 101.304 406.149 101.211C405.985 101.177 405.885 101.153 405.885 101.153C405.253 101.148 404.732 102.063 404.724 103.2Z" fill="#181818"/>
<path d="M405.885 101.153C405.885 101.153 405.985 101.177 406.149 101.211C406.065 101.175 405.977 101.153 405.885 101.153Z" fill="#181818"/>
<path d="M412.458 108.022C412.463 108.716 411.055 109.289 409.313 109.302C407.571 109.315 406.154 108.763 406.149 108.069C406.144 107.375 407.552 106.802 409.294 106.789C411.037 106.776 412.453 107.328 412.458 108.022Z" fill="#FD9676"/>
<path d="M393.333 108.162C393.338 108.856 391.93 109.429 390.188 109.442C388.446 109.455 387.029 108.903 387.024 108.209C387.019 107.515 388.427 106.942 390.169 106.929C391.912 106.915 393.328 107.468 393.333 108.162Z" fill="#FD9676"/>
<path d="M383.575 102.852C383.569 101.895 383.032 101.025 382.183 100.582C380.082 99.486 377.426 99.0839 376.542 101.78C374.902 106.783 380.077 112.386 383.625 111.015L383.575 102.852Z" fill="#FDBB92"/>
<path d="M381.058 110.098C381.393 110.098 381.665 109.826 381.665 109.491C381.665 109.156 381.393 108.884 381.058 108.884C380.723 108.884 380.451 109.156 380.451 109.491C380.451 109.826 380.723 110.098 381.058 110.098Z" fill="white"/>
<path d="M385.494 110.423C385.433 110.5 385.372 110.574 385.309 110.642C385.124 110.848 384.931 111.028 384.73 111.184C384.363 111.472 383.976 111.681 383.601 111.834C383.527 111.593 383.456 111.35 383.39 111.099C383.66 110.991 383.932 110.85 384.194 110.665C384.408 110.522 384.617 110.35 384.81 110.147C384.887 110.065 384.963 109.978 385.035 109.888C385.151 109.735 385.352 109.735 385.479 109.885C385.605 110.034 385.616 110.277 385.494 110.423Z" fill="#FD9676"/>
<path d="M381.501 108.024C381.304 108.024 381.133 107.877 381.108 107.676C380.715 104.523 378.471 103.144 378.449 103.13C378.261 103.017 378.2 102.774 378.312 102.587C378.424 102.399 378.666 102.337 378.854 102.449C378.96 102.512 381.452 104.026 381.895 107.579C381.922 107.796 381.768 107.995 381.551 108.022C381.534 108.023 381.517 108.024 381.501 108.024Z" fill="#FD9676"/>
<path d="M378.671 106.197C378.579 106.197 378.487 106.165 378.412 106.101C378.246 105.958 378.227 105.709 378.369 105.543C378.409 105.496 379.371 104.392 380.657 104.536C380.875 104.56 381.031 104.757 381.007 104.974C380.983 105.191 380.785 105.347 380.569 105.324C379.704 105.228 378.978 106.052 378.971 106.06C378.892 106.151 378.782 106.197 378.671 106.197Z" fill="#FD9676"/>
<path d="M400.811 110.097C400.683 110.097 400.558 110.035 400.481 109.921C400.359 109.739 400.408 109.493 400.589 109.371C401.489 108.767 402.337 108.036 402.463 107.762C402.167 106.906 400.79 102.919 400.79 102.919L401.54 102.66C401.54 102.66 402.99 106.858 403.234 107.563C403.303 107.762 403.512 108.366 401.032 110.029C400.964 110.076 400.887 110.097 400.811 110.097Z" fill="#FD9676"/>
<path d="M394.69 103.2C394.698 104.334 394.193 105.257 393.561 105.262C392.927 105.267 392.406 104.35 392.398 103.216C392.395 102.769 392.472 102.357 392.604 102.018C391.47 102.074 391.092 101.37 391.092 101.37C391.824 101.468 392.803 101.304 393.265 101.211C393.429 101.177 393.529 101.153 393.529 101.153C394.161 101.148 394.682 102.063 394.69 103.2Z" fill="#181818"/>
<path d="M393.529 101.153C393.529 101.153 393.429 101.177 393.265 101.211C393.349 101.175 393.437 101.153 393.529 101.153Z" fill="#181818"/>
<path d="M406.398 113.222C405.874 114.544 404.992 115.928 403.502 116.758C403.361 116.837 403.213 116.911 403.06 116.981C402.19 117.373 401.142 117.585 399.869 117.521C398.823 117.47 397.931 117.085 397.178 116.515C397.031 116.404 396.886 116.286 396.749 116.162C395.851 115.35 395.175 114.287 394.693 113.309L406.398 113.222Z" fill="white"/>
<path d="M400.428 119.664C399.144 119.664 398.316 119.206 398.281 119.186C398.09 119.079 398.023 118.837 398.13 118.646C398.237 118.456 398.478 118.388 398.669 118.495C398.683 118.503 399.422 118.899 400.552 118.87C401.702 118.839 402.421 118.465 402.428 118.461C402.621 118.358 402.861 118.431 402.964 118.624C403.067 118.816 402.996 119.056 402.804 119.159C402.769 119.178 401.925 119.627 400.573 119.662C400.524 119.663 400.476 119.664 400.428 119.664Z" fill="#FD9676"/>
<path d="M410.24 99.3269C409.744 99.1659 409.201 99.0569 408.675 98.9979C408.145 98.9399 407.615 98.9359 407.1 98.9829C406.585 99.0239 406.086 99.1379 405.618 99.2999C405.144 99.4469 404.72 99.6979 404.317 99.9479L404.276 99.9739C403.839 100.245 403.264 100.11 402.993 99.6729C402.722 99.2359 402.857 98.6609 403.294 98.3899C403.344 98.3589 403.401 98.3309 403.454 98.3109C404.054 98.0829 404.661 97.8869 405.284 97.8209C405.902 97.7389 406.519 97.7309 407.117 97.8019C407.715 97.8669 408.297 97.9919 408.855 98.1709C409.416 98.3529 409.943 98.5719 410.464 98.8659C410.587 98.9359 410.631 99.0919 410.561 99.2149C410.5 99.3229 410.372 99.3699 410.259 99.3329L410.24 99.3269Z" fill="#181818"/>
<path d="M388.692 98.8489C389.294 98.5409 389.904 98.3189 390.547 98.1399C391.187 97.9649 391.851 97.8519 392.529 97.8069C393.207 97.7549 393.902 97.7939 394.592 97.9149C395.289 98.0179 395.961 98.2669 396.623 98.5489C397.096 98.7509 397.315 99.2969 397.114 99.7699C396.912 100.243 396.365 100.462 395.893 100.261C395.846 100.241 395.802 100.218 395.76 100.191L395.709 100.158C395.245 99.8599 394.758 99.5619 394.212 99.3819C393.674 99.1859 393.101 99.0459 392.509 98.9879C391.918 98.9229 391.31 98.9169 390.701 98.9729C390.097 99.0299 389.474 99.1419 388.901 99.3169L388.883 99.3219C388.748 99.3629 388.604 99.2869 388.563 99.1519C388.527 99.0319 388.583 98.9049 388.692 98.8489Z" fill="#181818"/>
<path d="M386.533 90.2879C386.533 90.2879 395.29 99.1289 412.211 96.1049C421.315 94.4779 411.242 81.3869 397.493 82.6209C383.745 83.8539 386.533 90.2879 386.533 90.2879Z" fill="#181818"/>
<path d="M391.978 87.9099C391.978 87.9099 384.354 93.4719 385.393 100.032C386.432 106.592 390.445 119.182 385.579 124.306C385.579 124.306 387.728 117.532 384.952 108.531C383.643 104.285 381.666 101.803 380.612 96.3979C379.558 90.9929 383.774 84.2069 389.73 84.5599C395.686 84.9119 391.978 87.9099 391.978 87.9099Z" fill="#181818"/>
<path d="M395.982 403.997C395.982 403.997 400.447 405.816 400.612 412.1C400.777 418.384 400.612 434.591 400.612 434.591H398.334L397.098 428.876C397.098 428.876 396.312 435.088 393.17 439.056C390.028 443.025 383.248 443.19 378.783 442.529C374.318 441.868 377.625 433.599 379.444 428.969C381.263 424.339 385.068 413.259 385.068 413.259L395.982 403.997Z" fill="#00C2C4"/>
<path d="M394.801 395.011C394.801 395.011 394.659 402.674 395.982 403.997C397.305 405.32 399.124 409.62 397.801 414.911C396.478 420.202 395.596 427.92 392.509 431.228C389.422 434.535 381.374 434.646 380.712 432C380.051 429.354 384.791 419.542 385.012 414.471C385.232 409.4 386.114 395.729 386.114 395.729L394.801 395.011Z" fill="#FDBB92"/>
<path d="M395.896 332.349C397.337 337.245 397.848 357.907 397.828 370.238C397.818 375.137 395.131 393.762 395.195 401.795L385.708 402.193C383.625 386.417 378.271 360.882 375.833 347.136C375.725 346.532 375.625 345.952 375.53 345.394C375.106 342.92 374.803 340.932 374.669 339.591C374.443 337.341 374.165 333.885 373.857 329.618C373.816 329.063 373.775 328.488 373.729 327.912C373.387 323.095 373.01 317.39 372.622 311.294C372.442 308.468 372.262 305.56 372.078 302.614C370.521 277.382 368.972 249.499 368.972 249.499L397.988 252.081C397.988 252.081 396.58 281.613 395.899 304.911C395.83 307.21 395.768 309.45 395.719 311.595C395.459 322.392 395.431 330.771 395.896 332.349Z" fill="#FDBB92"/>
<path d="M385.471 347.749C384.32 347.942 383.19 348.026 382.111 348.026C379.617 348.026 377.497 347.625 375.833 347.135C375.725 346.531 375.625 345.951 375.53 345.393C377.737 346.074 381.377 346.832 385.207 346.171C385.644 346.097 386.05 346.384 386.124 346.821C386.198 347.258 385.91 347.675 385.471 347.749Z" fill="#FD9676"/>
<path d="M395.899 304.91C395.828 307.21 395.768 309.45 395.719 311.594C389.996 312.133 380.536 312.651 372.622 311.293C372.441 308.469 372.261 305.559 372.078 302.613L395.899 304.91Z" fill="#FD9676"/>
<path d="M462.414 428.098C460.222 424.562 440.568 405.711 440.568 405.711C440.568 405.711 436.55 408.86 436.744 412.328C436.929 415.63 436.791 433.011 436.839 434.842H439.224L440.568 426.912C440.568 426.912 446.002 435.605 450.081 438.582C454.16 441.559 467.945 441.024 471.252 440.583C474.559 440.142 464.606 431.634 462.414 428.098Z" fill="#00C2C4"/>
<path d="M438.214 397.107L440.823 404.862C440.823 404.862 439.721 407.398 440.823 411.146C441.926 414.895 447.658 420.738 450.084 425.258C452.509 429.778 460.888 432.865 463.093 431.873C465.298 430.881 458.904 423.274 457.029 419.305C455.155 415.336 453.665 411.175 452.288 408.06C451.064 405.291 448.001 396.599 448.001 396.599L438.214 397.107Z" fill="#FDBB92"/>
<path d="M449.87 401.794C444.802 402.673 445.033 401.596 439.926 402.192C435.515 388.911 422.283 362.032 419.865 355.774C415.148 343.592 414.532 326.44 414.532 326.44L410.093 313.323L407.326 305.154L389.272 251.813L420.908 248.271L430.536 299.942L431.957 307.561L434.595 321.713L434.883 323.293L437.935 339.277L438.238 340.862L449.87 401.794Z" fill="#FDBB92"/>
<path d="M438.238 340.862C437.3 340.965 436.429 340.998 435.654 340.998C433.584 340.998 432.186 340.741 432.06 340.721C431.621 340.636 431.343 340.22 431.431 339.783C431.506 339.344 431.932 339.056 432.358 339.141C432.397 339.154 434.768 339.585 437.935 339.277L438.238 340.862Z" fill="#FD9676"/>
<path d="M431.957 307.561C426.517 309.354 416.873 312.332 410.093 313.323L407.327 305.153L430.536 299.94L431.957 307.561Z" fill="#FD9676"/>
<path d="M442.897 304.525C442.897 304.525 434.9 306.053 423.812 307.508C423.223 307.586 422.624 307.662 422.017 307.738C401.726 310.305 372.474 312.365 361.9 304.88C361.9 304.88 353.921 255.377 370.072 218.008C370.281 217.521 370.496 217.037 370.713 216.556C371.757 214.248 372.898 211.992 374.141 209.802C391.582 215.075 407.326 217.749 421.446 214.135C421.446 214.135 422.286 217.608 423.636 223.197C423.754 223.692 423.877 224.202 424.005 224.728C429.457 247.331 441.811 298.698 442.897 304.525Z" fill="#2A83EC"/>
<path d="M423.812 307.509C423.223 307.587 422.624 307.663 422.017 307.739C415.187 298.203 409.741 282.512 405.79 260.941C402.637 243.745 401.53 228.28 401.307 224.833C401.281 224.385 401.265 224.142 401.265 224.121C401.247 223.723 401.527 223.38 401.906 223.31C401.909 223.31 401.909 223.31 401.911 223.31C401.942 223.302 401.976 223.3 402.008 223.297C402.131 223.289 402.249 223.313 402.356 223.357H402.359C402.623 223.472 402.817 223.731 402.835 224.037C402.838 224.06 402.856 224.393 402.895 225C403.146 228.878 404.271 243.954 407.336 260.673C411.29 282.25 416.938 298.25 423.812 307.509Z" fill="#0063CB"/>
<path d="M424.006 224.729C420.455 225.292 416.752 225.527 413.033 225.527C409.628 225.527 406.213 225.328 402.895 225.001C402.364 224.949 401.832 224.894 401.306 224.834C396.384 224.284 391.715 223.471 387.659 222.623C380.363 221.097 374.075 219.273 370.071 218.01C370.28 217.523 370.495 217.039 370.712 216.558C377.076 218.552 389.106 221.907 401.905 223.312C401.908 223.312 401.908 223.312 401.91 223.312L402.355 223.359H402.358C409.513 224.118 416.889 224.257 423.636 223.199C423.755 223.693 423.878 224.203 424.006 224.729Z" fill="#0063CB"/>
<path d="M407.995 233.166C408.646 233.166 409.173 232.638 409.173 231.988C409.173 231.337 408.646 230.81 407.995 230.81C407.344 230.81 406.817 231.337 406.817 231.988C406.817 232.638 407.344 233.166 407.995 233.166Z" fill="#0063CB"/>
<path d="M409.286 243.682C409.937 243.682 410.464 243.154 410.464 242.504C410.464 241.853 409.937 241.326 409.286 241.326C408.635 241.326 408.108 241.853 408.108 242.504C408.108 243.154 408.635 243.682 409.286 243.682Z" fill="#0063CB"/>
<path d="M410.967 253.873C411.618 253.873 412.145 253.345 412.145 252.695C412.145 252.044 411.618 251.517 410.967 251.517C410.316 251.517 409.789 252.044 409.789 252.695C409.789 253.345 410.316 253.873 410.967 253.873Z" fill="#0063CB"/>
<path d="M414.236 262.629C414.236 263.279 413.709 263.807 413.059 263.807C412.409 263.807 411.881 263.28 411.881 262.629C411.881 261.979 412.408 261.451 413.059 261.451C413.709 261.451 414.236 261.978 414.236 262.629Z" fill="#0063CB"/>
<path d="M415.582 273.551C416.233 273.551 416.76 273.023 416.76 272.373C416.76 271.722 416.233 271.195 415.582 271.195C414.931 271.195 414.404 271.722 414.404 272.373C414.404 273.023 414.931 273.551 415.582 273.551Z" fill="#0063CB"/>
<path d="M419.734 281.994C419.734 282.644 419.207 283.172 418.556 283.172C417.906 283.172 417.378 282.645 417.378 281.994C417.378 281.344 417.905 280.816 418.556 280.816C419.206 280.816 419.734 281.343 419.734 281.994Z" fill="#0063CB"/>
<path d="M422.002 292.738C422.653 292.738 423.18 292.21 423.18 291.56C423.18 290.909 422.653 290.382 422.002 290.382C421.351 290.382 420.824 290.909 420.824 291.56C420.824 292.21 421.351 292.738 422.002 292.738Z" fill="#0063CB"/>
<path d="M425.939 302.315C426.59 302.315 427.117 301.787 427.117 301.137C427.117 300.486 426.59 299.959 425.939 299.959C425.288 299.959 424.761 300.486 424.761 301.137C424.761 301.787 425.288 302.315 425.939 302.315Z" fill="#0063CB"/>
<path d="M364.925 227.185C364.925 227.185 364.767 230.665 362.944 233.453C361.121 236.241 363.862 237.705 365.13 234.221C366.199 231.284 364.925 227.185 364.925 227.185Z" fill="#FD9676"/>
<path d="M371.553 209.898C371.553 209.898 373.461 208.183 375.858 210.441C378.255 212.699 379.013 217.551 377.606 218.415C376.198 219.279 375.271 214.371 373.56 214.546C371.849 214.721 371.991 224.456 371.822 227.162C371.653 229.868 369.041 240.034 366.967 238.462C364.893 236.89 366.127 234.664 365.346 229.905C364.547 225.039 363.519 220.605 363.117 217.842C362.418 213.027 371.553 209.898 371.553 209.898Z" fill="#FDBB92"/>
<path d="M367.742 218.09C367.742 218.09 352.136 210.069 347.39 206.036L356.738 197.492L373.762 209.505C373.762 209.505 375.324 219.48 367.742 218.09Z" fill="#FDBB92"/>
<path d="M364.864 224.788C364.864 224.788 365.303 231.551 364.158 234.36C362.917 237.405 364.58 239.862 366.888 235.028C369.196 230.194 364.864 224.788 364.864 224.788Z" fill="#FDBB92"/>
<path d="M379.185 142.217C377.918 141.314 375.141 138.331 370.906 140.196C369.445 140.839 369.127 140.604 368.217 141.915L336.324 187.815C333.527 191.936 334.239 197.494 337.984 200.775L350.606 213.614C355.314 208.401 360.023 203.188 364.731 197.975L358.367 192.398L357.629 191.752L357.548 191.681L357.95 191.089L358.29 190.586L381.847 156.923C384.909 152.411 383.623 145.379 379.185 142.217Z" fill="#181818"/>
<path d="M362.698 194.473L347.684 211.832L351.259 215.144L366.578 198.643L362.698 194.473Z" fill="#464648"/>
<path d="M358.368 192.397L348.307 193.04H348.299C347.934 193.059 347.624 192.781 347.6 192.416C347.576 192.049 347.856 191.733 348.223 191.709L356.341 191.192L357.951 191.089L357.549 191.681L357.63 191.752L358.368 192.397Z" fill="#464648"/>
<path d="M357.952 191.088L357.55 191.68L357.631 191.751L356.342 191.192L350.919 188.827C350.58 188.681 350.427 188.289 350.573 187.95C350.721 187.611 351.114 187.458 351.453 187.606L358.293 190.585L357.952 191.088Z" fill="#464648"/>
<path d="M263.498 448.424C294.165 448.424 319.026 444.746 319.026 440.21C319.026 435.673 294.165 431.996 263.498 431.996C232.831 431.996 207.97 435.673 207.97 440.21C207.97 444.746 232.831 448.424 263.498 448.424Z" fill="#D8EAF2"/>
<path d="M227.087 334.946C227.137 335.489 227.208 335.991 227.278 336.453C227.368 337.016 227.459 337.508 227.569 337.94C230.855 351.084 245.838 399.006 245.838 399.006C245.838 399.006 249.576 398.162 253.254 397.338C253.666 397.248 254.088 397.157 254.5 397.067C255.384 396.866 256.249 396.665 257.012 396.494C257.012 396.494 254.339 371.804 254.56 364.288C254.892 353.043 253.143 334.192 251.244 330.434L258.73 272.372C259.735 272.302 260.86 272.201 261.986 272.07L270.236 332.654C270.236 332.654 268.216 353.505 270.136 365.463C272.427 379.682 274.216 414.28 274.216 414.28L276.366 414.22L277.632 414.19L285.571 413.969L291.691 347.345L291.771 338.18L291.781 336.663L292.545 245.44C292.545 245.44 238.03 240.476 230.544 244.928C230.544 244.928 225.006 315.652 227.087 334.946Z" fill="#181818"/>
<path d="M227.087 334.946C227.137 335.489 227.208 335.991 227.278 336.453C228.182 336.443 229.006 336.373 229.74 336.282C231.669 336.051 232.956 335.649 233.066 335.619C233.468 335.488 233.679 335.066 233.548 334.664C233.427 334.262 232.995 334.041 232.603 334.172C232.573 334.182 230.252 334.906 227.087 334.946Z" fill="#464648"/>
<path d="M285.912 337.348C286.033 337.378 287.309 337.78 289.248 338.021C290.002 338.112 290.846 338.172 291.77 338.182L291.78 336.665C288.675 336.625 286.414 335.921 286.374 335.901C285.982 335.78 285.55 336.001 285.43 336.393C285.299 336.795 285.52 337.217 285.912 337.348Z" fill="#464648"/>
<path d="M248.13 330.463C248.112 330.58 248.12 330.699 248.145 330.816C248.655 332.995 252.021 349.962 252.021 360.991C252.021 366.867 253.959 390.597 254.497 397.064C254.086 397.155 253.667 397.249 253.249 397.343C252.726 391.077 250.753 367.052 250.753 360.991C250.753 350.08 247.414 333.264 246.91 331.103C246.849 330.839 246.836 330.568 246.872 330.296L254.661 271.479C254.707 271.131 255.026 270.888 255.374 270.934C255.722 270.98 255.965 271.299 255.92 271.647L248.13 330.463Z" fill="#464648"/>
<path d="M277.63 414.188L276.362 414.223C276.233 411.13 274.683 375.669 272.957 365.409C270.839 352.833 273.142 333.096 273.322 331.612L264.369 271.656C264.318 271.308 264.557 270.986 264.904 270.935C265.249 270.882 265.574 271.123 265.625 271.468L274.588 331.51C274.598 331.566 274.598 331.624 274.591 331.683C274.566 331.889 272.049 352.374 274.205 365.196C275.95 375.555 277.503 411.22 277.63 414.188Z" fill="#464648"/>
<path d="M258.802 409.779C254.423 414.773 252.574 415.964 249.6 412.191L248.618 406.232L247.94 402.11L256.519 399.874L257.303 403.273L258.802 409.779Z" fill="#FDBB92"/>
<path d="M257.302 403.273L248.618 406.232L247.939 402.109L256.519 399.874L257.302 403.273Z" fill="#181818"/>
<path d="M258.823 394.895C259.983 397.693 260.044 398.915 259.711 401.224C259.711 401.224 253.452 403.632 245.172 404.295L244.124 397.787C244.124 397.787 249.483 396.547 258.823 394.895Z" fill="#464648"/>
<path d="M261.369 415.891C261.432 416.189 261.568 416.491 261.553 416.805C261.485 418.234 252.22 431.049 247.259 437.996C244.493 441.869 238.322 441.441 235.546 438.747C234.268 437.514 233.597 435.711 234.051 433.419C234.416 431.57 236.23 429.729 237.011 427.904C238.213 425.1 243.22 415.56 243.22 415.56C243.22 415.56 242.462 410.11 247.385 408.478C252.308 406.846 254.392 410.206 254.392 410.206C256.917 410.145 257.433 406.68 257.729 405.117C257.729 405.117 259.971 409.227 261.369 415.891Z" fill="#2A83EC"/>
<path d="M261.369 415.891C261.432 416.189 261.62 416.498 261.553 416.805C261.11 418.837 251.686 431.758 247.259 437.996C244.504 441.878 238.322 441.441 235.546 438.747C237.624 439.992 241.448 440.733 245.216 437.555C249.186 434.205 258.284 419.896 261.369 415.891Z" fill="#0063CB"/>
<path d="M248.8 421.977C248.997 421.943 249.18 421.833 249.3 421.655C249.533 421.309 249.441 420.84 249.096 420.607C248.981 420.529 246.235 418.698 243.753 418.682C240.45 418.657 239.13 421.172 239.075 421.279C238.885 421.65 239.033 422.105 239.405 422.295C239.776 422.485 240.231 422.337 240.421 421.965C240.457 421.897 241.392 420.179 243.743 420.193C245.766 420.206 248.228 421.845 248.253 421.861C248.42 421.972 248.616 422.008 248.8 421.977Z" fill="white"/>
<path d="M249.873 419.072C250.069 419.038 250.252 418.928 250.372 418.75C250.605 418.404 250.513 417.935 250.167 417.701C250.051 417.623 247.306 415.792 244.824 415.775C241.518 415.75 240.2 418.264 240.146 418.372C239.956 418.743 240.104 419.198 240.476 419.388C240.847 419.578 241.303 419.431 241.492 419.058C241.529 418.99 242.464 417.271 244.814 417.286C246.845 417.3 249.298 418.938 249.323 418.955C249.492 419.067 249.688 419.103 249.873 419.072Z" fill="white"/>
<path d="M246.833 424.879C247.029 424.845 247.212 424.735 247.332 424.557C247.565 424.211 247.474 423.742 247.128 423.508C247.012 423.43 244.267 421.599 241.784 421.583C238.478 421.557 237.16 424.072 237.106 424.18C236.917 424.551 237.064 425.006 237.436 425.196C237.807 425.386 238.263 425.238 238.452 424.866C238.488 424.798 239.425 423.079 241.774 423.094C243.805 423.108 246.259 424.745 246.283 424.762C246.451 424.874 246.648 424.911 246.833 424.879Z" fill="white"/>
<path d="M285.575 418.333L285.57 419.562L285.529 427.756H275.632L275.312 422.172L275.132 419.001L285.575 418.333Z" fill="#FDBB92"/>
<path d="M285.575 418.333L285.57 419.562L275.312 422.172L275.132 419.001L285.575 418.333Z" fill="#181818"/>
<path d="M271.833 441.544C271.208 441.136 270.938 440.192 270.907 439C270.854 436.992 271.497 434.271 272.339 432.21V432.205C272.698 429.781 273.829 425.036 275.389 423.521L275.561 427.268C276.833 426.085 278.867 424.937 281.921 425.021C283.237 425.061 284.387 425.671 285.575 426.336L285.554 422.594C285.554 422.594 287.501 425.571 288.223 428.044C290.918 430.624 292.917 434.404 293.683 437.595C293.789 438.029 293.869 438.455 293.927 438.863C294.699 444.31 274.067 443.016 271.833 441.544Z" fill="#2A83EC"/>
<path d="M271.833 441.544C271.208 441.136 270.938 440.192 270.907 439C273.247 439.869 277.634 441.157 282.426 440.941C290.625 440.572 292.694 438.947 293.684 437.595C293.79 438.029 293.87 438.455 293.928 438.863C294.699 444.31 274.067 443.016 271.833 441.544Z" fill="#0063CB"/>
<path d="M286.735 430.722C286.957 430.685 287.165 430.559 287.302 430.357C287.567 429.965 287.464 429.432 287.072 429.166C286.941 429.077 283.828 426.993 281.011 426.969C277.258 426.934 275.757 429.785 275.695 429.907C275.479 430.328 275.645 430.845 276.067 431.061C276.488 431.277 277.005 431.111 277.221 430.688C277.263 430.611 278.328 428.662 280.996 428.683C283.302 428.703 286.083 430.568 286.111 430.587C286.302 430.716 286.525 430.758 286.735 430.722Z" fill="white"/>
<path d="M286.292 427.721C286.514 427.683 286.722 427.558 286.859 427.356C287.124 426.964 287.021 426.431 286.629 426.165C286.498 426.076 283.385 423.992 280.568 423.968C276.815 423.933 275.314 426.784 275.252 426.906C275.036 427.327 275.202 427.844 275.624 428.06C276.045 428.277 276.562 428.11 276.778 427.687C276.82 427.61 277.885 425.661 280.553 425.682C282.859 425.702 285.64 427.566 285.668 427.586C285.858 427.714 286.082 427.756 286.292 427.721Z" fill="white"/>
<path d="M272.508 413.181L272.744 419.285L288.186 418.623L288.552 412.486L272.508 413.181Z" fill="#464648"/>
<path d="M225.957 247.693C225.765 246.987 225.656 246.247 225.645 245.485C225.607 242.701 225.712 239.457 226.154 236.235C226.294 235.222 226.434 234.172 226.576 233.09C226.75 231.763 226.93 230.389 227.104 228.98C227.233 227.949 227.363 226.896 227.489 225.83C227.653 224.461 227.813 223.071 227.969 221.665C228.085 220.62 228.199 219.565 228.307 218.507C228.908 212.732 229.399 206.847 229.639 201.481C229.689 200.325 229.739 199.181 229.781 198.052C229.839 196.535 229.889 195.047 229.931 193.599C229.963 192.428 229.989 191.283 230.007 190.17C230.012 189.822 230.02 189.479 230.026 189.136C230.042 187.952 230.05 186.812 230.047 185.717C230.047 184.926 230.039 184.158 230.029 183.422C230.029 183.361 230.026 183.298 230.026 183.237V183.234C230.021 182.915 230.015 182.604 230.007 182.287C229.564 162.331 225.947 144.88 230.316 138.905C234.075 133.761 255.459 125.148 255.459 125.148L270.546 125.623C270.546 125.623 295.683 139.322 296.332 144.511C296.91 149.135 294.084 169.089 292.874 182.287C292.784 183.271 292.702 184.218 292.634 185.118C292.616 185.321 292.602 185.519 292.587 185.717C292.558 186.084 292.534 186.44 292.511 186.788C292.493 187.054 292.477 187.324 292.463 187.601C292.418 188.414 292.392 189.271 292.376 190.17C292.358 191.257 292.358 192.402 292.373 193.599C292.394 195.018 292.436 196.509 292.497 198.052C292.542 199.168 292.595 200.315 292.663 201.481C292.98 206.818 293.676 212.869 294.502 218.889C294.647 219.944 294.795 221.002 294.948 222.052C295.151 223.463 295.359 224.867 295.57 226.249C295.734 227.315 295.897 228.37 296.058 229.407C296.282 230.824 296.504 232.211 296.718 233.559C296.895 234.638 297.066 235.693 297.232 236.714C297.719 239.717 297.909 242.629 297.943 245.161C297.955 246.037 297.838 246.887 297.61 247.691C272.79 249.713 248.826 249.886 225.957 247.693Z" fill="white"/>
<path d="M239.155 249.489H277.678V244.204H239.155V249.489Z" fill="#464648"/>
<path d="M248.937 243.953H248V249.709H248.937V243.953Z" fill="#E0E0E0"/>
<path d="M271.934 243.953H270.996V249.709H271.934V243.953Z" fill="#E0E0E0"/>
<path d="M264.832 251.764H254.776C253.417 251.764 252.311 250.658 252.311 249.298V244.76C252.311 243.401 253.417 242.294 254.776 242.294H264.832C266.192 242.294 267.298 243.4 267.298 244.76V249.298C267.298 250.658 266.192 251.764 264.832 251.764ZM254.776 244.35C254.55 244.35 254.366 244.534 254.366 244.76V249.298C254.366 249.524 254.55 249.709 254.776 249.709H264.832C265.058 249.709 265.243 249.525 265.243 249.298V244.76C265.243 244.534 265.059 244.35 264.832 244.35H254.776Z" fill="#E0E0E0"/>
<path d="M259.804 248.057H253.338C252.771 248.057 252.31 247.597 252.31 247.029C252.31 246.462 252.77 246.001 253.338 246.001H259.804C260.372 246.001 260.832 246.461 260.832 247.029C260.832 247.597 260.372 248.057 259.804 248.057Z" fill="#E0E0E0"/>
<path d="M261.516 222.844C262.167 222.844 262.694 222.317 262.694 221.666C262.694 221.015 262.167 220.488 261.516 220.488C260.866 220.488 260.338 221.015 260.338 221.666C260.338 222.317 260.866 222.844 261.516 222.844Z" fill="#E0E0E0"/>
<path d="M261.516 233.747C262.167 233.747 262.694 233.219 262.694 232.569C262.694 231.918 262.167 231.391 261.516 231.391C260.866 231.391 260.338 231.918 260.338 232.569C260.338 233.219 260.866 233.747 261.516 233.747Z" fill="#E0E0E0"/>
<path d="M253.913 203.365L260.753 215.818L268.701 203.365L263.498 145.32L263.302 143.127L259.845 143.075L259.597 145.59L253.913 203.365Z" fill="#2A83EC"/>
<path d="M259.597 145.59L261.308 149.342L263.498 145.32L263.302 143.127L259.845 143.075L259.597 145.59Z" fill="#0063CB"/>
<path d="M261.557 133.772L265.482 138.918L261.506 146.594L257.719 138.569L261.557 133.772Z" fill="#2A83EC"/>
<path d="M270.163 145.557L261.546 134.389L253.345 144.282L248.234 136.246C248.12 136.066 248.173 135.828 248.352 135.714C248.532 135.6 248.77 135.653 248.884 135.832L253.427 142.975L261.567 133.155L270.112 144.23L273.468 139.121C273.585 138.943 273.825 138.894 274.002 139.011C274.18 139.128 274.229 139.367 274.113 139.545L270.163 145.557Z" fill="#E0E0E0"/>
<path d="M254.394 129.393C259.262 131.854 265.578 132.325 270.822 129.372L270.522 124.226L270 115.232L256.532 117.141L254.753 117.069L254.761 117.707L254.626 122.012L254.394 129.393Z" fill="#FDBB92"/>
<path d="M270.522 124.225L261.791 131.416L254.393 123.951C254.393 123.951 248.69 128.366 256.846 131.416C261.694 133.228 272.46 130.793 272.46 130.793C272.46 130.793 273.556 124.623 270.522 124.225Z" fill="white"/>
<path d="M254.627 122.013C258.359 124.566 266.372 124.948 270.522 124.227C270.536 124.227 270.547 124.224 270.561 124.221L270 115.233L256.532 117.142L254.753 117.07L254.761 117.708L254.627 122.013Z" fill="#181818"/>
<path d="M248.529 97.981C248.529 97.981 241.759 94.23 242.214 102.012C242.715 110.579 248.642 109.239 249.678 108.876L248.529 97.981Z" fill="#FD9676"/>
<path d="M246.908 105.771C246.923 105.771 246.939 105.77 246.954 105.769C247.192 105.744 247.365 105.53 247.34 105.291C246.967 101.769 244.646 100.222 244.548 100.158C244.347 100.028 244.079 100.084 243.947 100.285C243.817 100.486 243.873 100.754 244.073 100.885C244.16 100.943 246.149 102.291 246.477 105.383C246.5 105.606 246.689 105.771 246.908 105.771Z" fill="#FD7764"/>
<path d="M244.293 103.922C244.417 103.922 244.54 103.869 244.626 103.767C244.641 103.75 245.295 102.99 246.053 103.094C246.289 103.128 246.51 102.961 246.543 102.723C246.576 102.485 246.41 102.266 246.172 102.234C244.937 102.062 244 103.163 243.961 103.21C243.807 103.394 243.832 103.668 244.016 103.821C244.096 103.889 244.195 103.922 244.293 103.922Z" fill="#FD7764"/>
<path d="M258.05 123.639C263.771 124.995 270.676 121.92 275.015 114.873C275.659 113.826 276.355 112.573 276.868 111.068C276.92 110.916 276.973 110.762 277.02 110.605C277.093 110.367 277.164 110.124 277.232 109.872C279.344 102.191 279.022 90.743 279.022 90.743C275.348 82.971 264.893 83.332 258.843 83.424C252.793 83.513 247.452 85.682 246.162 97.513C246.091 98.159 246.047 98.806 246.029 99.455C245.675 110.722 252.644 122.357 258.05 123.639Z" fill="#FDBB92"/>
<path d="M275.688 102.369C275.688 102.369 275.688 100.014 277.507 98.41C279.433 96.713 282.589 96.708 283.531 99.767C285.28 105.444 279.75 111.806 275.962 110.253L275.688 102.369Z" fill="#FDBB92"/>
<path d="M277.934 106.505C278.14 106.505 278.318 106.352 278.344 106.142C278.754 102.854 281.094 101.415 281.117 101.401C281.312 101.284 281.377 101.03 281.26 100.834C281.143 100.638 280.891 100.573 280.694 100.69C280.584 100.755 277.984 102.335 277.523 106.04C277.495 106.267 277.656 106.473 277.882 106.502C277.899 106.504 277.917 106.505 277.934 106.505Z" fill="#FD9676"/>
<path d="M280.886 104.6C280.982 104.6 281.078 104.567 281.156 104.5C281.329 104.351 281.349 104.091 281.2 103.918C281.158 103.869 280.155 102.718 278.814 102.867C278.587 102.893 278.424 103.097 278.449 103.324C278.474 103.551 278.68 103.713 278.906 103.689C279.808 103.589 280.565 104.448 280.572 104.457C280.654 104.551 280.77 104.6 280.886 104.6Z" fill="#FD9676"/>
<path d="M258.05 123.639C263.771 124.995 270.676 121.92 275.015 114.873C275.659 113.826 276.355 112.573 276.868 111.068C276.965 110.681 276.996 110.482 276.996 110.482C276.996 110.482 275.164 109.697 275.523 107.255C275.745 105.732 276.473 102.108 276.473 102.108L275.044 102.333C275.044 102.333 273.958 107.546 271.116 112.104C268.117 107.912 260.115 109.081 260.115 109.081C254.329 107.83 250.438 110.07 248.986 111.135C247.165 107.497 246.516 103.153 246.442 99.5159L246.028 99.4529C245.675 110.722 252.644 122.357 258.05 123.639Z" fill="#181818"/>
<path d="M261.007 77.5479C275.272 75.8849 281.522 85.7719 282.315 90.9229C283.109 96.0739 281.445 97.3969 281.445 97.3969C276.735 97.9199 276.473 102.107 276.473 102.107L275.045 102.332C275.045 102.332 275.512 97.1739 273.614 95.4519C272.5 94.4419 273.363 91.8129 274.265 89.8129C274.699 88.8519 273.866 87.8059 272.833 88.0219C270.918 88.4219 267.957 88.8859 263.834 89.1149C257.762 89.4529 253.467 88.1389 251.694 87.4579C251.245 87.2849 250.749 87.5809 250.689 88.0589C250.155 92.3249 248.299 94.5679 246.44 99.5169L246.027 99.4529C246.027 99.4529 244.917 93.1849 246.75 88.3709C248.584 83.5579 252.451 78.5459 261.007 77.5479Z" fill="#181818"/>
<path d="M281.445 97.3969C282.773 97.3599 285.573 84.5469 283.864 83.3919C282.526 82.4869 281.318 83.3919 281.318 83.3919C281.318 83.3919 283.811 79.8929 282.072 79.4999C280.333 79.1079 279.039 80.1259 279.039 80.1259C279.039 80.1259 272.477 73.6569 264.86 73.5919C254.865 73.5059 250.073 66.3869 245.609 70.9669C241.145 75.5469 242.082 84.7079 247.654 86.3419C247.654 86.3419 273.109 83.5279 281.445 97.3969Z" fill="#181818"/>
<path d="M248.121 88.6269L248.325 87.6199C248.294 87.6139 245.231 86.9549 243.839 84.2039C242.657 81.8689 242.965 78.7119 244.755 74.8199L243.821 74.3909C241.891 78.5889 241.591 82.0509 242.929 84.6809C244.554 87.8749 247.976 88.5969 248.121 88.6269Z" fill="#181818"/>
<path d="M247.654 106.941C247.649 107.634 249.054 108.205 250.792 108.218C252.53 108.231 253.944 107.68 253.949 106.987C253.954 106.295 252.549 105.723 250.811 105.71C249.072 105.698 247.659 106.248 247.654 106.941Z" fill="#FD9676"/>
<path d="M267.309 106.941C267.304 107.634 268.709 108.205 270.447 108.218C272.185 108.231 273.599 107.68 273.604 106.987C273.609 106.295 272.204 105.723 270.466 105.71C268.727 105.698 267.314 106.248 267.309 106.941Z" fill="#FD9676"/>
<path d="M259.848 108.872C260.008 108.872 260.159 108.774 260.219 108.614C260.295 108.409 260.191 108.181 259.987 108.105C259.36 107.871 258.036 107.159 258.188 106.572C258.472 105.47 260.263 100.569 260.281 100.52C260.356 100.315 260.25 100.087 260.045 100.012C259.839 99.9369 259.613 100.043 259.538 100.248C259.464 100.451 257.716 105.235 257.423 106.374C257.052 107.812 259.439 108.745 259.712 108.846C259.755 108.864 259.802 108.872 259.848 108.872Z" fill="#FD9676"/>
<path d="M265.955 101.989C265.947 103.122 266.452 104.044 267.084 104.048C267.716 104.053 268.234 103.138 268.243 102.006C268.251 100.873 267.746 99.9509 267.115 99.9469C266.482 99.9419 265.963 100.857 265.955 101.989Z" fill="#181818"/>
<path d="M253.25 101.989C253.242 103.122 253.747 104.044 254.378 104.048C255.01 104.053 255.529 103.138 255.537 102.006C255.545 100.873 255.04 99.9509 254.409 99.9469C253.777 99.9419 253.258 100.857 253.25 101.989Z" fill="#181818"/>
<path d="M253.386 111.159C253.959 112.606 254.924 114.12 256.555 115.028C256.709 115.114 256.871 115.196 257.038 115.271C257.99 115.7 259.137 115.932 260.53 115.862C261.674 115.807 262.651 115.384 263.474 114.761C263.635 114.64 263.793 114.51 263.944 114.375C264.927 113.486 265.666 112.324 266.194 111.253L253.386 111.159Z" fill="white"/>
<path d="M271.26 98.1709C271.531 98.0829 271.757 97.8719 271.853 97.5809C272.012 97.0969 271.75 96.5769 271.267 96.4169C271.119 96.3679 267.593 95.2309 264.053 96.8189C263.588 97.0279 263.379 97.5739 263.588 98.0389C263.797 98.5039 264.34 98.7129 264.808 98.5039C267.68 97.2159 270.66 98.1609 270.69 98.1699C270.882 98.2329 271.08 98.2289 271.26 98.1709Z" fill="#181818"/>
<path d="M250.009 98.0709C250.179 98.1429 250.373 98.1639 250.567 98.1199C250.622 98.1079 253.667 97.4749 256.387 99.0279C256.831 99.2819 257.394 99.1269 257.647 98.6839C257.9 98.2409 257.746 97.6769 257.303 97.4239C253.931 95.4979 250.315 96.2839 250.162 96.3179C249.665 96.4299 249.352 96.9239 249.464 97.4219C249.534 97.7249 249.744 97.9589 250.009 98.0709Z" fill="#181818"/>
<path d="M261.249 103.145C261.318 100.18 263.787 97.823 266.753 97.892C269.718 97.961 272.075 100.43 272.006 103.395C271.937 106.36 269.468 108.717 266.502 108.648C263.536 108.579 261.18 106.111 261.249 103.145ZM262.088 103.165C262.03 105.668 264.019 107.752 266.522 107.811C269.025 107.869 271.109 105.88 271.168 103.377C271.226 100.874 269.237 98.79 266.734 98.731C264.23 98.672 262.146 100.661 262.088 103.165Z" fill="white"/>
<path d="M271.748 101.906C271.769 101.891 274.088 100.385 277.297 100.553L277.871 99.773C274.258 99.637 271.386 101.191 271.293 101.257L271.748 101.906Z" fill="white"/>
<path d="M246.549 102.802C246.618 99.837 249.087 97.48 252.053 97.549C255.018 97.618 257.375 100.087 257.306 103.053C257.237 106.018 254.768 108.375 251.802 108.306C248.836 108.237 246.48 105.768 246.549 102.802ZM247.388 102.822C247.329 105.325 249.318 107.409 251.822 107.468C254.325 107.526 256.409 105.537 256.468 103.034C256.526 100.531 254.537 98.447 252.034 98.388C249.53 98.329 247.446 100.318 247.388 102.822Z" fill="white"/>
<path d="M257.038 101.838C257.048 101.825 258.075 100.501 259.385 100.532C260.682 100.562 261.551 101.928 261.559 101.942L262.272 101.5C262.227 101.428 261.16 99.735 259.405 99.694C257.662 99.653 256.422 101.264 256.37 101.332L257.038 101.838Z" fill="white"/>
<path d="M244.109 150.154L231.395 200.65C231.053 202.014 230.421 203.288 229.542 204.387L223.453 211.997L221.462 214.489L201.879 238.966C199.941 241.389 197.086 242.653 194.206 242.653C192.054 242.653 189.888 241.95 188.078 240.501C183.842 237.111 183.154 230.932 186.544 226.696L212.539 194.203L212.613 194.107L212.87 193.786L213.029 193.157L213.117 192.809L225.061 145.357C226.386 140.099 231.723 136.909 236.984 138.233C242.243 139.558 245.434 144.893 244.109 150.154Z" fill="#181818"/>
<path d="M219.364 198.683C219.231 198.848 219.04 198.932 218.846 198.932C218.7 198.932 218.551 198.884 218.429 198.783L214.426 195.563L212.613 194.106L212.87 193.785L213.029 193.156L213.117 192.808L219.259 197.75C219.547 197.98 219.592 198.399 219.364 198.683Z" fill="#464648"/>
<path d="M215.916 201.791C215.842 201.815 215.767 201.828 215.696 201.828C215.423 201.828 215.165 201.658 215.07 201.385L212.54 194.203L212.614 194.107L212.871 193.786L213.03 193.157C213.33 193.12 213.624 193.295 213.731 193.592L214.426 195.564L216.321 200.944C216.442 201.289 216.261 201.669 215.916 201.791Z" fill="#464648"/>
<path d="M177.645 236.27C180.55 236.997 181.872 236.587 180.63 238.962C180.447 239.312 180.084 239.773 179.619 240.298C183.545 243.213 187.618 245.933 191.419 248.996C193.761 245.771 195.922 242.016 196.836 238.501C196.736 236.585 192.705 231.004 186.514 232.099C180.779 233.113 179.252 232.287 175.183 233.586C171.661 234.712 174.74 235.544 177.645 236.27Z" fill="#FDBB92"/>
<path d="M188.35 249.273C188.334 249.273 188.318 249.272 188.302 249.27C188.029 249.237 181.59 248.4 179.693 242.8C179.622 242.592 179.734 242.366 179.942 242.295C180.151 242.224 180.376 242.336 180.447 242.544C182.185 247.674 188.335 248.471 188.397 248.479C188.615 248.505 188.771 248.703 188.745 248.922C188.721 249.125 188.549 249.273 188.35 249.273Z" fill="#FD9676"/>
<path d="M186.234 244.376C186.14 244.376 186.045 244.343 185.969 244.275C185.805 244.129 185.791 243.877 185.937 243.713C185.976 243.669 189.838 239.264 187.48 235.852C187.355 235.671 187.401 235.423 187.581 235.298C187.762 235.173 188.01 235.218 188.135 235.399C190.849 239.328 186.708 244.044 186.53 244.242C186.452 244.331 186.343 244.376 186.234 244.376Z" fill="#FD9676"/>
<path d="M220.974 239.346L201.377 263.601C200.612 264.548 199.224 264.696 198.277 263.93L162.183 234.767C161.236 234.002 161.088 232.614 161.854 231.667L181.451 207.412C182.216 206.465 183.604 206.318 184.551 207.083L220.645 236.245C221.591 237.011 221.739 238.399 220.974 239.346Z" fill="#2A83EC"/>
<path d="M196.127 235.507C196.127 238.11 194.017 240.221 191.413 240.221C188.809 240.221 186.699 238.111 186.699 235.507C186.699 232.904 188.809 230.793 191.413 230.793C194.017 230.793 196.127 232.904 196.127 235.507Z" fill="#0063CB"/>
<path d="M185.44 211.947C185.44 212.7 184.829 213.31 184.077 213.31C183.324 213.31 182.714 212.7 182.714 211.947C182.714 211.194 183.324 210.584 184.077 210.584C184.829 210.583 185.44 211.194 185.44 211.947Z" fill="#0063CB"/>
<path d="M167.113 232.755C167.113 233.508 166.503 234.118 165.75 234.118C164.997 234.118 164.387 233.507 164.387 232.755C164.387 232.002 164.997 231.392 165.75 231.392C166.503 231.392 167.113 232.002 167.113 232.755Z" fill="#0063CB"/>
<path d="M172.512 247.213C171.698 246.238 171.777 244.8 172.556 243.798C174.351 241.489 178.142 237.015 180.286 237.412C183.165 237.944 174.978 247.84 174.978 247.84C174.978 247.84 173.612 248.53 172.512 247.213Z" fill="#FDBB92"/>
<path d="M181.957 253.504C181.295 252.711 181.359 251.54 181.993 250.725C183.454 248.846 186.539 245.206 188.284 245.528C190.627 245.961 183.965 254.014 183.965 254.014C183.965 254.014 182.852 254.576 181.957 253.504Z" fill="#FDBB92"/>
<path d="M178.112 251.297C177.714 250.494 177.84 249.527 178.383 248.816C180.15 246.504 184.491 241.211 186.892 241.655C189.349 242.109 184.235 248.97 182.11 251.673C181.068 252.999 178.952 252.899 178.167 251.407C178.149 251.37 178.131 251.334 178.112 251.297Z" fill="#FDBB92"/>
<path d="M175.991 249.065C174.91 248.048 174.903 246.329 175.815 245.158C177.731 242.695 181.753 237.957 184.03 238.378C187.094 238.944 178.38 249.478 178.38 249.478C178.38 249.478 177.113 250.12 175.991 249.065Z" fill="#FDBB92"/>
<path d="M272.286 184.801C272.007 203.113 273.984 238.023 273.856 256.566C281.832 256.019 295.254 254.674 300.061 251.358C307.76 246.048 297.143 202.519 295.699 194.027C294.254 185.533 299.797 149.435 297.164 142.27C294.531 135.102 270.522 124.224 270.522 124.224C270.553 125.08 268.988 130.714 268.701 131.415C269.52 142.695 272.544 167.858 272.286 184.801Z" fill="#181818"/>
<path d="M277.548 221.41C277.249 221.246 277.091 220.892 277.188 220.55C277.3 220.151 277.714 219.919 278.113 220.031C290.83 223.602 294.957 211.917 295.126 211.418C295.259 211.025 295.685 210.816 296.077 210.948C296.464 211.081 296.679 211.507 296.546 211.899C296.5 212.035 291.776 225.426 277.707 221.475C277.65 221.459 277.598 221.438 277.548 221.41Z" fill="#464648"/>
<path d="M270.505 123.952C273.891 125.088 277.164 126.766 280.294 129.134L279.873 146.208L275 148.034L279.776 155.474L278.446 195.086L272.5 203.909C272.5 203.909 270.429 171.393 269.537 158.501C269.066 151.69 268.7 131.416 268.7 131.416L270.505 123.952Z" fill="#464648"/>
<path d="M259.071 130.783C259.071 130.783 259.068 130.783 259.068 130.78C259.068 130.785 259.071 130.788 259.071 130.793C259.071 130.786 259.071 130.783 259.071 130.783Z" fill="#181818"/>
<path d="M222.591 251.359C227.341 254.627 238.748 255.991 246.808 256.546C247.457 244.89 249.132 214.618 249.679 203.057C250.286 190.153 253.052 140.367 254.866 129.624C254.5 128.585 254.408 124.132 254.628 122.913C254.628 122.913 228.124 135.105 225.492 142.273C222.857 149.438 228.399 185.535 226.955 194.03C225.512 202.52 214.895 246.049 222.591 251.359Z" fill="#181818"/>
<path d="M245.114 223.143C245.066 223.172 245.014 223.196 244.958 223.215C231.073 227.773 225.773 214.598 225.721 214.465C225.571 214.08 225.754 213.649 226.148 213.495C226.533 213.345 226.968 213.536 227.119 213.921C227.311 214.412 231.969 225.9 244.49 221.79C244.883 221.661 245.307 221.875 245.436 222.269C245.548 222.606 245.406 222.966 245.114 223.143Z" fill="#464648"/>
<path d="M254.615 122.38C250.772 123.761 247.145 125.357 244.238 127.667L242.786 145.019L247.387 147.667L242.376 155.474L243.706 195.086L249.652 203.909C249.652 203.909 251.723 171.393 252.614 158.501C253.085 151.69 254.866 129.623 254.866 129.623L254.615 122.38Z" fill="#464648"/>
<path d="M227.823 191.878C227.128 196.767 224.97 205.868 223.454 211.997L221.463 214.489C222.907 208.764 225.702 197.348 226.509 191.692C227.597 184.04 225.254 163.961 225.23 163.759C225.185 163.395 225.445 163.066 225.811 163.021C226.172 162.979 226.504 163.239 226.546 163.602C226.644 164.436 228.935 184.058 227.823 191.878Z" fill="#464648"/>
<path d="M226.934 175.326C226.723 175.326 226.515 175.225 226.386 175.038L223.157 170.339C222.95 170.037 223.026 169.624 223.328 169.416C223.629 169.208 224.043 169.285 224.251 169.587L227.48 174.286C227.687 174.588 227.611 175.001 227.309 175.209C227.194 175.288 227.063 175.326 226.934 175.326Z" fill="#464648"/>
<path d="M322.097 191.906L320.08 239.204C319.854 244.478 315.507 248.605 310.275 248.605C310.134 248.605 309.994 248.602 309.85 248.597C304.43 248.366 300.226 243.785 300.457 238.365L302.275 195.659L302.286 195.415L302.342 194.13L302.358 193.737L302.188 193.419L281.023 153.571C278.478 148.783 280.298 142.837 285.089 140.292C289.877 137.747 295.823 139.567 298.368 144.358L320.958 186.881C321.778 188.427 322.171 190.16 322.097 191.906Z" fill="#181818"/>
<path d="M311.679 190.794L302.275 195.659L302.286 195.415L302.342 194.13L303.873 193.339L311.069 189.615C311.393 189.448 311.794 189.575 311.963 189.902C312.13 190.226 312.003 190.627 311.679 190.794Z" fill="#464648"/>
<path d="M307.292 188.541L303.873 193.34L302.549 195.198C302.48 195.296 302.387 195.371 302.286 195.416L302.342 194.131L302.358 193.738L302.188 193.42L306.212 187.772C306.424 187.472 306.838 187.403 307.136 187.615C307.435 187.827 307.504 188.241 307.292 188.541Z" fill="#464648"/>
<path d="M313.93 237.287C311.941 236.118 308.697 235.079 304.384 236.595C304.384 236.595 298.559 241.771 297.763 244.425C296.967 247.079 297.942 250.843 298.715 251.483C299.488 252.123 300.749 251.99 300.55 249.601C300.351 247.212 301.413 245.155 302.541 244.757C303.669 244.359 303.333 247.518 302.738 251.811C302.143 256.104 301.371 256.369 299.965 260.019C298.56 263.669 301.015 262.209 302.939 260.019C304.863 257.829 305.859 252.056 305.859 252.056C305.859 252.056 305.956 255.102 305.461 256.767C304.827 258.9 301.445 262.987 302.507 263.784C303.569 264.58 306.435 261.512 307.63 258.459C308.824 255.407 308.912 254.445 308.912 254.445C308.912 254.445 309.024 256.734 308.493 258.128C307.962 259.521 305.109 264.067 306.038 264.477C306.907 264.861 309.82 262.242 310.683 260.252C311.546 258.261 311.699 255.707 311.699 255.707C311.699 255.707 312.429 258.03 311.765 259.821C311.101 261.613 310.04 263.537 311.168 263.338C312.296 263.139 314.353 260.352 314.419 256.902C314.485 253.452 315.083 250.93 315.282 249.338C315.416 248.265 315.791 244.001 316.022 241.332C316.162 239.691 315.348 238.12 313.93 237.287Z" fill="#FDBB92"/>
</svg>
