<svg width="24" height="18" viewBox="0 0 24 18" fill="none" xmlns="http://www.w3.org/2000/svg">
<path fill-rule="evenodd" clip-rule="evenodd" d="M0.554199 1.62346C0.554199 1.20203 0.895842 0.860382 1.31728 0.860382H22.6836C23.105 0.860382 23.4466 1.20203 23.4466 1.62346V16.8851C23.4466 17.3065 23.105 17.6482 22.6836 17.6482H1.31728C0.895842 17.6482 0.554199 17.3065 0.554199 16.8851V1.62346ZM2.08036 2.38655V16.122H21.9205V2.38655H2.08036Z" fill="#26353F"/>
<path fill-rule="evenodd" clip-rule="evenodd" d="M1.05743 1.71781C1.31437 1.38376 1.79347 1.32124 2.12752 1.57818L10.4136 7.95144L10.4136 7.95147C10.8686 8.30147 11.4265 8.49124 12.0005 8.49124C12.5745 8.49124 13.1325 8.30147 13.5874 7.95147L13.5875 7.95144L21.8735 1.57818C22.2076 1.32124 22.6867 1.38376 22.9436 1.71781C23.2005 2.05187 23.138 2.53096 22.804 2.7879L14.518 9.16112C14.518 9.16113 14.5179 9.16114 14.5179 9.16115C13.7962 9.71637 12.9111 10.0174 12.0005 10.0174C11.0899 10.0174 10.2049 9.71637 9.48311 9.16115C9.48309 9.16114 9.48308 9.16113 9.48306 9.16112L1.19706 2.7879C0.863005 2.53096 0.800491 2.05187 1.05743 1.71781Z" fill="#26353F"/>
</svg>
