<svg width="40" height="40" viewBox="0 0 40 40" fill="none" xmlns="http://www.w3.org/2000/svg">
<path fill-rule="evenodd" clip-rule="evenodd" d="M3.75 4.5C3.41848 4.5 3.10054 4.6317 2.86612 4.86612C2.6317 5.10054 2.5 5.41848 2.5 5.75V25.75C2.5 26.0815 2.6317 26.3995 2.86612 26.6339C3.10054 26.8683 3.41848 27 3.75 27H13.75C14.4404 27 15 27.5596 15 28.25C15 28.9404 14.4404 29.5 13.75 29.5H3.75C2.75544 29.5 1.80161 29.1049 1.09835 28.4016C0.395088 27.6984 0 26.7446 0 25.75V5.75C0 4.75544 0.395088 3.80161 1.09835 3.09835C1.80161 2.39509 2.75544 2 3.75 2H33.75C34.7446 2 35.6984 2.39509 36.4016 3.09835C37.1049 3.80161 37.5 4.75544 37.5 5.75V20.75C37.5 21.4404 36.9404 22 36.25 22C35.5596 22 35 21.4404 35 20.75V5.75C35 5.41848 34.8683 5.10054 34.6339 4.86612C34.3995 4.6317 34.0815 4.5 33.75 4.5H3.75Z" fill="black"/>
<path fill-rule="evenodd" clip-rule="evenodd" d="M0.87025 3.35594C1.2895 2.80747 2.07399 2.70271 2.62246 3.12196L16.1408 13.4553C16.1694 13.4771 16.197 13.5002 16.2236 13.5244C16.9142 14.1537 17.8149 14.5025 18.7492 14.5025C19.6835 14.5025 20.5842 14.1537 21.2748 13.5244C21.3014 13.5002 21.329 13.4772 21.3575 13.4553L34.8742 3.122C35.4226 2.70272 36.2071 2.80743 36.6264 3.35588C37.0457 3.90433 36.941 4.68883 36.3925 5.10811L22.9163 15.4105C21.7709 16.4352 20.2874 17.0025 18.7492 17.0025C17.211 17.0025 15.7275 16.4352 14.5821 15.4105L1.10423 5.10815C0.555757 4.6889 0.451001 3.90441 0.87025 3.35594Z" fill="black"/>
<path fill-rule="evenodd" clip-rule="evenodd" d="M28.191 20.882C28.6145 20.6702 29.1212 20.7159 29.5 21L39.5 28.5C39.8148 28.7361 40 29.1066 40 29.5C40 29.8935 39.8148 30.2639 39.5 30.5L29.5 38C29.1212 38.2841 28.6145 38.3298 28.191 38.118C27.7675 37.9063 27.5 37.4735 27.5 37V34.5H21.25C20.2554 34.5 19.3016 34.1049 18.5983 33.4017C17.8951 32.6984 17.5 31.7446 17.5 30.75V28.25C17.5 27.2554 17.8951 26.3016 18.5983 25.5984C19.3016 24.8951 20.2554 24.5 21.25 24.5H27.5V22C27.5 21.5265 27.7675 21.0937 28.191 20.882ZM30 24.5V25.75C30 26.4404 29.4404 27 28.75 27H21.25C20.9185 27 20.6005 27.1317 20.3661 27.3661C20.1317 27.6005 20 27.9185 20 28.25V30.75C20 31.0815 20.1317 31.3995 20.3661 31.6339C20.6005 31.8683 20.9185 32 21.25 32H28.75C29.4404 32 30 32.5597 30 33.25V34.5L36.6667 29.5L30 24.5Z" fill="black"/>
</svg>
