<svg width="40" height="40" viewBox="0 0 40 40" fill="none" xmlns="http://www.w3.org/2000/svg">
<g clip-path="url(#clip0)">
<path fill-rule="evenodd" clip-rule="evenodd" d="M24.425 -0.0148926C23.099 -0.0148926 21.8272 0.511892 20.8895 1.44957C19.9518 2.38726 19.425 3.65902 19.425 4.98511C19.425 6.31119 19.9518 7.58296 20.8895 8.52064C21.8272 9.45832 23.099 9.98511 24.425 9.98511C25.7511 9.98511 27.0229 9.45832 27.9606 8.52064C28.8983 7.58296 29.425 6.31119 29.425 4.98511C29.425 3.65902 28.8983 2.38726 27.9606 1.44957C27.0229 0.511891 25.7511 -0.0148926 24.425 -0.0148926ZM22.6573 3.21734C23.1261 2.7485 23.762 2.48511 24.425 2.48511C25.0881 2.48511 25.724 2.7485 26.1928 3.21734C26.6617 3.68618 26.9251 4.32207 26.9251 4.98511C26.9251 5.64815 26.6617 6.28403 26.1928 6.75287C25.724 7.22171 25.0881 7.48511 24.425 7.48511C23.762 7.48511 23.1261 7.22172 22.6573 6.75287C22.1884 6.28403 21.925 5.64815 21.925 4.98511C21.925 4.32207 22.1884 3.68618 22.6573 3.21734ZM19.4484 10.076C17.5221 9.49971 15.4588 9.58128 13.584 10.3079C11.7093 11.0345 10.1294 12.3654 9.09463 14.0893L7.47248 16.7956C7.21111 17.2149 7.03514 17.6817 6.95474 18.1693C6.87355 18.6618 6.89147 19.1655 7.00745 19.6509C7.12344 20.1363 7.33515 20.5937 7.63018 20.9962C7.92522 21.3988 8.29764 21.7384 8.72561 21.9951C9.15358 22.2519 9.6285 22.4206 10.1225 22.4914C10.6166 22.5623 11.1198 22.5338 11.6026 22.4076C12.0855 22.2815 12.5384 22.0602 12.9346 21.7568C13.327 21.4563 13.6562 21.0812 13.9031 20.6532L15.5258 17.9487L15.5263 17.9479C15.5933 17.8368 15.6736 17.7353 15.7647 17.6452L9.63824 34.9787C9.4741 35.443 9.40303 35.9352 9.42909 36.427C9.45514 36.9188 9.57782 37.4007 9.7901 37.8451C10.0024 38.2895 10.3001 38.6878 10.6663 39.0171C11.0325 39.3465 11.46 39.6005 11.9244 39.7646C12.3887 39.9287 12.8809 39.9998 13.3727 39.9738C13.8645 39.9477 14.3464 39.825 14.7908 39.6127C15.2352 39.4005 15.6335 39.1027 15.9628 38.7365C16.2922 38.3703 16.5462 37.9428 16.7103 37.4785L19.0072 30.982L22.2959 37.8532L22.2968 37.855C22.5102 38.299 22.8089 38.6966 23.1759 39.0251C23.543 39.3536 23.9711 39.6067 24.4359 39.7697C24.9007 39.9328 25.3931 40.0027 25.885 39.9755C26.3768 39.9482 26.8584 39.8244 27.3024 39.611C27.7464 39.3977 28.144 39.0989 28.4725 38.7319C28.801 38.3649 29.0541 37.9367 29.2171 37.4719C29.3802 37.0071 29.4501 36.5147 29.4229 36.0229C29.3957 35.5317 29.272 35.0505 29.0592 34.607L29.0584 34.6054L22.5363 20.9795L23.1957 19.1114C23.2774 19.1716 23.3529 19.2406 23.4207 19.3174C23.5962 19.5163 23.7133 19.7598 23.7591 20.021C24.1158 22.1941 25.2658 24.1578 26.9868 25.532C27.445 25.8982 27.9828 26.1519 28.5569 26.2725C29.1312 26.3931 29.7258 26.3773 30.2929 26.2263C30.86 26.0753 31.3838 25.7933 31.822 25.403C32.2603 25.0127 32.6008 24.5249 32.8162 23.979L32.8217 23.965C33.1095 23.2243 33.1548 22.4111 32.9504 21.6427C32.7441 20.8667 32.294 20.1774 31.6666 19.6763C31.3932 19.4563 31.2106 19.1432 31.1535 18.7969L31.1522 18.7895C30.8717 17.1492 30.1405 15.6193 29.0404 14.3708C27.9402 13.1222 26.5145 12.2042 24.9226 11.7194L19.4495 10.0763L19.4484 10.076ZM30.4883 23.0675L30.4869 23.0711C30.4149 23.2491 30.3028 23.4083 30.1593 23.5361C30.0132 23.6662 29.8386 23.7602 29.6496 23.8105C29.4606 23.8608 29.2624 23.8661 29.0709 23.8259C28.8795 23.7857 28.6996 23.7006 28.5468 23.5784C27.3083 22.5895 26.4811 21.176 26.2255 19.6119L26.2237 19.6017C26.0999 18.8818 25.7783 18.2106 25.295 17.663C24.8116 17.1154 24.1855 16.713 23.4866 16.5008L22.8018 16.2949C22.1626 16.1026 21.4852 16.4464 21.2631 17.0758L20.0064 20.6358C19.896 20.9486 19.9144 21.2924 20.0576 21.5916L26.8043 35.6866L26.8051 35.6883C26.8763 35.8364 26.9176 35.997 26.9267 36.1611C26.9358 36.3251 26.9124 36.4893 26.8581 36.6443C26.8037 36.7994 26.7193 36.9421 26.6097 37.0646C26.5002 37.187 26.3676 37.2866 26.2195 37.3577C26.0714 37.4289 25.9108 37.4702 25.7468 37.4793C25.5827 37.4884 25.4185 37.4651 25.2635 37.4107C25.1085 37.3563 24.9657 37.2719 24.8433 37.1623C24.7211 37.053 24.6217 36.9207 24.5505 36.773L24.5501 36.7721L19.961 27.1839C19.7428 26.7281 19.2716 26.4484 18.7669 26.4753C18.2622 26.5023 17.8234 26.8304 17.6549 27.3069L14.3533 36.6453C14.2985 36.8001 14.2138 36.9427 14.104 37.0648C13.9942 37.1868 13.8614 37.2861 13.7133 37.3569C13.5651 37.4277 13.4044 37.4686 13.2404 37.4773C13.0764 37.4859 12.9124 37.4622 12.7575 37.4075C12.6027 37.3528 12.4602 37.2681 12.3381 37.1583C12.216 37.0485 12.1167 36.9157 12.046 36.7675C11.9752 36.6194 11.9343 36.4587 11.9256 36.2947C11.9169 36.1307 11.9406 35.9666 11.9953 35.8118L18.8287 16.4785C18.943 16.1551 18.9194 15.799 18.7635 15.4936C18.6076 15.1882 18.333 14.9602 18.0041 14.8631C17.144 14.6091 16.2239 14.6475 15.3879 14.9724C14.552 15.2973 13.8474 15.8902 13.3845 16.6584L11.7533 19.3771L11.74 19.3998C11.6574 19.5442 11.5468 19.6707 11.4147 19.7719C11.2826 19.873 11.1317 19.9468 10.9707 19.9888C10.8098 20.0309 10.642 20.0404 10.4774 20.0167C10.3127 19.9931 10.1544 19.9369 10.0117 19.8513C9.86907 19.7657 9.74493 19.6525 9.64658 19.5183C9.54824 19.3842 9.47767 19.2317 9.43901 19.0699C9.40035 18.9081 9.39437 18.7402 9.42144 18.576C9.4485 18.4119 9.50806 18.2548 9.59662 18.114L9.61061 18.0912L11.2389 15.3745C11.9879 14.1272 13.1308 13.1647 14.4875 12.6389C15.8442 12.1131 17.3378 12.0541 18.7318 12.4711L24.1943 14.111L24.1965 14.1117C25.344 14.4616 26.3716 15.1235 27.1646 16.0235C27.9575 16.9234 28.4847 18.0258 28.6875 19.2078C28.8456 20.1606 29.3493 21.0217 30.1024 21.6265L30.1058 21.6292C30.3153 21.7963 30.4655 22.0262 30.5344 22.2852C30.6033 22.5442 30.5871 22.8184 30.4883 23.0675Z" fill="black"/>
</g>
<defs>
<clipPath id="clip0">
<rect width="40" height="40" fill="white"/>
</clipPath>
</defs>
</svg>
