<svg width="40" height="40" viewBox="0 0 40 40" fill="none" xmlns="http://www.w3.org/2000/svg">
<path d="M23.1668 34.7908L23.2382 34.8358C24.8916 35.8894 26.8863 36.3543 28.8662 36.1371C30.846 35.92 32.6925 35.0341 34.1006 33.6256L35.1495 32.5748C35.852 31.8723 36.2469 30.9186 36.2469 29.9242C36.2469 28.9299 35.852 27.9763 35.149 27.273L30.7307 22.853C30.3824 22.5046 29.9688 22.2281 29.5137 22.0396C29.0586 21.851 28.5708 21.7539 28.0782 21.7539C27.5857 21.7539 27.0979 21.851 26.6428 22.0396C26.1877 22.2281 25.7742 22.5045 25.4258 22.853C25.1917 23.087 24.8738 23.2187 24.5424 23.2187C24.211 23.2187 23.8931 23.087 23.6587 22.8527L16.5853 15.7826C16.469 15.6665 16.3768 15.5286 16.3139 15.3767C16.2512 15.2253 16.2188 15.0627 16.2188 14.8984C16.2188 14.7342 16.2512 14.5715 16.3141 14.4196C16.3611 14.3061 16.4248 14.2001 16.5026 14.1053L16.5851 14.0144C17.2886 13.3106 17.6835 12.357 17.6835 11.3626C17.6835 10.3682 17.2886 9.41452 16.5856 8.7113L12.1655 4.29119C11.4621 3.58804 10.5085 3.19312 9.51408 3.19312C8.51971 3.19312 7.56606 3.58804 6.86283 4.29106L5.8127 5.34119C4.40427 6.74918 3.51824 8.59572 3.30116 10.5756C3.09686 12.4389 3.49662 14.3154 4.43642 15.9303L4.61081 16.2173C9.58124 23.5734 15.8676 29.8586 23.1668 34.7908ZM6.73094 14.893C5.9591 13.669 5.63219 12.2533 5.78627 10.848C5.94132 9.43387 6.5742 8.11491 7.58033 7.1091L8.63047 6.05896C8.86474 5.82476 9.18262 5.69312 9.51408 5.69312C9.84555 5.69312 10.1634 5.82476 10.3978 6.05909L14.8177 10.479C15.0519 10.7132 15.1835 11.031 15.1835 11.3626C15.1835 11.6941 15.0519 12.012 14.8176 12.2463C14.4697 12.594 14.1932 13.0074 14.0045 13.4625C13.8158 13.9181 13.7188 14.4059 13.7188 14.8984C13.7188 15.3911 13.8158 15.8788 14.0044 16.3339C14.1932 16.7894 14.4697 17.2028 14.8181 17.551L21.8912 24.6208C22.5943 25.3237 23.548 25.7187 24.5424 25.7187C25.5368 25.7187 26.4905 25.3237 27.1937 24.6207C27.3102 24.5041 27.4479 24.412 27.5995 24.3493C27.7515 24.2863 27.9142 24.2539 28.0782 24.2539C28.2423 24.2539 28.405 24.2863 28.5569 24.3492C28.7085 24.412 28.8464 24.5042 28.9625 24.6204L33.3808 29.0404C33.6153 29.2749 33.7469 29.5928 33.7469 29.9242C33.7469 30.2557 33.6153 30.5735 33.3809 30.8079L32.332 31.8587C31.3268 32.8641 30.0078 33.497 28.5936 33.652C27.2737 33.7968 25.9446 33.5172 24.7976 32.8579L24.5443 32.7044C17.5252 27.9573 11.4788 21.9116 6.73094 14.893Z" fill="black"/>
</svg>
