<svg width="22" height="26" viewBox="0 0 22 26" fill="none" xmlns="http://www.w3.org/2000/svg">
<path fill-rule="evenodd" clip-rule="evenodd" d="M0.0625 12.2188C0.0625 11.7873 0.412278 11.4375 0.84375 11.4375H21.1562C21.5877 11.4375 21.9375 11.7873 21.9375 12.2188V24.7188C21.9375 25.1502 21.5877 25.5 21.1562 25.5H0.84375C0.412278 25.5 0.0625 25.1502 0.0625 24.7188V12.2188ZM1.625 13V23.9375H20.375V13H1.625Z" fill="#26353F"/>
<path fill-rule="evenodd" clip-rule="evenodd" d="M3.87397 1.18647C4.31351 0.74693 4.90965 0.5 5.53125 0.5H16.4688C17.0904 0.5 17.6865 0.74693 18.126 1.18647C18.5656 1.62601 18.8125 2.22215 18.8125 2.84375V12.2188C18.8125 12.6502 18.4627 13 18.0312 13C17.5998 13 17.25 12.6502 17.25 12.2188V2.84375C17.25 2.63655 17.1677 2.43784 17.0212 2.29132C16.8747 2.14481 16.6759 2.0625 16.4688 2.0625H5.53125C5.32405 2.0625 5.12534 2.14481 4.97882 2.29132C4.83231 2.43784 4.75 2.63655 4.75 2.84375V12.2188C4.75 12.6502 4.40022 13 3.96875 13C3.53728 13 3.1875 12.6502 3.1875 12.2188V2.84375C3.1875 2.22215 3.43443 1.62601 3.87397 1.18647Z" fill="#26353F"/>
<path fill-rule="evenodd" clip-rule="evenodd" d="M6.3125 4.40625C6.3125 3.97478 6.66228 3.625 7.09375 3.625H11.7812C12.2127 3.625 12.5625 3.97478 12.5625 4.40625C12.5625 4.83772 12.2127 5.1875 11.7812 5.1875H7.09375C6.66228 5.1875 6.3125 4.83772 6.3125 4.40625Z" fill="#26353F"/>
<path fill-rule="evenodd" clip-rule="evenodd" d="M6.3125 7.53125C6.3125 7.09978 6.66228 6.75 7.09375 6.75H14.9062C15.3377 6.75 15.6875 7.09978 15.6875 7.53125C15.6875 7.96272 15.3377 8.3125 14.9062 8.3125H7.09375C6.66228 8.3125 6.3125 7.96272 6.3125 7.53125Z" fill="#26353F"/>
<path fill-rule="evenodd" clip-rule="evenodd" d="M14.125 15.3438C14.125 14.9123 14.4748 14.5625 14.9062 14.5625H18.0312C18.4627 14.5625 18.8125 14.9123 18.8125 15.3438V18.4688C18.8125 18.9002 18.4627 19.25 18.0312 19.25H14.9062C14.4748 19.25 14.125 18.9002 14.125 18.4688V15.3438ZM15.6875 16.125V17.6875H17.25V16.125H15.6875Z" fill="#26353F"/>
<path fill-rule="evenodd" clip-rule="evenodd" d="M3.1875 15.3438C3.1875 14.9123 3.53728 14.5625 3.96875 14.5625H7.09375C7.52522 14.5625 7.875 14.9123 7.875 15.3438C7.875 15.7752 7.52522 16.125 7.09375 16.125H3.96875C3.53728 16.125 3.1875 15.7752 3.1875 15.3438Z" fill="#26353F"/>
<path fill-rule="evenodd" clip-rule="evenodd" d="M3.1875 21.5938C3.1875 21.1623 3.53728 20.8125 3.96875 20.8125H10.2188C10.6502 20.8125 11 21.1623 11 21.5938C11 22.0252 10.6502 22.375 10.2188 22.375H3.96875C3.53728 22.375 3.1875 22.0252 3.1875 21.5938Z" fill="#26353F"/>
</svg>
