<svg width="153" height="49" viewBox="0 0 153 49" fill="none" xmlns="http://www.w3.org/2000/svg">
<path d="M8.54096 5.80975C10.6149 5.80975 12.4438 6.2238 14.0275 7.05188C15.6302 7.87997 16.8745 9.04684 17.7607 10.5525C18.6469 12.0393 19.0899 13.7519 19.0899 15.6904C19.0899 17.6289 18.6375 19.3509 17.7324 20.8565C16.8463 22.3622 15.583 23.529 13.9426 24.3571C12.3212 25.1852 10.4547 25.5993 8.34299 25.5993H0V5.80975H8.54096ZM8.68236 21.4212C9.68164 21.4212 10.5678 21.1859 11.3408 20.7154C12.1138 20.2449 12.7171 19.5768 13.1508 18.711C13.5845 17.8452 13.8013 16.8572 13.8013 15.7469C13.8013 14.6176 13.5656 13.6202 13.0942 12.7544C12.6418 11.8887 12.0101 11.2206 11.1994 10.7501C10.3887 10.2607 9.46482 10.0161 8.42783 10.0161H5.17549V21.4212H8.68236Z" fill="#000091"/>
<path d="M52.5357 5.80975H58.1637L63.9048 17.3842L69.6177 5.80975H75.2456V25.5993H70.664L70.6358 13.065L65.5734 23.6231H62.2363L57.1455 13.065V25.5993H52.5357V5.80975Z" fill="#000091"/>
<path d="M83.3472 5.80975H88.5227V25.5993H83.3472V5.80975Z" fill="#000091"/>
<path d="M96.6204 5.80975H111.44L111.412 9.93139H101.796V14.3353H110.676V18.457H101.796V25.5993H96.6204V5.80975Z" fill="#000091"/>
<path d="M131.612 25.5993L130.255 22.0987H121.685L120.299 25.5993H114.983L123.495 5.80975H128.813L137.127 25.5993H131.612ZM123.241 18.1465H128.727L126.012 11.0888L123.241 18.1465Z" fill="#000091"/>
<path fill-rule="evenodd" clip-rule="evenodd" d="M34.8436 7.24943C30.1578 7.24943 26.3593 11.0412 26.3593 15.7185C26.3593 20.3959 30.1578 24.1876 34.8436 24.1876C39.5295 24.1876 43.328 20.3959 43.328 15.7185C43.328 11.0412 39.5295 7.24943 34.8436 7.24943ZM23.5311 15.7185C23.5311 9.48207 28.5958 4.42639 34.8436 4.42639C41.0913 4.42639 46.1562 9.48207 46.1562 15.7185C46.1562 21.9551 41.0913 27.0107 34.8436 27.0107C28.5958 27.0107 23.5311 21.9551 23.5311 15.7185Z" fill="#000091"/>
<path d="M34.8429 31.2453L31.169 24.8935H38.5167L34.8429 31.2453Z" fill="#000091"/>
<path d="M40.4526 14.8908L35.2682 9.47711C35.1771 9.38829 35.0548 9.33856 34.9276 9.33856C34.8003 9.33856 34.6781 9.38829 34.5871 9.47711L29.4027 14.8908C29.3386 14.9574 29.2955 15.0414 29.2789 15.1323C29.2621 15.2232 29.2726 15.3169 29.309 15.4019C29.3453 15.4869 29.4059 15.5593 29.4832 15.6101C29.5604 15.661 29.6509 15.688 29.7434 15.6878H30.4504C30.5129 15.6878 30.5728 15.7126 30.617 15.7567C30.6612 15.8009 30.686 15.8607 30.686 15.9232V19.9245C30.686 20.1119 30.7605 20.2915 30.8931 20.4239C31.0257 20.5564 31.2055 20.6307 31.393 20.6307H38.4627C38.6502 20.6307 38.8301 20.5564 38.9626 20.4239C39.0952 20.2915 39.1697 20.1119 39.1697 19.9245V15.9232C39.1697 15.8607 39.1945 15.8009 39.2387 15.7567C39.2829 15.7126 39.3429 15.6878 39.4054 15.6878H40.1124C40.2047 15.6878 40.2951 15.6607 40.3721 15.6099C40.4492 15.559 40.5096 15.4867 40.5459 15.4018C40.582 15.3169 40.5925 15.2233 40.5761 15.1325C40.5595 15.0418 40.5165 14.9574 40.4526 14.8908Z" fill="#000091"/>
<path d="M1.39389 39.9114V32.2563H3.92007C5.60419 32.2563 6.63216 33.1202 6.63216 34.5419C6.63216 35.9526 5.60419 36.8165 3.92007 36.8165H2.94678V39.9114H1.39389ZM3.98568 33.5467H2.94678V35.5261H3.98568C4.64183 35.5261 5.03553 35.1433 5.03553 34.52C5.03553 33.9404 4.64183 33.5467 3.98568 33.5467ZM11.5981 32.0376C14.0039 32.0376 15.6553 33.8967 15.6553 36.0838C15.6553 38.271 14.0039 40.1301 11.5981 40.1301C9.18124 40.1301 7.52992 38.271 7.52992 36.0838C7.52992 33.8967 9.18124 32.0376 11.5981 32.0376ZM11.5981 38.6756C13.0307 38.6756 14.0586 37.5492 14.0586 36.0838C14.0586 34.6184 13.0307 33.492 11.5981 33.492C10.1545 33.492 9.12656 34.6184 9.12656 36.0838C9.12656 37.5492 10.1545 38.6756 11.5981 38.6756ZM17.253 39.9114V32.2563H19.5933C21.2774 32.2563 22.3163 33.1202 22.3163 34.5419C22.3163 35.4714 21.8679 36.1604 21.0806 36.5213L23.4755 39.9114H21.6492L19.6042 36.8165H18.8059V39.9114H17.253ZM19.6808 33.5467H18.8059V35.5261H19.6808C20.3369 35.5261 20.7197 35.1433 20.7197 34.52C20.7197 33.9404 20.3369 33.5467 19.6808 33.5467ZM23.4394 33.667V32.2563H29.7165V33.667H27.3544V39.9114H25.8015V33.667H23.4394ZM29.4906 39.9114L32.3886 32.2563H34.4226L37.3206 39.9114H35.6693L34.9366 37.9211H31.8746L31.1419 39.9114H29.4906ZM32.3558 36.5978H34.4554L33.4056 33.7217L32.3558 36.5978ZM38.6121 39.9114V32.2563H40.165V39.9114H38.6121ZM42.414 39.9114V32.2563H43.9669V38.5007H46.8758V39.9114H42.414ZM51.2994 39.9114V32.2563H52.8523V39.9114H51.2994ZM55.1013 39.9114V32.2563H57.0916L60.5145 37.7898V32.2563H62.0674V39.9114H60.0771L56.6542 34.3778V39.9114H55.1013ZM63.6288 38.8506L64.7552 37.8117C65.2145 38.4022 65.8269 38.7522 66.4502 38.7522C67.0626 38.7522 67.4345 38.4241 67.4345 37.8773C67.4345 36.4666 63.9569 36.8493 63.9569 34.2575C63.9569 33.0437 64.963 32.0376 66.4284 32.0376C67.5766 32.0376 68.4515 32.5515 69.1076 33.328L67.9703 34.356C67.5219 33.7764 67.0189 33.3936 66.4393 33.3936C65.8925 33.3936 65.5316 33.7436 65.5316 34.2029C65.5316 35.5917 69.0092 35.198 69.0092 37.8226C68.9873 39.2662 67.8719 40.1301 66.4612 40.1301C65.1707 40.1301 64.3068 39.6599 63.6288 38.8506ZM69.9061 33.667V32.2563H76.1832V33.667H73.8211V39.9114H72.2682V33.667H69.9061ZM77.6565 39.9114V32.2563H79.2094V39.9114H77.6565ZM80.671 33.667V32.2563H86.9482V33.667H84.5861V39.9114H83.0332V33.667H80.671ZM92.9359 37.0462V32.2563H94.4888V36.915C94.4888 38.9272 93.3077 40.1301 91.383 40.1301C89.4693 40.1301 88.2882 38.9272 88.2882 36.915V32.2563H89.8411V37.0462C89.8411 38.0742 90.4207 38.6756 91.394 38.6756C92.3454 38.6756 92.9359 38.0742 92.9359 37.0462ZM95.8253 33.667V32.2563H102.102V33.667H99.7403V39.9114H98.1874V33.667H95.8253ZM103.576 39.9114V32.2563H105.129V39.9114H103.576ZM110.79 32.0376C113.196 32.0376 114.847 33.8967 114.847 36.0838C114.847 38.271 113.196 40.1301 110.79 40.1301C108.373 40.1301 106.722 38.271 106.722 36.0838C106.722 33.8967 108.373 32.0376 110.79 32.0376ZM110.79 38.6756C112.222 38.6756 113.25 37.5492 113.25 36.0838C113.25 34.6184 112.222 33.492 110.79 33.492C109.346 33.492 108.318 34.6184 108.318 36.0838C108.318 37.5492 109.346 38.6756 110.79 38.6756ZM116.445 39.9114V32.2563H118.435L121.858 37.7898V32.2563H123.411V39.9114H121.42L117.997 34.3778V39.9114H116.445ZM125.661 39.9114V32.2563H127.651L131.074 37.7898V32.2563H132.627V39.9114H130.637L127.214 34.3778V39.9114H125.661ZM134.877 39.9114V32.2563H139.339V33.5467H136.43V35.3621H138.902V36.6525H136.43V38.6209H139.339V39.9114H134.877ZM141.253 39.9114V32.2563H142.806V38.5007H145.715V39.9114H141.253Z" fill="#000091"/>
</svg>
