<svg width="39" height="42" viewBox="0 0 19 22" fill="none" xmlns="http://www.w3.org/2000/svg">
<path fill-rule="evenodd" clip-rule="evenodd" d="M9.5 2.31579C5.56497 2.31579 2.375 5.42623 2.375 9.26316C2.375 13.1001 5.56497 16.2105 9.5 16.2105C13.435 16.2105 16.625 13.1001 16.625 9.26316C16.625 5.42623 13.435 2.31579 9.5 2.31579ZM0 9.26316C0 4.14726 4.25329 0 9.5 0C14.7467 0 19 4.14726 19 9.26316C19 14.3791 14.7467 18.5263 9.5 18.5263C4.25329 18.5263 0 14.3791 0 9.26316Z" fill="#4164F5"/>
<path d="M9.4995 22L6.41429 16.7895L12.5847 16.7895L9.4995 22Z" fill="#4164F5"/>
<path d="M14.0287 8.58408L9.69803 4.14313C9.62198 4.07027 9.5199 4.02948 9.41359 4.02948C9.30728 4.02948 9.20519 4.07027 9.12914 4.14313L4.79847 8.58408C4.74492 8.63872 4.70894 8.70761 4.69503 8.78217C4.68112 8.85673 4.68988 8.93365 4.72023 9.00336C4.75058 9.07306 4.80117 9.13247 4.8657 9.17417C4.93023 9.21587 5.00584 9.23802 5.08311 9.23786H5.67366C5.72586 9.23786 5.77593 9.25821 5.81285 9.29442C5.84977 9.33063 5.8705 9.37974 5.8705 9.43095V12.7134C5.8705 12.867 5.93272 13.0143 6.04347 13.123C6.15422 13.2316 6.30443 13.2926 6.46105 13.2926H12.3665C12.5231 13.2926 12.6733 13.2316 12.7841 13.123C12.8948 13.0143 12.9571 12.867 12.9571 12.7134V9.43095C12.9571 9.37974 12.9778 9.33063 13.0147 9.29442C13.0516 9.25821 13.1017 9.23786 13.1539 9.23786H13.7445C13.8216 9.23787 13.8971 9.21564 13.9615 9.17393C14.0259 9.13222 14.0763 9.07287 14.1066 9.00326C14.1369 8.93364 14.1457 8.85684 14.1318 8.78238C14.118 8.70792 14.0821 8.6391 14.0287 8.58446V8.58408Z" fill="#4164F5"/>
</svg>
