<svg width="138" height="50" viewBox="0 0 138 50" fill="none" xmlns="http://www.w3.org/2000/svg">
<path d="M8.54096 2.03772C10.6149 2.03772 12.4438 2.45177 14.0275 3.27985C15.6302 4.10794 16.8745 5.27481 17.7607 6.78042C18.6469 8.26722 19.0899 9.97986 19.0899 11.9184C19.0899 13.8568 18.6375 15.5788 17.7324 17.0845C16.8463 18.5901 15.583 19.757 13.9426 20.5851C12.3212 21.4132 10.4547 21.8273 8.34299 21.8273H0V2.03772H8.54096ZM8.68236 17.6491C9.68164 17.6491 10.5678 17.4139 11.3408 16.9433C12.1138 16.4729 12.7171 15.8047 13.1508 14.939C13.5845 14.0732 13.8013 13.0852 13.8013 11.9748C13.8013 10.8456 13.5656 9.84812 13.0942 8.98239C12.6418 8.11666 12.0101 7.44854 11.1994 6.97804C10.3887 6.4887 9.46482 6.24404 8.42783 6.24404H5.17549V17.6491H8.68236Z" fill="#000091"/>
<path d="M52.5352 2.03772H58.1631L63.9043 13.6122L69.6171 2.03772H75.2451V21.8273H70.6635L70.6353 9.29292L65.5729 19.8511H62.2357L57.145 9.29292V21.8273H52.5352V2.03772Z" fill="#000091"/>
<path d="M83.3477 2.03772H88.5231V21.8273H83.3477V2.03772Z" fill="#000091"/>
<path d="M96.6211 2.03772H111.44L111.412 6.15935H101.797V10.5633H110.677V14.6849H101.797V21.8273H96.6211V2.03772Z" fill="#000091"/>
<path d="M131.612 21.8273L130.255 18.3267H121.685L120.299 21.8273H114.982L123.495 2.03772H128.812L137.127 21.8273H131.612ZM123.241 14.3744H128.727L126.012 7.31679L123.241 14.3744Z" fill="#000091"/>
<path fill-rule="evenodd" clip-rule="evenodd" d="M34.8437 3.47746C30.1579 3.47746 26.3594 7.26921 26.3594 11.9466C26.3594 16.624 30.1579 20.4157 34.8437 20.4157C39.5296 20.4157 43.3281 16.624 43.3281 11.9466C43.3281 7.26921 39.5296 3.47746 34.8437 3.47746ZM23.5312 11.9466C23.5312 5.71009 28.596 0.654419 34.8437 0.654419C41.0914 0.654419 46.1563 5.71009 46.1563 11.9466C46.1563 18.1831 41.0914 23.2387 34.8437 23.2387C28.596 23.2387 23.5312 18.1831 23.5312 11.9466Z" fill="#000091"/>
<path d="M34.8438 27.4733L31.1699 21.1215H38.5176L34.8438 27.4733Z" fill="#000091"/>
<path d="M40.453 11.1188L35.2686 5.70507C35.1775 5.61625 35.0552 5.56653 34.928 5.56653C34.8007 5.56653 34.6785 5.61625 34.5875 5.70507L29.4031 11.1188C29.339 11.1854 29.2958 11.2694 29.2792 11.3602C29.2625 11.4511 29.273 11.5449 29.3094 11.6299C29.3457 11.7149 29.4062 11.7873 29.4835 11.8381C29.5607 11.8889 29.6512 11.9159 29.7438 11.9158H30.4508C30.5133 11.9158 30.5731 11.9406 30.6173 11.9847C30.6616 12.0288 30.6863 12.0887 30.6863 12.1511V16.1525C30.6863 16.3399 30.7608 16.5194 30.8935 16.6518C31.0261 16.7843 31.2059 16.8587 31.3933 16.8587H38.4631C38.6505 16.8587 38.8304 16.7843 38.9629 16.6518C39.0956 16.5194 39.17 16.3399 39.17 16.1525V12.1511C39.17 12.0887 39.1948 12.0288 39.239 11.9847C39.2833 11.9406 39.3432 11.9158 39.4057 11.9158H40.1127C40.205 11.9158 40.2954 11.8887 40.3725 11.8378C40.4495 11.787 40.51 11.7146 40.5463 11.6298C40.5824 11.5449 40.5929 11.4513 40.5764 11.3605C40.5598 11.2697 40.5168 11.1854 40.453 11.1188Z" fill="#000091"/>
<path d="M0 32.8177C0 32.167 0.527549 31.6394 1.17831 31.6394H50.6368C51.2875 31.6394 51.8151 32.167 51.8151 32.8177V48.1668C51.8151 48.8175 51.2875 49.3451 50.6368 49.3451H1.17832C0.527551 49.3451 0 48.8175 0 48.1668V32.8177Z" fill="#000091"/>
<path d="M3.31247 45.2432L6.62447 36.4945H8.94912L12.2611 45.2432H10.3739L9.53653 42.9685H6.03706L5.19969 45.2432H3.31247ZM6.58698 41.4562H8.98662L7.7868 38.1692L6.58698 41.4562ZM13.7371 45.2432V36.4945H17.1741C19.9486 36.4945 21.8234 38.5067 21.8234 40.8688C21.8234 43.231 19.9486 45.2432 17.1741 45.2432H13.7371ZM17.199 38.1067H15.5118V43.6309H17.199C18.8238 43.6309 19.9986 42.4186 19.9986 40.8688C19.9986 39.3066 18.8238 38.1067 17.199 38.1067ZM23.6599 45.2432V36.4945H25.8721L28.0092 40.1689L30.1464 36.4945H32.3586V45.2432H30.5838V38.9691L28.6341 42.2436H27.3843L25.4346 38.9691V45.2432H23.6599ZM34.9253 45.2432V36.4945H36.7V45.2432H34.9253ZM39.2703 45.2432V36.4945H41.545L45.4569 42.8185V36.4945H47.2316V45.2432H44.957L41.0451 38.9191V45.2432H39.2703Z" fill="white"/>
</svg>
