<svg width="257" height="192" viewBox="0 0 257 192" fill="none" xmlns="http://www.w3.org/2000/svg">
<path d="M43.9766 173.155H26.9565V173.284H43.9766V173.155Z" fill="#EBEBEB"/>
<path d="M116.418 171.761H87.9419V171.889H116.418V171.761Z" fill="#EBEBEB"/>
<path d="M56.6232 176.207H46.7612V176.335H56.6232V176.207Z" fill="#EBEBEB"/>
<path d="M220.267 173.091H198.072V173.219H220.267V173.091Z" fill="#EBEBEB"/>
<path d="M228.097 173.091H224.842V173.219H228.097V173.091Z" fill="#EBEBEB"/>
<path d="M166.517 174.894H142.448V175.023H166.517V174.894Z" fill="#EBEBEB"/>
<path d="M121.792 145.344H22.5662C20.9491 145.344 19.6331 144.028 19.6331 142.411V2.93311C19.6331 1.31599 20.9491 0 22.5662 0H121.792C123.409 0 124.725 1.31599 124.725 2.93311V142.411C124.725 144.028 123.409 145.344 121.792 145.344ZM22.5662 0.128978C21.0195 0.128978 19.7615 1.38691 19.7615 2.93362V142.412C19.7615 143.958 21.0195 145.216 22.5662 145.216H121.792C123.338 145.216 124.596 143.958 124.596 142.412V2.93311C124.596 1.38691 123.338 0.128465 121.792 0.128465L22.5662 0.128978Z" fill="#EBEBEB"/>
<path d="M232.938 145.344H133.712C132.095 145.344 130.78 144.028 130.78 142.411V2.93311C130.78 1.31599 132.096 0 133.712 0H232.938C234.555 0 235.871 1.31599 235.871 2.93311V142.411C235.871 144.028 234.555 145.344 232.938 145.344ZM133.712 0.128978C132.166 0.128978 130.908 1.38691 130.908 2.93362V142.412C130.908 143.958 132.166 145.216 133.712 145.216H232.938C234.484 145.216 235.742 143.958 235.742 142.412V2.93311C235.742 1.38691 234.484 0.128465 232.938 0.128465L133.712 0.128978Z" fill="#EBEBEB"/>
<path d="M153.048 9.99072H53.8438V81.2076H153.048V9.99072Z" fill="#FAFAFA"/>
<path d="M147.403 81.2076L122.17 9.99072H103.234L128.466 81.2076H147.403Z" fill="white"/>
<path d="M96.4839 81.2076L71.2508 9.99072H64.344L89.5771 81.2076H96.4839Z" fill="white"/>
<path d="M49.1137 7.5415H157.779C158.021 7.5415 158.219 7.73985 158.219 7.9824C158.219 8.22494 158.021 8.42329 157.779 8.42329H49.1137C48.8712 8.42329 48.6729 8.22494 48.6729 7.9824C48.6729 7.73985 48.8712 7.5415 49.1137 7.5415Z" fill="#E0E0E0"/>
<path d="M104.034 9.8374H102.858V81.3605H104.034V9.8374Z" fill="#F0F0F0"/>
<path d="M102.858 9.8374H102.271V81.3605H102.858V9.8374Z" fill="#E0E0E0"/>
<path d="M53.1584 45.0108V46.1865L153.734 46.1865V45.0108L53.1584 45.0108Z" fill="#F0F0F0"/>
<path d="M53.1584 80.7173V10.4804V9.30469H54.3336H152.558H153.734V10.4804V80.7173V81.893H152.558H54.3336H53.1584V80.7173ZM152.558 80.7173V10.4804H54.3336V80.7173H152.558Z" fill="#F0F0F0"/>
<path d="M53.1584 9.30469H52.5706V81.893H53.1584V9.30469Z" fill="#E0E0E0"/>
<path opacity="0.5" d="M67.7422 6.46387V90.0981H46.5095L50.4035 6.46387H67.7422Z" fill="#EBEBEB"/>
<path opacity="0.5" d="M138.563 6.46387V90.0981H159.795L155.901 6.46387H138.563Z" fill="#EBEBEB"/>
<path d="M39.9182 100.119H31.8203V165.806H39.9182V100.119Z" fill="#F0F0F0"/>
<path d="M122.595 165.806H33.3752V168.262H122.595V165.806Z" fill="#F0F0F0"/>
<path d="M39.9185 165.806H124.15L124.15 100.119L39.9185 100.119L39.9185 165.806Z" fill="#F5F5F5"/>
<path d="M39.078 97.9756H30.8013V100.119H39.078V97.9756Z" fill="#F0F0F0"/>
<path d="M39.0782 100.119L125.169 100.119V97.9758L39.0782 97.9758V100.119Z" fill="#FAFAFA"/>
<path d="M121.238 137.085H42.8303V104.619H121.238V137.085ZM43.374 136.541H120.694V105.162H43.374V136.541Z" fill="#E0E0E0"/>
<path d="M121.238 161.306H42.8303V140.335H121.238V161.306ZM43.374 160.762H120.694V140.879H43.374V160.762Z" fill="#E0E0E0"/>
<path d="M109.956 106.634H54.1119C53.7168 106.634 53.3936 106.31 53.3936 105.915V105.608C53.3936 105.213 53.7168 104.89 54.1119 104.89H109.956C110.351 104.89 110.674 105.213 110.674 105.608V105.915C110.674 106.31 110.351 106.634 109.956 106.634Z" fill="#E0E0E0"/>
<path d="M109.956 142.35H54.1119C53.7168 142.35 53.3936 142.027 53.3936 141.632V141.325C53.3936 140.93 53.7168 140.607 54.1119 140.607H109.956C110.351 140.607 110.674 140.93 110.674 141.325V141.632C110.674 142.027 110.351 142.35 109.956 142.35Z" fill="#E0E0E0"/>
<path d="M178.751 165.11H225.86L225.86 21.3751H178.751V165.11Z" fill="#F0F0F0"/>
<path d="M178.751 21.3745H177.256V165.109H178.751V21.3745Z" fill="#E0E0E0"/>
<path d="M186.394 159.627H218.217L218.217 26.858H186.394L186.394 159.627Z" fill="#FAFAFA"/>
<path d="M128.465 191.469C183.49 191.469 228.097 188.864 228.097 185.65C228.097 182.437 183.49 179.832 128.465 179.832C73.4399 179.832 28.8333 182.437 28.8333 185.65C28.8333 188.864 73.4399 191.469 128.465 191.469Z" fill="#F5F5F5"/>
<path d="M73.6649 181.177L77.6879 179.651L75.2249 169.928L71.2014 171.454L73.6649 181.177Z" fill="#B55B52"/>
<path d="M43.4351 181.255H47.7381L48.3825 171.291H44.0794L43.4351 181.255Z" fill="#B55B52"/>
<path d="M48.1687 180.757H42.9222C42.7464 180.757 42.6 180.879 42.5702 181.051L41.9104 184.875C41.842 185.272 42.1724 185.648 42.5784 185.641C44.2649 185.612 45.4915 185.513 47.6173 185.513C48.9251 185.513 52.8761 185.648 54.6824 185.648C56.449 185.648 56.6355 183.863 55.8884 183.701C52.537 182.976 49.9888 181.975 48.8798 181.021C48.68 180.849 48.4256 180.757 48.1687 180.757Z" fill="#263238"/>
<path d="M77.4832 179.196L73.0897 180.862C72.9253 180.925 72.8261 181.093 72.8513 181.267L73.4129 185.145C73.471 185.547 73.8862 185.791 74.2634 185.641C75.8384 185.013 77.1749 184.216 79.18 183.496C81.5247 182.655 83.852 181.754 85.7497 180.546C87.2394 179.597 86.6119 177.8 85.9095 178.082C82.7118 179.365 81.9276 179.787 78.5716 179.142C78.2062 179.072 77.8301 179.064 77.4832 179.196Z" fill="#263238"/>
<path d="M66.1322 50.1221C67.4868 52.5146 68.9132 54.9811 70.351 57.3675C71.7878 59.7646 73.2651 62.1335 74.8314 64.3544C75.2111 64.9171 75.6314 65.4551 76.0102 65.9757C76.1669 66.2084 76.2337 66.2752 76.3442 66.3631C76.4562 66.4453 76.7188 66.5198 77.1247 66.4854C77.526 66.4572 78.0353 66.34 78.562 66.1442C79.6267 65.7557 80.7659 65.1185 81.8805 64.4058C82.4344 64.0415 82.9971 63.6664 83.548 63.2671C84.0906 62.873 84.6533 62.4321 85.1548 62.0452L87.5679 64.1936C87.1054 64.8668 86.6537 65.4387 86.1558 66.0296C85.6651 66.6139 85.1543 67.1889 84.5993 67.731C84.0495 68.2798 83.4657 68.8091 82.8327 69.3091C82.2017 69.8116 81.5249 70.2936 80.7613 70.7181C79.9977 71.141 79.156 71.5351 78.1493 71.7812C77.154 72.0197 75.9403 72.1122 74.6782 71.771C73.4111 71.4478 72.2687 70.6379 71.5113 69.7715C70.9954 69.1734 70.4918 68.6154 70.0211 68.0244C68.1132 65.6869 66.4298 63.2676 64.8322 60.8057C63.2433 58.3264 61.7752 55.8444 60.3857 53.2068L66.1322 50.1221Z" fill="#B65B52"/>
<path d="M58.4998 50.3198C57.3395 54.2667 65.5073 65.0275 65.5073 65.0275L73.743 59.728C73.743 59.728 71.3227 54.238 68.036 50.051C64.662 45.7526 59.7732 45.9879 58.4998 50.3198Z" fill="#6A6AF4"/>
<path opacity="0.2" d="M58.4998 50.3198C57.3395 54.2667 65.5073 65.0275 65.5073 65.0275L73.743 59.728C73.743 59.728 71.3227 54.238 68.036 50.051C64.662 45.7526 59.7732 45.9879 58.4998 50.3198Z" fill="black"/>
<path opacity="0.2" d="M63.5202 54.9531C65.2144 55.6766 67.7071 59.7561 69.0041 62.7797L65.5088 65.0257C65.5088 65.0257 62.362 60.882 60.2551 56.7917C61.3594 55.5805 62.6245 54.5728 63.5202 54.9531Z" fill="black"/>
<path d="M84.6482 63.3866L86.1569 59.1611L90.4394 61.2048C90.4394 61.2048 89.5504 64.9734 86.4169 64.9672L84.6482 63.3866Z" fill="#B55B52"/>
<path d="M89.968 56.3784L91.7799 58.3814L90.4397 61.2056L86.1572 59.1615L89.968 56.3784Z" fill="#B55B52"/>
<path opacity="0.2" d="M75.2245 169.931L76.4953 174.942L72.4702 176.469L71.2 171.457L75.2245 169.931Z" fill="black"/>
<path opacity="0.2" d="M44.0784 171.293H48.3835L48.049 176.43H43.7439L44.0784 171.293Z" fill="black"/>
<path d="M39.3191 48.5741C43.9541 64.9194 43.1957 82.2627 43.485 85.7862C46.8574 85.6655 59.5605 85.1866 66.4853 84.9245C70.3922 60.5598 63.3759 46.9991 63.3759 46.9991C63.3759 46.9991 61.9001 46.7123 59.893 46.5063C59.2635 46.4421 58.5847 46.385 57.8776 46.348C57.4871 46.3244 57.0904 46.3121 56.6881 46.3038C54.0915 46.2612 49.8512 46.6738 46.9299 47.0309C46.3184 47.107 45.6951 47.199 45.0933 47.2971C44.5343 47.3927 43.986 47.4939 43.4695 47.5972C41.1269 48.0643 39.3191 48.5741 39.3191 48.5741Z" fill="#6A6AF4"/>
<path opacity="0.2" d="M39.3191 48.5741C43.9541 64.9194 43.1957 82.2627 43.485 85.7862C46.8574 85.6655 59.5605 85.1866 66.4853 84.9245C70.3922 60.5598 63.3759 46.9991 63.3759 46.9991C63.3759 46.9991 61.9001 46.7123 59.893 46.5063C59.2635 46.4421 58.5847 46.385 57.8776 46.348C57.4871 46.3244 57.0904 46.3121 56.6881 46.3038C54.0915 46.2612 49.8512 46.6738 46.9299 47.0309C46.3184 47.107 45.6951 47.199 45.0933 47.2971C44.5343 47.3927 43.986 47.4939 43.4695 47.5972C41.1269 48.0643 39.3191 48.5741 39.3191 48.5741Z" fill="black"/>
<path opacity="0.2" d="M44.2155 55.5864C44.6281 57.1676 44.1564 64.3837 42.5054 66.1632C42.2803 63.8529 41.9802 61.4403 41.5835 58.9743L44.2155 55.5864Z" fill="black"/>
<path d="M47.0804 35.9717C47.9293 39.0651 48.9719 44.7715 46.9314 47.0294C48.7638 48.5982 51.1399 50.3921 54.8777 50.2457C58.615 50.0992 57.7733 47.5839 56.688 46.3039C53.1255 45.7283 53.0222 43.1241 53.4507 40.6396L47.0804 35.9717Z" fill="#B55B52"/>
<path d="M54.9726 49.7144L55.6514 50.1737L53.1746 50.8947L53.8128 49.7483L54.9726 49.7144Z" fill="#6A6AF4"/>
<path d="M55.9073 49.4731L55.6514 50.1735L58.1384 50.8945L57.9704 49.5641L55.9073 49.4731Z" fill="#6A6AF4"/>
<path d="M45.4442 46.7928L46.4231 46.3016C46.7412 46.1417 47.1209 46.1721 47.4066 46.3843C48.4343 47.1479 51.1686 48.9495 54.9727 49.7141C53.0072 50.6524 53.4933 53.1688 53.4933 53.1688C53.4933 53.1688 47.2499 51.1097 45.2453 47.3822C45.1307 47.169 45.2278 46.9017 45.4442 46.7928Z" fill="white"/>
<path d="M57.7794 46.1449L56.3442 45.9291C56.1777 45.9039 56.0642 46.0899 56.1613 46.2276C56.6628 46.9383 57.4948 48.5102 55.908 49.4737C57.8735 50.412 58.485 52.7079 58.485 52.7079C58.485 52.7079 61.0435 49.9464 58.0605 46.3042C57.9906 46.2189 57.8884 46.1613 57.7794 46.1449Z" fill="white"/>
<path opacity="0.2" d="M49.6774 37.8774L53.4476 40.6379C53.3443 41.2263 53.2739 41.8198 53.2754 42.3922C51.9234 42.2987 49.9775 40.9673 49.7313 39.5773C49.6085 38.8841 49.588 38.2109 49.6774 37.8774Z" fill="black"/>
<path d="M57.9978 29.6286C57.8256 31.1213 56.3925 32.4091 55.4645 32.7307L54.3098 26.2258C56.9053 24.3964 58.2398 27.53 57.9978 29.6286Z" fill="#263238"/>
<path d="M45.7803 31.4221C46.5285 35.6265 46.7526 38.1254 49.1415 40.0524C52.7349 42.9511 57.7384 40.4095 58.262 36.0664C58.7332 32.157 57.4306 25.9377 53.0915 24.7301C48.8167 23.5406 45.0322 27.2177 45.7803 31.4221Z" fill="#B55B52"/>
<path d="M46.5794 34.2571C48.5269 35.292 49.3846 32.9657 49.4015 32.0233C49.4277 30.5208 48.7772 28.8739 48.0023 28.2706C51.7617 28.2485 59.1998 28.0846 57.3237 24.5035C55.4476 20.9219 51.6902 21.3315 48.8579 23.2898C47.361 24.3247 42.5204 23.4239 43.7203 26.2157C41.1962 27.5563 43.3852 32.5598 46.5794 34.2571Z" fill="#263238"/>
<path d="M44.1329 25.985C44.1329 25.985 43.304 26.0621 42.2773 25.354C42.5733 26.6839 43.9196 26.7147 43.9196 26.7147L44.1329 25.985Z" fill="#263238"/>
<path d="M44.1992 34.8805C44.7069 35.9138 45.6447 36.6163 46.545 36.9076C47.8995 37.3455 48.2099 36.1035 47.881 34.7957C47.585 33.6184 46.9473 32.0157 45.5651 32.1473C44.2033 32.2767 43.6186 33.6986 44.1992 34.8805Z" fill="#B55B52"/>
<path d="M71.4954 130.417C69.7468 117.401 66.4848 84.9263 66.4848 84.9263L51.365 85.4936C51.365 85.4936 58.4963 117.946 61.0775 131.104C63.6586 144.262 70.8367 176.022 70.8367 176.022L77.6504 173.442C77.6504 173.442 73.3155 143.95 71.4954 130.417Z" fill="#263238"/>
<path opacity="0.2" d="M57.0101 94.2432C56.0666 94.479 54.5764 95.0581 53.6489 95.9641C55.0749 102.526 56.9407 111.162 58.5434 118.774C59.6369 112.18 59.6693 99.7379 57.0101 94.2432Z" fill="black"/>
<path d="M58.3268 85.2324C58.3268 85.2324 55.1187 120.461 53.6491 132.983C52.0397 146.696 50.0305 175.435 50.0305 175.435H42.1494C42.1494 175.435 41.8226 150.017 42.8472 136.594C44.0142 121.304 43.4865 85.7905 43.4865 85.7905L58.3268 85.2324Z" fill="#263238"/>
<path d="M51.0776 175.605H41.7973L41.6021 172.833L51.9635 172.652L51.0776 175.605Z" fill="#6A6AF4"/>
<path d="M78.5659 173.276L70.4475 176.355L69.4526 173.731L78.4755 170.152L78.5659 173.276Z" fill="#6A6AF4"/>
<path d="M52.3397 31.8658C52.3793 32.2106 52.5941 32.4691 52.8197 32.4429C53.0452 32.4172 53.1953 32.1166 53.1557 31.7718C53.1162 31.427 52.9014 31.1685 52.6758 31.1947C52.4502 31.2204 52.2996 31.521 52.3397 31.8658Z" fill="#263238"/>
<path d="M56.2368 31.4166C56.2763 31.7614 56.4917 32.0199 56.7167 31.9936C56.9423 31.968 57.0924 31.6673 57.0528 31.3225C57.0132 30.9777 56.7979 30.7193 56.5728 30.7455C56.3478 30.7717 56.1972 31.0718 56.2368 31.4166Z" fill="#263238"/>
<path d="M55.0173 31.731C55.0173 31.731 56.0307 33.6297 57.0044 34.4899C56.4603 35.1296 55.393 34.9888 55.393 34.9888L55.0173 31.731Z" fill="#A02724"/>
<path d="M54.0456 36.0786C52.7137 36.0529 52.0004 35.2128 51.9675 35.1732C51.9316 35.13 51.9377 35.0658 51.9809 35.0298C52.0241 34.9939 52.0883 35 52.1243 35.0427C52.1325 35.0524 52.9655 36.0278 54.4741 35.8541C54.5302 35.8479 54.5805 35.888 54.5872 35.9435C54.5939 35.9995 54.5533 36.0498 54.4978 36.0565C54.34 36.075 54.1895 36.0817 54.0456 36.0786Z" fill="#263238"/>
<path d="M50.9929 30.7453C50.959 30.7448 50.9245 30.7355 50.8932 30.717C50.7961 30.66 50.7642 30.5351 50.8213 30.438C51.3942 29.4668 52.3335 29.4139 52.3736 29.4123C52.4862 29.4072 52.5812 29.4945 52.5864 29.6071C52.5915 29.7191 52.5047 29.8142 52.3926 29.8198C52.3618 29.8214 51.6296 29.8702 51.1722 30.6456C51.1337 30.7108 51.0638 30.7468 50.9929 30.7453Z" fill="#263238"/>
<path d="M57.7614 29.8824C57.6956 29.8808 57.6314 29.8479 57.5933 29.7878C57.1098 29.0289 56.3765 29.0047 56.3457 29.0042C56.2337 29.0016 56.1437 28.9091 56.1458 28.7971C56.1473 28.6851 56.2388 28.5952 56.3513 28.5967C56.3919 28.5982 57.3318 28.6178 57.9376 29.5689C57.9983 29.664 57.97 29.7899 57.8754 29.8505C57.8395 29.8731 57.7999 29.8829 57.7614 29.8824Z" fill="#263238"/>
<path d="M49.6289 181.509C49.2312 181.509 48.7975 181.426 48.4953 181.354C48.4547 181.344 48.4229 181.312 48.4147 181.271C48.4059 181.231 48.4224 181.19 48.4563 181.168C48.6084 181.07 49.9542 180.218 50.4418 180.462C50.5174 180.5 50.6119 180.581 50.6309 180.751C50.6566 180.979 50.5945 181.16 50.447 181.289C50.2599 181.453 49.9562 181.509 49.6289 181.509ZM48.7836 181.211C49.5215 181.358 50.0821 181.331 50.3077 181.133C50.4069 181.047 50.446 180.926 50.428 180.763C50.4192 180.684 50.3858 180.658 50.3576 180.644C50.1037 180.517 49.3314 180.885 48.7836 181.211Z" fill="#6A6AF4"/>
<path d="M48.5191 181.357C48.4995 181.357 48.48 181.351 48.4625 181.34C48.4302 181.32 48.4106 181.284 48.4117 181.247C48.4132 181.194 48.4543 179.953 48.9343 179.544C49.0591 179.437 49.203 179.393 49.3618 179.413C49.6069 179.443 49.6783 179.593 49.6994 179.68C49.8145 180.16 49 181.102 48.5668 181.344C48.5525 181.353 48.536 181.357 48.5191 181.357ZM49.3012 179.613C49.2174 179.613 49.1419 179.642 49.0715 179.702C48.7637 179.964 48.6624 180.688 48.6301 181.05C49.056 180.714 49.5689 180.002 49.501 179.718C49.4949 179.693 49.4805 179.632 49.3474 179.616C49.332 179.614 49.3166 179.613 49.3012 179.613Z" fill="#6A6AF4"/>
<path d="M78.0896 179.602C78.0515 179.603 78.0161 179.583 77.9971 179.549C77.976 179.511 77.9816 179.464 78.0104 179.432C78.1574 179.268 79.4636 177.834 80.0556 177.921C80.1697 177.938 80.2575 178.005 80.3089 178.115C80.3952 178.299 80.3942 178.478 80.3063 178.646C80.0134 179.204 78.8002 179.483 78.1029 179.6C78.0988 179.601 78.0942 179.602 78.0896 179.602ZM79.9862 178.121C79.643 178.131 78.8927 178.798 78.3701 179.344C79.3146 179.155 79.9621 178.865 80.1265 178.552C80.1846 178.442 80.184 178.327 80.125 178.202C80.1023 178.154 80.0725 178.13 80.0263 178.123C80.014 178.121 80.0006 178.121 79.9862 178.121Z" fill="#6A6AF4"/>
<path d="M78.0895 179.602C78.0798 179.602 78.07 179.601 78.0603 179.598C78.0253 179.589 77.9976 179.561 77.9883 179.527C77.9755 179.479 77.6728 178.354 78.0253 177.74C78.1327 177.552 78.29 177.43 78.4919 177.376C78.7642 177.303 78.8901 177.407 78.9477 177.508C79.1938 177.935 78.5618 179.169 78.1589 179.572C78.1399 179.59 78.1152 179.601 78.0895 179.602ZM78.6491 177.556C78.6214 177.557 78.587 177.562 78.5443 177.573C78.3948 177.613 78.2828 177.701 78.2021 177.841C77.9703 178.245 78.0731 178.947 78.1414 179.283C78.5243 178.797 78.9189 177.865 78.7709 177.609C78.7622 177.594 78.7386 177.553 78.6491 177.556Z" fill="#6A6AF4"/>
<path d="M44.0501 54.6575C42.7593 57.3172 41.4438 60.0617 40.1684 62.7641C39.5358 64.1233 38.9012 65.4788 38.3021 66.8401L37.4105 68.8806L36.9845 69.9011L36.8776 70.1565L36.8031 70.3461C36.7507 70.4674 36.7168 70.5907 36.6711 70.713C36.3653 71.694 36.2826 72.7253 36.5025 73.8383C36.7034 74.9508 37.1921 76.1178 37.8576 77.257C38.5251 78.3963 39.3647 79.5108 40.3046 80.5688C40.7711 81.1017 41.2614 81.6253 41.7757 82.1269C42.0327 82.3776 42.2947 82.6243 42.5614 82.8637C42.8168 83.1032 43.1072 83.3596 43.3348 83.5569L41.6206 86.2953C40.8236 85.8904 40.1586 85.4927 39.4659 85.0343C38.783 84.5847 38.1135 84.1093 37.465 83.596C36.1752 82.5631 34.9553 81.3931 33.8746 80.0216C32.7996 78.6521 31.8552 77.0628 31.2786 75.2113C30.7098 73.3712 30.5644 71.2459 31.0299 69.2624C31.0921 69.0183 31.1471 68.7691 31.2226 68.5296L31.421 67.8924L31.7853 66.7599C32.0381 66.0133 32.2889 65.2625 32.5663 64.5292C33.1059 63.0524 33.6706 61.5941 34.278 60.1573C35.4789 57.2669 36.7785 54.4797 38.2471 51.6802L44.0501 54.6575Z" fill="#B65B52"/>
<path d="M39.32 48.5747C35.3941 49.8044 31.5334 63.1159 31.5334 63.1159L40.6169 67.0917C40.6169 67.0917 43.5557 60.6587 45.2453 55.6172C47.0854 50.1261 44.0757 47.0856 39.32 48.5747Z" fill="#6A6AF4"/>
<path opacity="0.2" d="M39.32 48.5747C35.3941 49.8044 31.5334 63.1159 31.5334 63.1159L40.6169 67.0917C40.6169 67.0917 43.5557 60.6587 45.2453 55.6172C47.0854 50.1261 44.0757 47.0856 39.32 48.5747Z" fill="black"/>
<path d="M42.3743 82.7124L46.1311 84.9456L42.4771 88.5833C42.4771 88.5833 39.3035 86.1424 40.25 84.2293L42.3743 82.7124Z" fill="#B55B52"/>
<path d="M48.6393 88.5068L44.8711 91.1465L42.4771 88.5834L46.1311 84.9458L48.6393 88.5068Z" fill="#B55B52"/>
<path d="M230.403 81.7451L230.224 84.2222L230.737 84.2593L230.916 81.7823L230.403 81.7451Z" fill="#6A6AF4"/>
<path d="M231.099 72.3845L230.578 79.5649L231.091 79.6021L231.612 72.4217L231.099 72.3845Z" fill="#6A6AF4"/>
<path d="M217.015 153.135H91.1522C87.3065 153.135 84.3852 149.988 84.6611 146.142L91.3202 53.2377C91.5957 49.392 94.9681 46.2451 98.8138 46.2451H224.677C228.523 46.2451 231.444 49.3915 231.168 53.2377L224.509 146.142C224.233 149.988 220.861 153.135 217.015 153.135Z" fill="#6A6AF4"/>
<path d="M187.738 185.651H146.884L139.602 135.167H180.456L187.738 185.651Z" fill="#6A6AF4"/>
<path d="M181.251 182.643H137.057L136.18 185.651H180.373L181.251 182.643Z" fill="#6A6AF4"/>
<path d="M182.612 159.47L142.793 157.295L139.602 135.167H179.107L182.612 159.47Z" fill="#263238"/>
<path d="M215.595 153.135H89.7313C85.8856 153.135 82.9643 149.988 83.2402 146.142L89.8993 53.2377C90.1748 49.392 93.5472 46.2451 97.3929 46.2451H223.256C227.102 46.2451 230.023 49.3915 229.747 53.2377L223.088 146.142C222.812 149.988 219.44 153.135 215.595 153.135Z" fill="#263238"/>
<path d="M229.44 54.1524L225.614 107.445L226.104 107.48L229.93 54.1875L229.44 54.1524Z" fill="white"/>
<path d="M225.283 112.08L223.96 130.533L224.45 130.568L225.773 112.115L225.283 112.08Z" fill="white"/>
<path d="M215.328 151.396H90.2467C87.253 151.396 84.9796 148.947 85.1939 145.953L91.8263 53.4267C92.0411 50.4329 94.6659 47.9839 97.6591 47.9839H222.741C225.735 47.9839 228.008 50.4329 227.794 53.4267L221.161 145.953C220.946 148.946 218.322 151.396 215.328 151.396Z" fill="white"/>
<path opacity="0.2" d="M215.328 151.396H90.2467C87.253 151.396 84.9796 148.947 85.1939 145.953L91.8263 53.4267C92.0411 50.4329 94.6659 47.9839 97.6591 47.9839H222.741C225.735 47.9839 228.008 50.4329 227.794 53.4267L221.161 145.953C220.946 148.946 218.322 151.396 215.328 151.396Z" fill="#6A6AF4"/>
<path opacity="0.5" d="M122.331 147.295H93.1193C91.6733 147.295 90.5746 146.111 90.6784 144.665L97.1258 54.7149C97.2296 53.2689 98.4973 52.0854 99.9438 52.0854H129.155C130.601 52.0854 131.7 53.2689 131.597 54.7149L125.149 144.665C125.045 146.111 123.777 147.295 122.331 147.295Z" fill="white"/>
<path opacity="0.4" d="M121.2 64.7657H106.081C104.779 64.7657 103.789 63.7 103.883 62.3968L104.049 60.0788C104.142 58.7762 105.284 57.7104 106.587 57.7104H121.706C123.008 57.7104 123.998 58.7762 123.905 60.0788L123.739 62.3968C123.645 63.7 122.503 64.7657 121.2 64.7657Z" fill="#6A6AF4"/>
<path d="M111.587 101.152H88.5063C86.2335 101.152 84.507 99.292 84.6704 97.0192L86.325 73.9381C86.4879 71.6653 88.4806 69.8057 90.7534 69.8057H113.834C116.107 69.8057 117.834 71.6653 117.67 73.9381L116.016 97.0192C115.853 99.292 113.86 101.152 111.587 101.152Z" fill="#6A6AF4"/>
<path d="M114.897 82.2275C114.03 82.2275 113.271 82.9362 113.209 83.8025L112.969 87.1539C112.906 88.0203 113.565 88.7289 114.431 88.7289H116.774C116.99 88.7289 117.177 88.5542 117.193 88.3384L117.603 82.6186C117.618 82.4028 117.456 82.2281 117.24 82.2281H114.897V82.2275Z" fill="white"/>
<path d="M105.991 75.6791H91.4419C91.0946 75.6791 90.8309 75.3949 90.8556 75.0476C90.8803 74.7002 91.185 74.416 91.5324 74.416H106.081C106.429 74.416 106.692 74.7002 106.668 75.0476C106.642 75.3954 106.338 75.6791 105.991 75.6791Z" fill="white"/>
<path d="M105.76 78.8934H91.2112C90.8638 78.8934 90.6002 78.6093 90.6249 78.2619C90.6496 77.9145 90.9543 77.6304 91.3016 77.6304H105.851C106.198 77.6304 106.462 77.9145 106.437 78.2619C106.412 78.6098 106.107 78.8934 105.76 78.8934Z" fill="white"/>
<path d="M100.503 82.1078H90.981C90.6336 82.1078 90.37 81.8236 90.3947 81.4763C90.4193 81.1289 90.7241 80.8447 91.0714 80.8447H100.593C100.941 80.8447 101.204 81.1289 101.18 81.4763C101.154 81.8236 100.85 82.1078 100.503 82.1078Z" fill="white"/>
<path opacity="0.5" d="M106.028 97.4222H91.9528C90.4672 97.4222 89.3388 96.2069 89.4452 94.7208L89.975 87.3259C90.0813 85.8403 91.384 84.6245 92.87 84.6245H106.946C108.431 84.6245 109.56 85.8403 109.453 87.3259L108.924 94.7208C108.817 96.2069 107.515 97.4222 106.028 97.4222Z" fill="white"/>
<path opacity="0.4" d="M119.17 109.796H101.657C101.012 109.796 100.523 109.269 100.569 108.625C100.615 107.981 101.18 107.454 101.825 107.454H119.338C119.982 107.454 120.471 107.981 120.425 108.625C120.379 109.269 119.814 109.796 119.17 109.796Z" fill="#6A6AF4"/>
<path opacity="0.8" d="M115.64 114.393H104.527C103.882 114.393 103.393 113.866 103.44 113.222C103.486 112.578 104.051 112.051 104.695 112.051H115.808C116.453 112.051 116.942 112.578 116.895 113.222C116.849 113.867 116.285 114.393 115.64 114.393Z" fill="white"/>
<path opacity="0.4" d="M118.26 122.482H100.747C100.102 122.482 99.6133 121.955 99.6595 121.311C99.7058 120.666 100.271 120.14 100.915 120.14H118.428C119.073 120.14 119.562 120.667 119.516 121.311C119.469 121.955 118.905 122.482 118.26 122.482Z" fill="#6A6AF4"/>
<path opacity="0.8" d="M114.731 127.079H103.618C102.974 127.079 102.484 126.552 102.531 125.908C102.577 125.264 103.142 124.737 103.786 124.737H114.899C115.544 124.737 116.033 125.264 115.987 125.908C115.94 126.552 115.375 127.079 114.731 127.079Z" fill="white"/>
<path opacity="0.4" d="M117.351 135.167H99.8379C99.1935 135.167 98.7043 134.64 98.7506 133.996C98.7968 133.352 99.3616 132.825 100.006 132.825H117.519C118.164 132.825 118.653 133.352 118.607 133.996C118.56 134.641 117.996 135.167 117.351 135.167Z" fill="#6A6AF4"/>
<path opacity="0.8" d="M113.822 139.765H102.708C102.064 139.765 101.575 139.237 101.621 138.593C101.667 137.949 102.232 137.422 102.876 137.422H113.99C114.634 137.422 115.123 137.95 115.077 138.593C115.031 139.238 114.466 139.765 113.822 139.765Z" fill="white"/>
<path opacity="0.5" d="M216.686 120.919C217.445 119.76 219.185 120.25 219.089 121.591L217.404 145.101C217.317 146.312 216.403 147.296 215.364 147.296H130.662C129.623 147.296 128.85 146.312 128.937 145.101L129.938 131.133C130.073 129.249 131.99 127.893 133.752 128.442C138.526 129.93 142.617 129.056 146.418 127.171C154.55 123.134 161.353 114.472 170.701 114.472C171.059 114.472 171.412 114.481 171.755 114.504C185.66 115.343 189.897 132.614 200.669 132.614C203.853 132.614 206.759 131.24 209.29 129.281C212.39 126.883 214.92 123.611 216.686 120.919Z" fill="#6A6AF4"/>
<path opacity="0.5" d="M218.443 130.604L217.404 145.1C217.317 146.311 216.403 147.295 215.364 147.295H130.662C129.623 147.295 128.85 146.311 128.937 145.1L131.002 116.294C131.143 114.321 133.729 113.491 134.775 115.088C137.478 119.21 141.636 124.535 146.418 127.171C148.251 128.178 150.171 128.79 152.14 128.79C158.984 128.79 164.804 120.671 171.755 114.502C176.018 110.72 180.704 107.667 186.31 107.667C198.012 107.667 199.738 126.68 209.29 129.279C211.131 129.783 213.262 129.674 215.813 128.699C217.179 128.178 218.546 129.176 218.443 130.604Z" fill="#6A6AF4"/>
<g opacity="0.8">
<path d="M218.858 124.985C218.811 124.985 218.771 124.965 218.735 124.934C218.719 124.919 218.704 124.898 218.699 124.877C218.688 124.857 218.683 124.831 218.683 124.811C218.683 124.759 218.704 124.718 218.735 124.687C218.797 124.62 218.915 124.615 218.982 124.687C219.018 124.719 219.034 124.764 219.034 124.811C219.034 124.831 219.029 124.857 219.023 124.877C219.013 124.898 218.997 124.919 218.982 124.934C218.951 124.965 218.904 124.985 218.858 124.985Z" fill="white"/>
<path d="M136.502 137.024C136.405 137.024 136.327 136.948 136.327 136.85C136.327 136.757 136.404 136.68 136.502 136.68V136.675C136.6 136.675 136.677 136.757 136.677 136.85C136.677 136.947 136.6 137.03 136.502 137.03C136.502 137.03 136.502 137.03 136.502 137.024ZM134.739 136.927C134.739 136.927 134.739 136.927 134.745 136.927C134.647 136.922 134.575 136.835 134.585 136.737C134.596 136.64 134.682 136.573 134.781 136.583C134.878 136.593 134.944 136.681 134.935 136.773C134.924 136.866 134.847 136.932 134.76 136.932C134.755 136.932 134.749 136.932 134.739 136.927ZM138.064 136.773C138.054 136.676 138.121 136.588 138.218 136.578C138.316 136.567 138.403 136.634 138.413 136.732C138.424 136.829 138.357 136.917 138.259 136.927C138.254 136.927 138.244 136.927 138.239 136.927C138.151 136.927 138.074 136.861 138.064 136.773ZM133.003 136.66C132.91 136.639 132.848 136.547 132.863 136.449C132.884 136.356 132.977 136.295 133.074 136.31C133.166 136.331 133.228 136.423 133.213 136.521C133.193 136.603 133.12 136.66 133.038 136.66C133.028 136.66 133.013 136.66 133.003 136.66ZM139.78 136.485C139.755 136.388 139.812 136.295 139.909 136.27C140.002 136.249 140.094 136.306 140.119 136.398C140.145 136.491 140.084 136.588 139.991 136.614C139.991 136.614 139.991 136.614 139.991 136.609C139.976 136.614 139.96 136.614 139.95 136.614C139.868 136.614 139.796 136.562 139.78 136.485ZM195.981 136.557C195.884 136.557 195.806 136.48 195.806 136.382C195.806 136.285 195.889 136.207 195.981 136.207C196.079 136.207 196.156 136.285 196.156 136.382C196.155 136.48 196.079 136.557 195.981 136.557ZM197.548 136.311C197.538 136.213 197.61 136.126 197.703 136.121C197.8 136.105 197.888 136.177 197.898 136.275C197.909 136.372 197.837 136.46 197.739 136.47C197.734 136.47 197.729 136.47 197.724 136.47C197.635 136.469 197.559 136.403 197.548 136.311ZM194.224 136.449C194.131 136.439 194.059 136.352 194.075 136.254C194.086 136.156 194.172 136.09 194.27 136.1C194.368 136.115 194.434 136.202 194.424 136.295C194.409 136.388 194.337 136.454 194.249 136.454C194.239 136.455 194.234 136.455 194.224 136.449ZM131.297 136.239C131.204 136.213 131.148 136.115 131.173 136.023C131.205 135.93 131.297 135.874 131.395 135.9C131.487 135.93 131.538 136.023 131.513 136.121C131.492 136.198 131.42 136.244 131.343 136.244C131.327 136.244 131.312 136.244 131.297 136.239ZM199.275 136.069C199.254 135.972 199.316 135.879 199.414 135.864C199.507 135.843 199.599 135.905 199.619 136.002C199.64 136.095 199.578 136.187 199.481 136.207C199.47 136.207 199.46 136.213 199.449 136.213C199.367 136.213 199.29 136.151 199.275 136.069ZM192.497 136.131C192.399 136.11 192.343 136.017 192.368 135.92C192.389 135.827 192.482 135.771 192.579 135.792C192.672 135.812 192.728 135.91 192.707 136.002C192.687 136.084 192.615 136.136 192.538 136.136C192.523 136.136 192.507 136.136 192.497 136.131ZM141.445 135.987C141.409 135.894 141.456 135.792 141.548 135.761C141.635 135.725 141.738 135.771 141.774 135.859C141.805 135.951 141.763 136.054 141.671 136.084C141.651 136.095 141.63 136.1 141.61 136.1C141.538 136.1 141.471 136.054 141.445 135.987ZM200.975 135.684C200.95 135.586 201.002 135.489 201.099 135.462C201.192 135.437 201.289 135.494 201.315 135.586C201.34 135.679 201.284 135.776 201.192 135.801C201.176 135.807 201.16 135.812 201.145 135.812C201.068 135.812 200.996 135.76 200.975 135.684ZM190.812 135.622C190.719 135.591 190.672 135.489 190.704 135.401C190.739 135.308 190.837 135.262 190.93 135.293C191.023 135.329 191.069 135.427 191.038 135.519C191.012 135.591 190.941 135.632 190.868 135.632C190.847 135.632 190.827 135.632 190.812 135.622ZM143.043 135.293C142.997 135.211 143.033 135.103 143.12 135.056C143.207 135.016 143.31 135.051 143.356 135.139C143.397 135.221 143.367 135.329 143.28 135.37C143.254 135.385 143.228 135.39 143.198 135.39C143.136 135.391 143.074 135.354 143.043 135.293ZM202.645 135.17C202.61 135.077 202.661 134.98 202.748 134.948L202.753 134.943C202.841 134.912 202.943 134.964 202.975 135.051C203.006 135.144 202.959 135.247 202.867 135.277C202.846 135.282 202.831 135.288 202.81 135.288C202.738 135.288 202.672 135.242 202.645 135.17ZM189.188 134.954C189.101 134.918 189.059 134.81 189.101 134.723C189.142 134.636 189.244 134.6 189.332 134.636C189.424 134.677 189.46 134.779 189.419 134.872C189.388 134.934 189.326 134.975 189.26 134.975C189.234 134.975 189.209 134.969 189.188 134.954ZM204.275 134.553C204.239 134.466 204.28 134.363 204.372 134.327C204.459 134.286 204.562 134.327 204.598 134.42C204.639 134.508 204.598 134.61 204.505 134.651C204.485 134.662 204.459 134.662 204.438 134.662C204.367 134.661 204.306 134.62 204.275 134.553ZM144.564 134.451C144.512 134.368 144.539 134.255 144.62 134.204C144.703 134.152 144.811 134.178 144.862 134.26C144.914 134.342 144.888 134.45 144.806 134.502C144.78 134.522 144.744 134.533 144.713 134.533C144.657 134.533 144.6 134.502 144.564 134.451ZM187.621 134.168C187.533 134.122 187.502 134.014 187.548 133.926C187.594 133.844 187.703 133.813 187.79 133.86C187.872 133.906 187.903 134.009 187.857 134.096C187.826 134.152 187.764 134.188 187.703 134.188C187.677 134.188 187.646 134.178 187.621 134.168ZM205.873 133.849C205.832 133.762 205.868 133.659 205.955 133.618C206.043 133.577 206.15 133.613 206.192 133.7C206.233 133.788 206.192 133.89 206.104 133.932C206.104 133.932 206.104 133.932 206.109 133.937C206.084 133.947 206.058 133.952 206.033 133.952C205.965 133.952 205.904 133.916 205.873 133.849ZM146.013 133.484C145.957 133.402 145.977 133.294 146.054 133.238C146.131 133.182 146.244 133.197 146.301 133.274C146.357 133.351 146.337 133.464 146.26 133.52C146.228 133.541 146.193 133.556 146.157 133.556C146.1 133.556 146.049 133.531 146.013 133.484ZM186.105 133.289C186.105 133.289 186.105 133.289 186.105 133.284C186.023 133.238 185.997 133.129 186.048 133.048C186.095 132.96 186.202 132.934 186.285 132.986C186.372 133.037 186.398 133.145 186.346 133.228C186.31 133.284 186.254 133.315 186.197 133.315C186.166 133.315 186.13 133.305 186.105 133.289ZM207.435 133.068C207.389 132.986 207.42 132.878 207.507 132.832C207.589 132.785 207.697 132.821 207.744 132.904C207.79 132.991 207.759 133.094 207.671 133.145C207.646 133.156 207.615 133.166 207.589 133.166C207.527 133.166 207.466 133.129 207.435 133.068ZM147.411 132.431C147.349 132.354 147.359 132.246 147.437 132.184C147.513 132.123 147.622 132.138 147.684 132.211C147.745 132.287 147.73 132.4 147.658 132.462C147.622 132.488 147.586 132.498 147.545 132.498C147.493 132.498 147.442 132.477 147.411 132.431ZM184.625 132.354C184.625 132.354 184.625 132.354 184.625 132.349C184.543 132.297 184.522 132.19 184.573 132.107C184.63 132.025 184.738 132.005 184.82 132.056C184.897 132.107 184.923 132.22 184.872 132.298C184.836 132.354 184.779 132.38 184.723 132.38C184.687 132.379 184.656 132.369 184.625 132.354ZM208.961 132.226C208.909 132.138 208.94 132.035 209.022 131.984C209.105 131.938 209.213 131.963 209.264 132.046C209.311 132.128 209.285 132.236 209.203 132.287C209.172 132.303 209.141 132.313 209.11 132.313C209.054 132.313 208.992 132.282 208.961 132.226ZM183.171 131.383C183.094 131.326 183.068 131.218 183.124 131.136C183.18 131.06 183.288 131.039 183.371 131.09C183.448 131.146 183.469 131.254 183.417 131.337C183.382 131.388 183.325 131.414 183.268 131.414C183.237 131.414 183.201 131.403 183.171 131.383ZM210.451 131.321C210.4 131.239 210.426 131.131 210.508 131.074C210.59 131.023 210.698 131.049 210.75 131.131C210.801 131.213 210.775 131.321 210.693 131.373C210.667 131.393 210.637 131.403 210.6 131.403C210.543 131.403 210.487 131.372 210.451 131.321ZM148.763 131.331C148.701 131.259 148.711 131.146 148.783 131.085C148.86 131.023 148.973 131.033 149.035 131.105C149.096 131.182 149.086 131.29 149.009 131.351C148.978 131.383 148.937 131.393 148.896 131.393C148.85 131.393 148.798 131.372 148.763 131.331ZM211.915 130.365C211.859 130.283 211.88 130.175 211.957 130.118C212.039 130.062 212.147 130.082 212.203 130.164C212.255 130.242 212.239 130.355 212.157 130.406C212.126 130.427 212.09 130.437 212.059 130.437C212.003 130.437 211.947 130.412 211.915 130.365ZM181.726 130.406C181.644 130.35 181.624 130.242 181.68 130.164C181.732 130.082 181.839 130.062 181.922 130.113C182.004 130.169 182.024 130.277 181.968 130.359C181.937 130.411 181.881 130.436 181.824 130.436C181.794 130.437 181.758 130.427 181.726 130.406ZM150.103 130.211C150.036 130.139 150.047 130.027 150.124 129.965C150.196 129.903 150.309 129.913 150.37 129.985C150.432 130.062 150.422 130.17 150.35 130.231C150.314 130.263 150.278 130.272 150.237 130.272C150.186 130.273 150.135 130.252 150.103 130.211ZM180.278 129.44C180.195 129.384 180.17 129.276 180.226 129.199C180.278 129.117 180.39 129.091 180.468 129.147C180.549 129.199 180.57 129.307 180.519 129.389C180.488 129.44 180.432 129.466 180.375 129.466C180.339 129.466 180.308 129.461 180.278 129.44ZM213.344 129.358C213.283 129.281 213.303 129.174 213.38 129.117C213.457 129.06 213.571 129.076 213.627 129.153C213.683 129.23 213.663 129.343 213.585 129.399C213.555 129.419 213.519 129.43 213.483 129.43C213.432 129.43 213.375 129.41 213.344 129.358ZM151.445 129.096C151.383 129.024 151.394 128.911 151.471 128.85C151.548 128.788 151.656 128.803 151.717 128.876C151.779 128.952 151.769 129.066 151.692 129.122C151.66 129.153 151.619 129.163 151.578 129.163C151.532 129.163 151.481 129.142 151.445 129.096ZM178.813 128.5C178.73 128.449 178.705 128.341 178.757 128.259C178.808 128.176 178.916 128.151 178.998 128.202C179.08 128.253 179.106 128.361 179.055 128.444C179.019 128.5 178.962 128.531 178.906 128.531C178.875 128.531 178.839 128.521 178.813 128.5ZM214.742 128.315C214.681 128.238 214.695 128.125 214.773 128.068C214.85 128.007 214.957 128.022 215.02 128.1C215.076 128.176 215.061 128.284 214.989 128.346C214.989 128.346 214.989 128.346 214.984 128.346C214.953 128.372 214.917 128.382 214.881 128.382C214.824 128.382 214.773 128.356 214.742 128.315ZM152.812 128.017C152.755 127.94 152.771 127.827 152.848 127.77C152.924 127.714 153.032 127.729 153.094 127.806C153.15 127.883 153.135 127.991 153.058 128.053C153.027 128.074 152.991 128.089 152.956 128.089C152.899 128.089 152.848 128.063 152.812 128.017ZM177.317 127.611C177.236 127.565 177.204 127.457 177.256 127.369C177.302 127.287 177.41 127.256 177.493 127.308C177.58 127.354 177.61 127.462 177.559 127.544C177.528 127.6 177.466 127.637 177.405 127.637C177.379 127.637 177.349 127.626 177.317 127.611ZM216.104 127.226C216.042 127.153 216.053 127.041 216.13 126.979C216.207 126.917 216.315 126.928 216.376 127.005C216.438 127.077 216.428 127.19 216.356 127.251C216.32 127.277 216.279 127.292 216.242 127.292C216.191 127.292 216.14 127.272 216.104 127.226ZM154.23 127C154.174 126.917 154.194 126.809 154.276 126.753C154.359 126.701 154.466 126.722 154.523 126.804C154.574 126.881 154.554 126.994 154.471 127.046C154.44 127.066 154.41 127.077 154.373 127.077C154.317 127.077 154.261 127.046 154.23 127ZM175.792 126.784C175.709 126.743 175.673 126.635 175.72 126.547C175.761 126.46 175.869 126.43 175.956 126.47C176.038 126.517 176.074 126.625 176.033 126.712C176.002 126.768 175.936 126.805 175.873 126.805C175.848 126.804 175.817 126.799 175.792 126.784ZM217.439 126.1C217.378 126.028 217.383 125.916 217.455 125.854H217.46C217.532 125.792 217.64 125.797 217.707 125.869C217.768 125.941 217.758 126.054 217.686 126.115C217.655 126.146 217.614 126.161 217.573 126.161C217.522 126.162 217.476 126.141 217.439 126.1ZM155.705 126.069C155.653 125.987 155.684 125.879 155.772 125.827C155.854 125.781 155.962 125.813 156.008 125.895C156.054 125.982 156.029 126.084 155.941 126.136C155.941 126.136 155.941 126.136 155.946 126.136C155.916 126.152 155.885 126.157 155.859 126.157C155.797 126.157 155.735 126.125 155.705 126.069ZM174.229 126.038C174.142 125.997 174.101 125.895 174.142 125.807C174.178 125.72 174.286 125.678 174.373 125.72C174.461 125.756 174.502 125.859 174.461 125.951C174.435 126.012 174.368 126.054 174.301 126.054C174.275 126.054 174.255 126.049 174.229 126.038ZM172.626 125.386C172.534 125.355 172.488 125.252 172.524 125.16C172.555 125.073 172.658 125.026 172.75 125.057C172.837 125.093 172.883 125.191 172.852 125.283C172.827 125.355 172.76 125.396 172.688 125.396C172.667 125.396 172.646 125.396 172.626 125.386ZM157.246 125.263C157.21 125.175 157.246 125.067 157.334 125.031C157.421 124.99 157.529 125.026 157.57 125.119C157.606 125.206 157.57 125.309 157.478 125.35C157.457 125.361 157.431 125.366 157.405 125.366C157.339 125.366 157.277 125.33 157.246 125.263ZM170.982 124.846C170.889 124.815 170.838 124.723 170.864 124.625C170.889 124.533 170.992 124.482 171.085 124.507C171.178 124.533 171.229 124.631 171.203 124.728C171.177 124.8 171.11 124.852 171.033 124.852C171.018 124.852 171.002 124.852 170.982 124.846ZM158.859 124.605C158.829 124.512 158.88 124.415 158.973 124.384C159.066 124.353 159.163 124.405 159.194 124.497C159.225 124.59 159.173 124.687 159.081 124.719C159.065 124.724 159.045 124.729 159.024 124.729C158.952 124.728 158.886 124.682 158.859 124.605ZM169.306 124.42C169.214 124.399 169.152 124.306 169.173 124.214C169.193 124.117 169.286 124.055 169.383 124.081C169.476 124.096 169.537 124.189 169.517 124.286C169.501 124.368 169.424 124.425 169.342 124.425C169.332 124.425 169.322 124.425 169.306 124.42ZM160.529 124.127C160.509 124.029 160.571 123.937 160.668 123.916C160.761 123.896 160.853 123.958 160.873 124.05C160.894 124.148 160.838 124.24 160.74 124.261C160.729 124.261 160.714 124.266 160.704 124.266C160.623 124.265 160.551 124.209 160.529 124.127ZM167.606 124.122C167.513 124.107 167.441 124.019 167.457 123.921C167.467 123.823 167.56 123.757 167.652 123.772H167.657C167.75 123.783 167.817 123.875 167.806 123.973C167.791 124.055 167.719 124.122 167.632 124.122C167.621 124.122 167.616 124.122 167.606 124.122ZM162.246 123.829C162.235 123.732 162.307 123.649 162.4 123.639C162.498 123.624 162.585 123.695 162.596 123.793C162.606 123.891 162.534 123.973 162.436 123.989C162.431 123.989 162.426 123.989 162.422 123.989C162.334 123.988 162.257 123.921 162.246 123.829ZM165.884 123.942C165.884 123.942 165.884 123.942 165.89 123.942C165.791 123.936 165.715 123.854 165.725 123.757C165.73 123.659 165.812 123.588 165.91 123.593C166.008 123.598 166.08 123.685 166.074 123.783C166.069 123.875 165.992 123.947 165.899 123.947C165.895 123.947 165.89 123.942 165.884 123.942ZM163.983 123.716C163.977 123.618 164.06 123.541 164.158 123.541C164.25 123.536 164.333 123.618 164.333 123.716C164.333 123.813 164.255 123.891 164.158 123.891C164.06 123.891 163.983 123.813 163.983 123.716Z" fill="white"/>
<path d="M129.621 135.689C129.601 135.689 129.575 135.684 129.554 135.674C129.534 135.663 129.513 135.653 129.498 135.632C129.482 135.618 129.467 135.602 129.462 135.576C129.452 135.556 129.447 135.535 129.447 135.51C129.447 135.463 129.468 135.422 129.498 135.386C129.514 135.371 129.534 135.356 129.555 135.35C129.596 135.33 129.647 135.33 129.689 135.35C129.714 135.356 129.73 135.371 129.745 135.386C129.781 135.422 129.796 135.463 129.796 135.51C129.796 135.535 129.796 135.556 129.786 135.576C129.776 135.602 129.766 135.618 129.746 135.632C129.73 135.653 129.71 135.664 129.689 135.674C129.667 135.684 129.647 135.689 129.621 135.689Z" fill="white"/>
</g>
<path d="M157.799 83.0682L156.599 81.7754C154.469 83.763 151.635 84.9911 148.601 84.9911C143.52 84.9911 139.491 81.539 138.574 76.8516L136.775 77.3243L135.13 77.7565C135.614 80.2137 136.745 82.4521 138.413 84.2491C143.629 89.8671 152.873 89.8671 158.894 84.2491L157.799 83.0682Z" fill="white"/>
<path d="M160.363 63.7676L158.793 65.2331L157.708 66.2449C159.554 68.2289 160.588 70.9755 160.371 74.0083C160.154 77.0411 158.729 79.7882 156.599 81.7753L157.539 82.7876L158.895 84.249C161.806 81.5327 163.596 77.8494 163.872 74.0083C164.146 70.1708 162.884 66.4833 160.363 63.7676Z" fill="#263238"/>
<path d="M160.363 63.7675C155.147 58.153 145.902 58.153 139.882 63.7675C135.969 67.4225 134.153 72.7657 135.13 77.7563L137.164 77.2219L138.574 76.8514C138.399 75.9454 138.338 74.9891 138.409 74.0082C138.844 67.9457 144.113 63.0285 150.175 63.0285C153.208 63.0285 155.863 64.2567 157.708 66.2443L159.098 64.9478L160.363 63.7675Z" fill="#6A6AF4"/>
<path d="M175.122 83.0687L176.507 81.7758C174.662 79.7882 173.63 77.0416 173.848 74.0088C174.212 68.9273 177.97 64.6519 182.748 63.3986L182.401 61.633L182.085 60.02C179.58 60.6798 177.249 61.9711 175.323 63.7681C169.303 69.3867 168.64 78.6315 173.855 84.2495L175.122 83.0687Z" fill="white"/>
<path d="M194.338 84.2488L192.978 82.7833L192.038 81.7715C189.912 83.7591 187.077 84.9908 184.044 84.9908C181.011 84.9908 178.353 83.7627 176.507 81.7751L175.423 82.7874L173.857 84.2488C176.378 86.9651 179.952 88.4907 183.793 88.4907C187.63 88.4912 191.427 86.9651 194.338 84.2488Z" fill="#263238"/>
<path d="M194.338 84.2488C200.355 78.6303 201.018 69.3854 195.806 63.7674C192.412 60.1164 187.172 58.6833 182.085 60.0193L182.477 62.0151L182.748 63.3984C183.671 63.1585 184.636 63.0295 185.618 63.0295C191.68 63.0295 196.245 67.9461 195.81 74.0086C195.593 77.0419 194.168 79.7849 192.038 81.772L193.241 83.0685L194.338 84.2488Z" fill="#6A6AF4"/>
<path opacity="0.3" d="M218.607 60.817C218.901 60.817 219.169 60.9306 219.361 61.1371C219.555 61.3447 219.65 61.6222 219.628 61.9182L218.993 70.7818C218.948 71.4138 218.376 71.9477 217.745 71.9477H208.881C208.587 71.9477 208.319 71.8336 208.127 71.6276C207.934 71.42 207.84 71.1425 207.861 70.8465L208.496 61.9829C208.541 61.3509 209.113 60.817 209.744 60.817H218.607ZM218.607 60.3638H209.744C208.871 60.3638 208.106 61.078 208.043 61.9506L207.408 70.8141C207.345 71.6872 208.008 72.4009 208.881 72.4009H217.745C218.618 72.4009 219.383 71.6867 219.446 70.8141L220.081 61.9506C220.143 61.078 219.481 60.3638 218.607 60.3638Z" fill="#6A6AF4"/>
<path opacity="0.3" d="M217.514 76.069C217.808 76.069 218.076 76.183 218.268 76.3891C218.462 76.5967 218.556 76.8737 218.535 77.1697L217.9 86.0332C217.855 86.6653 217.283 87.1992 216.652 87.1992H207.788C207.494 87.1992 207.226 87.0856 207.034 86.879C206.841 86.6714 206.747 86.3945 206.768 86.0985L207.403 77.2349C207.448 76.6029 208.02 76.069 208.651 76.069H217.514ZM217.514 75.6152H208.651C207.778 75.6152 207.013 76.3295 206.951 77.202L206.315 86.0656C206.252 86.9386 206.915 87.6524 207.788 87.6524H216.652C217.524 87.6524 218.29 86.9381 218.353 86.0656L218.988 77.202C219.05 76.3295 218.387 75.6152 217.514 75.6152Z" fill="#6A6AF4"/>
<path d="M204.538 125.113C204.787 125.113 205.012 125.208 205.173 125.381C205.334 125.554 205.414 125.788 205.396 126.039C205.357 126.585 204.881 127.029 204.336 127.029C204.087 127.029 203.861 126.934 203.7 126.762C203.539 126.588 203.46 126.355 203.478 126.104C203.517 125.557 203.993 125.113 204.538 125.113ZM204.538 124.66C203.758 124.66 203.082 125.291 203.026 126.071C202.97 126.85 203.556 127.482 204.336 127.482C205.115 127.482 205.792 126.85 205.848 126.071C205.904 125.292 205.317 124.66 204.538 124.66Z" fill="#6A6AF4"/>
<path d="M204.651 124.667L204.425 124.651L204.458 124.199L204.683 124.215L204.651 124.667Z" fill="#6A6AF4"/>
<path d="M204.75 123.287L204.523 123.271L204.59 122.343L204.816 122.359L204.75 123.287ZM204.883 121.431L204.657 121.415L204.724 120.487L204.95 120.503L204.883 121.431ZM205.016 119.575L204.79 119.559L204.856 118.631L205.082 118.647L205.016 119.575ZM205.148 117.719L204.922 117.703L204.989 116.775L205.215 116.791L205.148 117.719ZM205.281 115.863L205.056 115.847L205.123 114.919L205.348 114.935L205.281 115.863ZM205.415 114.007L205.189 113.991L205.256 113.062L205.481 113.078L205.415 114.007ZM205.548 112.151L205.322 112.135L205.389 111.207L205.614 111.223L205.548 112.151ZM205.681 110.295L205.455 110.279L205.521 109.351L205.747 109.367L205.681 110.295ZM205.814 108.439L205.588 108.423L205.655 107.495L205.881 107.511L205.814 108.439ZM205.947 106.583L205.721 106.567L205.788 105.639L206.013 105.655L205.947 106.583ZM206.08 104.727L205.854 104.711L205.921 103.783L206.147 103.799L206.08 104.727Z" fill="#6A6AF4"/>
<path d="M206.016 102.398L205.984 102.85L206.21 102.866L206.242 102.414L206.016 102.398Z" fill="#6A6AF4"/>
<path d="M215.71 102.658H134.342C133.883 102.658 133.461 102.477 133.156 102.148C132.849 101.819 132.699 101.385 132.732 100.924L133.133 95.3224C133.2 94.3861 134.017 93.6235 134.954 93.6235H216.323C216.782 93.6235 217.203 93.8039 217.508 94.1317C217.815 94.4611 217.966 94.8959 217.932 95.3573L217.531 100.959C217.463 101.895 216.646 102.658 215.71 102.658ZM134.954 94.1153C134.27 94.1153 133.673 94.6723 133.624 95.3573L133.222 100.959C133.199 101.282 133.304 101.586 133.516 101.813C133.727 102.041 134.02 102.166 134.342 102.166H215.71C216.395 102.166 216.991 101.609 217.041 100.924L217.442 95.3224C217.466 94.9991 217.361 94.6949 217.148 94.4673C216.937 94.2407 216.644 94.1153 216.323 94.1153H134.954Z" fill="#6A6AF4"/>
<path opacity="0.8" fill-rule="evenodd" clip-rule="evenodd" d="M213.963 97.2346H136.831C136.412 97.2346 136.094 96.8918 136.124 96.4725C136.154 96.0532 136.521 95.7104 136.941 95.7104H214.073C214.493 95.7104 214.811 96.0532 214.781 96.4725C214.75 96.8913 214.383 97.2346 213.963 97.2346Z" fill="white"/>
<path opacity="0.8" fill-rule="evenodd" clip-rule="evenodd" d="M201.109 100.449H136.601C136.181 100.449 135.863 100.106 135.893 99.6869C135.923 99.2675 136.291 98.9248 136.71 98.9248H201.218C201.637 98.9248 201.955 99.2681 201.926 99.6869C201.896 100.106 201.528 100.449 201.109 100.449Z" fill="white"/>
</svg>
