<svg width="231" height="304" viewBox="0 0 231 304" fill="none" xmlns="http://www.w3.org/2000/svg">
  <path
    d="M10.2211 70.6223L6.21976 71.6883C4.56538 72.1291 3.59038 73.7953 4.04204 75.4098L9.15676 93.6935C9.60841 95.3081 11.3157 96.2596 12.9701 95.8188L16.9714 94.7527C18.6258 94.312 19.6008 92.6458 19.1492 91.0312L14.0344 72.7475C13.5828 71.133 11.8755 70.1815 10.2211 70.6223Z"
    fill="#232536" />
  <path
    d="M18.2478 99.3142L14.2465 100.38C12.5921 100.821 11.6171 102.487 12.0688 104.102L17.1835 122.385C17.6352 124 19.3424 124.952 20.9968 124.511L24.9982 123.445C26.6525 123.004 27.6275 121.338 27.1759 119.723L22.0612 101.439C21.6095 99.8249 19.9022 98.8734 18.2478 99.3142Z"
    fill="#232536" />
  <path
    d="M137.67 5.0987L19.1368 36.6798C8.56786 39.4957 2.33908 50.14 5.22448 60.4545L67.9889 284.82C70.8743 295.134 81.7812 301.213 92.3502 298.397L210.883 266.816C221.452 264 227.681 253.356 224.796 243.041L162.031 18.6761C159.146 8.36156 148.239 2.28277 137.67 5.0987Z"
    fill="#232536" />
  <path
    d="M220.957 244.076L158.192 19.711C155.887 11.468 147.17 6.61012 138.724 8.86049L20.1909 40.4416C11.7446 42.6919 6.76675 51.1984 9.07265 59.4414L71.837 283.807C74.1429 292.05 82.8593 296.907 91.3056 294.657L209.839 263.076C218.285 260.826 223.263 252.319 220.957 244.076Z"
    fill="white" />
  <path
    d="M161.502 185.346L86.477 205.176C83.6608 205.92 81.9961 208.752 82.7588 211.5C83.5216 214.248 86.4228 215.873 89.239 215.129L164.265 195.299C167.081 194.554 168.745 191.723 167.983 188.974C167.22 186.226 164.319 184.601 161.502 185.346Z"
    fill="#FFA155" />
  <path
    d="M184.612 207.149L82.7701 234.283C79.9401 235.037 78.2723 237.887 79.0449 240.649C79.8175 243.411 82.738 245.039 85.5679 244.285L187.41 217.151C190.24 216.397 191.908 213.546 191.135 210.785C190.362 208.023 187.442 206.395 184.612 207.149Z"
    fill="#ECF3FE" />
  <path
    d="M190.279 227.426L88.4376 254.56C85.6076 255.314 83.9398 258.164 84.7124 260.926C85.485 263.688 88.4054 265.315 91.2354 264.561L193.077 237.427C195.907 236.673 197.575 233.823 196.803 231.061C196.03 228.3 193.109 226.672 190.279 227.426Z"
    fill="#ECF3FE" />
  <path
    d="M141.177 30.2638L28.6337 60.2283C24.636 61.2927 22.2794 65.3182 23.37 69.2197L56.1866 186.61C57.2773 190.512 61.4022 192.812 65.3998 191.747L177.943 161.783C181.94 160.718 184.297 156.693 183.206 152.792L150.39 35.4007C149.299 31.4993 145.174 29.1994 141.177 30.2638Z"
    fill="#ECF3FE" />
  <path
    d="M149.124 89.2564L162.852 138.331C162.869 138.39 162.883 138.451 162.896 138.514C162.905 138.543 162.911 138.572 162.914 138.602C162.922 138.627 162.927 138.656 162.933 138.685C162.939 138.713 162.933 138.708 162.933 138.72C162.933 138.732 162.933 138.759 162.933 138.776C162.942 138.819 162.945 138.865 162.951 138.909C162.957 138.952 162.96 138.995 162.961 139.038C162.963 139.059 162.963 139.08 162.961 139.102C162.965 139.117 162.965 139.133 162.961 139.149C162.963 139.17 162.963 139.191 162.961 139.213C162.961 139.251 162.961 139.292 162.961 139.328C162.963 139.335 162.963 139.343 162.961 139.35C162.961 139.418 162.961 139.485 162.952 139.551C162.953 139.553 162.954 139.554 162.954 139.556C162.954 139.557 162.953 139.559 162.952 139.56C162.952 139.594 162.952 139.628 162.942 139.661C162.931 139.693 162.934 139.721 162.933 139.748C162.931 139.775 162.933 139.769 162.933 139.773C162.921 139.86 162.907 139.949 162.887 140.033C162.887 140.059 162.875 140.091 162.868 140.121L162.845 140.206C162.839 140.235 162.831 140.262 162.821 140.289C162.805 140.345 162.787 140.402 162.767 140.456C162.748 140.511 162.743 140.524 162.733 140.557C162.701 140.632 162.672 140.705 162.636 140.782C162.599 140.859 162.586 140.89 162.558 140.94C162.531 140.99 162.502 141.044 162.474 141.088C162.461 141.113 162.446 141.135 162.431 141.16C162.419 141.182 162.404 141.203 162.389 141.222C162.373 141.249 162.357 141.274 162.339 141.301L162.323 141.323C162.281 141.387 162.236 141.447 162.19 141.505C162.184 141.51 162.179 141.517 162.176 141.524C162.139 141.569 162.101 141.614 162.06 141.659L162.022 141.703C162.001 141.727 161.979 141.75 161.957 141.773C161.94 141.791 161.923 141.809 161.904 141.826C161.884 141.847 161.864 141.867 161.845 141.885C161.704 142.02 161.552 142.142 161.39 142.252L161.361 142.271L161.326 142.293C161.29 142.319 161.252 142.344 161.213 142.366C161.146 142.409 161.078 142.444 161.01 142.481L160.903 142.537C160.882 142.549 160.857 142.558 160.834 142.568L160.749 142.608C160.745 142.607 160.741 142.607 160.737 142.608C160.716 142.617 160.693 142.627 160.667 142.636L160.632 142.648L160.572 142.675C160.559 142.675 160.549 142.684 160.534 142.687L160.402 142.731C160.34 142.752 160.276 142.771 160.212 142.789L71.371 166.452C71.3073 166.47 71.2422 166.483 71.177 166.498L71.0406 166.524C70.9906 166.535 70.94 166.542 70.8891 166.547C70.8601 166.553 70.8307 166.557 70.8011 166.558C70.7293 166.568 70.657 166.574 70.5845 166.576C70.5638 166.578 70.543 166.578 70.5223 166.576C70.445 166.576 70.3708 166.576 70.2874 166.576H70.151C69.9382 166.562 69.7269 166.531 69.5191 166.485L69.3675 166.443C69.31 166.427 69.2524 166.409 69.1963 166.39C68.8559 166.277 68.5338 166.117 68.2401 165.915C68.1708 165.869 68.104 165.82 68.04 165.767C67.8182 165.594 67.6183 165.395 67.4445 165.176C67.4051 165.125 67.3641 165.069 67.3247 165.014C67.2853 164.96 67.2505 164.904 67.2126 164.847C67.1747 164.791 67.1414 164.73 67.1095 164.673C67.0777 164.615 67.0504 164.563 67.0232 164.506C67.018 164.497 67.0135 164.488 67.0095 164.479C66.9838 164.424 66.9595 164.367 66.9368 164.312C66.9368 164.312 66.9368 164.312 66.9368 164.299C66.9171 164.254 66.9034 164.213 66.8868 164.168C66.8534 164.083 66.8261 163.995 66.8004 163.904L53.0962 114.841C52.9507 114.323 52.9248 113.78 53.0204 113.251C53.1161 112.722 53.3309 112.22 53.6493 111.782L53.6675 111.759L53.8191 111.569C54.3078 110.987 54.9706 110.568 55.7149 110.371L144.555 86.7081C144.643 86.6845 144.728 86.6652 144.816 86.6504C144.831 86.6452 144.846 86.6422 144.863 86.6416C144.946 86.6253 145.032 86.612 145.114 86.6016H145.172C145.244 86.6016 145.323 86.5898 145.391 86.5883C145.41 86.5869 145.428 86.5869 145.446 86.5883C145.537 86.5883 145.625 86.5883 145.713 86.5883C145.801 86.5883 145.882 86.5987 145.963 86.6076C146.078 86.6201 146.193 86.6393 146.307 86.6652C146.37 86.6771 146.433 86.6904 146.495 86.7066C146.602 86.7326 146.707 86.7662 146.81 86.8072L147.036 86.8974C147.045 86.8997 147.054 86.9032 147.063 86.9078C147.121 86.9314 147.178 86.9581 147.233 86.9877C147.275 87.0073 147.317 87.029 147.357 87.0527C147.483 87.1197 147.605 87.1953 147.721 87.279C147.775 87.3175 147.827 87.3544 147.872 87.3944C148.081 87.557 148.271 87.742 148.437 87.946C148.483 88.0007 148.528 88.0599 148.572 88.1176C148.641 88.2129 148.705 88.3116 148.763 88.4134C148.794 88.4636 148.819 88.5124 148.847 88.5612C148.874 88.6101 148.886 88.6396 148.904 88.6796C148.922 88.7195 148.942 88.7609 148.96 88.8023C148.983 88.8505 149.004 88.8999 149.021 88.9502C149.039 88.9921 149.054 89.0351 149.066 89.0789C149.088 89.1425 149.107 89.1957 149.124 89.2564Z"
    fill="#DFE5EA" />
  <path
    d="M148.569 88.1073L52.9644 113.578C53.0191 112.929 53.2515 112.307 53.6372 111.776L53.6554 111.753L53.8069 111.564L88.9229 66.9582C89.4249 66.3192 90.1276 65.8584 90.9235 65.6463C91.7195 65.4342 92.5647 65.4825 93.3298 65.7839L146.799 86.7984L147.025 86.8886C147.035 86.8909 147.044 86.8944 147.052 86.8989C147.11 86.9226 147.167 86.9493 147.222 86.9788C147.265 86.9985 147.306 87.0202 147.346 87.0439C147.473 87.1109 147.594 87.1865 147.71 87.2702C147.765 87.3086 147.816 87.3456 147.862 87.3855C148.071 87.5481 148.26 87.7332 148.427 87.9372C148.472 87.9919 148.518 88.0511 148.562 88.1087L148.569 88.1073Z"
    fill="#B3CEF6" />
  <path
    d="M54.2577 82.1463L129.915 61.9888C130.945 61.7143 132.045 61.8504 132.972 62.3673C133.899 62.8841 134.578 63.7393 134.86 64.7447L156.224 141.117L72.7982 163.344L51.4338 86.9721C51.1525 85.9667 51.292 84.8934 51.8216 83.9884C52.3512 83.0834 53.2275 82.4208 54.2577 82.1463Z"
    fill="white" />
  <path
    d="M126.67 77.9416L65.3646 94.2753C64.5023 94.505 63.9941 95.3735 64.2295 96.2151L64.4107 96.8628C64.6461 97.7044 65.536 98.2003 66.3983 97.9706L127.703 81.6368C128.566 81.4071 129.074 80.5387 128.839 79.6971L128.657 79.0494C128.422 78.2078 127.532 77.7118 126.67 77.9416Z"
    fill="#E4ECF9" />
  <path
    d="M126.524 85.8978L65.517 102.023C64.6589 102.249 64.1517 103.112 64.3841 103.95L64.5629 104.594C64.7954 105.432 65.6794 105.927 66.5375 105.7L127.544 89.5751C128.402 89.3483 128.91 88.4855 128.677 87.6481L128.498 87.0035C128.266 86.1661 127.382 85.671 126.524 85.8978Z"
    fill="#E4ECF9" />
  <path
    d="M131.087 93.7328L69.7822 110.067C68.9199 110.296 68.4117 111.165 68.6471 112.006L68.8283 112.654C69.0637 113.496 69.9536 113.992 70.8159 113.762L132.121 97.4281C132.983 97.1984 133.492 96.3299 133.256 95.4883L133.075 94.8406C132.84 93.9991 131.95 93.5031 131.087 93.7328Z"
    fill="#E4ECF9" />
  <path
    d="M133.295 101.629L71.9897 117.962C71.1274 118.192 70.6192 119.061 70.8546 119.902L71.0358 120.55C71.2712 121.391 72.1611 121.887 73.0234 121.658L134.329 105.324C135.191 105.094 135.699 104.226 135.464 103.384L135.282 102.736C135.047 101.895 134.157 101.399 133.295 101.629Z"
    fill="#E4ECF9" />
  <path
    d="M135.504 109.525L74.1987 125.858C73.3364 126.088 72.8282 126.957 73.0636 127.798L73.2448 128.446C73.4802 129.288 74.3701 129.783 75.2324 129.554L136.538 113.22C137.4 112.99 137.908 112.122 137.673 111.28L137.491 110.633C137.256 109.791 136.366 109.295 135.504 109.525Z"
    fill="#E4ECF9" />
  <path
    d="M108.34 127.902C108.238 128.094 108.109 128.273 107.957 128.431L71.5862 166.412L71.3876 166.465C71.0346 166.561 70.6688 166.604 70.3026 166.593H70.151C69.5282 166.552 68.926 166.358 68.4007 166.029C68.3522 166 68.3017 165.967 68.2491 165.932C68.1022 165.831 67.9634 165.72 67.8339 165.599C67.7885 165.559 67.7491 165.519 67.7066 165.478C67.6642 165.436 67.6218 165.39 67.5854 165.344C67.2179 164.933 66.9506 164.445 66.8034 163.919L53.0962 114.841C52.9507 114.323 52.9248 113.78 53.0204 113.251C53.1161 112.722 53.3309 112.221 53.6493 111.783L53.6675 111.759L53.8191 111.57C54.3078 110.987 54.9706 110.569 55.7149 110.372L56.5363 110.153L61.022 111.441L102.378 123.326L103.933 123.77L106.902 124.623C107.116 124.684 107.32 124.773 107.508 124.888C108.004 125.201 108.364 125.682 108.518 126.239C108.671 126.795 108.608 127.388 108.34 127.902Z"
    fill="#9EC3EF" />
  <path
    d="M149.124 89.2566L162.852 138.331C162.869 138.39 162.883 138.451 162.896 138.515C162.905 138.543 162.911 138.572 162.914 138.602C162.922 138.627 162.927 138.657 162.933 138.685C162.939 138.713 162.933 138.708 162.933 138.72C162.933 138.732 162.933 138.759 162.933 138.776C162.942 138.819 162.945 138.865 162.951 138.91C162.957 138.952 162.96 138.995 162.961 139.038C162.961 139.038 162.961 139.053 162.961 139.059C162.962 139.073 162.962 139.088 162.961 139.102C162.965 139.117 162.965 139.134 162.961 139.149C162.963 139.17 162.963 139.192 162.961 139.213C162.961 139.251 162.961 139.288 162.961 139.328C162.963 139.335 162.963 139.343 162.961 139.35C162.961 139.417 162.961 139.485 162.952 139.551C162.953 139.553 162.954 139.554 162.954 139.556C162.954 139.557 162.953 139.559 162.952 139.56C162.952 139.594 162.952 139.625 162.942 139.661C162.931 139.696 162.942 139.717 162.933 139.748C162.933 139.748 162.933 139.764 162.933 139.773C162.921 139.861 162.907 139.949 162.887 140.034C162.887 140.059 162.875 140.091 162.868 140.121L162.845 140.207C162.839 140.235 162.831 140.262 162.821 140.289C162.805 140.346 162.787 140.402 162.767 140.457C162.748 140.511 162.743 140.525 162.733 140.557C162.702 140.636 162.669 140.705 162.636 140.782C162.602 140.859 162.586 140.89 162.558 140.94C162.531 140.99 162.502 141.044 162.474 141.088C162.461 141.113 162.446 141.135 162.431 141.161C162.419 141.182 162.405 141.203 162.389 141.223C162.373 141.249 162.357 141.274 162.339 141.301L162.323 141.323C162.281 141.387 162.236 141.447 162.19 141.505C162.184 141.51 162.179 141.517 162.176 141.524C162.139 141.569 162.101 141.615 162.06 141.659L162.022 141.703C162.001 141.727 161.979 141.751 161.957 141.773C161.94 141.792 161.923 141.809 161.904 141.826C161.884 141.847 161.864 141.867 161.845 141.885C161.704 142.02 161.552 142.143 161.39 142.252L161.361 142.271L161.326 142.293C161.29 142.32 161.252 142.344 161.213 142.366C161.146 142.409 161.078 142.444 161.01 142.481L160.903 142.537C160.882 142.549 160.857 142.558 160.834 142.569L160.749 142.608H160.74L160.667 142.64L160.632 142.651L160.572 142.678C160.559 142.678 160.549 142.687 160.534 142.69L160.402 142.734C160.34 142.755 160.276 142.774 160.212 142.792L160.014 142.845L108.921 128.163C108.707 128.102 108.503 128.012 108.315 127.896C107.817 127.586 107.455 127.106 107.299 126.55C107.144 125.994 107.206 125.401 107.473 124.888C107.574 124.695 107.702 124.517 107.854 124.36L109.963 122.153L111.071 120.998L140.537 90.2564L143.72 86.9243L144.541 86.7054C144.629 86.6817 144.714 86.6625 144.802 86.6477C144.817 86.6425 144.833 86.6395 144.849 86.6388C144.932 86.6226 145.019 86.6093 145.1 86.5989H145.158C145.231 86.5989 145.31 86.5871 145.378 86.5856C145.396 86.5841 145.414 86.5841 145.432 86.5856C145.523 86.5856 145.611 86.5856 145.699 86.5856C145.787 86.5856 145.869 86.5959 145.949 86.6048C146.065 86.6173 146.18 86.6366 146.293 86.6625C146.357 86.6743 146.419 86.6876 146.481 86.7039C146.588 86.7298 146.694 86.7634 146.796 86.8045L147.022 86.8947C147.032 86.897 147.041 86.9005 147.049 86.905C147.107 86.9287 147.164 86.9553 147.219 86.9849C147.262 87.0046 147.303 87.0263 147.343 87.05C147.47 87.117 147.591 87.1926 147.707 87.2763C147.762 87.3147 147.813 87.3517 147.859 87.3916C148.068 87.5542 148.257 87.7393 148.424 87.9433C148.469 87.998 148.515 88.0572 148.559 88.1148C148.627 88.2102 148.691 88.3089 148.75 88.4106C148.78 88.4609 148.806 88.5097 148.833 88.5585C148.86 88.6073 148.872 88.6369 148.891 88.6768C148.909 88.7168 148.928 88.7582 148.947 88.7996C148.97 88.8477 148.99 88.8971 149.007 88.9475C149.025 88.9893 149.041 89.0323 149.053 89.0762C149.088 89.1427 149.107 89.1959 149.124 89.2566Z"
    fill="#9EC3EF" />
  <path opacity="0.29"
    d="M162.663 137.667L162.805 138.177C163.372 140.201 162.22 142.271 160.229 142.801L71.3876 166.464C69.4009 166.993 67.3308 165.781 66.7655 163.757L66.623 163.247L104.111 121.733C104.674 121.104 105.416 120.652 106.241 120.432C107.067 120.212 107.941 120.234 108.754 120.496L162.663 137.667Z"
    fill="#474747" />
  <path
    d="M162.715 137.842L162.852 138.331C163.112 139.262 162.983 140.256 162.492 141.094C162.002 141.932 161.191 142.546 160.237 142.801L71.3953 166.464C70.4411 166.718 69.4226 166.592 68.5638 166.113C67.7049 165.634 67.0761 164.842 66.8156 163.911L66.6792 163.422L104.511 123.141C105.087 122.528 105.828 122.086 106.65 121.867C107.472 121.648 108.341 121.661 109.156 121.903L162.715 137.842Z"
    fill="#B3CEF6" />
  <path
    d="M89.8921 79.2565L63.1561 86.3799C62.2938 86.6096 61.7856 87.4781 62.021 88.3197L62.2022 88.9674C62.4376 89.809 63.3275 90.3049 64.1898 90.0752L90.9258 82.9518C91.7882 82.7221 92.2963 81.8536 92.0609 81.0121L91.8797 80.3643C91.6443 79.5228 90.7544 79.0268 89.8921 79.2565Z"
    fill="#FFA155" />
</svg>
