<svg width="264" height="199" viewBox="0 0 264 199" fill="none" xmlns="http://www.w3.org/2000/svg">
<path d="M108.866 70.9048C108.865 70.939 108.864 70.9737 108.861 71.0067C108.864 70.9731 108.865 70.939 108.866 70.9048Z" fill="#2C3191"/>
<path d="M61.7595 162.292H88.524C92.2391 162.292 95.2509 159.282 95.2509 155.569V77.6474C95.2509 73.9344 92.2391 70.9243 88.524 70.9243H61.7595C58.0443 70.9243 55.0325 73.9344 55.0325 77.6474V155.569C55.0325 159.282 58.0443 162.292 61.7595 162.292Z" fill="#4A9DF7"/>
<path d="M184.623 116.138C191.061 110.61 191.959 103.269 186.975 96.4708C186.438 95.7387 186.567 95.471 187.257 95.0022C193.043 91.0679 195.281 84.9447 193.331 78.5201C191.519 72.5498 185.932 68.6503 179.091 68.6352C169.905 68.615 160.718 68.6279 151.531 68.6268C150.913 68.6268 150.295 68.6268 149.489 68.6268C149.751 68.0106 149.891 67.6723 150.039 67.3374C150.212 66.943 150.404 66.5554 150.57 66.1578C154.551 56.6419 155.64 46.6768 154.996 36.4889C154.723 32.1787 154.072 27.8983 151.839 24.0498C150.182 21.1943 147.776 19.4652 144.433 19.3464C137.664 19.105 132.048 30.0811 131.741 38.5439C131.394 39.1651 98.9449 75.9721 98.9 77.2946C98.6663 77.587 98.6702 156.716 98.9432 157.193C98.9432 159.743 101.884 162.282 105.728 162.282C114.808 162.282 161.18 162.268 175.286 162.268C186.862 162.268 189.457 142.887 184.238 139.713C182.826 138.854 182.595 137.983 184.063 136.965L184.16 136.87C189.132 134.459 189.313 121.526 184.045 117.139C183.81 116.559 184.315 116.402 184.623 116.138ZM103.809 70.9048C103.808 70.9389 103.807 70.9737 103.804 71.0067C103.807 70.9731 103.808 70.9389 103.809 70.9048Z" fill="#4A9DF7"/>
<path d="M87.1279 35.1634C88.2588 35.3606 89.4453 35.2452 90.5135 34.8229C90.6183 34.7814 90.7287 34.7322 90.7892 34.6364C90.8285 34.5742 90.8419 34.4991 90.8526 34.4263C90.9882 33.4881 91.0392 32.1394 90.7069 31.2454C90.5006 30.6903 90.1162 30.2187 89.7003 29.7964C89.429 29.5202 89.1287 29.2525 88.7593 29.1366C88.39 29.0201 87.936 29.0934 87.7034 29.4032C87.3756 29.8401 87.3868 30.7872 87.3005 31.3126C87.1705 32.1102 86.9984 32.905 86.6818 33.6522C86.5024 34.0751 86.2738 34.5059 86.3124 34.9635C86.5798 35.0486 86.8521 35.1153 87.1279 35.1634Z" fill="#382D6C"/>
<path d="M81.2259 22.6864C80.42 23.3977 80.0579 24.3964 80.0551 25.4713C80.0523 26.5624 80.3723 27.6244 80.6279 28.6853C80.8835 29.7461 81.0762 30.8608 80.8196 31.9216C80.6279 32.7142 80.1941 33.4295 79.6858 34.0674C81.4826 35.0846 83.6817 35.3658 85.6769 34.8331C85.7655 32.8833 85.8148 31.026 85.3395 29.0986C85.0296 27.8406 84.5437 26.6324 84.2506 25.3699C84.0976 24.7107 83.9877 24.0357 84.0051 23.3569C84.018 22.841 84.2909 22.0904 83.7372 21.7432C82.9739 21.2642 81.8457 22.166 81.2931 22.6287C81.2707 22.6477 81.2483 22.6668 81.2259 22.6864Z" fill="#382D6C"/>
<path d="M69.3514 54.901C70.3265 56.513 71.6783 56.7757 73.1736 55.8565C76.3266 53.9191 84.2614 44.8099 84.0607 40.6236C83.7004 33.1001 79.2964 36.5689 79.2964 36.5689C79.2964 36.5689 73.7783 45.8315 70.1337 51.1319C68.9731 52.819 69.3261 54.8601 69.3514 54.901Z" fill="#D34C5D"/>
<path d="M95.7476 63.7403C95.7824 63.8865 95.8138 64.0338 95.8418 64.1817C96.0211 65.135 96.0032 66.3348 95.4697 67.189C95.0684 67.8314 94.2294 68.0247 93.5244 68.2045C92.0201 68.5876 90.4643 68.7108 88.9248 68.8654C86.3227 69.1264 83.688 69.0794 81.0898 68.7926C78.5409 68.512 76.4062 67.9082 76.6029 64.9339C76.7341 62.9472 77.4979 61.0663 78.008 59.1423C79.1176 54.9537 79.1938 50.1003 77.4828 46.0602C77.1342 45.2374 76.7122 44.4101 76.7021 43.5234C76.6887 42.2968 77.4598 41.2023 78.2013 40.1963C79.1776 38.8711 80.4548 36.1567 82.3379 35.8336C83.6354 35.6106 85.2035 35.7361 86.5295 35.7165C88.0668 35.6941 90.1247 35.2936 91.5746 35.8582C93.1248 36.4614 94.1184 38.3686 94.5001 39.8025C95.0336 41.8044 94.93 44.13 94.8521 46.1789C94.7652 48.4642 94.402 50.7383 93.7687 52.9362C93.5978 53.5305 93.4061 54.1214 93.3159 54.7331C93.0755 56.3624 93.567 58.0092 94.179 59.5383C94.736 60.928 95.4018 62.2891 95.7476 63.7403Z" fill="#FF7086"/>
<path d="M104.089 54.901C103.114 56.513 101.762 56.7757 100.267 55.8565C97.114 53.9191 89.1799 44.8099 89.3799 40.6236C89.7403 33.1001 94.1443 36.5689 94.1443 36.5689C94.1443 36.5689 99.6624 45.8315 103.307 51.1319C104.468 52.819 104.115 54.8601 104.089 54.901Z" fill="#D34C5D"/>
<path d="M88.3823 31.8672H84.6357V37.2494H88.3823V31.8672Z" fill="#AA6150"/>
<path d="M91.1138 27.6749C91.1138 30.8569 89.4285 33.1327 86.5602 34.3314C85.8613 34.6237 85.0453 34.7744 84.3554 34.4624C84.0012 34.3022 83.7081 34.0323 83.4458 33.7449C81.468 31.5801 81.3217 28.5582 81.9561 25.8237C82.4482 23.7042 84.0298 21.415 86.4313 21.415C89.0171 21.415 91.1138 24.2173 91.1138 27.6749Z" fill="#BC7763"/>
<path d="M82.3573 29.5851C82.3289 29.7481 82.4457 29.9065 82.6181 29.9394C82.7904 29.9722 82.9532 29.8672 82.9818 29.7043C83.0103 29.5413 82.8935 29.3827 82.7214 29.3499C82.549 29.317 82.386 29.4222 82.3573 29.5851Z" fill="#263238"/>
<path d="M82.3569 28.6271C82.3904 28.6729 82.6534 28.5317 82.9927 28.579C83.3322 28.6215 83.5575 28.8269 83.6 28.791C83.6205 28.7754 83.5909 28.6971 83.4931 28.6047C83.3969 28.5128 83.2254 28.4128 83.0138 28.3849C82.8023 28.3571 82.614 28.4093 82.501 28.4736C82.3856 28.5382 82.3403 28.6063 82.3569 28.6271Z" fill="#263238"/>
<path d="M85.5187 30.0268C85.4902 30.1897 85.6071 30.3481 85.7795 30.381C85.9517 30.4139 86.1145 30.3088 86.143 30.1459C86.1714 29.9829 86.0546 29.8243 85.8826 29.7915C85.71 29.7586 85.5472 29.8638 85.5187 30.0268Z" fill="#263238"/>
<path d="M85.6843 29.1443C85.718 29.1901 85.981 29.0491 86.32 29.0963C86.6596 29.1388 86.8851 29.3443 86.9276 29.3086C86.9481 29.293 86.9187 29.2147 86.8205 29.1221C86.7245 29.0301 86.5527 28.9301 86.3412 28.9022C86.1296 28.8744 85.9413 28.9266 85.8282 28.9909C85.7132 29.0554 85.6677 29.1237 85.6843 29.1443Z" fill="#263238"/>
<path d="M84.1118 31.4493C84.1161 31.4304 83.9098 31.366 83.5741 31.2762C83.4886 31.2556 83.4089 31.2275 83.4024 31.1674C83.3903 31.1029 83.4393 31.0161 83.495 30.9228C83.6047 30.7279 83.7198 30.5234 83.8407 30.3094C84.3239 29.4349 84.6861 28.7107 84.6502 28.6918C84.614 28.6729 84.1931 29.3664 83.7101 30.2411C83.5932 30.457 83.4813 30.6629 83.3748 30.86C83.3286 30.9522 83.2571 31.0543 83.2837 31.188C83.2982 31.2547 83.3556 31.3097 83.4092 31.3319C83.4624 31.356 83.5111 31.3638 83.5536 31.372C83.8946 31.4373 84.1077 31.4679 84.1118 31.4493Z" fill="#263238"/>
<path d="M85.0787 31.812C85.0239 31.8013 84.9733 32.1632 84.6226 32.3774C84.2722 32.5924 83.8855 32.4981 83.8756 32.5484C83.8672 32.5704 83.9532 32.6306 84.1184 32.6576C84.2802 32.6852 84.5247 32.6662 84.7393 32.5353C84.9534 32.404 85.065 32.205 85.0982 32.0581C85.1329 31.9087 85.1043 31.8135 85.0787 31.812Z" fill="#263238"/>
<path d="M85.8129 27.9988C85.8418 28.0901 86.1271 28.0445 86.4628 28.0897C86.7993 28.1267 87.0706 28.2403 87.1146 28.1579C87.1341 28.1184 87.0864 28.0328 86.9765 27.9449C86.8674 27.8574 86.6938 27.7746 86.4923 27.7496C86.2908 27.7252 86.1065 27.7643 85.9848 27.8238C85.8621 27.8831 85.8005 27.9555 85.8129 27.9988Z" fill="#263238"/>
<path d="M82.525 27.4846C82.5744 27.5685 82.8189 27.5218 83.1006 27.5566C83.3833 27.5815 83.6126 27.6784 83.6784 27.6067C83.7077 27.5715 83.6808 27.4905 83.5865 27.4045C83.4938 27.3191 83.3304 27.2373 83.1363 27.2165C82.9424 27.1963 82.7654 27.242 82.6571 27.3061C82.5473 27.3703 82.5038 27.444 82.525 27.4846Z" fill="#263238"/>
<path d="M85.6103 39.2817C88.3324 38.3749 90.0075 36.3361 90.5461 35.6146C89.2476 35.4533 87.7293 35.6992 86.5283 35.7171C85.3009 35.7351 83.8696 35.6326 82.6338 35.7933C83.2705 36.9292 85.6103 39.2817 85.6103 39.2817Z" fill="#D34C5D"/>
<path d="M83.1187 35.7433C83.3232 36.523 85.7634 38.9758 85.7634 38.9758C88.5768 38.0387 90.0726 35.6739 90.1107 35.6459C90.067 35.6246 90.0239 35.6016 89.9785 35.5832C89.9633 35.577 89.9476 35.5725 89.9325 35.5664C88.7875 35.5238 87.545 35.7025 86.5289 35.717C85.4591 35.7327 84.2339 35.6571 83.1187 35.7433Z" fill="#AA6150"/>
<path d="M84.6356 35.7991C84.6356 35.7991 86.1729 37.7153 88.3256 35.6121C87.6945 35.6574 87.0786 35.7168 86.5288 35.7258C85.9168 35.7353 85.2532 35.7129 84.5891 35.7084C84.6026 35.7387 84.6183 35.7689 84.6356 35.7991Z" fill="#AA6150"/>
<path d="M84.2889 27.9067C84.5853 28.1941 84.9205 28.4405 85.2881 28.631C86.3692 29.1917 87.6807 29.2706 88.6631 29.9898C89.4063 30.5337 89.8737 31.3974 90.0676 32.2975C90.2609 33.1976 90.201 34.1353 90.0429 35.0421C90.9318 34.6539 91.7472 34.0983 92.4332 33.4127C92.705 33.1405 92.9606 32.8431 93.1214 32.4941C93.2655 32.1821 93.3288 31.8393 93.3854 31.5005C93.558 30.4693 93.683 29.4219 93.6 28.3795C93.4627 26.6504 92.7532 24.9986 91.7584 23.577C90.2677 21.4463 88.2658 20.6975 85.7292 20.7507C85.0791 20.7647 84.3797 20.7977 83.8669 21.1971C82.6087 22.1767 82.6193 24.4766 83.0497 25.8707C83.2862 26.637 83.715 27.3494 84.2889 27.9067Z" fill="#382D6C"/>
<path d="M69.8326 52.8603C70.6929 51.7367 72.3013 51.5227 73.4256 52.3819L85.8579 63.242L84.3901 65.1599L70.3112 56.4506C69.1864 55.5914 68.9723 53.9839 69.8326 52.8603Z" fill="#BC7763"/>
<path d="M85.3312 63.2356C85.3312 63.2356 87.7601 62.2464 88.5526 62.6122C89.3451 62.9779 87.8139 63.962 87.8139 63.962C87.8139 63.962 91.7684 65.5556 91.2612 66.8203C90.754 68.0851 89.0946 69.9609 84.1812 65.1439L85.3312 63.2356Z" fill="#DAD180"/>
<path d="M103.608 52.8603C102.748 51.7367 101.14 51.5227 100.015 52.3819L87.583 63.242L89.0508 65.1599L103.13 56.4506C104.254 55.5914 104.468 53.9839 103.608 52.8603Z" fill="#BC7763"/>
<path d="M88.1092 63.2356C88.1092 63.2356 85.6803 62.2464 84.8878 62.6122C84.0954 62.9779 85.6265 63.962 85.6265 63.962C85.6265 63.962 81.672 65.5556 82.1792 66.8203C82.6864 68.0851 84.3459 69.9609 89.2593 65.1439L88.1092 63.2356Z" fill="#DAD180"/>
<path d="M86.312 30.7631C87.0102 30.7631 87.5763 30.1973 87.5763 29.4995C87.5763 28.8016 87.0102 28.2358 86.312 28.2358C85.6137 28.2358 85.0476 28.8016 85.0476 29.4995C85.0476 30.1973 85.6137 30.7631 86.312 30.7631Z" stroke="white" stroke-miterlimit="10"/>
<path d="M83.994 29.4995C83.994 30.1974 83.428 30.7631 82.7297 30.7631C82.0314 30.7631 81.4653 30.1974 81.4653 29.4995C81.4653 28.8016 82.0314 28.2358 82.7297 28.2358C83.428 28.2358 83.994 28.8016 83.994 29.4995Z" stroke="white" stroke-miterlimit="10"/>
<path d="M83.8887 29.6045C83.8887 29.6045 84.5209 28.9727 85.153 29.6045" stroke="white" stroke-miterlimit="10"/>
<path d="M59.3906 64.9183C59.4982 63.1769 60.998 61.8522 62.7404 61.9597L84.9406 63.3281L84.3208 73.3716L62.3515 68.2661C60.6085 68.1586 59.283 66.6597 59.3906 64.9183Z" fill="#EFB465"/>
<path d="M109.704 69.8886C109.746 68.1444 108.365 66.6965 106.62 66.6545L84.4519 63.3123L84.2322 72.436L106.468 72.9704C108.214 73.0129 109.662 71.6328 109.704 69.8886Z" fill="#EFB465"/>
<path d="M78.1401 70.7965L78.3762 73.7107L83.4762 73.298L83.2401 70.3838L78.1401 70.7965Z" fill="#BC7763"/>
<path d="M109.626 69.7555C109.726 71.4974 108.394 72.9907 106.651 73.0904L82.4954 73.9048L82.2673 69.933L106.289 66.7824C108.032 66.6827 109.526 68.0135 109.626 69.7555Z" fill="#FFCB7E"/>
<path d="M76.0352 72.1851C76.0352 72.1851 72.06 74.8054 70.7693 73.6084L78.3089 68.4592L79.7016 70.8593L76.0352 72.1851Z" fill="#32278D"/>
<path d="M81.441 69.4027L81.5588 74.3706L83.3786 74.3275L83.2608 69.3596L81.441 69.4027Z" fill="#EFB465"/>
<path d="M87.5461 78.4215L88.7209 75.7439L84.035 73.6902L82.8601 76.3678L87.5461 78.4215Z" fill="#BC7763"/>
<path d="M59.6142 64.5059C60.3696 62.9331 62.2578 62.2693 63.8315 63.0244L85.524 73.5608L83.8017 77.1478L61.0965 68.7213C59.5228 67.9663 58.8587 66.0793 59.6142 64.5059Z" fill="#FFCB7E"/>
<path d="M87.6335 78.4217C87.6335 78.4217 89.8871 84 91.6424 84.1428L90.3758 76.0513L88.5325 75.6055L87.6335 78.4217Z" fill="#32278D"/>
<path d="M84.4912 78.0573L86.488 73.5063L84.821 72.7757L82.8241 77.3267L84.4912 78.0573Z" fill="#EFB465"/>
<path d="M91.6822 65.209L73.0094 63.7012C72.4237 63.6542 71.9877 63.1411 72.0353 62.5563L72.0852 61.9363L92.8782 63.6155L92.8283 64.2356C92.7806 64.8203 92.2678 65.2561 91.6822 65.209Z" fill="#BDC4F4"/>
<path d="M90.1085 47.7401L77.3696 46.7111C75.1458 46.5313 73.1971 48.1876 73.0172 50.4107L72.0852 61.9357L92.8782 63.6149L93.8102 52.0899C93.9895 49.8674 92.3323 47.9198 90.1085 47.7401Z" fill="#D9DEFF"/>
<path d="M83.7834 54.7702C83.7834 54.3949 83.9476 54.0594 84.2076 53.8281C83.9055 53.6253 83.5424 53.5066 83.1512 53.5066C82.1037 53.5066 81.2546 54.3552 81.2546 55.402C81.2546 56.4489 82.1037 57.2975 83.1512 57.2975C83.9784 57.2975 84.6806 56.767 84.9396 56.0282C84.2922 55.9734 83.7834 55.4317 83.7834 54.7702Z" fill="white"/>
<path d="M238.161 80.7776L239.473 83.7294C239.731 84.3114 239.469 84.9919 238.887 85.2507L225.174 91.3369C223.776 91.957 222.14 91.328 221.519 89.931C220.898 88.5341 221.528 86.8991 222.926 86.2785L236.639 80.1923C237.221 79.9335 237.903 80.1956 238.161 80.7776Z" fill="#E59885"/>
<path d="M235.846 85.2784C234.54 84.4825 234.128 82.7797 234.924 81.4747L245.187 66.8909L247.415 68.2492L239.652 84.3565C238.856 85.6621 237.152 86.0744 235.846 85.2784Z" fill="#E59885"/>
<path d="M245.187 66.8912C245.187 66.8912 243.847 64.3953 244.151 63.5031C244.453 62.6108 245.686 64.1427 245.686 64.1427C245.798 63.7478 245.927 63.3513 246.081 62.9704C246.193 62.692 246.325 62.492 246.29 62.1801C246.283 62.1173 246.078 61.4603 245.991 61.5152C246.424 61.243 247.012 61.4833 247.368 61.8513C247.723 62.2193 247.947 62.6987 248.308 63.0617C248.458 63.2124 248.63 63.3406 248.777 63.4941C249.193 63.9276 249.391 64.5617 249.293 65.1549C249.186 65.8074 248.787 66.069 248.382 66.5182C248.01 66.9304 247.719 67.4687 247.369 67.9095L245.187 66.8912Z" fill="#E59885"/>
<path d="M218.567 84.756C218.567 84.756 224.496 85.9788 230.908 82.7351C230.908 82.7351 232.896 88.7575 231.421 94.022C231.421 94.022 222.36 94.022 220.674 89.1787C218.989 84.3348 218.567 84.756 218.567 84.756Z" fill="#EFB465"/>
<path d="M241.694 59.5497L245.598 59.1128C245.747 59.096 245.89 59.1766 245.953 59.3128L250.404 68.9311C250.504 69.1473 250.363 69.3977 250.126 69.424L246.222 69.8609C246.073 69.8777 245.929 69.7971 245.867 69.6609L241.416 60.0426C241.316 59.8269 241.457 59.576 241.694 59.5497Z" fill="#2C1D75"/>
<path d="M241.694 59.5497L245.598 59.1128C245.747 59.096 245.89 59.1766 245.953 59.3128L250.404 68.9311C250.504 69.1473 250.363 69.3977 250.126 69.424L246.222 69.8609C246.073 69.8777 245.929 69.7971 245.867 69.6609L241.416 60.0426C241.316 59.8269 241.457 59.576 241.694 59.5497Z" fill="#5549AD"/>
<path d="M246.223 69.8617C246.073 69.8785 245.93 69.7978 245.867 69.6617L241.445 60.1061L245.251 59.6804C245.4 59.6636 245.544 59.7443 245.607 59.8804L250.028 69.436L246.223 69.8617Z" fill="#2C1D75"/>
<path d="M242.701 61.5038C242.808 61.7345 243.007 61.8701 243.146 61.8057C243.284 61.7418 243.31 61.5026 243.204 61.2713C243.097 61.0405 242.898 60.905 242.759 60.9694C242.621 61.0338 242.595 61.273 242.701 61.5038Z" fill="#6958DD"/>
<path d="M244.667 65.4231C244.745 64.9794 244.778 64.4843 244.354 64.5773C244.177 64.6165 244.049 64.7672 243.95 64.9184C243.527 65.5648 243.498 66.4296 243.673 67.1645C243.763 67.5459 244.054 68.236 244.521 68.2774C244.835 68.3054 245.229 67.7772 245.293 67.4994C245.353 67.2356 245.223 66.9662 245.07 66.7421C244.952 66.5674 244.818 66.4033 244.67 66.2526C244.633 66.2156 244.595 66.1781 244.578 66.1294C244.564 66.0913 244.564 66.0493 244.564 66.0084C244.564 65.9053 244.623 65.6723 244.667 65.4231Z" fill="#E59885"/>
<path d="M224.663 143.151C226.508 142.761 227.688 140.949 227.297 139.106L222.323 115.609L211.68 117.859L220.615 140.519C221.005 142.363 222.817 143.541 224.663 143.151Z" fill="#6A6AF4"/>
<path d="M223.777 138.42C225.644 138.151 227.375 139.445 227.645 141.311L231.909 170.837L227.653 171.451L220.884 142.286C220.615 140.421 221.91 138.69 223.777 138.42Z" fill="#6A6AF4"/>
<path d="M205.149 144.044C207.033 144.143 208.64 142.697 208.739 140.814L213.03 116.989L203.178 116.472L201.918 140.456C201.819 142.339 203.266 143.945 205.149 144.044Z" fill="#6A6AF4"/>
<path d="M205.479 139.352C207.328 139.724 208.525 141.523 208.154 143.371L202.269 172.617L198.053 171.77L201.458 142.025C201.829 140.177 203.63 138.98 205.479 139.352Z" fill="#6A6AF4"/>
<path d="M223.142 117.082C223.142 117.082 217.139 118.074 212.469 117.846C206.295 117.545 202.38 116.07 202.38 116.07L204.101 88.4197C204.234 86.2851 205.964 84.5997 208.103 84.5219C209.944 84.4546 212.213 84.4121 214.327 84.4827C215.533 84.5224 216.934 84.6541 218.291 84.8165C221.549 85.2058 223.975 88.0103 223.881 91.2892L223.142 117.082Z" fill="#FFCB7E"/>
<path d="M231.909 170.837C231.909 170.837 237.013 170.186 237.695 171.961L227.93 173.37L227.653 171.451L231.909 170.837Z" fill="#241C63"/>
<path d="M215.88 80.1363L211.847 80.4736L212.332 86.2684L216.365 85.9311L215.88 80.1363Z" fill="#CC8071"/>
<path d="M202.34 171.924C202.34 171.924 207.478 172.198 207.83 174.066L197.97 173.703L198.042 171.766L202.34 171.924Z" fill="#241C63"/>
<path d="M218.817 75.3837C218.751 77.4741 218.487 79.5577 218.028 81.5982C217.973 81.8441 217.912 82.0967 217.76 82.2978C217.44 82.7246 216.835 82.789 216.302 82.817C212.08 83.0405 208.733 80.6651 208.361 76.2261C207.958 71.4153 211.073 68.9967 215.43 68.3861C216.332 68.2596 217.334 68.4702 217.944 69.1473C218.516 69.782 218.646 70.6899 218.718 71.5407C218.825 72.8184 218.858 74.1022 218.817 75.3837Z" fill="#E59885"/>
<path d="M217.667 77.38C217.659 77.5736 217.486 77.726 217.281 77.7209C217.075 77.7159 216.915 77.5553 216.923 77.3616C216.931 77.168 217.104 77.0154 217.309 77.0205C217.515 77.0255 217.675 77.1864 217.667 77.38Z" fill="#263238"/>
<path d="M217.906 76.2849C217.857 76.329 217.591 76.102 217.19 76.0719C216.791 76.0363 216.482 76.2156 216.442 76.1639C216.423 76.1409 216.476 76.0586 216.611 75.9771C216.744 75.8957 216.965 75.8239 217.214 75.8444C217.464 75.8651 217.666 75.9716 217.779 76.0733C217.896 76.1759 217.931 76.2652 217.906 76.2849Z" fill="#263238"/>
<path d="M213.939 77.1042C213.931 77.2978 213.758 77.4501 213.552 77.4451C213.347 77.44 213.187 77.2794 213.194 77.0858C213.202 76.8922 213.376 76.7396 213.581 76.7446C213.787 76.7497 213.947 76.9106 213.939 77.1042Z" fill="#263238"/>
<path d="M213.968 76.0507C213.918 76.0948 213.652 75.8681 213.252 75.838C212.853 75.8024 212.544 75.9816 212.504 75.9302C212.484 75.9072 212.537 75.8249 212.673 75.7432C212.806 75.6618 213.027 75.59 213.276 75.6105C213.525 75.6312 213.728 75.7377 213.841 75.8394C213.957 75.9418 213.992 76.0313 213.968 76.0507Z" fill="#263238"/>
<path d="M215.196 79.08C215.195 79.0574 215.448 79.0348 215.854 79.0154C215.957 79.013 216.056 79.0006 216.078 78.9334C216.108 78.8626 216.073 78.7511 216.033 78.6304C215.955 78.38 215.875 78.1173 215.789 77.8423C215.453 76.721 215.219 75.802 215.265 75.7893C215.311 75.7766 215.62 76.675 215.956 77.7965C216.036 78.0727 216.113 78.3362 216.186 78.5883C216.216 78.7054 216.272 78.8399 216.209 78.9864C216.175 79.0593 216.096 79.1079 216.029 79.1201C215.962 79.1344 215.905 79.1313 215.854 79.1302C215.447 79.1202 215.196 79.1023 215.196 79.08Z" fill="#263238"/>
<path d="M213.998 79.2588C214.063 79.2601 214.031 79.6871 214.379 80.0191C214.727 80.3521 215.193 80.34 215.192 80.4001C215.196 80.4272 215.082 80.4749 214.886 80.4648C214.694 80.4564 214.419 80.3741 214.206 80.1711C213.994 79.9676 213.915 79.7122 213.914 79.5358C213.911 79.3561 213.968 79.2542 213.998 79.2588Z" fill="#263238"/>
<path d="M214.106 74.7073C214.05 74.8046 213.735 74.6815 213.339 74.65C212.945 74.6088 212.606 74.6715 212.576 74.5663C212.563 74.5162 212.639 74.43 212.787 74.3567C212.933 74.2835 213.153 74.2319 213.39 74.2533C213.627 74.2754 213.828 74.3659 213.952 74.4642C214.078 74.5625 214.131 74.6607 214.106 74.7073Z" fill="#263238"/>
<path d="M217.998 74.9348C217.92 75.0186 217.652 74.9045 217.321 74.8744C216.991 74.8327 216.704 74.8868 216.647 74.7883C216.622 74.7407 216.673 74.6547 216.802 74.5797C216.93 74.5049 217.137 74.4517 217.364 74.4762C217.591 74.5011 217.783 74.5974 217.891 74.6977C218.001 74.7985 218.032 74.8936 217.998 74.9348Z" fill="#263238"/>
<path d="M193.475 98.2224L191.591 95.5988C191.219 95.0818 191.337 94.3615 191.855 93.9902L204.043 85.2439C205.285 84.3522 207.015 84.6362 207.907 85.878C208.799 87.1198 208.515 88.8483 207.272 89.74L195.084 98.4862C194.567 98.8576 193.847 98.7394 193.475 98.2224Z" fill="#E59885"/>
<path d="M192.84 98.6935C191.408 98.158 190.681 96.5639 191.216 95.1322L198.54 78.8743L200.985 79.7878L196.404 97.0703C195.868 98.5019 194.273 99.2289 192.84 98.6935Z" fill="#E59885"/>
<path d="M200.381 80.2925C200.854 80.3507 201.732 79.7766 202.141 79.5604C202.418 79.4136 202.725 79.1896 202.707 78.8765C202.696 78.6821 202.556 78.5169 202.525 78.3248C202.476 78.0229 202.699 77.7518 202.903 77.5232C203.487 76.8685 204.039 76.1851 204.555 75.4754C204.109 75.3528 203.646 75.6009 203.288 75.8927C202.929 76.1845 202.599 76.5385 202.161 76.6875C202.299 75.7813 203.293 75.1394 203.296 74.2225C202.61 74.2068 202.115 74.8447 201.718 75.4049C201.601 75.5712 201.474 75.7432 201.29 75.8317C200.965 75.9885 200.582 75.8373 200.221 75.8423C199.397 75.8541 199.163 76.4876 198.989 77.1541C198.818 77.81 198.517 78.4121 198.313 79.058C198.293 79.1212 199.692 79.8819 199.811 79.953C199.954 80.0376 200.213 80.2717 200.381 80.2925Z" fill="#E59885"/>
<path d="M214.327 84.4827C212.908 84.4356 211.423 84.4401 210.041 84.4675C210.367 86.7142 212.295 88.4427 214.633 88.4427C216.811 88.4427 218.632 86.9427 219.136 84.9218C217.53 84.7134 215.786 84.5308 214.327 84.4827Z" fill="#B77D30"/>
<path d="M214.327 84.4829C213.24 84.447 212.113 84.4409 211.024 84.4521C211.18 86.3044 212.732 87.7601 214.626 87.7601C216.398 87.7601 217.87 86.4853 218.18 84.8038C216.858 84.6476 215.501 84.5215 214.327 84.4829Z" fill="#CC8071"/>
<path d="M210.737 80.5789C210.981 81.0444 211.469 81.5771 211.909 81.8622C211.941 81.8829 211.976 81.9042 211.995 81.9372C212.009 81.9596 212.014 81.9859 212.019 82.0117C212.076 82.3108 212.089 82.6189 212.057 82.9219C210.758 82.9561 209.372 82.0907 208.603 81.097C208.053 80.3851 207.709 79.5276 207.568 78.642C207.499 78.2113 207.516 77.7985 207.513 77.3683C207.51 76.9303 207.419 76.494 207.419 76.0532C207.42 74.9884 207.713 73.946 208.065 72.9406C208.177 72.6224 208.297 72.3021 208.496 72.0304C208.696 71.7587 208.987 71.5375 209.321 71.4944C209.39 71.4854 209.464 71.4854 209.522 71.5246C209.598 71.5756 209.619 71.6753 209.632 71.7655C209.703 72.2785 209.655 72.7994 209.637 73.317C209.585 74.7582 209.758 76.2066 210.15 77.5946C210.272 78.0298 210.479 78.3995 210.503 78.87C210.53 79.4088 210.413 79.8384 210.636 80.3666C210.667 80.4394 210.701 80.51 210.737 80.5789Z" fill="#7D382E"/>
<path d="M218.772 71.5288C218.776 71.5523 218.778 71.5764 218.782 71.5999C218.797 71.7153 218.808 71.8464 218.732 71.9349C218.689 71.9859 218.624 72.0133 218.561 72.038C217.339 72.5286 216.088 72.9487 214.817 73.2965C214.303 73.4371 213.781 73.5671 213.306 73.8063C212.83 74.0449 212.395 74.4073 212.18 74.8934C211.974 74.1647 212.336 73.4091 212.687 72.7381C211.923 73.1464 211.403 73.925 211.16 74.7562C210.916 75.5874 210.922 76.4719 211.006 77.3344C211.064 77.9349 211.159 78.5342 211.141 79.1369C211.123 79.7396 210.982 80.358 210.616 80.8374C210.636 80.8105 209.607 79.1884 209.521 79.012C209.185 78.327 208.911 77.6117 208.702 76.8779C208.304 75.4737 207.959 73.9788 207.985 72.5124C208.026 70.2417 210.544 68.8537 212.596 68.5809C214.17 68.372 216.154 68.4431 217.527 69.322C217.858 69.5337 218.166 69.7936 218.372 70.128C218.629 70.5447 218.707 71.0421 218.772 71.5288Z" fill="#7D382E"/>
<path d="M215.893 69.8013C215.893 69.8013 210.887 68.5242 208.148 72.1185C208.148 72.1185 206.066 68.4475 206.75 67.3334C207.434 66.2194 216.797 63.351 215.893 69.8013Z" fill="#BCBCE2"/>
<path d="M218.483 70.7878C218.483 70.7878 222.001 66.7684 220.191 65.3227C218.381 63.8771 214.267 63.5673 212.349 64.3739C210.431 65.1805 209.124 71.102 209.124 71.102C209.124 71.102 214.125 68.2936 218.483 70.7878Z" fill="#ABABD6"/>
<path d="M206.763 67.4467C206.584 67.4742 206.487 67.7682 206.304 68.1239C205.798 69.108 205.101 70.5694 205.587 71.6801C206.244 73.1806 207.713 74.8083 207.713 74.8083C207.531 74.6061 207.833 73.6147 207.887 73.3716C208.027 72.7443 208.367 72.1579 208.75 71.6336C209.205 71.0102 209.244 70.836 208.822 70.1034C208.353 69.2901 207.836 68.4017 207.192 67.7122C206.999 67.5055 206.867 67.4305 206.763 67.4467Z" fill="#ABABD6"/>
<path d="M210.78 76.9705C210.624 76.8153 210.437 76.6697 210.217 76.6507C209.93 76.626 209.66 76.8355 209.54 77.0976C209.42 77.3598 209.425 77.6617 209.469 77.9462C209.621 78.9449 210.248 79.8601 211.124 80.3637C211.311 79.7425 211.474 79.1135 211.611 78.4789C211.682 78.1534 211.655 77.9557 211.433 77.7205C211.207 77.4813 211.016 77.2052 210.78 76.9705Z" fill="#E59885"/>
<path d="M208.873 84.4962C208.873 84.4962 204.609 83.3166 200.736 87.6166L198.352 89.3547C198.352 89.3547 198.55 95.4964 200.867 97.1812C200.867 97.1812 211.19 90.1332 208.873 84.4962Z" fill="#EFB465"/>
<path d="M235.88 61.1846C236.288 61.4686 236.696 61.752 237.104 62.0359C237.375 62.2247 237.68 62.4863 237.628 62.8123C237.59 63.0531 237.368 63.2156 237.165 63.3505C236.434 63.835 235.703 64.3195 234.972 64.8046C235.767 64.6629 236.562 64.5212 237.356 64.3795C237.622 64.3319 237.938 64.2994 238.125 64.4949C238.232 64.6069 238.268 64.7676 238.298 64.92C238.39 65.3748 238.472 65.8845 238.219 66.2732C238.717 65.1765 239.5 64.2103 240.47 63.4956C239.907 63.7505 239.302 63.9118 238.687 63.9712C238.973 63.7762 239.207 63.5079 239.363 63.1993C239.059 63.0072 238.649 62.996 238.335 63.1713C239.065 62.7641 239.762 62.2796 240.32 61.6444C239.461 61.6181 238.602 61.5918 237.744 61.5654C237.189 61.5481 236.341 61.5425 235.88 61.1846Z" fill="#FFCB7E"/>
<path d="M45.7326 84.1268C44.4643 83.3477 42.8037 83.7437 42.0242 85.0118L33.9146 100.362L36.0795 101.692L46.6175 87.8331C47.3971 86.5655 47.0009 84.9059 45.7326 84.1268Z" fill="#3898A8"/>
<path d="M35.1033 98.6953C35.1033 98.6953 32.3997 99.2442 31.9188 100.026C31.438 100.807 33.353 100.777 33.353 100.777C33.353 100.777 30.8198 104.476 32.0012 105.288C33.1826 106.1 35.7299 106.776 37.2234 99.6957L35.1033 98.6953Z" fill="#E99C75"/>
<path d="M27.4952 115.943C26.4303 114.572 27.048 112.312 28.875 110.894L44.4093 87.7742L56.0094 97.7863L32.7314 115.856C30.9049 117.274 28.56 117.313 27.4952 115.943Z" fill="#6A6AF4"/>
<path d="M27.3866 112.732C26.6025 114.28 27.2229 116.17 28.772 116.954L53.2846 129.351L55.0719 125.822L31.6106 111.348C30.0616 110.564 28.1706 111.184 27.3866 112.732Z" fill="#6A6AF4"/>
<path d="M52.1968 128.834C52.1968 128.834 54.5887 134.61 56.3244 134.841L55.829 125.99L54.823 125.942L52.1968 128.834Z" fill="#0C184C"/>
<path d="M48.4175 67.2691L52.1133 67.7371L52.7865 62.4269L49.0906 61.9589L48.4175 67.2691Z" fill="#D68967"/>
<path d="M45.625 130.202C43.8893 130.17 42.5078 128.737 42.5403 127.002L41.5293 92.4368L56.2476 96.5374L48.8263 127.118C48.7938 128.853 47.3607 130.234 45.625 130.202Z" fill="#8BA7F8"/>
<path d="M45.7757 125.773C44.0473 125.61 42.5133 126.877 42.3497 128.604L39.7571 155.938L43.6976 156.312L48.6081 129.197C48.7724 127.47 47.5041 125.937 45.7757 125.773Z" fill="#8BA7F8"/>
<path d="M39.7572 155.938C39.7572 155.938 35.0366 155.569 34.489 157.231L43.5295 158.087L43.6982 156.311L39.7572 155.938Z" fill="#0C184C"/>
<path d="M39.4292 94.415C39.4292 94.415 44.082 96.1939 47.8571 96.6723C52.8468 97.3041 56.21 96.5407 56.21 96.5407L58.8581 73.4666C59.2341 70.1921 57.3163 67.2179 54.4552 66.6472C53.5042 66.4578 52.5054 66.278 51.5398 66.1386C50.1998 65.9448 48.1486 65.8619 46.6886 65.8221C44.7024 65.7678 42.9549 67.4156 42.6332 69.6359L39.4292 94.415Z" fill="#54B4CA"/>
<path d="M46.5884 57.6927C46.4696 58.3744 46.4153 59.0381 46.4181 59.6308C46.422 60.5045 46.4276 61.3895 46.6495 62.2347C46.8121 62.8537 47.0895 63.4418 47.4644 63.9605C47.5788 64.119 47.7105 64.2775 47.892 64.3509C48.0383 64.4102 48.2014 64.4074 48.3594 64.4035C50.1764 64.361 51.8353 64.7346 53.3642 63.5152C54.7703 62.3938 55.5572 60.607 55.7797 58.855C56.2124 55.4444 54.4946 52.4176 51.9429 52.0944C48.6985 51.6832 47.0833 54.8451 46.5884 57.6927Z" fill="#E99C75"/>
<path d="M46.6708 58.7663C46.6423 58.9292 46.7592 59.0876 46.9316 59.1205C47.1038 59.1534 47.2666 59.0483 47.2953 58.8854C47.3238 58.7225 47.2069 58.5639 47.0349 58.531C46.8625 58.4981 46.6995 58.6034 46.6708 58.7663Z" fill="#263238"/>
<path d="M46.6704 57.8083C46.7039 57.8541 46.9669 57.7129 47.3061 57.7601C47.6457 57.8026 47.8709 58.0081 47.9135 57.9722C47.934 57.9566 47.9044 57.8782 47.8066 57.7859C47.7104 57.6939 47.5388 57.594 47.3273 57.566C47.1157 57.5383 46.9274 57.5904 46.8145 57.6547C46.6991 57.7194 46.6538 57.7875 46.6704 57.8083Z" fill="#263238"/>
<path d="M49.8322 59.2082C49.8037 59.3711 49.9206 59.5295 50.093 59.5624C50.2652 59.5953 50.428 59.4902 50.4565 59.3273C50.4849 59.1643 50.3681 59.0057 50.1961 58.9729C50.0235 58.94 49.8606 59.0452 49.8322 59.2082Z" fill="#263238"/>
<path d="M49.9978 58.3254C50.0315 58.3712 50.2945 58.2302 50.6335 58.2775C50.973 58.32 51.1985 58.5254 51.2411 58.4898C51.2616 58.4741 51.2321 58.3958 51.134 58.3032C51.038 58.2113 50.8662 58.1113 50.6547 58.0833C50.4431 58.0556 50.2548 58.1078 50.1417 58.172C50.0267 58.2365 49.9811 58.3048 49.9978 58.3254Z" fill="#263238"/>
<path d="M48.4253 60.6304C48.4295 60.6116 48.2233 60.5471 47.8875 60.4574C47.8021 60.4368 47.7223 60.4087 47.7159 60.3485C47.7038 60.2841 47.7528 60.1973 47.8085 60.104C47.9182 59.9091 48.0333 59.7046 48.1542 59.4906C48.6374 58.616 48.9996 57.8919 48.9636 57.873C48.9275 57.854 48.5066 58.5475 48.0236 59.4223C47.9067 59.6382 47.7947 59.844 47.6883 60.0411C47.6421 60.1334 47.5705 60.2354 47.5972 60.3691C47.6117 60.4359 47.6691 60.4908 47.7227 60.5131C47.7759 60.5371 47.8246 60.545 47.867 60.5532C48.2081 60.6184 48.4212 60.649 48.4253 60.6304Z" fill="#263238"/>
<path d="M49.392 60.9932C49.3372 60.9824 49.2865 61.3444 48.9358 61.5585C48.5855 61.7735 48.1987 61.6793 48.1888 61.7296C48.1805 61.7515 48.2665 61.8118 48.4317 61.8387C48.5934 61.8663 48.8379 61.8474 49.0525 61.7165C49.2666 61.5851 49.3783 61.3862 49.4114 61.2393C49.4461 61.0898 49.4175 60.9946 49.392 60.9932Z" fill="#263238"/>
<path d="M50.1264 57.18C50.1553 57.2713 50.4405 57.2256 50.7762 57.2708C51.1128 57.3078 51.3841 57.4214 51.428 57.3391C51.4476 57.2995 51.3998 57.2139 51.29 57.1261C51.1809 57.0385 51.0073 56.9558 50.8058 56.9308C50.6042 56.9063 50.42 56.9455 50.2983 57.0049C50.1756 57.0642 50.114 57.1366 50.1264 57.18Z" fill="#263238"/>
<path d="M46.8383 56.666C46.8876 56.7499 47.1321 56.7032 47.4138 56.738C47.6965 56.7629 47.9259 56.8598 47.9917 56.7881C48.0209 56.7528 47.994 56.6719 47.8997 56.5859C47.807 56.5005 47.6436 56.4187 47.4496 56.3979C47.2557 56.3777 47.0786 56.4234 46.9703 56.4875C46.8605 56.5517 46.8171 56.6254 46.8383 56.666Z" fill="#263238"/>
<path d="M29.015 62.0302L32.882 63.3185C33.03 63.3678 33.1297 63.5061 33.1297 63.6619V74.657C33.1297 74.904 32.8876 75.0782 32.6533 75.0003L28.7863 73.7121C28.6383 73.6628 28.5386 73.5244 28.5386 73.3687V62.3736C28.538 62.1266 28.7801 61.9524 29.015 62.0302Z" fill="#2C1D75"/>
<path d="M29.015 62.0302L32.882 63.3185C33.03 63.3678 33.1297 63.5061 33.1297 63.6619V74.657C33.1297 74.904 32.8876 75.0782 32.6533 75.0003L28.7863 73.7121C28.6383 73.6628 28.5386 73.5244 28.5386 73.3687V62.3736C28.538 62.1266 28.7801 61.9524 29.015 62.0302Z" fill="#5549AD"/>
<path d="M28.7858 73.7122C28.6378 73.6629 28.5381 73.5245 28.5381 73.3688V62.4448L32.3076 63.7006C32.4556 63.7499 32.5553 63.8882 32.5553 64.044V74.9679L28.7858 73.7122Z" fill="#2C1D75"/>
<path d="M29.1125 64.3096C29.1125 64.5734 29.2409 64.7873 29.3995 64.7873C29.5581 64.7873 29.6864 64.5734 29.6864 64.3096C29.6864 64.0458 29.5581 63.8318 29.3995 63.8318C29.2409 63.8312 29.1125 64.0452 29.1125 64.3096Z" fill="#6958DD"/>
<path d="M43.4712 82.5138L46.4774 84.8473C46.7588 85.0657 47.1645 85.0148 47.3831 84.7336L57.4419 71.7898C57.9671 71.1143 57.8443 70.1414 57.1684 69.6166L55.5902 68.3916C54.9143 67.8667 53.9408 67.9894 53.4157 68.6649L43.3569 81.6087C43.1389 81.8904 43.1899 82.2954 43.4712 82.5138Z" fill="#3898A8"/>
<path d="M47.855 84.165C48.6867 83.0302 48.4401 81.4361 47.3046 80.6049L33.4533 71.792L32.0337 73.7289L44.2928 84.7145C45.4283 85.5462 47.0233 85.2998 47.855 84.165Z" fill="#3898A8"/>
<path d="M33.585 72.0722C33.585 72.0722 33.8489 69.4788 33.2778 68.8257C32.7068 68.1726 32.1962 69.9084 32.1962 69.9084C32.1962 69.9084 29.5672 66.5841 28.5018 67.4221C27.4369 68.26 26.1104 70.3677 32.0858 73.7043L33.585 72.0722Z" fill="#E99C75"/>
<path d="M53.1314 65.4202L47.583 65.7439L48.886 67.5324L53.7972 66.6395L53.1314 65.4202Z" fill="#3898A8"/>
<path d="M52.5879 56.7701C52.7202 56.354 42.7494 54.5851 45.1542 50.4335C47.5591 46.2819 51.0574 50.4335 51.0574 50.4335C51.0574 50.4335 52.5879 47.5932 54.9928 52.6186C54.9928 52.6186 61.7798 58.2897 52.4831 64.8499L52.8065 62.014C52.8065 62.014 51.0574 61.5771 52.5879 56.7701Z" fill="#7D382E"/>
<path d="M51.9647 59.8368C51.9647 59.8368 53.4622 58.7367 53.4622 59.8295C53.4622 60.9223 53.6808 62.0145 51.9316 62.4514C51.9316 62.4514 51.9978 60.7179 51.9647 59.8368Z" fill="#E99C75"/>
<path d="M120.374 125.144C120.374 125.144 115.262 120.332 108.485 130.717C105.363 135.501 108.292 135.877 104.729 138.419C101.166 140.96 104.368 146.43 102.431 149.398C100.495 152.365 103.58 156.068 107.259 155.294C110.938 154.52 120.322 129.762 120.322 129.762L120.374 125.144Z" fill="#382D6C"/>
<path d="M118.308 135.173L114.739 133.961L112.996 139.089L116.564 140.301L118.308 135.173Z" fill="#A86A54"/>
<path d="M124.92 155.612L123.449 156.115C122.507 156.437 121.484 155.936 121.162 154.995L115.749 139.177L117.568 138.555C119.258 137.978 121.097 138.878 121.675 140.567L126.042 153.326C126.363 154.267 125.861 155.291 124.92 155.612Z" fill="#ABABD6"/>
<path d="M105.635 168.325C105.635 168.325 103.799 179.969 114.741 177.68C114.741 177.68 122.466 177.356 125.279 173.688L124.408 163.607L105.635 168.325Z" fill="#FF7086"/>
<path d="M121.176 154.466C121.132 153.044 122.251 151.855 123.674 151.812L140.277 152.384L140.352 154.812L123.832 156.963C122.409 157.007 121.22 155.889 121.176 154.466Z" fill="#ABABD6"/>
<path d="M122.999 168.108C122.999 168.108 118.115 169.35 114.264 169.388C109.176 169.438 105.885 168.276 105.885 168.276L105.933 144.776C105.94 141.441 108.216 138.677 111.158 138.44C112.136 138.361 113.161 138.297 114.148 138.271C115.517 138.233 117.588 138.39 119.06 138.521C121.063 138.7 121.047 142.175 121.109 144.444C121.109 144.444 124.453 148.619 123.626 150.314C122.374 152.882 119.353 155.565 119.353 155.565L122.999 168.108Z" fill="#BCBCE2"/>
<path d="M148.467 174.018C148.823 172.299 147.717 170.617 145.997 170.261L124.081 165.73L113.539 176.945L144.708 176.488C146.429 176.842 148.111 175.737 148.467 174.018Z" fill="#D34C5D"/>
<path d="M144.005 173.135C144.267 171.399 145.887 170.204 147.624 170.465L175.111 174.601L174.515 178.56L146.677 176.751C144.94 176.49 143.744 174.871 144.005 173.135Z" fill="#D34C5D"/>
<path d="M175.111 174.601C175.111 174.601 175.902 169.878 177.669 169.748L176.301 178.828L174.515 178.56L175.111 174.601Z" fill="#2C1D75"/>
<path d="M130.281 157.151C129.022 155.927 127.008 155.955 125.783 157.213L108.154 171.278L114.741 177.68L130.343 161.646C131.568 160.387 131.54 158.374 130.281 157.151Z" fill="#FF7086"/>
<path d="M125.806 157.423C126.902 156.051 128.903 155.827 130.276 156.922L152.001 174.252L149.503 177.381L126.308 161.891C124.935 160.795 124.711 158.795 125.806 157.423Z" fill="#FF7086"/>
<path d="M152.001 174.252C152.001 174.252 158.1 175.941 158.546 177.654L149.591 178.248L149.419 177.244L152.001 174.252Z" fill="#2C1D75"/>
<path d="M122.48 132.411C122.286 133.084 122.041 133.712 121.775 134.25C121.383 135.043 120.986 135.845 120.409 136.515C119.987 137.006 119.473 137.418 118.903 137.723C118.728 137.817 118.538 137.903 118.341 137.889C118.182 137.877 118.034 137.803 117.892 137.73C116.259 136.885 114.584 136.49 113.734 134.704C112.953 133.061 113.03 131.087 113.605 129.395C114.725 126.102 117.63 124.11 120.094 124.947C123.227 126.01 123.293 129.602 122.48 132.411Z" fill="#E09D82"/>
<path d="M121.967 134.285C121.9 134.437 121.715 134.504 121.553 134.436C121.391 134.368 121.314 134.19 121.38 134.039C121.447 133.888 121.632 133.82 121.794 133.888C121.955 133.956 122.033 134.134 121.967 134.285Z" fill="#263238"/>
<path d="M122.483 133.637C122.437 133.671 122.227 133.459 121.889 133.404C121.552 133.345 121.276 133.475 121.246 133.428C121.231 133.407 121.283 133.341 121.403 133.282C121.522 133.222 121.716 133.177 121.926 133.212C122.136 133.248 122.301 133.353 122.39 133.448C122.481 133.543 122.505 133.622 122.483 133.637Z" fill="#263238"/>
<path d="M119.519 133.652C119.452 133.803 119.267 133.871 119.105 133.803C118.944 133.735 118.866 133.557 118.933 133.406C119 133.254 119.185 133.187 119.346 133.255C119.508 133.323 119.586 133.5 119.519 133.652Z" fill="#263238"/>
<path d="M119.872 132.826C119.819 132.845 119.678 132.582 119.369 132.434C119.063 132.282 118.761 132.328 118.746 132.275C118.737 132.25 118.805 132.202 118.938 132.179C119.069 132.155 119.268 132.167 119.459 132.261C119.651 132.355 119.779 132.502 119.837 132.619C119.897 132.736 119.897 132.818 119.872 132.826Z" fill="#263238"/>
<path d="M119.905 135.616C119.911 135.598 120.119 135.658 120.448 135.769C120.531 135.799 120.613 135.82 120.652 135.774C120.697 135.727 120.705 135.627 120.71 135.519C120.726 135.296 120.744 135.062 120.762 134.817C120.844 133.821 120.943 133.017 120.984 133.022C121.024 133.026 120.991 133.836 120.908 134.832C120.886 135.076 120.865 135.31 120.845 135.533C120.832 135.635 120.835 135.76 120.739 135.856C120.69 135.904 120.612 135.918 120.555 135.907C120.497 135.897 120.452 135.877 120.412 135.86C120.092 135.726 119.898 135.634 119.905 135.616Z" fill="#263238"/>
<path d="M118.897 135.383C118.948 135.404 118.79 135.734 118.963 136.106C119.136 136.479 119.51 136.614 119.491 136.661C119.485 136.684 119.38 136.687 119.228 136.618C119.078 136.551 118.885 136.4 118.779 136.173C118.673 135.945 118.69 135.718 118.744 135.577C118.798 135.433 118.875 135.37 118.897 135.383Z" fill="#263238"/>
<path d="M120.4 131.801C120.325 131.861 120.113 131.665 119.808 131.517C119.507 131.362 119.219 131.306 119.228 131.213C119.233 131.17 119.32 131.125 119.461 131.112C119.6 131.1 119.79 131.127 119.972 131.218C120.153 131.309 120.285 131.443 120.353 131.56C120.423 131.678 120.434 131.772 120.4 131.801Z" fill="#263238"/>
<path d="M123.07 132.847C122.994 132.909 122.781 132.78 122.505 132.714C122.232 132.639 121.983 132.649 121.946 132.559C121.931 132.516 121.985 132.45 122.103 132.402C122.22 132.354 122.401 132.335 122.591 132.383C122.779 132.432 122.929 132.536 123.008 132.634C123.089 132.733 123.104 132.817 123.07 132.847Z" fill="#263238"/>
<path d="M140.246 152.578C140.246 152.578 141.955 150.569 142.832 150.528C143.71 150.487 142.799 152.076 142.799 152.076C142.799 152.076 147.069 151.665 147.204 153.03C147.338 154.394 146.727 156.838 140.104 154.815L140.246 152.578Z" fill="#E09D82"/>
<path d="M145.23 145.362L148.288 148.127C148.406 148.233 148.441 148.402 148.378 148.546L143.903 158.732C143.803 158.961 143.507 159.024 143.322 158.857L140.263 156.091C140.146 155.986 140.11 155.817 140.174 155.672L144.649 145.486C144.749 145.257 145.045 145.194 145.23 145.362Z" fill="#2C1D75"/>
<path d="M145.23 145.362L148.288 148.127C148.406 148.233 148.441 148.402 148.378 148.546L143.903 158.732C143.803 158.961 143.507 159.024 143.322 158.857L140.263 156.091C140.146 155.986 140.11 155.817 140.174 155.672L144.649 145.486C144.749 145.257 145.045 145.194 145.23 145.362Z" fill="#5549AD"/>
<path d="M140.263 156.091C140.146 155.985 140.11 155.817 140.174 155.672L144.62 145.552L147.601 148.248C147.718 148.354 147.754 148.522 147.691 148.666L143.245 158.786L140.263 156.091Z" fill="#2C1D75"/>
<path d="M140.917 155.393C140.821 155.306 140.791 155.167 140.843 155.049L144.497 146.731L146.947 148.947C147.044 149.034 147.073 149.173 147.021 149.291L143.367 157.609L140.917 155.393Z" fill="#54B4CA"/>
<path d="M143.998 150.152C144.156 150.645 143.923 151.232 143.47 151.483C143.353 151.547 143.225 151.591 143.114 151.664C142.91 151.799 142.784 152.021 142.657 152.23C142.286 152.841 141.814 153.449 141.137 153.683C141.03 153.72 140.895 153.741 140.817 153.658C140.737 153.571 140.773 153.434 140.816 153.324C140.995 152.857 141.202 152.4 141.434 151.956C141.623 151.595 141.831 151.075 142.15 150.816C142.316 150.681 144.059 150.342 143.998 150.152Z" fill="#E09D82"/>
<path d="M122.401 126.253C122.401 126.253 124.569 126.821 124.97 127.505C125.37 128.188 125.486 129.956 124.118 130.755C123.244 131.266 120.776 130.651 118.676 130.631C118.13 130.625 117.609 130.66 117.147 130.764C116.603 130.888 116.14 131.109 115.817 131.478L114.339 133.166C114.339 133.166 114.441 137.525 113.779 138.767C112.449 141.263 111.088 138.579 108.174 139.328C106.805 139.679 112.647 128.633 114.101 126.976C116.579 124.15 120.116 123.918 122.401 126.253Z" fill="#382D6C"/>
<path d="M116.242 132.202C116.242 132.202 115.62 130.211 114.912 131.168C114.203 132.125 114.387 134.915 115.457 135.196L116.242 132.202Z" fill="#E09D82"/>
<path d="M118.194 157.293L116.724 157.796C115.782 158.117 114.758 157.616 114.437 156.675L109.646 142.676C109.302 141.672 109.838 140.579 110.843 140.235C112.533 139.658 114.372 140.558 114.949 142.247L119.316 155.006C119.638 155.947 119.136 156.971 118.194 157.293Z" fill="#ABABD6"/>
<path d="M114.451 156.147C114.407 154.724 115.526 153.536 116.949 153.492L133.552 154.064L133.627 156.492L117.107 158.643C115.684 158.688 114.494 157.57 114.451 156.147Z" fill="#ABABD6"/>
<path d="M133.394 153.331L133.619 156.227C133.619 156.227 136.757 156.691 137.878 156.131C138.998 155.571 138.998 154.451 138.998 154.451C138.998 154.451 141.24 154.451 141.24 153.891C141.24 153.331 138.998 153.331 137.878 153.331C136.757 153.331 133.394 153.331 133.394 153.331Z" fill="#E09D82"/>
</svg>
