<svg width="353" height="353" viewBox="0 0 353 353" fill="none" xmlns="http://www.w3.org/2000/svg">
<g clip-path="url(#clip0_2169_47379)">
<path d="M313.408 223.145H185.801C183.519 223.145 181.662 221.289 181.662 219.007V33.1361C181.662 30.8543 183.519 28.9976 185.801 28.9976H313.408C315.689 28.9976 317.546 30.8536 317.546 33.1361V219.007C317.547 221.289 315.69 223.145 313.408 223.145ZM185.801 29.1741C183.616 29.1741 181.839 30.9518 181.839 33.1361V219.007C181.839 221.192 183.617 222.969 185.801 222.969H313.408C315.593 222.969 317.37 221.191 317.37 219.007V33.1361C317.37 30.9518 315.592 29.1741 313.408 29.1741H185.801Z" fill="#E0E0E0"/>
<path d="M166.258 223.145H38.6508C36.369 223.145 34.5122 221.289 34.5122 219.007V33.1361C34.5122 30.8543 36.3683 28.9976 38.6508 28.9976H166.258C168.54 28.9976 170.397 30.8536 170.397 33.1361V219.007C170.397 221.289 168.54 223.145 166.258 223.145ZM38.6508 29.1741C36.4664 29.1741 34.6887 30.9518 34.6887 33.1361V219.007C34.6887 221.192 36.4664 222.969 38.6508 222.969H166.258C168.443 222.969 170.22 221.191 170.22 219.007V33.1361C170.22 30.9518 168.443 29.1741 166.258 29.1741H38.6508Z" fill="#E0E0E0"/>
<path d="M353 266.261H0V266.437H353V266.261Z" fill="#E0E0E0"/>
<path d="M47.8188 276.331H36.4805V276.508H47.8188V276.331Z" fill="#E0E0E0"/>
<path d="M158.061 274.418H120.269V274.594H158.061V274.418Z" fill="#E0E0E0"/>
<path d="M74.1172 282.89H48.5247V283.067H74.1172V282.89Z" fill="#E0E0E0"/>
<path d="M297.609 274.326H267.116V274.503H297.609V274.326Z" fill="#E0E0E0"/>
<path d="M308.368 274.326H303.899V274.503H308.368V274.326Z" fill="#E0E0E0"/>
<path d="M261.292 278.725H223.246V278.901H261.292V278.725Z" fill="#E0E0E0"/>
<path d="M49.3382 256.917C49.7053 255.875 50.5038 255.376 51.4315 255.127C52.1551 254.934 52.7799 255.116 53.5353 255.346C53.8855 255.453 54.3289 255.701 54.7454 256.009C54.6565 255.499 54.6325 254.991 54.6939 254.63C54.8266 253.851 54.9424 253.211 55.4394 252.651C56.0762 251.932 56.8797 251.441 57.9761 251.579C59.0054 251.708 59.7496 252.66 60.0771 253.645C60.4047 254.63 60.3779 255.854 60.2176 256.831C59.8809 258.882 59.4756 260.528 58.5239 262.123C56.1715 262.202 55.0187 261.888 53.0341 261.272C52.0873 260.978 50.9817 260.454 50.2475 259.72C49.5126 258.987 48.9936 257.896 49.3382 256.917Z" fill="#EBEBEB"/>
<path d="M316.871 153.676L253.294 173.589L266.651 216.233L330.228 196.319L316.871 153.676Z" fill="#EBEBEB"/>
<path d="M253.893 173.884C253.893 173.884 292.333 190.945 293.527 190.571C294.721 190.197 316.563 154.159 316.563 154.159" stroke="#FAFAFA" stroke-width="0.706" stroke-miterlimit="10" stroke-linecap="round" stroke-linejoin="round"/>
<path d="M266.653 216.213L280.758 185.564" stroke="#FAFAFA" stroke-width="0.706" stroke-miterlimit="10"/>
<path d="M330.228 196.297L300.988 179.832" stroke="#FAFAFA" stroke-width="0.706" stroke-miterlimit="10"/>
<path d="M77.2299 188.566L31.8596 166.147L16.8222 196.578L62.1925 218.998L77.2299 188.566Z" fill="#EBEBEB"/>
<path d="M32.0327 166.64C32.0327 166.64 44.1964 196.181 45.0485 196.602C45.9007 197.023 76.8072 188.688 76.8072 188.688" stroke="#FAFAFA" stroke-width="0.706" stroke-miterlimit="10" stroke-linecap="round" stroke-linejoin="round"/>
<path d="M16.8318 196.586L40.6614 187.151" stroke="#FAFAFA" stroke-width="0.706" stroke-miterlimit="10"/>
<path d="M62.2041 219.003L54.7812 194.618" stroke="#FAFAFA" stroke-width="0.706" stroke-miterlimit="10"/>
<path d="M252.796 63.4254L197.962 58.365L194.568 95.1429L249.401 100.203L252.796 63.4254Z" fill="#EBEBEB"/>
<path d="M198.316 58.7864C198.316 58.7864 222.2 84.0414 223.229 84.1367C224.259 84.232 252.396 63.703 252.396 63.703" stroke="#FAFAFA" stroke-width="0.706" stroke-miterlimit="10" stroke-linecap="round" stroke-linejoin="round"/>
<path d="M194.566 95.1341L215.086 76.2507" stroke="#FAFAFA" stroke-width="0.706" stroke-miterlimit="10"/>
<path d="M249.397 100.193L232.34 78.323" stroke="#FAFAFA" stroke-width="0.706" stroke-miterlimit="10"/>
<path d="M280.327 106.264C281.881 105.889 283.115 106.465 284.146 107.395C284.95 108.12 285.221 109.021 285.537 110.119C285.683 110.628 285.73 111.362 285.685 112.109C286.234 111.6 286.832 111.171 287.317 110.961C288.367 110.509 289.235 110.147 290.306 110.308C291.679 110.514 292.908 111.103 293.604 112.542C294.257 113.893 293.688 115.545 292.75 116.718C291.813 117.891 290.308 118.821 288.995 119.397C286.241 120.603 283.926 121.406 281.242 121.506C279.294 118.714 278.768 117.069 277.953 114.175C277.565 112.795 277.33 111.042 277.641 109.573C277.953 108.104 278.868 106.615 280.327 106.264Z" fill="#EBEBEB"/>
<path d="M56.761 63.7291C57.1281 62.6871 57.9266 62.1879 58.8543 61.9394C59.578 61.746 60.2028 61.9281 60.9582 62.1576C61.3084 62.2642 61.7517 62.5127 62.1683 62.8205C62.0793 62.3101 62.0553 61.8025 62.1167 61.4417C62.2488 60.663 62.3653 60.0226 62.8623 59.4621C63.4991 58.7434 64.3025 58.2527 65.3989 58.3904C66.429 58.5196 67.1724 59.472 67.5 60.4568C67.8276 61.4424 67.8007 62.6645 67.6405 63.643C67.3037 65.6939 66.8985 67.3396 65.9468 68.9338C63.5944 69.0128 62.4415 68.6987 60.4569 68.0823C59.5102 67.7886 58.4046 67.2648 57.6704 66.532C56.9354 65.7991 56.4165 64.7077 56.761 63.7291Z" fill="#EBEBEB"/>
<path d="M292.201 59.2758C292.569 58.2337 293.367 57.7346 294.295 57.4861C295.018 57.2926 295.643 57.4748 296.399 57.7042C296.749 57.8108 297.192 58.0593 297.609 58.3671C297.52 57.8567 297.496 57.3491 297.557 56.9883C297.69 56.2096 297.806 55.5693 298.303 55.0087C298.94 54.29 299.743 53.7993 300.839 53.937C301.869 54.0662 302.613 55.0186 302.94 56.0035C303.268 56.9883 303.242 58.2111 303.081 59.1896C302.744 61.2406 302.339 62.8863 301.387 64.4804C299.035 64.5595 297.882 64.2453 295.897 63.629C294.951 63.3353 293.845 62.8114 293.111 62.0779C292.376 61.3458 291.857 60.2543 292.201 59.2758Z" fill="#EBEBEB"/>
<path d="M322.138 320.895C322.138 323.287 256.115 325.225 174.672 325.225C93.2293 325.225 27.2063 323.287 27.2063 320.895C27.2063 318.504 93.2286 316.566 174.672 316.566C256.116 316.566 322.138 318.504 322.138 320.895Z" fill="#F5F5F5"/>
<path d="M265.406 283.006L113.292 268.972C111.388 268.796 109.988 267.111 110.164 265.207L119.786 160.918L197.751 112.503C200.61 110.72 204.298 111.011 206.843 113.22L278.792 175.588L269.167 279.904C268.979 281.796 267.299 283.181 265.406 283.006Z" fill="#0063CB"/>
<path opacity="0.2" d="M265.406 283.006L113.292 268.972C111.388 268.796 109.988 267.111 110.164 265.207L119.786 160.918L197.751 112.503C200.61 110.72 204.298 111.011 206.843 113.22L278.792 175.588L269.167 279.904C268.979 281.796 267.299 283.181 265.406 283.006Z" fill="black"/>
<path d="M278.792 175.589L269.167 279.913C268.989 281.659 267.533 282.996 265.778 283.023L265.433 282.992L113.294 268.955L112.941 268.922C111.228 268.567 110.05 266.989 110.195 265.246L119.82 160.921L183.233 213.917L186.7 216.844L192.265 221.502L198.925 217.972L203.074 215.748L278.792 175.589Z" fill="#0063CB"/>
<path opacity="0.2" d="M269.292 278.552L269.198 279.577C269.09 281.422 267.623 282.896 265.779 283.015L265.434 282.983L113.295 268.947L112.942 268.914C111.158 268.453 109.995 266.738 110.226 264.91L110.322 263.876L183.234 213.909L186.7 216.835L192.266 221.494L198.925 217.964L203.075 215.74L269.292 278.552Z" fill="black"/>
<path d="M264.714 183.055L203.075 215.748L183.72 214.319L132.746 171.723L137.921 115.624L269.813 127.792L264.714 183.055Z" fill="#E8EDFF"/>
<path opacity="0.7" d="M264.714 183.055L203.075 215.748L183.72 214.319L132.746 171.723L137.921 115.624L269.813 127.792L264.714 183.055Z" fill="white"/>
<g clip-path="url(#clip1_2169_47379)">
<path d="M155.552 161.488L156.906 148.604L160.164 148.946L162.743 154.689L166.459 149.608L169.717 149.95L168.363 162.835L165.749 162.56L166.72 153.32L163.342 157.841L161.502 157.647L159.137 152.523L158.166 161.763L155.552 161.488ZM176.951 153.986C179.97 154.303 181.798 156.747 181.505 159.527C181.213 162.306 178.918 164.316 175.899 163.999C172.88 163.682 171.053 161.238 171.345 158.459C171.637 155.679 173.933 153.669 176.951 153.986ZM176.168 161.794C177.659 161.951 178.907 160.873 179.076 159.271C179.246 157.651 178.247 156.355 176.756 156.199C175.21 156.036 173.945 157.094 173.775 158.714C173.604 160.334 174.622 161.632 176.168 161.794ZM183.15 164.389L184.125 155.112L186.463 155.358L186.385 156.094C187.095 155.536 188.011 155.148 189.244 155.278C191.25 155.489 192.706 157.038 192.418 159.78L191.838 165.302L189.482 165.055L190.053 159.625C190.182 158.391 189.564 157.545 188.423 157.425C187.245 157.301 186.536 158.027 186.124 158.579L185.488 164.635L183.15 164.389Z" fill="#DEE5FD"/>
<path d="M155.552 161.488L155.301 161.462L155.275 161.713L155.526 161.739L155.552 161.488ZM156.906 148.604L156.933 148.353L156.682 148.327L156.655 148.578L156.906 148.604ZM160.164 148.946L160.394 148.843L160.335 148.711L160.191 148.695L160.164 148.946ZM162.743 154.689L162.513 154.792L162.691 155.188L162.947 154.838L162.743 154.689ZM166.459 149.608L166.486 149.357L166.341 149.342L166.256 149.459L166.459 149.608ZM169.717 149.95L169.968 149.977L169.995 149.726L169.744 149.699L169.717 149.95ZM168.363 162.835L168.337 163.086L168.588 163.112L168.614 162.861L168.363 162.835ZM165.749 162.56L165.498 162.534L165.472 162.785L165.723 162.811L165.749 162.56ZM166.72 153.32L166.971 153.347L167.067 152.434L166.518 153.169L166.72 153.32ZM163.342 157.841L163.316 158.092L163.458 158.107L163.544 157.992L163.342 157.841ZM161.502 157.647L161.272 157.753L161.332 157.883L161.475 157.898L161.502 157.647ZM159.137 152.523L159.366 152.417L158.982 151.585L158.886 152.497L159.137 152.523ZM158.166 161.763L158.139 162.014L158.39 162.04L158.417 161.789L158.166 161.763ZM155.552 161.488L155.803 161.515L157.157 148.63L156.906 148.604L156.655 148.578L155.301 161.462L155.552 161.488ZM156.906 148.604L156.88 148.855L160.138 149.197L160.164 148.946L160.191 148.695L156.933 148.353L156.906 148.604ZM160.164 148.946L159.934 149.05L162.513 154.792L162.743 154.689L162.973 154.585L160.394 148.843L160.164 148.946ZM162.743 154.689L162.947 154.838L166.663 149.757L166.459 149.608L166.256 149.459L162.539 154.54L162.743 154.689ZM166.459 149.608L166.433 149.859L169.691 150.201L169.717 149.95L169.744 149.699L166.486 149.357L166.459 149.608ZM169.717 149.95L169.466 149.924L168.112 162.808L168.363 162.835L168.614 162.861L169.968 149.977L169.717 149.95ZM168.363 162.835L168.389 162.584L165.776 162.309L165.749 162.56L165.723 162.811L168.337 163.086L168.363 162.835ZM165.749 162.56L166 162.587L166.971 153.347L166.72 153.32L166.469 153.294L165.498 162.534L165.749 162.56ZM166.72 153.32L166.518 153.169L163.14 157.69L163.342 157.841L163.544 157.992L166.923 153.471L166.72 153.32ZM163.342 157.841L163.369 157.59L161.528 157.396L161.502 157.647L161.475 157.898L163.316 158.092L163.342 157.841ZM161.502 157.647L161.731 157.542L159.366 152.417L159.137 152.523L158.908 152.629L161.272 157.753L161.502 157.647ZM159.137 152.523L158.886 152.497L157.915 161.737L158.166 161.763L158.417 161.789L159.388 152.549L159.137 152.523ZM158.166 161.763L158.192 161.512L155.579 161.237L155.552 161.488L155.526 161.739L158.139 162.014L158.166 161.763ZM176.951 153.986L176.925 154.237C179.802 154.539 181.532 156.856 181.254 159.5L181.505 159.527L181.756 159.553C182.063 156.638 180.138 154.067 176.978 153.735L176.951 153.986ZM181.505 159.527L181.254 159.5C180.977 162.144 178.802 164.051 175.925 163.748L175.899 163.999L175.873 164.25C179.033 164.582 181.45 162.468 181.756 159.553L181.505 159.527ZM175.899 163.999L175.925 163.748C173.048 163.446 171.318 161.129 171.596 158.485L171.345 158.459L171.094 158.432C170.788 161.347 172.712 163.918 175.873 164.25L175.899 163.999ZM171.345 158.459L171.596 158.485C171.874 155.841 174.048 153.935 176.925 154.237L176.951 153.986L176.978 153.735C173.818 153.403 171.4 155.517 171.094 158.432L171.345 158.459ZM176.168 161.794L176.142 162.045C177.787 162.218 179.146 161.022 179.327 159.298L179.076 159.271L178.825 159.245C178.669 160.724 177.531 161.684 176.194 161.543L176.168 161.794ZM179.076 159.271L179.327 159.298C179.51 157.554 178.426 156.121 176.783 155.948L176.756 156.199L176.73 156.45C178.068 156.59 178.982 157.749 178.825 159.245L179.076 159.271ZM176.756 156.199L176.783 155.948C175.089 155.77 173.708 156.938 173.524 158.688L173.775 158.714L174.026 158.74C174.182 157.25 175.331 156.303 176.73 156.45L176.756 156.199ZM173.775 158.714L173.524 158.688C173.34 160.437 174.448 161.867 176.142 162.045L176.168 161.794L176.194 161.543C174.796 161.396 173.869 160.231 174.026 158.74L173.775 158.714ZM183.15 164.389L182.899 164.363L182.873 164.614L183.124 164.64L183.15 164.389ZM184.125 155.112L184.151 154.861L183.9 154.835L183.874 155.086L184.125 155.112ZM186.463 155.358L186.714 155.384L186.74 155.133L186.489 155.107L186.463 155.358ZM186.385 156.094L186.134 156.068L186.072 156.662L186.541 156.293L186.385 156.094ZM191.838 165.302L191.811 165.553L192.062 165.58L192.089 165.329L191.838 165.302ZM189.482 165.055L189.231 165.028L189.204 165.279L189.455 165.306L189.482 165.055ZM186.124 158.579L185.922 158.428L185.88 158.484L185.873 158.553L186.124 158.579ZM185.488 164.635L185.461 164.886L185.712 164.912L185.739 164.661L185.488 164.635ZM183.15 164.389L183.401 164.415L184.376 155.139L184.125 155.112L183.874 155.086L182.899 164.363L183.15 164.389ZM184.125 155.112L184.099 155.363L186.436 155.609L186.463 155.358L186.489 155.107L184.151 154.861L184.125 155.112ZM186.463 155.358L186.212 155.332L186.134 156.068L186.385 156.094L186.636 156.121L186.714 155.384L186.463 155.358ZM186.385 156.094L186.541 156.293C187.208 155.769 188.059 155.407 189.218 155.529L189.244 155.278L189.27 155.027C187.962 154.89 186.983 155.304 186.229 155.896L186.385 156.094ZM189.244 155.278L189.218 155.529C190.162 155.628 190.96 156.04 191.491 156.733C192.022 157.427 192.306 158.432 192.167 159.754L192.418 159.78L192.669 159.807C192.818 158.386 192.518 157.245 191.892 156.426C191.265 155.607 190.332 155.139 189.27 155.027L189.244 155.278ZM192.418 159.78L192.167 159.754L191.587 165.276L191.838 165.302L192.089 165.329L192.669 159.807L192.418 159.78ZM191.838 165.302L191.864 165.051L189.508 164.804L189.482 165.055L189.455 165.306L191.811 165.553L191.838 165.302ZM189.482 165.055L189.733 165.081L190.304 159.651L190.053 159.625L189.802 159.598L189.231 165.028L189.482 165.055ZM190.053 159.625L190.304 159.651C190.373 158.988 190.244 158.401 189.917 157.957C189.588 157.511 189.079 157.24 188.449 157.174L188.423 157.425L188.396 157.676C188.908 157.73 189.278 157.942 189.511 158.257C189.746 158.575 189.861 159.028 189.802 159.598L190.053 159.625ZM188.423 157.425L188.449 157.174C187.134 157.036 186.349 157.855 185.922 158.428L186.124 158.579L186.326 158.73C186.723 158.198 187.356 157.567 188.396 157.676L188.423 157.425ZM186.124 158.579L185.873 158.553L185.237 164.608L185.488 164.635L185.739 164.661L186.375 158.605L186.124 158.579ZM185.488 164.635L185.514 164.384L183.176 164.138L183.15 164.389L183.124 164.64L185.461 164.886L185.488 164.635Z" fill="#1212FF"/>
<path d="M160.539 165.507C161.871 165.647 163.019 166.037 163.981 166.676C164.955 167.317 165.675 168.151 166.143 169.178C166.612 170.193 166.781 171.324 166.65 172.57C166.52 173.815 166.112 174.891 165.429 175.798C164.758 176.706 163.867 177.37 162.757 177.792C161.659 178.214 160.432 178.354 159.075 178.212L153.713 177.648L155.05 164.93L160.539 165.507ZM159.575 175.549C160.217 175.617 160.803 175.526 161.331 175.275C161.86 175.025 162.293 174.637 162.63 174.11C162.967 173.583 163.173 172.962 163.248 172.249C163.324 171.523 163.24 170.866 162.996 170.278C162.763 169.691 162.403 169.219 161.913 168.862C161.425 168.493 160.848 168.273 160.182 168.203L158.092 167.983L157.321 175.313L159.575 175.549Z" fill="#1212FF"/>
<path d="M188.812 168.479L192.429 168.859L195.336 176.685L199.789 169.633L203.406 170.013L202.07 182.731L199.125 182.421L199.954 174.364L195.987 180.807L193.843 180.582L191.284 173.453L190.438 181.508L187.475 181.197L188.812 168.479Z" fill="#1212FF"/>
<path d="M208.613 170.56L211.939 170.91L210.602 183.627L207.276 183.278L208.613 170.56Z" fill="#1212FF"/>
<path d="M217.143 171.457L226.666 172.458L226.37 175.104L220.19 174.455L219.893 177.285L225.6 177.885L225.322 180.534L219.615 179.934L219.132 184.524L215.806 184.174L217.143 171.457Z" fill="#1212FF"/>
<path d="M238.293 186.538L237.658 184.197L232.15 183.618L231.023 185.774L227.606 185.415L234.414 173.272L237.831 173.631L241.837 186.91L238.293 186.538ZM233.417 181.183L236.943 181.554L235.675 176.835L233.417 181.183Z" fill="#1212FF"/>
<path fill-rule="evenodd" clip-rule="evenodd" d="M177.345 168.209C174.333 167.893 171.636 170.073 171.32 173.079C171.004 176.085 173.189 178.778 176.201 179.094C179.212 179.411 181.909 177.231 182.225 174.225C182.541 171.219 180.356 168.526 177.345 168.209ZM169.503 172.888C169.924 168.88 173.52 165.973 177.535 166.395C181.55 166.817 184.464 170.408 184.043 174.416C183.621 178.424 180.025 181.331 176.01 180.909C171.995 180.487 169.081 176.896 169.503 172.888Z" fill="#1212FF"/>
<path d="M175.724 183.63L173.792 179.3L178.514 179.796L175.724 183.63Z" fill="#1212FF"/>
<path d="M177.231 169.808C177.247 169.81 177.263 169.819 177.273 169.831L177.273 169.83L180.233 173.654C180.239 173.662 180.243 173.671 180.244 173.681C180.245 173.691 180.243 173.701 180.238 173.71C180.233 173.719 180.226 173.727 180.216 173.732C180.207 173.736 180.197 173.738 180.187 173.737L179.733 173.69C179.653 173.681 179.573 173.696 179.502 173.733L179.436 173.777C179.352 173.845 179.299 173.943 179.287 174.049L179.017 176.621C179.011 176.675 178.985 176.724 178.943 176.758C178.901 176.792 178.847 176.808 178.793 176.803L174.25 176.325C174.196 176.32 174.146 176.292 174.112 176.25C174.078 176.208 174.062 176.155 174.068 176.101L174.338 173.529C174.347 173.449 174.331 173.369 174.294 173.299L174.25 173.232L174.194 173.175C174.133 173.125 174.057 173.093 173.977 173.085L173.523 173.037L173.495 173.025C173.487 173.019 173.481 173.01 173.479 173.001L173.479 173L173.478 172.97C173.481 172.961 173.486 172.952 173.494 172.945L173.495 172.946L177.185 169.821L177.186 169.822C177.198 169.812 177.215 169.806 177.231 169.808Z" fill="#DEE5FD" stroke="#1212FF" stroke-width="0.504757"/>
</g>
<path opacity="0.2" d="M133.184 166.973L184.986 211.06C184.986 211.06 189.834 208.37 194.13 209.394C198.426 210.418 202.608 212.685 202.608 212.685L265.075 179.141L264.713 183.056L203.074 215.749L183.719 214.32L132.745 171.725L133.184 166.973Z" fill="black"/>
<path d="M269.283 278.838L269.194 279.808C269.012 281.776 267.322 283.228 265.419 283.053L113.304 269.019C111.401 268.843 110.005 267.105 110.187 265.138L110.276 264.168L186.865 214.854L188.417 213.857C191.283 212.008 194.969 212.297 197.508 214.57L199.116 215.985L269.283 278.838Z" fill="#0063CB"/>
<path d="M137.69 176.659L142.707 122.287L262.929 133.379L258.04 186.368" stroke="#0063CB" stroke-width="0.706" stroke-miterlimit="10" stroke-linecap="round" stroke-linejoin="round"/>
<path d="M285.728 282.826C285.28 280.974 284.829 279.101 284.812 277.195C284.796 275.289 285.252 273.319 286.445 271.832C287.404 270.637 288.779 269.822 289.709 268.604C291.268 266.56 291.434 263.579 293.367 261.884C294.657 260.752 296.466 260.449 297.953 259.592C299.46 258.724 300.579 257.324 301.946 256.249C303.312 255.174 305.189 254.418 306.778 255.127C308.774 256.017 309.234 258.719 308.701 260.839C308.168 262.958 306.947 264.877 306.59 267.032C306.343 268.527 306.466 270.228 305.449 271.352C304.376 272.536 302.465 272.558 301.274 273.623C300.008 274.754 299.93 276.659 299.462 278.291C298.698 280.955 296.617 283.207 294.021 284.178C291.425 285.15 288.377 284.816 286.051 283.308" fill="#0063CB"/>
<g opacity="0.4">
<path d="M285.728 282.826C285.28 280.974 284.829 279.101 284.812 277.195C284.796 275.289 285.252 273.319 286.445 271.832C287.404 270.637 288.779 269.822 289.709 268.604C291.268 266.56 291.434 263.579 293.367 261.884C294.657 260.752 296.466 260.449 297.953 259.592C299.46 258.724 300.579 257.324 301.946 256.249C303.312 255.174 305.189 254.418 306.778 255.127C308.774 256.017 309.234 258.719 308.701 260.839C308.168 262.958 306.947 264.877 306.59 267.032C306.343 268.527 306.466 270.228 305.449 271.352C304.376 272.536 302.465 272.558 301.274 273.623C300.008 274.754 299.93 276.659 299.462 278.291C298.698 280.955 296.617 283.207 294.021 284.178C291.425 285.15 288.377 284.816 286.051 283.308" fill="white"/>
</g>
<path d="M286.343 256.679C284.534 256.078 282.707 255.47 281.081 254.475C279.455 253.48 278.024 252.05 277.395 250.25C276.889 248.803 276.926 247.206 276.384 245.772C275.477 243.367 273.035 241.648 272.621 239.111C272.344 237.418 273.044 235.722 273.105 234.008C273.167 232.27 272.571 230.579 272.383 228.85C272.194 227.121 272.547 225.129 273.99 224.157C275.802 222.936 278.337 223.975 279.853 225.549C281.369 227.124 282.35 229.175 283.99 230.619C285.128 231.62 286.636 232.416 287.05 233.874C287.487 235.411 286.494 237.044 286.766 238.619C287.056 240.291 288.631 241.367 289.767 242.628C291.623 244.687 292.43 247.644 291.88 250.361C291.329 253.078 289.433 255.486 286.922 256.661" fill="#0063CB"/>
<g opacity="0.2">
<path d="M286.343 256.679C284.534 256.078 282.707 255.47 281.081 254.475C279.455 253.48 278.024 252.05 277.395 250.25C276.889 248.803 276.926 247.206 276.384 245.772C275.477 243.367 273.035 241.648 272.621 239.111C272.344 237.418 273.044 235.722 273.105 234.008C273.167 232.27 272.571 230.579 272.383 228.85C272.194 227.121 272.547 225.129 273.99 224.157C275.802 222.936 278.337 223.975 279.853 225.549C281.369 227.124 282.35 229.175 283.99 230.619C285.128 231.62 286.636 232.416 287.05 233.874C287.487 235.411 286.494 237.044 286.766 238.619C287.056 240.291 288.631 241.367 289.767 242.628C291.623 244.687 292.43 247.644 291.88 250.361C291.329 253.078 289.433 255.486 286.922 256.661" fill="black"/>
</g>
<path d="M283.105 276.352C281.986 277.284 280.854 278.226 279.552 278.881C278.251 279.536 276.745 279.889 275.323 279.572C274.179 279.317 273.156 278.65 272.007 278.424C270.079 278.044 267.979 278.937 266.164 278.184C264.952 277.681 264.133 276.543 263.044 275.813C261.94 275.072 260.602 274.778 259.403 274.203C258.204 273.629 257.053 272.597 257.002 271.268C256.939 269.599 258.637 268.371 260.27 268.021C261.903 267.671 263.631 267.861 265.23 267.377C266.339 267.042 267.464 266.384 268.577 266.701C269.751 267.037 270.412 268.34 271.545 268.797C272.748 269.283 274.081 268.694 275.358 268.464C277.443 268.089 279.69 268.756 281.232 270.208C282.775 271.66 283.576 273.863 283.326 275.967" fill="#0063CB"/>
<g opacity="0.2">
<path d="M283.105 276.352C281.986 277.284 280.854 278.226 279.552 278.881C278.251 279.536 276.745 279.889 275.323 279.572C274.179 279.317 273.156 278.65 272.007 278.424C270.079 278.044 267.979 278.937 266.164 278.184C264.952 277.681 264.133 276.543 263.044 275.813C261.94 275.072 260.602 274.778 259.403 274.203C258.204 273.629 257.053 272.597 257.002 271.268C256.939 269.599 258.637 268.371 260.27 268.021C261.903 267.671 263.631 267.861 265.23 267.377C266.339 267.042 267.464 266.384 268.577 266.701C269.751 267.037 270.412 268.34 271.545 268.797C272.748 269.283 274.081 268.694 275.358 268.464C277.443 268.089 279.69 268.756 281.232 270.208C282.775 271.66 283.576 273.863 283.326 275.967" fill="black"/>
</g>
<path d="M282.697 270.172C280.774 270.476 278.83 270.781 276.888 270.642C274.946 270.502 272.977 269.876 271.561 268.538C270.423 267.462 269.707 265.996 268.543 264.949C266.59 263.193 263.568 262.779 262.001 260.671C260.955 259.265 260.795 257.398 260.045 255.813C259.286 254.207 257.951 252.953 256.969 251.472C255.986 249.992 255.372 248.019 256.224 246.46C257.295 244.501 260.084 244.254 262.198 244.971C264.313 245.687 266.166 247.089 268.332 247.63C269.834 248.004 271.576 248.019 272.636 249.147C273.754 250.337 273.619 252.285 274.605 253.585C275.653 254.967 277.586 255.204 279.21 255.815C281.86 256.812 283.981 259.116 284.757 261.84C285.532 264.564 284.942 267.64 283.215 269.883" fill="#0063CB"/>
<g opacity="0.4">
<path d="M282.697 270.172C280.774 270.476 278.83 270.781 276.888 270.642C274.946 270.502 272.977 269.876 271.561 268.538C270.423 267.462 269.707 265.996 268.543 264.949C266.59 263.193 263.568 262.779 262.001 260.671C260.955 259.265 260.795 257.398 260.045 255.813C259.286 254.207 257.951 252.953 256.969 251.472C255.986 249.992 255.372 248.019 256.224 246.46C257.295 244.501 260.084 244.254 262.198 244.971C264.313 245.687 266.166 247.089 268.332 247.63C269.834 248.004 271.576 248.019 272.636 249.147C273.754 250.337 273.619 252.285 274.605 253.585C275.653 254.967 277.586 255.204 279.21 255.815C281.86 256.812 283.981 259.116 284.757 261.84C285.532 264.564 284.942 267.64 283.215 269.883" fill="white"/>
</g>
<path d="M284.96 259.269C284.08 257.266 283.193 255.241 282.79 253.09C282.387 250.94 282.504 248.621 283.553 246.701C284.397 245.157 285.785 243.959 286.59 242.395C287.94 239.77 287.526 236.369 289.369 234.064C290.599 232.525 292.581 231.817 294.089 230.55C295.617 229.265 296.599 227.458 297.926 225.967C299.254 224.476 301.223 223.244 303.161 223.725C305.595 224.329 306.66 227.288 306.486 229.79C306.312 232.292 305.318 234.707 305.35 237.215C305.372 238.954 305.853 240.852 304.931 242.325C303.958 243.88 301.804 244.29 300.672 245.733C299.47 247.267 299.765 249.435 299.565 251.373C299.239 254.538 297.341 257.502 294.604 259.123C291.866 260.743 288.355 260.982 285.424 259.746" fill="#0063CB"/>
<g opacity="0.4">
<path d="M284.96 259.269C284.08 257.266 283.193 255.241 282.79 253.09C282.387 250.94 282.504 248.621 283.553 246.701C284.397 245.157 285.785 243.959 286.59 242.395C287.94 239.77 287.526 236.369 289.369 234.064C290.599 232.525 292.581 231.817 294.089 230.55C295.617 229.265 296.599 227.458 297.926 225.967C299.254 224.476 301.223 223.244 303.161 223.725C305.595 224.329 306.66 227.288 306.486 229.79C306.312 232.292 305.318 234.707 305.35 237.215C305.372 238.954 305.853 240.852 304.931 242.325C303.958 243.88 301.804 244.29 300.672 245.733C299.47 247.267 299.765 249.435 299.565 251.373C299.239 254.538 297.341 257.502 294.604 259.123C291.866 260.743 288.355 260.982 285.424 259.746" fill="white"/>
</g>
<path d="M282.545 288.673C289.039 278.694 296.545 269.386 304.256 260.33C304.476 260.071 304.103 259.696 303.882 259.956C296.142 269.045 288.606 278.39 282.088 288.406C281.901 288.693 282.359 288.958 282.545 288.673Z" fill="#263238"/>
<path d="M282.581 288.539C281.958 280.891 283.534 273.061 285.507 265.709C287.718 257.47 290.735 249.384 294.64 241.794C296.498 238.183 298.57 234.644 301.083 231.446C301.291 231.181 300.919 230.803 300.709 231.072C295.946 237.133 292.55 244.288 289.711 251.414C286.508 259.451 283.982 267.861 282.683 276.426C282.076 280.423 281.723 284.499 282.052 288.539C282.079 288.877 282.608 288.88 282.581 288.539Z" fill="#263238"/>
<path d="M283.418 269.655C281.434 265.636 277.667 263.073 274.081 260.601C269.793 257.644 265.967 254.324 262.89 250.088C262.691 249.814 262.232 250.079 262.432 250.355C265.33 254.344 268.885 257.631 272.921 260.44C276.708 263.077 280.85 265.646 282.961 269.923C283.112 270.228 283.569 269.96 283.418 269.655Z" fill="#263238"/>
<path d="M299.735 287.561H267.136C267.136 287.561 265.916 308.895 276.206 317.339L272.489 321.767H294.975L290.727 317.115C290.729 317.115 299.196 313.462 299.735 287.561Z" fill="#263238"/>
<g opacity="0.3">
<path d="M277.579 289.456L269.073 289.533C269.51 294.129 269.951 298.756 271.199 303.201C272.445 307.647 274.557 311.95 277.901 315.134C275.747 306.906 276.599 297.904 277.579 289.456Z" fill="white"/>
</g>
<path d="M116.496 67.0679C124.164 61.1517 135.177 62.5714 141.093 70.24C147.01 77.9086 145.59 88.9215 137.921 94.8377C132.001 99.4056 124.096 99.5828 118.073 95.9059L113.031 97.4309L113.512 91.8867C113.451 91.8104 113.383 91.7433 113.323 91.6657C107.407 83.9978 108.827 72.9849 116.496 67.0679Z" fill="#0063CB"/>
<path d="M140.597 66.234C136.624 62.1448 130.508 60.2633 124.924 61.412" stroke="#0063CB" stroke-width="0.353" stroke-miterlimit="10" stroke-linecap="round" stroke-linejoin="round"/>
<path d="M122.381 62.0291C121.518 62.1406 120.679 62.4322 119.935 62.8805" stroke="#0063CB" stroke-width="0.353" stroke-miterlimit="10" stroke-linecap="round" stroke-linejoin="round"/>
<g opacity="0.7">
<path d="M116.496 67.0679C124.164 61.1517 135.177 62.5714 141.093 70.24C147.01 77.9086 145.59 88.9215 137.921 94.8377C132.001 99.4056 124.096 99.5828 118.073 95.9059L113.031 97.4309L113.512 91.8867C113.451 91.8104 113.383 91.7433 113.323 91.6657C107.407 83.9978 108.827 72.9849 116.496 67.0679Z" fill="white"/>
</g>
<path d="M118.547 75.2379C119.933 74.121 121.45 74.1125 122.932 74.558C124.087 74.9053 124.789 75.6841 125.63 76.6393C126.02 77.0819 126.416 77.7985 126.727 78.573C127.038 77.7985 127.434 77.0819 127.824 76.6393C128.665 75.6841 129.367 74.9053 130.522 74.558C132.004 74.1125 133.521 74.1203 134.907 75.2379C136.209 76.287 136.421 78.2221 136.036 79.8495C135.65 81.4768 134.578 83.1302 133.53 84.3354C131.332 86.8615 129.382 88.7726 126.727 90.1521C123.436 88.2678 122.122 86.8615 119.924 84.3354C118.876 83.1309 117.804 81.4775 117.418 79.8495C117.033 78.2221 117.245 76.287 118.547 75.2379Z" fill="#0063CB"/>
<path d="M82.1552 91.7017C81.0418 90.4119 79.3566 89.6353 77.6523 89.6275C75.9487 89.6197 74.2557 90.3808 73.1311 91.6608C72.3651 92.5327 71.8709 93.6023 71.3435 94.6359C70.0776 97.1146 68.5619 99.4656 66.8272 101.642C65.8388 102.881 64.748 104.089 63.3502 104.835C61.2392 105.962 58.7252 105.897 56.3332 105.974C53.942 106.05 51.3545 106.387 49.6425 108.058C49.2965 108.397 48.9873 108.8 48.8899 109.274C48.6449 110.464 49.8296 111.511 51.0142 111.782C52.1989 112.052 53.4471 111.845 54.6417 112.067C53.6907 112.573 52.775 113.237 52.2624 114.184C51.7499 115.132 51.7386 116.412 52.4679 117.205C52.9762 117.758 53.7401 117.992 54.4786 118.128C56.4123 118.485 58.4385 118.324 60.2918 117.667C59.2201 118.809 58.065 120.238 58.4322 121.761C58.8346 123.43 60.8297 124.14 62.5446 124.221C66.4636 124.404 70.2555 122.777 73.5857 120.702C78.2115 117.82 82.4552 113.667 83.5905 108.336C84.1122 105.886 83.9541 103.292 84.8069 100.937L82.1552 91.7017Z" fill="#263238"/>
<path d="M83.7092 84.3684C83.2214 83.308 81.7317 83.1393 80.6381 83.548C78.9091 84.1947 77.6538 85.9477 77.5988 87.7932C77.5437 89.6387 78.6924 91.4637 80.3804 92.2121L80.4821 93.0303C78.7128 91.2851 76.3534 90.1491 73.8859 89.854C72.5127 89.6895 71.057 89.7961 69.8596 90.4873C68.6622 91.1785 67.7946 92.5524 67.9979 93.9199C68.2224 95.43 69.6796 96.5307 71.1862 96.7778C72.6928 97.0249 74.2262 96.5864 75.6481 96.0301C77.07 95.4738 78.4594 94.7897 79.9611 94.5122C80.4489 94.4218 81.0285 94.3159 81.2297 93.8627C81.3483 93.5944 81.2897 93.2866 81.282 92.9936C81.2544 91.9339 81.9103 90.9992 82.4236 90.0715C83.1324 88.7901 83.6068 87.3802 83.8179 85.9315C83.8928 85.4069 83.9302 84.8492 83.7092 84.3684Z" fill="#0063CB"/>
<path d="M97.8961 89.2984C102.045 92.2453 103.137 96.3401 102.997 99.2777C102.357 103.232 99.7938 105.915 98.6113 109.741L89.8625 86.2937C92.3074 86.8521 93.4286 86.3798 97.8961 89.2984Z" fill="#263238"/>
<path d="M92.6781 87.0936C88.6108 85.0568 84.4991 87.2023 82.0951 88.7068C79.4512 90.822 77.8372 93.9672 77.6615 97.3489C77.5697 100.513 77.4588 104.348 79.329 106.052C80.376 107.039 81.7894 107.539 83.2233 107.432L99.2883 93.4447C97.6603 90.8008 95.3856 88.6143 92.6781 87.0936Z" fill="#263238"/>
<path d="M92.5173 123.604C91.5063 122.795 89.2379 119.805 89.4871 118.145L90.6584 112.589C90.6591 112.526 90.6598 112.469 90.6598 112.412L86.9434 110.452C86.9434 110.452 86.942 110.45 86.9406 110.449C86.0157 109.485 84.4844 109.453 83.52 110.377C83.1585 110.705 82.8895 110.567 82.7829 111.044C82.7582 111.148 82.8232 111.823 82.8133 111.931C82.6714 115.643 82.0395 117.981 79.9512 119.595L88.2509 128.941C92.8364 125.866 93.1202 124.141 92.5173 123.604Z" fill="#FFA666"/>
<path opacity="0.2" d="M89.5681 117.829C89.5858 117.672 89.6444 117.356 89.6846 117.204C89.9367 115.932 90.2452 114.481 90.6702 112.402C90.6603 112.337 90.661 112.272 90.6723 112.207L86.7738 110.109C85.7805 109.101 84.1595 109.085 83.1471 110.075C82.7828 110.432 82.8802 110.882 82.7715 111.38C84.3565 114.354 86.4667 116.777 89.4672 118.311C89.47 118.146 89.5392 118.011 89.5646 117.847L89.5681 117.829Z" fill="black"/>
<path d="M79.9772 98.343C79.9299 105.663 79.7478 108.749 83.1084 112.822C88.169 118.938 96.9784 117.6 99.2037 110.48C101.154 104.068 100.939 93.1977 94.1396 89.6415C87.3401 86.0847 80.0309 91.014 79.9772 98.343Z" fill="#FFA666"/>
<path d="M76.5573 104.514C77.2513 106.115 78.5503 107.218 79.8021 107.688C81.6857 108.394 83.0412 105.391 82.6007 103.374C82.2039 101.558 80.4304 100.183 78.5002 100.35C76.5983 100.515 75.7638 102.684 76.5573 104.514Z" fill="#FFA666"/>
<path opacity="0.2" d="M80.6986 104.59C80.7311 103.891 80.4762 103.183 80.006 102.666C79.5358 102.148 78.8552 101.826 78.157 101.792" stroke="black" stroke-width="0.353" stroke-miterlimit="10" stroke-linecap="round" stroke-linejoin="round"/>
<path d="M88.8587 101.725C88.8065 102.504 89.1538 103.188 89.6346 103.253C90.1154 103.318 90.5468 102.739 90.599 101.959C90.6512 101.18 90.3039 100.496 89.8231 100.431C89.343 100.367 88.9117 100.946 88.8587 101.725Z" fill="#263238"/>
<path d="M95.9835 102.548C95.9348 103.303 96.2836 103.968 96.7623 104.032C97.2409 104.096 97.6695 103.537 97.7182 102.782C97.7669 102.027 97.4181 101.362 96.9395 101.298C96.4608 101.233 96.033 101.793 95.9835 102.548Z" fill="#263238"/>
<path d="M88.195 98.8942C88.2875 98.9154 88.3849 98.8992 88.4647 98.8406C89.7122 97.9242 90.9406 98.4353 90.9548 98.4417C91.1369 98.5179 91.3395 98.4332 91.4045 98.2461C91.4687 98.059 91.372 97.8437 91.1885 97.7646C91.1242 97.7378 89.5823 97.0939 88.0348 98.232C87.8808 98.3457 87.8519 98.5737 87.9705 98.7424C88.0277 98.8222 88.1089 98.8744 88.195 98.8942Z" fill="#263238"/>
<path d="M99.4889 99.1677C99.5651 99.1515 99.6329 99.1035 99.6745 99.0265C99.76 98.8684 99.7028 98.6481 99.5468 98.5358C97.9794 97.4041 96.6578 97.9788 96.6013 98.0042C96.4439 98.0748 96.3846 98.2788 96.4693 98.4603C96.5533 98.641 96.7489 98.73 96.9056 98.6601C96.9571 98.6368 97.99 98.2089 99.2361 99.1084C99.3166 99.167 99.4077 99.1853 99.4889 99.1677Z" fill="#263238"/>
<path d="M94.551 101.951C94.551 101.951 95.3848 104.823 96.4834 106.68C96.6754 107.004 96.4855 107.424 96.1198 107.513C95.1773 107.743 94.1536 107.322 94.1536 107.322L94.551 101.951Z" fill="#E57C35"/>
<path d="M89.4524 100.456L91.1786 100.25C91.1786 100.25 90.1167 101.399 89.4524 100.456Z" fill="#263238"/>
<path d="M96.7546 101.295L98.4808 101.089C98.4808 101.089 97.419 102.238 96.7546 101.295Z" fill="#263238"/>
<path d="M93.7842 109.351C93.158 110.014 92.3037 111.364 92.3037 111.364C92.1675 111.309 92.0312 111.253 91.8978 111.191C90.0685 110.394 89.4832 109.419 89.3893 108.581C89.3392 108.122 89.443 107.702 89.5694 107.377C89.712 107 89.8998 106.763 89.8998 106.763C90.6171 107.765 92.2656 108.64 93.165 109.07C93.5392 109.253 93.7842 109.351 93.7842 109.351Z" fill="#263238"/>
<path d="M93.1645 109.069L92.7127 109.652C90.9914 108.897 89.8809 108.134 89.5688 107.376C89.7115 106.999 89.8993 106.763 89.8993 106.763C90.6166 107.765 92.2644 108.639 93.1645 109.069Z" fill="white"/>
<path d="M91.8973 111.191C90.0681 110.394 89.4828 109.42 89.3889 108.582C90.0017 108.878 90.7077 109.302 91.245 109.87C91.6573 110.301 91.8317 110.767 91.8973 111.191Z" fill="#F54948"/>
<path d="M82.4587 100.199C82.4587 100.199 86.7766 95.545 87.0237 91.4643C87.0237 91.4643 102.072 88.5796 100.32 101.444C100.32 101.444 103.875 90.3778 91.7109 88.2026C79.5472 86.0281 76.5658 101.909 81.9419 107.63C81.9652 107.573 79.7872 103.115 82.4587 100.199Z" fill="#263238"/>
<path d="M97.2197 89.9613C98.7828 91.5505 99.7995 93.5965 100.121 95.8027C100.076 97.3941 97.8756 98.482 97.8756 98.482L95.3298 94.9344L95.2415 97.9836C90.9215 97.3828 88.483 95.0092 87.0957 91.6451L89.6366 87.4006C89.6366 87.4006 95.8176 88.6729 97.2197 89.9613Z" fill="#263238"/>
<path d="M101.991 124.235C102.041 124.184 102.242 124.169 102.547 124.235C103.466 124.432 105.337 125.36 106.943 128.241C109.085 132.081 112.923 146.297 113.883 144.789C114.842 143.281 117.24 135.959 117.24 135.959L122.25 135.216C122.25 135.216 122.166 153.048 118.105 156.689C114.045 160.33 110.69 157.791 108.778 156.015C107.088 154.447 99.3639 137.678 99.3533 137.661" fill="#0063CB"/>
<path opacity="0.4" d="M101.991 124.235C102.041 124.184 102.242 124.169 102.547 124.235C103.466 124.432 105.337 125.36 106.943 128.241C109.085 132.081 112.923 146.297 113.883 144.789C114.842 143.281 117.24 135.959 117.24 135.959L122.25 135.216C122.25 135.216 122.166 153.048 118.105 156.689C114.045 160.33 110.826 157.807 108.778 156.015C107.049 154.504 99.3632 137.678 99.3533 137.661" fill="white"/>
<path d="M99.8489 136.156C98.6501 139.753 97.7139 142.862 96.955 145.653C94.9175 152.642 93.6022 159.822 93.031 167.08L64.1959 163.98C63.4376 143.377 64.1959 132.017 64.8235 126.361C65.526 120.339 66.4621 120.133 66.4621 120.133C66.4621 120.133 73.0173 119.627 78.7119 119.786C83.116 120.018 87.4974 120.566 91.8231 121.425C95.9249 122.187 99.9661 123.248 103.913 124.6C103.211 126.473 102.574 128.271 101.984 129.947C101.198 132.176 100.486 134.237 99.8489 136.156Z" fill="#0063CB"/>
<path opacity="0.4" d="M99.8489 136.156C98.6501 139.753 97.7139 142.862 96.955 145.653C94.9175 152.642 93.6022 159.822 93.031 167.08L64.1959 163.98C63.4376 143.377 64.1959 132.017 64.8235 126.361C65.526 120.339 66.4621 120.133 66.4621 120.133C66.4621 120.133 73.0173 119.627 78.7119 119.786C83.116 120.018 87.4974 120.566 91.8231 121.425C95.9249 122.187 99.9661 123.248 103.913 124.6C103.211 126.473 102.574 128.271 101.984 129.947C101.198 132.176 100.486 134.237 99.8489 136.156Z" fill="white"/>
<path opacity="0.2" d="M69.3179 159.884L80.5214 154.087L87.5885 152.817L94.64 155.227L95.7668 150.514L83.8961 147.736L63.8789 155.199L64.5623 159.566L69.3179 159.884Z" fill="black"/>
<path d="M113.297 114.68C112.388 114.96 96.2764 122.898 99.6017 142.238L117.069 141.628C117.069 141.628 115.226 134.914 117.893 130.27C120.559 125.625 128.386 121.152 128.214 121.238C128.041 121.325 113.297 114.68 113.297 114.68Z" fill="#0063CB"/>
<path opacity="0.7" d="M113.297 114.68C112.388 114.96 96.2764 122.898 99.6017 142.238L117.069 141.628C117.069 141.628 115.226 134.914 117.893 130.27C120.559 125.625 128.386 121.152 128.214 121.238C128.041 121.325 113.297 114.68 113.297 114.68Z" fill="white"/>
<path d="M101.964 144.477L97.1737 137.686C97.1737 137.686 84.8745 139.109 84.7121 139.479L80.9519 148.261C80.7874 148.649 80.9696 149.097 81.3579 149.262C81.3727 149.268 81.3882 149.274 81.4031 149.279L97.0466 154.579C97.4194 154.702 97.8253 154.522 97.9835 154.162L101.906 145.346C101.994 145.064 102.013 144.767 101.964 144.477Z" fill="#0063CB"/>
<path opacity="0.1" d="M101.999 144.789C99.6942 145.662 97.1971 145.902 94.7677 145.483C90.7294 144.581 84.7129 139.455 84.7129 139.455C84.8746 139.084 97.1745 137.662 97.1745 137.662L101.965 144.453C101.965 144.453 101.987 144.616 101.999 144.789Z" fill="black"/>
<path opacity="0.1" d="M85.5227 139.687C90.7245 142.213 96.28 143.934 101.999 144.789C101.999 144.789 92.6731 141.689 85.5227 139.687Z" fill="black"/>
<path d="M66.4629 120.133C66.4629 120.133 62.3306 120.695 59.0661 126.443C55.0419 133.528 45.5942 147.741 52.0372 157.09C58.4801 166.439 79.406 151.963 79.406 151.963L77.2089 146.404C77.2089 146.404 61.2604 150.655 61.0966 149.101C60.7414 145.73 65.6354 137.027 65.6354 137.027L66.4629 120.133Z" fill="#0063CB"/>
<path d="M77.9778 146.493C77.9778 146.493 78.4014 144.366 79.9038 143.389C81.4062 142.411 82.3451 141.23 83.5122 140.58C84.6792 139.93 84.0607 141.624 83.5489 142.458C83.0377 143.293 82.4666 144.244 83.1549 144.526C83.844 144.809 90.1923 143.972 91.1024 144.472C92.0131 144.973 91.0282 145.43 91.0282 145.43C91.0282 145.43 92.5758 145.268 92.8066 145.864C92.8667 146.018 92.7551 146.475 92.0618 146.66C90.5016 147.074 87.1819 147.775 87.1819 147.775C87.3719 147.731 91.5309 147.158 92.1649 147.154C92.9937 147.148 93.3877 147.568 93.375 148.048C93.3573 148.732 88.2247 149.618 88.0348 149.807C88.0348 149.807 90.9725 149.198 91.545 149.87C92.1169 150.543 90.289 151.027 88.5954 151.148C87.0429 151.258 84.0268 151.882 82.4383 151.841C80.4806 151.791 79.1773 151.317 78.4607 149.626C77.7441 147.936 77.9778 146.493 77.9778 146.493Z" fill="#FFA666"/>
<path opacity="0.4" d="M66.4629 120.133C66.4629 120.133 62.3306 120.695 59.0661 126.443C55.0419 133.528 45.5942 147.741 52.0372 157.09C58.4801 166.439 79.406 151.963 79.406 151.963L77.2089 146.404C77.2089 146.404 61.2604 150.655 61.0966 149.101C60.7414 145.73 65.6354 137.027 65.6354 137.027L66.4629 120.133Z" fill="white"/>
<g opacity="0.2">
<path d="M113.511 149.101C114.346 150.183 113.571 146.246 113.733 144.889C113.357 144.794 113.082 144.179 112.8 143.609C112.8 143.609 111.511 146.506 113.511 149.101Z" fill="black"/>
</g>
<path opacity="0.2" d="M114.207 126.077C114.116 126.206 111.276 129.944 112.004 131.747C112.732 133.551 116.493 135.286 116.493 135.286L116.959 132.526L114.207 126.077Z" fill="black"/>
<path d="M121.705 135.241L121.125 131.812C121.125 131.812 121.891 129.741 121.518 128.892C120.814 127.205 116.342 125.124 115.669 124.751C114.996 124.378 111.838 129.399 112.253 130.414C112.667 131.428 117.853 133.758 117.853 133.758V135.829L121.705 135.241Z" fill="#FFA666"/>
<path opacity="0.2" d="M63.9671 140.435L64.0483 140.289L66.8314 135.287C66.6796 140.044 65.9941 144.411 63.8782 147.736" fill="black"/>
<path d="M72.2047 305.233C72.1433 305.573 75.2893 315.348 75.2893 315.348H82.5808L81.8219 304.587L72.2047 305.233Z" fill="#FFA666"/>
<path d="M109.53 303.712C109.469 304.053 112.616 313.828 112.616 313.828H119.907L117.317 299.082L109.53 303.712Z" fill="#FFA666"/>
<path d="M70.855 119.842C73.991 124.871 79.2133 128.231 85.0901 129.001C94.8202 130.116 98.2012 122.82 98.2012 122.82C98.2012 122.82 85.0901 118.129 70.855 119.842Z" fill="#FFA666"/>
<path d="M125.736 300.227C125.76 300.274 125.779 300.299 125.792 300.288C125.83 300.253 125.802 300.235 125.736 300.227Z" fill="#263238"/>
<path d="M76.1931 192.276C78.0661 193.974 89.593 273.313 108.278 303.983C108.278 303.983 119.472 301.024 120.637 301.155C119.309 298.554 102.566 218.852 100.037 185.671L76.1931 192.276Z" fill="#263238"/>
<path d="M64.1127 159.279C64.1127 159.279 54.6198 168.421 54.3854 187.036C54.151 205.651 64.0442 294.778 71.8575 306.638C71.8575 306.638 85.4946 306.484 84.2217 306.638C82.9488 306.792 76.2474 229.532 81.4711 200.501L100.038 185.67C99.1155 176.23 97.174 168.223 93.471 162.692L64.1127 159.279Z" fill="#263238"/>
<path opacity="0.2" d="M80.2468 210.505L79.8232 193.059L83.8969 189.331C83.2897 189.635 84.1778 226.538 83.498 226.24L80.2468 210.505Z" fill="black"/>
<path d="M83.5368 312.88L80.9768 312.807C80.3979 312.791 79.8444 313.054 79.4745 313.49C77.8782 315.369 76.8143 314.611 75.3218 312.758C74.308 312.616 73.9634 313.724 73.8611 314.022L71.532 320.601C71.3308 321.15 71.6315 321.738 72.2027 321.913C72.3043 321.944 72.411 321.961 72.5183 321.962C75.6268 322.051 77.0974 322.094 80.9663 322.204L92.7988 322.544C96.0245 322.637 96.8866 319.558 95.5762 319.233C89.6804 317.803 85.5546 316.006 83.8114 314.297C83.4874 313.997 83.8531 313.79 83.5368 312.88Z" fill="#263238"/>
<path d="M88.9736 314.926C89.2546 314.749 89.4339 314.458 89.4579 314.142C89.4911 313.973 89.4205 313.804 89.2758 313.705C88.5076 313.141 85.2177 314.475 84.8477 314.632C84.8068 314.644 84.7736 314.673 84.7567 314.711C84.7256 314.781 84.7595 314.859 84.8315 314.887C85.6067 315.086 86.4045 315.208 87.2114 315.25C87.815 315.323 88.4321 315.209 88.9736 314.926ZM89.0604 313.931C89.1233 313.971 89.1522 314.045 89.1324 314.116C89.1049 314.344 88.9757 314.553 88.7787 314.689C88.0191 315.186 86.2781 314.912 85.3448 314.718C86.7087 314.199 88.6368 313.624 89.0604 313.931Z" fill="#0063CB"/>
<path d="M84.9389 314.922C85.9238 314.567 88.0319 313.12 87.9733 312.32C87.9669 312.152 87.854 311.95 87.4233 311.882C85.6802 311.641 84.7405 314.621 84.732 314.749C84.7116 314.8 84.7243 314.857 84.7652 314.894C84.7977 314.904 84.8323 314.905 84.8655 314.897L84.9389 314.922ZM87.3492 312.127C87.6732 312.168 87.6662 312.28 87.6633 312.32C87.7248 312.808 86.1843 314.017 85.1069 314.513C85.3681 313.818 86.1214 312.084 87.2327 312.116L87.3492 312.127Z" fill="#0063CB"/>
<path d="M85.196 314.814C84.3072 314.904 83.4578 315.382 82.9382 316.086" stroke="#0063CB" stroke-width="0.353" stroke-miterlimit="10" stroke-linecap="round" stroke-linejoin="round"/>
<path d="M86.7151 316.001C85.8262 316.091 84.9769 316.569 84.4573 317.273" stroke="#0063CB" stroke-width="0.353" stroke-miterlimit="10" stroke-linecap="round" stroke-linejoin="round"/>
<path d="M88.6348 317.017C87.7459 317.107 86.8966 317.586 86.3777 318.29" stroke="#0063CB" stroke-width="0.353" stroke-miterlimit="10" stroke-linecap="round" stroke-linejoin="round"/>
<path d="M120.463 308.682L117.99 309.343C117.43 309.493 116.975 309.904 116.744 310.427C115.751 312.684 114.515 312.261 112.556 310.913C111.543 311.066 111.53 312.226 111.517 312.541L111.165 319.511C111.129 320.095 111.585 320.571 112.182 320.576C112.288 320.577 112.395 320.563 112.498 320.533C115.503 319.731 116.924 319.351 120.664 318.352L132.1 315.296C135.218 314.463 135.165 311.266 133.816 311.329C127.757 311.643 123.29 311.1 121.131 309.96C120.735 309.766 121.026 309.463 120.463 308.682Z" fill="#263238"/>
<path d="M126.258 309.09C126.476 308.84 126.565 308.509 126.498 308.2C126.481 308.029 126.365 307.887 126.198 307.834C125.301 307.513 122.529 309.731 122.22 309.987C122.185 310.011 122.161 310.048 122.156 310.089C122.146 310.164 122.2 310.23 122.278 310.236C123.078 310.206 123.878 310.094 124.663 309.904C125.261 309.801 125.82 309.515 126.258 309.09ZM126.057 308.111C126.129 308.132 126.178 308.195 126.179 308.269C126.218 308.495 126.154 308.732 126.003 308.918C125.417 309.611 123.671 309.847 122.721 309.927C123.88 309.04 125.563 307.938 126.057 308.111Z" fill="#0063CB"/>
<path d="M122.39 310.238C123.233 309.617 124.839 307.628 124.555 306.878C124.501 306.719 124.334 306.557 123.902 306.615C122.163 306.881 122.114 310.006 122.142 310.13C122.137 310.185 122.166 310.236 122.215 310.26C122.249 310.26 122.282 310.251 122.312 310.233L122.39 310.238ZM123.901 306.871C124.223 306.818 124.248 306.927 124.257 306.965C124.456 307.416 123.325 309.014 122.434 309.797C122.485 309.057 122.712 307.18 123.787 306.893L123.901 306.871Z" fill="#0063CB"/>
<path d="M122.605 310.061C121.779 310.401 121.102 311.103 120.806 311.925" stroke="#0063CB" stroke-width="0.353" stroke-miterlimit="10" stroke-linecap="round" stroke-linejoin="round"/>
<path d="M124.401 310.765C123.574 311.105 122.897 311.806 122.601 312.629" stroke="#0063CB" stroke-width="0.353" stroke-miterlimit="10" stroke-linecap="round" stroke-linejoin="round"/>
<path d="M126.531 311.191C125.705 311.531 125.028 312.232 124.731 313.055" stroke="#0063CB" stroke-width="0.353" stroke-miterlimit="10" stroke-linecap="round" stroke-linejoin="round"/>
</g>
<defs>
<clipPath id="clip0_2169_47379">
<rect width="353" height="353" fill="white"/>
</clipPath>
<clipPath id="clip1_2169_47379">
<rect width="88.6095" height="36.006" fill="white" transform="translate(157.152 144.933) rotate(6)"/>
</clipPath>
</defs>
</svg>
