<svg width="368" height="258" viewBox="0 0 368 258" fill="none" xmlns="http://www.w3.org/2000/svg">
  <g clip-path="url(#clip0_202_204)">
    <path
      d="M50.4091 255.059C50.5965 257.839 72.5474 255.882 72.7944 254.987C73.0149 254.196 70.4986 253.552 67.8083 252.792C67.4709 252.7 67.1313 252.6 66.7917 252.502C63.7447 251.631 61.0397 249.536 59.1285 246.566C56.866 243.1 54.7997 227.308 54.7997 227.308L46.6404 229.128C46.6404 229.128 51.3839 242.657 51.8712 247.094C52.0917 249.086 50.9053 250.413 50.6274 252.157C50.4472 253.108 50.3737 254.084 50.4091 255.059Z"
      fill="#B77446" />
    <path
      d="M50.409 255.058C50.4862 256.196 51.0707 256.866 52.0057 257.227H58.0656C58.8144 257.11 59.5728 257.11 60.3216 257.227H70.1216C71.9056 256.549 72.651 255.541 72.8032 254.987C73.0237 254.196 70.5074 253.552 67.8171 252.792L67.7863 252.853C65.4147 254.237 62.7742 254.826 60.1451 254.56C56.6454 254.169 53.0641 252.449 50.6472 252.164C50.4609 253.112 50.3808 254.085 50.409 255.058Z"
      fill="#365DA4" />
    <path
      d="M57.6952 238.684C57.6952 238.684 55.5606 240.372 53.5538 240.81C50.5437 241.464 49.1434 240.736 49.1434 240.736C49.1434 240.736 34.6683 197.257 35.4931 182.566C35.5129 182.212 35.5239 181.838 35.5283 181.439C35.5525 178.891 35.2461 175.493 34.7168 171.583C34.5206 170.151 34.2978 168.65 34.0553 167.098C33.4753 163.476 32.7563 159.567 31.9669 155.583C31.6206 153.829 31.259 152.058 30.8907 150.291C27.2499 132.908 22.8042 115.776 22.8042 115.776C22.8042 115.776 48.9251 105.57 50.4026 115.109C50.9693 118.771 52.8569 133.42 52.0079 155.82C51.3221 173.855 51.7653 187.918 53.0686 204.243C53.9806 215.832 55.5261 227.337 57.6952 238.684Z"
      fill="#365DA4" />
    <path
      d="M35.5327 181.439C35.557 178.891 35.2505 175.493 34.7212 171.583C34.525 170.151 34.3022 168.65 34.0597 167.098C33.4797 163.476 32.7607 159.567 31.9713 155.583C31.6251 153.829 31.2634 152.059 30.8952 150.291C31.4112 144.988 31.8257 141.348 31.8257 141.348C31.8257 141.348 42.6622 158.968 35.5327 181.439Z"
      fill="#285493" />
    <path
      d="M17.4564 255.058C17.6439 257.839 39.5946 255.882 39.8416 254.987C40.0621 254.196 37.546 253.552 34.8556 252.792C34.516 252.7 34.1764 252.6 33.8368 252.502C30.8024 251.608 28.7802 248.912 26.1736 246.566C23.706 244.345 25.4327 233.571 25.4327 233.571L17.7717 230.3C17.7717 230.3 18.9273 241.137 18.9273 247.102C18.9273 249.11 17.9636 250.421 17.6858 252.164C17.5013 253.112 17.4242 254.086 17.4564 255.058Z"
      fill="#B77446" />
    <path
      d="M17.4564 255.058C17.5336 256.196 18.1179 256.866 19.053 257.227H25.1129C25.8617 257.11 26.62 257.11 27.3688 257.227H37.1579C38.9441 256.549 39.6894 255.541 39.8416 254.987C40.0621 254.196 37.546 253.552 34.8556 252.792L34.8226 252.853C32.4517 254.236 29.812 254.826 27.1836 254.56C23.6817 254.169 20.1005 252.449 17.6858 252.164C17.5013 253.113 17.4242 254.086 17.4564 255.058Z"
      fill="#365DA4" />
    <path
      d="M38.5339 112.371C38.5339 112.371 30.035 163.041 28.5994 190.617C27.1638 218.194 25.3732 241.026 25.3732 241.026C24.0896 241.53 22.7404 241.753 21.3906 241.683C20.0157 241.583 18.6594 241.252 17.3616 240.699C17.3616 240.699 8.93988 199.21 11.7295 182.6C14.5191 165.99 12.1948 150.679 10.8474 136.897C8.92665 117.143 16.3142 107.962 21.4722 101.705C26.703 95.368 38.5339 112.371 38.5339 112.371Z"
      fill="#365DA4" />
    <path
      d="M44.5588 19.5642C45.4012 11.3149 43.2488 -1.88365 29.486 0.224207C15.7232 2.33206 11.3834 18.5143 14.1597 25.7111C16.9361 32.9079 10.1639 34.6411 8.03809 42.3761C6.21216 49.0241 5.57478 57.2762 2.61978 60.9801C-6.90679 72.9202 11.7671 91.2841 23.0269 87.4114C43.5355 80.3597 46.1818 79.3071 45.4453 60.0303C45.0726 50.1559 38.6509 46.328 42.7284 43.4709C52.5791 36.5696 42.6468 38.2316 44.5588 19.5642Z"
      fill="#163560" />
    <path
      d="M36.2868 30.0217C36.2868 30.0217 34.7211 40.9145 40.3885 46.0536L36.3111 53.3559L28.1187 52.8757L24.3323 41.1572C24.3323 41.1572 25.4945 40.8934 26.048 26.2809L36.2868 30.0217Z"
      fill="#A86337" />
    <path
      d="M38.9619 30.8528C38.9619 30.8528 26.7031 33.797 25.2895 24.6374C23.876 15.4779 21.3377 9.68456 29.1045 7.41841C36.8713 5.15227 38.9375 8.30746 40.0313 11.2279C41.1251 14.1483 42.1154 29.8503 38.9619 30.8528Z"
      fill="#B77446" />
    <path
      d="M41.533 40.904C41.006 40.904 31.3604 37.0418 17.591 43.7532C17.591 43.7532 24.1273 88.4983 21.32 97.0432C19.6119 102.26 18.314 107.657 17.4432 113.162L47.9084 113.616C47.9084 113.616 47.4828 84.3037 48.8875 73.928C50.2922 63.5523 41.533 40.904 41.533 40.904Z"
      fill="#A86337" />
    <path
      d="M17.6108 93.5476C17.7748 92.8047 17.8921 92.0481 17.9615 91.2841C18.3628 85.8839 17.6792 81.4809 16.5479 77.1597C16.5479 77.1597 16.5479 77.1597 16.5479 77.1465C16.5303 77.0779 16.5104 77.0093 16.4928 76.9407C16.4619 76.8273 16.4244 76.6531 16.3781 76.4289C16.3778 76.4228 16.3778 76.4166 16.3781 76.4104C16.334 76.2073 16.2876 75.9593 16.2325 75.6797C16.2171 75.5873 16.1973 75.4897 16.1796 75.3816C15.3946 71.1817 13.6767 60.6292 13.2224 59.1914C13.0126 58.44 12.8561 57.6687 12.7549 56.8857C12.294 53.72 12.0933 48.6548 13.6369 46.5443C15.7937 43.6054 23.4106 41.4237 23.4106 41.4237C24.9167 44.2465 29.7925 51.2164 36.1876 49.9554C39.8858 49.2246 40.4569 40.6165 40.4569 40.6165C44.4263 41.2707 45.4451 41.9935 45.4451 41.9935C45.4451 41.9935 54.9672 49.1165 68.4235 71.7383C68.8513 72.4585 69.8657 72.3741 72.351 71.799C75.5133 71.0603 81.9703 71.1579 91.7085 69.4458C91.7085 69.4458 92.0437 69.736 92.1363 71.0102C92.337 73.8224 92.5774 74.6561 92.5774 74.6561C88.2719 77.0298 83.8539 79.0999 79.3461 80.8557C76.9203 81.7737 74.4085 82.6285 72.0026 83.2722C69.9506 83.8534 67.8616 84.2284 65.7574 84.3934C65.7574 84.3934 57.984 80.8214 50.4509 70.8915C50.0099 79.2253 49.0396 89.9888 49.6372 97.8504C49.9768 102.335 52.5372 117.372 51.8954 119.889C50.5547 125.107 40.2782 125.379 31.1001 124.833C30.8994 124.833 30.701 124.809 30.5003 124.794C29.078 124.696 27.682 124.548 26.3765 124.374C24.3689 124.122 22.3739 123.742 20.4004 123.234C18.6075 122.744 16.3605 122.039 14.5301 120.981C13.1276 120.172 11.9742 119.159 11.4648 117.874C12.3447 112.186 16.5875 99.8237 17.6108 93.5476Z"
      fill="#80BDCC" />
    <path
      d="M32.9701 5.13109C32.9701 5.13109 33.1908 8.2388 29.153 13.5098C25.1152 18.7807 26.0832 28.183 26.0832 28.183C26.0832 28.183 19.289 12.903 22.9122 8.0251C26.5353 3.14722 32.9701 5.13109 32.9701 5.13109Z"
      fill="#163560" />
    <path
      d="M28.0415 1.08684C28.0415 1.08684 34.1367 -1.35341 40.1835 5.77743C42.7878 8.8482 42.3886 14.8868 40.9993 18.3903C40.9993 18.3903 38.8558 10.8822 34.9548 9.2439C31.0537 7.60563 28.0415 1.08684 28.0415 1.08684Z"
      fill="#163560" />
    <path
      d="M35.1423 26.3443C35.1423 26.3443 35.4709 27.4312 37.7776 26.9379C37.7776 26.9379 39.716 26.5237 39.5418 25.3049C39.5374 25.3049 37.5614 24.6928 35.1423 26.3443Z"
      fill="white" />
    <path
      d="M37.6034 108.007C35.8657 115.062 34.8535 120.868 30.4871 124.794C29.0647 124.696 27.6666 124.548 26.3633 124.374C24.3557 124.122 22.3608 123.742 20.3872 123.234C18.5944 122.744 16.3472 122.037 14.5169 120.981C13.1144 120.172 11.9611 119.159 11.4517 117.874C12.3337 112.194 16.5876 99.8238 17.6108 93.5477C17.703 93.0037 17.7707 92.4542 17.8136 91.9015C18.1929 86.2797 17.5822 81.663 16.5479 77.1597C16.5479 77.1597 16.5479 77.1597 16.5479 77.1465L16.3781 76.429C16.3778 76.4228 16.3778 76.4166 16.3781 76.4105C16.3428 76.2575 16.2921 76.0068 16.2325 75.6797C16.2171 75.5874 16.1973 75.4898 16.1796 75.3816C15.4806 71.4007 13.6458 58.9118 13.1805 57.2815C13.0328 56.7539 13.379 54.4534 13.2357 53.3665L16.3891 50.5728C16.3891 50.5728 37.4357 61.3231 42.0711 76.1625C46.7065 91.0019 40.0997 97.8874 37.6034 108.007Z"
      fill="#5F9AA8" />
    <path
      d="M79.3328 80.8556C74.6731 82.6232 69.6055 84.1717 65.7441 84.3933C65.7441 84.3933 57.8649 80.7765 50.2878 70.6936C49.968 68.9814 49.6593 66.1085 51.3904 66.9369C53.8161 68.1003 62.82 81.9214 66.2271 82.2116C68.6683 82.42 75.5949 81.4334 79.3328 80.8556Z"
      fill="#5F9AA8" />
    <path
      d="M62.7121 76.9197C62.7121 76.9197 52.3475 83.1535 43.3436 85.7336C40.7546 86.4749 38.2716 86.9999 36.1347 87.1213C36.1347 87.1213 26.0017 83.937 19.0795 71.1923C6.67734 48.3515 15.829 44.7214 15.829 44.7214C15.829 44.7214 25.3556 51.8312 38.8074 74.4609C39.2772 75.2524 40.4592 75.073 43.52 74.3343C46.7882 73.5429 53.2935 73.6378 62.2754 72.0602C62.2754 72.0602 62.4276 72.4586 62.518 73.7328C62.7231 76.5503 62.7121 76.9197 62.7121 76.9197Z"
      fill="#80BDCC" />
    <path
      d="M72.3467 71.799C75.4781 71.0682 82.1335 71.0076 91.7152 69.3508C92.5312 69.0483 93.3266 68.6718 94.0946 68.2244C96.1477 66.9976 101.621 66.1772 102.785 67.4883C103.95 68.7995 101.553 74.1179 96.5579 74.2815C95.2084 74.312 93.8621 74.4451 92.5268 74.6798C88.2331 77.0442 83.8277 79.1063 79.3329 80.8557C76.9071 81.7737 74.3954 82.6285 71.9895 83.2722C71.0214 78.1279 71.6895 74.1205 72.3467 71.799Z"
      fill="#A86337" />
    <path
      d="M43.3435 85.7335C44.1155 83.9831 44.5338 82.0406 44.5648 80.0619C44.5958 78.0832 44.2387 76.1233 43.5221 74.3395C46.7903 73.548 53.3421 73.2051 62.3239 71.6275V71.646C63.5907 71.2579 64.8226 70.7225 66.0022 70.0473C68.1942 68.7282 74.0402 67.8629 75.2818 69.2558C76.5233 70.6488 73.9587 76.3339 68.6331 76.5107C65.6803 76.6056 63.8919 76.9723 62.8841 77.2783C61.9998 77.7717 51.9329 83.2695 43.3435 85.7335Z"
      fill="#B77446" />
    <path
      d="M119.148 78.8508C123.458 81.1954 127.876 83.2467 132.379 84.995C134.805 85.8972 137.297 86.7414 139.732 87.4036C141.961 88.0077 144.091 88.4298 145.966 88.4878C146.123 88.4199 146.275 88.3388 146.422 88.2451C148.147 87.3429 154.89 83.5493 161.429 74.9358C161.936 74.2129 162.494 73.4901 163.001 72.7066C163.407 72.1631 163.813 66.8025 164.117 61.2018L164.168 61.1411C164.523 54.5748 164.776 47.5864 164.776 47.5864C164.776 47.5864 155.955 50.4198 143.28 75.9594C142.925 76.6822 141.86 76.5609 139.377 76.0201C136.181 75.2972 129.742 75.3579 120.008 73.6695C120.008 73.6695 119.653 73.9702 119.552 75.2365C119.399 78.0066 119.148 78.8508 119.148 78.8508Z"
      fill="#F4BE61" />
    <path
      d="M146.422 88.245C148.147 87.3428 154.89 83.5492 161.429 74.9357C161.936 74.2129 162.494 73.49 163.001 72.7065C163.407 72.163 163.813 66.8024 164.117 61.2017C162.9 62.6473 148.705 79.0327 146.422 88.245Z"
      fill="#F2A83D" />
    <path
      d="M178.303 3.0602C178.303 3.0602 179.11 1.09481 183.155 1.63299C187.199 2.17116 194.181 3.06021 194.232 29.3517C194.232 32.2299 208.753 58.4871 192.381 83.2089L180.694 47.8581L178.303 3.0602Z"
      fill="#163560" />
    <path
      d="M177.137 3.40318C177.137 3.40318 181.443 1.67785 183.708 4.23682C185.973 6.79579 184.69 10.1779 184.69 10.1779L177.137 3.40318Z"
      fill="#C65447" />
    <path
      d="M163.541 13.4782C163.541 13.4782 163.623 2.20288 178.899 3.49556C180.176 3.59197 181.411 4.07929 182.486 4.91079C183.56 5.7423 184.439 6.8901 185.036 8.24417C186.754 12.2356 187.503 19.2583 181.949 30.5204L163.541 13.4782Z"
      fill="#163560" />
    <path
      d="M182.881 46.5918L179.439 62.5788L169.493 63.1539L164.545 54.34C169.176 50.1744 169.837 42.8668 169.76 38.5324C169.76 38.4902 169.76 38.448 169.76 38.4058C169.744 37.2699 169.665 36.1366 169.524 35.0131L176.581 32.4594L181.955 30.5151C181.461 35.3877 181.494 38.9017 181.717 41.3815C182.065 45.2543 182.881 46.5918 182.881 46.5918Z"
      fill="#E49963" />
    <path
      d="M192.922 129.268L156.833 129.21C156.833 129.21 161.323 100.454 158.831 91.0414C156.339 81.6286 158.952 67.8523 158.952 67.8523C162.578 57.6217 163.502 48.0454 165.114 47.5388C165.996 47.2618 166.715 46.6946 167.584 46.4836C181.759 43.1173 193.283 49.2457 193.283 49.2457C196.465 58.7429 189.651 65.8658 189.314 87.3111C188.996 108.395 192.922 129.268 192.922 129.268Z"
      fill="#E49963" />
    <path
      d="M154.687 131.257C154.687 131.257 182.165 138.003 197.881 131.014C198.743 130.595 195.455 116.505 193.166 106.86C192.051 102.111 191.182 98.4176 191.239 97.9454C191.797 84.8129 193.978 73.6088 194.988 64.9373C195.283 62.8648 195.47 60.7722 195.546 58.6717V57.7088C195.597 54.5747 195.242 52.0474 194.329 49.9369C192.604 46.1433 183.327 46.0826 183.327 46.0826C182.414 47.3463 177.395 51.504 171.419 51.4433C165.387 51.3826 168.369 46.3174 168.369 46.3174C168.115 46.3755 167.707 46.4441 167.515 46.5048C165.734 46.966 164.034 47.8011 162.496 48.9714C157.68 55.2369 156.101 86.4327 156.209 87.4642C156.41 91.2578 154.687 131.257 154.687 131.257Z"
      fill="#F4BE61" />
    <path
      d="M181.706 41.3815C177.434 38.6643 170.819 38.535 169.751 38.5324H169.604L169.749 38.4058C170.455 37.7858 173.628 35.0105 176.57 32.4594L181.944 30.5151C181.459 35.3877 181.485 38.9017 181.706 41.3815Z"
      fill="#D68D5D" />
    <path
      d="M167.103 38.7671C167.103 38.7671 182.266 39.5902 182.553 28.365C182.839 17.1398 184.978 9.68448 175.32 8.68463C165.661 7.68478 163.661 11.9005 162.798 15.6203C161.936 19.34 163.167 38.2632 167.103 38.7671Z"
      fill="#E49963" />
    <path
      d="M168.638 13.1167C168.638 13.1167 162.146 18.422 163.186 24.5767C163.186 24.5767 159.969 22.5664 160.271 16.6993C160.573 10.8321 165.286 6.80105 169.432 6.49503C171.856 6.30605 174.289 6.33691 176.709 6.58736L168.638 13.1167Z"
      fill="#163560" />
    <path
      d="M167.5 11.1672C164.807 12.8609 175.928 14.2855 176.61 19.6699C177.291 25.0543 182.588 27.1146 182.588 27.1146C182.588 27.1146 189.316 -2.5721 167.5 11.1672Z"
      fill="#163560" />
    <path
      d="M158.692 84.8129C158.692 84.8129 170.808 104.15 193.166 106.86C192.051 102.111 191.182 98.4177 191.239 97.9454C191.797 84.8129 193.978 73.6088 194.988 64.9373C195.283 62.8648 195.47 60.7722 195.546 58.6718V57.7089C192.959 58.3104 188.954 61.5025 187.23 61.9853C173.902 65.7208 158.692 84.8129 158.692 84.8129Z"
      fill="#F2A83D" />
    <path
      d="M165.286 32.6573C165.286 32.6573 165.396 33.7996 167.738 33.9553C167.738 33.9553 169.703 34.0845 169.765 32.8551C169.765 32.8551 167.959 31.7234 165.286 32.6573Z"
      fill="white" />
    <path
      d="M145.168 80.278C145.168 80.278 155.532 86.4696 164.534 89.0312C167.123 89.7673 169.606 90.2896 171.743 90.4083C171.743 90.4083 181.415 86.8733 188.798 74.5796C203.055 50.8366 192.048 48.2908 192.048 48.2908C192.048 48.2908 182.522 55.353 169.07 77.8377C168.598 78.6291 167.416 78.4445 164.355 77.7111C161.087 76.9196 154.582 77.0199 145.6 75.4528C145.6 75.4528 145.448 75.8486 145.357 77.1149C145.154 79.9113 145.168 80.278 145.168 80.278Z"
      fill="#F4BE61" />
    <path
      d="M119.142 78.8427C123.448 81.2004 127.866 83.2563 132.373 85.0001C134.788 85.9102 137.31 86.7597 139.716 87.3982C140.684 82.2908 140.016 78.3098 139.359 76.0041C136.197 75.2707 129.436 75.2127 119.697 73.5243L119.142 78.8427Z"
      fill="#A86337" />
    <path
      d="M122.132 74.2419C120.573 73.8587 119.057 73.2584 117.616 72.4533C115.562 71.2345 110.087 70.4219 108.923 71.7225C107.758 73.0231 110.155 78.3178 115.15 78.4708C120.145 78.6238 121.583 79.6078 121.583 79.6078L122.132 74.2419Z"
      fill="#A86337" />
    <path
      d="M144.927 80.6024C144.927 80.6024 155.541 86.4696 164.534 89.0444C162.549 84.404 163.332 80.3386 164.355 77.7269C161.087 76.9355 154.535 76.6031 145.553 75.036C145.553 75.036 145.448 75.8644 145.357 77.1307C145.154 79.9113 144.927 80.6024 144.927 80.6024Z"
      fill="#B77446" />
    <path
      d="M256.242 129.687V129.268H293.919C298.583 129.268 302.336 133.666 302.336 139.029C302.336 143.912 299.291 147.911 295.279 148.661V258.003H153.633V129.687H256.242Z"
      fill="#5F9AA8" />
    <path d="M118.93 62.2833H141.558V89.1684H118.93V62.2833Z" fill="#D86713" />
    <path d="M111.953 62.2833H134.58V89.1684H111.953V62.2833Z" fill="#F1A34F" />
    <path d="M134.58 62.2833L141.558 67.3089V62.2833H134.58Z" fill="#C95C12" />
    <path
      d="M146.694 75.3605C145.03 74.9505 143.412 74.3095 141.873 73.4505C139.681 72.1499 133.835 71.2819 132.593 72.659C131.352 74.0361 133.917 79.6896 139.242 79.8637C144.568 80.0379 146.109 81.0799 146.109 81.0799L146.694 75.3605Z"
      fill="#B77446" />
    <path d="M114.343 129.687H255.989V258H114.343V129.687Z" fill="#80BDCC" />
    <path
      d="M93.4573 129.268H293.912C298.576 129.268 302.329 133.666 302.329 139.029C302.329 144.45 298.581 148.79 293.912 148.79H93.4573C88.286 148.79 84.0785 144.392 84.0785 139.029C84.0785 133.666 88.286 129.268 93.4573 129.268Z"
      fill="#163560" />
    <path
      d="M269.048 183.943C269.048 183.943 279.594 193.327 281.651 192.757C283.709 192.187 273.944 182.629 273.944 182.629C277.618 180.518 289.039 181.838 289.039 181.838C289.039 181.838 292.843 196.513 294.719 195.358C296.596 194.202 290.796 182.568 290.796 182.568C294.889 182.273 299.908 185.908 299.908 185.908C306.78 192.398 299.456 202.618 299.456 202.618C299.456 202.618 300.867 207.673 305.205 212.271C305.205 212.271 311.404 217.756 311.834 227.551L310.709 227.672C310.709 227.672 308.905 218.457 305.637 214.168L305.152 213.579C304.627 212.996 304.27 212.561 304.012 212.237C302.398 210.39 300.166 208.016 299.09 207.783C299.13 207.572 299.145 207.356 299.136 207.14C299.123 207.346 299.108 207.559 299.09 207.783C298.724 212.951 290.346 217.46 285.197 218.389C280.048 219.317 281.638 216.782 283.413 213.025C285.188 209.269 290.807 207.586 292.091 205.855C293.374 204.124 290.721 204.122 287.616 205.818C284.511 207.514 284.088 212.039 279.106 214.891C274.125 217.742 266.629 207.857 266.629 207.857C270.599 207.617 276.268 202.46 276.063 200.882C275.858 199.305 266.442 203.605 264.832 203.81C263.222 204.016 259.559 201.621 258.992 193.862C258.426 186.103 269.048 183.943 269.048 183.943Z"
      fill="#82B378" />
    <path
      d="M325.059 189.776C325.059 189.776 313.411 181.972 318.847 171.383C318.847 171.383 323.195 164.88 327.855 163.204C327.855 163.204 325.37 178.996 327.855 179.368C330.34 179.74 329.564 161.532 329.564 161.532C329.564 161.532 341.834 154.472 346.648 155.029C346.648 155.029 339.038 170.451 341.523 170.066C344.008 169.681 352.549 154.087 352.549 154.087C352.549 154.087 365.119 151.299 367.148 160.218C369.176 169.138 365.906 173.596 364.041 174.153C362.175 174.709 350.218 174.525 350.529 176.382C350.84 178.239 358.909 181.215 363.421 179.548C363.421 179.548 358.45 194.226 351.927 193.482C345.404 192.738 343.384 187.908 339.357 187.536C335.331 187.164 332.369 188.464 334.387 189.765C336.405 191.066 343.241 190.192 346.502 193.509C349.764 196.825 352.404 198.869 346.346 200.368C340.288 201.866 329.416 200.924 327.242 195.355L325.059 189.776Z"
      fill="#A8D29F" />
    <path
      d="M321.958 203.341C325.22 196.094 325.063 189.776 325.063 189.776C328.792 175.656 361.407 163.02 361.407 163.02C319.949 183.088 327.237 195.35 327.237 195.35C326.122 196.141 324.446 199.851 323.281 202.705C323.116 203.19 322.853 203.86 322.465 204.768C322.307 205.182 322.181 205.522 322.093 205.757C319.958 212.149 321.089 223.185 321.089 223.185L319.795 223.602C316.924 212.479 321.958 203.341 321.958 203.341Z"
      fill="#82B378" />
    <path
      d="M306.522 179.015C306.522 179.015 321.877 168.726 314.71 154.768C314.71 154.768 308.976 146.194 302.837 143.991C302.837 143.991 306.111 164.809 302.837 165.299C299.562 165.79 300.583 141.786 300.583 141.786C300.583 141.786 284.41 132.478 278.063 133.214C278.063 133.214 288.095 153.528 284.82 153.053C281.545 152.578 270.283 131.988 270.283 131.988C270.283 131.988 253.7 128.315 251.038 140.071C248.376 151.826 252.677 157.707 255.133 158.44C257.59 159.173 273.353 158.931 272.945 161.379C272.537 163.827 261.888 167.747 255.951 165.545C255.951 165.545 262.503 184.893 271.101 183.914C279.699 182.935 282.361 176.564 287.685 176.076C293.008 175.588 296.898 177.3 294.236 179.015C291.575 180.73 282.566 179.577 278.268 183.948C273.97 188.319 270.488 191.016 278.471 192.976C286.454 194.936 300.788 193.704 303.655 186.362L306.522 179.015Z"
      fill="#A8D29F" />
    <path
      d="M258.62 143.746C258.62 143.746 301.622 160.4 306.528 179.015C306.528 179.015 306.323 187.341 310.621 196.893C310.621 196.893 317.252 208.939 313.472 223.602L311.768 223.053C311.768 223.053 313.259 208.506 310.445 200.08C310.33 199.769 310.165 199.326 309.955 198.782C309.441 197.579 309.097 196.693 308.879 196.052C307.346 192.292 305.13 187.391 303.664 186.362C303.655 186.362 313.283 170.198 258.62 143.746Z"
      fill="#82B378" />
    <path
      d="M337.124 219.415C337.056 228.905 333.857 237.978 328.223 244.66C322.59 251.342 314.978 255.091 307.045 255.091C299.112 255.091 291.501 251.342 285.867 244.66C280.234 237.978 277.035 228.905 276.967 219.415H337.124Z"
      fill="#F1A34F" />
    <path
      d="M299.644 255.122C303.875 255.75 308.17 255.296 312.244 253.79C316.318 252.283 320.078 249.758 323.275 246.382C326.472 243.006 329.032 238.856 330.788 234.207C332.543 229.558 333.452 224.516 333.456 219.415H325.985C325.984 228.184 323.307 236.651 318.457 243.226C313.607 249.801 306.917 254.031 299.644 255.122Z"
      fill="#FFB973" />
    <path
      d="M280.262 252.798H333.827C334.314 252.797 334.797 252.912 335.247 253.135C335.697 253.357 336.106 253.684 336.451 254.096C336.796 254.508 337.069 254.998 337.256 255.536C337.442 256.075 337.538 256.652 337.538 257.235H276.55C276.551 256.058 276.942 254.929 277.638 254.097C278.334 253.265 279.278 252.798 280.262 252.798Z"
      fill="#F1A34F" />
    <path d="M276.281 219.415H338.111V220.518H276.281V219.415Z" fill="#D86713" />
  </g>
  <defs>
    <clipPath id="clip0_202_204">
      <rect width="367.787" height="258" fill="white" transform="matrix(-1 0 0 1 367.787 0)" />
    </clipPath>
  </defs>
</svg>
