<svg width="262" height="262" viewBox="0 0 262 262" fill="none" xmlns="http://www.w3.org/2000/svg">
<path d="M120.793 50.3217V84.8736H105.614C104.268 84.8736 103.175 83.78 103.175 82.4312V52.7603C103.175 51.4116 104.268 50.3217 105.614 50.3217H120.793Z" fill="#1D253D"/>
<path d="M179.885 66.6809C178.324 81.3718 169.981 84.8736 169.981 84.8736H120.793V50.3217C134.595 47.6676 141.168 30.6691 139.746 22.1447C139.998 20.2274 140.001 18.4474 139.756 16.9341C140.731 14.0175 143.608 14.6028 143.608 14.6028C153.098 16.0899 153.639 35.7792 153.565 42.1982C153.551 43.3117 154.406 44.2433 155.52 44.3209C159.146 44.5666 167.055 45.2829 173.985 47.0965C178.533 48.2875 180.42 49.4781 180.979 52.0818C181.571 54.826 180.686 59.1422 179.885 66.6809Z" fill="#FEA30A"/>
<path d="M120.793 50.3217V79.6121H105.614C104.268 79.6121 103.175 78.5191 103.175 77.1734V52.7609C103.175 51.4121 104.268 50.3222 105.614 50.3222H120.793V50.3217Z" fill="#0063CB"/>
<path d="M180.979 52.0812C180.736 54.4833 180.299 57.5209 179.885 61.4199C178.324 76.1108 169.981 79.6127 169.981 79.6127H120.793V50.3222C127.673 48.9991 133.028 43.9116 136.274 37.9003C138.615 33.5642 139.347 28.6721 139.658 23.8152C139.839 20.9772 138.733 13.6109 143.608 14.6028C153.098 16.0899 153.639 35.7791 153.565 42.1981C153.551 43.3116 154.406 44.2433 155.52 44.3208C159.146 44.5666 167.055 45.2829 173.985 47.0965C178.533 48.2865 180.42 49.4775 180.979 52.0812Z" fill="#FCC63A"/>
<path d="M161.319 84.8726H168.722L165.145 88.7795V93.0129H159.884V89.3554C159.884 88.5175 160.06 87.6885 160.402 86.9235L161.319 84.8726Z" fill="#BF6D3E"/>
<path d="M161.108 88.255C161.916 87.8615 162.453 86.9681 162.422 86.0694C162.391 85.1707 161.793 84.3172 160.959 83.9802C160.815 82.5329 159.505 81.3995 158.073 81.1454C159.098 83.5123 159.763 86.0353 160.036 88.6003L161.108 88.255Z" fill="#BF6D3E"/>
<path d="M159.948 81.8476C160.471 82.0436 160.649 82.6152 160.763 83.1099C160.828 83.3944 160.889 83.7073 161.077 83.9415C161.27 84.1825 161.585 84.2915 161.833 84.4634C162.335 84.8108 162.68 85.3196 162.746 85.9332C162.817 86.6039 162.574 87.2663 162.343 87.883C162.268 88.0853 161.971 87.927 162.045 87.7263C162.262 87.1463 162.496 86.5065 162.401 85.8771C162.306 85.2572 161.863 84.8543 161.344 84.5598C161.119 84.4319 160.907 84.2915 160.758 84.0741C160.62 83.8734 160.545 83.6339 160.487 83.4002C160.372 82.9412 160.299 82.336 159.792 82.1457C159.589 82.0698 159.748 81.7727 159.948 81.8476Z" fill="#80410E"/>
<path d="M113.35 84.8726H105.947L109.524 88.7795V93.0129H114.786V89.3554C114.786 88.5175 114.609 87.6885 114.267 86.9235L113.35 84.8726Z" fill="#BF6D3E"/>
<path d="M144.839 123.321C149.255 120.448 153.28 116.976 156.77 113.031C158.001 106.078 158.715 98.6244 159.225 91.5819C161.383 91.3644 163.806 91.2512 165.966 91.4509C167.588 100.92 168.223 110.417 167.577 120.002C161.633 125.878 155.289 132.438 149.344 138.314L144.839 123.321Z" fill="#0063CB"/>
<path d="M166.923 115.688C167.279 115.191 167.571 114.678 167.812 114.154C167.784 116.1 167.708 118.049 167.577 120.001C161.633 125.878 155.289 132.437 149.344 138.313L148.297 134.829C154.877 128.906 161.377 122.853 166.923 115.688Z" fill="#1D253D"/>
<path d="M159.768 94.9197C161.267 94.9554 162.766 94.991 164.265 95.0266C164.481 95.0319 164.497 95.3678 164.28 95.3625C162.781 95.3269 161.282 95.2912 159.783 95.2556C159.568 95.2509 159.551 94.9145 159.768 94.9197Z" fill="#1D253D"/>
<path d="M129.767 123.321C125.352 120.448 121.327 116.976 117.836 113.031C116.606 106.078 115.892 98.6244 115.381 91.5819C113.224 91.3644 110.801 91.2512 108.641 91.4509C107.018 100.92 106.383 110.417 107.03 120.002C112.974 125.878 119.318 132.438 125.262 138.314L129.767 123.321Z" fill="#0063CB"/>
<path d="M125.546 133.181C125.646 134.306 125.725 135.433 125.788 136.561L125.262 138.313C119.318 132.437 112.974 125.878 107.029 120.001C106.858 117.459 106.779 114.924 106.782 112.393C110.045 121.104 117.433 127.773 125.546 133.181Z" fill="#1D253D"/>
<path d="M109.005 95.176C110.99 95.0753 112.975 94.9747 114.96 94.8747C115.176 94.8637 115.191 95.1995 114.975 95.2105C112.99 95.3111 111.005 95.4117 109.02 95.5118C108.804 95.5228 108.789 95.187 109.005 95.176Z" fill="#1D253D"/>
<path d="M122.672 228.123C122.674 228.946 122.68 229.747 122.69 230.515H127.466L127.732 228.123H122.672Z" fill="#001E4A"/>
<path d="M146.317 228.123C146.319 228.946 146.324 229.747 146.334 230.515H151.11L151.377 228.123H146.317Z" fill="#001E4A"/>
<path d="M151.543 163.027C138.891 164.419 137.059 171.658 137.059 171.658L142.168 201.832L144.85 229.468H153.363C155.934 194.911 151.543 163.027 151.543 163.027Z" fill="#1D253D"/>
<path d="M140.458 171.243C140.458 171.243 146.086 167.637 146.746 164.482L123.937 165.233C123.937 165.233 120.761 205.981 120.851 228.123H129.554L140.458 171.243Z" fill="#465A94"/>
<path d="M139.818 174.584L129.553 229.468H120.851C120.784 212.993 122.525 184.874 123.42 172.248C128.724 173.956 134.265 174.817 139.818 174.584Z" fill="#0063CB"/>
<path d="M123.42 172.248C123.729 167.906 123.937 165.233 123.937 165.233L146.745 164.482C146.086 167.637 140.458 171.243 140.458 171.243L139.817 174.583C134.265 174.817 128.724 173.955 123.42 172.248Z" fill="#1D253D"/>
<path d="M144.81 167.652C145.927 166.53 146.905 165.251 147.159 164.036L125.808 163.026C125.808 163.026 125.635 165.322 125.553 166.275C131.919 167.757 138.43 168.31 144.81 167.652Z" fill="#1D253D"/>
<path d="M127.736 230.157L122.146 230.003C120.589 231.624 119.478 233.664 118.935 235.844H129.027C128.823 233.904 128.407 231.994 127.736 230.157Z" fill="#001E4A"/>
<path d="M118.935 235.844C118.883 236.053 118.83 236.261 118.788 236.472C118.723 236.803 118.971 237.114 119.309 237.114H128.561C128.869 237.114 129.117 236.852 129.093 236.545C129.074 236.311 129.051 236.077 129.027 235.844H118.935Z" fill="#A86114"/>
<path d="M146.015 230.157L151.604 230.003C153.162 231.624 162.541 233.664 163.085 235.844H144.724C144.927 233.904 145.344 231.994 146.015 230.157Z" fill="#001E4A"/>
<path d="M163.085 235.844C163.136 236.053 163.19 236.261 163.232 236.472C163.297 236.803 163.049 237.114 162.711 237.114H145.189C144.881 237.114 144.634 236.852 144.658 236.545C144.676 236.311 144.699 236.077 144.724 235.844H163.085Z" fill="#A86114"/>
<path d="M127.102 204.044C126.408 202.852 125.684 201.692 125.109 200.436C124.529 199.167 124.114 197.846 123.695 196.518C123.643 196.355 123.412 196.423 123.442 196.588C123.694 197.967 124.193 199.309 124.76 200.588C125.325 201.863 125.982 203.14 126.855 204.233C126.968 204.375 127.189 204.194 127.102 204.044Z" fill="#1D253D"/>
<path d="M122.239 227.309H127.787C128.002 227.309 128.018 227.645 127.801 227.645H122.254C122.038 227.645 122.022 227.309 122.239 227.309Z" fill="#1D253D"/>
<path d="M149.283 127.397C149.213 125.913 148.181 124.631 146.649 124.073C143.4 122.891 139.756 122.528 136.205 122.764C132.946 122.981 129.747 123.675 126.623 124.595C124.586 125.194 123.313 127.014 123.625 128.886C125.488 140.044 126.123 151.533 125.402 162.815C133.763 165.241 142.104 165.948 150.008 163.187C150.279 151.638 149.825 138.963 149.283 127.397Z" fill="#A6F3FF"/>
<path d="M137.502 125.977C136.589 126.441 135.727 127.011 134.946 127.677C134.608 127.049 134.295 126.405 133.969 125.771C133.79 125.422 133.611 125.074 133.431 124.727C133.256 124.389 133.098 124.005 132.86 123.707C132.761 123.583 132.571 123.718 132.607 123.854C132.703 124.209 132.919 124.555 133.082 124.882C133.263 125.246 133.444 125.608 133.627 125.971C133.985 126.682 134.365 127.386 134.7 128.108C134.761 128.24 134.935 128.229 135.029 128.151C135.858 127.45 136.744 126.831 137.7 126.316C137.923 126.195 137.726 125.863 137.502 125.977Z" fill="#47BED1"/>
<path d="M140.803 125.983C140.79 125.678 140.782 125.373 140.777 125.069C140.774 124.798 140.839 124.435 140.709 124.19C140.66 124.099 140.52 124.102 140.47 124.19C140.339 124.424 140.4 124.774 140.403 125.034C140.406 125.35 140.414 125.667 140.427 125.983C140.448 126.49 140.484 126.995 140.528 127.5C140.11 127.262 139.692 127.024 139.273 126.786C139.016 126.64 138.758 126.498 138.5 126.356C138.243 126.216 137.991 126.043 137.699 125.99C137.598 125.971 137.531 126.081 137.6 126.161C137.794 126.385 138.069 126.514 138.32 126.662C138.574 126.813 138.828 126.963 139.084 127.11C139.606 127.41 140.128 127.709 140.651 128.007C140.765 128.072 140.951 127.991 140.936 127.843C140.874 127.224 140.83 126.604 140.803 125.983Z" fill="#47BED1"/>
<path d="M137.6 126.161L136.412 127.1L137.006 128.029L136.896 159.645L139.254 160.873L141.257 159.645L138.494 128.209L138.835 126.964L137.6 126.161Z" fill="#DD4F05"/>
<path d="M122.906 131.129C122.506 128.429 123.611 125.504 125.789 124.712C127.419 124.12 129.477 123.561 131.293 123.43C132.768 129.574 138.835 142.133 138.835 142.133C138.835 142.133 143.554 127.761 140.779 122.808C142.551 122.716 145.93 123.217 147.708 124.123C149.38 124.976 150.429 127.727 150.554 129.859C151.329 143.046 153.793 156.752 154.831 170.127C153.544 170.729 151.859 170.743 150.472 170.868C148.215 171.071 145.947 171.175 143.681 171.258C136.334 171.53 129.071 171.295 122.126 168.624C123.134 156.098 124.76 143.606 122.906 131.129Z" fill="#0063CB"/>
<path d="M125.546 133.181C126.604 145.092 125.58 157.211 123.293 169.047C122.903 168.913 122.514 168.774 122.126 168.624C123.127 156.181 124.736 143.772 122.941 131.377C123.799 131.993 124.667 132.595 125.546 133.181Z" fill="#1D253D"/>
<path d="M143.117 133.91L145.608 133.057C145.816 132.986 146.023 132.915 146.231 132.844C146.411 132.782 146.613 132.735 146.781 132.642C147.14 132.443 147 132.019 146.898 131.706C146.347 130.019 145.789 128.335 145.234 126.65C145.166 126.444 145.487 126.341 145.554 126.546C146.026 127.979 146.497 129.412 146.969 130.846C147.079 131.179 147.208 131.513 147.294 131.854C147.356 132.101 147.39 132.379 147.271 132.614C147.15 132.851 146.913 132.963 146.674 133.047C146.329 133.169 145.981 133.285 145.634 133.403C144.829 133.679 144.025 133.954 143.22 134.23C143.015 134.301 142.912 133.981 143.117 133.91Z" fill="#1D253D"/>
<path d="M143.33 133.997C144.268 134.969 145.205 135.941 146.142 136.914C146.292 137.069 146.066 137.318 145.915 137.161C144.977 136.189 144.04 135.217 143.103 134.245C142.954 134.09 143.18 133.841 143.33 133.997Z" fill="#1D253D"/>
<path d="M139.527 144.915C141.652 142.248 143.778 139.582 145.904 136.915C146.039 136.745 146.287 136.973 146.153 137.142C144.027 139.809 141.901 142.476 139.775 145.143C139.639 145.313 139.392 145.084 139.527 144.915Z" fill="#1D253D"/>
<path d="M132.853 134.5L130.267 134.002C130.052 133.961 129.836 133.919 129.62 133.878C129.433 133.841 129.226 133.823 129.047 133.754C128.665 133.607 128.744 133.167 128.801 132.843C129.112 131.096 129.431 129.351 129.746 127.605C129.784 127.391 129.453 127.334 129.415 127.547C129.147 129.032 128.88 130.517 128.612 132.001C128.549 132.347 128.468 132.695 128.43 133.045C128.403 133.297 128.408 133.578 128.559 133.794C128.711 134.012 128.962 134.09 129.21 134.14C129.57 134.212 129.93 134.279 130.29 134.348C131.125 134.509 131.96 134.67 132.795 134.831C133.007 134.873 133.065 134.541 132.853 134.5Z" fill="#1D253D"/>
<path d="M132.653 134.616C131.86 135.709 131.067 136.802 130.274 137.894C130.148 138.069 130.406 138.284 130.534 138.108C131.327 137.015 132.119 135.922 132.912 134.83C133.039 134.655 132.78 134.44 132.653 134.616Z" fill="#1D253D"/>
<path d="M137.939 144.899C135.463 142.554 132.987 140.208 130.51 137.863C130.353 137.714 130.14 137.974 130.296 138.122C132.772 140.467 135.249 142.813 137.725 145.158C137.883 145.307 138.096 145.047 137.939 144.899Z" fill="#1D253D"/>
<path d="M138.996 142.692C139.236 146.456 139.424 150.224 139.558 153.993C139.692 157.763 139.773 161.535 139.802 165.306C139.817 167.43 139.816 169.553 139.799 171.677C139.798 171.893 139.461 171.909 139.463 171.692C139.494 167.92 139.473 164.148 139.399 160.376C139.324 156.605 139.196 152.835 139.016 149.067C138.915 146.945 138.796 144.825 138.661 142.706C138.647 142.49 138.983 142.476 138.996 142.692Z" fill="#1D253D"/>
<path d="M144.832 159.808C146.812 160.363 148.928 160.278 150.857 159.564C151.06 159.489 151.163 159.81 150.96 159.885C148.98 160.617 146.79 160.705 144.757 160.136C144.549 160.078 144.622 159.749 144.832 159.808Z" fill="#1D253D"/>
<path d="M126.747 160.25C128.727 160.805 130.843 160.719 132.772 160.007C132.975 159.931 133.078 160.252 132.876 160.327C130.895 161.059 128.705 161.147 126.672 160.578C126.464 160.52 126.538 160.191 126.747 160.25Z" fill="#1D253D"/>
<path d="M143.591 112.213C144.185 110.17 144.039 107.92 143.183 105.972C143.297 105.494 143.205 104.942 142.961 104.516C142.718 104.09 142.339 103.751 141.911 103.511C141.336 103.189 140.639 103.042 140.007 103.231C139.376 103.421 138.844 103.993 138.816 104.652C138.327 104.36 137.919 104.068 137.381 103.882C136.843 103.695 136.25 103.621 135.702 103.777C135.154 103.933 134.662 104.346 134.507 104.894C134.352 105.442 134.601 106.104 135.12 106.337C134.701 105.826 133.735 105.728 133.128 105.991C132.521 106.254 132.086 106.816 131.828 107.424C131.622 107.908 131.513 108.446 131.607 108.963C131.702 109.481 132.021 109.971 132.499 110.191C131.596 110.641 131.304 111.738 131.491 112.73C131.678 113.721 132.301 114.57 132.959 115.335C133.617 116.099 134.339 116.831 134.79 117.732L143.591 112.213Z" fill="#7A2923"/>
<path d="M143.302 112.42C143.83 110.454 143.7 108.288 142.939 106.413C143.041 105.954 142.958 105.422 142.742 105.012C142.526 104.602 142.19 104.275 141.809 104.045C141.298 103.734 140.678 103.592 140.117 103.775C139.555 103.958 139.083 104.509 139.058 105.142C138.623 104.862 138.261 104.581 137.783 104.401C137.304 104.221 136.777 104.15 136.29 104.3C135.804 104.45 135.366 104.847 135.228 105.375C135.091 105.903 135.312 106.54 135.774 106.764C135.401 106.272 134.542 106.178 134.003 106.431C133.464 106.684 133.077 107.224 132.847 107.81C132.665 108.276 132.567 108.794 132.652 109.291C132.736 109.789 133.02 110.261 133.444 110.473C132.642 110.906 132.381 111.963 132.548 112.916C132.715 113.87 133.269 114.688 133.854 115.423C134.439 116.159 135.08 116.863 135.481 117.732L143.302 112.42Z" fill="#3B1411"/>
<path d="M133.995 115.011C134.208 117.731 134.145 120.472 133.808 123.18C133.74 123.727 133.972 124.269 134.425 124.585C135.672 125.459 137.264 125.845 138.76 125.62C139.52 125.506 140.054 124.807 139.991 124.04C139.845 122.281 139.801 120.61 139.843 118.789C138.353 116.901 136.285 115.748 133.995 115.011Z" fill="#BF6D3E"/>
<path d="M139.843 118.789C138.353 116.901 136.285 115.748 133.996 115.011C134.052 115.727 134.088 116.444 134.105 117.162C135.006 120.186 137.355 122.066 139.912 122.808C139.836 121.485 139.811 120.18 139.843 118.789Z" fill="#80410E"/>
<path d="M143.621 110.577C144.128 114.375 143.334 120.881 140.467 121.176C137.095 121.523 135.027 118.523 134.275 115.76C134.288 115.807 133.966 115.987 133.637 115.967C133.313 115.948 132.882 115.566 132.705 115.3C132.361 114.786 132.012 113.985 132.381 113.398C132.825 112.691 133.808 112.546 134.223 113.377C134.192 111.995 134.641 110.715 135.121 109.425C135.278 109.002 135.61 108.663 136.036 108.514C137.983 107.837 140.377 107.794 142.356 108.386C142.849 108.533 143.223 108.935 143.366 109.429C143.484 109.832 143.579 110.261 143.621 110.577Z" fill="#BF6D3E"/>
<path d="M139.558 110.814C138.946 110.038 137.265 110.573 136.646 111.071C136.532 111.163 136.396 111.279 136.41 111.44C136.417 111.523 136.463 111.595 136.547 111.62C136.737 111.674 136.917 111.516 137.076 111.434C137.285 111.324 137.507 111.241 137.738 111.19C138.023 111.126 138.318 111.109 138.608 111.14C138.889 111.17 139.158 111.301 139.441 111.259C139.661 111.225 139.665 110.95 139.558 110.814Z" fill="#3B1411"/>
<path d="M138.663 112.174C138.648 112.128 138.622 112.088 138.586 112.054C138.552 112.018 138.512 111.993 138.466 111.977C138.422 111.954 138.374 111.943 138.323 111.945C138.29 111.95 138.256 111.954 138.223 111.959C138.16 111.976 138.106 112.008 138.059 112.054C138.04 112.08 138.02 112.105 138.001 112.13C137.967 112.188 137.95 112.251 137.95 112.318V112.358C137.948 112.409 137.959 112.457 137.982 112.502C137.997 112.548 138.023 112.588 138.059 112.622C138.092 112.658 138.133 112.684 138.179 112.699C138.223 112.723 138.271 112.733 138.323 112.731L138.422 112.718C138.485 112.7 138.539 112.668 138.586 112.622C138.605 112.597 138.625 112.572 138.644 112.546C138.678 112.488 138.695 112.425 138.695 112.358V112.318C138.697 112.267 138.687 112.219 138.663 112.174Z" fill="#3B1411"/>
<path d="M142.748 112.406C142.733 112.36 142.707 112.319 142.671 112.286C142.638 112.249 142.597 112.223 142.551 112.209C142.507 112.185 142.459 112.175 142.407 112.177C142.374 112.181 142.341 112.186 142.308 112.19C142.245 112.208 142.19 112.24 142.144 112.286C142.124 112.311 142.105 112.336 142.085 112.361C142.052 112.419 142.035 112.482 142.035 112.549V112.589C142.032 112.64 142.043 112.689 142.067 112.733C142.082 112.779 142.107 112.819 142.144 112.853C142.178 112.889 142.217 112.915 142.264 112.93C142.308 112.953 142.356 112.964 142.407 112.962L142.506 112.948C142.57 112.931 142.624 112.899 142.671 112.853C142.69 112.827 142.709 112.802 142.729 112.777C142.762 112.719 142.78 112.656 142.78 112.589V112.549C142.782 112.498 142.772 112.45 142.748 112.406Z" fill="#3B1411"/>
<path d="M143.487 111.352C143.342 111.071 143.031 110.926 142.732 110.848C142.44 110.771 142.142 110.758 141.848 110.831C141.713 110.864 141.63 111.004 141.648 111.137C141.679 111.364 141.871 111.372 142.051 111.374C142.294 111.377 142.524 111.409 142.75 111.504C142.901 111.568 143.692 111.964 143.534 111.464C143.521 111.425 143.505 111.387 143.487 111.352Z" fill="#3B1411"/>
<path d="M140.003 118.789C139.892 118.755 139.755 118.789 139.64 118.789C139.537 118.789 139.408 118.782 139.321 118.769C139.21 118.753 139.099 118.73 138.99 118.702C138.871 118.672 138.758 118.619 138.634 118.63C138.502 118.641 138.455 118.775 138.532 118.875C138.616 118.983 138.752 119.023 138.877 119.065C138.995 119.105 139.116 119.134 139.239 119.153C139.368 119.173 139.498 119.186 139.628 119.189C139.761 119.191 139.931 119.203 140.049 119.134C140.191 119.05 140.156 118.837 140.003 118.789Z" fill="#804E26"/>
<path d="M133.917 114.802C133.8 114.842 133.635 114.782 133.609 114.646C133.595 114.576 133.631 114.518 133.674 114.464C133.715 114.412 133.777 114.382 133.838 114.381C133.935 114.38 134.008 114.286 133.982 114.192C133.87 113.793 133.551 113.385 133.091 113.431C132.887 113.452 132.702 113.567 132.615 113.756C132.575 113.845 132.566 113.942 132.59 114.037C132.605 114.091 132.673 114.231 132.75 114.162C132.795 114.12 132.781 114.058 132.796 114.004C132.813 113.947 132.836 113.893 132.87 113.843C132.938 113.743 133.054 113.705 133.171 113.717C133.406 113.739 133.556 113.924 133.644 114.129C133.433 114.223 133.298 114.457 133.362 114.697C133.431 114.958 133.728 115.129 133.987 115.05C134.144 115.002 134.074 114.749 133.917 114.802Z" fill="#804E26"/>
<path d="M141.809 114.326C141.635 114.165 141.421 114.06 141.229 113.922C141.017 113.771 140.931 113.602 140.958 113.343C140.977 113.166 140.738 113.145 140.654 113.261C140.401 113.616 140.746 114.058 141.03 114.264C141.2 114.387 141.395 114.476 141.545 114.626C141.678 114.758 141.776 114.926 141.833 115.104C141.949 115.47 141.891 115.868 141.649 116.169C141.389 116.493 141.042 116.579 140.661 116.677C140.54 116.708 140.547 116.88 140.661 116.915C141.057 117.035 141.505 116.82 141.798 116.563C142.117 116.282 142.298 115.865 142.291 115.44C142.284 115.027 142.114 114.61 141.809 114.326Z" fill="#80410E"/>
<path d="M140.532 118.021C139.323 118.377 138.019 117.905 137.324 116.853C137.205 116.672 137.487 116.49 137.607 116.67C138.218 117.595 139.363 118.014 140.428 117.701C140.635 117.64 140.74 117.959 140.532 118.021Z" fill="#3B1411"/>
<path d="M150.618 129.404C150.878 134.432 151.333 139.45 151.986 144.442C152.169 145.841 152.368 147.237 152.582 148.632C152.615 148.846 152.278 148.859 152.246 148.647C151.483 143.67 150.915 138.664 150.546 133.642C150.443 132.235 150.355 130.827 150.283 129.418C150.271 129.202 150.607 129.187 150.618 129.404Z" fill="#1D253D"/>
<path d="M113.561 88.255C112.753 87.8615 112.216 86.9681 112.247 86.0694C112.278 85.1707 112.876 84.3172 113.709 83.9802C113.854 82.5329 115.164 81.3995 116.596 81.1454C115.57 83.5123 114.906 86.0353 114.633 88.6003L113.561 88.255Z" fill="#BF6D3E"/>
<path d="M114.721 81.8476C114.198 82.0436 114.02 82.6152 113.906 83.1099C113.84 83.3944 113.779 83.7073 113.592 83.9415C113.399 84.1825 113.084 84.2915 112.836 84.4634C112.334 84.8108 111.989 85.3196 111.923 85.9332C111.852 86.6039 112.095 87.2663 112.326 87.883C112.401 88.0853 112.698 87.927 112.624 87.7263C112.407 87.1463 112.173 86.5065 112.269 85.8771C112.363 85.2572 112.806 84.8543 113.325 84.5598C113.551 84.4319 113.763 84.2915 113.912 84.0741C114.049 83.8734 114.124 83.6339 114.183 83.4002C114.297 82.9412 114.371 82.336 114.878 82.1457C115.079 82.0698 114.921 81.7727 114.721 81.8476Z" fill="#80410E"/>
<path d="M198.895 110.708C201.306 111.394 203.228 113.56 203.622 116.035C203.712 116.606 203.738 117.218 204.065 117.695C204.411 118.201 205.068 118.512 205.204 119.11C205.348 119.746 204.823 120.453 205.125 121.031C205.433 121.621 206.385 121.621 206.68 122.218C207.007 122.877 206.265 123.698 206.565 124.371C206.838 124.983 207.705 124.97 208.28 125.314C208.811 125.633 209.079 126.283 209.075 126.902C209.073 127.521 208.839 128.117 208.559 128.669C206.904 131.946 203.535 134.176 199.939 134.911C196.342 135.647 192.558 134.999 189.173 133.579C188.368 133.242 187.551 132.838 187.01 132.153C186.47 131.468 186.286 130.427 186.805 129.725C187 129.461 187.281 129.258 187.42 128.961C187.911 127.914 186.351 126.85 186.582 125.717C186.707 125.104 187.306 124.73 187.819 124.371C188.331 124.012 188.856 123.465 188.724 122.853C188.658 122.552 188.44 122.302 188.369 122.003C188.185 121.225 188.998 120.626 189.511 120.014C190.426 118.923 190.48 117.38 190.658 115.967C191.147 112.068 195.076 109.622 198.895 110.708Z" fill="#96432A"/>
<path d="M198.832 112.097C201.107 112.744 202.92 114.787 203.291 117.122C203.377 117.66 203.402 118.237 203.709 118.687C204.036 119.165 204.656 119.458 204.783 120.022C204.92 120.622 204.424 121.288 204.71 121.834C205 122.39 205.898 122.391 206.176 122.953C206.485 123.576 205.784 124.35 206.067 124.984C206.325 125.562 207.143 125.549 207.685 125.874C208.186 126.175 208.438 126.788 208.436 127.372C208.433 127.956 208.212 128.517 207.949 129.039C206.387 132.13 203.209 134.234 199.817 134.927C196.424 135.62 192.855 135.01 189.661 133.67C188.901 133.352 188.131 132.971 187.621 132.325C187.111 131.678 186.938 130.697 187.428 130.034C187.612 129.786 187.877 129.594 188.008 129.313C188.471 128.326 186.999 127.322 187.218 126.253C187.336 125.675 187.901 125.322 188.384 124.983C188.867 124.644 189.363 124.128 189.238 123.551C189.177 123.267 188.97 123.032 188.903 122.749C188.73 122.015 189.496 121.45 189.98 120.872C190.843 119.843 190.894 118.388 191.062 117.055C191.524 113.38 195.229 111.073 198.832 112.097Z" fill="#6C301E"/>
<path d="M221.374 120.334C221.388 119.904 221.103 119.508 220.742 119.275C220.38 119.043 219.95 118.946 219.528 118.865C218.292 118.631 217.036 118.506 215.777 118.492C215.127 118.485 214.565 118.95 214.439 119.589C214.374 119.916 214.312 120.243 214.296 120.552C213.443 121.137 213.475 122.462 213.619 123.486C211.631 125.243 208.38 127.733 205.808 128.383C203.236 129.033 200.487 130.108 199.25 132.455C198.392 134.083 198.433 136.019 198.511 137.857C198.568 139.195 198.705 140.709 200.465 141.148C201.017 141.286 201.596 141.265 202.156 141.157C205.758 140.461 208.057 137.345 211.19 135.463C214.181 133.665 217.229 131.744 219.235 128.887C221.24 126.033 223.281 123.257 221.374 120.334Z" fill="#FF941E"/>
<path d="M221.688 124.849C222.287 123.362 222.375 121.869 221.374 120.334C221.388 119.904 221.103 119.508 220.742 119.275C220.38 119.043 219.95 118.946 219.528 118.865C218.292 118.631 217.035 118.506 215.777 118.492C215.127 118.485 214.565 118.95 214.439 119.589C214.374 119.916 214.312 120.243 214.296 120.552C213.443 121.137 213.475 122.462 213.619 123.486C211.631 125.243 208.38 127.733 205.808 128.383C203.236 129.033 200.487 130.108 199.25 132.455C198.392 134.083 198.433 136.019 198.511 137.857C198.523 138.156 198.542 138.464 198.579 138.766C207.038 135.975 215.668 131.58 221.688 124.849Z" fill="#F5C137"/>
<path d="M198.58 138.767C198.711 139.819 199.098 140.808 200.465 141.149C201.018 141.286 201.597 141.265 202.157 141.157C205.758 140.461 208.058 137.345 211.19 135.463C214.182 133.666 217.229 131.744 219.235 128.888C220.188 127.532 221.147 126.194 221.689 124.849C215.668 131.58 207.038 135.975 198.58 138.767Z" fill="#A86114"/>
<path d="M215.1 107.502L214.794 119.272C214.771 120.141 215.425 120.891 216.291 120.958C216.989 121.011 217.869 120.93 218.81 120.481C219.454 120.173 219.81 119.466 219.705 118.761L217.992 107.288C217.992 107.288 216.46 107.16 215.1 107.502Z" fill="#FFC9B9"/>
<path d="M217.556 126.01C216.204 125.808 214.978 125.039 214.185 123.931C214.059 123.755 213.812 123.984 213.937 124.158C214.784 125.343 216.104 126.132 217.541 126.346C217.755 126.378 217.768 126.041 217.556 126.01Z" fill="#A86114"/>
<path d="M218.43 121.889C217.406 121.893 216.4 121.621 215.52 121.097C215.334 120.987 215.151 121.269 215.338 121.38C216.267 121.933 217.333 122.228 218.416 122.225C218.632 122.225 218.648 121.889 218.43 121.889Z" fill="#A86114"/>
<path d="M197.605 127.277C195.359 126.677 192.923 126.817 190.761 127.668C189.748 128.067 188.663 128.838 188.703 129.925C188.739 130.868 189.613 131.542 190.444 131.991C193.513 133.646 197.19 134.142 200.588 133.358C202.242 132.976 203.888 131.606 202.404 129.998C201.176 128.667 199.333 127.738 197.605 127.277Z" fill="#F5C137"/>
<path d="M190.387 131.379C187.985 131.762 186.041 133.716 184.63 135.861C183.22 138.006 182.174 140.427 180.627 142.458C179.356 144.127 177.767 145.503 176.63 147.282C175.493 149.06 174.868 151.471 175.792 153.39C176.671 155.217 178.713 156.064 180.612 156.087C181.993 156.103 183.472 155.703 184.369 154.563C185.038 153.713 185.297 152.549 185.258 151.431C185.25 151.205 185.231 150.98 185.203 150.757C185.039 149.463 185.526 148.194 186.404 147.302C186.682 147.019 186.932 146.703 187.146 146.405C188.696 144.237 190.143 141.92 190.889 139.298C191.636 136.676 191.675 133.74 190.387 131.379Z" fill="#FF941E"/>
<path d="M190.671 139.978C190.747 139.752 190.824 139.528 190.89 139.298C191.636 136.676 191.674 133.739 190.386 131.378C187.984 131.761 186.04 133.715 184.63 135.86C183.219 138.005 182.173 140.427 180.626 142.458C179.356 144.126 177.766 145.503 176.629 147.281C175.492 149.06 174.867 151.47 175.791 153.389C176.671 155.217 178.712 156.063 180.611 156.086C181.993 156.102 183.472 155.702 184.369 154.562C185.038 153.712 185.296 152.548 185.258 151.43C185.25 151.204 185.231 150.979 185.203 150.756C185.196 150.705 185.197 150.655 185.193 150.604C184.717 149.601 184.192 148.695 183.515 147.793C186.231 145.587 188.773 142.954 190.671 139.978Z" fill="#F5C137"/>
<path d="M183.516 147.793C184.193 148.696 184.718 149.601 185.194 150.605C185.085 149.364 185.561 148.159 186.404 147.301C186.682 147.019 186.933 146.702 187.146 146.404C188.56 144.427 189.882 142.322 190.671 139.978C188.773 142.954 186.231 145.587 183.516 147.793Z" fill="#A86114"/>
<path d="M200.753 169.089C202.048 167.522 203.131 165.911 203.324 164.724L186.007 161.529C185.466 162.939 184.659 164.371 184.243 165.817C189.456 167.767 195.285 169.159 200.753 169.089Z" fill="#1D253D"/>
<path d="M198.253 232.643L201.846 232.544C202.847 233.586 208.875 234.897 209.224 236.298H197.424C197.554 235.051 197.822 233.823 198.253 232.643Z" fill="white"/>
<path d="M209.224 236.298C209.257 236.432 209.291 236.566 209.318 236.702C209.36 236.915 209.201 237.114 208.984 237.114H197.723C197.525 237.114 197.365 236.945 197.381 236.748C197.392 236.598 197.408 236.448 197.423 236.298H209.224Z" fill="#465A94"/>
<path d="M207.047 163.602C201.833 165.553 199.42 164.794 193.952 164.723C193.474 167.809 195.385 174.396 195.385 174.396L195.607 179.22H208.968C208.913 173.751 208.388 168.268 207.047 163.602Z" fill="#1D253D"/>
<path d="M195.607 179.22L195.761 181.511L208.826 181.661C208.937 180.862 208.99 180.042 208.968 179.22L195.607 179.22Z" fill="#006CB0"/>
<path d="M192.629 232.643L189.037 232.544C188.035 233.586 186.381 234.897 186.032 236.298H193.459C193.328 235.051 193.06 233.823 192.629 232.643Z" fill="white"/>
<path d="M186.031 236.298C185.998 236.432 185.963 236.566 185.937 236.702C185.895 236.915 186.054 237.114 186.272 237.114H193.16C193.358 237.114 193.517 236.945 193.501 236.748C193.489 236.598 193.474 236.448 193.459 236.298H186.031Z" fill="#465A94"/>
<path d="M195.615 174.396C195.615 174.396 198.505 171.809 200.753 169.089C195.284 169.16 189.457 167.767 184.244 165.816C182.991 170.171 182.376 174.675 182.191 179.22H195.393L195.615 174.396Z" fill="#0063CB"/>
<path d="M182.191 179.22C182.102 180.031 182.112 180.847 182.201 181.661H195.394V179.22H182.191Z" fill="#0081C9"/>
<path d="M205.64 151.794C205.662 145.387 206.337 140.185 206.593 133.781C206.622 133.076 206.404 132.275 205.789 131.962C196.633 127.287 189.867 131.076 188.377 132.157C187.616 132.708 187.287 133.708 187.574 134.625C189.239 139.942 189.1 144.86 188.214 150.358C187.521 154.653 182.896 159.7 184.06 165.244C191.432 168.547 200.267 168.219 208.351 166.679C210.498 162.829 205.627 155.291 205.64 151.794Z" fill="#F5C137"/>
<path d="M194.797 121.712C195.133 124.374 195.287 127.07 195.254 129.745C195.248 130.286 195.442 130.807 195.767 131.097C196.663 131.894 197.755 132.196 198.741 131.902C199.242 131.753 199.549 131.04 199.451 130.29C199.228 128.569 199.079 126.93 198.977 125.14C197.847 123.357 196.381 122.324 194.797 121.712Z" fill="#FFC9B9"/>
<path d="M198.977 125.139C197.847 123.357 196.381 122.324 194.797 121.712C194.886 122.413 194.96 123.116 195.023 123.819C196.103 125.97 197.638 128.106 199.31 129.083C199.166 127.789 199.056 126.507 198.977 125.139Z" fill="#FFAB90"/>
<path d="M205.442 165.75C202.991 166.455 200.456 166.853 197.907 166.93C195.36 167.008 192.801 166.775 190.312 166.226C188.905 165.917 187.522 165.507 186.173 165.002C185.97 164.926 185.867 165.247 186.069 165.322C188.474 166.222 190.989 166.815 193.54 167.095C196.104 167.376 198.703 167.337 201.257 166.983C202.696 166.783 204.119 166.48 205.516 166.078C205.723 166.018 205.651 165.689 205.442 165.75Z" fill="#A86114"/>
<path d="M201.936 116.741C202.874 120.878 201.799 125.693 200.708 125.861C197.089 126.421 194.683 123.041 194.66 122.999C194.683 123.041 194.141 123.338 193.822 123.396C193.507 123.453 193.006 123.187 192.774 122.974C192.326 122.562 191.806 121.877 192.022 121.229C192.283 120.449 193.461 120.067 194.052 120.765C195.153 118.629 194.2 117.518 194.155 115.964C195.946 114.563 198.269 113.952 200.588 114.123C200.974 114.152 201.85 116.359 201.936 116.741Z" fill="#FFC9B9"/>
<path d="M197.75 118.597C197.725 118.556 197.691 118.524 197.648 118.5C197.607 118.473 197.563 118.458 197.515 118.454C197.467 118.442 197.419 118.443 197.37 118.457C197.34 118.469 197.309 118.481 197.278 118.492C197.222 118.524 197.177 118.567 197.143 118.622C197.13 118.651 197.117 118.679 197.105 118.708C197.086 118.772 197.084 118.836 197.1 118.9L197.11 118.939C197.119 118.989 197.141 119.032 197.174 119.069C197.199 119.11 197.233 119.142 197.276 119.166C197.316 119.192 197.36 119.208 197.409 119.212C197.457 119.224 197.505 119.223 197.554 119.209L197.646 119.173C197.702 119.142 197.747 119.099 197.781 119.044C197.793 119.015 197.806 118.986 197.819 118.958C197.838 118.894 197.839 118.83 197.824 118.765L197.814 118.727C197.804 118.678 197.782 118.634 197.75 118.597Z" fill="#3B1411"/>
<path d="M201.284 117.973C201.258 117.932 201.224 117.9 201.182 117.876C201.141 117.849 201.097 117.833 201.049 117.83C201.001 117.817 200.952 117.819 200.904 117.832C200.873 117.844 200.842 117.856 200.812 117.868C200.755 117.899 200.71 117.943 200.677 117.998C200.664 118.027 200.651 118.055 200.639 118.084C200.62 118.147 200.618 118.211 200.634 118.276L200.643 118.314C200.653 118.364 200.675 118.408 200.707 118.444C200.732 118.485 200.766 118.517 200.809 118.541C200.85 118.568 200.894 118.584 200.942 118.587C200.99 118.599 201.038 118.598 201.087 118.585L201.179 118.549C201.235 118.517 201.28 118.474 201.314 118.419C201.327 118.39 201.34 118.362 201.352 118.333C201.371 118.27 201.373 118.206 201.357 118.141L201.348 118.103C201.338 118.053 201.316 118.01 201.284 117.973Z" fill="#3B1411"/>
<path d="M193.818 122.216C193.716 122.282 193.544 122.263 193.487 122.138C193.457 122.075 193.478 122.011 193.507 121.95C193.535 121.89 193.587 121.846 193.645 121.831C193.736 121.808 193.786 121.701 193.739 121.617C193.538 121.261 193.139 120.945 192.708 121.096C192.518 121.163 192.367 121.317 192.329 121.518C192.31 121.613 192.325 121.708 192.37 121.792C192.396 121.841 192.494 121.96 192.551 121.875C192.585 121.824 192.557 121.769 192.559 121.714C192.561 121.655 192.571 121.598 192.592 121.543C192.633 121.431 192.736 121.368 192.85 121.352C193.08 121.319 193.267 121.461 193.399 121.636C193.219 121.776 193.144 122.03 193.261 122.246C193.389 122.479 193.712 122.574 193.941 122.439C194.082 122.355 193.956 122.129 193.818 122.216Z" fill="#FFAB90"/>
<path d="M198.273 116.421C197.514 116.49 196.791 116.777 196.182 117.234C196.009 117.364 196.233 117.615 196.405 117.486C196.967 117.064 197.639 116.814 198.338 116.751C198.428 116.743 198.486 116.636 198.47 116.554C198.451 116.457 198.363 116.413 198.273 116.421Z" fill="#6C301E"/>
<path d="M201.679 116.506C201.315 116.161 200.796 116.005 200.303 116.11C200.217 116.129 200.149 116.218 200.17 116.308C200.192 116.395 200.275 116.46 200.368 116.44C200.419 116.429 200.471 116.421 200.524 116.416C200.527 116.416 200.545 116.415 200.547 116.415C200.555 116.414 200.563 116.414 200.57 116.414C200.595 116.413 200.62 116.413 200.645 116.414C200.698 116.416 200.75 116.42 200.803 116.428C200.816 116.43 200.83 116.432 200.843 116.435C200.846 116.436 200.857 116.438 200.861 116.439C200.867 116.44 200.887 116.445 200.89 116.446C200.904 116.449 200.917 116.452 200.93 116.456C200.979 116.47 201.026 116.485 201.072 116.504C201.096 116.514 201.119 116.524 201.141 116.534C201.147 116.537 201.148 116.537 201.151 116.538C201.152 116.539 201.151 116.539 201.155 116.54C201.167 116.547 201.179 116.553 201.191 116.56C201.235 116.585 201.277 116.612 201.318 116.64C201.34 116.657 201.362 116.673 201.384 116.691C201.39 116.696 201.397 116.702 201.403 116.707C201.405 116.709 201.426 116.729 201.426 116.729C201.492 116.791 201.591 116.807 201.664 116.743C201.728 116.687 201.746 116.569 201.679 116.506Z" fill="#6C301E"/>
<path d="M200.468 123.762C200.101 123.816 199.734 123.869 199.367 123.923C199.28 123.935 199.213 124.035 199.234 124.12C199.257 124.212 199.339 124.266 199.432 124.253C199.799 124.199 200.165 124.146 200.533 124.092C200.62 124.08 200.686 123.98 200.665 123.895C200.643 123.803 200.561 123.749 200.468 123.762Z" fill="#FFAB90"/>
<path d="M200.935 120.549C200.812 120.359 200.621 120.247 200.426 120.142C200.267 120.057 200.097 119.967 200.032 119.788C200.001 119.703 199.881 119.675 199.806 119.713C199.717 119.757 199.7 119.853 199.73 119.939C199.867 120.313 200.278 120.38 200.551 120.614C200.666 120.714 200.735 120.846 200.65 120.987C200.549 121.155 200.359 121.252 200.225 121.39C200.162 121.455 200.147 121.556 200.21 121.627C200.267 121.691 200.384 121.708 200.448 121.642C200.603 121.481 200.809 121.369 200.929 121.174C201.05 120.98 201.061 120.745 200.935 120.549Z" fill="#FFAB90"/>
<path d="M200.426 122.818C200.382 122.73 200.285 122.71 200.2 122.742C199.716 122.927 199.174 122.949 198.676 122.81C198.589 122.785 198.493 122.824 198.462 122.913C198.434 122.995 198.478 123.103 198.566 123.128C199.157 123.293 199.777 123.262 200.35 123.044C200.435 123.011 200.463 122.894 200.426 122.818Z" fill="#3B1411"/>
<path d="M192.944 156.241C192.625 158.266 191.465 160.109 189.799 161.296C189.623 161.422 189.852 161.669 190.026 161.545C191.769 160.303 192.948 158.367 193.28 156.256C193.314 156.042 192.977 156.029 192.944 156.241Z" fill="#A86114"/>
<path d="M203.41 155.769C199.968 155.869 196.527 155.969 193.086 156.069C192.871 156.075 192.854 156.411 193.071 156.405C196.513 156.305 199.954 156.205 203.395 156.105C203.61 156.099 203.626 155.763 203.41 155.769Z" fill="#A86114"/>
<path d="M205.494 160.023C204.17 159.127 203.406 157.532 203.529 155.938C203.546 155.722 203.209 155.708 203.193 155.924C203.061 157.635 203.893 159.345 205.312 160.306C205.492 160.428 205.674 160.145 205.494 160.023Z" fill="#A86114"/>
<path d="M192.555 157.709L182.127 149.811C182.127 149.811 179.643 151.097 179.764 154.397L191.044 160.184C191.044 160.184 192.04 159.014 192.555 157.709Z" fill="#FFC9B9"/>
<path d="M182.214 149.69C180.258 150.596 179.064 152.794 179.333 154.925C179.36 155.14 179.688 155.064 179.661 154.851C179.41 152.865 180.561 150.826 182.371 149.988C182.568 149.897 182.411 149.6 182.214 149.69Z" fill="#A86114"/>
<path d="M183.942 149.648C183.065 148.585 181.525 148.212 180.252 148.722C180.052 148.802 180.209 149.1 180.409 149.019C181.545 148.565 182.92 148.937 183.693 149.876C183.832 150.043 184.079 149.815 183.942 149.648Z" fill="#A86114"/>
<path d="M188.842 139.152C188.827 138.939 188.491 138.922 188.506 139.138C188.733 142.351 188.649 145.581 188.255 148.778C188.229 148.993 188.565 149.007 188.591 148.793C188.985 145.596 189.069 142.366 188.842 139.152Z" fill="#A86114"/>
<path d="M200.376 129.927C200.308 129.723 199.979 129.796 200.048 130.001C200.313 130.793 199.907 131.553 199.438 132.173C199.222 132.461 199 132.778 198.715 133.003C198.394 133.257 198.062 133.209 197.739 132.987C197.443 132.783 197.181 132.53 196.893 132.317C196.59 132.092 196.274 131.884 195.948 131.694C195.304 131.319 194.62 131.017 193.913 130.785C193.184 130.547 192.218 130.259 192.097 129.368C192.068 129.154 191.74 129.23 191.769 129.443C191.878 130.249 192.624 130.696 193.324 130.945C194.155 131.24 194.965 131.514 195.734 131.959C196.103 132.171 196.459 132.408 196.798 132.665C197.12 132.91 197.413 133.22 197.779 133.401C198.56 133.788 199.116 133.124 199.558 132.566C200.143 131.827 200.701 130.899 200.376 129.927Z" fill="#A86114"/>
<path d="M194.941 134.076C194.87 133.874 194.541 133.946 194.613 134.15C195.343 136.234 195.544 138.47 195.197 140.65C195.163 140.863 195.5 140.876 195.533 140.664C195.884 138.46 195.679 136.183 194.941 134.076Z" fill="white"/>
<path d="M200.827 133.593C200.763 133.389 200.434 133.461 200.499 133.668C201.258 136.073 201.393 138.653 200.872 141.121C200.828 141.331 201.148 141.437 201.192 141.225C201.726 138.697 201.605 136.058 200.827 133.593Z" fill="white"/>
<path d="M189.037 232.544L186.98 221.351C186.282 217.555 185.975 209.66 186.064 205.801L186.157 201.723L182.82 181.661H194.722L191.508 202.333L191.937 204.399C192.878 208.941 193.255 217.619 193.062 222.254L192.629 232.643L189.037 232.544Z" fill="#FFC9B9"/>
<path d="M208.826 181.661L201.845 232.544H198.253L197.644 218.79C197.469 214.837 198.05 206.851 199.354 203.114L196.271 181.516L208.826 181.661Z" fill="#FFC9B9"/>
<path d="M194.723 181.661H182.821L183 182.741H194.555L194.723 181.661Z" fill="#FFAB90"/>
<path d="M191.509 202.333L194.555 182.741H183L186.158 201.722L186.064 205.801C185.975 209.66 186.282 217.555 186.98 221.351L189.037 232.544L192.63 232.642L193.063 222.253C193.256 217.618 192.879 208.94 191.938 204.398L191.509 202.333Z" fill="#FFC9B9"/>
<path d="M208.826 181.661L196.271 181.517L196.445 182.741H208.678L208.826 181.661Z" fill="#FFAB90"/>
<path d="M196.446 182.741L199.354 203.115C198.05 206.851 197.469 214.838 197.644 218.791L198.253 232.544H201.845L208.678 182.741H196.446Z" fill="#FFC9B9"/>
<path d="M218.038 107.968V107.937L220.083 104.109L217.888 102.442L215.716 103.274L215.326 106.469C215.173 106.944 215.151 107.279 215.117 107.795L218.038 107.968Z" fill="#FFC9B9"/>
<path d="M217.643 64.3481L225.203 79.6651L242.106 82.1216L229.875 94.0442L232.762 110.88L217.643 102.931L202.524 110.88L205.412 94.0442L193.181 82.1216L210.084 79.6651L217.643 64.3481Z" fill="#FCC63A"/>
<path d="M199.936 81.1396L193.18 82.1211L205.412 94.0436L202.524 110.879L217.643 102.93L232.762 110.879L230.312 96.5913C218.549 96.0909 206.864 90.5931 199.936 81.1396Z" fill="#FEA30A"/>
<path d="M215.73 107.522C216.192 107.211 216.499 106.504 216.481 105.793C216.463 105.082 216.122 104.407 215.645 104.14C215.563 102.995 214.814 102.098 213.995 101.897C214.581 103.77 214.961 105.767 215.117 107.796L215.73 107.522Z" fill="#FFC9B9"/>
<path d="M215.067 102.452C215.366 102.607 215.467 103.06 215.533 103.451C215.57 103.676 215.605 103.924 215.712 104.109C215.822 104.3 216.003 104.386 216.145 104.522C216.431 104.797 216.629 105.2 216.666 105.685C216.707 106.216 216.568 106.74 216.436 107.228C216.393 107.388 216.223 107.263 216.266 107.104C216.39 106.645 216.523 106.139 216.469 105.641C216.415 105.151 216.161 104.832 215.864 104.599C215.735 104.497 215.614 104.386 215.529 104.214C215.45 104.056 215.407 103.867 215.374 103.681C215.308 103.318 215.266 102.838 214.977 102.688C214.861 102.628 214.952 102.393 215.067 102.452Z" fill="#FFAB90"/>
<path d="M198.966 114.388C198.658 114.773 198.179 115.046 197.735 115.334C197.29 115.622 196.852 115.955 196.68 116.39C196.485 116.881 196.663 117.411 196.643 117.926C196.614 118.603 196.219 119.265 195.577 119.71C194.935 120.156 194.056 120.377 193.208 120.307C193.118 118.694 193.051 116.989 194.013 115.567C194.641 114.639 195.704 113.913 196.93 113.522C197.963 113.192 200.155 112.909 198.966 114.388Z" fill="#6C301E"/>
<path d="M80.5113 118.938C79.9904 119.604 79.4916 120.239 79.0352 120.79C76.0416 121.424 75.1078 122.356 73.8591 125.15L76.0421 135.804C80.3866 134.294 83.6998 130.011 86.5912 126.435C86.8391 126.128 87.0817 125.826 87.3186 125.527C87.0932 125.515 86.8648 125.489 86.6316 125.447C83.5484 124.933 80.8603 122.063 80.5113 118.938Z" fill="#0063CB"/>
<path d="M90.3672 115.466C89.9072 114.035 88.8576 112.507 87.3548 112.542C86.5373 112.562 85.8116 113.054 85.1833 113.577C83.7518 114.771 82.0346 116.99 80.5114 118.937C80.8609 122.063 83.549 124.932 86.6322 125.446C86.8648 125.489 87.0938 125.515 87.3191 125.526C89.8485 122.332 91.6547 119.47 90.3672 115.466Z" fill="#FFAB91"/>
<path d="M60.8771 125.949C60.897 125.088 60.4736 124.255 59.8579 123.652C59.2422 123.049 58.4489 122.655 57.6325 122.379C55.8829 121.788 53.9147 121.791 52.1216 122.233C48.9268 120.059 45.8488 117.714 42.9045 115.211C41.0846 116.555 39.1919 119.408 37.7656 121.164C43.3473 128.001 50.6324 132.525 58.9168 135.569L60.8771 125.949Z" fill="#FFAB91"/>
<path d="M60.8771 125.949C60.897 125.088 60.4736 124.255 59.8579 123.652C59.2422 123.049 58.4489 122.655 57.6325 122.379C55.8829 121.788 53.9147 121.791 52.1216 122.233C51.1522 121.573 50.1975 120.893 49.2506 120.202C47.2903 122.707 46.3911 125.72 46.0254 128.89C49.9239 131.681 54.2621 133.859 58.9163 135.569L60.8771 125.949Z" fill="#0063CB"/>
<path d="M57.338 134.964C53.648 132.09 50.1105 129.002 46.5373 126.004C46.3057 126.944 46.1386 127.909 46.0254 128.89C49.4791 131.363 53.2796 133.353 57.338 134.964Z" fill="#1D253D"/>
<path d="M56.8549 163.957C68.3279 165.331 68.1591 172.48 68.1591 172.48L63.5259 202.274L60.2158 228.235H54.7437C52.4125 194.112 56.8549 163.957 56.8549 163.957Z" fill="#A86114"/>
<path d="M65.0765 172.07C65.0765 172.07 59.9727 168.509 59.3754 165.394L78.5333 166.136C78.5333 166.136 81.7365 206.373 81.6547 228.236H76.2277L65.0765 172.07Z" fill="#F5C137"/>
<path d="M81.2046 228.235C81.203 229.048 81.1978 229.839 81.1889 230.598H76.8585L76.6165 228.235H81.2046Z" fill="#FFAB91"/>
<path d="M59.7635 228.235C59.762 229.048 59.7567 229.839 59.7478 230.598H55.4175L55.1754 228.235H59.7635Z" fill="#FFAB91"/>
<path d="M61.1297 168.525C60.1168 167.417 59.2302 166.153 59.0001 164.954L78.3608 163.957C78.3608 163.957 78.518 166.223 78.5919 167.165C72.8201 168.628 66.9156 169.174 61.1297 168.525Z" fill="#A86114"/>
<path d="M76.6127 230.244L81.6814 230.093C83.0936 231.693 84.1007 233.707 84.5933 235.86H75.4421C75.6271 233.944 76.0044 232.059 76.6127 230.244Z" fill="#0063CB"/>
<path d="M84.5933 235.86C84.6405 236.066 84.6892 236.272 84.7264 236.481C84.7851 236.808 84.5608 237.114 84.2543 237.114H75.8645C75.5853 237.114 75.3605 236.855 75.3825 236.552C75.3992 236.321 75.4202 236.09 75.4422 235.86H84.5933V235.86Z" fill="#A86114"/>
<path d="M60.0371 230.244L54.9685 230.093C53.5563 231.693 45.0508 233.707 44.5582 235.86H61.2078C61.0233 233.944 60.646 232.059 60.0371 230.244Z" fill="#0063CB"/>
<path d="M44.5587 235.86C44.5115 236.066 44.4628 236.272 44.4256 236.481C44.3669 236.808 44.5917 237.114 44.8977 237.114H60.7864C61.0657 237.114 61.2905 236.855 61.2685 236.552C61.2517 236.321 61.2308 236.09 61.2088 235.86H44.5587V235.86Z" fill="#A86114"/>
<path d="M77.1881 204.459C77.8164 203.283 78.474 202.138 78.9943 200.897C79.5204 199.643 79.8967 198.34 80.2776 197.028C80.3242 196.867 80.5333 196.934 80.5066 197.096C80.2781 198.458 79.8254 199.784 79.3114 201.046C78.7984 202.306 78.2031 203.566 77.4113 204.646C77.3092 204.786 77.109 204.607 77.1881 204.459Z" fill="#A86114"/>
<path d="M57.3255 127.334C57.4072 125.763 58.3934 124.395 59.8438 123.788C62.9265 122.498 66.3728 122.073 69.7243 122.285C72.7986 122.478 75.8116 123.179 78.7523 124.119C80.6775 124.735 81.8454 126.678 81.5284 128.674C79.718 140.087 78.9813 151.814 79.4324 163.341C79.4618 164.091 79.5315 165.17 78.8157 165.393C72.2275 167.448 62.8348 167.787 56.5657 166.117C55.0104 165.703 56.2355 164.269 56.2313 162.66C56.2004 151.143 56.7323 138.731 57.3255 127.334Z" fill="#0063CB"/>
<path d="M71.8093 114.971C71.6086 117.537 71.6683 120.122 71.9858 122.675C72.0503 123.192 71.8313 123.702 71.4047 124.001C70.2283 124.825 68.7271 125.19 67.316 124.977C66.5986 124.869 66.0945 124.209 66.1548 123.486C66.2921 121.827 66.334 120.251 66.2947 118.534C67.699 116.753 69.6499 115.665 71.8093 114.971Z" fill="#FFAB91"/>
<path d="M66.2942 118.534C67.6991 116.753 69.6499 115.665 71.8093 114.971C71.7239 116.065 71.6883 117.162 71.6972 118.259C70.7199 120.934 68.9509 123.483 66.5672 124.595C66.2832 124.313 66.1192 123.913 66.1549 123.487C66.2921 121.827 66.3341 120.251 66.2942 118.534Z" fill="#FF8A65"/>
<path d="M72.3034 114.338C72.6 113.223 72.8966 112.108 73.1926 110.993C73.3477 110.411 73.5034 109.804 73.387 109.213C73.2707 108.621 72.7944 108.054 72.1918 108.046C70.5941 105.696 67.7058 104.373 64.8846 104.714C63.9142 104.831 62.9223 105.16 62.2641 105.883C61.5038 106.717 61.3167 107.923 61.3241 109.052C61.3335 110.397 61.935 110.541 62.8562 111.521C63.7334 112.453 64.7196 114.11 65.9814 114.325C68.1208 114.69 70.1592 114.669 72.3034 114.338Z" fill="#3E2410"/>
<path d="M71.9948 114.36C72.2631 113.343 72.5319 112.327 72.8002 111.31C72.9406 110.779 73.0815 110.226 72.9762 109.686C72.8709 109.147 72.4396 108.63 71.8942 108.622C70.4474 106.479 67.8321 105.273 65.2782 105.584C64.3999 105.69 63.5013 105.991 62.9055 106.649C62.2175 107.41 62.0477 108.51 62.0545 109.539C62.0629 110.765 62.6079 110.897 63.4415 111.79C64.2354 112.641 65.1288 114.151 66.2711 114.348C68.2078 114.682 70.0539 114.662 71.9948 114.36Z" fill="#170D05"/>
<path d="M62.7299 110.789C62.252 114.371 63.7255 120.713 65.7052 120.785C69.9317 120.938 70.8367 118.283 71.5457 115.677C71.5336 115.721 71.8365 115.891 72.1467 115.872C72.4527 115.855 72.8588 115.494 73.0265 115.243C73.3498 114.758 73.6794 114.003 73.3314 113.449C72.9128 112.782 71.9858 112.646 71.5939 113.429C71.6232 112.119 71.1951 110.907 70.7408 109.683C70.5967 109.296 70.2923 108.986 69.9019 108.849C68.0202 108.19 65.6931 108.161 63.7957 108.761C63.4232 108.879 63.1344 109.174 63.0181 109.547C62.8866 109.969 62.7755 110.448 62.7299 110.789Z" fill="#FFAB91"/>
<path opacity="0.37" d="M69.6954 116.67C67.602 116.104 65.2598 116.329 63.365 117.344C63.922 119.27 64.7552 120.751 65.7052 120.785C69.7347 120.931 70.745 118.524 71.4445 116.041L71.7207 113.295C71.0458 114.42 70.3709 115.545 69.6954 116.67Z" fill="#170D05"/>
<path d="M73.3315 113.448C72.982 112.891 72.2788 112.707 71.8281 113.116C71.7925 113.175 71.7569 113.235 71.7212 113.294L71.4451 116.04C71.4791 115.919 71.5132 115.798 71.5462 115.676C71.5342 115.721 71.837 115.89 72.1472 115.872C72.4532 115.854 72.8593 115.493 73.027 115.242C73.3498 114.758 73.6794 114.003 73.3315 113.448Z" fill="#FFAB91"/>
<path d="M71.5939 113.428C71.6233 112.118 71.1952 110.906 70.7409 109.683C70.5968 109.296 70.2923 108.985 69.9019 108.849C68.0203 108.189 65.6932 108.16 63.7958 108.761C63.4232 108.878 63.1345 109.173 63.0182 109.546C62.8861 109.969 62.7756 110.448 62.73 110.788C62.4816 112.651 62.7614 115.259 63.3651 117.344C65.2604 116.329 67.6021 116.104 69.6955 116.67C70.3704 115.545 71.0458 114.42 71.7207 113.295L71.7276 113.226C71.6788 113.285 71.6332 113.35 71.5939 113.428Z" fill="#FFAB91"/>
<path d="M71.728 113.226L71.7212 113.295C71.7568 113.236 71.7925 113.176 71.8281 113.117C71.7925 113.149 71.76 113.187 71.728 113.226Z" fill="#FFAB91"/>
<path d="M66.563 111.012C67.1399 110.28 68.7256 110.785 69.3098 111.255C69.4167 111.341 69.5451 111.451 69.532 111.602C69.5252 111.681 69.4822 111.749 69.4031 111.771C69.2239 111.823 69.0536 111.674 68.9042 111.596C68.7067 111.493 68.4976 111.415 68.2796 111.366C68.0113 111.306 67.7326 111.289 67.4591 111.319C67.1944 111.347 66.9408 111.47 66.6736 111.43C66.465 111.4 66.4619 111.14 66.563 111.012Z" fill="#170D05"/>
<path d="M67.4066 112.295C67.4208 112.251 67.4449 112.214 67.4794 112.182C67.5114 112.147 67.5491 112.123 67.5926 112.109C67.6345 112.087 67.6796 112.077 67.7283 112.079C67.7598 112.083 67.7907 112.087 67.8221 112.091C67.8819 112.108 67.9337 112.138 67.9772 112.182C67.9956 112.205 68.0139 112.229 68.0323 112.253C68.0642 112.308 68.0799 112.367 68.0805 112.431V112.468C68.082 112.517 68.0721 112.562 68.0501 112.604C68.0359 112.648 68.0118 112.685 67.9772 112.717C67.9453 112.752 67.9075 112.776 67.864 112.79C67.8221 112.812 67.7771 112.822 67.7283 112.821L67.6345 112.808C67.5748 112.791 67.5229 112.761 67.4789 112.717C67.4606 112.694 67.4422 112.67 67.4239 112.646C67.3919 112.591 67.3762 112.532 67.3757 112.468V112.431C67.3746 112.382 67.3846 112.337 67.4066 112.295Z" fill="#3B1411"/>
<path d="M63.5537 112.513C63.5679 112.469 63.592 112.432 63.6265 112.4C63.6585 112.365 63.6962 112.341 63.7397 112.327C63.7816 112.305 63.8267 112.295 63.8754 112.297C63.9069 112.301 63.9378 112.305 63.9692 112.309C64.029 112.326 64.0808 112.356 64.1249 112.4C64.1432 112.423 64.1615 112.447 64.1799 112.471C64.2118 112.526 64.2276 112.585 64.2281 112.649V112.686C64.2297 112.735 64.2197 112.78 64.1977 112.822C64.1835 112.866 64.1594 112.903 64.1249 112.935C64.0929 112.97 64.0552 112.994 64.0117 113.008C63.9698 113.03 63.9247 113.04 63.876 113.039L63.7822 113.026C63.7224 113.009 63.6706 112.979 63.6271 112.935C63.6087 112.912 63.5904 112.888 63.572 112.864C63.5401 112.809 63.5244 112.75 63.5238 112.686V112.649C63.5217 112.6 63.5317 112.555 63.5537 112.513Z" fill="#3B1411"/>
<path d="M62.8568 111.52C62.993 111.254 63.2864 111.118 63.5689 111.043C63.844 110.97 64.1254 110.959 64.402 111.027C64.5294 111.059 64.608 111.191 64.5907 111.317C64.5618 111.531 64.3805 111.538 64.2108 111.54C63.9818 111.543 63.7643 111.573 63.5521 111.663C63.4096 111.723 62.6629 112.097 62.8127 111.625C62.8253 111.588 62.84 111.553 62.8568 111.52Z" fill="#170D05"/>
<path d="M71.8831 114.773C71.9937 114.811 72.1493 114.755 72.1744 114.626C72.1875 114.56 72.1535 114.506 72.1131 114.454C72.0738 114.405 72.0157 114.376 71.958 114.375C71.8674 114.374 71.7972 114.286 71.8223 114.197C71.9282 113.821 72.2289 113.436 72.6628 113.479C72.8551 113.499 73.0301 113.607 73.1119 113.786C73.1501 113.87 73.158 113.962 73.1355 114.05C73.1224 114.102 73.0579 114.234 72.9851 114.168C72.9416 114.128 72.9552 114.07 72.9411 114.019C72.9259 113.965 72.9033 113.914 72.8719 113.868C72.808 113.774 72.6984 113.738 72.5879 113.749C72.3667 113.77 72.2247 113.945 72.1425 114.137C72.3411 114.226 72.4689 114.446 72.4081 114.673C72.3426 114.919 72.0623 115.08 71.8186 115.006C71.6693 114.962 71.7353 114.724 71.8831 114.773Z" fill="#FF8A65"/>
<path d="M61.344 163.972C64.0703 164.228 66.8528 163.751 69.346 162.621C71.6495 161.578 73.671 159.955 75.2215 157.96C76.0793 156.857 76.7852 155.641 77.3233 154.351C77.4019 154.163 77.6823 154.311 77.6042 154.499C76.6248 156.846 75.079 158.945 73.1381 160.588C71.0772 162.332 68.5793 163.524 65.9305 164.046C64.3957 164.348 62.83 164.427 61.2732 164.28C61.071 164.262 61.1433 163.952 61.344 163.972Z" fill="#1D253D"/>
<path d="M66.401 125.578C68.5699 126.197 71.0112 125.616 72.6571 124.068C72.8053 123.929 73.0401 124.143 72.8913 124.282C71.1652 125.905 68.6118 126.538 66.3303 125.887C66.1348 125.832 66.2035 125.522 66.401 125.578Z" fill="#1D253D"/>
<path d="M64.4119 114.05C64.6535 113.754 64.9375 113.468 65.0051 113.077C65.0397 112.876 65.3494 112.947 65.3143 113.148C65.1964 113.83 64.5314 114.184 64.3029 114.805C64.1782 115.146 64.2568 115.552 64.5078 115.816C64.7703 116.092 65.178 116.178 65.5354 116.062C65.7298 115.999 65.8273 116.3 65.6334 116.364C64.7861 116.639 63.8811 115.988 63.9283 115.083C63.9498 114.68 64.1636 114.353 64.4119 114.05Z" fill="#FF8A65"/>
<path d="M67.9217 117.3C67.3338 118.082 66.2837 118.486 65.3227 118.291C65.1126 118.249 65.0072 118.568 65.2189 118.611C66.3371 118.838 67.5172 118.396 68.2041 117.482C68.3346 117.309 68.0511 117.128 67.9217 117.3Z" fill="#3B1411"/>
<path d="M63.299 54.8542L70.8582 70.1712L87.7618 72.6278L75.5301 84.5503L78.4179 101.386L63.299 93.4373L48.1795 101.386L51.0673 84.5503L38.8356 72.6278L55.7392 70.1712L63.299 54.8542Z" fill="#FCC63A"/>
<path d="M45.5915 71.6464L38.8356 72.6278L51.0673 84.5504L48.18 101.385L63.299 93.4368L78.4179 101.385L75.9677 87.098C64.2039 86.5971 52.5193 81.0993 45.5915 71.6464Z" fill="#FEA30A"/>
<path d="M52.7059 94.7232C52.9071 94.7007 53.1146 94.6844 53.308 94.7426C53.5013 94.8008 53.6805 94.9506 53.7156 95.1497C53.7581 95.3897 53.5799 95.6234 53.363 95.734C53.1461 95.8446 52.8956 95.864 52.6545 95.8996C51.8298 96.0212 51.038 96.3586 50.3793 96.8685C50.0393 97.1315 49.7322 97.4412 49.357 97.6513C48.0617 98.3781 47.0493 96.9816 48.3981 96.1522C49.684 95.3625 51.213 94.8909 52.7059 94.7232Z" fill="#FFAB91"/>
<path d="M53.4762 95.9739C53.6774 95.9514 53.8844 95.9352 54.0782 95.9933C54.2721 96.0515 54.4508 96.2014 54.4859 96.4005C54.5284 96.6405 54.3502 96.8742 54.1333 96.9847C53.9163 97.0953 53.6659 97.1147 53.4248 97.1503C52.6006 97.2719 51.8088 97.6094 51.1496 98.1192C50.8095 98.3822 50.5019 98.6919 50.1273 98.902C48.832 99.6288 47.8196 98.2324 49.1684 97.4029C50.4537 96.6127 51.9833 96.1411 53.4762 95.9739Z" fill="#FFAB91"/>
<path d="M53.2472 97.3857C53.4484 97.3632 53.6554 97.3469 53.8492 97.4051C54.0426 97.4632 54.2218 97.6131 54.2569 97.8122C54.2993 98.0522 54.1212 98.2854 53.9043 98.3965C53.6873 98.507 53.4368 98.5264 53.1958 98.5621C52.3716 98.6836 51.5798 99.0211 50.9206 99.5309C50.5805 99.794 50.2735 100.104 49.8983 100.314C48.603 101.041 47.5906 99.6441 48.9394 98.8146C50.2247 98.0244 51.7538 97.5528 53.2472 97.3857Z" fill="#FFAB91"/>
<path d="M52.5723 98.8277C52.7363 98.8094 52.9055 98.7957 53.0638 98.8434C53.222 98.8911 53.3677 99.0132 53.3965 99.1756C53.4311 99.3716 53.2859 99.5623 53.1083 99.6525C52.9312 99.7431 52.7268 99.7588 52.5298 99.7877C51.8565 99.8867 51.2104 100.162 50.6722 100.579C50.3945 100.794 50.1435 101.046 49.8375 101.218C48.7801 101.811 47.9537 100.672 49.0547 99.9946C50.1047 99.3491 51.3534 98.9639 52.5723 98.8277Z" fill="#FFAB91"/>
<path d="M48.2388 96.2622C47.533 96.869 47.1636 97.2704 46.6501 98.0469C46.1366 98.8235 45.8337 99.784 46.0281 100.694C46.2225 101.605 47.0012 102.417 47.9307 102.46C48.4846 102.486 49.0248 102.249 49.4687 101.917C50.3878 101.228 50.9605 100.099 50.9736 98.9508C50.9872 97.8027 50.4407 96.6609 49.5384 95.9509L48.2388 96.2622Z" fill="#FFAB91"/>
<path d="M46.9451 98.8109C44.8496 101.334 36.6957 114.1 36.648 117.336C36.6233 119.034 37.1992 120.838 38.5003 121.985C39.9486 123.261 41.6574 122.939 42.6126 121.275C44.3387 118.266 47.7594 104.962 48.5742 100.88L46.9451 98.8109Z" fill="#FFAB91"/>
<path d="M74.0887 93.4755C73.888 93.453 73.6805 93.4368 73.4866 93.4949C73.2927 93.5531 73.114 93.703 73.0789 93.9021C73.0365 94.1421 73.2146 94.3758 73.4316 94.4863C73.649 94.5969 73.899 94.6163 74.14 94.6519C74.9643 94.7735 75.756 95.1109 76.4152 95.6208C76.7553 95.8838 77.0629 96.1935 77.4375 96.4036C78.7329 97.1304 79.7452 95.734 78.3965 94.9045C77.1106 94.1148 75.5815 93.6427 74.0887 93.4755Z" fill="#FFAB91"/>
<path d="M73.3184 94.7264C73.1172 94.7039 72.9102 94.6876 72.7163 94.7458C72.523 94.8039 72.3438 94.9538 72.3087 95.1529C72.2662 95.3929 72.4444 95.6266 72.6613 95.7372C72.8783 95.8477 73.1287 95.8671 73.3698 95.9028C74.1945 96.0243 74.9858 96.3618 75.645 96.8716C75.985 97.1347 76.2921 97.4444 76.6673 97.6545C77.9626 98.3813 78.975 96.9848 77.6262 96.1553C76.3408 95.3651 74.8113 94.8935 73.3184 94.7264Z" fill="#FFAB91"/>
<path d="M73.5474 96.1375C73.3462 96.115 73.1387 96.0987 72.9453 96.1569C72.752 96.2151 72.5728 96.3649 72.5377 96.5641C72.4952 96.8041 72.6734 97.0372 72.8903 97.1483C73.1073 97.2589 73.3577 97.2783 73.5988 97.3139C74.4235 97.4355 75.2148 97.7729 75.874 98.2828C76.214 98.5458 76.5216 98.8555 76.8963 99.0656C78.1916 99.7924 79.204 98.396 77.8552 97.5665C76.5698 96.7768 75.0408 96.3052 73.5474 96.1375Z" fill="#FFAB91"/>
<path d="M74.2223 97.5795C74.0583 97.5612 73.8891 97.5476 73.7308 97.5953C73.5726 97.6429 73.4269 97.765 73.3981 97.928C73.3635 98.124 73.5086 98.3147 73.6863 98.4048C73.8634 98.4955 74.0677 98.5112 74.2648 98.54C74.9381 98.6396 75.5842 98.9147 76.1223 99.3313C76.4001 99.5461 76.6511 99.7987 76.9571 99.9705C78.0145 100.564 78.8408 99.424 77.7399 98.747C76.6898 98.1014 75.4411 97.7163 74.2223 97.5795Z" fill="#FFAB91"/>
<path d="M78.5557 95.0146C79.2615 95.6214 79.631 96.0228 80.1445 96.7994C80.658 97.5759 80.9609 98.5364 80.7665 99.4466C80.5721 100.357 79.7934 101.169 78.8638 101.212C78.3094 101.238 77.7697 101.001 77.3259 100.669C76.4068 99.9806 75.8341 98.8519 75.8204 97.7033C75.8068 96.5552 76.3533 95.4134 77.2557 94.7034L78.5557 95.0146Z" fill="#FFAB91"/>
<path d="M79.8496 97.5627C81.945 100.086 90.099 112.851 90.1467 116.088C90.1718 117.786 89.5954 119.59 88.2943 120.737C86.846 122.013 85.1372 121.691 84.182 120.027C82.4559 117.018 79.0348 103.713 78.2205 99.632L79.8496 97.5627Z" fill="#FFAB91"/>
<path d="M86.8716 125.706C84.817 128.135 82.7624 130.564 80.7078 132.992C80.1194 133.688 79.5314 134.383 78.943 135.079C78.8047 135.242 79.0305 135.492 79.1704 135.327C81.225 132.898 83.2796 130.469 85.3342 128.041L87.099 125.955C87.2368 125.791 87.011 125.541 86.8716 125.706Z" fill="#1D253D"/>
<path d="M56.9188 127.025C56.7349 129.866 56.5845 132.708 56.4682 135.553C56.3514 138.412 56.2686 141.272 56.2198 144.132C56.1926 145.737 56.1763 147.342 56.17 148.947C56.169 149.163 56.5054 149.178 56.5059 148.961C56.5164 146.114 56.5604 143.268 56.638 140.422C56.7161 137.562 56.8287 134.703 56.9754 131.846C57.0577 130.243 57.151 128.641 57.2542 127.039C57.2689 126.823 56.933 126.809 56.9188 127.025Z" fill="#1D253D"/>
<path d="M63.2655 114.64C62.3548 114.64 61.6139 113.9 61.6139 112.989C61.6139 112.078 62.3548 111.337 63.2655 111.337C64.1762 111.337 64.9172 112.078 64.9172 112.989C64.9172 113.9 64.1762 114.64 63.2655 114.64ZM63.2655 111.505C62.4476 111.505 61.7821 112.171 61.7821 112.989C61.7821 113.807 62.4476 114.472 63.2655 114.472C64.0835 114.472 64.749 113.807 64.749 112.989C64.749 112.171 64.0835 111.505 63.2655 111.505Z" fill="#170D05"/>
<path d="M67.307 114.64C66.3963 114.64 65.6554 113.9 65.6554 112.989C65.6554 112.078 66.3963 111.337 67.307 111.337C68.2178 111.337 68.9587 112.078 68.9587 112.989C68.9582 113.9 68.2172 114.64 67.307 114.64ZM67.307 111.505C66.4891 111.505 65.8236 112.171 65.8236 112.989C65.8236 113.807 66.4891 114.472 67.307 114.472C68.125 114.472 68.7905 113.807 68.7905 112.989C68.79 112.171 68.125 111.505 67.307 111.505Z" fill="#170D05"/>
<path d="M64.8569 112.477L64.7406 112.355C65.033 112.075 65.5271 112.054 65.842 112.309L65.7362 112.44C65.4894 112.24 65.087 112.257 64.8569 112.477Z" fill="#170D05"/>
<path d="M72.0808 112.991C71.0511 112.601 69.9318 112.48 68.8409 112.641L68.8168 112.475C69.9345 112.31 71.0841 112.434 72.1405 112.834L72.0808 112.991Z" fill="#170D05"/>
<path d="M228.879 237.114H33.1199V238.374H228.879V237.114Z" fill="#001E4A"/>
</svg>
