<svg width="191" height="251" viewBox="0 0 191 251" fill="none" xmlns="http://www.w3.org/2000/svg">
<path d="M77.9964 99.4762L77.9988 99.481C79.1114 99.443 80.2698 99.4247 81.4765 99.4296V94.7632L81.3067 94.7025C80.6398 94.4436 80.5678 93.674 80.8675 93.2258C73.4286 90.1011 67.2725 80.2194 64.8068 59.9661L64.7884 59.8136C64.0703 53.8558 67.538 48.3756 72.8578 46.2331C73.3309 47.2375 73.1692 47.8892 73.1692 47.8892L73.1816 47.8887C72.8676 49.5388 72.8781 51.2923 73.2967 53.0454C74.7643 59.1893 80.5447 62.9644 86.2079 61.4777C86.3141 61.4497 86.4137 61.4089 86.5183 61.3778L86.5225 61.3888C90.3384 60.1117 92.722 63.6628 92.722 63.6628L92.7255 63.6469C95.2736 66.9221 99.3839 68.5689 103.444 67.5036C104.056 67.3426 104.64 67.1233 105.196 66.8579L105.208 67.0211C105.357 66.8781 105.51 66.7398 105.67 66.6068C106.227 66.3029 106.75 65.9498 107.238 65.5513C108.801 64.7184 110.597 64.3257 112.266 64.572C115.636 65.0696 117.207 67.9789 115.775 71.0702C114.664 73.4676 112.073 75.2639 109.394 75.7206C109.733 76.1556 109.944 76.696 109.944 77.2905C109.944 78.7072 108.795 79.8559 107.378 79.8559L107.267 79.8446L111.766 102.861C113.855 103.296 115.873 103.759 117.808 104.245C122.6 98.2253 130.446 100.886 130.446 100.886L130.431 100.855C138.816 103.062 147.729 100.584 153.118 93.6666C156.513 89.3084 157.908 83.945 157.496 78.6039C157.489 78.4771 157.499 78.3551 157.482 78.2257C156.003 67.2417 161.91 63.6239 161.91 63.6239L161.892 63.6054C163.472 62.4793 164.927 61.1338 166.178 59.5281C173.696 49.8769 171.5 35.2922 161.272 26.9521C156.284 22.8852 150.31 21.0707 144.624 21.3814L144.629 21.3647C144.629 21.3647 144.544 21.3777 144.392 21.387C144.317 21.3914 144.24 21.3895 144.165 21.3953C142.818 21.4223 138.829 21.0336 136.525 15.7828L136.513 15.7976C134.711 11.4325 131.648 7.45082 127.44 4.51132C116.614 -3.05297 102.42 -0.882745 95.7389 9.35659C95.5366 9.66633 95.3731 9.99131 95.1888 10.3092L95.1666 10.2887C91.7838 16.0763 86.0185 14.9105 84.1529 14.3469C84.0257 14.3029 83.8984 14.2657 83.7712 14.2238C83.633 14.175 83.5398 14.1393 83.5398 14.1393L83.5256 14.1534C74.1513 11.196 64.0333 14.208 58.6989 22.382C54.8832 28.2311 54.3547 35.4441 56.6116 41.9676L56.6024 41.9769C60.2838 51.3314 55.7204 53.7441 55.7204 53.7441L55.7312 53.7691C53.7213 55.2048 51.9338 57.0014 50.5048 59.1918C43.8239 69.4311 47.1853 83.8641 58.0116 91.4278C61.4108 93.8023 65.1412 95.2151 68.8668 95.7224L68.8343 95.7359C68.9694 95.7384 69.0888 95.75 69.2207 95.7547C69.8963 95.8364 70.5704 95.8949 71.2429 95.9174C76.649 96.6519 77.9197 99.3666 77.9714 99.4819L77.9904 99.4811L77.9964 99.4762Z" fill="#672F4D"/>
<path d="M51.4543 157.369C51.4162 156.924 51.3803 156.479 51.3426 156.034L32.3129 137.947C35.3736 145.356 38.4343 152.764 41.495 160.172C41.9402 161.25 40.1879 161.715 39.7493 160.653C36.452 152.673 33.1549 144.692 29.8576 136.711C29.6541 136.218 29.9115 135.856 30.2912 135.707L29.6647 134.232L25.7041 124.907H23.2299H20.1485C18.4575 124.907 16.9637 123.806 16.4641 122.19L14.5787 116.094C18.8732 114.653 23.5607 111.024 23.0574 109.275C22.7427 108.182 21.2198 107.535 19.1153 107.412C22.1849 106.08 24.1079 104.262 23.6941 102.825C23.3462 101.615 21.4288 100.975 18.8325 101C22.6861 99.6297 25.2499 97.5109 24.784 95.8919C24.2583 94.0657 20.0735 93.5549 15.3375 94.6953C18.2166 93.4108 20.0039 91.6298 19.5908 90.1945C19.0499 88.3151 14.9482 87.7424 10.4295 88.9152C9.18793 89.2374 7.88046 89.7837 6.64425 90.4393C5.10033 91.2584 3.67267 92.2505 2.63778 93.2173C2.32325 93.4781 2.0315 93.79 1.76298 94.1497C1.45222 94.5348 1.21651 94.9045 1.09357 95.2409C0.81634 95.8048 0.581352 96.4401 0.402096 97.1545C-0.525387 100.851 0.20397 105.579 2.05153 109.488L13.0292 166.648C13.3015 168.258 13.8432 169.752 14.5814 171.11C15.7197 173.854 17.5765 176.342 20.1173 178.262C27.7337 184.019 38.5748 182.511 44.3317 174.895L51.8136 164.996C51.9211 162.807 52.0584 160.543 52.2319 158.215C51.8488 158.14 51.4964 157.859 51.4543 157.369Z" fill="#A64667"/>
<path d="M127.777 215.243C127.084 213.919 128.478 211.816 131.041 209.98C126.63 212.047 122.428 212.386 121.546 210.703C120.765 209.21 122.852 206.62 126.352 204.505C123.814 205.05 121.807 204.807 121.224 203.692C120.53 202.367 122.049 200.201 124.789 198.28C123.639 198.446 122.632 198.421 121.871 198.195C114.628 198.995 103.815 199.504 91.7275 199.504C76.0793 199.504 62.5632 198.693 56.1087 197.453C55.4326 210.204 54.6647 233.348 56.7016 250.532H147.26C147.26 250.532 149.797 230.489 139.081 213.417C138.399 213.892 137.7 214.319 137.009 214.658C132.817 216.714 128.684 216.975 127.777 215.243Z" fill="#6A6AF4"/>
<path d="M121.87 198.194C121.251 198.01 120.79 197.697 120.553 197.245C119.646 195.512 124.177 190.447 128.368 188.391C129.055 188.054 129.685 187.828 130.271 187.678L128.27 170.366L130.997 158.695C125.98 153.417 121.557 147.591 117.83 141.334C117.232 140.329 118.798 139.42 119.394 140.42C123.101 146.647 127.495 152.426 132.506 157.661C133.037 158.217 132.661 158.959 132.112 159.161C135.643 162.997 139.475 166.634 143.405 169.906L144.638 168.899L171.587 146.889L175.195 143.942C162.41 128.289 148.628 116.856 137.727 111.814C133.844 109.194 126.721 106.482 117.808 104.245C115.872 103.759 113.855 103.296 111.766 102.861L112.042 104.275H112.041C112.092 104.458 112.119 104.643 112.119 104.83C112.119 107.871 105.26 110.337 96.7978 110.337C88.3361 110.337 81.4765 107.871 81.4765 104.83V99.4295C80.2696 99.4246 79.1113 99.4429 77.9988 99.4809L77.9899 99.4813L77.9709 99.482C74.7333 99.5938 71.9153 99.8847 69.6478 100.35C61.6777 101.649 52.9556 107.463 44.9717 115.329L46.3887 119.911C47.1561 122.392 45.3014 124.907 42.7043 124.907H39.6229H36.3867C33.9838 127.921 31.7252 131.059 29.6646 134.232L30.291 135.707C30.7417 135.53 31.3651 135.653 31.6031 136.23C31.8397 136.802 32.0763 137.375 32.3127 137.947L51.3424 156.034C51.0414 152.475 50.7734 148.909 50.8329 145.336C50.9357 139.164 52.0526 132.796 55.3625 127.486C58.5013 122.45 63.311 118.792 68.1991 115.575C69.1761 114.932 70.0819 116.5 69.1128 117.138C66.4392 118.897 63.8257 120.761 61.4888 122.957C57.1342 127.048 54.4548 132.128 53.339 137.989C52.1229 144.377 52.7127 150.943 53.2646 157.369C53.3221 158.037 52.7487 158.316 52.2314 158.215C52.0581 160.543 51.9208 162.807 51.8131 164.997C50.9295 182.971 52.0686 195.811 52.0686 195.811C52.1201 196.409 53.5678 196.964 56.108 197.453C62.5625 198.694 76.0786 199.504 91.7268 199.504C103.815 199.503 114.628 198.995 121.87 198.194ZM73.3045 186.86C86.2823 189.779 99.8286 190.128 112.937 187.867C114.079 187.67 114.565 189.415 113.419 189.613C109.651 190.263 105.85 190.718 102.033 190.953C88.5136 191.789 74.8392 189.936 62.0273 185.544C60.9299 185.168 61.4042 183.42 62.5086 183.798C66.0496 185.012 69.652 186.039 73.3045 186.86ZM120.647 175.583C121.773 175.267 122.249 177.014 121.129 177.329C107.052 181.286 92.4323 183.219 77.811 183.056C76.6449 183.042 76.6457 181.232 77.811 181.245C92.2813 181.407 106.716 179.499 120.647 175.583ZM165.267 144.21C162.23 144.213 159.204 143.998 156.196 143.581C145.597 142.111 135.384 137.976 126.753 131.651C125.822 130.968 126.727 129.398 127.667 130.087C130.05 131.834 132.545 133.419 135.146 134.819C144.37 139.788 154.792 142.408 165.267 142.4C166.434 142.399 166.432 144.21 165.267 144.21Z" fill="#E3E3FD"/>
<path d="M104.813 77.2907C104.813 75.874 105.961 74.7253 107.378 74.7253C108.2 74.7253 108.924 75.1192 109.394 75.7208C112.073 75.2642 114.664 73.4679 115.775 71.0705C117.207 67.9792 115.636 65.0699 112.266 64.5723C110.597 64.326 108.801 64.7186 107.237 65.5516C106.75 65.95 106.227 66.3033 105.67 66.6071C105.51 66.7401 105.357 66.8784 105.208 67.0214L105.196 66.8582C104.64 67.1235 104.056 67.3429 103.443 67.5038C99.3838 68.5691 95.2734 66.9224 92.7254 63.6472L92.7219 63.6631C92.7219 63.6631 90.3383 60.112 86.5224 61.3891L86.5182 61.3781C86.4135 61.4093 86.3139 61.4499 86.2077 61.4779C80.5444 62.9647 74.7639 59.1896 73.2965 53.0457C72.8779 51.2925 72.8675 49.5391 73.1814 47.8889L73.1691 47.8895C73.1691 47.8895 73.3308 47.2377 72.8576 46.2334C67.538 48.3759 64.0703 53.856 64.7882 59.8138L64.8066 59.9664C67.2724 80.2198 73.4285 90.1013 80.8673 93.226C81.0512 92.951 81.3746 92.7967 81.7879 92.9571C85.5709 94.4255 89.8988 94.3056 93.5054 92.3782C96.6966 90.6729 99.1277 87.7445 100.242 84.3061C100.601 83.2007 102.348 83.6764 101.988 84.7874C100.733 88.6603 98.0243 92.0148 94.4192 93.9413C90.4645 96.0545 85.6656 96.3332 81.4764 94.7633V99.4297V104.83C81.4764 107.872 88.336 110.337 96.7977 110.337C105.259 110.337 112.119 107.872 112.119 104.83C112.119 104.643 112.092 104.458 112.041 104.275H112.042L111.766 102.861L107.266 79.8449C105.902 79.7851 104.813 78.6692 104.813 77.2907ZM89.742 65.766C90.3994 65.6782 91.0522 66.5064 91.2003 67.6156C91.3483 68.7248 90.9355 69.6952 90.278 69.7829C89.6208 69.8706 88.9678 69.0425 88.8199 67.9332C88.6717 66.8241 89.0846 65.8537 89.742 65.766ZM72.7286 77.9519C71.0087 77.9519 69.6145 76.5578 69.6145 74.8378C69.6145 73.1179 71.0087 71.7238 72.7286 71.7238C74.4484 71.7238 75.8425 73.1179 75.8425 74.8378C75.8427 76.5576 74.4484 77.9519 72.7286 77.9519ZM75.5998 69.6974C75.4518 68.5882 75.8647 67.6179 76.5221 67.5301C77.1795 67.4424 77.8323 68.2705 77.9802 69.3797C78.1283 70.4891 77.7155 71.4594 77.0581 71.547C76.4008 71.6348 75.7479 70.8068 75.5998 69.6974ZM81.8291 78.3795C82.9946 78.3992 82.9945 80.2096 81.8291 80.1899C80.2529 80.163 78.4885 79.7965 77.6149 78.3317C76.8469 77.0441 77.2052 75.4189 78.4872 74.6338C79.0568 74.2851 79.7255 74.136 80.2275 73.6754C80.6869 73.2538 80.9983 72.6905 81.1727 72.0958C81.6433 70.4915 81.1174 68.8215 80.513 67.3285C80.3297 66.8759 80.7141 66.3287 81.1452 66.2149C81.6574 66.0799 82.0738 66.3907 82.2587 66.8472C83.2962 69.4096 83.7415 72.5587 81.6942 74.7664C81.2508 75.2445 80.7118 75.5825 80.1212 75.8463C79.7002 76.0342 79.1076 76.2021 79.0185 76.7235C78.7775 78.1303 80.9254 78.3641 81.8291 78.3795ZM93.1965 83.9704C92.7946 84.356 92.1697 84.7054 91.6855 84.9743L91.6826 84.9759V84.9756C90.7203 85.5102 89.6291 85.8075 88.5205 85.8075C87.3949 85.8073 86.4825 84.8948 86.4825 83.769C86.4828 82.6434 87.3952 81.7312 88.521 81.7312C89.1475 81.7316 89.7783 81.4678 90.2316 81.0252C90.6757 80.5834 90.9429 79.9452 90.9461 79.3183C90.9518 78.1925 91.8688 77.2849 92.9947 77.2906C93.8417 77.295 94.5648 77.8157 94.8686 78.5528C95.0036 78.8197 95.1364 79.1392 95.1772 79.4541C95.3969 81.1454 94.4056 82.7678 93.1965 83.9704ZM95.8175 74.0544C94.0977 74.0544 92.7036 72.6603 92.7036 70.9405C92.7036 69.2206 94.0977 67.8265 95.8175 67.8265C97.5374 67.8265 98.9316 69.2206 98.9316 70.9405C98.9316 72.6603 97.5374 74.0544 95.8175 74.0544ZM106.291 68.9713C106.807 68.3299 107.481 67.8131 108.201 67.4194C108.909 67.032 109.705 66.6909 110.501 66.5367C111.402 66.362 112.386 66.4006 113.185 66.9039C113.956 67.3897 114.496 68.2651 114.426 69.1949C114.389 69.6845 114.041 70.1001 113.521 70.1001C113.058 70.1001 112.578 69.6831 112.615 69.1949C112.645 68.7991 112.431 68.4749 111.996 68.3325C111.605 68.2046 111.215 68.2274 110.809 68.3211C111.329 70.1822 110.808 72.2125 109.497 73.6409C109.155 74.0135 108.565 73.9608 108.217 73.6409C107.846 73.3005 107.897 72.7096 108.217 72.3607C108.29 72.281 108.361 72.1999 108.429 72.1164C108.309 72.2619 108.509 72.0031 108.529 71.9745C108.635 71.8179 108.731 71.655 108.817 71.4869L108.917 71.2786L108.982 71.1085C109.049 70.9175 109.103 70.7222 109.145 70.5242L109.181 70.3348C109.193 70.2326 109.202 70.1294 109.207 70.0266C109.216 69.8191 109.212 69.6108 109.194 69.4038L109.182 69.2907L109.168 69.2032C109.153 69.1316 109.138 69.0602 109.123 68.989C108.538 69.3115 108.001 69.717 107.572 70.2513C107.264 70.6343 106.608 70.5682 106.291 70.2513C105.919 69.8794 105.985 69.3518 106.291 68.9713Z" fill="#A64667"/>
<path d="M94.4194 93.9413C98.0246 92.0148 100.733 88.6602 101.988 84.7874C102.348 83.6765 100.601 83.2007 100.242 84.3061C99.128 87.7445 96.6969 90.6729 93.5055 92.3783C89.8988 94.3056 85.5711 94.4255 81.788 92.9571C81.3748 92.7967 81.0514 92.951 80.8675 93.2261C80.5678 93.6743 80.6398 94.444 81.3067 94.7028L81.4765 94.7634C85.6657 96.333 90.4647 96.0545 94.4194 93.9413Z" fill="#8A2121"/>
<path d="M88.8199 67.9331C88.9679 69.0424 89.6208 69.8705 90.278 69.7828C90.9354 69.6952 91.3483 68.7247 91.2003 67.6155C91.0522 66.5063 90.3995 65.6781 89.742 65.7659C89.0848 65.8534 88.6718 66.8239 88.8199 67.9331Z" fill="#1C2847"/>
<path d="M77.9803 69.3796C77.8322 68.2704 77.1793 67.4424 76.5221 67.53C75.8647 67.6179 75.452 68.588 75.5999 69.6974C75.7479 70.8066 76.4008 71.6348 77.0581 71.547C77.7155 71.4592 78.1283 70.4888 77.9803 69.3796Z" fill="#1C2847"/>
<path d="M95.8176 67.8264C94.0977 67.8264 92.7036 69.2206 92.7036 70.9404C92.7036 72.6602 94.0977 74.0543 95.8176 74.0543C97.5374 74.0543 98.9317 72.6602 98.9317 70.9404C98.9317 69.2206 97.5374 67.8264 95.8176 67.8264Z" fill="#CC6D92"/>
<path d="M72.7286 71.7236C71.0088 71.7236 69.6145 73.1178 69.6145 74.8376C69.6145 76.5574 71.0088 77.9517 72.7286 77.9517C74.4484 77.9517 75.8426 76.5576 75.8426 74.8376C75.8427 73.1178 74.4484 71.7236 72.7286 71.7236Z" fill="#CC6D92"/>
<path d="M80.121 75.8462C80.7116 75.5825 81.2507 75.2444 81.6941 74.7663C83.7414 72.5587 83.2961 69.4096 82.2586 66.8472C82.0737 66.3907 81.6573 66.0799 81.145 66.2149C80.714 66.3285 80.3296 66.8759 80.5129 67.3285C81.1173 68.8213 81.6432 70.4915 81.1726 72.0958C80.9982 72.6904 80.6868 73.2537 80.2274 73.6754C79.7255 74.1359 79.0568 74.285 78.4871 74.6338C77.2051 75.4189 76.8468 77.0441 77.6148 78.3317C78.4884 79.7965 80.2528 80.163 81.829 80.1898C82.9944 80.2096 82.9945 78.3993 81.829 78.3794C80.9253 78.3641 78.7774 78.1302 79.0182 76.7235C79.1075 76.2021 79.7001 76.0342 80.121 75.8462Z" fill="#8A2121"/>
<path d="M107.572 70.2511C108.001 69.717 108.538 69.3113 109.123 68.9888C109.139 69.06 109.153 69.1314 109.168 69.203L109.182 69.2905L109.194 69.4036C109.212 69.6106 109.216 69.8188 109.207 70.0264C109.202 70.1292 109.193 70.2322 109.181 70.3346L109.145 70.524C109.103 70.7221 109.049 70.9175 108.982 71.1083L108.917 71.2784L108.817 71.4867C108.731 71.6547 108.635 71.8177 108.529 71.9743C108.509 72.0029 108.309 72.2617 108.429 72.1162C108.361 72.1997 108.29 72.2808 108.217 72.3605C107.897 72.7093 107.846 73.3002 108.217 73.6407C108.565 73.9606 109.155 74.0133 109.497 73.6407C110.808 72.2123 111.329 70.182 110.809 68.3209C111.215 68.2272 111.605 68.2044 111.996 68.3323C112.431 68.4748 112.645 68.7989 112.615 69.1947C112.578 69.6828 113.058 70.0998 113.521 70.0998C114.041 70.0998 114.389 69.6842 114.426 69.1947C114.496 68.2649 113.956 67.3895 113.185 66.9037C112.386 66.4004 111.402 66.3618 110.501 66.5365C109.705 66.6907 108.909 67.0319 108.201 67.4191C107.481 67.8129 106.807 68.3296 106.291 68.9711C105.985 69.3518 105.919 69.8792 106.291 70.2512C106.608 70.5679 107.264 70.6341 107.572 70.2511Z" fill="#8A2121"/>
<path d="M94.7577 78.3439C94.4121 77.7215 93.7574 77.2945 92.9949 77.2906C91.869 77.2849 90.952 78.1925 90.9463 79.3182C90.9431 79.9451 90.6759 80.5833 90.2318 81.0252C89.7785 81.4677 89.1477 81.7314 88.5212 81.7312C87.3954 81.7312 86.483 82.6434 86.4827 83.769C86.4827 84.8946 87.3949 85.8072 88.5207 85.8074C89.6293 85.8074 90.7205 85.5102 91.6828 84.9756C90.5929 83.2788 90.8072 80.994 92.3075 79.5315C93.0018 78.8548 93.8654 78.4629 94.7577 78.3439Z" fill="#1C2847"/>
<path d="M94.8688 78.5528C94.8317 78.4792 94.7941 78.4076 94.7585 78.3438C93.866 78.4626 93.0021 78.8545 92.3077 79.5315C90.8073 80.994 90.5931 83.2789 91.683 84.9756V84.9759L91.6859 84.9743C92.1701 84.7054 92.795 84.356 93.1969 83.9703C94.4059 82.7678 95.3971 81.1454 95.1775 79.4543C95.1366 79.1392 95.0036 78.8197 94.8688 78.5528Z" fill="#E46376"/>
<path d="M184.913 159.893L171.586 146.889L144.638 168.899L151.88 175.966L152.018 175.816C156.601 171.739 161.184 167.663 165.767 163.586C166.636 162.814 167.92 164.09 167.048 164.866C162.464 168.943 157.881 173.02 153.298 177.096C152.792 177.547 152.147 177.299 151.868 176.861L138.192 189.759C137.781 189.42 137.363 189.099 136.933 188.82C134.994 187.562 133.178 187.153 131.677 187.464C131.245 187.478 130.775 187.549 130.271 187.678C129.685 187.828 129.055 188.055 128.368 188.392C124.176 190.447 119.646 195.513 120.553 197.245C120.79 197.698 121.25 198.011 121.87 198.195C122.632 198.421 123.639 198.446 124.789 198.28C122.049 200.201 120.529 202.367 121.223 203.693C121.807 204.807 123.813 205.05 126.352 204.505C122.851 206.62 120.765 209.21 121.546 210.703C122.427 212.387 126.629 212.048 131.04 209.98C128.478 211.816 127.084 213.919 127.776 215.243C128.683 216.975 132.816 216.714 137.008 214.658C137.699 214.319 138.398 213.892 139.08 213.417C139.831 212.894 140.557 212.309 141.231 211.694L181.665 187.226C183.057 186.425 184.254 185.421 185.262 184.281C191.876 177.444 191.727 166.543 184.913 159.893Z" fill="#A64667"/>
<path d="M30.9019 79.8003L43.3073 119.911C44.0746 122.392 42.22 124.907 39.6229 124.907H42.7043C45.3014 124.907 47.1561 122.392 46.3887 119.911L44.9717 115.329L33.9834 79.8001C33.4838 78.1845 31.9899 77.083 30.299 77.083H27.2175C28.9086 77.0832 30.4023 78.1848 30.9019 79.8003Z" fill="#1D213F"/>
<path d="M10.4294 88.915C14.9481 87.7421 19.0498 88.3148 19.5907 90.1943C20.0038 91.6297 18.2166 93.4104 15.3374 94.6951C20.0735 93.5547 24.2583 94.0655 24.7839 95.8917C25.2498 97.5108 22.6858 99.6295 18.8323 101C21.4288 100.975 23.3461 101.615 23.694 102.824C24.1078 104.262 22.1848 106.08 19.1152 107.412C21.2197 107.535 22.7426 108.182 23.0572 109.275C23.5606 111.024 18.8731 114.653 14.5785 116.094L16.464 122.19C16.9636 123.805 18.4574 124.907 20.1484 124.907H23.2298H25.704H36.3867H39.6229C42.22 124.907 44.0747 122.392 43.3073 119.911L30.902 79.8004C30.4024 78.1848 28.9085 77.0833 27.2176 77.0833H10.8245H7.74303C5.14593 77.0833 3.29125 79.5983 4.05864 82.0795L6.64412 90.4393C7.88033 89.7835 9.18781 89.2372 10.4294 88.915ZM31.5908 98.3001C31.9615 99.8125 31.4179 101.245 30.3767 101.501C29.3354 101.756 28.1906 100.737 27.8199 99.2246C27.4492 97.7121 27.9926 96.2791 29.0341 96.0238C30.0752 95.7686 31.22 96.7877 31.5908 98.3001ZM29.7813 90.9194C30.1521 92.4319 29.6086 93.8649 28.5671 94.1201C27.5259 94.3754 26.3811 93.3563 26.0104 91.8439C25.6395 90.3315 26.1831 88.8986 27.2245 88.6431C28.2658 88.388 29.4106 89.407 29.7813 90.9194ZM25.4151 81.2626C26.4564 81.0073 27.6012 82.0263 27.9719 83.5388C28.3426 85.0512 27.7992 86.4841 26.7577 86.7394C25.7165 86.9947 24.5717 85.9756 24.2008 84.4632C23.8303 82.9508 24.3739 81.5179 25.4151 81.2626Z" fill="#383F6B"/>
<path d="M26.7579 86.7394C27.7992 86.4841 28.3428 85.0512 27.9721 83.5388C27.6014 82.0263 26.4566 81.0073 25.4153 81.2626C24.3741 81.5179 23.8305 82.9508 24.2012 84.4633C24.5719 85.9756 25.7165 86.9947 26.7579 86.7394Z" fill="#1D213F"/>
<path d="M27.2247 88.6434C26.1834 88.8987 25.6398 90.3318 26.0105 91.8442C26.3812 93.3566 27.526 94.3757 28.5673 94.1204C29.6085 93.8651 30.1521 92.432 29.7814 90.9198C29.4107 89.4072 28.2659 88.3881 27.2247 88.6434Z" fill="#1D213F"/>
<path d="M29.034 96.024C27.9927 96.2794 27.4491 97.7122 27.8198 99.2248C28.1905 100.737 29.3353 101.756 30.3766 101.501C31.4179 101.246 31.9614 99.8127 31.5907 98.3004C31.22 96.7878 30.0753 95.7687 29.034 96.024Z" fill="#1D213F"/>
<path d="M29.8575 136.711C33.1548 144.692 36.4521 152.673 39.7492 160.653C40.1878 161.715 41.9401 161.25 41.4949 160.172C38.4342 152.764 35.3735 145.355 32.3128 137.947C32.0764 137.374 31.8398 136.802 31.6032 136.229C31.3653 135.653 30.7417 135.529 30.2911 135.706C29.9114 135.856 29.6539 136.218 29.8575 136.711Z" fill="#8A2121"/>
<path d="M151.868 176.861C152.147 177.299 152.792 177.546 153.298 177.096C157.881 173.019 162.464 168.943 167.048 164.866C167.92 164.09 166.636 162.814 165.767 163.586C161.184 167.663 156.601 171.739 152.018 175.816L151.88 175.966C151.662 176.26 151.698 176.595 151.868 176.861Z" fill="#8A2121"/>
<path d="M52.2315 158.215C52.7488 158.316 53.322 158.037 53.2647 157.369C52.7128 150.943 52.123 144.377 53.3391 137.989C54.455 132.128 57.1344 127.048 61.489 122.957C63.826 120.761 66.4395 118.897 69.1129 117.138C70.082 116.5 69.1762 114.931 68.1992 115.574C63.3111 118.791 58.5014 122.45 55.3626 127.486C52.0527 132.796 50.9358 139.164 50.8331 145.336C50.7735 148.909 51.0413 152.475 51.3425 156.034C51.3801 156.479 51.4161 156.924 51.4543 157.369C51.4964 157.859 51.8488 158.14 52.2315 158.215Z" fill="#ADADF9"/>
<path d="M132.112 159.162C132.661 158.96 133.037 158.217 132.506 157.661C127.495 152.426 123.101 146.647 119.394 140.42C118.798 139.42 117.232 140.33 117.83 141.334C121.557 147.591 125.98 153.417 130.997 158.696C131.074 158.777 131.148 158.86 131.226 158.941C131.5 159.229 131.829 159.266 132.112 159.162Z" fill="#ADADF9"/>
<path d="M77.811 181.246C76.6458 181.232 76.6449 183.043 77.811 183.056C92.4323 183.219 107.052 181.286 121.129 177.329C122.249 177.014 121.773 175.267 120.648 175.584C106.716 179.5 92.2814 181.407 77.811 181.246Z" fill="#ADADF9"/>
<path d="M62.0274 185.544C74.8393 189.936 88.5136 191.789 102.033 190.953C105.85 190.718 109.651 190.263 113.419 189.613C114.565 189.415 114.079 187.67 112.938 187.867C99.8287 190.128 86.2823 189.779 73.3045 186.86C69.6521 186.039 66.0497 185.012 62.5087 183.798C61.4041 183.42 60.9299 185.168 62.0274 185.544Z" fill="#ADADF9"/>
<path d="M165.267 142.4C154.792 142.408 144.37 139.788 135.146 134.819C132.545 133.418 130.05 131.834 127.667 130.087C126.726 129.398 125.822 130.968 126.753 131.651C135.384 137.976 145.597 142.111 156.196 143.581C159.204 143.998 162.23 144.213 165.267 144.21C166.432 144.21 166.434 142.399 165.267 142.4Z" fill="#ADADF9"/>
<path d="M107.378 74.7251C105.961 74.7251 104.813 75.8738 104.813 77.2906C104.813 78.6692 105.903 79.785 107.266 79.8447L107.378 79.856C108.795 79.856 109.944 78.7073 109.944 77.2906C109.944 76.696 109.733 76.1557 109.394 75.7207C108.924 75.119 108.2 74.7251 107.378 74.7251Z" fill="#E6CAE2"/>
</svg>
