<svg width="220" height="214" viewBox="0 0 220 214" fill="none" xmlns="http://www.w3.org/2000/svg">
  <path d="M194.647 183.279C190.173 187.966 185.94 190.989 182.595 193.377C143.277 221.448 96.7534 213.265 86.8658 211.267C72.265 208.316 44.042 202.612 23.6373 178.736C-7.23342 142.612 -2.42641 85.701 21.519 48.1331C25.899 41.2612 49.0354 3.12111 96.06 -2.99542C124.519 -6.69703 157.693 0.768662 181.716 20.7958C232.144 62.8348 228.554 147.761 194.647 183.279Z"
    fill="url(#paint0_linear_6948_1235)" />
  <g opacity="0.82">
    <path d="M66.8415 199.328C66.8415 199.328 74.672 175.292 60.5288 143.246C47.4064 113.513 14.0236 43.669 12.1584 10.8076C12.0759 9.35177 10.1739 9.10859 9.6774 10.4937C4.35175 25.3518 -6.24471 63.5565 5.00139 109.152C19.5038 167.951 66.8415 199.328 66.8415 199.328Z" fill="#BDD0FB" />
    <path opacity="0.6"
      d="M11.0353 40.3472C10.2906 43.7569 9.9502 47.2376 9.79528 50.7083C9.77357 51.1424 9.74367 51.5769 9.72856 52.0111L9.70803 53.3133L9.66821 55.9196L9.73179 58.5209C9.7605 59.3875 9.755 60.2586 9.83493 61.1199C10.2517 68.0363 11.2047 74.9054 12.7317 81.6108C13.0473 83.3073 13.5339 84.951 13.9594 86.614C14.4106 88.2682 14.7902 89.9492 15.339 91.5681L16.8798 96.4652C17.1191 97.289 17.4415 98.0775 17.7336 98.8789L18.6265 101.276L19.5195 103.674L19.9696 104.871L20.4723 106.042L22.4834 110.729C22.8243 111.506 23.1413 112.3 23.5019 113.064L24.5804 115.36L26.7375 119.951C29.6658 126.043 32.6361 132.113 35.7497 138.095C37.2845 141.1 38.8655 144.076 40.4315 147.061L45.2201 155.955C48.4179 161.879 51.6235 167.794 54.6344 173.814C55.4078 175.308 56.107 176.84 56.8321 178.36C57.2038 179.116 57.5246 179.896 57.8629 180.668C58.1932 181.443 58.5448 182.21 58.8581 182.994C59.4525 184.574 60.1045 186.134 60.5907 187.759C61.1635 189.354 61.5377 191.014 61.9634 192.663L61.9662 192.673C61.9941 192.781 62.101 192.842 62.2048 192.808C62.3045 192.776 62.3651 192.669 62.3453 192.565C61.6905 189.178 60.6889 185.891 59.4946 182.697C59.1975 181.898 58.8629 181.118 58.5486 180.327C58.2267 179.54 57.9215 178.743 57.5667 177.974C56.8748 176.427 56.2073 174.863 55.4679 173.343C52.5744 167.221 49.4133 161.267 46.3085 155.286L41.6468 146.321C40.1024 143.329 38.5407 140.346 37.0276 137.336C33.9696 131.334 31.0033 125.281 28.0842 119.201L25.9351 114.619L24.8605 112.328C24.5014 111.565 24.1815 110.786 23.8401 110.016L21.8214 105.383L21.3166 104.225L20.8644 103.042L19.967 100.672C17.4948 94.3867 15.5393 87.8719 13.9109 81.2651C12.2554 74.6617 11.1658 67.8808 10.6062 61.0318C10.5087 60.1784 10.4986 59.316 10.437 58.4584L10.2876 55.8808L10.241 53.2952L10.2182 52.0014C10.2189 51.57 10.2342 51.1382 10.2415 50.7065C10.2658 49.8431 10.2648 48.9785 10.3098 48.1148L10.4648 45.523C10.6199 43.7989 10.7613 42.0661 11.0824 40.3573C11.0856 40.3436 11.0777 40.3301 11.0649 40.3272C11.052 40.3243 11.0388 40.334 11.0353 40.3472Z"
      fill="white" />
  </g>
  <g opacity="0.83">
    <path d="M43.7788 -5.12101C44.2704 -6.18998 45.7751 -5.89871 45.8058 -4.72728C46.1037 6.59795 47.7672 36.2382 56.9242 53.8709C71.8339 82.581 76.3372 124.666 58.4094 141.802C58.4094 141.802 -9.78195 111.357 43.7788 -5.12101Z" fill="#B6CFFB" />
    <path opacity="0.6"
      d="M42.2372 10.5872C42.186 10.9252 42.1661 11.2283 42.1339 11.5445L42.0565 12.4846L41.9217 14.3644C41.8385 15.6177 41.768 16.8712 41.7006 18.1249C41.5729 20.6323 41.4747 23.1402 41.3983 25.6483C41.2522 30.6645 41.2291 35.6798 41.2805 40.6916C41.3276 45.7039 41.4975 50.7107 41.7647 55.7083L41.8617 57.5827L41.9823 59.4548C42.0677 60.7024 42.1314 61.9524 42.2369 63.1978L42.5286 66.9366L42.8738 70.6689C43.844 80.6136 45.3069 90.4967 47.4333 100.207C47.4997 100.51 47.5609 100.815 47.6315 101.117L47.8492 102.022L48.2846 103.832L48.72 105.642C48.8723 106.243 49.0398 106.839 49.199 107.438L49.6824 109.232C49.8483 109.829 49.993 110.433 50.1799 111.022L51.2506 114.575C52.7628 119.28 54.4731 123.91 56.4843 128.387C56.5109 128.447 56.5791 128.47 56.6363 128.44C56.6928 128.41 56.7176 128.339 56.6928 128.28L56.6922 128.279C54.7881 123.76 53.1367 119.123 51.7013 114.406L50.6678 110.853C50.4872 110.264 50.3487 109.66 50.1889 109.063L49.7241 107.269C49.5711 106.67 49.4098 106.074 49.2637 105.474L48.8468 103.665L48.4299 101.856L48.2214 100.951C48.1539 100.649 48.0958 100.345 48.0325 100.041L47.2808 96.4009C47.0375 95.1855 46.826 93.962 46.5971 92.743C46.4865 92.1325 46.3681 91.524 46.264 90.912L45.9647 89.0731L45.6655 87.2343C45.5636 86.6218 45.4657 86.0084 45.3821 85.392C44.636 80.4768 44.0754 75.5262 43.5618 70.5701C42.5713 60.6502 42.0631 50.6635 41.8554 40.6619C41.7594 35.6603 41.756 30.653 41.8424 25.6441C41.8828 23.1397 41.9451 20.6348 42.0367 18.13C42.086 16.8777 42.1386 15.6253 42.2038 14.3734L42.3115 12.4961L42.3752 11.5584C42.4013 11.2494 42.422 10.9258 42.4584 10.6411L42.4618 10.6146C42.4702 10.5487 42.4267 10.4898 42.3645 10.4831C42.3034 10.4764 42.2469 10.5228 42.2372 10.5872Z"
      fill="white" />
  </g>
  <path
    d="M189.427 123.426C191.36 126.517 193.385 130.932 192.894 135.347C191.997 143.409 179.616 146.991 168.766 142.513C161.031 139.32 164.324 128.846 166.852 123.093C167.654 121.27 166.329 119.225 164.335 119.225H136.39V87.7893C136.39 85.0445 139.299 83.2791 141.735 84.5495C144.655 86.0714 148.494 87.6866 152.534 88.3236C161.054 89.6671 169.575 80.2623 168.678 71.3053C167.781 62.3487 159.26 55.631 150.291 56.0788C147.189 56.2335 144.608 57.529 142.558 59.1575C140.198 61.032 136.706 59.2477 136.706 56.2359V28.7606C136.706 28.7606 188.339 28.7606 189.823 28.7606H214.011C216.471 28.7606 218.47 30.7403 218.488 33.1965C218.59 46.5753 218.884 85.7383 218.871 87.7938L218.677 119.225H191.74C189.58 119.225 188.284 121.597 189.427 123.426Z"
    fill="#B6CFFB" />
  <path
    d="M160.861 205.211H136.39V178.873C136.39 176.238 133.696 174.482 131.264 175.507C128.607 176.626 124.996 177.693 120.624 177.893C110.828 178.341 103.372 170.279 104.858 159.083C106.344 147.887 115.88 145.2 120.529 146.544C122.956 147.245 127.172 149.935 130.647 152.345C133.073 154.028 136.39 152.292 136.39 149.342V119.225H164.335C166.329 119.225 167.653 121.271 166.852 123.093C164.323 128.846 161.031 139.321 168.766 142.513C179.616 146.992 191.996 143.409 192.893 135.348C193.385 130.932 191.359 126.517 189.427 123.426C188.283 121.597 189.579 119.225 191.739 119.225H218.677C218.677 119.225 219.32 173.775 219.3 177.053L219.16 200.488C219.144 203.101 217.018 205.211 214.401 205.211H195.283C192.157 205.211 163.838 205.211 160.861 205.211Z"
    fill="#6A6AF4" />
  <path
    d="M82.8573 205.35H62.3411C59.1069 205.35 56.4851 202.732 56.4851 199.502V180.124C56.4851 177.267 56.5418 150.736 56.5418 147.83V118.553H83.6086C85.8394 118.553 87.1481 116.02 85.829 114.223C79.4938 105.594 85.0218 93.3131 89.7516 91.2349C95.3572 88.7715 106.793 88.0997 110.156 100.64C111.907 107.171 110.3 111.94 108.358 115.012C107.201 116.841 108.481 119.225 110.648 119.225L136.39 119.225V149.342C136.39 152.292 133.073 154.028 130.647 152.345C127.172 149.935 122.956 147.245 120.529 146.543C115.88 145.2 106.344 147.887 104.858 159.083C103.371 170.279 110.828 178.341 120.624 177.893C124.996 177.693 128.607 176.626 131.264 175.507C133.696 174.482 136.39 176.238 136.39 178.873V205.211H112.4C109.323 205.211 86.0711 205.35 82.8573 205.35Z"
    fill="url(#paint1_linear_6948_1235)" />
  <path d="M85.5869 58.4977C85.5869 58.4977 66.3027 78.9889 47.8628 80.111C47.8628 80.111 49.4047 90.5081 51.8317 92.1317C51.8317 92.1317 76.9264 78.2861 85.8375 61.9858L85.5869 58.4977Z" fill="url(#paint2_linear_6948_1235)" />
  <path
    d="M112.637 87.0969C114.383 84.3369 115.827 80.0508 114.253 74.1816C111.23 62.9127 100.954 63.5163 95.9166 65.73C91.6663 67.5976 86.6985 78.6341 92.3916 86.3886C93.577 88.0031 92.4011 90.2795 90.3963 90.2795H66.073L65.317 11.7678C65.302 10.2065 66.5728 8.93675 68.1361 8.95105L135.06 9.56029C136.75 9.57569 138.112 10.948 138.112 12.6355V34.2788C138.112 37.0127 141.27 38.5594 143.419 36.8659C145.254 35.4205 147.557 34.2755 150.32 34.1376C158.38 33.7352 166.037 39.772 166.843 47.8209C167.649 55.8699 159.992 64.3215 152.335 63.1141C148.704 62.5417 145.255 61.0903 142.631 59.7226C140.442 58.581 137.828 60.1674 137.828 62.634V90.8833L114.695 90.8834C112.748 90.8834 111.597 88.741 112.637 87.0969Z"
    fill="#6A6AF4" />
  <path
    d="M39.5412 57.6056C39.5412 57.6056 36.1325 59.2614 35.5057 61.1636C35.0028 62.6898 31.2336 62.8866 30.8613 65.8882C30.669 67.438 29.5207 68.6791 27.9751 68.9157C24.1255 69.505 18.1929 71.5013 17.2437 78.1762C16.5192 83.271 19.12 85.2029 21.8493 85.8716C23.854 86.3627 25.1862 88.3099 24.7807 90.3311C24.3918 92.2698 24.9718 94.5109 28.3348 96.2831C35.8711 100.254 43.3973 86.8747 43.3973 86.8747L44.9397 63.5128L39.5412 57.6056Z"
    fill="url(#paint3_linear_6948_1235)" />
  <path d="M8.56375 204.093L8.07611 208.097C7.98358 208.856 7.3847 209.457 6.62357 209.544C5.33831 209.69 3.27594 209.84 1.25796 209.627C0.37221 209.534 -0.202762 208.638 0.0669433 207.791C0.558911 206.245 1.45882 203.925 2.75636 202.559H7.20374C8.02591 202.559 8.66304 203.278 8.56375 204.093Z" fill="url(#paint4_linear_6948_1235)" />
  <path d="M43.3973 157.191L44.1479 161.601C44.1479 161.601 41.6341 187.029 41.187 197.2C41.1169 198.795 41.53 200.371 42.3681 201.73L46.7391 208.819L35.6302 202.272L35.409 200.918L37.2276 198.421L34.8456 169.935C34.7056 168.262 35.0514 166.584 35.8415 165.101L38.1393 160.79L43.3973 157.191Z" fill="url(#paint5_linear_6948_1235)" />
  <path
    d="M47.4706 209.846H43.9255C43.262 209.846 42.6362 209.542 42.2315 209.016C41.1264 207.582 38.8366 204.784 37.7417 204.711C36.2678 204.613 36.4564 209.846 36.4564 209.846H35.6302L34.5837 203.344C34.3204 201.707 35.1351 200.087 36.6062 199.32C36.6062 199.32 36.9431 201.808 38.77 202.909C40.5969 204.01 46.2042 207.951 46.2042 207.951C46.2042 207.951 46.8909 207.854 47.645 207.99C48.7635 208.192 48.6073 209.846 47.4706 209.846Z"
    fill="url(#paint6_linear_6948_1235)" />
  <path
    d="M28.1816 159.285C28.1816 159.285 13.4552 187.183 11.1142 193.552C8.77325 199.921 7.9532 205.235 7.92181 205.738C7.87271 206.524 6.8935 207.279 4.19432 207.279C2.80142 207.279 2.11914 206.721 1.78507 206.181C1.50003 205.721 1.48539 205.144 1.72552 204.659C2.57735 202.937 5.2807 197.435 6.28194 194.94C7.47728 191.96 10.0486 178.458 11.4588 173.763C12.869 169.068 14.463 163.976 20.604 159.285C20.604 159.285 24.8197 155.162 28.1816 159.285Z"
    fill="url(#paint7_linear_6948_1235)" />
  <path d="M37.4845 113.574C41.2832 97.4988 31.6599 88.4067 31.6599 88.4067C37.7321 82.5859 48.7955 79.9373 48.7955 79.9373C48.7955 79.9373 59.3523 87.645 58.1 93.678C57.366 97.214 50.6795 114.858 50.6795 114.858C50.6795 114.858 44.4965 117.78 37.4845 113.574Z" fill="url(#paint8_linear_6948_1235)" />
  <path d="M29.0622 121.533C30.6082 116.881 37.4846 113.574 37.4846 113.574C44.4967 117.78 50.6796 114.858 50.6796 114.858C50.6796 114.858 52.0662 120.151 51.1092 125.07C50.1522 129.989 44.1478 161.601 44.1478 161.601C34.687 163.515 20.1365 159.675 20.1365 159.675C26.1626 148.99 27.5162 126.184 29.0622 121.533Z" fill="url(#paint9_linear_6948_1235)" />
  <path d="M41.8942 69.314L38.8057 83.1683C38.51 84.3886 39.6239 84.1889 40.8593 83.9563C42.8825 83.5754 45.4902 82.7908 46.3618 81.2186C46.4505 81.0586 46.4949 80.8778 46.5199 80.6965L47.8467 71.0896C47.952 70.3274 47.5394 69.5877 46.8351 69.2758L44.2747 68.142C43.2888 67.7055 42.1478 68.2672 41.8942 69.314Z" fill="url(#paint10_linear_6948_1235)" />
  <path
    d="M29.9526 92.686C29.9526 92.686 58.2034 127.136 79.31 87.9103C79.31 87.9103 79.7151 86.9079 79.4619 85.46C79.334 84.729 79.8181 82.1364 80.084 80.8117C80.1695 80.3858 79.8665 79.9834 79.4336 79.9416C79.0944 79.909 78.7619 80.0513 78.5515 80.3189L74.6962 85.2218C74.4087 86.1926 74.8718 87.2278 75.7876 87.6618C76.3718 87.9387 76.556 88.6797 76.1639 89.1932C60.1124 110.206 33.2647 87.1481 32.7734 87.4189C31.0302 88.3797 29.0163 89.442 29.9526 92.686Z"
    fill="url(#paint11_linear_6948_1235)" />
  <path d="M45.5176 56.1229C45.5176 56.1229 49.1754 57.6653 51.6624 62.9439C54.1495 68.2224 52.2922 70.6596 49.9593 70.9942C47.6263 71.3288 44.1374 71.2779 40.4471 67.868C36.7568 64.4581 40.7627 54.2945 45.5176 56.1229Z" fill="url(#paint12_linear_6948_1235)" />
  <path d="M45.1546 64.039C45.305 64.354 45.594 64.5297 45.8002 64.4312C46.0066 64.3331 46.0513 63.9982 45.9009 63.6833C45.7505 63.3683 45.4615 63.1926 45.2552 63.2911C45.0488 63.3892 45.0037 63.7242 45.1546 64.039Z" fill="#263238" />
  <path
    d="M48.0117 66.0285C48.0039 65.9935 48.3828 65.8742 49.0004 65.7088C49.1575 65.6709 49.304 65.6187 49.3163 65.5066C49.3384 65.3866 49.2484 65.2242 49.1459 65.0498C48.9438 64.685 48.7319 64.3032 48.5098 63.9027C47.6209 62.2674 46.9539 60.9141 47.0202 60.8789C47.0868 60.8436 47.861 62.1407 48.7503 63.7759C48.9655 64.1797 49.1713 64.5645 49.3673 64.9327C49.4522 65.1055 49.5836 65.2961 49.5348 65.5457C49.508 65.6705 49.4029 65.7723 49.3042 65.8138C49.2065 65.8588 49.1169 65.8726 49.0387 65.8879C48.411 66.0076 48.0186 66.0635 48.0117 66.0285Z"
    fill="#263238" />
  <path d="M48.7799 67.54C50.2168 67.4327 50.9369 66.484 50.97 66.4394C51.0063 66.3907 50.9958 66.3218 50.947 66.2856C50.8982 66.2493 50.8292 66.2598 50.7929 66.308C50.7847 66.319 49.9434 67.4206 48.3037 67.3234C48.2428 67.3201 48.1908 67.3663 48.1869 67.4266C48.1831 67.4874 48.2299 67.5393 48.2902 67.5431C48.4617 67.5537 48.6247 67.5519 48.7799 67.54Z" fill="#263238" />
  <path d="M48.7191 62.3397C48.8695 62.6547 49.159 62.8302 49.3648 62.7318C49.5712 62.6338 49.6158 62.2989 49.4654 61.9839C49.3151 61.669 49.0255 61.4934 48.8198 61.5918C48.614 61.6902 48.5688 62.0247 48.7191 62.3397Z" fill="#263238" />
  <path d="M43.506 63.4135C43.4735 63.4241 43.4377 63.4265 43.4018 63.4192C43.2907 63.3966 43.2196 63.2883 43.2421 63.1773C43.4703 62.0667 44.3475 61.7097 44.3851 61.6952C44.4906 61.6536 44.6097 61.7056 44.6514 61.8109C44.6929 61.9158 44.6413 62.0345 44.5364 62.0765C44.5076 62.088 43.8262 62.3735 43.6442 63.2602C43.6288 63.3348 43.574 63.3918 43.506 63.4135Z" fill="#263238" />
  <path d="M49.6696 60.3838C49.6065 60.4038 49.5346 60.3935 49.4787 60.3487C48.7702 59.7848 48.064 60.0012 48.0345 60.0108C47.927 60.0449 47.8111 59.9863 47.7765 59.8791C47.7413 59.772 47.799 59.6567 47.9067 59.6214C47.9459 59.6096 48.8472 59.3214 49.735 60.0281C49.8238 60.0988 49.8381 60.2277 49.7679 60.3162C49.741 60.3495 49.7065 60.3717 49.6696 60.3838Z" fill="#263238" />
  <path d="M42.9279 65.0498C42.9279 65.0498 40.1683 57.3271 47.0243 57.2358L48.6376 58.3619C48.6376 58.3619 51.1531 54.0801 47.0243 52.0362C42.8954 49.9923 38.0631 51.6806 36.306 57.2358C34.549 62.791 34.249 66.5097 37.1722 69.1675C40.0953 71.8254 41.3 68.8117 41.3 68.8117C41.3 68.8117 39.7082 66.3257 40.3562 64.9957C41.0043 63.6658 42.499 65.2709 42.499 65.2709L42.9279 65.0498Z"
    fill="url(#paint13_linear_6948_1235)" />
  <path d="M42.1591 65.9101C42.1591 65.9101 40.7638 61.9319 38.9025 63.5162C37.0412 65.1004 40.4153 67.1909 41.7362 67.8681L42.1591 65.9101Z" fill="url(#paint14_linear_6948_1235)" />
  <path d="M183.113 204.247C183.113 204.247 183.716 207.479 184.028 210.681C184.149 211.932 183.193 213.029 181.936 213.093C177.664 213.312 168.527 213.744 165.245 213.629C164.752 213.612 164.425 213.111 164.603 212.651C164.752 212.266 165.044 211.953 165.418 211.777L180.451 204.703L183.113 204.247Z" fill="url(#paint15_linear_6948_1235)" />
  <path d="M183.564 202.34L183.141 206.217C183.141 206.217 180.507 207.472 178.688 206.105L179.742 201.779L183.564 202.34Z" fill="url(#paint16_linear_6948_1235)" />
  <path d="M182.523 129.544C182.731 130.553 184.071 179.996 178.99 202.207C178.907 202.57 179.094 202.941 179.44 203.078C180.255 203.401 181.851 203.866 183.759 203.912C184.35 203.926 184.876 203.537 185.037 202.97C186.501 197.814 193.505 171.984 194.216 147.366C195.01 119.858 194.207 146.43 194.207 146.43L193.424 129.438L182.523 129.544Z" fill="url(#paint17_linear_6948_1235)" />
  <path d="M200.497 205.77C200.497 205.77 201.424 207.396 202.348 211.73C202.515 212.513 201.974 213.269 201.177 213.355C199.767 213.507 197.597 213.706 195.857 213.71C195.054 213.713 194.422 213.021 194.511 212.225C194.688 210.638 195.264 208.031 197.1 205.987L200.497 205.77Z" fill="url(#paint18_linear_6948_1235)" />
  <path d="M201.251 200.782L200.231 206.648C200.231 206.648 199.176 207.448 197.068 206.896L197.521 200.59L201.251 200.782Z" fill="url(#paint19_linear_6948_1235)" />
  <path d="M203.487 130.862C208.065 156.911 203.164 195.356 201.459 202.888C201.354 203.349 200.986 203.705 200.52 203.787C199.728 203.926 198.423 204.045 197.133 203.684C196.688 203.56 196.372 203.163 196.35 202.703C196.054 196.629 196.126 159.328 191.952 144.626C191.74 143.881 191.277 143.234 190.641 142.791L182.759 137.308L182.073 128.329L203.487 130.862Z"
    fill="url(#paint20_linear_6948_1235)" />
  <path d="M175.43 81.6879C188.401 81.3503 202.75 84.8298 202.75 84.8298C206.832 107.327 203.89 133.348 203.89 133.348C193.871 136.074 182.501 131.944 182.501 131.944C180.742 122.541 172.701 96.1081 172.701 96.1081C166.354 95.3829 161.115 93.6063 156.792 91.2327C160.036 87.4045 161.536 82.5583 162.18 79.696C166.781 81.0759 171.429 81.7921 175.43 81.6879Z" fill="url(#paint21_linear_6948_1235)" />
  <path d="M136.928 62.9699C138.187 61.4205 139.807 62.1323 139.807 62.1323C141.793 70.1676 151.866 76.6022 162.18 79.696C161.536 82.5583 160.036 87.4046 156.792 91.2327C139.633 81.8119 136.928 62.9699 136.928 62.9699Z" fill="url(#paint22_linear_6948_1235)" />
  <path
    d="M137.241 63.3579C137.112 63.7825 138.662 64.4125 139.555 62.6723C139.578 61.8422 140.05 58.2823 139.547 57.6109C136.868 54.0356 131.698 49.571 131.698 49.571C130.839 50.4331 131.561 51.2651 131.561 51.2651L134.073 53.8289C133.562 54.7727 132.935 55.5714 132.648 56.7097C132.431 57.5719 132.578 58.4896 133.02 59.2682C133.464 60.0496 134.07 61.065 134.641 61.8587C135.721 63.3611 137.241 63.3579 137.241 63.3579Z"
    fill="url(#paint23_linear_6948_1235)" />
  <path d="M135.177 55.4976L137.462 57.3949L138.192 59.2985L136.192 61.5567C136.192 61.5567 135.477 57.7724 134.964 56.9569C134.451 56.1412 134.709 55.742 135.177 55.4976Z" fill="url(#paint24_linear_6948_1235)" />
  <path d="M197.894 97.4221L202.75 84.8298C202.75 84.8298 214.946 92.9366 217.038 103.343C214.75 103.533 210.59 104.167 206.531 106.263C205.588 101.349 197.894 97.4221 197.894 97.4221Z" fill="url(#paint25_linear_6948_1235)" />
  <path d="M187.417 109.328C187.417 109.328 201.096 116.876 205.624 110.276C206.564 108.905 206.779 107.55 206.532 106.263C210.59 104.167 214.751 103.533 217.039 103.343C217.669 106.48 217.384 109.825 215.567 113.221C207.666 127.988 185.649 112.695 185.649 112.695L187.417 109.328Z" fill="url(#paint26_linear_6948_1235)" />
  <path d="M188.47 71.0447L192.712 82.9268C192.782 83.1236 192.703 83.3431 192.521 83.446C191.402 84.078 187.365 85.9125 182.45 82.8658C181.938 82.5484 181.587 82.0261 181.504 81.43L180.068 71.1247L188.47 71.0447Z" fill="url(#paint27_linear_6948_1235)" />
  <path d="M190.213 121.258L182.762 95.2714C182.677 94.9764 182.425 94.7612 182.12 94.7257C180.77 94.5684 176.858 94.1268 172.341 93.7453C166.901 93.2857 160.583 92.9134 156.808 93.2301C156.271 93.2751 155.947 93.8421 156.185 94.3243C158.332 98.662 167.163 116.307 171.586 122.087C171.732 122.278 171.959 122.39 172.2 122.388L189.488 122.227C189.991 122.223 190.351 121.741 190.213 121.258Z"
    fill="url(#paint28_linear_6948_1235)" />
  <path d="M188.413 114.98C188.413 114.98 189.451 110.717 189.032 109.205C188.613 107.693 187.802 105.749 185.098 106.181C182.394 106.613 179.205 107.75 179.205 107.75C179.205 107.75 179.366 109.72 181.421 109.084L180.146 110.069C180.146 110.069 180.329 111.646 182.064 110.804L180.879 112.11C180.879 112.11 181.625 113.405 182.902 112.574C184.179 111.743 184.791 115.493 188.413 114.98Z"
    fill="url(#paint29_linear_6948_1235)" />
  <path d="M172.838 101.503C172.838 102.709 171.859 103.687 170.651 103.687C169.443 103.687 168.464 102.709 168.464 101.503C168.464 100.296 169.443 99.3184 170.651 99.3184C171.859 99.3184 172.838 100.296 172.838 101.503Z" fill="#B6CFFB" />
  <path d="M181.899 102.948L180.383 97.809C180.198 97.1853 179.695 96.7168 179.071 96.5866C174.319 95.5963 161.305 95.3862 161.174 95.3841L161.185 94.7629C161.721 94.771 174.388 94.9759 179.199 95.9782C180.047 96.1555 180.729 96.7895 180.979 97.633L182.496 102.773L181.899 102.948Z" fill="#BDD0FB" />
  <path d="M179.649 57.752C179.509 57.9175 174.514 71.339 174.514 71.339L182.249 74.024L188.875 62.0057C188.875 62.0057 181.988 54.9799 179.649 57.752Z" fill="url(#paint30_linear_6948_1235)" />
  <path d="M182.205 66.1271C182.041 66.4709 181.726 66.6626 181.501 66.555C181.275 66.448 181.227 66.0826 181.391 65.7389C181.555 65.3951 181.87 65.2034 182.095 65.311C182.321 65.418 182.37 65.7836 182.205 66.1271Z" fill="#263238" />
  <path
    d="M179.087 68.2983C179.096 68.2601 178.682 68.1299 178.008 67.9494C177.837 67.908 177.677 67.8511 177.664 67.7287C177.64 67.5978 177.738 67.4206 177.85 67.2303C178.07 66.8322 178.301 66.4155 178.544 65.9785C179.514 64.1939 180.242 62.717 180.169 62.6787C180.097 62.6402 179.252 64.0556 178.281 65.8401C178.047 66.2807 177.822 66.7007 177.608 67.1025C177.515 67.291 177.372 67.4991 177.425 67.7714C177.455 67.9076 177.569 68.0188 177.677 68.064C177.784 68.1131 177.881 68.1282 177.967 68.1449C178.652 68.2755 179.08 68.3365 179.087 68.2983Z"
    fill="#263238" />
  <path d="M178.315 64.2728C178.151 64.6165 177.835 64.808 177.611 64.7007C177.386 64.5936 177.337 64.2282 177.501 63.8845C177.665 63.5408 177.981 63.3492 178.206 63.4566C178.43 63.564 178.48 63.929 178.315 64.2728Z" fill="#263238" />
  <path d="M184.004 65.4445C184.04 65.456 184.079 65.4587 184.118 65.4507C184.239 65.4261 184.317 65.3078 184.292 65.1867C184.043 63.9747 183.086 63.5852 183.045 63.5693C182.93 63.5239 182.8 63.5807 182.755 63.6957C182.709 63.8101 182.766 63.9397 182.88 63.9854C182.911 63.998 183.655 64.3095 183.854 65.2772C183.87 65.3586 183.93 65.4208 184.004 65.4445Z" fill="#263238" />
  <path d="M177.278 62.1382C177.347 62.1601 177.426 62.1488 177.487 62.1C178.26 61.4846 179.03 61.7207 179.063 61.7312C179.18 61.7684 179.306 61.7045 179.344 61.5875C179.383 61.4707 179.32 61.3448 179.202 61.3063C179.159 61.2934 178.176 60.9789 177.207 61.7502C177.11 61.8272 177.094 61.9679 177.171 62.0645C177.2 62.1008 177.238 62.1251 177.278 62.1382Z" fill="#263238" />
  <path
    d="M185.669 62.6875C185.839 63.0101 185.851 63.3905 185.7 63.7225L182.752 70.2266C182.707 70.3253 182.651 70.4165 182.58 70.4989C182.192 70.9533 180.84 72.3012 179.504 70.8332C178.366 69.582 177.302 68.4478 176.257 68.0501C175.647 67.8178 174.966 68.1383 174.741 68.7506C174.277 70.0115 173.393 72.5748 172.927 74.9626C172.81 75.561 173.18 76.1463 173.769 76.3087C175.322 76.7373 178.379 77.4839 181.022 77.5419C181.456 77.5515 181.858 77.3226 182.072 76.9453C183.014 75.2847 185.673 70.6412 186.625 69.4458C187.51 68.3351 189.399 68.497 190.259 68.6395C190.585 68.6937 190.916 68.6112 191.178 68.4094C191.963 67.8042 193.289 66.3698 191.694 64.3853C191.298 63.8918 191.386 63.1633 191.872 62.7571C192.743 62.0291 193.63 60.7491 192.438 58.9801C191.232 57.1893 189.451 57.2218 188.268 57.5068C187.745 57.6329 187.174 57.4172 186.913 56.9471C186.797 56.7379 186.597 56.5714 186.255 56.5424C185.612 56.4877 185.133 55.9612 185.184 55.3184C185.27 54.2161 184.949 52.8343 183.116 52.0872C179.754 50.7171 177.313 53.8646 176.886 56.3329C176.458 58.8014 180.188 60.08 182.443 60.1046C184.1 60.1227 185.201 61.7989 185.669 62.6875Z"
    fill="url(#paint31_linear_6948_1235)" />
  <path d="M185.512 71.8378C185.512 71.8378 186.441 67.5686 188.258 67.5115C190.074 67.4544 191.697 69.0806 189.701 71.3501C187.218 74.1732 185.512 71.8378 185.512 71.8378Z" fill="url(#paint32_linear_6948_1235)" />
  <defs>
    <linearGradient id="paint0_linear_6948_1235" x1="247.939" y1="278.471" x2="53.8893" y2="37.1512" gradientUnits="userSpaceOnUse">
      <stop stop-color="#DAE3FE" />
      <stop offset="1" stop-color="#E9EFFD" />
    </linearGradient>
    <linearGradient id="paint1_linear_6948_1235" x1="129.617" y1="94.5259" x2="83.6321" y2="188.207" gradientUnits="userSpaceOnUse">
      <stop stop-color="#FF928E" />
      <stop offset="1" stop-color="#FE7062" />
    </linearGradient>
    <linearGradient id="paint2_linear_6948_1235" x1="72.4256" y1="67.3856" x2="38.6225" y2="99.1662" gradientUnits="userSpaceOnUse">
      <stop stop-color="#FEBBBA" />
      <stop offset="1" stop-color="#FF928E" />
    </linearGradient>
    <linearGradient id="paint3_linear_6948_1235" x1="45.5366" y1="43.9801" x2="35.4486" y2="69.3195" gradientUnits="userSpaceOnUse">
      <stop stop-color="#09005D" />
      <stop offset="1" stop-color="#1A0F91" />
    </linearGradient>
    <linearGradient id="paint4_linear_6948_1235" x1="8.57394" y1="206.146" x2="-3.42403e-05" y2="206.146" gradientUnits="userSpaceOnUse">
      <stop stop-color="#09005D" />
      <stop offset="1" stop-color="#1A0F91" />
    </linearGradient>
    <linearGradient id="paint5_linear_6948_1235" x1="44.8036" y1="239.912" x2="32.4977" y2="95.8945" gradientUnits="userSpaceOnUse">
      <stop stop-color="#FEBBBA" />
      <stop offset="1" stop-color="#FF928E" />
    </linearGradient>
    <linearGradient id="paint6_linear_6948_1235" x1="48.4081" y1="204.583" x2="34.5347" y2="204.583" gradientUnits="userSpaceOnUse">
      <stop stop-color="#09005D" />
      <stop offset="1" stop-color="#1A0F91" />
    </linearGradient>
    <linearGradient id="paint7_linear_6948_1235" x1="19.9837" y1="242.055" x2="7.67451" y2="97.9994" gradientUnits="userSpaceOnUse">
      <stop stop-color="#FEBBBA" />
      <stop offset="1" stop-color="#FF928E" />
    </linearGradient>
    <linearGradient id="paint8_linear_6948_1235" x1="102.549" y1="-27.0921" x2="86.6921" y2="6.25114" gradientUnits="userSpaceOnUse">
      <stop stop-color="#FF928E" />
      <stop offset="1" stop-color="#FE7062" />
    </linearGradient>
    <linearGradient id="paint9_linear_6948_1235" x1="54.2187" y1="80.4795" x2="11.745" y2="228.154" gradientUnits="userSpaceOnUse">
      <stop stop-color="#09005D" />
      <stop offset="1" stop-color="#1A0F91" />
    </linearGradient>
    <linearGradient id="paint10_linear_6948_1235" x1="46.1567" y1="97.9566" x2="43.845" y2="81.0222" gradientUnits="userSpaceOnUse">
      <stop stop-color="#FEBBBA" />
      <stop offset="1" stop-color="#FF928E" />
    </linearGradient>
    <linearGradient id="paint11_linear_6948_1235" x1="50.9112" y1="78.3682" x2="64.0093" y2="104.617" gradientUnits="userSpaceOnUse">
      <stop stop-color="#FEBBBA" />
      <stop offset="1" stop-color="#FF928E" />
    </linearGradient>
    <linearGradient id="paint12_linear_6948_1235" x1="52.0067" y1="76.1241" x2="31.825" y2="40.1596" gradientUnits="userSpaceOnUse">
      <stop stop-color="#FEBBBA" />
      <stop offset="1" stop-color="#FF928E" />
    </linearGradient>
    <linearGradient id="paint13_linear_6948_1235" x1="47.6579" y1="44.8246" x2="37.5698" y2="70.164" gradientUnits="userSpaceOnUse">
      <stop stop-color="#09005D" />
      <stop offset="1" stop-color="#1A0F91" />
    </linearGradient>
    <linearGradient id="paint14_linear_6948_1235" x1="47.7023" y1="78.5397" x2="27.5205" y2="42.5751" gradientUnits="userSpaceOnUse">
      <stop stop-color="#FEBBBA" />
      <stop offset="1" stop-color="#FF928E" />
    </linearGradient>
    <linearGradient id="paint15_linear_6948_1235" x1="165.593" y1="199.94" x2="221.374" y2="259.548" gradientUnits="userSpaceOnUse">
      <stop stop-color="#09005D" />
      <stop offset="1" stop-color="#1A0F91" />
    </linearGradient>
    <linearGradient id="paint16_linear_6948_1235" x1="183.582" y1="204.229" x2="178.671" y2="204.276" gradientUnits="userSpaceOnUse">
      <stop stop-color="#FEBBBA" />
      <stop offset="1" stop-color="#FF928E" />
    </linearGradient>
    <linearGradient id="paint17_linear_6948_1235" x1="160.591" y1="132.056" x2="208.164" y2="195.355" gradientUnits="userSpaceOnUse">
      <stop stop-color="#09005D" />
      <stop offset="1" stop-color="#1A0F91" />
    </linearGradient>
    <linearGradient id="paint18_linear_6948_1235" x1="177.888" y1="188.432" x2="233.671" y2="248.043" gradientUnits="userSpaceOnUse">
      <stop stop-color="#09005D" />
      <stop offset="1" stop-color="#1A0F91" />
    </linearGradient>
    <linearGradient id="paint19_linear_6948_1235" x1="201.279" y1="203.809" x2="197.039" y2="203.85" gradientUnits="userSpaceOnUse">
      <stop stop-color="#FEBBBA" />
      <stop offset="1" stop-color="#FF928E" />
    </linearGradient>
    <linearGradient id="paint20_linear_6948_1235" x1="168.917" y1="125.798" x2="216.49" y2="189.096" gradientUnits="userSpaceOnUse">
      <stop stop-color="#09005D" />
      <stop offset="1" stop-color="#1A0F91" />
    </linearGradient>
    <linearGradient id="paint21_linear_6948_1235" x1="200.108" y1="17.9738" x2="192.975" y2="52.098" gradientUnits="userSpaceOnUse">
      <stop stop-color="#FF928E" />
      <stop offset="1" stop-color="#FE7062" />
    </linearGradient>
    <linearGradient id="paint22_linear_6948_1235" x1="162.15" y1="76.4653" x2="137.058" y2="76.7039" gradientUnits="userSpaceOnUse">
      <stop stop-color="#FEBBBA" />
      <stop offset="1" stop-color="#FF928E" />
    </linearGradient>
    <linearGradient id="paint23_linear_6948_1235" x1="142.608" y1="72.4506" x2="159.77" y2="110.564" gradientUnits="userSpaceOnUse">
      <stop stop-color="#FEBBBA" />
      <stop offset="1" stop-color="#FF928E" />
    </linearGradient>
    <linearGradient id="paint24_linear_6948_1235" x1="137.018" y1="59.7621" x2="129.903" y2="49.0331" gradientUnits="userSpaceOnUse">
      <stop stop-color="#FEBBBA" />
      <stop offset="1" stop-color="#FF928E" />
    </linearGradient>
    <linearGradient id="paint25_linear_6948_1235" x1="223.704" y1="22.9058" x2="216.571" y2="57.0301" gradientUnits="userSpaceOnUse">
      <stop stop-color="#FF928E" />
      <stop offset="1" stop-color="#FE7062" />
    </linearGradient>
    <linearGradient id="paint26_linear_6948_1235" x1="217.392" y1="111.435" x2="185.64" y2="111.737" gradientUnits="userSpaceOnUse">
      <stop stop-color="#FEBBBA" />
      <stop offset="1" stop-color="#FF928E" />
    </linearGradient>
    <linearGradient id="paint27_linear_6948_1235" x1="192.687" y1="77.7668" x2="180.133" y2="77.8863" gradientUnits="userSpaceOnUse">
      <stop stop-color="#FEBBBA" />
      <stop offset="1" stop-color="#FF928E" />
    </linearGradient>
    <linearGradient id="paint28_linear_6948_1235" x1="177.126" y1="91.2861" x2="159.649" y2="164.203" gradientUnits="userSpaceOnUse">
      <stop stop-color="#09005D" />
      <stop offset="1" stop-color="#1A0F91" />
    </linearGradient>
    <linearGradient id="paint29_linear_6948_1235" x1="189.131" y1="110.574" x2="179.205" y2="110.574" gradientUnits="userSpaceOnUse">
      <stop stop-color="#FEBBBA" />
      <stop offset="1" stop-color="#FF928E" />
    </linearGradient>
    <linearGradient id="paint30_linear_6948_1235" x1="182.055" y1="59.9022" x2="180.61" y2="87.1041" gradientUnits="userSpaceOnUse">
      <stop stop-color="#FEBBBA" />
      <stop offset="1" stop-color="#FF928E" />
    </linearGradient>
    <linearGradient id="paint31_linear_6948_1235" x1="188.291" y1="71.9778" x2="173.286" y2="59.3111" gradientUnits="userSpaceOnUse">
      <stop stop-color="#09005D" />
      <stop offset="1" stop-color="#1A0F91" />
    </linearGradient>
    <linearGradient id="paint32_linear_6948_1235" x1="189.367" y1="88.566" x2="188.008" y2="69.7386" gradientUnits="userSpaceOnUse">
      <stop stop-color="#FEBBBA" />
      <stop offset="1" stop-color="#FF928E" />
    </linearGradient>
  </defs>
</svg>