<?xml version="1.0" encoding="UTF-8"?>
<svg id="Calque_1" data-name="Calque 1" xmlns="http://www.w3.org/2000/svg" viewBox="0 0 2178.24 595.28">
  <defs>
    <style>
      .cls-1 {
        fill: #000091;
      }

      .cls-2 {
        fill: #fff;
      }

      .cls-3 {
        fill: #e1000f;
      }

      .cls-4 {
        fill: #1f356c;
      }

      .cls-5 {
        fill: gray;
      }
    </style>
  </defs>
  <g>
    <g>
      <path
        d="M157.38,279.45v-11.16h-16.83v-12.17h30.18v28.08c-6.13,8.23-16.37,13.45-28.72,13.45-21.4,0-36.04-16.01-36.04-34.85s14.27-34.85,35.12-34.85c11.98,0,21.77,5.4,27.81,13.35l-10.52,8.23c-3.75-5.4-9.7-9.06-17.29-9.06-12.44,0-21.31,9.7-21.31,22.32s9.33,22.32,22.23,22.32c6.22,.09,11.62-2.01,15.37-5.67Z" />
      <path
        d="M250.13,262.9c0,18.84-14.27,34.85-35.03,34.85s-35.12-16.01-35.12-34.85,14.27-34.85,35.12-34.85c20.85,0,35.03,16.01,35.03,34.85Zm-13.72,0c0-12.62-8.87-22.32-21.22-22.32s-21.31,9.7-21.31,22.32,8.87,22.32,21.31,22.32c12.35,0,21.22-9.7,21.22-22.32Z" />
      <path
        d="M301.26,229.88h13.35v40.15c0,17.38-10.15,27.71-26.8,27.71s-26.71-10.34-26.71-27.71v-40.15h13.35v41.34c0,8.87,5.03,14.09,13.35,14.09s13.26-5.21,13.26-14.09v-41.34h.18Z" />
      <path d="M337.3,229.88l19.48,51.59,19.48-51.59h14.27l-24.97,66.04h-17.56l-24.97-66.04h14.27Z" />
      <path d="M400.87,229.88h38.51v11.43h-25.06v15.28h21.31v11.43h-21.31v16.46h25.06v11.43h-38.51v-66.04Z" />
      <path
        d="M455.02,229.88h20.21c14.54,0,23.51,7.41,23.51,19.67,0,7.96-3.84,13.9-10.52,17.1l20.76,29.27h-16.01l-17.56-26.71h-6.86v26.71h-13.35v-66.04h-.18Zm13.35,11.43v16.46h7.5c5.67,0,8.96-3.02,8.96-8.42,0-5.03-3.29-8.14-8.96-8.14l-7.5,.09h0Z" />
      <path d="M517.22,229.88h17.2l29.54,47.29v-47.29h13.35v66.04h-17.2l-29.54-47.47v47.47h-13.35v-66.04h0Z" />
      <path d="M595.88,229.88h38.51v11.43h-25.06v15.28h21.31v11.43h-21.31v16.46h25.06v11.43h-38.51v-66.04Z" />
      <path
        d="M650.03,229.88h16.92l15.92,27.17,15.92-27.17h16.92v66.04h-13.35v-46.92l-14.82,24.24h-9.42l-14.73-24.33v46.92h-13.35v-65.95Z" />
      <path d="M734.18,229.88h38.42v11.43h-25.06v15.28h21.31v11.43h-21.31v16.46h25.06v11.43h-38.42v-66.04Z" />
      <path d="M788.23,229.88h17.2l29.54,47.29v-47.29h13.35v66.04h-17.2l-29.54-47.47v47.47h-13.35v-66.04h0Z" />
      <path d="M860.13,229.88h54.15v12.17h-20.4v53.87h-13.35v-53.87h-20.4v-12.17Z" />
    </g>
    <g>
      <path class="cls-4" d="M193.14,172.8q.09,0,0,0c.37-.18,.55-.27,.73-.46h-.09c-.18,.09-.37,.27-.64,.46" />
      <path class="cls-4" d="M226.71,161.64l-.18,.18c.09,0,.18-.09,.18-.18" />
      <path class="cls-1"
        d="M216.1,173.35c1.01-1.01,2.01-2.01,2.93-3.11h0c1.83-2.1,3.66-4.02,5.76-5.85,.64-.55,1.28-1.1,1.92-1.46,.18-.18,.18-.55,.37-.73-.82,.37-1.37,1.01-2.29,1.37-.18,0-.37-.18-.18-.37,.64-.46,1.28-.91,1.83-1.37h-.09c-.18,0-.18-.18-.18-.37-2.29-.37-3.93,1.19-5.49,2.56-.37,.18-.73-.18-.82-.18-2.56,.82-4.48,3.11-7.04,4.12v-.37c-1.01,.37-2.01,1.01-3.11,1.19-1.55,.37-2.93,.18-4.3,.18-2.1,.18-4.21,.64-6.31,1.1q-.09,0-.18,.09c-1.1,.27-2.2,.73-3.2,1.28l-.09,.09-.27,.27c-.37,.37-.73,.82-1.19,1.01-1.1,.55-1.92,1.46-2.84,2.29-.09,.09-.18,.09-.27,.09-.91,.91-1.83,1.83-2.74,2.65-.09,.09-.37,.09-.55,.09h0c0-.09,.09-.09,.09-.18,.18-.27,.27-.46,.46-.73s.37-.55,.55-.82c.27-.37,.46-.73,.73-1.01,.09-.09,.09-.18,0-.18-.09-.09-.18-.09-.27-.09,.82-.82,1.92-1.55,2.93-2.2h0c-.09,0-.27-.09-.18-.18,.09-.18,.18-.27,.27-.46q0-.09,.09-.18c0-.09-.09-.09-.09-.18-.27,.18-.55,.37-.82,.55-.46,.37-.73,1.1-1.37,1.1h-.27c-.09,0-.18,0-.18-.09h0v-.09h0c0-.09,.09-.09,.09-.18s.09-.09,.09-.18c0,0,0-.09,.09-.09,0-.09,.09-.18,.09-.18,0-.09,.09-.09,.09-.18,.09-.09,.18-.27,.18-.37s.09-.09,.09-.18c.09-.09,.09-.18,.18-.27,.09-.18,0-.27-.09-.27,.27-.46,.73-.73,1.19-1.01h-.09c.64-.37,1.37-.73,2.01-1.1l.27-.27c-1.01,.37-1.83,.82-2.74,1.37,0,0-.18,.09-.27,.18,0,0-.18,.09-.46-.18v-.09c.18-.37,.73-.55,1.01-.82,.18,0,.37,0,.37,.18,5.58-4.3,13.17-3.29,19.57-5.49,.55-.37,1.01-.73,1.55-1.01,.82-.37,1.55-1.19,2.56-1.74,1.37-1.01,2.38-2.29,2.93-3.93,0-.18-.18-.37-.18-.37-2.29,2.38-4.85,4.3-7.59,5.67-3.66,1.92-7.59,1.55-11.43,2.1,.18-.37,.55-.37,.82-.37,0-.55,.37-.73,.73-1.01h.55c.18,0,.18-.37,.37-.37,.37,0,.91-.18,.73-.18-.55-.73-1.55,.55-2.38,0,.37-.37,.18-.82,.55-1.01h.73c0-.37,.37-.73,.37-.73,2.56-1.55,5.03-2.74,7.41-4.12-.55,0-.82,.55-1.37,.18,.37,0,0-.55,.37-.55,1.92-.55,3.48-1.55,5.4-2.29-.73,0-1.19,.55-1.92,0,.37-.18,.55-.55,1.01-.55v-.55c0-.18,.18-.18,.37-.18-.18,0-.37-.18-.37-.18,.18-.37,.73-.18,1.01-.55-.18,0-.55,0-.55-.18,.55-.73,1.37-.82,2.29-1.01-.18-.37-.73,0-.73-.37,0-.18,.18-.18,.37-.18h-.37c-.37-.18-.18-.55-.18-.73,1.01-1.19,1.01-2.74,1.55-4.12-.18,0-.37,0-.37-.18-1.74,1.92-4.48,2.56-7.04,3.29h-1.19c-.82,.37-2.1,.37-2.93-.18-.73-.37-1.01-.82-1.74-1.37-1.37-.82-2.74-1.55-4.3-2.1-4.3-1.37-8.78-2.1-13.26-1.92,1.92-1.01,4.02-1.1,6.04-1.74,2.93-.82,5.67-1.92,8.78-1.74-.55-.18-1.19,0-1.74,0-2.38-.18-4.85,.55-7.41,1.01-1.74,.37-3.29,1.01-5.03,1.37-1.01,.37-1.55,1.37-2.74,1.19v-.55c1.74-2.1,3.84-4.12,6.59-4.3,3.11-.55,6.04,0,9.15,.37,2.29,.18,4.3,.73,6.59,1.19,.82,0,1.01,1.37,1.74,1.55,1.01,.37,2.1,0,3.11,.73,0-.37-.18-.73,0-1.01,.73-.73,1.55,.18,2.29-.18,1.37-.82-1.19-2.38-1.92-3.66,0-.18,.18-.37,.18-.37,1.37,1.19,2.38,2.56,4.12,3.48,.82,.37,2.93,.82,2.56-.18-.82-1.92-2.56-3.48-4.02-5.21v-.73c-.37,0-.37-.18-.55-.37v-.73c-.73-.37-.55-1.01-.82-1.55-.55-.82-.18-2.1-.55-3.11-.37-1.01-.55-1.92-.73-2.93-.55-2.93-1.19-5.49-1.55-8.32-.37-3.29,1.92-5.85,3.48-8.78,1.19-2.1,2.56-4.12,4.85-5.49,.55-2.1,1.92-3.84,3.29-5.49s3.66-2.74,5.31-3.48c2.38-1.1,4.57-1.74,4.57-1.74H111.37v91.47h84.79c3.29-2.38,6.59-3.48,11.16-5.76,2.2-.91,7.13-3.2,8.78-4.85m-26.53-12.44c-.37,0-1.01,.18-.82-.18,.18-.82,1.37-.82,2.1-1.19,.37-.18,.82-.55,1.19-.37,.37,.55,.82,.37,1.19,.73-1.1,1.01-2.47,.55-3.66,1.01m-26.53-3.75s-.18-.18-.18-.37c2.29-2.93,3.93-5.67,5.58-8.78,2.29-1.19,4.12-2.93,5.85-4.85,2.93-3.11,6.04-5.85,9.7-7.59,1.37-.55,3.11-.37,4.48,.18-.55,.73-1.37,.55-2.1,1.01-.18,0-.37,0-.55-.18,.18-.18,.18-.37,.18-.55-1.74,1.92-4.12,2.74-5.49,5.03-1.01,1.74-1.74,3.93-3.93,4.48-.73,.18,.18-.55-.18-.37-5.4,3.29-9.15,7.32-13.35,11.98m14.36-11.43c-.18,.37-.37,.37-.55,.73-.18,.37-.37,.55-.73,.73-.18,0-.37,0-.37-.18,.18-.73,.73-1.37,1.37-1.55,.27-.09,.27,.09,.27,.27m8.05,25.89c-.09,.18-.27,.37-.46,.55,.18,0,.37,.18,.18,.27-.37,.37-.82,.73-1.28,.91h-.27c-.18,.18-.46,.37-.64,.64-.18,.18-1.19,.09-.91-.18,.46-.37,.82-.82,1.28-1.19,.27-.18,.55-.46,.73-.73,.09-.18,.18-.27,.37-.37,.27-.18,1.19-.27,1.01,.09m-3.11-1.37h0c-.73,.46-1.37,.91-2.01,1.37-.73,.46-1.55,.73-2.29,1.1h0c-.09-.09-.18-.09-.27-.09-.64,.37-1.19,.82-1.74,1.37l-.27,.27h0l-.27,.27h0l-.37,.37c-.09,.09-.09,.18-.27,.27-.09,.09-.37,.09-.37-.09h0c-.09,.09-.18,.09-.27,.18-.09,.09-.18,.09-.27,.18h-.18c-.18,.18-.46,.37-.64,.55-.37,.37-.73,.64-1.01,1.1h0v.09l-.09,.09s0,.09-.09,.09h0c0,.09-.09,.09-.09,.18h0s-.09,.09-.18,.09l-.09-.09s0-.09-.09-.09c-.09-.09-.09-.18-.18-.27h0v-.09c.18-.18,.37-.37,.55-.64h0c.09-.09,.09-.18,.18-.18,.09-.09,.18-.27,.27-.37,0-.09,.09-.09,.09-.18,.18-.27,.37-.46,.55-.73h0l.09-.09c.09-.09,.18-.27,.27-.37,.09-.09,.09-.18,.18-.37h0v-.09c.09-.18,.09-.27,.18-.37h0v-.09q0-.09,.09-.18h0c0-.09,0-.18,.09-.27v-.09c.18-.37,.46-.64,.73-.91h-.09c-.27,.18-.46,.37-.64,.55s-.55-.09-.27-.27c.18-.09,.27-.27,.37-.37h0c.27-.27,.55-.64,.91-.91,.18-.18,.37-.27,.55-.37l.09-.09c.09-.18,.27-.27,.37-.46h0c1.65-1.55,4.48-1.55,6.59-2.56,.82-.37,1.92,.18,2.74,0,.55,0,1.01,0,1.55,.37-1.55,.27-2.93,1.28-4.39,2.2m3.57-12.07c-.18-.18,.55,0,.73-.37h-1.37c-.18,0-.18-.18-.18-.37-.82,.18-1.92,.55-2.74,.73-1.19,.37-2.29,1.19-3.66,1.55-1.92,.73-3.48,2.29-5.49,2.93-.18,0-.18-.18-.18-.37,.18-.55,.82-.73,1.19-1.19,0-.18,0-.37-.18-.37,1.37-1.92,3.29-2.93,5.03-4.48v-.55c.55-.73,1.37-1.01,1.74-1.92,.18-.55,.91-1.19,1.74-1.55-.18-.18-.55-.18-.55-.55-.73,0-1.37,.37-2.1-.18,.37-.27,.73-.46,1.1-.64-.18,0-.27-.09-.37-.27-.18-.37,.37-.73,.82-.82,.73-.18,1.55-.18,2.1-.73-1.19-.18-2.56,.37-3.84-.37,.82-2.29,2.29-4.12,4.3-5.21,.18,0,.55,0,.55,.18,0,.82-.55,1.55-1.37,1.74,1.37,.37,2.74,.37,4.12,1.01-.18,.37-.55,.18-.73,.18,.82,.55,1.92,.18,2.74,.82-.55,.55-1.01,0-1.55,0,5.4,1.55,11.07,2.74,15.55,6.22-3.84,1.92-7.77,2.74-11.89,3.66-.55,0-.82,0-1.37-.18,0,.18,0,.55-.18,.55-.73,0-1.19,0-1.74,.37-.64,.55-1.65,.73-2.2,.18" />
      <path class="cls-3"
        d="M363.64,92.68h-98.33s.18,0,.91,.46c.82,.46,1.83,1.01,2.47,1.28,1.28,.64,2.47,1.46,3.29,2.74,.37,.55,.82,1.55,.55,2.29-.37,.82-.55,2.29-1.37,2.56-1.01,.55-2.38,.55-3.66,.37-.73,0-1.37-.18-2.1-.37,2.56,1.01,5.03,2.29,6.77,4.66,.18,.37,.82,.55,1.55,.55,.18,0,.18,.37,.18,.55-.37,.37-.73,.55-.55,1.01h.55c.82-.37,.73-2.1,1.92-1.55,.82,.55,1.19,1.74,.73,2.56-.73,.73-1.37,1.19-2.1,1.74-.18,.37-.18,.82,0,1.19,.55,.73,.73,1.37,.82,2.1,.55,1.19,.73,2.56,1.19,3.84,.73,2.56,1.37,5.21,1.19,7.77,0,1.37-.73,2.56-.18,3.93,.37,1.37,1.19,2.38,1.92,3.66,.73,1.01,1.37,1.74,1.92,2.74,1.01,1.74,2.93,3.48,2.1,5.49-.55,1.19-2.38,1.01-3.66,1.74-1.01,.82-.18,2.29,.37,3.11,.82,1.55-1.01,2.56-2.29,3.11,.37,.55,1.01,.37,1.19,.73,.18,.82,1.01,1.37,.55,2.29-.73,1.01-2.74,1.55-1.74,3.11,.73,1.19,.27,2.56-.18,3.84-.55,1.55-1.92,2.29-3.11,2.56-1.01,.37-2.29,.37-3.29,.18-.37-.18-.73-.37-1.01-.37-2.93-.37-5.85-1.19-8.78-1.19-.82,.18-1.74,.37-2.38,.64-.82,.55-1.46,1.19-2.1,1.83h0c-.09,.18-.27,.27-.37,.46-.09,.09-.18,.18-.18,.27q-.09,.09-.18,.18c-.55,.64-.91,1.28-1.37,2.01,0,.09-.09,.09-.09,.09,0,.09-.09,.18-.18,.27-.55,1.01-1.01,2.1-1.28,3.2-1.19,3.93-.64,7.32,.18,8.14,.18,.18,5.67,1.92,9.51,3.66,1.83,.82,3.02,1.37,4.12,2.1h96.59V92.68h-.09Z" />
      <path class="cls-5"
        d="M271.17,125.97c.73,.18,1.74,.18,1.74,.55-.37,1.37-2.38,1.74-3.48,3.11h-.55c-.55,.37-.37,1.19-.82,1.19-.55-.18-1.01,0-1.55,.18,.73,.73,1.55,1.19,2.56,1.01,.18,0,.55,.37,.55,.73,0,0,.18,0,.37-.18,.18,0,.37,0,.37,.18v.73c-.55,.73-1.37,.37-2.1,.55,1.37,.37,2.74,.37,4.02,0,1.01-.37,0-2.1,.73-2.93-.37,0,0-.55-.37-.55,.37-.37,.73-.82,1.01-1.01,.37,0,.82-.18,1.01-.55,0-.37-.73-.55-.55-.82,1.01-.73,1.92-1.74,1.55-2.74-.18-.55-1.55-.55-2.38-.91-.82-.37-1.92,0-2.93,.18-.82,0-1.74,.55-2.56,.73-1.19,.37-2.29,1.01-3.29,1.74,1.19-.55,2.38-.73,3.75-1.01,1.01-.18,1.83-.37,2.93-.18" />
      <path
        d="M335.56,479.22c2.01,0,3.75,1.55,2.84,5.12l-9.24,2.47c1.46-4.39,4.21-7.59,6.4-7.59m5.12,15h-1.83c-2.29,2.74-4.85,4.94-7.32,4.94s-3.84-1.55-3.84-4.94c0-1.37,.18-2.84,.46-4.12l15-4.94c2.93-6.95-.64-9.97-4.76-9.97-7.13,0-15.18,12.44-15.18,22.23,0,4.66,2.2,7.23,5.67,7.23,4.12,0,8.32-3.93,11.8-10.43m-2.38-22.32l8.51-7.77v-1.1h-5.67l-5.03,8.96,2.2-.09h0Zm-31.92,7.5h4.94l-7.87,21.59c-.73,1.83,.27,3.66,2.2,3.66,5.58,0,12.26-4.76,14.82-11.52h-1.37c-2.01,2.84-6.4,5.95-9.7,6.59l7.23-20.31h7.41l.91-3.11h-7.23l2.74-7.77h-2.84l-5.12,7.77-6.13,.82v2.29h0Zm-5.12-1.1c.64-2.01-.73-3.11-1.74-3.11-4.3,0-9.51,3.93-11.52,9.33h1.37c1.37-2.01,3.75-4.21,6.04-4.57l-8.32,21.59c-.73,2.01,.73,3.11,1.83,3.11,4.12,0,8.96-3.93,10.98-9.33h-1.37c-1.37,2.01-3.75,4.21-6.04,4.57l8.78-21.59Zm.82-8.6c1.83,0,3.38-1.55,3.38-3.38s-1.55-3.38-3.38-3.38c-1.92,0-3.38,1.55-3.38,3.38,0,1.92,1.46,3.38,3.38,3.38m-40.15,11.52c1.28,0,2.01,2.01,0,6.49l-5.85,12.99c-1.1,2.47,.09,4.02,2.47,4.02,1.46,0,2.1-.37,2.74-1.92l5.76-15.18c2.65-3.29,7.59-6.77,9.79-6.77,1.55,0,1.37,1.28,.37,3.29l-8.87,16.92c-.82,1.65,.27,3.66,2.2,3.66,4.3,0,9.51-3.93,11.52-9.33h-1.55c-1.37,2.01-3.75,4.21-6.04,4.57l7.59-15.37c1.01-1.92,1.46-3.75,1.46-5.21,0-2.47-1.37-4.12-4.02-4.12-3.75,0-6.95,4.21-11.52,9.42v-4.02c0-2.84-.91-5.4-3.48-5.4-3.02,0-5.76,4.76-7.96,9.33h1.37c1.55-2.2,2.93-3.38,4.02-3.38m-5.95,.55c1.01-3.57,.46-6.59-2.2-6.59-3.38,0-4.48,2.29-7.77,9.42v-4.02c0-2.84-.91-5.4-3.48-5.4-3.02,0-5.76,4.76-7.96,9.33h1.37c1.46-2.1,2.84-3.38,3.93-3.38,1.28,0,2.01,2.01,0,6.49l-5.85,12.99c-1.1,2.47,.09,4.02,2.47,4.02,1.46,0,2.1-.37,2.74-1.92l5.58-15.18c1.65-2.01,3.11-3.75,4.94-5.67l6.22-.09h0Zm-31.92-2.56c2.01,0,3.75,1.55,2.84,5.12l-9.24,2.47c1.55-4.39,4.21-7.59,6.4-7.59m5.12,15h-1.83c-2.29,2.74-4.85,4.94-7.32,4.94s-3.84-1.55-3.84-4.94c0-1.37,.18-2.84,.46-4.12l15-4.94c2.93-6.95-.55-9.97-4.76-9.97-7.13,0-15.18,12.44-15.18,22.23,0,4.66,2.2,7.23,5.67,7.23,4.12,0,8.32-3.93,11.8-10.43m-34.3-14.82h4.94l-7.87,21.59c-.73,1.83,.27,3.66,2.2,3.66,5.58,0,12.35-4.76,14.82-11.52h-1.37c-2.01,2.84-6.4,5.95-9.7,6.59l7.23-20.31h7.41l.91-3.11h-7.23l2.74-7.77h-2.84l-5.12,7.77-6.13,.82s0,2.29,0,2.29Zm-26.25,16.83c0-6.68,7.41-15.73,11.62-15.73,.91,0,1.83,.09,2.56,.37l-4.3,11.52c-2.47,3.02-6.31,6.68-8.14,6.68-1.1,0-1.74-.82-1.74-2.84m22.78-22.32l-2.29-.18-2.56,2.56h-.46c-10.88,0-22.59,13.54-22.59,24.24,0,2.47,1.37,4.12,4.02,4.12,3.2,0,6.31-4.57,9.88-9.42l-.18,1.74c-.46,4.94,1.1,7.68,3.66,7.68,3.02,0,5.76-4.76,7.87-9.33h-1.37c-1.46,2.1-2.84,3.38-3.93,3.38s-1.92-2.1,0-6.49l7.96-18.29Zm-23.32,7.87c1.01-3.57,.46-6.59-2.2-6.59-3.38,0-4.48,2.29-7.77,9.42v-4.02c0-2.84-.91-5.4-3.57-5.4-3.02,0-5.76,4.76-7.87,9.33h1.37c1.46-2.1,2.84-3.38,3.93-3.38,1.28,0,2.01,2.01,0,6.49l-5.95,13.08c-1.1,2.47,.09,4.02,2.47,4.02,1.46,0,2.1-.37,2.74-1.92l5.76-15.28c1.65-2.01,3.11-3.75,4.94-5.67l6.13-.09h0Zm-38.32,21.86l.55-1.65c-7.23-1.37-8.14-1.37-5.21-9.24l2.74-7.41h5.76c3.57,0,3.66,1.55,3.11,5.49h2.1l4.76-13.08h-2.1c-1.83,3.11-3.2,5.49-7.13,5.49h-5.76l3.93-10.7c1.37-3.84,2.01-4.57,6.95-4.57h1.28c5.03,0,5.67,1.37,5.67,6.68h2.01l1.65-8.87h-27.9l-.55,1.65c5.76,1.19,6.31,1.74,3.66,9.24l-5.95,16.19c-2.74,7.41-3.84,8.05-10.52,9.24l-.46,1.65,21.4-.09h0Z" />
      <path
        d="M268.15,416.2c2.01,0,3.75,1.55,2.84,5.12l-9.24,2.47c1.46-4.39,4.21-7.59,6.4-7.59m5.12,15h-1.83c-2.29,2.74-4.85,4.94-7.32,4.94s-3.84-1.55-3.84-4.94c0-1.37,.18-2.84,.46-4.12l15-4.94c2.93-6.95-.64-9.97-4.76-9.97-7.13,0-15.18,12.44-15.18,22.23,0,4.66,2.2,7.23,5.67,7.23,4.12,.09,8.32-3.93,11.8-10.43m-2.38-22.32l8.51-7.77v-1.1h-5.67l-5.03,8.96,2.2-.09h0Zm-31.92,7.5h4.94l-7.87,21.59c-.73,1.83,.27,3.66,2.2,3.66,5.58,0,12.26-4.76,14.82-11.52h-1.37c-2.01,2.84-6.4,5.95-9.7,6.59l7.23-20.31h7.41l.91-3.11h-7.23l2.74-7.77h-2.84l-5.12,7.77-6.13,.91v2.2h0Zm-5.12-1.01c.64-2.01-.73-3.11-1.83-3.11-4.3,0-9.51,3.93-11.52,9.33h1.37c1.37-2.01,3.75-4.21,6.04-4.57l-8.32,21.59c-.73,2.01,.73,3.11,1.83,3.11,4.12,0,8.96-3.93,10.98-9.33h-1.37c-1.37,2.01-3.75,4.21-6.04,4.57l8.87-21.59Zm.82-8.6c1.83,0,3.38-1.55,3.38-3.38s-1.55-3.38-3.38-3.38c-1.92,0-3.38,1.55-3.38,3.38s1.46,3.38,3.38,3.38m-26.53,30.18l13.72-36.4-.46-.64-9.51,1.1v1.1l1.83,1.37c1.65,1.28,1.1,2.47-.37,6.59l-10.43,27.81c-.91,1.65,.27,3.66,2.2,3.66,4.3,0,8.96-3.93,10.98-9.33h-1.37c-1.46,2.1-4.39,4.3-6.59,4.76m-27.99-3.75c0-6.68,7.41-15.73,11.62-15.73,.91,0,1.74,.09,2.56,.37l-4.39,11.52c-2.47,3.02-6.31,6.68-8.14,6.68-1.01,.09-1.65-.82-1.65-2.84m22.78-22.23l-2.29-.18-2.56,2.56h-.46c-10.88,0-22.59,13.54-22.59,24.24,0,2.47,1.37,4.12,4.02,4.12,3.2,0,6.31-4.57,9.88-9.42l-.18,1.74c-.46,4.94,1.1,7.68,3.66,7.68,3.02,0,5.76-4.76,7.87-9.33h-1.37c-1.46,2.1-2.84,3.38-3.93,3.38s-1.92-2.1,0-6.4l7.96-18.38Zm-52.96,35.95c0-2.84,2.74-4.66,6.68-6.22,1.28,.64,3.29,1.37,5.85,2.2,4.12,1.37,5.67,1.92,5.67,3.11,0,2.65-3.75,4.66-10.61,4.66-5.12,.09-7.59-1.01-7.59-3.75m11.25-17.47c-1.83,0-2.47-1.55-2.47-3.29,0-5.4,2.56-11.89,6.68-11.89,1.83,0,2.47,1.55,2.47,3.29,0,5.31-2.65,11.89-6.68,11.89m11.71,14.82c0-3.48-3.11-4.76-8.14-6.22-4.3-1.28-6.31-1.65-6.31-3.11,0-1.1,.91-2.47,2.74-3.48,7.13-.37,11.62-6.77,11.62-12.44,0-1.01-.18-1.92-.46-2.74h4.85l.91-3.11h-8.23c-1.1-.73-2.47-1.1-4.02-1.1-7.5,0-12.35,6.59-12.35,12.44,0,3.75,2.2,6.31,5.67,6.77-3.48,1.65-5.49,3.38-5.49,5.58,0,1.28,.46,2.2,1.55,3.02-8.05,2.38-11.34,5.4-11.34,8.87,0,3.75,4.94,5.31,10.79,5.31,9.88,.09,18.2-5.31,18.2-9.79m-37.32-21.95c3.57,0,3.66,1.55,3.11,5.49h2.1l4.76-13.08h-2.1c-1.83,3.11-3.2,5.49-7.13,5.49h-7.96l3.93-10.7c1.37-3.84,2.1-4.57,6.95-4.57h3.48c5.03,0,5.67,1.37,5.67,6.68h2.01l1.65-8.87h-29.91l-.55,1.65c5.76,1.19,6.31,1.74,3.66,9.24l-5.95,16.19c-2.74,7.41-3.84,8.05-10.52,9.24l-.46,1.65h33.29l5.95-9.42h-2.29c-3.84,3.84-7.77,7.23-15.18,7.23-8.87,0-8.05-.46-5.12-8.69l2.74-7.41,7.87-.09h0Zm4.3-22.32l8.51-6.22v-1.1h-5.67l-5.03,7.32h2.2Z" />
      <path
        d="M267.05,353.27c2.01,0,3.75,1.55,2.84,5.12l-9.24,2.47c1.46-4.48,4.21-7.59,6.4-7.59m5.12,15h-1.83c-2.29,2.74-4.85,4.94-7.32,4.94s-3.84-1.55-3.84-4.94c0-1.37,.18-2.84,.46-4.12l15-4.94c2.93-6.95-.64-9.97-4.76-9.97-7.13,0-15.18,12.44-15.18,22.23,0,4.66,2.2,7.23,5.67,7.23,4.12,0,8.32-3.93,11.8-10.43m-2.38-22.32l8.51-7.77v-1.1h-5.67l-5.03,8.96,2.2-.09h0Zm-31.92,7.41h5.03l-7.87,21.59c-.73,1.83,.27,3.66,2.2,3.66,5.58,0,12.35-4.76,14.82-11.52h-1.37c-2.01,2.84-6.4,5.95-9.7,6.59l7.23-20.31h7.41l.91-3.11h-7.23l2.74-7.77h-2.84l-5.12,7.77-6.13,.82-.09,2.29h0Zm-2.56,2.47c1.01-3.57,.46-6.59-2.2-6.59-3.38,0-4.48,2.29-7.77,9.42v-4.02c0-2.84-.91-5.4-3.48-5.4-3.02,0-5.76,4.76-7.96,9.33h1.37c1.46-2.1,2.84-3.38,3.93-3.38,1.28,0,2.01,2.01,0,6.49l-5.85,12.99c-1.1,2.47,.09,4.02,2.47,4.02,1.46,0,2.1-.37,2.74-1.92l5.76-15.18c1.65-2.01,3.11-3.75,4.94-5.67l6.04-.09h0Zm-31.92-2.56c2.01,0,3.75,1.55,2.84,5.12l-9.24,2.47c1.46-4.48,4.21-7.59,6.4-7.59m5.12,15h-1.83c-2.29,2.74-4.85,4.94-7.32,4.94s-3.84-1.55-3.84-4.94c0-1.37,.18-2.84,.46-4.12l15-4.94c2.93-6.95-.55-9.97-4.76-9.97-7.13,0-15.18,12.44-15.18,22.23,0,4.66,2.2,7.23,5.67,7.23,4.12,0,8.32-3.93,11.8-10.43m-34.94,6.04c-1.46,0-3.57-1.37-3.57-2.56,0-.37,.64-2.1,1.46-4.21l2.38-6.4c2.56-3.11,6.59-6.49,8.87-6.49,1.37,0,2.38,.91,2.38,2.84-.09,6.04-5.58,16.83-11.52,16.83m16.65-19.12c0-4.39-1.1-6.04-4.21-6.04-3.84,0-7.41,4.12-11.07,9.06l7.68-20.67-.46-.64-9.51,1.1v1.1l1.83,1.37c1.65,1.28,1.1,2.56-.37,6.59l-8.32,21.86c-.73,1.83-1.55,4.02-1.55,4.57,0,2.56,3.48,5.03,6.68,5.03,7.23,.18,19.3-13.08,19.3-23.32m-28.08-2.84c.55-2.01-.73-3.11-1.83-3.11-4.3,0-9.51,3.93-11.52,9.33h1.37c1.37-2.01,3.75-4.21,6.04-4.57l-8.32,21.59c-.73,2.01,.73,3.11,1.83,3.11,4.12,0,8.96-3.93,10.98-9.33h-1.37c-1.37,2.01-3.75,4.21-6.04,4.57l8.87-21.59Zm.91-8.6c1.83,0,3.38-1.55,3.38-3.38s-1.55-3.38-3.38-3.38c-1.92,0-3.38,1.55-3.38,3.38,0,1.83,1.46,3.38,3.38,3.38m-21.13-4.12h-19.76l-.55,1.65c5.76,1.19,6.31,1.74,3.66,9.24l-5.95,16.19c-2.74,7.41-3.84,8.05-10.52,9.24l-.46,1.65h30l6.49-11.62h-2.29c-3.75,4.12-8.05,9.33-14.73,9.33-5.03,0-5.76-.91-2.93-8.69l5.95-16.19c2.74-7.41,3.84-8.05,10.52-9.24l.55-1.55Z" />
    </g>
  </g>
  <g>
    <path
      d="M1153.55,228.58c10.56-.94,20.48-1.59,30.17,.54,9.98,2.19,17.12,8.39,20.29,18.24,5.69,17.66-5.73,34.61-23.63,36.47-8.34,.87-16.83,.23-25.25,.25-.32,0-.64-.29-1.2-.56-.11-.53-.36-1.22-.37-1.91-.02-17.57-.02-35.14-.02-53.03Zm12.22,45.06c5.18,.36,10.43,.88,15.63-.64,8.72-2.55,13.07-10.78,12.22-18.61-.95-8.75-7.25-15.02-15.76-15.66-3.1-.23-6.24-.14-9.36-.1-1.04,.01-2.08,.34-3.04,.51-.82,6.47-.64,30.25,.3,34.49Z" />
    <path
      d="M1569.17,252.95c.05,1.14,.1,2.02,.13,2.91,.24,9.25-6.52,14.09-13.82,14.82-1.27,.13-2.56,.04-3.84,.08-.73,.02-1.62-.13-2.14,.23-.65,.45-1.23,1.28-1.43,2.06-.26,.99,.44,1.76,1.41,2.01,.87,.23,1.8,.3,2.71,.31,2.56,.04,5.13-.06,7.69,.05,2,.09,4.02,.28,5.98,.68,4.82,.99,8.42,3.56,9.9,8.45,1.56,5.18,.31,9.77-3.28,13.73-2.42,2.66-5.55,4.23-8.97,5.08-6.34,1.58-12.71,1.46-18.99-.42-1.56-.47-3.12-1.12-4.49-2-5.56-3.55-6.95-10.34-3.29-15.82,.8-1.2,1.82-2.27,2.94-3.64-.92-2.21-2.15-4.45-1.81-7.14,.34-2.7,2.11-4.56,3.61-6.7-.93-1.31-1.84-2.44-2.59-3.67-4.81-7.9-1.4-17.57,7.28-20.71,3.54-1.28,7.26-1.75,10.81-.71,4.32,1.27,8.65,1.32,13.04,1.34,1.78,0,3.66-.43,5.5,.74,.67,2.23,.48,4.56,.12,7.2-1.05,.21-2.06,.42-3.08,.6-1.04,.18-2.08,.32-3.4,.53Zm-14.21,31c0,.06,0,.13-.01,.19-1.65,0-3.31-.12-4.94,.04-1.04,.1-2.2,.4-3.04,.99-3.57,2.52-3.31,7.6,.64,9.42,5.07,2.34,10.29,2.16,15.41-.12,.33-.15,.6-.41,.89-.64,1.7-1.37,2.53-3.12,2.16-5.3-.39-2.25-1.85-3.6-4.02-3.94-2.34-.37-4.72-.44-7.08-.64Zm-1.84-20.95c4.16-.01,6.95-2.76,6.87-6.76-.07-3.75-2.73-6.3-6.68-6.4-4.17-.1-7.14,2.57-7.2,6.49-.06,3.94,2.82,6.68,7,6.67Z" />
    <path
      d="M1182.22,320.49c3.37-.21,6.25-.38,8.93,.08,.32,.62,.63,.93,.63,1.24,.06,18.7,.1,37.4,.13,56.1,0,.7-.2,1.4-.34,2.29-2.01,.79-4.04,.43-6,.49-1.81,.05-3.72,.28-4.58-1.94-3.91,2.34-7.67,3.42-11.84,3.48-9.6,.15-17.08-5.91-19.53-14.72-1.45-5.24-1.39-10.53,.48-15.69,4.49-12.4,16.72-15.39,26.47-11.97,1.5,.53,2.93,1.26,4.68,2.03,.84-2.64,.43-5.01,.49-7.32,.06-2.2-.02-4.4,.02-6.6,.05-2.35-.26-4.73,.46-7.48Zm-.47,40.01h0c0-1.1-.09-2.2,.02-3.29,.25-2.66-.98-4.57-2.96-6.11-4.12-3.2-8.66-3.95-13.36-1.68-4.67,2.26-6.2,6.59-6.12,11.41,.16,8.64,7.34,13.68,15.51,11.1,4.53-1.43,6.85-4.52,6.91-9.25,0-.73,0-1.46,0-2.19Z" />
    <path
      d="M1455.85,320.63c3.07-.52,5.94-.37,9.14-.13,.19,1.12,.51,2.14,.52,3.17,.06,4.77,.02,9.54,.05,14.31,0,1.23,.16,2.46,.23,3.52,1.35,.73,1.99-.19,2.78-.51,1.69-.68,3.33-1.63,5.08-1.99,10.24-2.11,17.73,3.11,19.45,13.44,.18,1.08,.39,2.18,.39,3.27,.03,7.34,.03,14.67,0,22.01,0,.87-.35,1.73-.56,2.66-3.26,.45-6.29,.54-9.63-.07-.11-1.65-.28-3.07-.29-4.5-.03-5.69,0-11.37-.03-17.06,0-1.46,0-2.95-.27-4.38-.62-3.36-2.92-5.49-6.27-6.08-5.46-.95-10.77,3.3-10.86,8.85-.1,5.87,0,11.74-.04,17.61-.01,1.79-.17,3.57-.26,5.57-3.23,.57-6.1,.48-9.24,.1-.21-.86-.59-1.71-.59-2.56-.02-18.52,0-37.05,.02-55.57,0-.35,.16-.7,.39-1.66Z" />
    <path
      d="M1436.37,242.13c12.61,.09,21.99,9.39,22.02,21.84,.03,12.65-9.61,22.12-22.42,22.02-12.62-.1-21.91-9.35-21.96-21.87-.05-12.74,9.44-22.07,22.36-21.98Zm11.27,21.85c-.02-6.07-3.84-11.02-9.2-11.92-5.86-.99-11.02,1.99-13.01,7.51-2.12,5.9,.09,12.41,5.18,15.22,7.99,4.41,17.06-1.35,17.03-10.81Z" />
    <path
      d="M1616.88,266.16h-26.41c-1.28,1.86-.45,3.16,.15,4.46,.96,2.06,2.46,3.67,4.51,4.62,4.23,1.97,8.51,1.98,12.68-.17,1.28-.66,2.41-1.62,3.82-2.58,2.72,1.05,4.71,3.13,6.88,5.19-1.03,2.47-2.98,3.87-5.02,4.99-8.59,4.73-17.31,4.74-25.52-.57-7.74-5-9.85-12.81-8.96-21.61,.15-1.45,.52-2.89,.96-4.28,4.85-15.12,21.17-16.65,29.98-11.41,7.05,4.2,10.12,13.29,6.92,21.37Zm-9.7-7.78c.81-2.39-.14-3.9-1.44-5.23-1.61-1.65-3.62-2.32-5.92-2.36-2.66-.05-5.11,.51-7,2.47-1.23,1.28-2.59,2.62-1.82,4.96,5.42,.47,10.79,.26,16.17,.16Z" />
    <path
      d="M1831.16,266.36c-.16,4.48,1.96,7.32,5.48,8.95,5.94,2.76,11.39,1.36,16.29-2.94,2.74,1.45,4.96,3.22,6.93,5.56-3.78,5.32-9.16,7.28-15.15,7.97-3.88,.45-7.66-.21-11.32-1.58-10.13-3.78-14.49-14.16-13.06-24.06,.21-1.44,.55-2.89,1.01-4.27,5.01-15.09,21.49-16.4,30.1-11.07,4.7,2.91,7.15,7.28,7.9,12.59,.38,2.68,.57,5.46-.81,8.31-3.01,.7-6.11,.27-9.17,.35-2.93,.07-5.86,0-8.79,.02-3.09,.03-6.18-.13-9.4,.17Zm17.83-8.37c-.39-1.4-.41-2.79-1.09-3.65-.99-1.23-2.32-2.4-3.75-3-4.21-1.77-9.02-.14-11.44,3.76-.5,.8-.44,1.95-.73,3.35,5.15,0,9.86,.02,14.58-.02,.67,0,1.35-.24,2.44-.44Z" />
    <path
      d="M1629.34,382.18c-10.71,.35-18.87-6.48-21.25-14.93-4.3-15.3,5.74-28.42,20.49-28.72,17.29-.35,26.15,15.2,21.73,29.05-2.7,8.46-10.76,14.88-20.97,14.6Zm11.32-21.92c-.04-5.32-2.82-9.61-7.22-11.31-6.79-2.62-16,1.57-15.71,12.1,.15,5.46,3.58,9.76,8.37,11.04,7.87,2.1,14.62-3.39,14.55-11.83Z" />
    <path
      d="M1787.72,382.38c-10.73,.12-18.37-6.61-20.92-14.11-3.95-11.58,.99-24.76,13.2-28.52,12.59-3.88,24.11,1.66,28.25,12.27,4.43,11.33-.54,25.6-14.05,29.38-2.09,.58-4.32,.67-6.48,.98Zm11.37-21.81c.06-5.51-2.85-10.05-7.49-11.69-8.33-2.94-16.55,3.94-15.48,12.96,.62,5.2,3.91,9.15,8.6,10.3,7.68,1.89,14.28-3.43,14.37-11.57Z" />
    <path
      d="M1424.1,382.11c-18.94,.34-27.1-18.97-19.31-32.95,3.22-5.78,8.31-9.15,14.83-10.22,4.01-.66,8.02-.53,11.94,.73,10.39,3.32,15.63,13.36,14.58,23.14-1.17,10.86-9.23,18.6-19.84,19.3-.73,.05-1.46,0-2.19,0Zm11.42-21.66c.02-5.52-2.93-9.96-7.61-11.61-7.42-2.62-16.39,2.86-15.3,13.12,.53,4.93,3.15,8.61,8.12,10.08,7.79,2.3,14.75-3.21,14.79-11.59Z" />
    <path
      d="M1713.52,266.15h-27.54c-.16,4.49,1.84,7.31,5.26,9.04,4.16,2.11,8.5,2.03,12.68-.11,1.44-.74,2.72-1.8,4.25-2.83,2.2,1.73,4.34,3.41,6.74,5.3-.84,1.1-1.35,2.04-2.1,2.73-8.31,7.66-22.08,7.25-30.01,.99-2.8-2.21-4.86-4.98-6.15-8.3-2.58-6.67-2.39-13.33,.66-19.76,5.9-12.41,21.05-13.39,29.21-8.13,3.91,2.52,6.31,6.12,7.31,10.59,.72,3.22,.75,6.51-.32,10.48Zm-9.82-8.2c.46-1.98-.56-3.45-1.83-4.77-1.59-1.67-3.59-2.35-5.88-2.39-2.44-.04-4.73,.37-6.58,2.06-1.46,1.33-2.81,2.8-2.6,5.01,4.46,.8,12.12,.84,16.9,.09Z" />
    <path
      d="M1277.24,266.18c.37,4.17,1.9,6.73,4.65,8.55,2.73,1.81,5.8,2.06,8.98,1.81,3.31-.26,5.82-2.02,8.4-4.21,2.62,1.29,4.75,3.21,7.02,5.36-.98,2.13-2.72,3.43-4.5,4.62-7.59,5.08-19,4.8-26.53-.36-11.79-8.07-11.07-27.88-.98-35.6,6.26-4.8,15.97-5.68,22.87-1.84,4.23,2.36,6.96,5.96,8.1,10.62,.83,3.39,.85,6.87-.09,10.56-1.32,.17-2.54,.46-3.77,.47-6.24,.05-12.48,.02-18.71,.02-1.63,0-3.26,0-5.42,0Zm18.04-7.71c.26-2.85-.85-4.44-2.38-5.79-1.73-1.53-3.83-1.94-6.1-1.89-2.48,.05-4.69,.74-6.4,2.56-1.23,1.3-2.49,2.67-1.95,4.9,.95,.08,1.84,.21,2.72,.21,4.54,.02,9.09,0,14.11,0Z" />
    <path
      d="M1989.88,362.07c-4.38,.64-8.94,.2-13.47,.29-4.56,.09-9.11,.07-13.9,.1-.16,4.19,1.58,7.03,4.78,8.82,6.29,3.52,11.98,1.82,17.21-2.66,1.32,.96,2.52,1.77,3.65,2.67,.99,.79,1.89,1.67,3.07,2.72-.7,.97-1.19,1.94-1.94,2.64-3.47,3.23-7.61,5.15-12.34,5.35-3.09,.13-6.32,.24-9.28-.47-11.88-2.87-16.53-12.64-16.16-22.48,.08-1.99,.45-4.02,.99-5.95,2.36-8.51,9.08-13.92,17.97-14.45,2-.12,4.04-.02,6.02,.29,7.04,1.08,12.32,6.1,13.94,13.07,.65,2.81,.51,5.99-.54,10.05Zm-9.52-8.08c.07-2.17-1.03-3.77-2.62-5.08-1.61-1.33-3.56-1.89-5.6-1.85-2.41,.05-4.73,.63-6.51,2.4-1.27,1.26-2.61,2.58-2.17,4.66,4.81,.81,12.74,.75,16.9-.13Z" />
    <path
      d="M1513.01,362.8c.31,3.66,1.73,6.24,4.42,8.12,2.85,1.99,6.06,2.49,9.44,2.05,3.21-.42,5.76-2.23,8.24-4.31,2.64,1.45,4.83,3.27,6.94,5.52-2.67,4.14-6.51,6.17-10.81,7.25-5.24,1.32-10.58,1.25-15.68-.75-7.46-2.92-11.76-8.53-12.94-16.4-.66-4.39-.45-8.79,1.24-12.99,3.01-7.45,8.45-11.85,16.53-12.53,2.7-.23,5.54-.12,8.18,.44,6.87,1.47,11.89,7.21,12.76,14.17,.34,2.72,.43,5.45-.42,8.45-1.19,.18-2.4,.5-3.62,.51-6.6,.05-13.19,0-19.79,.05-1.4,0-2.79,.24-4.51,.4Zm18.26-8.24c-.22-2.98-1.3-4.6-2.98-5.82-1.84-1.33-3.95-1.87-6.21-1.66-4.72,.43-7.57,3.16-7.62,7.4,5.45,.33,10.89,.22,16.81,.07Z" />
    <path
      d="M1240.59,362.1c-5.3,.48-9.86,.21-14.4,.27-4.52,.06-9.05-.06-13.9,.09,.3,4.88,2.43,7.84,6.2,9.47,5.87,2.54,11.1,1.02,15.77-3.23,2.8,1.21,4.63,3.47,7.24,5.27-2.22,3.43-5.09,5.32-8.32,6.58-5.65,2.22-11.45,2.28-17.23,.49-6.59-2.04-11.05-6.4-13.15-12.94-2.03-6.33-1.8-12.66,1.18-18.7,3.07-6.22,8.14-9.74,15.01-10.6,3.68-.46,7.31-.32,10.82,1.05,6.41,2.5,10.01,7.22,10.78,13.99,.28,2.5,.02,5.06,0,8.26Zm-27.71-7.48c6.28-.08,11.83,.5,17.42-.42-1.19-4.95-3.56-7.2-7.85-7.1-1.92,.05-3.95,.71-5.7,1.56-2.02,.98-3.1,2.92-3.87,5.96Z" />
    <path
      d="M1778.1,258.8c.53-3.36-.82-5.48-3.57-6.8-3.47-1.67-6.8-1-9.95,.91-1.08,.65-2.01,1.55-3.19,2.49-2.74-1.11-4.65-3.33-7.1-4.97,1.52-3.12,3.96-4.73,6.6-6.01,5.14-2.5,10.53-3.01,16.07-1.54,7.2,1.91,11.21,6.68,11.84,14.07,.08,.91,.05,1.83,.05,2.75,0,6.61,.01,13.21,0,19.82,0,1.26-.1,2.52-.17,4.08-3.19,.98-6.24,.75-9.26,.26-.56-.09-1-.98-1.71-1.73-1.12,.6-2.35,1.28-3.6,1.91-4.49,2.26-9.14,2.65-13.86,.85-4.3-1.64-6.84-4.82-7.43-9.42-.59-4.59,.98-8.3,4.76-11.01,2.91-2.09,6.3-2.91,9.75-3.51,2.71-.47,5.44-.85,8.14-1.33,.86-.15,1.69-.51,2.63-.8Zm-.52,7.92c-3.3,.59-6.67,1.17-10.02,1.81-.7,.13-1.39,.43-2.02,.76-1.84,.96-2.85,2.69-2.61,4.37,.26,1.91,1.89,3.46,4.09,3.77,2.99,.42,5.84-.04,8.21-2.02,1.09-.91,2.23-1.98,2.79-3.23,.73-1.63,.79-3.51-.44-5.47Z" />
    <path
      d="M1909.74,354.84c.03-3.1-1.11-5.3-3.72-6.44-3-1.31-6.1-1.22-9.02,.29-1.44,.74-2.69,1.86-4.29,3-2.51-1.09-4.65-2.97-6.73-4.91,2.34-4.13,5.86-6.65,10.8-7.67,3.63-.76,7.29-.79,10.93-.07,6.98,1.37,12.08,6.59,12.32,13.58,.31,8.96-.02,17.94-.09,26.92,0,.15-.19,.3-.57,.85-1.09,.09-2.5,.25-3.9,.31-1.46,.06-2.93,.01-4.37,.01-.63-.75-1.19-1.43-1.74-2.07-.4,.03-.85-.07-1.08,.11-4.22,3.15-8.99,4.06-14.07,3.18-4.67-.81-8.06-3.33-9.54-8.03-1.62-5.16-.07-9.94,4.34-13.09,2.43-1.74,5.19-2.65,8.12-3.16,3.79-.66,7.57-1.39,11.34-2.11,.34-.06,.63-.33,1.28-.68Zm-.52,8.23c-2.26,.38-4.4,.7-6.51,1.12-1.78,.35-3.59,.65-5.28,1.26-2.21,.8-3.34,2.67-3.05,4.6,.31,2.04,1.67,3.21,3.55,3.71,3.46,.93,6.47-.24,9.17-2.31,2.52-1.95,3.7-4.42,2.12-8.38Z" />
    <path
      d="M1318.45,355.32c.03-3.8-1.37-6.14-4.22-7.11-4.79-1.62-9.02-.43-12.35,3.41-3.81-1.65-4.33-2.03-7.38-5.46,1.08-1.95,2.78-3.33,4.66-4.44,6.59-3.89,13.57-4.26,20.58-1.56,5.41,2.09,8.64,6.39,8.83,12.17,.31,9.13,.08,18.28,.08,27.52-3.11,1.56-6.22,.56-9.17,.77-.56-.81-1.05-1.5-1.63-2.33-1.01,.57-1.96,1.07-2.88,1.63-3.98,2.45-8.33,2.7-12.74,1.89-5.08-.94-8.43-4.54-9.3-9.58-.87-5.08,1.04-9.49,5.67-12.03,2.2-1.2,4.72-1.96,7.18-2.53,4.08-.94,8.22-1.56,12.65-2.37Zm-.61,7.74c-2.66,.44-5.16,.8-7.64,1.28-1.42,.27-2.86,.58-4.19,1.12-2.24,.9-3.19,2.57-2.92,4.67,.27,2.12,1.73,3.18,3.57,3.65,3.44,.87,6.45-.27,9.14-2.4,2.51-1.99,3.6-4.46,2.04-8.32Z" />
    <path
      d="M1670.57,380.28c-3.27,.64-6.16,.5-9.29,.17-.23-.87-.66-1.71-.66-2.55-.04-11.74-.04-23.47-.01-35.21,0-.7,.26-1.4,.42-2.19,2.83-.69,5.57-.49,8.27-.25,.89,.08,1.69,1.08,2.72,1.79,2.99-2.08,6.35-3.37,10.14-3.46,8.07-.21,13.7,3.93,15.71,11.74,.41,1.59,.75,3.24,.77,4.87,.07,7.7,.03,15.4,0,23.1,0,.53-.21,1.05-.38,1.89-2.95,1.01-6,.41-9.37,.36-.24-1.29-.63-2.48-.65-3.68-.07-5.68,0-11.37-.05-17.05-.01-1.83-.05-3.68-.35-5.48-.55-3.21-2.57-5.08-5.73-5.93-4.97-1.34-11.86,3.43-11.32,8.88,.59,5.99,.15,12.09,.11,18.14-.01,1.6-.21,3.2-.32,4.86Z" />
    <path
      d="M1505.11,283.82c-3.31,.5-6.35,.65-9.66-.11-.12-1.55-.31-2.97-.32-4.39-.04-5.31-.01-10.63-.02-15.94,0-1.28,.04-2.57-.08-3.84-.58-6.35-6.2-9.57-11.94-6.74-3.53,1.74-5.64,4.37-5.47,8.67,.22,5.49,.07,10.99,.04,16.49,0,1.81-.11,3.61-.17,5.64-3.19,1.03-6.2,.65-9.44,.27-1.03-4.41-.41-8.79-.51-13.12-.1-4.39-.04-8.79-.02-13.19,.02-4.36,.06-8.72,.09-13.28,4.07-.5,7.78-1.59,11.22,1.35,1.35-.71,2.74-1.62,4.25-2.21,9.38-3.66,20.19,.46,22.03,12.01,.09,.54,.2,1.08,.28,1.62,.46,3.27,.3,22.4-.28,26.79Z" />
    <path
      d="M1637.94,283.81c-3.16,.57-6.03,.47-9.19,.09-.19-1.04-.53-2.07-.54-3.1-.04-11.18-.03-22.35-.02-33.53,0-.9,.14-1.81,.22-2.82,2.88-1.23,5.8-.76,8.67-.46,.67,.07,1.25,1.1,1.99,1.81,1.21-.66,2.45-1.43,3.77-2.04,3.6-1.68,7.39-2.16,11.26-1.23,6.62,1.59,10.23,6.06,11.55,12.54,.29,1.43,.37,2.91,.38,4.37,.04,7.14,.02,14.29,0,21.43,0,.88-.16,1.76-.28,2.92-3.23,.61-6.25,.51-9.56,.05-.15-1.35-.39-2.58-.4-3.81-.04-5.68-.01-11.36-.03-17.04,0-1.28,.05-2.58-.13-3.84-.83-6.07-6.24-9.07-11.81-6.45-3.55,1.67-5.75,4.23-5.6,8.56,.21,6.04,.07,12.09,.04,18.14,0,1.42-.2,2.83-.32,4.41Z" />
    <path
      d="M1351.52,250.52c-2.42,1.87-4.85,3.74-7.55,5.83-2.46-2.05-4.75-4.37-8.05-4.33-1.98,.02-4.08,.16-5.88,.86-1.63,.63-3.19,1.87-4.33,3.23-3.9,4.67-3.53,12.4,.61,16.68,4.58,4.75,10.78,4.53,17.37-.79,2.92,1.32,5.31,3.5,7.7,5.69-5.47,7.47-15.13,10.2-24.66,7.08-8.72-2.86-14.41-11-14.43-20.66-.02-9.67,5.62-17.84,14.33-20.73,9.55-3.18,19.06-.54,24.9,7.15Z" />
    <path
      d="M1855.74,346.59c-2.23,2.5-4.71,4.02-6.9,5.59-1.76,.15-2.39-1.18-3.41-1.87-7.56-5.09-17.12-.58-17.91,8.52-.14,1.62-.09,3.33,.25,4.91,1.6,7.52,10.31,11.22,16.88,7.21,1.23-.75,2.33-1.7,3.57-2.63,2.72,1.66,5.22,3.39,7.3,5.61-4.63,7.09-13.85,10.04-23.07,7.58-9.11-2.42-15.27-10.08-15.75-19.59-.52-10.16,4.56-18.46,13.35-21.86,9.44-3.64,19.22-1.28,25.68,6.5Z" />
    <path
      d="M1390.84,368.13c2.61,1.99,4.91,3.76,7.4,5.66-1.42,3.26-4.07,4.82-6.8,6.25-4.77,2.51-9.91,2.6-15.04,1.76-9.17-1.5-16.12-9.16-17.01-18.42-1.07-11.01,4-19.85,13.4-23.37,9.6-3.6,19.6-1.03,25.37,6.74-1.18,1.02-2.36,2.11-3.61,3.1-1.14,.9-2.36,1.7-3.69,2.66-.8-.58-1.53-1.08-2.23-1.63-4.02-3.21-8.35-3.57-12.84-1.22-4.16,2.17-6.46,7.13-5.87,12.13,1.14,9.72,10.82,13.9,18.76,8.08,.58-.43,1.13-.9,2.17-1.74Z" />
    <path
      d="M1728.63,374.76c2.26-2.11,4.24-3.96,6.37-5.96,1.5,1.21,2.69,2.3,4.02,3.2,2.18,1.47,4.54,2.39,7.25,1.63,1.83-.51,3.02-1.77,3.17-3.38,.15-1.63-.57-2.9-1.92-3.69-1.41-.83-2.93-1.49-4.43-2.17-2-.91-4.1-1.62-6.01-2.69-4.85-2.73-6.95-7.05-6.25-12.39,.63-4.84,4.4-9.07,9.57-10.16,7.28-1.54,13.79-.06,19.14,5.78-1.39,2.83-3.89,4.32-6.21,6.22-1.4-1.06-2.62-2.17-4.01-2.99-1.93-1.14-4.01-1.8-6.29-.88-2.56,1.03-3.26,3.98-1.17,5.72,1.24,1.03,2.77,1.75,4.25,2.44,1.99,.93,4.11,1.58,6.06,2.58,5.54,2.83,7.9,7.24,7.1,12.97-.74,5.3-4.81,9.81-10.35,10.78-7.68,1.34-14.55-.23-20.29-7.02Z" />
    <path
      d="M1355.24,244.27c2.69-.34,4.83-.61,7.13-.9,.17-3.2,.32-6.09,.48-9.07,3.16-1.24,6.19-.52,9.55-.55,.24,3.4,.46,6.42,.67,9.49,3.78,1.29,7.54,.07,11.32,.97,1.27,2.67,.72,5.49,.42,8.69-3.95,.16-7.71,.31-11.76,.47-.11,1.39-.26,2.45-.26,3.5-.02,4.22-.13,8.44,.05,12.65,.18,4.21,2.03,6,6.16,6.19,1.81,.08,3.64-.19,5.59-.31,1.03,2.72,.63,5.39,.38,8.11-3.15,2.1-6.51,1.51-9.74,1.47-2.62-.04-5.06-.91-7.2-2.42-3.58-2.51-5.11-6.2-5.29-10.4-.2-4.58-.07-9.16-.13-13.75-.02-1.6-.19-3.2-.31-5-2.45-.19-4.58-.36-6.92-.55-.58-2.88-.42-5.55-.13-8.6Z" />
    <path
      d="M1578.47,344.95c-1.72,2.69-3.99,4.43-6.44,6.19-1.46-1.1-2.67-2.2-4.05-3.03-1.58-.95-3.33-1.57-5.24-1.12-1.5,.35-2.76,1.04-3.16,2.68-.39,1.61,.19,2.93,1.52,3.8,1.22,.79,2.55,1.43,3.88,2.02,2,.9,4.1,1.59,6.06,2.57,4.89,2.45,7.47,6.35,7.02,11.95-.46,5.74-3.58,9.46-8.92,11.35-7.47,2.65-15.85,.11-21.37-6.57,.93-1,1.84-2.09,2.86-3.06,1.04-.99,2.18-1.86,3.3-2.8,1.44,1.15,2.66,2.27,4.02,3.16,2.2,1.44,4.57,2.33,7.27,1.48,1.5-.48,2.57-1.38,2.91-2.98,.35-1.62-.28-2.96-1.56-3.82-1.36-.9-2.88-1.58-4.37-2.27-1.99-.92-4.11-1.59-6.03-2.63-5.18-2.82-7.29-7.13-6.45-12.77,.74-4.95,4.43-8.95,9.67-10.01,7.32-1.48,13.75,.21,19.1,5.85Z" />
    <path
      d="M1931.92,320.53c3.54-.26,6.43-.43,9.47,.12,.18,.76,.48,1.45,.48,2.14,0,18.66-.02,37.32-.07,55.98,0,.5-.37,.99-.61,1.58-2.9,.67-5.79,.24-8.48,.28-1.6-1.82-1.09-3.73-1.1-5.49-.04-11.89-.02-23.78-.02-35.68,0-4.94-.02-9.88,.02-14.82,0-1.25,.19-2.49,.32-4.12Z" />
    <path
      d="M1272.86,320.51c3.25-.27,6.12-.36,8.9,.03,.85,4.72,.92,54.53,.09,59.77-2.75,.7-5.63,.38-8.77,.21-.24-.82-.69-1.65-.69-2.49-.03-18.51-.02-37.02,0-55.53,0-.51,.24-1.03,.47-1.98Z" />
    <path
      d="M1261.86,253.86c-2.38,0-4.07-.23-5.66,.06-1.76,.32-3.54,.91-5.12,1.75-2.25,1.19-3.33,3.16-3.26,5.86,.13,5.5,.05,11,.02,16.49,0,1.8-.14,3.61-.21,5.56-3.29,.98-6.32,.69-9.56,.23-1.08-4.38-.42-8.77-.53-13.11-.11-4.4-.1-8.8,0-13.2,.1-4.35-.49-8.75,.46-13.03,2.48-1.03,4.88-.51,7.24-.59,1.67-.06,2.72,.81,3.06,2.22,2.93-1.04,5.6-2.2,8.39-2.89,1.49-.37,3.18,.06,4.95,.13,.18,1.63,.42,2.87,.43,4.12,.02,1.98-.11,3.96-.19,6.39Z" />
    <path
      d="M1810.07,283.94h-9.24c-.2-.97-.54-1.82-.55-2.68-.03-17.95-.03-35.9-.02-53.86,0-.88,.19-1.76,.31-2.78,3.06-.94,5.94-.59,9.11-.34,.23,1,.67,2.01,.67,3.02,.04,17.95,.03,35.9,.02,53.86,0,.72-.15,1.43-.29,2.78Z" />
    <path
      d="M1733.79,283.81c-3.16,.56-6.03,.48-9.12,.1-.2-.68-.57-1.35-.57-2.02-.03-11.91-.03-23.82,0-35.73,0-.52,.23-1.04,.43-1.85,2.63-.74,5.36-.56,8.02-.23,.83,.1,1.53,1.24,2.41,2,2.45-.91,5.08-2.1,7.84-2.83,1.51-.4,3.22-.02,4.94,0,1.27,3.48,.36,6.74,.72,10.3-1.57,.1-2.78,.22-3.99,.23-2.42,.04-4.75,.33-6.82,1.72-2.25,1.51-3.66,3.33-3.57,6.32,.18,5.86,.07,11.73,.03,17.59,0,1.42-.21,2.83-.33,4.4Z" />
    <path
      d="M1587.94,340.37h9.4c.83,6.72,.31,13.27,.39,19.79,.08,6.57,.11,13.15-.06,19.81-3.29,1.25-6.3,.72-9.07,.49-.37-.4-.52-.52-.61-.68-.09-.15-.19-.33-.19-.49-.07-12.09-.13-24.17-.17-36.26,0-.71,.16-1.42,.31-2.66Z" />
    <path
      d="M1864.36,340.4c3.05-.41,5.92-.33,9.02-.07,.21,.68,.59,1.34,.6,2.01,.04,11.91,.04,23.81,.02,35.72,0,.69-.24,1.38-.41,2.29-3.01,.68-5.88,.23-8.98,.3-.25-1.08-.62-1.92-.62-2.76-.03-11.72-.03-23.45,0-35.17,0-.69,.21-1.38,.37-2.32Z" />
    <path
      d="M1225.33,283.92h-9.53c-.2-1.11-.54-2.14-.55-3.18-.04-10.98-.03-21.97-.01-32.95,0-1.06,.17-2.12,.25-3.08,4.29-1.11,4.63-1.12,9.48-.17,.11,.6,.35,1.29,.35,1.98,.02,12.25,.02,24.49,.02,37.4Z" />
    <path
      d="M1395.06,283.99c-.83-4.62-.98-33.07-.25-39.51,2.88-1.13,5.91-.61,9.28-.24,.86,4.35,.34,8.72,.42,13.05,.09,4.39,.05,8.79,.01,13.18-.03,4.35,.17,8.71-.17,13.2-3.23,.82-6.11,.52-9.29,.32Z" />
    <path
      d="M1692.57,237.18c1.4-4.13,3.9-8.33,7.74-13.06,1.41-.06,3.03-.2,4.66-.18,1.58,.02,3.16,.21,4.72,.32,0,.73,.14,1.17-.02,1.4-2.3,3.3-4.65,6.55-6.96,9.84-.91,1.3-2.07,1.98-3.69,1.92-2.12-.08-4.27,.16-6.45-.24Z" />
    <path
      d="M1596.21,237.09c.4-1.11,.53-1.81,.88-2.38,1.69-2.82,3.54-5.55,5.14-8.41,1.04-1.86,2.51-2.48,4.51-2.39,2.31,.1,4.66-.19,7.32,.41-.49,1.05-.7,1.71-1.07,2.26-1.13,1.66-2.32,3.28-3.49,4.91q-4.53,6.28-13.29,5.6Z" />
    <path
      d="M1213.93,229.89c-.03-3.7,2.81-6.59,6.51-6.62,3.64-.03,6.64,2.9,6.67,6.52,.03,3.57-3.03,6.69-6.56,6.7-3.61,.01-6.59-2.96-6.61-6.6Z" />
    <path
      d="M1862.62,325.45c.35-3.56,3.79-6.38,7.22-5.93,3.55,.47,6.29,3.9,5.86,7.35-.47,3.71-3.54,6.17-7.27,5.81-3.66-.35-6.18-3.48-5.81-7.23Z" />
    <path
      d="M1406,229.67c.08,3.7-2.76,6.75-6.34,6.83-3.47,.08-6.71-3.01-6.82-6.5-.11-3.55,2.85-6.63,6.47-6.73,3.72-.1,6.6,2.66,6.68,6.4Z" />
    <path
      d="M1519.75,333.33c.22-.83,.25-1.39,.5-1.81,2.26-3.71,4.56-7.4,6.84-11.08h10.44c-2.17,4.99-5.79,8.56-8.55,12.93-1.65,.08-3.25,.22-4.85,.22-1.39,0-2.78-.16-4.38-.27Z" />
    <path
      d="M1592.92,332.72c-3.73,0-6.6-2.82-6.61-6.51-.01-3.63,2.92-6.66,6.51-6.72,3.47-.05,6.63,3.08,6.67,6.62,.04,3.6-2.94,6.6-6.57,6.61Z" />
    <path class="cls-2"
      d="M1165.77,273.63c-.94-4.25-1.12-28.02-.3-34.49,.96-.17,2-.5,3.04-.51,3.12-.04,6.25-.13,9.36,.1,8.51,.64,14.8,6.91,15.76,15.66,.85,7.83-3.5,16.06-12.22,18.61-5.2,1.52-10.45,.99-15.63,.64Z" />
    <path class="cls-2"
      d="M1554.96,283.94c2.36,.2,4.74,.28,7.08,.64,2.17,.34,3.64,1.69,4.02,3.94,.37,2.18-.46,3.93-2.16,5.3-.28,.23-.56,.5-.89,.64-5.12,2.27-10.34,2.45-15.41,.12-3.95-1.82-4.21-6.9-.64-9.42,.84-.59,2-.88,3.04-.99,1.63-.16,3.29-.04,4.94-.04,0-.06,0-.13,.01-.19Z" />
    <path class="cls-2"
      d="M1553.12,263c-4.18,.01-7.06-2.73-7-6.67,.05-3.91,3.02-6.59,7.2-6.49,3.94,.1,6.61,2.65,6.68,6.4,.08,4-2.71,6.74-6.87,6.76Z" />
    <path class="cls-2"
      d="M1181.75,360.5c0,.73,0,1.46,0,2.19-.06,4.72-2.37,7.81-6.91,9.25-8.17,2.58-15.35-2.46-15.51-11.1-.09-4.82,1.45-9.15,6.12-11.41,4.7-2.28,9.25-1.52,13.36,1.68,1.98,1.54,3.21,3.45,2.96,6.11-.1,1.09-.02,2.19-.02,3.29h0Z" />
    <path class="cls-2"
      d="M1447.64,263.98c.03,9.46-9.04,15.22-17.03,10.81-5.09-2.81-7.3-9.32-5.18-15.22,1.99-5.52,7.15-8.5,13.01-7.51,5.36,.9,9.18,5.86,9.2,11.92Z" />
    <path class="cls-2"
      d="M1607.18,258.38c-5.38,.1-10.75,.3-16.17-.16-.77-2.34,.59-3.68,1.82-4.96,1.89-1.96,4.33-2.52,7-2.47,2.3,.04,4.31,.71,5.92,2.36,1.3,1.33,2.25,2.84,1.44,5.23Z" />
    <path class="cls-2"
      d="M1848.99,257.99c-1.09,.21-1.76,.44-2.44,.44-4.72,.03-9.43,.02-14.58,.02,.28-1.4,.23-2.55,.73-3.35,2.42-3.9,7.23-5.53,11.44-3.76,1.43,.6,2.77,1.78,3.75,3,.69,.85,.71,2.24,1.09,3.65Z" />
    <path class="cls-2"
      d="M1640.66,360.26c.07,8.45-6.68,13.93-14.55,11.83-4.8-1.28-8.22-5.58-8.37-11.04-.29-10.53,8.92-14.73,15.71-12.1,4.4,1.7,7.17,5.99,7.22,11.31Z" />
    <path class="cls-2"
      d="M1799.09,360.58c-.09,8.14-6.69,13.46-14.37,11.57-4.68-1.15-7.98-5.1-8.6-10.3-1.07-9.02,7.14-15.9,15.48-12.96,4.64,1.64,7.55,6.18,7.49,11.69Z" />
    <path class="cls-2"
      d="M1435.52,360.45c-.03,8.37-7,13.88-14.79,11.59-4.97-1.46-7.59-5.15-8.12-10.08-1.1-10.26,7.88-15.74,15.3-13.12,4.68,1.65,7.63,6.09,7.61,11.61Z" />
    <path class="cls-2"
      d="M1703.7,257.95c-4.78,.75-12.43,.71-16.9-.09-.21-2.22,1.14-3.68,2.6-5.01,1.85-1.68,4.14-2.1,6.58-2.06,2.29,.04,4.29,.72,5.88,2.39,1.27,1.33,2.29,2.79,1.83,4.77Z" />
    <path class="cls-2"
      d="M1295.28,258.47c-5.03,0-9.57,.01-14.11,0-.88,0-1.77-.14-2.72-.21-.54-2.23,.72-3.6,1.95-4.9,1.72-1.82,3.93-2.5,6.4-2.56,2.27-.05,4.37,.37,6.1,1.89,1.53,1.35,2.64,2.94,2.38,5.79Z" />
    <path class="cls-2"
      d="M1980.36,353.98c-4.15,.88-12.08,.94-16.9,.13-.44-2.08,.9-3.4,2.17-4.66,1.78-1.77,4.11-2.35,6.51-2.4,2.04-.04,3.99,.52,5.6,1.85,1.59,1.31,2.69,2.91,2.62,5.08Z" />
    <path class="cls-2"
      d="M1531.26,354.55c-5.92,.14-11.37,.25-16.81-.07,.06-4.24,2.9-6.97,7.62-7.4,2.26-.21,4.37,.33,6.21,1.66,1.68,1.22,2.75,2.84,2.98,5.82Z" />
    <path class="cls-2"
      d="M1212.89,354.61c.77-3.04,1.85-4.98,3.87-5.96,1.75-.85,3.78-1.51,5.7-1.56,4.29-.1,6.65,2.15,7.85,7.1-5.59,.92-11.14,.33-17.42,.42Z" />
    <path class="cls-2"
      d="M1777.58,266.72c1.23,1.96,1.17,3.83,.44,5.47-.56,1.25-1.71,2.33-2.79,3.23-2.37,1.98-5.21,2.44-8.21,2.02-2.2-.31-3.82-1.86-4.09-3.77-.23-1.68,.77-3.41,2.61-4.37,.63-.33,1.32-.62,2.02-.76,3.35-.64,6.71-1.22,10.02-1.81Z" />
    <path class="cls-2"
      d="M1909.22,363.07c1.58,3.96,.4,6.43-2.12,8.38-2.69,2.08-5.71,3.25-9.17,2.31-1.88-.51-3.24-1.67-3.55-3.71-.3-1.93,.83-3.8,3.05-4.6,1.69-.61,3.5-.91,5.28-1.26,2.12-.42,4.25-.73,6.51-1.12Z" />
    <path class="cls-2"
      d="M1317.85,363.07c1.55,3.86,.47,6.33-2.04,8.32-2.68,2.13-5.7,3.27-9.14,2.4-1.84-.47-3.3-1.53-3.57-3.65-.27-2.1,.68-3.77,2.92-4.67,1.33-.54,2.77-.85,4.19-1.12,2.48-.47,4.98-.84,7.64-1.28Z" />
  </g>
</svg>