<svg height="63.791mm" viewBox="0 0 63.791 63.791" width="63.791mm" xmlns="http://www.w3.org/2000/svg">
  <g transform="translate(98.646 -205.04)">
    <path
      d="m-66.751 206.79c-16.62 0-30.142 13.522-30.142 30.142 0 16.621 13.522 30.142 30.142 30.142 16.621 0 30.142-13.522 30.142-30.142s-13.522-30.142-30.142-30.142m0 62.038c-17.587 0-31.896-14.308-31.896-31.896 0-17.587 14.308-31.896 31.896-31.896 17.587 0 31.896 14.308 31.896 31.896 0 17.587-14.308 31.896-31.896 31.896"
      fill="#2fac66" />
    <path
      d="m-66.751 221.35c-8.5908 0-15.58 6.9892-15.58 15.58s6.9892 15.58 15.58 15.58 15.58-6.9892 15.58-15.58-6.9892-15.58-15.58-15.58m0 31.817c-8.9535 0-16.237-7.2838-16.237-16.237s7.2838-16.237 16.237-16.237c8.9535 0 16.237 7.2838 16.237 16.237s-7.2838 16.237-16.237 16.237"
      fill="#2fac66" />
    <path d="m-45.824 236.17-5.3382 9.2463-5.0105-2.8924 5.3382-9.2467z" fill="#e20d18" />
    <path d="m-50.835 233.28-5.3382 9.2467-5.0105-2.8928 5.3382-9.2467z" fill="#fff" />
    <g fill="#253574">
      <path d="m-55.845 230.39-5.3382 9.2463-5.0105-2.8924 5.3382-9.2467z" />
      <path
        d="m-60.855 227.49-5.3382 9.2463 15.031 8.6783 5.3382-9.2467zm.21661.80822 14.006 8.0864-4.7466 8.2218-14.006-8.0864z" />
      <path d="m-70.707 245.54-.56938-.32879 10.614-18.383.56938.32844z" />
      <path d="m-67.307 236.7-15.031 8.6783-5.3386-9.2467 15.032-8.678z" />
    </g>
    <g fill="#ffe910">
      <path
        d="m-75.892 240.04.18838-.4057.42862.0497-.32526-.28645.19509-.39264-.37641.21801-.32244-.28187.08255.41981-.381.21978.4251.0346z" />
      <path
        d="m-79.267 234 .18627-.39899.43039.043-.32103-.28857.1912-.39052-.37677.21766-.32385-.27481.08431.41345-.37677.21731.42192.03z" />
      <path
        d="m-80.719 238.8.18662-.39899.4385.0378-.32068-.28822.20108-.38453-.38171.22013-.3309-.27693.08255.42087-.381.21978.41769.0215z" />
      <path
        d="m-74.463 235.17.18662-.39899.43427.0402-.31891-.29528.19438-.375-.37712.21801-.32632-.2794.07867.42263-.37712.21766.41769.0215z" />
      <path
        d="m-77.441 233.5.19121-.40111.43392.0406-.32103-.28857.19403-.38665-.37712.21802-.32879-.28399.08079.42722-.38135.22013.42298.0296z" />
      <path
        d="m-75.692 233.97.19121-.40181.43392.0406-.32314-.29281.19403-.38594-.37747.21731-.32632-.27904.07408.42545-.37677.21696.42686.0279z" />
      <path
        d="m-74.108 236.91.18909-.3944.4385.0378-.32138-.28858.1965-.39264-.38135.22014-.32702-.28011.07832.42333-.38065.22014.4251.0339z" />
      <path
        d="m-74.6 238.68.18838-.40534.43674.0448-.32314-.29351.19791-.38806-.37677.21731-.33091-.27693.07832.42298-.37677.21731.42263.03z" />
      <path
        d="m-77.632 240.44.18838-.4057.44062.0423-.32702-.29069.19791-.3884-.38135.21977-.32632-.2794.07832.42263-.3817.22014.42333.0303z" />
      <path
        d="m-79.341 239.94.18909-.39511.4318.0363-.31856-.28434.19579-.39299-.381.22013-.3242-.27482.07585.4184-.37712.21802.42474.0339z" />
      <path
        d="m-81.177 237.13.18627-.39899.43921.0381-.3235-.29316.19791-.3884-.381.22013-.3309-.27693.07832.42298-.37641.21731.42263.03z" />
      <path
        d="m-80.738 235.41.18662-.399.43427.0402-.32068-.28857.19332-.38558-.37606.21695-.33408-.28116.08537.42474-.381.22014.42298.0303z" />
    </g>
    <path d="m-62.787 245.54-10.614-18.384.56938-.32844 10.614 18.383z" fill="#253574" />
    <g fill="#2fac66">
      <path
        d="m-90.779 225.36 2.2789-3.9868 1.1529.65899-1.4855 2.5996 1.6217.9271 1.2622-2.2084 1.1532.65899-1.2622 2.2084 2.9118 1.6644-.7934 1.3878z" />
      <path
        d="m-83.714 218.17 1.3035 1.5646.69144-.57644c.51858-.43215.56938-.98637.15875-1.4792-.3817-.45826-.94333-.51752-1.4623-.0854zm-2.0775.002 1.85-1.5409c1.3314-1.1091 2.7217-1.1102 3.658.0134.61207.73483.7112 1.5752.32667 2.3788l4.1257 1.1024-1.4439 1.203-3.6544-1.0996-.63112.52529 2.038 2.4469-1.2277 1.0227z" />
      <path
        d="m-71.273 215.24-1.7921-2.5929-.29916 3.1376zm-3.1849-3.7881 2.0256-.52775 4.8722 6.8725-1.6446.42827-1.246-1.7918-3.0498.7941-.21343 2.1724-1.6446.42828z" />
      <path
        d="m-64.849 210.16 2.0055.41698 2.2895 6.2936 1.1596-5.5764 1.5649.32597-1.6041 7.7135-2.0059-.41733-2.2892-6.2928-1.1599 5.576-1.5649-.32561z" />
      <path
        d="m-51.694 221.96.39194 1.5399c-1.1712.32349-2.4804.0949-3.6033-.78882-1.9537-1.5378-2.1054-4.0912-.71367-5.8593 1.3917-1.7681 3.9095-2.22 5.8632-.68227 1.1225.8837 1.6454 2.111 1.6196 3.308l-1.5956-.0102c.04339-.7821-.24236-1.5653-.94968-2.1223-1.1666-.91828-2.7143-.66216-3.647.52247-.93239 1.185-.81809 2.7496.3489 3.6678.70697.55703 1.5353.65052 2.2856.42474" />
      <path
        d="m-44.614 222 2.2218 4.0174-1.1617.64241-1.4489-2.6187-1.6344.90346 1.2308 2.2253-1.162.64276-1.2305-2.2253-1.7724.98002 1.4485 2.6194-1.162.64241-2.2218-4.0171z" />
      <path
        d="m-85.471 244.92-1.8232.90699.40076.80574c.30057.60466.82868.7814 1.403.49601.53375-.26529.72108-.79904.42016-1.4034zm.47731-2.0221 1.0724 2.1558c.77152 1.5512.45226 2.9044-.8576 3.556-.85654.4258-1.6965.32879-2.3897-.23143l-2.0256 3.7599-.83679-1.6828 1.9138-3.302-.36583-.73519-2.8512 1.4185-.71155-1.4309z" />
      <path
        d="m-81.471 249.13 3.3031 3.1881-.92181.95567-2.1537-2.0786-1.2972 1.3437 1.8295 1.7664-.92181.95497-1.8299-1.7656-1.4065 1.4573 2.1537 2.0786-.92251.95532-3.3031-3.1884z" />
      <path d="m-76.785 253.17 1.4365.69885-2.8113 5.7767 2.6906 1.3095-.63465 1.3049-4.1279-2.0087z" />
      <path
        d="m-67.583 260.41-.83255-3.0385-1.3208 2.8603zm-1.7512-4.6274 2.0856.17216 2.323 8.0962-1.6937-.13935-.58244-2.1036-3.1401-.25965-.9204 1.9787-1.6933-.14005z" />
      <path
        d="m-63.611 256.01 1.923-.70485 5.2659 4.1328-1.9597-5.3453 1.5-.54998 2.7114 7.3946-1.9226.7052-5.2666-4.1332 1.96 5.3453-1.5.54999z" />
      <path
        d="m-47.628 252.5 1.5755-.20356c.18062 1.2016-.20391 2.474-1.2164 3.4823-1.7621 1.7547-4.3155 1.5981-5.9034.004-1.5879-1.5946-1.7339-4.149.02822-5.9037 1.0125-1.0079 2.2941-1.3797 3.4791-1.2097l-.20214 1.5829c-.77117-.13687-1.5833.0522-2.2211.68722-1.0523 1.0484-.98425 2.6155.07973 3.684 1.064 1.0682 2.6314 1.1434 3.6837.0952.63782-.63535.83008-1.4464.69674-2.2183" />
      <path
        d="m-50.314 246.68 1.8863-4.1857 1.2104.54504-1.2298 2.7291 1.7032.76764 1.0449-2.3184 1.2104.54469-1.0446 2.3192 1.8464.83185 1.2294-2.7287 1.2107.54575-1.8863 4.1854z" />
    </g>
  </g>
</svg>