<svg width="28" height="28" viewBox="0 0 28 28" fill="none" xmlns="http://www.w3.org/2000/svg">
<path fill-rule="evenodd" clip-rule="evenodd" d="M2.625 3.5C2.39294 3.5 2.17038 3.59219 2.00628 3.75628C1.84219 3.92038 1.75 4.14294 1.75 4.375V18.375C1.75 18.6071 1.84219 18.8296 2.00628 18.9937C2.17038 19.1578 2.39294 19.25 2.625 19.25H9.625C10.1082 19.25 10.5 19.6418 10.5 20.125C10.5 20.6082 10.1082 21 9.625 21H2.625C1.92881 21 1.26113 20.7234 0.768845 20.2312C0.276562 19.7389 0 19.0712 0 18.375V4.375C0 3.67881 0.276562 3.01113 0.768845 2.51884C1.26113 2.02656 1.92881 1.75 2.625 1.75H18.375C19.0712 1.75 19.7389 2.02656 20.2312 2.51884C20.7234 3.01113 21 3.67881 21 4.375V9.625C21 10.1082 20.6083 10.5 20.125 10.5C19.6418 10.5 19.25 10.1082 19.25 9.625V4.375C19.25 4.14294 19.1578 3.92038 18.9937 3.75628C18.8296 3.59219 18.6071 3.5 18.375 3.5H2.625Z" fill="#000000"/>
<path fill-rule="evenodd" clip-rule="evenodd" d="M0 7.875C0 7.39175 0.391751 7 0.875 7H20.125C20.6083 7 21 7.39175 21 7.875C21 8.35825 20.6083 8.75 20.125 8.75H0.875C0.391751 8.75 0 8.35825 0 7.875Z" fill="#000000"/>
<path fill-rule="evenodd" clip-rule="evenodd" d="M6.125 0C6.60825 0 7 0.391751 7 0.875V4.375C7 4.85825 6.60825 5.25 6.125 5.25C5.64175 5.25 5.25 4.85825 5.25 4.375V0.875C5.25 0.391751 5.64175 0 6.125 0Z" fill="#000000"/>
<path fill-rule="evenodd" clip-rule="evenodd" d="M14.875 0C15.3582 0 15.75 0.391751 15.75 0.875V4.375C15.75 4.85825 15.3582 5.25 14.875 5.25C14.3918 5.25 14 4.85825 14 4.375V0.875C14 0.391751 14.3918 0 14.875 0Z" fill="#000000"/>
<path fill-rule="evenodd" clip-rule="evenodd" d="M14.5565 14.5565C16.0334 13.0797 18.0364 12.25 20.125 12.25C22.2136 12.25 24.2166 13.0797 25.6935 14.5565C27.1703 16.0334 28 18.0364 28 20.125C28 22.2136 27.1703 24.2166 25.6935 25.6935C24.2166 27.1703 22.2136 28 20.125 28C18.0364 28 16.0334 27.1703 14.5565 25.6935C13.0797 24.2166 12.25 22.2136 12.25 20.125C12.25 18.0364 13.0797 16.0334 14.5565 14.5565ZM20.125 14C18.5005 14 16.9426 14.6453 15.794 15.794C14.6453 16.9426 14 18.5005 14 20.125C14 21.7495 14.6453 23.3074 15.794 24.456C16.9426 25.6047 18.5005 26.25 20.125 26.25C21.7495 26.25 23.3074 25.6047 24.456 24.456C25.6047 23.3074 26.25 21.7495 26.25 20.125C26.25 18.5005 25.6047 16.9426 24.456 15.794C23.3074 14.6453 21.7495 14 20.125 14Z" fill="#000000"/>
<path fill-rule="evenodd" clip-rule="evenodd" d="M19.875 16C20.3582 16 20.75 16.3918 20.75 16.875V19.0928H22.969C23.4522 19.0928 23.844 19.4846 23.844 19.9678C23.844 20.4511 23.4522 20.8428 22.969 20.8428H19.875C19.3918 20.8428 19 20.4511 19 19.9678V16.875C19 16.3918 19.3918 16 19.875 16Z" fill="#000000"/>
</svg>
