<svg width="45" height="45" viewBox="0 0 45 45" fill="none" xmlns="http://www.w3.org/2000/svg">
<path fill-rule="evenodd" clip-rule="evenodd" d="M42.75 39.375C42.4398 39.375 42.1875 39.1227 42.1875 38.8125C42.1875 38.5023 42.4398 38.25 42.75 38.25C43.0602 38.25 43.3125 38.5023 43.3125 38.8125C43.3125 39.1227 43.0602 39.375 42.75 39.375Z" fill="#ECECFE"/>
<path fill-rule="evenodd" clip-rule="evenodd" d="M21.9375 2.25C21.6273 2.25 21.375 1.99766 21.375 1.6875C21.375 1.37731 21.6273 1.125 21.9375 1.125C22.2477 1.125 22.5 1.37731 22.5 1.6875C22.5 1.99766 22.2477 2.25 21.9375 2.25Z" fill="#ECECFE"/>
<path fill-rule="evenodd" clip-rule="evenodd" d="M2.25 34.875C1.93984 34.875 1.6875 34.6227 1.6875 34.3125C1.6875 34.0023 1.93984 33.75 2.25 33.75C2.56016 33.75 2.8125 34.0023 2.8125 34.3125C2.8125 34.6227 2.56016 34.875 2.25 34.875Z" fill="#ECECFE"/>
<path fill-rule="evenodd" clip-rule="evenodd" d="M30.5164 24.8596L32.701 19.5939C32.9391 19.02 33.5973 18.7477 34.1712 18.9858C34.4453 19.0995 34.6634 19.3169 34.7779 19.5907L36.9818 24.8573C37.1083 25.1595 37.0967 25.5018 36.9503 25.7947L36.0961 27.5031C36.0682 27.5589 36.036 27.6118 36 27.6613V29.7212L37.0961 33.0096C37.1157 33.0684 37.1254 33.1299 37.125 33.1916L37.1211 33.2533L36.3258 40.0033C36.295 40.2647 36.088 40.4667 35.8321 40.4962L35.7671 40.5H31.7329C31.4696 40.5 31.2448 40.3181 31.1855 40.0673L31.1742 40.0033L30.9133 37.7884C30.8769 37.4799 31.0975 37.2003 31.4061 37.164C31.6926 37.1302 31.9541 37.318 32.0191 37.5921L32.0305 37.6568L32.2329 39.375H35.2665L35.9887 33.2454L35.0319 30.375H32.4675L31.4711 33.3653C31.3799 33.639 31.0987 33.7959 30.8231 33.7382L30.7596 33.7211C30.486 33.6299 30.3291 33.3487 30.3867 33.073L30.4039 33.0096L31.5 29.7212V27.6613C31.464 27.6118 31.4318 27.5589 31.4039 27.5031L30.5493 25.7938C30.4033 25.5019 30.3913 25.161 30.5164 24.8596ZM32.625 28.125V29.25H34.875V28.125H32.625ZM33.1875 21.357L31.5555 25.2907L32.4101 27H35.0899L35.944 25.2916L34.3125 21.3928V24.1875C34.3125 24.4981 34.0607 24.75 33.75 24.75C33.4615 24.75 33.2238 24.5328 33.1913 24.2531L33.1875 24.1875V21.357Z" fill="#E1000F"/>
<path d="M26.4375 30.375C27.4982 30.375 28.125 31.0018 28.125 32.0625C28.125 32.1084 28.1194 32.1543 28.1082 32.1989C27.8239 33.3359 26.56 34.0749 24.3046 34.4823L23.9403 34.5439C23.8161 34.5635 23.6891 34.5822 23.5594 34.6001L23.1621 34.6508C23.0945 34.6588 23.0262 34.6666 22.9572 34.6742L22.5351 34.7169L22.0965 34.7544L21.6413 34.7868L21.1696 34.8139C21.0896 34.8181 21.0089 34.822 20.9275 34.8256L20.431 34.8452L19.9179 34.8599L19.3882 34.8695L18.5625 34.875C18.2518 34.875 18 34.6231 18 34.3125C18 34.0018 18.2518 33.75 18.5625 33.75L19.0969 33.7475C19.1845 33.7467 19.2714 33.7457 19.3576 33.7445L19.866 33.7349L20.3572 33.7205L20.8311 33.7015L21.2876 33.678L21.7268 33.6499L22.1487 33.6174L22.5532 33.5806C22.6192 33.5741 22.6844 33.5674 22.749 33.5606L23.1274 33.5173C23.3123 33.4947 23.4907 33.4704 23.6625 33.4447L23.9975 33.3911L24.315 33.3336L24.6152 33.2721C25.975 32.976 26.7651 32.5539 26.9796 32.038L26.9983 31.9865L26.9946 31.9202C26.9685 31.6175 26.8435 31.5138 26.5118 31.5013L26.4375 31.5C25.8532 31.5 25.2378 31.8076 24.5852 32.4602C24.2463 32.7991 23.6772 32.5843 23.6284 32.1264L23.625 32.0625C23.625 31.6231 23.5018 31.5 23.0625 31.5C22.4782 31.5 21.8628 31.8076 21.2102 32.4602C20.9906 32.6799 20.6344 32.6799 20.4148 32.4602C20.1951 32.2405 20.1951 31.8844 20.4148 31.6647C21.2622 30.8173 22.1468 30.375 23.0625 30.375C23.7065 30.375 24.1905 30.606 24.4715 31.025L24.4935 31.0606L24.6035 30.9842C25.1532 30.613 25.7169 30.408 26.2932 30.3786L26.4375 30.375Z" fill="#E1000F"/>
<path d="M31.4962 7.2469C31.4637 6.96715 31.226 6.75 30.9375 6.75H9.5625L9.4969 6.75378C9.21715 6.78628 9 7.02403 9 7.3125V37.6875L9.00378 37.7531C9.03628 38.0329 9.27403 38.25 9.5625 38.25H27.5625L27.6281 38.2462C27.9079 38.2137 28.125 37.976 28.125 37.6875L28.1212 37.6219C28.0887 37.3421 27.851 37.125 27.5625 37.125H10.125V7.875H30.375V18.5625L30.3788 18.6281C30.4113 18.9079 30.649 19.125 30.9375 19.125C31.2482 19.125 31.5 18.8732 31.5 18.5625V7.3125L31.4962 7.2469Z" fill="#000091"/>
<path d="M22.5 10.6875C22.5 10.3768 22.2482 10.125 21.9375 10.125H12.9375L12.8719 10.1288C12.5921 10.1613 12.375 10.399 12.375 10.6875C12.375 10.9982 12.6268 11.25 12.9375 11.25H21.9375L22.0031 11.2462C22.2829 11.2137 22.5 10.976 22.5 10.6875Z" fill="#000091"/>
<path d="M27.5625 13.5C27.8732 13.5 28.125 13.7518 28.125 14.0625C28.125 14.351 27.9079 14.5887 27.6281 14.6212L27.5625 14.625H12.9375C12.6268 14.625 12.375 14.3732 12.375 14.0625C12.375 13.774 12.5921 13.5363 12.8719 13.5038L12.9375 13.5H27.5625Z" fill="#000091"/>
<path d="M24.75 17.4375C24.75 17.1268 24.4982 16.875 24.1875 16.875H12.9375L12.8719 16.8788C12.5921 16.9113 12.375 17.149 12.375 17.4375C12.375 17.7482 12.6268 18 12.9375 18H24.1875L24.2531 17.9962C24.5329 17.9637 24.75 17.726 24.75 17.4375Z" fill="#000091"/>
<path d="M27.5625 20.25C27.8732 20.25 28.125 20.5018 28.125 20.8125C28.125 21.101 27.9079 21.3387 27.6281 21.3712L27.5625 21.375H12.9375C12.6268 21.375 12.375 21.1232 12.375 20.8125C12.375 20.524 12.5921 20.2863 12.8719 20.2538L12.9375 20.25H27.5625Z" fill="#000091"/>
<path d="M33.7462 11.7469C33.7137 11.4671 33.476 11.25 33.1875 11.25C32.8768 11.25 32.625 11.5018 32.625 11.8125V16.3125L32.6288 16.3781C32.6613 16.6579 32.899 16.875 33.1875 16.875C33.4982 16.875 33.75 16.6232 33.75 16.3125V11.8125L33.7462 11.7469Z" fill="#000091"/>
<path d="M28.6875 39.375C28.9982 39.375 29.25 39.6268 29.25 39.9375C29.25 40.226 29.0329 40.4637 28.7531 40.4962L28.6875 40.5H14.0625C13.7518 40.5 13.5 40.2482 13.5 39.9375C13.5 39.649 13.7171 39.4113 13.9969 39.3788L14.0625 39.375H28.6875Z" fill="#000091"/>
<path d="M24.75 24.1875C24.75 23.8768 24.4982 23.625 24.1875 23.625H12.9375L12.8719 23.6288C12.5921 23.6613 12.375 23.899 12.375 24.1875C12.375 24.4982 12.6268 24.75 12.9375 24.75H24.1875L24.2531 24.7462C24.5329 24.7137 24.75 24.476 24.75 24.1875Z" fill="#000091"/>
</svg>
