<svg fill="none" height="40" viewBox="0 0 40 40" width="40" xmlns="http://www.w3.org/2000/svg"><g clip-rule="evenodd" fill="#000" fill-rule="evenodd"><path d="m1.25 7.91675c0-.69036.55964-1.25 1.25-1.25h35c.6904 0 1.25.55964 1.25 1.25v24.99995c0 .6904-.5596 1.25-1.25 1.25h-35c-.69036 0-1.25-.5596-1.25-1.25zm2.5 1.25v22.49995h32.5v-22.49995z"/><path d="m2.07419 8.07122c.42089-.54721 1.20569-.64961 1.75291-.22872l13.5733 10.44.0001.0001c.7453.5733 1.6592.8841 2.5995.8841s1.8542-.3108 2.5995-.8841l.0001-.0001 13.5733-10.44c.5472-.42089 1.332-.31849 1.7529.22872.4209.54722.3185 1.33202-.2287 1.75291l-13.5733 10.43997c-1.1823.9095-2.6321 1.4026-4.1238 1.4026-1.4916 0-2.9415-.4931-4.1238-1.4026l-13.57329-10.43997c-.54721-.42089-.64961-1.20569-.22872-1.75291z"/></g></svg>