<svg width="29" height="28" viewBox="0 0 29 28" fill="none" xmlns="http://www.w3.org/2000/svg">
<g clip-path="url(#clip0)">
<path d="M14.1401 21.875C14.0536 21.875 13.969 21.9007 13.8971 21.9487C13.8251 21.9968 13.7691 22.0651 13.7359 22.1451C13.7028 22.225 13.6942 22.313 13.711 22.3979C13.7279 22.4827 13.7696 22.5607 13.8308 22.6219C13.892 22.683 13.9699 22.7247 14.0548 22.7416C14.1397 22.7585 14.2276 22.7498 14.3076 22.7167C14.3875 22.6836 14.4558 22.6275 14.5039 22.5556C14.552 22.4836 14.5776 22.399 14.5776 22.3125C14.5776 22.1965 14.5315 22.0852 14.4495 22.0031C14.3674 21.9211 14.2562 21.875 14.1401 21.875Z" stroke="#000000" stroke-width="1.75" stroke-linecap="round" stroke-linejoin="round"/>
<path d="M14.1421 18.375V9.625" stroke="#000000" stroke-width="1.75" stroke-miterlimit="10" stroke-linecap="round"/>
<path d="M16.0379 2.05354C15.8635 1.70006 15.5931 1.40232 15.2573 1.19409C14.9215 0.985863 14.5337 0.875488 14.1381 0.875488C13.7425 0.875488 13.3548 0.985863 13.019 1.19409C12.6832 1.40232 12.4127 1.70006 12.2383 2.05354L1.13597 24.5679C1.00233 24.8385 0.94017 25.1386 0.955371 25.4398C0.970572 25.7409 1.06263 26.0333 1.22285 26.2892C1.38306 26.5451 1.60616 26.7562 1.87108 26.9025C2.13599 27.0488 2.43398 27.1254 2.73692 27.1252H25.5393C25.8423 27.1254 26.1403 27.0488 26.4052 26.9025C26.6701 26.7562 26.8932 26.5451 27.0534 26.2892C27.2136 26.0333 27.3057 25.7409 27.3209 25.4398C27.3361 25.1386 27.2739 24.8385 27.1403 24.5679L16.0379 2.05354Z" stroke="#000000" stroke-width="1.75" stroke-linecap="round" stroke-linejoin="round"/>
<ellipse cx="14.1423" cy="22" rx="1.00457" ry="1" fill="#000000"/>
</g>
<defs>
<clipPath id="clip0">
<rect width="28.128" height="28" fill="white" transform="translate(0.078125)"/>
</clipPath>
</defs>
</svg>
