<svg width="23" height="19" viewBox="0 0 23 19" fill="none" xmlns="http://www.w3.org/2000/svg">
<path fill-rule="evenodd" clip-rule="evenodd" d="M11.191 0.881973C11.6145 0.670233 12.1212 0.715928 12.5 1.00001L22.5 8.50001C22.8148 8.73607 23 9.10656 23 9.50001C23 9.89345 22.8148 10.2639 22.5 10.5L12.5 18C12.1212 18.2841 11.6145 18.3298 11.191 18.118C10.7675 17.9063 10.5 17.4735 10.5 17V14.5H4.25C3.25544 14.5 2.30161 14.1049 1.59835 13.4017C0.895088 12.6984 0.5 11.7446 0.5 10.75V8.25001C0.5 7.25545 0.895087 6.30162 1.59835 5.59836C2.30161 4.89509 3.25544 4.50001 4.25 4.50001H10.5V2.00001C10.5 1.52654 10.7675 1.09371 11.191 0.881973ZM13 4.50001V5.75001C13 6.44036 12.4404 7.00001 11.75 7.00001H4.25C3.91848 7.00001 3.60054 7.1317 3.36612 7.36612C3.1317 7.60054 3 7.91849 3 8.25001V10.75C3 11.0815 3.1317 11.3995 3.36612 11.6339C3.60054 11.8683 3.91848 12 4.25 12H11.75C12.4404 12 13 12.5597 13 13.25V14.5L19.6667 9.50001L13 4.50001Z" fill="black"/>
</svg>
