<svg width="30" height="30" viewBox="0 0 30 30" fill="none" xmlns="http://www.w3.org/2000/svg">
<path fill-rule="evenodd" clip-rule="evenodd" d="M14.0625 11.25C13.8139 11.25 13.5754 11.3488 13.3996 11.5246C13.2238 11.7004 13.125 11.9389 13.125 12.1875V21.5625C13.125 21.8111 13.2238 22.0496 13.3996 22.2254C13.5754 22.4012 13.8139 22.5 14.0625 22.5H19.6875C19.9361 22.5 20.1746 22.5988 20.3504 22.7746L24.375 26.7992V23.4375C24.375 22.9197 24.7947 22.5 25.3125 22.5H27.1875C27.4361 22.5 27.6746 22.4012 27.8504 22.2254C28.0262 22.0496 28.125 21.8111 28.125 21.5625V12.1875C28.125 11.9389 28.0262 11.7004 27.8504 11.5246C27.6746 11.3488 27.4361 11.25 27.1875 11.25H14.0625ZM12.0738 10.1988C12.6012 9.67132 13.3166 9.375 14.0625 9.375H27.1875C27.9334 9.375 28.6488 9.67132 29.1762 10.1988C29.7037 10.7262 30 11.4416 30 12.1875V21.5625C30 22.3084 29.7037 23.0238 29.1762 23.5512C28.6488 24.0787 27.9334 24.375 27.1875 24.375H26.25V29.0625C26.25 29.4417 26.0216 29.7835 25.6713 29.9286C25.3209 30.0737 24.9177 29.9935 24.6496 29.7254L19.2992 24.375H14.0625C13.3166 24.375 12.6012 24.0787 12.0738 23.5512C11.5463 23.0238 11.25 22.3084 11.25 21.5625V12.1875C11.25 11.4416 11.5463 10.7262 12.0738 10.1988Z" fill="#4164F5"/>
<path fill-rule="evenodd" clip-rule="evenodd" d="M2.8125 1.875C2.56386 1.875 2.3254 1.97377 2.14959 2.14959C1.97377 2.3254 1.875 2.56386 1.875 2.8125V12.1875C1.875 12.4361 1.97377 12.6746 2.14959 12.8504C2.3254 13.0262 2.56386 13.125 2.8125 13.125H4.6875C5.20527 13.125 5.625 13.5447 5.625 14.0625V17.4242L7.77459 15.2746C8.1407 14.9085 8.7343 14.9085 9.10041 15.2746C9.46653 15.6407 9.46653 16.2343 9.10041 16.6004L5.35041 20.3504C5.08229 20.6185 4.67905 20.6987 4.32873 20.5536C3.97841 20.4085 3.75 20.0667 3.75 19.6875V15H2.8125C2.06658 15 1.35121 14.7037 0.823762 14.1762C0.296316 13.6488 0 12.9334 0 12.1875V2.8125C0 2.06658 0.296316 1.35121 0.823762 0.823762C1.35121 0.296316 2.06658 0 2.8125 0H15.9375C16.6834 0 17.3988 0.296316 17.9262 0.823762C18.4537 1.35121 18.75 2.06658 18.75 2.8125V6.5625C18.75 7.08026 18.3303 7.5 17.8125 7.5C17.2947 7.5 16.875 7.08026 16.875 6.5625V2.8125C16.875 2.56386 16.7762 2.3254 16.6004 2.14959C16.4246 1.97377 16.1861 1.875 15.9375 1.875H2.8125Z" fill="#4164F5"/>
</svg>
