<svg width="24" height="24" viewBox="0 0 24 24" fill="none" xmlns="http://www.w3.org/2000/svg">
<path fill-rule="evenodd" clip-rule="evenodd" d="M12 13.9995V15.9995C8.68629 15.9995 6 18.6858 6 21.9995H4C4 17.5812 7.58172 13.9995 12 13.9995ZM12 0.999512C15.315 0.999512 18 3.68451 18 6.99951C18 10.3145 15.315 12.9995 12 12.9995C8.685 12.9995 6 10.3145 6 6.99951C6 3.68451 8.685 0.999512 12 0.999512ZM12 2.99951C9.79 2.99951 8 4.78951 8 6.99951C8 9.20951 9.79 10.9995 12 10.9995C14.21 10.9995 16 9.20951 16 6.99951C16 4.78951 14.21 2.99951 12 2.99951Z" fill="#000091"/>
<path fill-rule="evenodd" clip-rule="evenodd" d="M13.5 13.9995H22.5C22.7761 13.9995 23 14.2234 23 14.4995V21.4995C23 21.7757 22.7761 21.9995 22.5 21.9995H13.5C13.2239 21.9995 13 21.7757 13 21.4995V14.4995C13 14.2234 13.2239 13.9995 13.5 13.9995ZM18.03 18.341L14.824 15.6185L14.1765 16.3805L18.0365 19.658L21.827 16.378L21.173 15.6215L18.03 18.341Z" fill="#000091"/>
</svg>
