<svg width="22" height="22" viewBox="0 0 22 22" fill="none" xmlns="http://www.w3.org/2000/svg">
  <path
    d="M18.3333 11C18.3333 7.87257 18.3333 6.30886 17.5067 5.23163C17.2939 4.9543 17.0457 4.70606 16.7684 4.49326C15.6911 3.66667 14.1274 3.66667 11 3.66667C7.87256 3.66667 6.30884 3.66667 5.23161 4.49326C4.95428 4.70606 4.70604 4.9543 4.49324 5.23163C3.66666 6.30886 3.66666 7.87257 3.66666 11V16.3333C3.66666 17.2761 3.66666 17.7476 3.95955 18.0404C4.25244 18.3333 4.72385 18.3333 5.66666 18.3333H11C14.1274 18.3333 15.6911 18.3333 16.7684 17.5068C17.0457 17.2939 17.2939 17.0457 17.5067 16.7684C18.3333 15.6912 18.3333 14.1274 18.3333 11Z"
    fill="#4164F5" stroke="white" stroke-width="1.2" />
  <path d="M8.25 9.16667L13.75 9.16667" stroke="white" stroke-width="1.2" stroke-linecap="round"
    stroke-linejoin="round" />
  <path d="M8.25 12.8333H11" stroke="white" stroke-width="1.2" stroke-linecap="round" stroke-linejoin="round" />
</svg>