<svg width="44" height="50" viewBox="0 0 44 50" fill="none" xmlns="http://www.w3.org/2000/svg">
<path fill-rule="evenodd" clip-rule="evenodd" d="M0.125 23.4375C0.125 22.5746 0.824555 21.875 1.6875 21.875H42.3125C43.1754 21.875 43.875 22.5746 43.875 23.4375V48.4375C43.875 49.3004 43.1754 50 42.3125 50H1.6875C0.824555 50 0.125 49.3004 0.125 48.4375V23.4375ZM3.25 25V46.875H40.75V25H3.25Z" fill="black"/>
<path fill-rule="evenodd" clip-rule="evenodd" d="M7.74794 1.37294C8.62701 0.49386 9.8193 0 11.0625 0H32.9375C34.1807 0 35.373 0.493861 36.2521 1.37294C37.1311 2.25201 37.625 3.4443 37.625 4.6875V23.4375C37.625 24.3004 36.9254 25 36.0625 25C35.1996 25 34.5 24.3004 34.5 23.4375V4.6875C34.5 4.2731 34.3354 3.87567 34.0424 3.58265C33.7493 3.28962 33.3519 3.125 32.9375 3.125H11.0625C10.6481 3.125 10.2507 3.28962 9.95765 3.58265C9.66462 3.87567 9.5 4.2731 9.5 4.6875V23.4375C9.5 24.3004 8.80044 25 7.9375 25C7.07456 25 6.375 24.3004 6.375 23.4375V4.6875C6.375 3.4443 6.86886 2.25201 7.74794 1.37294Z" fill="black"/>
<path fill-rule="evenodd" clip-rule="evenodd" d="M12.625 7.8125C12.625 6.94956 13.3246 6.25 14.1875 6.25H23.5625C24.4254 6.25 25.125 6.94956 25.125 7.8125C25.125 8.67544 24.4254 9.375 23.5625 9.375H14.1875C13.3246 9.375 12.625 8.67544 12.625 7.8125Z" fill="black"/>
<path fill-rule="evenodd" clip-rule="evenodd" d="M12.625 14.0625C12.625 13.1996 13.3246 12.5 14.1875 12.5H29.8125C30.6754 12.5 31.375 13.1996 31.375 14.0625C31.375 14.9254 30.6754 15.625 29.8125 15.625H14.1875C13.3246 15.625 12.625 14.9254 12.625 14.0625Z" fill="black"/>
<path fill-rule="evenodd" clip-rule="evenodd" d="M28.25 29.6875C28.25 28.8246 28.9496 28.125 29.8125 28.125H36.0625C36.9254 28.125 37.625 28.8246 37.625 29.6875V35.9375C37.625 36.8004 36.9254 37.5 36.0625 37.5H29.8125C28.9496 37.5 28.25 36.8004 28.25 35.9375V29.6875ZM31.375 31.25V34.375H34.5V31.25H31.375Z" fill="black"/>
<path fill-rule="evenodd" clip-rule="evenodd" d="M6.375 29.6875C6.375 28.8246 7.07456 28.125 7.9375 28.125H14.1875C15.0504 28.125 15.75 28.8246 15.75 29.6875C15.75 30.5504 15.0504 31.25 14.1875 31.25H7.9375C7.07456 31.25 6.375 30.5504 6.375 29.6875Z" fill="black"/>
<path fill-rule="evenodd" clip-rule="evenodd" d="M6.375 42.1875C6.375 41.3246 7.07456 40.625 7.9375 40.625H20.4375C21.3004 40.625 22 41.3246 22 42.1875C22 43.0504 21.3004 43.75 20.4375 43.75H7.9375C7.07456 43.75 6.375 43.0504 6.375 42.1875Z" fill="black"/>
</svg>
